<?xml version="1.0" encoding="UTF-8"?>
<svg width="15px" height="14px" viewBox="0 0 15 14" version="1.1" xmlns="http://www.w3.org/2000/svg" xmlns:xlink="http://www.w3.org/1999/xlink">
    <!-- Generator: Sketch 52.3 (67297) - http://www.bohemiancoding.com/sketch -->
    <title>cut</title>
    <desc>Created with Sketch.</desc>
    <g id="Symbols" stroke="none" stroke-width="1" fill="none" fill-rule="evenodd">
        <g id="图标" transform="translate(-1681.000000, -2287.000000)">
            <g id="cut" transform="translate(1676.000000, 2282.000000)">
                <path d="M17,13 C18.6568542,13 20,14.3431458 20,16 C20,17.6568542 18.6568542,19 17,19 C15.3431458,19 14,17.6568542 14,16 C14.002578,15.3162578 14.2409937,14.6543452 14.675,14.126 L12.521,11.47 L10.345,14.15 C11.3113713,15.3737475 11.1827752,17.132991 10.0487214,18.203203 C8.91466766,19.2734149 7.15093039,19.2999755 5.985165,18.2643971 C4.81939962,17.2288187 4.63788804,15.4742452 5.56697203,14.2219535 C6.49605602,12.9696618 8.22787917,12.6346048 9.557,13.45 L11.841,10.635 L7.788,5.635 L8.633,5 L12.521,9.794 L16.385,5.033 L17.229,5.668 L13.2,10.631 L15.471,13.431 C15.9321179,13.1512586 16.4606672,13.0022693 17,13 Z M8,14 C6.8954305,14 6,14.8954305 6,16 C6,17.1045695 6.8954305,18 8,18 C9.1045695,18 10,17.1045695 10,16 C10,14.8954305 9.1045695,14 8,14 Z M17,18 C18.1045695,18 19,17.1045695 19,16 C19,14.8954305 18.1045695,14 17,14 C15.8954305,14 15,14.8954305 15,16 C15,17.1045695 15.8954305,18 17,18 Z" id="剪切" fill="#293040" fill-rule="nonzero"></path>
            </g>
        </g>
    </g>
</svg>