<?xml version="1.0" encoding="UTF-8"?>
<svg width="16px" height="16px" viewBox="0 0 16 16" version="1.1" xmlns="http://www.w3.org/2000/svg" xmlns:xlink="http://www.w3.org/1999/xlink">
    <title>bcs-across-chain</title>
    <g id="图标入库记录" stroke="none" stroke-width="1" fill="none" fill-rule="evenodd">
        <g id="DevUI图标-入库记录-2024.01" transform="translate(-232.000000, -120.000000)" fill="#71757F" fill-rule="nonzero">
            <g id="编组-13备份" transform="translate(232.000000, 120.000000)">
                <path d="M3.89878067,7.57573593 C4.67982925,6.79468735 5.94615921,6.79468735 6.72720779,7.57573593 L7.22147543,8.07000357 L8.06929646,7.22218254 L7.57573593,6.72720779 C6.79468735,5.94615921 6.79468735,4.67982925 7.57573593,3.89878067 L10.4041631,1.07035354 C11.1852116,0.289304961 12.4515416,0.289304961 13.2325902,1.07035354 L14.9296465,2.76740982 C15.710695,3.5484584 15.710695,4.81478836 14.9296465,5.59583694 L12.1012193,8.42426407 C11.3201707,9.20531265 10.0538408,9.20531265 9.27279221,8.42426407 L8.77640325,7.92928932 L7.92858222,8.77711035 L8.42426407,9.27279221 C9.20531265,10.0538408 9.20531265,11.3201707 8.42426407,12.1012193 L5.59583694,14.9296465 C4.81478836,15.710695 3.5484584,15.710695 2.76740982,14.9296465 L1.07035354,13.2325902 C0.289304961,12.4515416 0.289304961,11.1852116 1.07035354,10.4041631 L3.89878067,7.57573593 Z M4.60588745,8.28284271 L1.77746033,11.1112698 C1.38693603,11.5017941 1.38693603,12.1349591 1.77746033,12.5254834 L3.4745166,14.2225397 C3.86504089,14.613064 4.49820587,14.613064 4.88873016,14.2225397 L7.71715729,11.3941125 C8.10768158,11.0035883 8.10768158,10.3704233 7.71715729,9.97989899 L7.22147543,9.48421713 L5.87867966,10.8284271 C5.68341751,11.0236893 5.36683502,11.0236893 5.17157288,10.8284271 C4.97631073,10.633165 4.97631073,10.3165825 5.17157288,10.1213203 L6.51436865,8.77711035 L6.02010101,8.28284271 C5.62957672,7.89231842 4.99641174,7.89231842 4.60588745,8.28284271 Z M11.1112698,1.77746033 L8.28284271,4.60588745 C7.89231842,4.99641174 7.89231842,5.62957672 8.28284271,6.02010101 L8.77640325,6.51507576 L9.48908404,5.80331379 C9.24506412,5.48948082 9.26724775,5.03569597 9.55563493,4.7473088 L11.2526912,3.05025254 C11.5651106,2.7378331 12.0716426,2.7378331 12.3840621,3.05025254 L12.9497475,3.61593795 C13.2621669,3.92835739 13.2621669,4.43488938 12.9497475,4.74730881 L11.2526912,6.44436507 C10.9640661,6.73299019 10.5097702,6.7549723 10.1959097,6.51031141 L9.48351003,7.22218254 L9.97989899,7.71715729 C10.3704233,8.10768158 11.0035883,8.10768158 11.3941125,7.71715729 L14.2225397,4.88873016 C14.613064,4.49820587 14.613064,3.86504089 14.2225397,3.4745166 L12.5254834,1.77746033 C12.1349591,1.38693603 11.5017941,1.38693603 11.1112698,1.77746033 Z" id="形状"></path>
            </g>
        </g>
    </g>
</svg>