<?xml version="1.0" encoding="UTF-8"?>
<svg width="16px" height="16px" viewBox="0 0 16 16" version="1.1" xmlns="http://www.w3.org/2000/svg" xmlns:xlink="http://www.w3.org/1999/xlink">
    <title>function icon/add response</title>
    <g id="图标入库记录" stroke="none" stroke-width="1" fill="none" fill-rule="evenodd">
        <g id="DevUI图标入库-2023.09" transform="translate(-312.000000, -120.000000)" fill="#71757F" fill-rule="nonzero">
            <g id="编组" transform="translate(312.000000, 120.000000)">
                <path d="M13,1 C14.0543618,1 14.9181651,1.81587779 14.9945143,2.85073766 L15,3 L15,8.5 C15,8.77614237 14.7761424,9 14.5,9 C14.2545401,9 14.0503916,8.82312484 14.0080557,8.58987563 L14,8.5 L14,3 C14,2.48716416 13.6139598,2.06449284 13.1166211,2.00672773 L13,2 L3,2 C2.48716416,2 2.06449284,2.38604019 2.00672773,2.88337887 L2,3 L2,13 C2,13.5128358 2.38604019,13.9355072 2.88337887,13.9932723 L3,14 L8.5,14 C8.77614237,14 9,14.2238576 9,14.5 C9,14.7454599 8.82312484,14.9496084 8.58987563,14.9919443 L8.5,15 L3,15 C1.9456382,15 1.08183488,14.1841222 1.00548574,13.1492623 L1,13 L1,3 C1,1.9456382 1.81587779,1.08183488 2.85073766,1.00548574 L3,1 L13,1 Z M12.5,10 C12.7761424,10 13,10.2238576 13,10.5 L13,12 L14.5,12 C14.7761424,12 15,12.2238576 15,12.5 C15,12.7761424 14.7761424,13 14.5,13 L13,13 L13,14.5 C13,14.7761424 12.7761424,15 12.5,15 C12.2238576,15 12,14.7761424 12,14.5 L12,13 L10.5,13 C10.2238576,13 10,12.7761424 10,12.5 C10,12.2238576 10.2238576,12 10.5,12 L12,12 L12,10.5 C12,10.2238576 12.2238576,10 12.5,10 Z M9.5,4 L8.5,7 L10,8 L7,12 L7.5,9 L6,8 L9.5,4 Z" id="形状结合"></path>
            </g>
        </g>
    </g>
</svg>