<?xml version="1.0" encoding="UTF-8"?>
<svg width="16px" height="16px" viewBox="0 0 16 16" version="1.1" xmlns="http://www.w3.org/2000/svg" xmlns:xlink="http://www.w3.org/1999/xlink">
    <title>function icon/add module-front</title>
    <g id="图标入库记录" stroke="none" stroke-width="1" fill="none" fill-rule="evenodd">
        <g id="API-starter-图标入库记录-2211110" transform="translate(-172.000000, -120.000000)" fill="#71757F">
            <g id="编组-2" transform="translate(172.000000, 120.000000)">
                <path d="M2.99327227,6.61662113 L3,6.5 L3,5 C3,3.9456382 3.81587779,3.08183488 4.85073766,3.00548574 L5,3 L6.5,3 C6.77614237,3 7,3.22385763 7,3.5 C7,3.74545989 6.82312484,3.94960837 6.58987563,3.99194433 L6.5,4 L5,4 C4.48716416,4 4.06449284,4.38604019 4.00672773,4.88337887 L4,5 L4,6.5 C4,7.09794662 3.7375959,7.63460548 3.32165982,8.00110445 C3.7375959,8.36539452 4,8.90205338 4,9.5 L4,9.5 L4,11 L4.00672773,11.1166211 C4.06449284,11.6139598 4.48716416,12 5,12 L5,12 L6.5,12 L6.58987563,12.0080557 C6.82312484,12.0503916 7,12.2545401 7,12.5 C7,12.7761424 6.77614237,13 6.5,13 L6.5,13 L5,13 L4.85073766,12.9945143 C3.81587779,12.9181651 3,12.0543618 3,11 L3,11 L3,9.5 L2.99327227,9.38337887 C2.93550716,8.88604019 2.51283584,8.5 2,8.5 L2,8.5 L1.5,8.5 L1.41012437,8.49194433 C1.17687516,8.44960837 1,8.24545989 1,8 C1,7.72385763 1.22385763,7.5 1.5,7.5 L1.5,7.5 L2,7.5 C2.51283584,7.5 2.93550716,7.11395981 2.99327227,6.61662113 Z M12,10 C13.1045695,10 14,10.8954305 14,12 L14,13 C14,14.1045695 13.1045695,15 12,15 L11,15 C9.8954305,15 9,14.1045695 9,13 L9,12 C9,10.8954305 9.8954305,10 11,10 L12,10 Z M12,11 L11,11 C10.4871642,11 10.0644928,11.3860402 10.0067277,11.8833789 L10,12 L10,13 C10,13.5128358 10.3860402,13.9355072 10.8833789,13.9932723 L11,14 L12,14 C12.5128358,14 12.9355072,13.6139598 12.9932723,13.1166211 L13,13 L13,12 C13,11.4871642 12.6139598,11.0644928 12.1166211,11.0067277 L12,11 Z M11.5,1 C11.7761424,1 12,1.22385763 12,1.5 L12,3 L13.5,3 C13.7761424,3 14,3.22385763 14,3.5 C14,3.77614237 13.7761424,4 13.5,4 L12,4 L12,5.5 C12,5.77614237 11.7761424,6 11.5,6 C11.2238576,6 11,5.77614237 11,5.5 L11,4 L9.5,4 C9.22385763,4 9,3.77614237 9,3.5 C9,3.22385763 9.22385763,3 9.5,3 L11,3 L11,1.5 C11,1.22385763 11.2238576,1 11.5,1 Z" id="形状结合"></path>
            </g>
        </g>
    </g>
</svg>