<?xml version="1.0" encoding="UTF-8"?>
<svg width="16px" height="16px" viewBox="0 0 16 16" version="1.1" xmlns="http://www.w3.org/2000/svg" xmlns:xlink="http://www.w3.org/1999/xlink">
    <title>function icon/add response header</title>
    <g id="图标入库记录" stroke="none" stroke-width="1" fill="none" fill-rule="evenodd">
        <g id="DevUI图标入库-2023.09" transform="translate(-792.000000, -120.000000)" fill="#71757F">
            <g id="编组" transform="translate(792.000000, 120.000000)">
                <path d="M12.5,10 C12.7761424,10 13,10.2238576 13,10.5 L13,12 L14.5,12 C14.7761424,12 15,12.2238576 15,12.5 C15,12.7761424 14.7761424,13 14.5,13 L13,13 L13,14.5 C13,14.7761424 12.7761424,15 12.5,15 C12.2238576,15 12,14.7761424 12,14.5 L12,13 L10.5,13 C10.2238576,13 10,12.7761424 10,12.5 C10,12.2238576 10.2238576,12 10.5,12 L12,12 L12,10.5 C12,10.2238576 12.2238576,10 12.5,10 Z M13,2 C14.0543618,2 14.9181651,2.81587779 14.9945143,3.85073766 L15,4 L15,8.49931112 C15,8.7754535 14.7761424,8.99931112 14.5,8.99931112 C14.2545401,8.99931112 14.0503916,8.82243596 14.0080557,8.58918675 L14,8.49931112 L14,6 L2,6 L2,12 C2,12.5128358 2.38604019,12.9355072 2.88337887,12.9932723 L3,13 L7.5,13 C7.77614237,13 8,13.2238576 8,13.5 C8,13.7454599 7.82312484,13.9496084 7.58987563,13.9919443 L7.5,14 L3,14 C1.9456382,14 1.08183488,13.1841222 1.00548574,12.1492623 L1,12 L1,4 C1,2.9456382 1.81587779,2.08183488 2.85073766,2.00548574 L3,2 L13,2 Z M9.5,10 C9.77614237,10 10,10.2238576 10,10.5 C10,10.7761424 9.77614237,11 9.5,11 L7.5,11 C7.22385763,11 7,10.7761424 7,10.5 C7,10.2238576 7.22385763,10 7.5,10 L9.5,10 Z M4.7843055,7.08859116 L4.85355339,7.14644661 L6.35355339,8.64644661 C6.52711974,8.82001296 6.54640489,9.08943736 6.41140884,9.2843055 L6.35355339,9.35355339 L4.85355339,10.8535534 C4.65829124,11.0488155 4.34170876,11.0488155 4.14644661,10.8535534 C3.97288026,10.679987 3.95359511,10.4105626 4.08859116,10.2156945 L4.14644661,10.1464466 L5.293,9 L4.14644661,7.85355339 C3.97288026,7.67998704 3.95359511,7.41056264 4.08859116,7.2156945 L4.14644661,7.14644661 C4.32001296,6.97288026 4.58943736,6.95359511 4.7843055,7.08859116 Z M13,3 L3,3 C2.48716416,3 2.06449284,3.38604019 2.00672773,3.88337887 L2,4 L2,5 L14,5 L14,4 C14,3.48716416 13.6139598,3.06449284 13.1166211,3.00672773 L13,3 Z" id="形状"></path>
            </g>
        </g>
    </g>
</svg>