<?xml version="1.0" encoding="UTF-8"?>
<svg width="16px" height="16px" viewBox="0 0 16 16" version="1.1" xmlns="http://www.w3.org/2000/svg" xmlns:xlink="http://www.w3.org/1999/xlink">
    <title>function icon/add example</title>
    <g id="图标入库记录" stroke="none" stroke-width="1" fill="none" fill-rule="evenodd">
        <g id="DevUI图标入库-2023.09" transform="translate(-632.000000, -120.000000)" fill="#71757F" fill-rule="nonzero">
            <g id="API测试套件" transform="translate(632.000000, 120.000000)">
                <path d="M12.5,10 C12.7761424,10 13,10.2238576 13,10.5 L13,12 L14.5,12 C14.7761424,12 15,12.2238576 15,12.5 C15,12.7761424 14.7761424,13 14.5,13 L13,13 L13,14.5 C13,14.7761424 12.7761424,15 12.5,15 C12.2238576,15 12,14.7761424 12,14.5 L12,13 L10.5,13 C10.2238576,13 10,12.7761424 10,12.5 C10,12.2238576 10.2238576,12 10.5,12 L12,12 L12,10.5 C12,10.2238576 12.2238576,10 12.5,10 Z M13,2 C14.0543618,2 14.9181651,2.81587779 14.9945143,3.85073766 L15,4 L15,6.5 C15,6.77614237 14.7761424,7 14.5,7 C14.2545401,7 14.0503916,6.82312484 14.0080557,6.58987563 L14,6.5 L14,4 C14,3.48716416 13.6139598,3.06449284 13.1166211,3.00672773 L13,3 L3,3 C2.48716416,3 2.06449284,3.38604019 2.00672773,3.88337887 L2,4 L2,12 C2,12.5128358 2.38604019,12.9355072 2.88337887,12.9932723 L3,13 L7.5,13 C7.77614237,13 8,13.2238576 8,13.5 C8,13.7454599 7.82312484,13.9496084 7.58987563,13.9919443 L7.5,14 L3,14 C1.9456382,14 1.08183488,13.1841222 1.00548574,12.1492623 L1,12 L1,4 C1,2.9456382 1.81587779,2.08183488 2.85073766,2.00548574 L3,2 L13,2 Z M10.5,8 C10.7761424,8 11,8.22385763 11,8.5 C11,8.77614237 10.7761424,9 10.5,9 L7.5,9 C7.22385763,9 7,8.77614237 7,8.5 C7,8.22385763 7.22385763,8 7.5,8 L10.5,8 Z M4.7843055,5.08859116 L4.85355339,5.14644661 L6.35355339,6.64644661 C6.52711974,6.82001296 6.54640489,7.08943736 6.41140884,7.2843055 L6.35355339,7.35355339 L4.85355339,8.85355339 C4.65829124,9.04881554 4.34170876,9.04881554 4.14644661,8.85355339 C3.97288026,8.67998704 3.95359511,8.41056264 4.08859116,8.2156945 L4.14644661,8.14644661 L5.293,7 L4.14644661,5.85355339 C3.97288026,5.67998704 3.95359511,5.41056264 4.08859116,5.2156945 L4.14644661,5.14644661 C4.32001296,4.97288026 4.58943736,4.95359511 4.7843055,5.08859116 Z" id="形状"></path>
            </g>
        </g>
    </g>
</svg>