<?xml version="1.0" encoding="UTF-8"?>
<svg width="16px" height="16px" viewBox="0 0 16 16" version="1.1" xmlns="http://www.w3.org/2000/svg" xmlns:xlink="http://www.w3.org/1999/xlink">
    <title>icon icon-add-2</title>
    <g id="icon-icon-add-2" stroke="none" stroke-width="1" fill="none" fill-rule="evenodd">
        <path d="M8,1 C11.8659949,1 15,4.13400512 15,8 C15,11.8659949 11.8659949,15 8,15 C4.13400512,15 1,11.8659949 1,8 C1,4.13400512 4.13400512,1 8,1 Z M8,1.93333333 C4.64947088,1.93333333 1.93333333,4.64947088 1.93333333,8 C1.93333333,11.3505291 4.64947088,14.0666667 8,14.0666667 C11.3505291,14.0666667 14.0666667,11.3505291 14.0666667,8 C14.0666667,4.64947088 11.3505291,1.93333333 8,1.93333333 Z M8,4.83333333 C8.24545989,4.83333333 8.44960837,5.01020849 8.49194433,5.2434577 L8.5,5.33333333 L8.499,7.499 L10.6666667,7.5 C10.942809,7.5 11.1666667,7.72385763 11.1666667,8 C11.1666667,8.24545989 10.9897915,8.44960837 10.7565423,8.49194433 L10.6666667,8.5 L8.499,8.499 L8.5,10.6666667 C8.5,10.942809 8.27614237,11.1666667 8,11.1666667 C7.75454011,11.1666667 7.55039163,10.9897915 7.50805567,10.7565423 L7.5,10.6666667 L7.499,8.499 L5.33333333,8.5 C5.05719096,8.5 4.83333333,8.27614237 4.83333333,8 C4.83333333,7.75454011 5.01020849,7.55039163 5.2434577,7.50805567 L5.33333333,7.5 L7.499,7.499 L7.5,5.33333333 C7.5,5.05719096 7.72385763,4.83333333 8,4.83333333 Z" id="形状结合" fill="#71757F" fill-rule="nonzero"></path>
    </g>
</svg>