<?xml version="1.0" encoding="UTF-8"?>
<svg width="16px" height="16px" viewBox="0 0 16 16" version="1.1" xmlns="http://www.w3.org/2000/svg" xmlns:xlink="http://www.w3.org/1999/xlink">
    <title>function icon/add node</title>
    <g id="图标入库记录" stroke="none" stroke-width="1" fill="none" fill-rule="evenodd">
        <g id="API-starter-图标入库记录-221117" transform="translate(-172.000000, -120.000000)" fill="#71757F">
            <g id="编组-9" transform="translate(172.000000, 120.000000)">
                <path d="M12.5,10 C12.7761424,10 13,10.2238576 13,10.5 L13,12 L14.5,12 C14.7761424,12 15,12.2238576 15,12.5 C15,12.7761424 14.7761424,13 14.5,13 L13,13 L13,14.5 C13,14.7761424 12.7761424,15 12.5,15 C12.2238576,15 12,14.7761424 12,14.5 L12,13 L10.5,13 C10.2238576,13 10,12.7761424 10,12.5 C10,12.2238576 10.2238576,12 10.5,12 L12,12 L12,10.5 C12,10.2238576 12.2238576,10 12.5,10 Z M12,2 C13.0543618,2 13.9181651,2.81587779 13.9945143,3.85073766 L14,4 L14,5 C14,6.0543618 13.1841222,6.91816512 12.1492623,6.99451426 L12,7 L6,7 C4.9456382,7 4.08183488,6.18412221 4.00548574,5.14926234 L4,5 L3,5 C2.48716416,5 2.06449284,5.38604019 2.00672773,5.88337887 L2,6 L2,12 C2,12.5128358 2.38604019,12.9355072 2.88337887,12.9932723 L3,13 L7.5,13 C7.77614237,13 8,13.2238576 8,13.5 C8,13.7454599 7.82312484,13.9496084 7.58987563,13.9919443 L7.5,14 L3,14 C1.9456382,14 1.08183488,13.1841222 1.00548574,12.1492623 L1,12 L1,6 C1,4.9456382 1.81587779,4.08183488 2.85073766,4.00548574 L3,4 L4,4 C4,2.9456382 4.81587779,2.08183488 5.85073766,2.00548574 L6,2 L12,2 Z M12,3 L6,3 C5.48716416,3 5.06449284,3.38604019 5.00672773,3.88337887 L5,4 L5,5 C5,5.51283584 5.38604019,5.93550716 5.88337887,5.99327227 L6,6 L12,6 C12.5128358,6 12.9355072,5.61395981 12.9932723,5.11662113 L13,5 L13,4 C13,3.44771525 12.5522847,3 12,3 Z" id="形状结合"></path>
            </g>
        </g>
    </g>
</svg>