<?xml version="1.0" encoding="UTF-8"?>
<svg width="16px" height="16px" viewBox="0 0 16 16" version="1.1" xmlns="http://www.w3.org/2000/svg" xmlns:xlink="http://www.w3.org/1999/xlink">
    <title>function icon/add requestor</title>
    <g id="图标入库记录" stroke="none" stroke-width="1" fill="none" fill-rule="evenodd">
        <g id="DevUI图标入库-2023.09" transform="translate(-552.000000, -120.000000)" fill="#71757F" fill-rule="nonzero">
            <g id="编组-5" transform="translate(552.000000, 120.000000)">
                <path d="M10.4811512,0.999504582 C10.585097,0.99481499 10.6918996,1.0225043 10.7857967,1.08910148 L10.8535534,1.14644661 L13.8535534,4.14644661 C13.9287762,4.22166939 13.9733114,4.30964409 13.9914591,4.3999898 L14,4.5 L14,8.5 C14,8.77614237 13.7761424,9 13.5,9 C13.2545401,9 13.0503916,8.82312484 13.0080557,8.58987563 L13,8.5 L13,4.99999762 L10.5,5 C10.2545401,5 10.0503916,4.82312484 10.0080557,4.58987563 L10,4.5 L10,1.99999762 L4,2 C3.48716416,2 3.06449284,2.38604019 3.00672773,2.88337887 L3,3 L3,13 C3,13.5128358 3.38604019,13.9355072 3.88337887,13.9932723 L4,14 L8.5,14 C8.77614237,14 9,14.2238576 9,14.5 C9,14.7454599 8.82312484,14.9496084 8.58987563,14.9919443 L8.5,15 L4,15 C2.9456382,15 2.08183488,14.1841222 2.00548574,13.1492623 L2,13 L2,3 C2,1.9456382 2.81587779,1.08183488 3.85073766,1.00548574 L4,1 L10.4811512,0.999504582 Z M12.5,10 C12.7761424,10 13,10.2238576 13,10.5 L13,12 L14.5,12 C14.7761424,12 15,12.2238576 15,12.5 C15,12.7761424 14.7761424,13 14.5,13 L13,13 L13,14.5 C13,14.7761424 12.7761424,15 12.5,15 C12.2238576,15 12,14.7761424 12,14.5 L12,13 L10.5,13 C10.2238576,13 10,12.7761424 10,12.5 C10,12.2238576 10.2238576,12 10.5,12 L12,12 L12,10.5 C12,10.2238576 12.2238576,10 12.5,10 Z M10.5,8 C10.7761424,8 11,8.22385763 11,8.5 C11,8.77614237 10.7761424,9 10.5,9 L8.5,9 C8.22385763,9 8,8.77614237 8,8.5 C8,8.22385763 8.22385763,8 8.5,8 L10.5,8 Z M5.7843055,5.08859116 L5.85355339,5.14644661 L7.35355339,6.64644661 C7.52711974,6.82001296 7.54640489,7.08943736 7.41140884,7.2843055 L7.35355339,7.35355339 L5.85355339,8.85355339 C5.65829124,9.04881554 5.34170876,9.04881554 5.14644661,8.85355339 C4.97288026,8.67998704 4.95359511,8.41056264 5.08859116,8.2156945 L5.14644661,8.14644661 L6.293,7 L5.14644661,5.85355339 C4.97288026,5.67998704 4.95359511,5.41056264 5.08859116,5.2156945 L5.14644661,5.14644661 C5.32001296,4.97288026 5.58943736,4.95359511 5.7843055,5.08859116 Z M11,2.707 L11,4 L12.293,4 L11,2.707 Z" id="形状"></path>
            </g>
        </g>
    </g>
</svg>