<?xml version="1.0" encoding="UTF-8"?>
<svg width="16px" height="16px" viewBox="0 0 16 16" version="1.1" xmlns="http://www.w3.org/2000/svg" xmlns:xlink="http://www.w3.org/1999/xlink">
    <title>function icon/add group</title>
    <g id="页面-1" stroke="none" stroke-width="1" fill="none" fill-rule="evenodd">
        <g id="API-starter-图标入库" transform="translate(-292.000000, -204.000000)">
            <g id="方格备份-13" transform="translate(260.000000, 180.000000)">
                <text id="图标" font-family="PingFangSC-Regular, PingFang SC" font-size="12" font-weight="normal" line-spacing="16" fill="#71757F">
                    <tspan x="15.136" y="61">新建分组</tspan>
                </text>
            </g>
            <path d="M304.5,214 C304.776142,214 305,214.223858 305,214.5 L305,216 L306.5,216 C306.776142,216 307,216.223858 307,216.5 C307,216.776142 306.776142,217 306.5,217 L305,217 L305,218.5 C305,218.776142 304.776142,219 304.5,219 C304.223858,219 304,218.776142 304,218.5 L304,217 L302.5,217 C302.223858,217 302,216.776142 302,216.5 C302,216.223858 302.223858,216 302.5,216 L304,216 L304,214.5 C304,214.223858 304.223858,214 304.5,214 Z M297.085786,206 C297.433883,206 297.769505,206.120996 298.036423,206.339697 L298.146447,206.43934 L299.56066,207.853553 C299.635675,207.928568 299.732071,207.977285 299.835524,207.993771 L299.914214,208 L305.5,208 C306.279696,208 306.920449,208.594888 306.993133,209.35554 L307,209.5 L307,211.5 C307,211.776142 306.776142,212 306.5,212 C306.25454,212 306.050392,211.823125 306.008056,211.589876 L306,211.5 L306,209.5 C306,209.25454 305.823125,209.050392 305.589876,209.008056 L305.5,209 L299.914214,209 C299.566117,209 299.230495,208.879004 298.963577,208.660303 L298.853553,208.56066 L297.43934,207.146447 C297.364325,207.071432 297.267929,207.022715 297.164476,207.006229 L297.085786,207 L294.5,207 C294.25454,207 294.050392,207.176875 294.008056,207.410124 L294,207.5 L294,216.5 C294,216.74546 294.176875,216.949608 294.410124,216.991944 L294.5,217 L299.5,217 C299.776142,217 300,217.223858 300,217.5 C300,217.74546 299.823125,217.949608 299.589876,217.991944 L299.5,218 L294.5,218 C293.720304,218 293.079551,217.405112 293.006867,216.64446 L293,216.5 L293,207.5 C293,206.720304 293.594888,206.079551 294.35554,206.006867 L294.5,206 L297.085786,206 Z M299.5,211 C299.776142,211 300,211.223858 300,211.5 C300,211.776142 299.776142,212 299.5,212 L296.5,212 C296.223858,212 296,211.776142 296,211.5 C296,211.223858 296.223858,211 296.5,211 L299.5,211 Z" id="形状结合" fill="#71757F"></path>
        </g>
    </g>
</svg>