<?xml version="1.0" encoding="UTF-8"?>
<svg width="16px" height="16px" viewBox="0 0 16 16" version="1.1" xmlns="http://www.w3.org/2000/svg" xmlns:xlink="http://www.w3.org/1999/xlink">
    <title>function icon/add member</title>
    <g id="页面-1" stroke="none" stroke-width="1" fill="none" fill-rule="evenodd">
        <g id="API-starter-图标入库" transform="translate(-192.000000, -124.000000)">
            <g id="方格备份-14" transform="translate(160.000000, 100.000000)">
                <text id="图标" font-family="PingFangSC-Regular, PingFang SC" font-size="12" font-weight="normal" line-spacing="16" fill="#71757F">
                    <tspan x="15.136" y="61">添加成员</tspan>
                </text>
            </g>
            <path d="M204.5,134 C204.776142,134 205,134.223858 205,134.5 L205,136 L206.5,136 C206.776142,136 207,136.223858 207,136.5 C207,136.776142 206.776142,137 206.5,137 L205,137 L205,138.5 C205,138.776142 204.776142,139 204.5,139 C204.223858,139 204,138.776142 204,138.5 L204,137 L202.5,137 C202.223858,137 202,136.776142 202,136.5 C202,136.223858 202.223858,136 202.5,136 L204,136 L204,134.5 C204,134.223858 204.223858,134 204.5,134 Z M200,125.5 C201.932997,125.5 203.5,127.067003 203.5,129 C203.5,130.165458 202.93036,131.197869 202.054314,131.833999 C202.475207,131.97158 202.879837,132.154344 203.263824,132.377698 C203.502522,132.516542 203.58347,132.822601 203.444626,133.061299 C203.305782,133.299998 202.999723,133.380946 202.761025,133.242102 C201.929472,132.758412 200.984191,132.5 200,132.5 C196.962434,132.5 194.5,134.962434 194.5,138 C194.5,138.276142 194.276142,138.5 194,138.5 C193.723858,138.5 193.5,138.276142 193.5,138 C193.5,135.128941 195.36143,132.692642 197.943281,131.832113 C197.068789,131.196326 196.5,130.164587 196.5,129 C196.5,127.067003 198.067003,125.5 200,125.5 Z M200,126.5 C198.619288,126.5 197.5,127.619288 197.5,129 C197.5,130.380712 198.619288,131.5 200,131.5 C201.380712,131.5 202.5,130.380712 202.5,129 C202.5,127.619288 201.380712,126.5 200,126.5 Z" id="形状结合" fill="#71757F"></path>
        </g>
    </g>
</svg>