<?xml version="1.0" encoding="UTF-8"?>
<svg width="16px" height="16px" viewBox="0 0 16 16" version="1.1" xmlns="http://www.w3.org/2000/svg" xmlns:xlink="http://www.w3.org/1999/xlink">
    <title>function icon/add image</title>
    <g id="DevUI风格图标汇总-220907" stroke="none" stroke-width="1" fill="none" fill-rule="evenodd">
        <g id="DevUI-通用图标" transform="translate(-432.000000, -600.000000)" fill="#71757F" fill-rule="nonzero">
            <g id="编组-13备份" transform="translate(432.000000, 600.000000)">
                <path d="M12.5,10 C12.7761424,10 13,10.2238576 13,10.5 L12.9999875,12 L14.5,12 C14.7761424,12 15,12.2238576 15,12.5 C15,12.7761424 14.7761424,13 14.5,13 L12.9999875,13 L13,14.5 C13,14.7761424 12.7761424,15 12.5,15 C12.2238576,15 12,14.7761424 12,14.5 L11.9999875,13 L10.5,13 C10.2238576,13 10,12.7761424 10,12.5 C10,12.2238576 10.2238576,12 10.5,12 L11.9999875,12 L12,10.5 C12,10.2238576 12.2238576,10 12.5,10 Z M14.9949875,9.565 L14.9873312,9.61233342 L14.9873312,9.61233342 C14.9838645,9.62756816 14.9794469,9.64331207 14.9742284,9.65888039 C14.9698382,9.67197847 14.964975,9.68470767 14.9596194,9.69717531 C14.9535292,9.71133698 14.9465759,9.72563425 14.9388839,9.73967747 C14.9327615,9.75091403 14.9263259,9.76167383 14.9195076,9.77216197 C14.9134983,9.78134885 14.9069334,9.79075541 14.9,9.8 L14.8901556,9.8127245 L14.8771158,9.82831537 L14.8771158,9.82831537 L14.8669875,9.839 L14.8634638,9.84335885 L14.8310526,9.87483828 L14.8310526,9.87483828 L14.79726,9.90208018 L14.79726,9.90208018 L14.7616971,9.92620207 L14.7616971,9.92620207 C14.7480767,9.93451575 14.7338973,9.94233065 14.71932,9.94945725 L14.6871132,9.96374818 L14.6871132,9.96374818 C14.6742803,9.96898748 14.6613833,9.97358416 14.6482548,9.97765448 C14.6309953,9.98289595 14.6134587,9.98730114 14.5957453,9.99075128 L14.5730734,9.99469844 L14.5730734,9.99469844 C14.5537314,9.99747448 14.5345831,9.99917881 14.5153773,9.99978196 L14.5,10 L14.4349875,9.995 L14.4428901,9.99677412 L14.5,10 L14.470654,9.99919258 C14.4552698,9.99830245 14.439899,9.99670067 14.4245935,9.99437984 L14.4349875,9.995 L14.3876666,9.98733122 L14.3876666,9.98733122 C14.3724318,9.98386448 14.3566879,9.97944691 14.3411196,9.9742284 C14.3280215,9.96983821 14.3152923,9.96497503 14.3028247,9.95961939 L14.2767339,9.94748084 L14.2767339,9.94748084 L14.2600976,9.93879472 L14.2227297,9.91614209 L14.2227297,9.91614209 L14.2,9.9 L10.576,7.182 L7.48280432,10.8237273 C7.34072298,10.990968 7.10946747,11.0434683 6.91266911,10.9629321 L6.83079701,10.9202181 L4.101,9.16 L1.99998746,11.681 L2,12 C2,12.5128358 2.38604019,12.9355072 2.88337887,12.9932723 L3,13 L8.5,13 C8.77614237,13 9,13.2238576 9,13.5 C9,13.7454599 8.82312484,13.9496084 8.58987563,13.9919443 L8.5,14 L3,14 C1.9456382,14 1.08183488,13.1841222 1.00548574,12.1492623 L1,12 L1,4 C1,2.9456382 1.81587779,2.08183488 2.85073766,2.00548574 L3,2 L13,2 C14.0543618,2 14.9181651,2.81587779 14.9945143,3.85073766 L15,4 L15,9.5 L14.9991341,9.53033999 L14.997324,9.55239393 L14.997324,9.55239393 L14.9959875,9.557 L14.9949875,9.565 Z M13,3 L3,3 C2.48716416,3 2.06449284,3.38604019 2.00672773,3.88337887 L2,4 L1.99998746,10.117 L3.61588936,8.1799078 C3.75738878,8.01010849 3.99025827,7.95599331 4.18848791,8.03682269 L4.27095528,8.07978192 L7.004,9.842 L10.118948,6.17627271 C10.2687115,5.99998416 10.5159015,5.95236724 10.717037,6.04947468 L10.8,6.1 L13.9999875,8.5 L14,4 C14,3.48716416 13.6139598,3.06449284 13.1166211,3.00672773 L13,3 Z M6,5 C6.55228475,5 7,5.44771525 7,6 C7,6.55228475 6.55228475,7 6,7 C5.44771525,7 5,6.55228475 5,6 C5,5.44771525 5.44771525,5 6,5 Z" id="形状结合"></path>
            </g>
        </g>
    </g>
</svg>