<?xml version="1.0" encoding="UTF-8"?>
<svg width="16px" height="16px" viewBox="0 0 16 16" version="1.1" xmlns="http://www.w3.org/2000/svg" xmlns:xlink="http://www.w3.org/1999/xlink">
    <title>function icon/align-center</title>
    <g id="图标入库记录" stroke="none" stroke-width="1" fill="none" fill-rule="evenodd">
        <g id="DevUI图标-入库记录230316" transform="translate(-92.000000, -120.000000)" fill="#71757F" fill-rule="nonzero">
            <g id="编组" transform="translate(92.000000, 120.000000)">
                <path d="M13,1 C14.1045695,1 15,1.8954305 15,3 L15,13 C15,14.1045695 14.1045695,15 13,15 L3,15 C1.8954305,15 1,14.1045695 1,13 L1,3 C1,1.8954305 1.8954305,1 3,1 L13,1 Z M13,2 L3,2 C2.48716416,2 2.06449284,2.38604019 2.00672773,2.88337887 L2,3 L2,13 C2,13.5128358 2.38604019,13.9355072 2.88337887,13.9932723 L3,14 L13,14 C13.5128358,14 13.9355072,13.6139598 13.9932723,13.1166211 L14,13 L14,3 C14,2.48716416 13.6139598,2.06449284 13.1166211,2.00672773 L13,2 Z M9.5,10 C9.77614237,10 10,10.2238576 10,10.5 C10,10.7761424 9.77614237,11 9.5,11 L9.5,11 L6.5,11 C6.22385763,11 6,10.7761424 6,10.5 C6,10.2238576 6.22385763,10 6.5,10 L6.5,10 Z M11.5,7.5 C11.7761424,7.5 12,7.72385763 12,8 C12,8.27614237 11.7761424,8.5 11.5,8.5 L11.5,8.5 L4.5,8.5 C4.22385763,8.5 4,8.27614237 4,8 C4,7.72385763 4.22385763,7.5 4.5,7.5 L4.5,7.5 Z M9.5,5 C9.77614237,5 10,5.22385763 10,5.5 C10,5.77614237 9.77614237,6 9.5,6 L9.5,6 L6.5,6 C6.22385763,6 6,5.77614237 6,5.5 C6,5.22385763 6.22385763,5 6.5,5 L6.5,5 Z" id="形状结合"></path>
            </g>
        </g>
    </g>
</svg>