<?xml version="1.0" encoding="UTF-8"?>
<svg width="16px" height="16px" viewBox="0 0 16 16" version="1.1" xmlns="http://www.w3.org/2000/svg" xmlns:xlink="http://www.w3.org/1999/xlink">
    <title>全部收起</title>
    <g id="全部收起" stroke="none" stroke-width="1" fill="none" fill-rule="evenodd">
        <path d="M4.715694,14.4114091 C4.910563,14.5464051 5.179987,14.5271201 5.353553,14.3535531 L5.353553,14.3535531 L7.99999988,11.7070001 L10.646447,14.3535531 L10.715694,14.4114091 C10.910563,14.5464051 11.179987,14.5271201 11.353553,14.3535531 C11.548816,14.1582911 11.548816,13.8417091 11.353553,13.6464471 L11.353553,13.6464471 L8.353553,10.6464471 L8.284306,10.5885911 C8.089437,10.4535951 7.820013,10.4728801 7.646447,10.6464471 L7.646447,10.6464471 L4.646447,13.6464471 L4.588591,13.7156941 C4.453595,13.9105631 4.47288,14.1799871 4.646447,14.3535531 L4.646447,14.3535531 L4.715694,14.4114091 Z M14.5,7.50000012 C14.776142,7.50000012 15,7.72385812 15,8.00000012 C15,8.27614212 14.776142,8.50000012 14.5,8.50000012 L1.5,8.50000012 C1.223858,8.50000012 1,8.27614212 1,8.00000012 C1,7.72385812 1.223858,7.50000012 1.5,7.50000012 L14.5,7.50000012 Z M8.284306,5.41140912 L8.353553,5.35355312 L11.353553,2.35355312 C11.548816,2.15829112 11.548816,1.84170912 11.353553,1.64644712 C11.179987,1.47288012 10.910563,1.45359512 10.715694,1.58859112 L10.646447,1.64644712 L7.99999988,4.29300012 L5.353553,1.64644712 C5.179987,1.47288012 4.910563,1.45359512 4.715694,1.58859112 L4.646447,1.64644712 C4.47288,1.82001312 4.453595,2.08943712 4.588591,2.28430612 L4.646447,2.35355312 L7.646447,5.35355312 C7.820013,5.52712012 8.089437,5.54640512 8.284306,5.41140912 Z" id="形状结合" fill="#71757F" fill-rule="nonzero"></path>
    </g>
</svg>