<?xml version="1.0" encoding="UTF-8"?>
<svg width="16px" height="16px" viewBox="0 0 16 16" version="1.1" xmlns="http://www.w3.org/2000/svg" xmlns:xlink="http://www.w3.org/1999/xlink">
    <title>function icon/all open</title>
    <g id="页面-1" stroke="none" stroke-width="1" fill="none" fill-rule="evenodd">
        <g id="API-starter-图标入库" transform="translate(-592.000000, -124.000000)">
            <g id="方格备份-4" transform="translate(560.000000, 100.000000)">
                <text id="图标" font-family="PingFangSC-Regular, PingFang SC" font-size="12" font-weight="normal" line-spacing="16" fill="#71757F">
                    <tspan x="15.136" y="61">全部展开</tspan>
                </text>
            </g>
            <path d="M596.715694,134.588591 C596.910563,134.453595 597.179987,134.47288 597.353553,134.646447 L597.353553,134.646447 L600,137.293 L602.646447,134.646447 L602.715694,134.588591 C602.910563,134.453595 603.179987,134.47288 603.353553,134.646447 C603.548816,134.841709 603.548816,135.158291 603.353553,135.353553 L603.353553,135.353553 L600.353553,138.353553 L600.284306,138.411409 C600.089437,138.546405 599.820013,138.52712 599.646447,138.353553 L599.646447,138.353553 L596.646447,135.353553 L596.588591,135.284306 C596.453595,135.089437 596.47288,134.820013 596.646447,134.646447 L596.646447,134.646447 Z M606.5,131.5 C606.776142,131.5 607,131.723858 607,132 C607,132.276142 606.776142,132.5 606.5,132.5 L593.5,132.5 C593.223858,132.5 593,132.276142 593,132 C593,131.723858 593.223858,131.5 593.5,131.5 L606.5,131.5 Z M600.284306,125.588591 L600.353553,125.646447 L603.353553,128.646447 C603.548816,128.841709 603.548816,129.158291 603.353553,129.353553 C603.179987,129.52712 602.910563,129.546405 602.715694,129.411409 L602.646447,129.353553 L600,126.707 L597.353553,129.353553 C597.179987,129.52712 596.910563,129.546405 596.715694,129.411409 L596.646447,129.353553 C596.47288,129.179987 596.453595,128.910563 596.588591,128.715694 L596.646447,128.646447 L599.646447,125.646447 C599.820013,125.47288 600.089437,125.453595 600.284306,125.588591 Z" id="形状结合" fill="#71757F" fill-rule="nonzero"></path>
        </g>
    </g>
</svg>