<?xml version="1.0" encoding="UTF-8"?>
<svg width="16px" height="16px" viewBox="0 0 16 16" version="1.1" xmlns="http://www.w3.org/2000/svg" xmlns:xlink="http://www.w3.org/1999/xlink">
    <title>api-input</title>
    <g id="资源库" stroke="none" stroke-width="1" fill="none" fill-rule="evenodd">
        <g id="画板" transform="translate(-575.000000, -1342.000000)" fill="#71757F" fill-rule="nonzero">
            <g id="api-input" transform="translate(576.000385, 1343.000000)">
                <path d="M13.5,6.5 C13.7761424,6.5 14,6.72385763 14,7 C14,10.8659932 10.8659932,14 7,14 C6.72385763,14 6.5,13.7761424 6.5,13.5 C6.5,13.2238576 6.72385763,13 7,13 C10.3137085,13 13,10.3137085 13,7 C13,6.72385763 13.2238576,6.5 13.5,6.5 Z M4.49,5.74 C5.53886149,4.69894393 7.23113851,4.69894393 8.28,5.74 L8.28,5.74 L8.42,5.9 C8.52717968,6.02682928 8.55855516,6.20120405 8.50230762,6.35743902 C8.44606008,6.51367398 8.31073484,6.62803334 8.14730762,6.65743902 C7.9838804,6.6868447 7.81717968,6.62682928 7.71,6.5 L7.71,6.5 L7.62,6.4 C6.93714369,5.71982526 5.83285631,5.71982526 5.15,6.4 L5.15,6.4 L1.94,9.61 C1.25982526,10.2928563 1.25982526,11.3971437 1.94,12.08 C2.63144747,12.7390479 3.71855253,12.7390479 4.41,12.08 L4.41,12.08 L6.52,10 C6.70299832,9.81955201 6.99700168,9.81955201 7.18,10 C7.27292459,10.0886882 7.32550039,10.2115454 7.32550039,10.34 C7.32550039,10.4684546 7.27292459,10.5913118 7.18,10.68 L7.18,10.68 L5.07,12.79 C4.02131274,13.8241473 2.33462522,13.8182601 1.29318258,12.7768174 C0.251739947,11.7353748 0.245852742,10.0486873 1.28,9 L1.28,9 Z M8.93,1.31 C9.98486387,0.252374704 11.6973747,0.250136128 12.755,1.305 C13.8126253,2.35986387 13.8148639,4.0723747 12.76,5.13 L12.76,5.13 L9.55,8.34 C8.50113851,9.38105607 6.80886149,9.38105607 5.76,8.34 L5.76,8.34 L5.63,8.19 C5.45071735,8.01042056 5.45071735,7.71957944 5.63,7.54 C5.81299832,7.35955201 6.10700168,7.35955201 6.29,7.54 L6.29,7.54 L6.38,7.64 C7.07144747,8.29904788 8.15855253,8.29904788 8.85,7.64 L8.85,7.64 L12.08,4.47 C12.4082428,4.1450999 12.5920321,3.70184335 12.59,3.24 C12.5962509,2.52615735 12.1682828,1.88007483 11.5085478,1.60738435 C10.8488128,1.33469387 10.089577,1.49006547 9.59,2 L9.59,2 L7.48,4.07 C7.29700168,4.25044799 7.00299832,4.25044799 6.82,4.07 C6.63955201,3.88700168 6.63955201,3.59299832 6.82,3.41 L6.82,3.41 Z M7,0 C7.27614237,0 7.5,0.223857631 7.5,0.5 C7.5,0.776142369 7.27614237,1 7,1 C3.6862915,1 1,3.6862915 1,7 C1,7.27614237 0.776142375,7.5 0.5,7.5 C0.223857625,7.5 -4.4408921e-16,7.27614237 -4.4408921e-16,7 C-4.4408921e-16,3.13400675 3.13400675,0 7,0 Z" id="形状结合"></path>
            </g>
        </g>
    </g>
</svg>