<?xml version="1.0" encoding="UTF-8"?>
<svg width="16px" height="16px" viewBox="0 0 16 16" version="1.1" xmlns="http://www.w3.org/2000/svg" xmlns:xlink="http://www.w3.org/1999/xlink">
    <title>API</title>
    <g id="API" stroke="none" stroke-width="1" fill="none" fill-rule="evenodd">
        <path d="M8.61147626,1.27298047 L13.1114763,3.28190904 C13.6519467,3.5231905 14,4.05973322 14,4.65161587 L14,9.97125096 C14,10.3985509 13.8177627,10.805569 13.4990237,11.0901575 L8.99902365,15.1080146 C8.42992402,15.6161393 7.57007598,15.6161393 7.00097635,15.1080146 L2.50097635,11.0901575 C2.18223726,10.805569 2,10.3985509 2,9.97125096 L2,4.65161587 C2,4.05973322 2.34805327,3.5231905 2.88852374,3.28190904 L7.38852374,1.27298047 C7.77766603,1.09925624 8.22233397,1.09925624 8.61147626,1.27298047 Z M7.87592793,2.15832248 L7.79617458,2.18611836 L3.29617458,4.19504693 C3.14175445,4.26398449 3.03445689,4.40523093 3.00695188,4.56842375 L3,4.65161587 L3,9.97125096 C3,10.0851976 3.03887728,10.1948175 3.10882633,10.2826773 L3.16699212,10.3442198 L7.66699212,14.3620769 C7.83297951,14.51028 8.07316832,14.5288053 8.25770606,14.4176531 L8.33300788,14.3620769 L12.8330079,10.3442198 C12.918005,10.2683295 12.9738817,10.1663209 12.9928325,10.0556273 L13,9.97125096 L13,4.65161587 C13,4.48250654 12.9147625,4.32694985 12.7769574,4.23530829 L12.7038254,4.19504693 L8.20382542,2.18611836 C8.10005414,2.13979189 7.98443739,2.1305266 7.87592793,2.15832248 Z M8,8 C8.27614237,8 8.5,8.22385763 8.5,8.5 L8.5,10.5 C8.5,10.7761424 8.27614237,11 8,11 C7.72385763,11 7.5,10.7761424 7.5,10.5 L7.5,8.5 C7.5,8.22385763 7.72385763,8 8,8 Z" id="形状结合" fill="#71757F"></path>
        <path d="M8,5.5 C8.82842712,5.5 9.5,6.17157288 9.5,7 C9.5,7.82842712 8.82842712,8.5 8,8.5 C7.17157288,8.5 6.5,7.82842712 6.5,7 C6.5,6.17157288 7.17157288,5.5 8,5.5 Z M8,6.5 C7.72385763,6.5 7.5,6.72385763 7.5,7 C7.5,7.27614237 7.72385763,7.5 8,7.5 C8.27614237,7.5 8.5,7.27614237 8.5,7 C8.5,6.72385763 8.27614237,6.5 8,6.5 Z" id="椭圆形" fill="#71757F" fill-rule="nonzero"></path>
    </g>
</svg>