<?xml version="1.0" encoding="UTF-8"?>
<svg width="16px" height="16px" viewBox="0 0 24 24" version="1.1" xmlns="http://www.w3.org/2000/svg" xmlns:xlink="http://www.w3.org/1999/xlink">
    <title>API@1x</title>
    <g id="API" stroke="none" stroke-width="1" fill="none" fill-rule="evenodd">
        <path d="M12,1.25 C14.07835,1.25 15.9517901,2.36304471 16.9665822,4.10030284 L17.0841939,4.31173876 L17.12,4.383 L17.3481356,4.44391196 C19.1946976,4.98821649 20.5516556,6.61674226 20.7300396,8.56266076 L20.7449749,8.78014112 L20.75,9 C20.75,11.3549387 19.0322067,13.321475 16.7511234,13.6891099 L16.75,16 L16.7568466,16.1017706 C16.8019943,16.4345665 17.0654335,16.6980057 17.3982294,16.7431534 L17.5,16.75 L18.1143184,16.750421 C18.4327543,15.7359268 19.3804347,15 20.5,15 C21.8807119,15 23,16.1192881 23,17.5 C23,18.8807119 21.8807119,20 20.5,20 C19.3808004,20 18.4333735,19.2645539 18.1146307,18.2505732 L17.5,18.25 L17.3459512,18.2448092 C16.2283793,18.1692433 15.3346131,17.27763 15.2556707,16.1609874 L15.25,16 L15.25,13.75 L12.75,13.75 L12.75,18 C12.75,18.0383922 12.7471153,18.0761107 12.7415508,18.1129505 C13.7602214,18.4278019 14.5,19.3775087 14.5,20.5 C14.5,21.8807119 13.3807119,23 12,23 C10.6192881,23 9.5,21.8807119 9.5,20.5 C9.5,19.3775087 10.2397786,18.4278019 11.2583809,18.1118346 L11.25,18 L11.25,13.749 L8.75,13.749 L8.75,16 C8.75,17.190864 7.82483841,18.1656449 6.65404881,18.2448092 L6.5,18.25 L5.88536932,18.2505732 C5.56662648,19.2645539 4.61919956,20 3.5,20 C2.11928813,20 1,18.8807119 1,17.5 C1,16.1192881 2.11928813,15 3.5,15 C4.61956531,15 5.5672457,15.7359268 5.88568161,16.750421 L6.5,16.75 C6.87969577,16.75 7.19349096,16.4678461 7.24315338,16.1017706 L7.25,16 L7.25033455,13.7427663 C5.01032616,13.6126943 3.25,11.7547365 3.25,9.5 C3.25,7.61440499 4.48394706,5.99645609 6.21248794,5.44842362 L6.40654584,5.39197483 L6.485,5.372 L6.54219373,5.18765586 C7.25817757,3.02412695 9.21084671,1.46252978 11.5179094,1.27003869 L11.757799,1.25504113 L12,1.25 Z M12,19.5 C11.4477153,19.5 11,19.9477153 11,20.5 C11,21.0522847 11.4477153,21.5 12,21.5 C12.5522847,21.5 13,21.0522847 13,20.5 C13,19.9477153 12.5522847,19.5 12,19.5 Z M3.5,16.5 C2.94771525,16.5 2.5,16.9477153 2.5,17.5 C2.5,18.0522847 2.94771525,18.5 3.5,18.5 C4.05228475,18.5 4.5,18.0522847 4.5,17.5 C4.5,16.9477153 4.05228475,16.5 3.5,16.5 Z M20.5,16.5 C19.9477153,16.5 19.5,16.9477153 19.5,17.5 C19.5,18.0522847 19.9477153,18.5 20.5,18.5 C21.0522847,18.5 21.5,18.0522847 21.5,17.5 C21.5,16.9477153 21.0522847,16.5 20.5,16.5 Z M12,2.75 C10.0326201,2.75 8.34265902,4.09707829 7.87732459,5.96623185 L7.83219655,6.16845846 L7.72600359,6.70566194 L7.18197834,6.76812042 C5.80290284,6.92644937 4.75,8.09940813 4.75,9.5 C4.75,10.9039858 5.80528731,12.0705253 7.15764638,12.2304071 L7.32818367,12.2450937 L7.5,12.25 L15.9816151,12.2502254 L16.1628205,12.246009 C17.8876856,12.1612277 19.25,10.7344134 19.25,9 C19.25,7.44958091 18.1570128,6.13003468 16.6716092,5.81927885 L16.491522,5.78688013 L16.0772065,5.72433466 L15.9132644,5.33872838 C15.2514198,3.78201184 13.7208402,2.75 12,2.75 Z" id="形状" fill="#252B3A" fill-rule="nonzero"></path>
    </g>
</svg>