<svg width="16px" height="16px" viewBox="0 0 16 16" version="1.1" xmlns="http://www.w3.org/2000/svg" xmlns:xlink="http://www.w3.org/1999/xlink">
    <title>客户端下载</title>
    <g id="客户端下载" stroke="none" stroke-width="1" fill="none" fill-rule="evenodd">
        <path d="M12,9.5 C12.2454599,9.5 12.4496084,9.67687516 12.4919443,9.91012437 L12.5,10 L12.5,13.4079328 L13.7633009,12.1464466 C13.9368672,11.9728803 14.2062916,11.9535951 14.4011598,12.0885912 L14.4704076,12.1464466 C14.643974,12.320013 14.6632591,12.5894374 14.5282631,12.7843055 L14.4704076,12.8535534 L12.3490873,14.9748737 C12.1755209,15.1484401 11.9060965,15.1677252 11.7112284,15.0327292 L11.6419805,14.9748737 L9.52066017,12.8535534 C9.32539803,12.6582912 9.32539803,12.3417088 9.52066017,12.1464466 C9.69422652,11.9728803 9.96365092,11.9535951 10.1585191,12.0885912 L10.227767,12.1464466 L11.5,13.4189328 L11.5,10 C11.5,9.72385763 11.7238576,9.5 12,9.5 Z M12,0.499932791 C13.3254834,0.499932791 14.4100387,1.53146873 14.4946823,2.8355571 L14.5,2.99993279 L14.5,8.12245737 C14.5,8.39859975 14.2761424,8.62245737 14,8.62245737 C13.7545401,8.62245737 13.5503916,8.44558221 13.5080557,8.212333 L13.5,8.12245737 L13.5,3.99893279 L1.5,3.99893279 L1.5,11.3999328 C1.5,12.1796289 2.09488808,12.8203815 2.85553999,12.8930662 L3,12.8999328 L8,12.8999328 C8.27614237,12.8999328 8.5,13.1237904 8.5,13.3999328 C8.5,13.6453927 8.32312484,13.8495412 8.08987563,13.8918771 L8,13.8999328 L3,13.8999328 C1.6745166,13.8999328 0.589961328,12.8683969 0.50531768,11.5643085 L0.5,11.3999328 L0.5,2.99993279 C0.5,1.67444939 1.53153594,0.589894119 2.83562431,0.50525047 L3,0.499932791 L12,0.499932791 Z M8.81945003,4.66054759 C9.04000455,4.76827995 9.14580877,5.01680942 9.08147605,5.24497345 L9.04926794,5.32926557 L6.51856741,10.5102291 C6.39736851,10.7583529 6.09797327,10.8612459 5.84984944,10.740047 C5.62929492,10.6323147 5.52349071,10.3837852 5.58782342,10.1556212 L5.62003153,10.0713291 L8.15073206,4.8903655 C8.27193096,4.64224167 8.5713262,4.53934869 8.81945003,4.66054759 Z M4.44916978,6.34723013 C4.6107383,6.53201696 4.61195955,6.80212793 4.46423186,6.98753034 L4.40187425,7.05275344 L3.239,8.069 L4.41988648,9.20870483 C4.59655176,9.3791159 4.62068794,9.64814912 4.4892247,9.84541782 L4.43262626,9.91569684 C4.26221518,10.0923621 3.99318197,10.1164983 3.79591327,9.98503505 L3.72563425,9.92843661 L2.15287389,8.41135426 C1.96550027,8.23061394 1.95125613,7.94176293 2.10525829,7.74440822 L2.17088611,7.67507895 L3.74364648,6.29993461 C3.95153166,6.11817002 4.2674052,6.13934495 4.44916978,6.34723013 Z M10.6812924,5.08645709 L10.7509611,5.14380505 L12.0875087,6.46096306 C12.260672,6.63161433 12.2833875,6.89779211 12.1533212,7.09346401 L12.0973801,7.16321173 L10.7608326,8.55656462 C10.569675,8.75584676 10.253161,8.76243297 10.0538789,8.57127533 C9.87673919,8.40135743 9.85185308,8.13239255 9.98276586,7.93475812 L10.0391682,7.86432159 L11.0355479,6.82737589 L10.0490396,5.85605934 C9.87420976,5.68376577 9.85295661,5.41448946 9.98652528,5.21864019 L10.0438732,5.14897144 C10.2161668,4.97414158 10.4854431,4.95288842 10.6812924,5.08645709 Z M12,1.49993279 L3,1.49993279 C2.22030388,1.49993279 1.57955132,2.09482087 1.50686658,2.85547278 L1.5,2.99893279 L13.5,2.99893279 L13.4931334,2.85547278 C13.4249915,2.14236162 12.8575712,1.57494132 12.14446,1.50679937 L12,1.49993279 Z" id="形状结合" fill="#71757F" fill-rule="nonzero"></path>
    </g>
</svg>