<?xml version="1.0" encoding="UTF-8"?>
<svg width="16px" height="16px" viewBox="0 0 16 16" version="1.1" xmlns="http://www.w3.org/2000/svg" xmlns:xlink="http://www.w3.org/1999/xlink">
    <title>appendix</title>
    <g id="appendix" stroke="none" stroke-width="1" fill="none" fill-rule="evenodd">
        <g id="ipd_appendix" transform="translate(1.500000, 2.292462)" fill="#71757F" fill-rule="nonzero">
            <path d="M8.82006978,0.302937874 C9.89069143,-0.767647215 11.6264797,-0.767647215 12.6970692,0.302951454 C13.7230375,1.32896353 13.7657862,2.96586468 12.8253086,4.0427506 L12.6970617,4.17994186 L6.09312488,10.7838787 C4.58486058,12.292143 2.13946378,12.292143 0.631204773,10.7838797 C-0.825058843,9.32762435 -0.875274829,6.99775109 0.480555907,5.48124715 L0.631203767,5.32195382 L6.17851891,-0.225361323 C6.37378105,-0.420623469 6.69036354,-0.420623469 6.88562569,-0.225361323 C7.05919204,-0.0517949709 7.07847719,0.21762943 6.94348114,0.412497571 L6.88562569,0.481745458 L1.33830954,6.02906161 C0.220563486,7.1468013 0.220563486,8.95903119 1.33831105,10.0767724 C2.41133776,11.1498022 4.12441097,11.1927233 5.24864466,10.2055355 L5.3860181,10.0767719 L11.9899549,3.47283507 C12.6700163,2.7927737 12.6700163,1.69014109 11.9899534,1.01004918 C11.349896,0.36998628 10.3355211,0.332335521 9.65140172,0.897097329 L9.52717153,1.01004969 L2.92327107,7.6139875 C2.68085592,7.85640265 2.68085592,8.24941317 2.92328616,8.49182272 C3.13873449,8.70728944 3.47320002,8.73123018 3.71512175,8.56363436 L3.8010912,8.49180763 L9.34837272,2.94452611 C9.54363486,2.74926396 9.86021735,2.74926396 10.0554795,2.94452611 C10.2290458,3.11809246 10.248331,3.38751686 10.1133349,3.582385 L10.0554795,3.65163289 L4.50819798,9.19891441 C3.87525351,9.83185888 2.84905474,9.83185888 2.21617938,9.1989295 C1.62045274,8.6032537 1.58540999,7.65919358 2.11103774,7.02249977 L2.21616329,6.90688172 L8.82006978,0.302937874 Z" id="路径"></path>
        </g>
    </g>
</svg>