<?xml version="1.0" encoding="UTF-8"?>
<svg width="16px" height="16px" viewBox="0 0 16 16" version="1.1" xmlns="http://www.w3.org/2000/svg" xmlns:xlink="http://www.w3.org/1999/xlink">
    <title>function icon/application</title>
    <g id="图标入库记录" stroke="none" stroke-width="1" fill="none" fill-rule="evenodd">
        <g id="DevUI图标-入库记录230223" transform="translate(-92.000000, -120.000000)" fill="#71757F" fill-rule="nonzero">
            <g id="project/收藏" transform="translate(92.000000, 120.000000)">
                <path d="M5.5,1.5 L3.5,1.5 C2.3954305,1.5 1.5,2.3954305 1.5,3.5 L1.5,5.5 C1.5,6.6045695 2.3954305,7.5 3.5,7.5 L5.5,7.5 C6.6045695,7.5 7.5,6.6045695 7.5,5.5 L7.5,3.5 C7.5,2.3954305 6.6045695,1.5 5.5,1.5 Z M3.5,2.5 L5.5,2.5 C6.05228475,2.5 6.5,2.94771525 6.5,3.5 L6.5,5.5 C6.5,6.05228475 6.05228475,6.5 5.5,6.5 L3.5,6.5 C2.94771525,6.5 2.5,6.05228475 2.5,5.5 L2.5,3.5 C2.5,2.94771525 2.94771525,2.5 3.5,2.5 Z M14.3991378,3.43933983 L12.5606602,1.6008622 C11.9748737,1.01507576 11.0251263,1.01507576 10.4393398,1.6008622 L8.6008622,3.43933983 C8.01507576,4.02512627 8.01507576,4.97487373 8.6008622,5.56066017 L10.4393398,7.3991378 C11.0251263,7.98492424 11.9748737,7.98492424 12.5606602,7.3991378 L14.3991378,5.56066017 C14.9849242,4.97487373 14.9849242,4.02512627 14.3991378,3.43933983 Z M11.8535534,2.30796898 L13.692031,4.14644661 C13.8872932,4.34170876 13.8872932,4.65829124 13.692031,4.85355339 L11.8535534,6.69203102 C11.6582912,6.88729317 11.3417088,6.88729317 11.1464466,6.69203102 L9.30796898,4.85355339 C9.11270683,4.65829124 9.11270683,4.34170876 9.30796898,4.14644661 L11.1464466,2.30796898 C11.3417088,2.11270683 11.6582912,2.11270683 11.8535534,2.30796898 Z M5.5,8.5 L3.5,8.5 C2.3954305,8.5 1.5,9.3954305 1.5,10.5 L1.5,12.5 C1.5,13.6045695 2.3954305,14.5 3.5,14.5 L5.5,14.5 C6.6045695,14.5 7.5,13.6045695 7.5,12.5 L7.5,10.5 C7.5,9.3954305 6.6045695,8.5 5.5,8.5 Z M3.5,9.5 L5.5,9.5 C6.05228475,9.5 6.5,9.94771525 6.5,10.5 L6.5,12.5 C6.5,13.0522847 6.05228475,13.5 5.5,13.5 L3.5,13.5 C2.94771525,13.5 2.5,13.0522847 2.5,12.5 L2.5,10.5 C2.5,9.94771525 2.94771525,9.5 3.5,9.5 Z M12.5,8.5 L10.5,8.5 C9.3954305,8.5 8.5,9.3954305 8.5,10.5 L8.5,12.5 C8.5,13.6045695 9.3954305,14.5 10.5,14.5 L12.5,14.5 C13.6045695,14.5 14.5,13.6045695 14.5,12.5 L14.5,10.5 C14.5,9.3954305 13.6045695,8.5 12.5,8.5 Z M10.5,9.5 L12.5,9.5 C13.0522847,9.5 13.5,9.94771525 13.5,10.5 L13.5,12.5 C13.5,13.0522847 13.0522847,13.5 12.5,13.5 L10.5,13.5 C9.94771525,13.5 9.5,13.0522847 9.5,12.5 L9.5,10.5 C9.5,9.94771525 9.94771525,9.5 10.5,9.5 Z" id="形状结合"></path>
            </g>
        </g>
    </g>
</svg>