<svg width="16.000000" height="16.000000" viewBox="0 0 16 16" fill="none" xmlns="http://www.w3.org/2000/svg" xmlns:xlink="http://www.w3.org/1999/xlink">
	<desc>
			Created with Pixso.
	</desc>
	<defs/>
	<path id="合并" d="M8.90619 13.1978C9.10145 13.0024 9.10145 12.686 8.90619 12.4907L4.80971 8.39551L14.6049 8.39551C14.881 8.39551 15.1049 8.17188 15.1049 7.89551C15.1049 7.61963 14.881 7.39551 14.6049 7.39551L4.81027 7.39551L8.90619 3.29834C9.10145 3.10303 9.10145 2.78662 8.90619 2.59131C8.71093 2.396 8.39435 2.396 8.19908 2.59131L3.25662 7.53369C3.22821 7.5625 3.20377 7.59326 3.18335 7.62646C3.13367 7.7041 3.10487 7.79639 3.10487 7.89551C3.10487 7.96143 3.11758 8.02393 3.14067 8.08154C3.1644 8.14258 3.20055 8.19922 3.24933 8.24805L8.19908 13.1978C8.39435 13.3931 8.71093 13.3931 8.90619 13.1978Z" clip-rule="evenodd" fill-rule="evenodd" fill="#595959" fill-opacity="1.000000"/>
</svg>
