<?xml version="1.0" encoding="UTF-8"?>
<svg width="16px" height="16px" viewBox="0 0 16 16" version="1.1" xmlns="http://www.w3.org/2000/svg" xmlns:xlink="http://www.w3.org/1999/xlink">
    <title>arrow</title>
    <g id="arrow" stroke="none" stroke-width="1" fill="none" fill-rule="evenodd">
        <path d="M8.84060667,3.24263949 C9.04902965,3.24263949 9.25224411,3.30776262 9.42184486,3.42890602 L14.6820876,7.18622225 C15.1315002,7.50723124 15.2355919,8.13178133 14.9145829,8.58119392 C14.8504432,8.67098944 14.7718831,8.74954954 14.6820876,8.81368919 L9.42184486,12.5710054 C8.97243228,12.8920144 8.34788219,12.7879227 8.0268732,12.3385102 C7.90572981,12.1689094 7.84060667,11.9656949 7.84060667,11.757272 L7.84,10.2797814 L2,10.2801579 C1.44771525,10.2801579 1,9.8324427 1,9.28015795 L1,6.7197535 C1,6.16746875 1.44771525,5.7197535 2,5.7197535 L7.84,5.71878136 L7.84060667,4.24263949 C7.84060667,3.69035474 8.28832192,3.24263949 8.84060667,3.24263949 Z M14.1008494,7.99995572 L8.84060667,4.24263949 L8.83958917,6.71861498 L2,6.7197535 L2,9.28 L8.83958945,9.2797169 L8.84060667,11.757272 L14.1008494,7.99995572 Z" id="形状结合" fill="#71757F" fill-rule="nonzero"></path>
    </g>
</svg>