<svg width="16.000000" height="16.000000" viewBox="0 0 16 16" fill="none" xmlns="http://www.w3.org/2000/svg" xmlns:xlink="http://www.w3.org/1999/xlink">
	<desc>
			Created with Pixso.
	</desc>
	<defs/>
	<path id="合并" d="M8 1.79053C8.27614 1.79053 8.5 2.01416 8.5 2.29053L8.5 12.0864L12.5962 7.98926C12.7914 7.79395 13.108 7.79395 13.3033 7.98926C13.4985 8.18457 13.4985 8.50098 13.3033 8.69629L8.35353 13.646C8.29703 13.7026 8.22977 13.7422 8.15796 13.7651C8.10831 13.7817 8.05519 13.7905 8 13.7905C7.88907 13.7905 7.78658 13.7544 7.70364 13.6934C7.68102 13.6772 7.65945 13.6592 7.63928 13.6387L2.69667 8.69629C2.50142 8.50098 2.50142 8.18457 2.69667 7.98926C2.89194 7.79395 3.20853 7.79395 3.40378 7.98926L7.5 12.084L7.5 2.29053C7.5 2.01416 7.72385 1.79053 8 1.79053Z" clip-rule="evenodd" fill-rule="evenodd" fill="#595959" fill-opacity="1.000000"/>
</svg>
