<svg width="16.000000" height="16.000000" viewBox="0 0 16 16" fill="none" xmlns="http://www.w3.org/2000/svg" xmlns:xlink="http://www.w3.org/1999/xlink">
	<desc>
			Created with Pixso.
	</desc>
	<defs/>
	<path id="合并" d="M8.5 13.5C8.5 13.7764 8.27615 14 8 14C7.72388 14 7.5 13.7764 7.5 13.5L7.5 3.70361L3.40381 7.80127C3.20856 7.99658 2.89197 7.99658 2.69672 7.80127C2.50143 7.60596 2.50143 7.28955 2.69672 7.09424L7.64645 2.14453C7.70306 2.08789 7.77045 2.04834 7.84238 2.02539C7.89194 2.00879 7.94492 2 8 2C8.11115 2 8.21381 2.03613 8.29684 2.09766C8.31931 2.11377 8.34067 2.13184 8.36072 2.15186L13.3033 7.09424C13.4986 7.28955 13.4986 7.60596 13.3033 7.80127C13.108 7.99658 12.7915 7.99658 12.5962 7.80127L8.5 3.70654L8.5 13.5Z" clip-rule="evenodd" fill-rule="evenodd" fill="#595959" fill-opacity="1.000000"/>
</svg>
