<svg width="16.000000" height="16.000000" viewBox="0 0 16 16" fill="none" xmlns="http://www.w3.org/2000/svg" xmlns:xlink="http://www.w3.org/1999/xlink">
	<desc>
			Created with Pixso.
	</desc>
	<defs/>
	<path id="合并" d="M8.09385 2.59277C7.89858 2.78809 7.89858 3.10449 8.09385 3.2998L12.1908 7.39551L2.39515 7.39551C2.11901 7.39551 1.89515 7.61963 1.89515 7.89551C1.89515 8.17188 2.11901 8.39551 2.39515 8.39551L12.1893 8.39551L8.09385 12.4922C7.89858 12.6875 7.89858 13.0039 8.09385 13.1992C8.28911 13.3945 8.60569 13.3945 8.80095 13.1992L13.7434 8.25684C13.7677 8.23242 13.7892 8.20605 13.8076 8.17822C13.8628 8.09766 13.8952 8.00049 13.8952 7.89551C13.8952 7.83594 13.8847 7.77832 13.8654 7.7251C13.842 7.6582 13.8038 7.5957 13.7507 7.54248L8.80095 2.59277C8.60569 2.39746 8.28911 2.39746 8.09385 2.59277Z" clip-rule="evenodd" fill-rule="evenodd" fill="#595959" fill-opacity="1.000000"/>
</svg>
