<?xml version="1.0" encoding="UTF-8"?>
<svg width="16px" height="16px" viewBox="0 0 16 16" version="1.1" xmlns="http://www.w3.org/2000/svg" xmlns:xlink="http://www.w3.org/1999/xlink">
    <title>function icon/assembly</title>
    <g id="图标入库记录" stroke="none" stroke-width="1" fill="none" fill-rule="evenodd">
        <g id="DevUI图标-入库记录230223" transform="translate(-252.000000, -120.000000)" fill="#71757F" fill-rule="nonzero">
            <g id="ic_square_lined-(1)-5" transform="translate(252.000000, 120.000000)">
                <path d="M9,1.08231367 L13.4951905,3.67761313 C14.1139927,4.03487872 14.4951905,4.69513276 14.4951905,5.40966394 L14.4951905,10.6002629 C14.4951905,11.314794 14.1139927,11.9750481 13.4951905,12.3323137 L9,14.9276131 C8.38119785,15.2848787 7.61880215,15.2848787 7,14.9276131 L2.50480947,12.3323137 C1.88600732,11.9750481 1.50480947,11.314794 1.50480947,10.6002629 L1.50480947,5.40966394 C1.50480947,4.69513276 1.88600732,4.03487872 2.50480947,3.67761313 L7,1.08231367 C7.61880215,0.725048077 8.38119785,0.725048077 9,1.08231367 Z M7.61911042,1.88972519 L7.5,1.94833907 L3.00480947,4.54363853 C2.72978629,4.70242324 2.54863148,4.98090709 2.5117702,5.29175112 L2.50480947,5.40966394 L2.50480947,10.6002629 C2.50480947,10.9178323 2.65540615,11.2139589 2.90617435,11.4013037 L3.00480947,11.4662883 L7.5,14.0615877 C7.77072594,14.2178914 8.09642129,14.2374294 8.38088958,14.1202016 L8.5,14.0615877 L12.9951905,11.4662883 C13.2702137,11.3075036 13.4513685,11.0290197 13.4882298,10.7181757 L13.4951905,10.6002629 L13.4951905,5.40966394 C13.4951905,5.09209452 13.3445938,4.79596793 13.0938257,4.60862311 L12.9951905,4.54363853 L8.5,1.94833907 C8.22927406,1.79203538 7.90357871,1.77249741 7.61911042,1.88972519 Z M3.55992156,6.60039722 C3.69100163,6.35734861 3.99429285,6.26658017 4.23734146,6.39766024 L4.23734146,6.39766024 L7.23734146,8.01560903 C7.39913403,8.1028664 7.5,8.27186504 7.5,8.45568747 L7.5,8.45568747 L7.5,12.1622613 C7.5,12.245118 7.47940908,12.3266759 7.44007844,12.3996028 C7.30899837,12.6426514 7.00570715,12.7334198 6.76265854,12.6023398 L6.76265854,12.6023398 L3.76265854,10.984391 C3.60086597,10.8971336 3.5,10.728135 3.5,10.5443125 L3.5,10.5443125 L3.5,6.83773868 C3.5,6.75488201 3.52059092,6.67332409 3.55992156,6.60039722 Z M12.4400784,6.60039722 C12.4794091,6.67332409 12.5,6.75488201 12.5,6.83773868 L12.5,10.5443125 C12.5,10.728135 12.399134,10.8971336 12.2373415,10.984391 L9.23734146,12.6023398 C8.99429285,12.7334198 8.69100163,12.6426514 8.55992156,12.3996028 C8.52059092,12.3266759 8.5,12.245118 8.5,12.1622613 L8.5,8.45568747 C8.5,8.27186504 8.60086597,8.1028664 8.76265854,8.01560903 L11.7626585,6.39766024 C12.0057072,6.26658017 12.3089984,6.35734861 12.4400784,6.60039722 Z M4.5,7.674 L4.5,10.245 L6.5,11.324 L6.5,8.753 L4.5,7.674 Z M11.5,7.674 L9.5,8.753 L9.5,11.324 L11.5,10.245 L11.5,7.674 Z M8.2236068,2.8118034 L11.6055728,4.5027864 C11.8525621,4.62628103 11.9526742,4.92661755 11.8291796,5.1736068 C11.7807978,5.2703705 11.7023365,5.34883174 11.6055728,5.3972136 L8.2236068,7.0881966 C8.08284305,7.15857847 7.91715695,7.15857847 7.7763932,7.0881966 L4.39442719,5.3972136 C4.14743794,5.27371897 4.04732577,4.97338245 4.17082039,4.7263932 C4.21920224,4.6296295 4.29766349,4.55116826 4.39442719,4.5027864 L7.7763932,2.8118034 C7.91715695,2.74142153 8.08284305,2.74142153 8.2236068,2.8118034 Z M8,3.818 L5.736,4.95 L8,6.081 L10.263,4.95 L8,3.818 Z" id="形状结合"></path>
            </g>
        </g>
    </g>
</svg>