<?xml version="1.0" encoding="UTF-8"?>
<svg width="16px" height="16px" viewBox="0 0 16 16" version="1.1" xmlns="http://www.w3.org/2000/svg" xmlns:xlink="http://www.w3.org/1999/xlink">
    <title>关联缺陷</title>
    <g id="页面-1" stroke="none" stroke-width="1" fill="none" fill-rule="evenodd">
        <g id="关联缺陷">
            <g id="编组-35" transform="translate(1.000000, 0.500000)" fill="#71757F" fill-rule="nonzero">
                <path d="M9.82531792,10.970055 L10.64447,11.5436314 L10.0671081,12.3698991 C9.77295756,12.7899896 9.84674886,13.3576452 10.2210122,13.6902254 L10.3126837,13.7626275 C10.7327742,14.0567781 11.3004299,13.9829868 11.63301,13.6087235 L11.7054122,13.5170519 L12.2827741,12.6907843 L13.1019261,13.2643607 L12.5245642,14.0906284 C11.8910092,14.9954387 10.6439176,15.2153346 9.73910728,14.5817796 C8.87542466,13.9770225 8.63580667,12.8132373 9.16683635,11.9217377 L9.24795606,11.7963226 L9.82531792,10.970055 Z M7.5,-2.73558953e-13 C9.15685425,-2.73558953e-13 10.5,1.34314575 10.5,3 C10.5,3.36012457 10.4365458,3.70542863 10.3202083,4.02534144 C10.6535566,4.29349372 10.9585183,4.60893704 11.2279372,4.96408886 L13.1464466,3.04644661 C13.3417088,2.85118446 13.6582912,2.85118446 13.8535534,3.04644661 C14.0271197,3.22001296 14.0464049,3.48943736 13.9114088,3.6843055 L13.8535534,3.75355339 L11.7739715,5.83257093 C11.9810397,6.23439613 12.1490594,6.6690155 12.271456,7.1297369 C12.3423575,7.39662187 12.1834815,7.6704519 11.9165965,7.74135338 C11.6497116,7.81225486 11.3758815,7.65337885 11.3049801,7.38649387 C10.7698157,5.37204613 9.23001688,4 7.5,4 C5.3130797,4 3.5,6.17569564 3.5,8.9 C3.5,11.4137609 5.04366689,13.4604331 7.00032515,13.7617666 L7,5.5 C7,5.22385763 7.22385763,5 7.5,5 C7.74545989,5 7.94960837,5.17687516 7.99194433,5.41012437 L8,5.5 L8,14.3 C8,14.5454599 7.82312484,14.7496084 7.58987563,14.7919443 L7.5,14.8 C5.92868964,14.8 4.53813758,13.9525421 3.62495354,12.6315445 L1.90355339,14.3535534 C1.70829124,14.5488155 1.39170876,14.5488155 1.19644661,14.3535534 C1.02288026,14.179987 1.00359511,13.9105626 1.13859116,13.7156945 L1.19644661,13.6464466 L3.11176173,11.731973 C2.80506623,11.0704417 2.6027656,10.332702 2.53005875,9.55052069 L0.5,9.55 C0.223857625,9.55 -1.27609034e-12,9.32614237 -1.27609034e-12,9.05 C-1.27609034e-12,8.80454011 0.176875161,8.60039163 0.410124368,8.55805567 L0.5,8.55 L2.508644,8.55029538 C2.55766828,7.56118248 2.81331097,6.63492198 3.2266697,5.83316216 L1.14644661,3.75355339 C0.951184464,3.55829124 0.951184464,3.24170876 1.14644661,3.04644661 C1.32001296,2.87288026 1.58943736,2.85359511 1.7843055,2.98859116 L1.85355339,3.04644661 L3.77220027,4.96500703 C4.04091164,4.61027224 4.34563244,4.29398433 4.67990517,4.02428389 L4.68535959,4.0402614 C4.56555601,3.71676932 4.5,3.36604037 4.5,3 C4.5,1.34314575 5.84314575,-2.73558953e-13 7.5,-2.73558953e-13 Z M12.6094434,10.4790619 C12.835646,10.6374506 12.89062,10.9492235 12.7322312,11.1754261 L11.5850783,12.8137302 C11.4266896,13.0399328 11.1149167,13.0949067 10.8887141,12.936518 C10.6625115,12.7781292 10.6075375,12.4663563 10.7659263,12.2401537 L11.9130792,10.6018497 C12.0714679,10.3756471 12.3832408,10.3206731 12.6094434,10.4790619 Z M13.6287273,8.76659556 L13.7541423,8.84771527 C14.617825,9.45247235 14.8574429,10.6162575 14.3264133,11.5077572 L14.2452936,11.6331722 L13.6755025,12.4452087 L12.8563505,11.8716322 L13.4261415,11.0595958 C13.7202921,10.6395053 13.6465008,10.0718496 13.2722375,9.73926948 L13.1805659,9.66686732 C12.7604754,9.37271676 12.1928197,9.44650807 11.8602396,9.82077136 L11.7878374,9.91244293 L11.2180464,10.7244794 L10.3988944,10.1509029 L10.9686854,9.33886649 C11.5734425,8.47518387 12.7372276,8.23556588 13.6287273,8.76659556 Z M7.5,1 C6.3954305,1 5.5,1.8954305 5.5,3 C5.5,3.15970994 5.51872016,3.31504754 5.55408594,3.46393827 C6.15011622,3.16459957 6.807504,3 7.5,3 C8.18721615,3 8.84510027,3.16377821 9.44497952,3.46214921 C9.48060982,3.32055704 9.5,3.16254293 9.5,3 C9.5,1.8954305 8.6045695,1 7.5,1 Z" id="形状结合"></path>
            </g>
        </g>
    </g>
</svg>