<?xml version="1.0" encoding="UTF-8"?>
<svg width="16px" height="16px" viewBox="0 0 16 16" version="1.1" xmlns="http://www.w3.org/2000/svg" xmlns:xlink="http://www.w3.org/1999/xlink">
    <title>审计日志</title>
    <g id="审计日志" stroke="none" stroke-width="1" fill="none" fill-rule="evenodd">
        <g transform="translate(2.000000, 1.000000)" fill="#71757F" fill-rule="nonzero" id="形状结合">
            <path d="M10.0004339,1 C11.0547957,1 11.918599,1.81587779 11.9949481,2.85073766 L12.0004339,3 L12.0004339,12 C12.0004339,13.0543618 11.1845561,13.9181651 10.1496962,13.9945143 L10.0004339,14 L2,14 C0.945638205,14 0.0818348781,13.1841222 0.00548573643,12.1492623 L1.18660637e-12,12 L1.18660637e-12,3 C1.18660637e-12,1.8954305 0.8954305,1 2,1 C2.27614237,1 2.5,1.22385763 2.5,1.5 C2.5,1.77614237 2.27614237,2 2,2 C1.48716416,2 1.06449284,2.38604019 1.00672773,2.88337887 L1,3 L1,12 C1,12.5128358 1.38604019,12.9355072 1.88337887,12.9932723 L2,13 L10.0004339,13 C10.5132697,13 10.935941,12.6139598 10.9937061,12.1166211 L11.0004339,12 L11.0004339,3 C11.0004339,2.44771525 10.5527186,2 10.0004339,2 C9.72429151,2 9.50043388,1.77614237 9.50043388,1.5 C9.50043388,1.22385763 9.72429151,1 10.0004339,1 Z M9.5,9 C9.77614237,9 10,9.22385763 10,9.5 C10,9.77614237 9.77614237,10 9.5,10 L2.5,10 C2.22385763,10 2,9.77614237 2,9.5 C2,9.22385763 2.22385763,9 2.5,9 L9.5,9 Z M9.5,5 C9.77614237,5 10,5.22385763 10,5.5 C10,5.77614237 9.77614237,6 9.5,6 L2.5,6 C2.22385763,6 2,5.77614237 2,5.5 C2,5.22385763 2.22385763,5 2.5,5 L9.5,5 Z M3.5,0 C3.77614237,-5.07265313e-17 4,0.223857625 4,0.5 L4,2.5 C4,2.77614237 3.77614237,3 3.5,3 C3.22385763,3 3,2.77614237 3,2.5 L3,0.5 C3,0.223857625 3.22385763,5.07265313e-17 3.5,0 Z M8.5,0 C8.77614237,-5.07265313e-17 9,0.223857625 9,0.5 L9,2.5 C9,2.77614237 8.77614237,3 8.5,3 C8.22385763,3 8,2.77614237 8,2.5 L8,0.5 C8,0.223857625 8.22385763,5.07265313e-17 8.5,0 Z M7,1 C7.27614237,1 7.5,1.22385763 7.5,1.5 C7.5,1.74545989 7.32312484,1.94960837 7.08987563,1.99194433 L7,2 L5,2 C4.72385763,2 4.5,1.77614237 4.5,1.5 C4.5,1.25454011 4.67687516,1.05039163 4.91012437,1.00805567 L5,1 L7,1 Z"></path>
        </g>
    </g>
</svg>