<?xml version="1.0" encoding="UTF-8"?>
<svg width="16px" height="16px" viewBox="0 0 16 16" version="1.1" xmlns="http://www.w3.org/2000/svg" xmlns:xlink="http://www.w3.org/1999/xlink">
    <title>辅助工具</title>
    <g id="辅助工具" stroke="none" stroke-width="1" fill="none" fill-rule="evenodd">
        <path d="M10.5,7 C12.9852814,7 15,9.01471863 15,11.5 C15,13.9852814 12.9852814,16 10.5,16 C8.01471863,16 6,13.9852814 6,11.5 C6,9.01471863 8.01471863,7 10.5,7 Z M8,-3.19744231e-13 L15,4 L15.000399,8.33748757 C14.7163208,7.93397432 14.3793475,7.57038438 13.99956,7.25679874 L14,5.13256556 L12.0836442,6.23141291 C11.6824441,6.11098872 11.2619631,6.03513897 10.8279537,6.00961604 L10.478,6 L13.4754922,4.28060377 L8,1.15175111 L2.57130755,4.25386108 L7.30861405,7.02006715 C7.02105656,7.22528325 6.75409142,7.45749524 6.51141946,7.71300226 L2,5.07821167 L2,11.4196775 L5.30398356,13.307733 C5.52178046,13.9338247 5.84954304,14.5084352 6.2641455,15.0084388 L1,12 L1,4 L8,-3.19744231e-13 Z M10.5,8 C8.56700338,8 7,9.56700338 7,11.5 C7,13.4329966 8.56700338,15 10.5,15 C12.4329966,15 14,13.4329966 14,11.5 C14,9.56700338 12.4329966,8 10.5,8 Z M11.7583519,9.18821746 L11.754916,9.19513383 L11.5057694,9.44072217 L11.3753865,9.58270042 C11.0641464,9.93990725 10.7398611,10.4625833 11.1595202,10.8147191 C11.5791793,11.166855 12.0374687,10.7565342 12.3347821,10.3871812 L12.4517645,10.2337377 L12.4517645,10.2337377 L12.6495273,9.94404669 C12.6529676,9.93974742 12.6550046,9.93799951 12.6555656,9.93909576 C12.9219877,10.4597002 12.8688265,11.1112329 12.4692838,11.5873894 C12.049642,12.087499 11.3731224,12.2449009 10.79462,12.0285458 L9.45348269,13.6257574 C9.27598179,13.8372947 8.960604,13.8648867 8.74906666,13.6873858 C8.53752933,13.5098849 8.50993735,13.1945071 8.68743825,12.9829698 L10.0280348,11.385764 C9.71393182,10.8535009 9.75126956,10.1594212 10.1711504,9.65902661 C10.569811,9.18392141 11.2003049,9.01811134 11.7583519,9.18821746 Z" id="形状" fill="#575D6C" fill-rule="nonzero"></path>
    </g>
</svg>