<?xml version="1.0" encoding="UTF-8"?>
<svg width="16px" height="16px" viewBox="0 0 16 16" version="1.1" xmlns="http://www.w3.org/2000/svg" xmlns:xlink="http://www.w3.org/1999/xlink">
    <title>icon/功能按钮/后退1.5</title>
    <g id="icon/功能按钮/后退1.5" stroke="none" stroke-width="1" fill="none" fill-rule="evenodd">
        <path d="M0.750120177,7.98605634 L0.751760285,7.94862678 C0.753000454,7.93052585 0.754893582,7.91246684 0.757437926,7.89448815 C0.76060968,7.87285656 0.763292309,7.85805517 0.766423737,7.84332545 C0.770021449,7.82670126 0.774153639,7.81006828 0.778859195,7.79357062 C0.784270612,7.77435159 0.790358837,7.75588223 0.79712897,7.73774528 C0.802318418,7.723917 0.807994693,7.70995145 0.814105579,7.69613785 C0.821944671,7.67845612 0.830566963,7.66091021 0.839837582,7.64376631 C0.848009028,7.62848894 0.856897111,7.61331126 0.866358102,7.59840342 C0.867933631,7.59609576 0.869375838,7.59385234 0.870829634,7.59161715 C0.895534065,7.55426022 0.919469216,7.52350272 0.946149704,7.49428284 L0.889120177,7.56599518 L0.899129271,7.55093391 C0.907023836,7.54039513 0.915229354,7.53002233 0.923745234,7.51982853 C0.954065322,7.48411013 0.983204,7.45492343 1.01456351,7.42827089 L7.56535065,1.4461497 C7.87123372,1.16684983 8.34561823,1.18839976 8.62491811,1.49428284 C8.880943,1.77467565 8.88417047,2.19665648 8.64732258,2.48017147 L8.57678498,2.5538503 L3.43212018,7.24999518 L14.642136,7.25 C15.0563496,7.25 15.392136,7.58578644 15.392136,8 C15.392136,8.37655778 15.1146265,8.68829976 14.7529655,8.74186807 L14.642136,8.75 L3.43312018,8.74999518 L8.57678498,13.4461497 L8.64732258,13.5198285 C8.88417047,13.8033435 8.880943,14.2253243 8.62491811,14.5057172 C8.34561823,14.8116002 7.87123372,14.8331502 7.56535065,14.5538503 L7.56535065,14.5538503 L0.994282836,8.5538503 L0.98690267,8.5470235 C0.975237489,8.53607744 0.963922559,8.52476251 0.952976498,8.51309733 C0.950605455,8.51056549 0.948371408,8.50815032 0.946149704,8.50571716 L0.940120177,8.49799518 L0.923745234,8.48017147 C0.919753415,8.47539313 0.915829791,8.47057546 0.911974423,8.46571979 C0.904623944,8.45631786 0.897433746,8.44679593 0.890469124,8.43710105 L0.876913438,8.41763173 L0.876913438,8.41763173 L0.87031716,8.40776755 C0.866768771,8.40229617 0.863298309,8.39678746 0.859905849,8.39124305 L0.852396986,8.37853936 C0.846973038,8.3692801 0.84174199,8.35989413 0.83670936,8.35038698 C0.829429833,8.33669255 0.822684094,8.3229183 0.816388377,8.30899711 C0.80740925,8.28914741 0.799118715,8.26846423 0.79174562,8.24735061 C0.787819852,8.23604337 0.784241973,8.22493473 0.780930823,8.21376701 C0.774058622,8.19070935 0.768282586,8.16714056 0.763648437,8.14316475 C0.761496998,8.13182258 0.759670928,8.12108162 0.758080057,8.11031484 C0.754872108,8.08884011 0.75256107,8.06644466 0.751256498,8.04377944 C0.750680288,8.03386509 0.750301535,8.023905 0.750120177,8.01394366 L0.750120177,7.98605634 L0.750120177,7.98605634 Z" id="形状结合" fill="#71757F" fill-rule="nonzero"></path>
    </g>
</svg>