<?xml version="1.0" encoding="UTF-8"?>
<svg width="16px" height="16px" viewBox="0 0 16 16" version="1.1" xmlns="http://www.w3.org/2000/svg" xmlns:xlink="http://www.w3.org/1999/xlink">
    <title>baseline-基线版本</title>
    <g id="baseline-基线版本" stroke="none" stroke-width="1" fill="none" fill-rule="evenodd">
        <path d="M8,1 C11.8659932,1 15,4.13400675 15,8 C15,11.8659932 11.8659932,15 8,15 C4.13400675,15 1,11.8659932 1,8 C1,4.13400675 4.13400675,1 8,1 Z M8,2 C4.6862915,2 2,4.6862915 2,8 C2,11.3137085 4.6862915,14 8,14 C11.3137085,14 14,11.3137085 14,8 C14,4.6862915 11.3137085,2 8,2 Z M8,3 C9.38071187,3 10.5,4.11928813 10.5,5.5 L10.5,5.5 L10.5010222,6.06327212 C11.3631171,6.28564881 12,7.06844842 12,8 L12,8 L12,10.2 C12,11.3045695 11.1045695,12.2 10,12.2 L10,12.2 L6,12.2 C4.8954305,12.2 4,11.3045695 4,10.2 L4,10.2 L4,8 C4,7.06808721 4.63737692,6.28504178 5.49998077,6.06301369 L5.5,5.5 C5.5,4.11928813 6.61928813,3 8,3 Z M10,7 L6,7 C5.44771525,7 5,7.44771525 5,8 L5,8 L5,10.2 C5,10.7522847 5.44771525,11.2 6,11.2 L6,11.2 L10,11.2 C10.5522847,11.2 11,10.7522847 11,10.2 L11,10.2 L11,8 C11,7.44771525 10.5522847,7 10,7 L10,7 Z M9,8.1 C9.55228475,8.1 10,8.54771525 10,9.1 C10,9.65228475 9.55228475,10.1 9,10.1 C8.62259186,10.1 8.29401538,9.89092683 8.12377286,9.5822828 C8.0860468,9.59439959 8.04367742,9.6 8,9.6 L6.5,9.6 C6.22385763,9.6 6,9.37614237 6,9.1 C6,8.82385763 6.22385763,8.6 6.5,8.6 L8,8.6 C8.04367742,8.6 8.0860468,8.60560041 8.1264292,8.6161223 C8.29401538,8.30907317 8.62259186,8.1 9,8.1 Z M8,4 C7.17157288,4 6.5,4.67157288 6.5,5.5 L6.5,5.5 L6.5,6 L9.5,6 L9.5,5.5 C9.5,4.72030388 8.90511192,4.07955132 8.14446001,4.00686658 L8.14446001,4.00686658 Z" id="形状结合" fill="#7A7E87" fill-rule="nonzero"></path>
    </g>
</svg>