<?xml version="1.0" encoding="UTF-8"?>
<svg width="16px" height="16px" viewBox="0 0 16 16" version="1.1" xmlns="http://www.w3.org/2000/svg" xmlns:xlink="http://www.w3.org/1999/xlink">
    <title>batch-delete</title>
    <g id="batch-delete" stroke="none" stroke-width="1" fill="none" fill-rule="evenodd">
        <g id="ipd-copy-new" transform="translate(1.000000, 1.000000)" fill="#71757F" fill-rule="nonzero">
            <path d="M12.2291667,0 C12.9763752,0 13.59043,0.570101333 13.6600862,1.2990592 L13.6666667,1.4375 L13.6666667,9.5625 C13.6666667,10.3097085 13.0965653,10.9237633 12.3676075,10.9934195 L12.2291667,11 L11,11 L11,12.2291667 C11,12.9763752 10.4298987,13.59043 9.7009408,13.6600862 L9.5625,13.6666667 L1.4375,13.6666667 C0.643590958,13.6666667 0,13.0230757 0,12.2291667 L0,12.2291667 L0,4.10416667 C0,3.31025763 0.643590958,2.66666667 1.4375,2.66666667 L1.4375,2.66666667 L2.666,2.666 L2.66666667,1.4375 C2.66666667,0.69029149 3.236768,0.0762367151 3.96572587,0.00658047344 L4.10416667,0 L12.2291667,0 Z M9.5625,3.66666667 L1.4375,3.66666667 C1.19587571,3.66666667 1,3.86254237 1,4.10416667 L1,4.10416667 L1,12.2291667 C1,12.470791 1.19587571,12.6666667 1.4375,12.6666667 L1.4375,12.6666667 L9.5625,12.6666667 C9.80412429,12.6666667 10,12.470791 10,12.2291667 L10,12.2291667 L10,4.10416667 C10,3.86254237 9.80412429,3.66666667 9.5625,3.66666667 L9.5625,3.66666667 Z M7.62132035,6.04534633 C7.8165825,6.24060847 7.8165825,6.55719096 7.62132035,6.75245311 L6.2075782,8.16619527 L7.62132035,9.58088024 C7.8165825,9.77614238 7.8165825,10.0927249 7.62132035,10.287987 C7.42605821,10.4832492 7.10947572,10.4832492 6.91421357,10.287987 L5.50047142,8.87330205 L4.08578645,10.287987 C3.89052433,10.4832491 3.57394181,10.4832492 3.37867967,10.287987 C3.18341752,10.0927249 3.18341755,9.77614235 3.37867967,9.58088024 L4.79336464,8.16619527 L3.37867967,6.75245311 C3.18341752,6.55719097 3.18341752,6.24060847 3.37867967,6.04534633 C3.57394182,5.85008418 3.89052431,5.85008419 4.08578645,6.04534633 L5.50047142,7.45908849 L6.91421357,6.04534633 C7.10947572,5.85008418 7.42605821,5.85008419 7.62132035,6.04534633 Z M12.2291667,1 L4.10416667,1 C3.88938952,1 3.7107594,1.15476599 3.67371539,1.3588589 L3.66666667,1.4375 L3.666,2.666 L9.5625,2.66666667 C10.3097085,2.66666667 10.9237633,3.236768 10.9934195,3.96572587 L11,4.10416667 L11,10 L12.2291667,10 C12.4439438,10 12.6225739,9.84523401 12.6596179,9.6411411 L12.6666667,9.5625 L12.6666667,1.4375 C12.6666667,1.22272285 12.5119007,1.04409273 12.3078078,1.00704872 L12.2291667,1 Z" id="形状"></path>
        </g>
    </g>
</svg>