<?xml version="1.0" encoding="UTF-8"?>
<svg width="16px" height="16px" viewBox="0 0 16 16" version="1.1" xmlns="http://www.w3.org/2000/svg" xmlns:xlink="http://www.w3.org/1999/xlink">
    <title>icon icon-beans</title>
    <g id="icon-icon-beans" stroke="none" stroke-width="1" fill="none" fill-rule="evenodd">
        <g transform="translate(0.500000, 1.000000)" fill="#71757F" id="形状结合">
            <path d="M8.87042553,0.244719249 C11.3812779,-0.589097151 14.1140813,0.766453913 14.840139,3.4189967 C15.4483761,5.64110572 14.1979793,8.69863325 12.6097122,10.5972483 C11.0918985,12.4116434 9.2256562,13.6508649 6.59874681,13.9587611 C3.31110219,14.3441056 -1.77635684e-15,12.209875 -1.77635684e-15,9.568491 C-1.77635684e-15,7.39472871 1.11157323,6.14212815 2.82717869,5.56174066 L2.82717869,5.56174066 L2.99175334,5.50655365 L3.196,5.446 L3.25554998,5.42751642 L3.89253748,5.24007175 C3.93446535,5.22678575 3.97377156,5.21390575 4.01134515,5.20111614 L4.129,5.157 L4.22287383,5.12296214 C4.60538323,4.96984223 4.94115413,4.75933774 5.31452266,4.41479463 L5.47708552,4.25870337 C5.53998949,4.19603217 5.59855536,4.12973369 5.65579544,4.05547441 C5.66409318,4.0449431 5.6723775,4.03399462 5.68064302,4.02286511 L5.65579544,4.05547441 C5.68299319,4.02018997 5.7098916,3.98310822 5.73681384,3.94376429 L5.68064302,4.02286511 C5.71006763,3.9832449 5.73925392,3.94133049 5.76861802,3.89652322 L5.73681384,3.94376429 C5.802825,3.84729612 5.86897936,3.73722792 5.94004026,3.60670706 L5.94004026,3.60670706 L6.11153015,3.27295636 L6.26275593,2.95741442 L6.274,2.933 L6.41566054,2.63835519 C6.50105194,2.46324126 6.58658193,2.29879619 6.67363526,2.14436132 C7.22620918,1.16378875 7.84037506,0.586776139 8.87042553,0.244719249 Z M13.8175596,3.49051293 C13.1712165,1.53286001 11.103503,0.55684619 9.18558377,1.19375839 L9.18572827,1.19375406 C8.38768908,1.45876957 7.93118236,1.90782508 7.46720421,2.77669895 C8.57615853,4.38471851 8.46548043,6.17698921 7.31861961,7.2052076 C6.13776519,8.26390296 4.39239856,8.04179765 3.09433363,6.52956865 L2.97563841,6.5708278 C1.73702373,7.04345843 1,7.94459393 1,9.568491 C1,11.528586 3.72987437,13.2881757 6.4823345,12.9655601 C8.81705842,12.6919106 10.4741721,11.5915546 11.8427019,9.95561358 C13.241618,8.28334872 14.3757421,5.51013636 13.8756189,3.6830061 L13.8756189,3.6830061 Z M6.94207401,3.85084003 L6.89436152,3.94248699 C6.6567934,4.40173285 6.45966594,4.69153526 6.18305812,4.96711958 L5.98404353,5.15758868 C5.52402226,5.58024026 5.08768702,5.85392003 4.59450751,6.05134159 C4.51093034,6.08479784 4.42934153,6.11503977 4.34173267,6.14500425 L4.34173267,6.14500425 L4.2869951,6.16348902 C4.24819843,6.17634939 4.2079903,6.1892699 4.16573841,6.20248244 C5.03510915,7.00635748 5.99030803,7.05304861 6.65107519,6.46063762 C7.29924122,5.87952419 7.44645446,4.88648062 6.94207401,3.85084003 Z"></path>
        </g>
    </g>
</svg>