<?xml version="1.0" encoding="UTF-8"?>
<svg width="16px" height="16px" viewBox="0 0 16 16" version="1.1" xmlns="http://www.w3.org/2000/svg" xmlns:xlink="http://www.w3.org/1999/xlink">
    <title>beginner's_guidance</title>
    <g id="beginner's_guidance" stroke="none" stroke-width="1" fill="none" fill-rule="evenodd">
        <g id="编组">
            <g id="ic_beginner's_guidance_lined" transform="translate(2.029447, 1.000000)" fill="#252B3A" fill-rule="nonzero">
                <path d="M9.9745379,0 C11.0396585,0 11.9103119,0.83261331 11.9711428,1.88248481 L11.9745379,2 L11.9745379,8.64885105 C11.9745379,9.71397162 11.1419246,10.584625 10.0920531,10.6454559 L9.9745379,10.648851 L2.16666666,10.648851 C1.52233446,10.648851 1,11.1711855 1,11.8155177 C1,12.4276333 1.47140685,12.9296459 2.07098186,12.9783169 L2.16666666,12.9821844 L10.6412046,12.9821844 C10.8252995,12.9821844 10.9745379,12.8329459 10.9745379,12.648851 C10.9745379,12.4852111 10.8566212,12.3491121 10.7011217,12.3208881 L10.6412046,12.3155177 L2.17333333,12.3155177 C1.89719096,12.3155177 1.67333333,12.0916601 1.67333333,11.8155177 C1.67333333,11.5623872 1.86143592,11.3531904 2.10548629,11.3200821 L2.17333333,11.3155177 L10.6412046,11.3155177 C11.3775843,11.3155177 11.9745379,11.9124714 11.9745379,12.648851 C11.9745379,13.3517589 11.4306194,13.9276278 10.7407128,13.9785272 L10.6412046,13.9821844 L2.16666666,13.9821844 C0.97004971,13.9821844 0,13.0121347 0,11.8155177 L0.00086127,11.7538296 L0.004,11.6821844 L0,11.6165127 L0,2 C0,0.93487941 0.83261331,0.06422608 1.8824848,0.00339513 L2,0 L9.9745379,0 Z M9.9745379,1 L2,1 C1.48020259,1 1.05303421,1.39659206 1.00457772,1.90369333 L1,2 L1,9.99018442 L1.04009205,9.96440112 C1.33552763,9.78421642 1.67747711,9.67276862 2.04371739,9.65228092 L2.16666666,9.64885102 L9.9745379,9.64885102 C10.4943353,9.64885102 10.9215037,9.252259 10.9699602,8.74515773 L10.9745379,8.64885105 L10.9745379,2 C10.9745379,1.48020259 10.5779459,1.05303422 10.0708446,1.00457772 L9.9745379,1 Z M8.00207614,2.42728736 C8.40503514,2.2738718 8.80023124,2.66829137 8.64760854,3.07155136 L6.77683696,8.01450858 C6.6187778,8.43213286 6.03419448,8.44888341 5.85248122,8.04099491 L4.98356819,6.09025687 L3.04241323,5.23047968 C2.6546586,5.05855413 2.64940251,4.52242174 3.00759999,4.33303343 L3.0671751,4.3061152 L8.00207614,2.42728736 Z M7.31843478,3.7572759 L4.55836131,4.80803658 L5.56503692,5.25509082 C5.65556591,5.29523024 5.73160872,5.36109315 5.78419595,5.44372594 L5.81909831,5.50870498 L6.27191675,6.52347763 L7.31843478,3.7572759 Z" id="形状结合"></path>
            </g>
        </g>
    </g>
</svg>