<?xml version="1.0" encoding="UTF-8"?>
<svg width="16px" height="16px" viewBox="0 0 16 16" version="1.1" xmlns="http://www.w3.org/2000/svg" xmlns:xlink="http://www.w3.org/1999/xlink">
    <title>function icon/binding</title>
    <g id="图标入库记录" stroke="none" stroke-width="1" fill="none" fill-rule="evenodd">
        <g id="DevUI图标入库-2023.08" transform="translate(-552.000000, -120.000000)" fill="#71757F" fill-rule="nonzero">
            <g id="编组-13备份" transform="translate(552.000000, 120.000000)">
                <path d="M5.52512627,6.93933983 C5.69869262,7.11290618 5.71797777,7.38233058 5.58298172,7.57719872 L5.52512627,7.64644661 L3.75735931,9.41421356 C2.97631073,10.1952621 2.97631073,11.4615921 3.75735931,12.2426407 C4.50290569,12.9881871 5.6906196,13.0220755 6.47636302,12.3443061 L6.58578644,12.2426407 L8.35355339,10.4748737 C8.54881554,10.2796116 8.86539803,10.2796116 9.06066017,10.4748737 C9.23422652,10.6484401 9.25351167,10.9178645 9.11851562,11.1127326 L9.06066017,11.1819805 L7.29289322,12.9497475 C6.12132034,14.1213203 4.22182541,14.1213203 3.05025253,12.9497475 C1.92052154,11.8200165 1.88017401,10.0134294 2.92920993,8.83535154 L3.05025253,8.70710678 L4.81801948,6.93933983 C5.01328163,6.74407768 5.32986412,6.74407768 5.52512627,6.93933983 Z M10.1213203,5.87867966 C10.2948867,6.05224601 10.3141718,6.32167041 10.1791758,6.51653855 L10.1213203,6.58578644 L6.58578644,10.1213203 C6.39052429,10.3165825 6.0739418,10.3165825 5.87867966,10.1213203 C5.7051133,9.94775399 5.68582815,9.67832959 5.82082421,9.48346145 L5.87867966,9.41421356 L9.41421356,5.87867966 C9.60947571,5.68341751 9.9260582,5.68341751 10.1213203,5.87867966 Z M12.9497475,3.05025253 C14.0794785,4.17998352 14.119826,5.98657061 13.0707901,7.16464846 L12.9497475,7.29289322 L11.1819805,9.06066017 C10.9867184,9.25592232 10.6701359,9.25592232 10.4748737,9.06066017 C10.3013074,8.88709382 10.2820222,8.61766942 10.4170183,8.42280128 L10.4748737,8.35355339 L12.2426407,6.58578644 C13.0236893,5.80473785 13.0236893,4.5384079 12.2426407,3.75735931 C11.4970943,3.01181294 10.3093804,2.97792447 9.52363698,3.6556939 L9.41421356,3.75735931 L7.64644661,5.52512627 C7.45118446,5.72038841 7.13460197,5.72038841 6.93933983,5.52512627 C6.76577348,5.35155991 6.74648833,5.08213551 6.88148438,4.88726737 L6.93933983,4.81801948 L8.70710678,3.05025253 C9.87867966,1.87867966 11.7781746,1.87867966 12.9497475,3.05025253 Z" id="形状结合"></path>
            </g>
        </g>
    </g>
</svg>