<?xml version="1.0" encoding="UTF-8"?>
<svg width="16px" height="16px" viewBox="0 0 16 16" version="1.1" xmlns="http://www.w3.org/2000/svg" xmlns:xlink="http://www.w3.org/1999/xlink">
    <title>function icon/book</title>
    <g id="图标入库记录" stroke="none" stroke-width="1" fill="none" fill-rule="evenodd">
        <g id="语言-图标入库记录230112" transform="translate(-572.000000, -120.000000)" fill="#71757F" fill-rule="nonzero">
            <g id="ic_book_side_lined-2" transform="translate(572.000000, 120.000000)">
                <path d="M1.39506173,6.99108368 L1.5,7 L12.5,7 C13.8807119,7 15,5.88071187 15,4.5 C15,3.11928813 13.8807119,2 12.5,2 L1.5,2 L1.39506173,2.00891632 C0.868312757,2.10219479 0.868312757,2.89780521 1.39506173,2.99108368 L1.5,3 C2.32842712,3 3,3.67157288 3,4.5 C3,5.27969612 2.40511192,5.92044868 1.64446001,5.99313342 L1.5,6 C0.87037037,6 0.835390947,6.89197531 1.39506173,6.99108368 Z M3.51764502,3.02353247 L3.499,3 L12.5,3 C13.3284271,3 14,3.67157288 14,4.5 L13.9931334,4.64446001 C13.9204487,5.40511192 13.2796961,6 12.5,6 L3.498,6 L3.51764502,5.97646753 C3.8209139,5.5627417 4,5.05228475 4,4.5 C4,3.94771525 3.8209139,3.4372583 3.51764502,3.02353247 Z M14.6049383,9.00891632 L14.5,9 L3.5,9 C2.11928813,9 1,10.1192881 1,11.5 C1,12.8807119 2.11928813,14 3.5,14 L14.5,14 L14.6049383,13.9910837 C15.1316872,13.8978052 15.1316872,13.1021948 14.6049383,13.0089163 L14.5,13 C13.6715729,13 13,12.3284271 13,11.5 C13,10.7203039 13.5948881,10.0795513 14.35554,10.0068666 L14.5,10 C15.1296296,10 15.1646091,9.10802469 14.6049383,9.00891632 Z M12.482355,12.9764675 L12.501,13 L3.5,13 C2.67157288,13 2,12.3284271 2,11.5 L2.00686658,11.35554 C2.07955132,10.5948881 2.72030388,10 3.5,10 L12.502,10 L12.482355,10.0235325 C12.1790861,10.4372583 12,10.9477153 12,11.5 C12,12.0522847 12.1790861,12.5627417 12.482355,12.9764675 Z" id="形状结合"></path>
            </g>
        </g>
    </g>
</svg>