<?xml version="1.0" encoding="UTF-8"?>
<svg width="16px" height="16px" viewBox="0 0 16 16" version="1.1" xmlns="http://www.w3.org/2000/svg" xmlns:xlink="http://www.w3.org/1999/xlink">
    <!-- Generator: Sketch 63.1 (92452) - https://sketch.com -->
    <title>function icon/broom</title>
    <desc>Created with Sketch.</desc>
    <g id="DevUI风格图标汇总-220907" stroke="none" stroke-width="1" fill="none" fill-rule="evenodd">
        <g id="API-starter-图标入库记录-220919" transform="translate(-332.000000, -124.000000)" fill="#71757F" fill-rule="nonzero">
            <g id="编组" transform="translate(332.000000, 124.000000)">
                <path d="M4,15 C2.9456382,15 2.08183488,14.1841222 2.00548574,13.1492623 L2,13 L2,9 C1.44771525,9 1,8.55228475 1,8 L1,6 C1,5.44771525 1.44771525,5 2,5 L6,5 L6,2 C6,1.44771525 6.44771525,1 7,1 L9,1 C9.55228475,1 10,1.44771525 10,2 L10,5 L14,5 C14.5522847,5 15,5.44771525 15,6 L15,8 C15,8.55228475 14.5522847,9 14,9 L14,13 C14,14.0543618 13.1841222,14.9181651 12.1492623,14.9945143 L12,15 L4,15 Z M13,9 L3,9 L3,13 C3,13.5128358 3.38604019,13.9355072 3.88337887,13.9932723 L4,14 L5,14 L5,12.5 C5,12.2545401 5.17687516,12.0503916 5.41012437,12.0080557 L5.5,12 C5.77614237,12 6,12.2238576 6,12.5 L6,12.5 L6,14 L7.5,14 L7.5,12.5 C7.5,12.2545401 7.67687516,12.0503916 7.91012437,12.0080557 L8,12 C8.27614237,12 8.5,12.2238576 8.5,12.5 L8.5,12.5 L8.5,14 L10,14 L10,12.5 C10,12.2545401 10.1768752,12.0503916 10.4101244,12.0080557 L10.5,12 C10.7761424,12 11,12.2238576 11,12.5 L11,12.5 L11,14 L12,14 C12.5128358,14 12.9355072,13.6139598 12.9932723,13.1166211 L13,13 L13,9 Z M9,2 L7,2 L7,5 C7,5.51283584 6.61395981,5.93550716 6.11662113,5.99327227 L6,6 L2,6 L2,8 L14,8 L14,6 L10,6 C9.48716416,6 9.06449284,5.61395981 9.00672773,5.11662113 L9,5 L9,2 Z" id="形状结合"></path>
            </g>
        </g>
    </g>
</svg>