<?xml version="1.0" encoding="UTF-8"?>
<svg width="16px" height="16px" viewBox="0 0 16 16" version="1.1" xmlns="http://www.w3.org/2000/svg" xmlns:xlink="http://www.w3.org/1999/xlink">
    <title>build-plugin构建</title>
    <g id="build-plugin构建" stroke="none" stroke-width="1" fill="none" fill-rule="evenodd">
        <path d="M6.35176108,1.4717305 C7.37547375,0.892365095 8.62804842,0.892365095 9.65176108,1.4717305 L9.65176108,1.4717305 L12.8317611,3.3117305 C13.8503494,3.89980825 14.4789492,4.98557164 14.4817611,6.1617305 L14.4817611,6.1617305 L14.4817611,9.8317305 C14.4763934,11.0098166 13.848949,12.0973868 12.8317611,12.6917305 L12.8317611,12.6917305 L9.65176108,14.5317305 C8.63018787,15.1191638 7.37333429,15.1191638 6.35176108,14.5317305 L6.35176108,14.5317305 L3.17176108,12.6917305 C2.1500825,12.1018644 1.52100471,11.0114629 1.5217604,9.8317305 L1.5217604,9.8317305 L1.5217604,6.1617305 C1.52457292,4.98557164 2.15317279,3.89980825 3.17176108,3.3117305 L3.17176108,3.3117305 Z M8.00176108,2.00171782 C7.59457379,2.00793343 7.19685881,2.12551873 6.85176108,2.3417305 L6.85176108,2.3417305 L3.67176108,4.1617305 C2.95912917,4.57554812 2.52091358,5.33766221 2.52175986,6.1617305 L2.52175986,6.1617305 L2.52175986,9.8317305 C2.5229586,10.6552525 2.96063004,11.4164203 3.67176108,11.8317305 L3.67176108,11.8317305 L6.85176108,13.6617305 C7.56338356,14.0725859 8.44013861,14.0725859 9.15176108,13.6617305 L9.15176108,13.6617305 L12.3317611,11.8317305 C13.0428921,11.4164203 13.4805636,10.6552525 13.4817623,9.8317305 L13.4817623,9.8317305 L13.4817623,6.1417305 C13.4826086,5.31766221 13.044393,4.55554812 12.3317611,4.1417305 L12.3317611,4.1417305 L9.15176108,2.3117305 C8.80304242,2.10742807 8.40591744,2.00037699 8.00176108,2.00171782 Z M10.9626842,5.8623571 L11.0598444,5.87786005 C11.1879712,5.91177597 11.2968937,5.99614941 11.3617611,6.1117305 C11.4992461,6.35242807 11.4193055,6.65886669 11.1817611,6.8017305 L11.1817611,6.8017305 L8.50176108,8.3417305 L8.50176108,11.4317305 C8.50176108,11.7078729 8.27790346,11.9317305 8.00176108,11.9317305 C7.72561871,11.9317305 7.50176108,11.7078729 7.50176108,11.4317305 L7.50176108,11.4317305 L7.50176108,8.3417305 L4.82176108,6.7917305 C4.61440001,6.64092594 4.55471732,6.35770807 4.68358888,6.13604898 C4.81246044,5.9143899 5.08811527,5.8261357 5.32176108,5.9317305 L5.32176108,5.9317305 L8.00176108,7.4817305 L10.6817611,5.9317305 C10.7953165,5.86337897 10.9317176,5.84394414 11.0598444,5.87786005 Z" id="形状结合" fill="#252B3A" fill-rule="nonzero"></path>
    </g>
</svg>