<?xml version="1.0" encoding="UTF-8"?>
<svg width="16px" height="16px" viewBox="0 0 16 16" version="1.1" xmlns="http://www.w3.org/2000/svg" xmlns:xlink="http://www.w3.org/1999/xlink">
    <title>构建工具库</title>
    <g id="构建工具库" stroke="none" stroke-width="1" fill="none" fill-rule="evenodd">
        <path d="M14.5,0.5 C15.0522847,0.5 15.5,0.94771525 15.5,1.5 L15.5,12.5 C15.5,13.0522847 15.0522847,13.5 14.5,13.5 L11.5,13.5 L11.5,14.5 C11.5,15.0522847 11.0522847,15.5 10.5,15.5 L1.5,15.5 C0.94771525,15.5 0.5,15.0522847 0.5,14.5 L0.5,5.5 C0.5,4.94771525 0.94771525,4.5 1.5,4.5 L2.5,4.5 L2.5,1.5 C2.5,0.94771525 2.94771525,0.5 3.5,0.5 L14.5,0.5 Z M2.5,5.5 L1.5,5.5 L1.5,14.5 L10.5,14.5 L10.5,13.5 L3.5,13.5 C2.94771525,13.5 2.5,13.0522847 2.5,12.5 L2.5,5.5 Z M14.5,10 L3.5,10 L3.5,12.5 L14.5,12.5 L14.5,10 Z M13.5,10.75 L13.5,11.75 L11.5,11.75 L11.5,10.75 L13.5,10.75 Z M10.5,10.75 L10.5,11.75 L9.5,11.75 L9.5,10.75 L10.5,10.75 Z M14.5,1.5 L3.5,1.5 L3.5,9 L14.5,9 L14.5,1.5 Z M9.86578637,2.74788158 L11.5,2.74862666 L11.4988857,4.3830544 C11.6462239,4.29757016 11.8173963,4.24862666 12,4.24862666 C12.5522847,4.24862666 13,4.69634191 13,5.24862666 C13,5.80091141 12.5522847,6.24862666 12,6.24862666 C11.8173963,6.24862666 11.6462239,6.19968316 11.4988857,6.11419892 L11.5,7.74862666 L9.86542191,7.75 C9.95099911,7.60260338 10,7.4313374 10,7.24862666 C10,6.69634191 9.55228475,6.24862666 9,6.24862666 C8.44771525,6.24862666 8,6.69634191 8,7.24862666 C8,7.4313374 8.04900089,7.60260338 8.13457809,7.75 L6.5,7.74862666 L6.5001295,6.11476954 C6.35301356,6.19990093 6.18219703,6.24862666 6,6.24862666 C5.44771525,6.24862666 5,5.80091141 5,5.24862666 C5,4.69634191 5.44771525,4.24862666 6,4.24862666 C6.18219703,4.24862666 6.35301356,4.29735239 6.5001295,4.38248378 L6.5,2.74862666 L8.13421363,2.74788158 C8.04886178,2.89513652 8,3.06617545 8,3.24862666 C8,3.80091141 8.44771525,4.24862666 9,4.24862666 C9.55228475,4.24862666 10,3.80091141 10,3.24862666 C10,3.06617545 9.95113822,2.89513652 9.86578637,2.74788158 Z" id="形状" fill="#575D6C" transform="translate(8.000000, 8.000000) scale(-1, -1) translate(-8.000000, -8.000000) "></path>
    </g>
</svg>