<?xml version="1.0" encoding="UTF-8"?>
<svg width="16px" height="16px" viewBox="0 0 16 16" version="1.1" xmlns="http://www.w3.org/2000/svg" xmlns:xlink="http://www.w3.org/1999/xlink">
    <title>business_setting</title>
    <g id="business_setting" stroke="none" stroke-width="1" fill="none" fill-rule="evenodd">
        <path d="M12.5178333,1.50003333 C13.5793278,1.50003333 14.4471493,2.32994431 14.5077826,3.37625102 L14.5111667,3.49336667 L14.5111667,9.44736667 C14.5111667,9.92430299 14.3425971,10.3770725 14.0408598,10.7336711 C13.8624878,10.9444744 13.5469988,10.9707652 13.3361955,10.7923931 C13.1253922,10.6140211 13.0991015,10.2985322 13.2774735,10.0877289 C13.4061728,9.93562972 13.4859377,9.74903966 13.5061011,9.54862838 L13.5111667,9.44736667 L13.5111667,3.49336667 C13.5111667,2.97710851 13.117149,2.55272269 12.6134857,2.5045813 L12.5178333,2.50003333 L6.4765,2.50003333 C5.96024184,2.50003333 5.53585602,2.89405103 5.48771463,3.39771432 L5.48283333,3.48703333 L10.5075,3.4873 C11.5691271,3.4873 12.4368254,4.31733892 12.4974497,5.36412915 L12.5008333,5.4813 L12.5008333,12.5066333 C12.5008333,13.5681278 11.6709224,14.4359493 10.6246156,14.4965826 L10.5075,14.4999667 L3.48216667,14.4999667 C2.42067223,14.4999667 1.55285074,13.6700557 1.49221744,12.623749 L1.48883333,12.5066333 L1.48883333,5.4813 C1.48883333,4.46519379 2.25206976,3.61545724 3.25385919,3.50055666 C3.52820296,3.46909071 3.77611072,3.66598208 3.80757667,3.94032585 C3.83904263,4.21466963 3.64215125,4.46257739 3.36780748,4.49404334 C2.900557,4.54763479 2.5368653,4.92338151 2.49322903,5.38739064 L2.48883333,5.4813 L2.48883333,12.5066333 C2.48883333,13.0228915 2.88285103,13.4472773 3.38651432,13.4954187 L3.48216667,13.4999667 L10.5075,13.4999667 C11.0237582,13.4999667 11.448144,13.105949 11.4962854,12.6022857 L11.5008333,12.5066333 L11.5008333,5.4813 C11.5008333,4.96447895 11.1068764,4.53999925 10.6031631,4.49184877 L10.5075,4.4873 L4.98283333,4.4873 C4.94240465,4.4873 4.90309666,4.48250173 4.86544778,4.47344359 C4.83378733,4.46582425 4.80283902,4.45499112 4.77343568,4.44138572 C4.70423749,4.40952931 4.6435256,4.36217269 4.59575042,4.30381521 C4.588105,4.294119 4.5807372,4.28440401 4.57372524,4.27442092 C4.56416159,4.26123353 4.55536349,4.24732676 4.54725376,4.23297941 C4.54106431,4.22150533 4.53499442,4.20969567 4.52939199,4.19762499 C4.52206468,4.18249585 4.51577193,4.1669501 4.51026001,4.15103965 C4.50474796,4.13423555 4.49977581,4.11693431 4.49573849,4.09927687 L4.4895379,4.06937994 L4.4895379,4.06937994 L4.48773108,4.0552137 L4.48773108,4.0552137 L4.48316667,3.98736667 L4.48316667,3.49336667 C4.48316667,2.43187223 5.31307765,1.56405074 6.35938435,1.50341744 L6.4765,1.50003333 L12.5178333,1.50003333 Z M5.8606972,6.23716946 C6.60740665,5.49124317 7.70228195,5.24765402 8.68623417,5.5791897 C9.03790494,5.69768265 9.14249248,6.14448719 8.8799497,6.40675461 L8.8799497,6.40675461 L8.04032972,7.24549398 C7.83848732,7.44712469 7.84670101,7.77686162 8.06102944,7.96962886 C8.2509186,8.14078993 8.57895016,8.1193745 8.78782174,7.91072199 L8.78782174,7.91072199 L9.58519051,7.11418951 C9.84799476,6.85166089 10.2951751,6.95723092 10.4128204,7.30957581 C10.7404488,8.29081513 10.4952474,9.38094256 9.75101244,10.1243969 C9.11291776,10.7618224 8.22040086,11.0328774 7.36034744,10.8912472 L7.36034744,10.8912472 L7.242,10.868 L5.99556766,12.1140104 C5.43766512,12.6713278 4.54980736,12.6978668 3.96048052,12.1936272 L3.96048052,12.1936272 L3.87439903,12.1140104 C3.28831143,11.5285375 3.28831143,10.5790562 3.87439903,9.99358325 L3.87439903,9.99358325 L5.11733333,8.75133333 L5.09467314,8.63410152 C4.95798599,7.81998628 5.191979,6.97582264 5.75747126,6.34603361 L5.75747126,6.34603361 Z M7.38733333,6.484 L7.29374383,6.50931849 C7.02542801,6.59064372 6.77523125,6.73706672 6.56743288,6.94464715 C6.09294758,7.41863481 5.93774484,8.11440053 6.14933226,8.74104629 C6.21017206,8.9212319 6.16352353,9.12033176 6.0289756,9.25473857 L6.0289756,9.25473857 L4.58113471,10.7010609 C4.38606621,10.8959249 4.38606621,11.2116688 4.58113471,11.4065327 C4.77649313,11.6016863 5.09347356,11.6016863 5.28883199,11.4065327 L5.28883199,11.4065327 L6.73912934,9.95775647 C6.87305669,9.82396958 7.07105565,9.77728962 7.25064017,9.83716337 C7.87676322,10.0459137 8.57063708,9.89006219 9.04427676,9.41691926 C9.25123592,9.21017717 9.39747107,8.96130688 9.47901518,8.69436836 L9.47901518,8.69436836 L9.50066667,8.61133333 L9.40570887,8.70047835 C8.8574899,9.17085704 8.04636513,9.22076145 7.47953796,8.78572321 L7.47953796,8.78572321 L7.39190635,8.71278026 C6.75130765,8.1366262 6.72659102,7.14438269 7.33359404,6.53801629 L7.33359404,6.53801629 L7.38733333,6.484 Z" id="形状结合" fill="#71757F"></path>
    </g>
</svg>