<?xml version="1.0" encoding="UTF-8"?>
<svg width="16px" height="16px" viewBox="0 0 16 16" version="1.1" xmlns="http://www.w3.org/2000/svg" xmlns:xlink="http://www.w3.org/1999/xlink">
    <title>certificate</title>
    <g id="certificate" stroke="none" stroke-width="1" fill="none" fill-rule="evenodd">
        <path d="M12,8.5 C13.9326885,8.5 15.5,10.0675887 15.5,12.0005307 C15.5,13.933325 13.9328363,15.5 12,15.5 C10.0673115,15.5 8.5,13.9324113 8.5,11.9994693 C8.5,10.066675 10.0671637,8.5 12,8.5 Z M12,1 C13.0543618,1 13.9181651,1.81587779 13.9945143,2.85073766 L14,3 L14,7.5 C14,7.77614237 13.7761424,8 13.5,8 C13.2545401,8 13.0503916,7.82312484 13.0080557,7.58987563 L13,7.5 L13,3 C13,2.48716416 12.6139598,2.06449284 12.1166211,2.00672773 L12,2 L4,2 C3.48716416,2 3.06449284,2.38604019 3.00672773,2.88337887 L3,3 L3,13 C3,13.5128358 3.38604019,13.9355072 3.88337887,13.9932723 L4,14 L8,14 C8.27614237,14 8.5,14.2238576 8.5,14.5 C8.5,14.7454599 8.32312484,14.9496084 8.08987563,14.9919443 L8,15 L4,15 C2.9456382,15 2.08183488,14.1841222 2.00548574,13.1492623 L2,13 L2,3 C2,1.9456382 2.81587779,1.08183488 3.85073766,1.00548574 L4,1 L12,1 Z M12,9.5 C10.6193787,9.5 9.5,10.6190296 9.5,11.9994693 C9.5,13.3801661 10.6196358,14.5 12,14.5 C13.3806213,14.5 14.5,13.3809704 14.5,12.0005307 C14.5,10.6198339 13.3803642,9.5 12,9.5 Z M11.551632,10.0046723 C11.6738431,9.75704546 11.973656,9.65537596 12.2212829,9.77758711 C12.3198892,9.82625223 12.3997029,9.90606599 12.448368,10.0046723 L12.448368,10.0046723 L12.853,10.825 L13.7591161,10.9569865 C14.0020249,10.9922832 14.1786173,11.1966763 14.1869724,11.4335892 L14.1869724,11.4335892 L14.1820204,11.5236892 C14.1662082,11.6325077 14.1149646,11.7330789 14.0362228,11.8098332 L14.0362228,11.8098332 L13.38,12.447 L13.5355616,13.3507099 C13.5770553,13.5926372 13.437236,13.8237475 13.2145003,13.9049038 L13.2145003,13.9049038 L13.1272799,13.9280366 C13.0189011,13.946625 12.9074171,13.9289677 12.8100868,13.8777981 L12.8100868,13.8777981 L12,13.451 L11.1899132,13.8777981 C10.9726489,13.9920207 10.7096434,13.9304616 10.56363,13.7437061 L10.56363,13.7437061 L10.5146769,13.667903 C10.4635074,13.5705728 10.44585,13.4590887 10.4644384,13.3507099 L10.4644384,13.3507099 L10.619,12.447 L9.96377724,11.8098332 C9.78800676,11.6384993 9.76527974,11.3693434 9.89777421,11.1727658 L9.89777421,11.1727658 L9.9547399,11.1027841 C10.0314942,11.0240423 10.1320654,10.9727987 10.2408839,10.9569865 L10.2408839,10.9569865 L11.146,10.825 Z M12,10.904 L11.7941762,11.3208651 C11.7213452,11.4684368 11.5805624,11.5707215 11.4177074,11.5943857 L11.4177074,11.5943857 L10.957,11.661 L11.2905013,11.9858858 C11.3847757,12.0777807 11.4380461,12.2020797 11.44134,12.3311684 L11.44134,12.3311684 L11.4342996,12.4284515 L11.355,12.886 L11.7673294,12.6704119 C11.883859,12.6091486 12.0185359,12.596896 12.1423244,12.6336539 L12.1423244,12.6336539 L12.2326706,12.6704119 L12.644,12.886 L12.5657004,12.4284515 C12.5434452,12.2986939 12.5734097,12.1668223 12.6466214,12.0604513 L12.6466214,12.0604513 L12.7094987,11.9858858 L13.042,11.661 L12.5822926,11.5943857 C12.4520086,11.5754544 12.3358508,11.5062059 12.2573095,11.403707 L12.2573095,11.403707 L12.2058238,11.3208651 L12,10.904 Z M8.5,7 C8.77614237,7 9,7.22385763 9,7.5 C9,7.77614237 8.77614237,8 8.5,8 L5.5,8 C5.22385763,8 5,7.77614237 5,7.5 C5,7.22385763 5.22385763,7 5.5,7 L8.5,7 Z M10.5,4 C10.7761424,4 11,4.22385763 11,4.5 C11,4.77614237 10.7761424,5 10.5,5 L5.5,5 C5.22385763,5 5,4.77614237 5,4.5 C5,4.22385763 5.22385763,4 5.5,4 L10.5,4 Z" id="形状结合" fill="#71757F" fill-rule="nonzero"></path>
    </g>
</svg>