<?xml version="1.0" encoding="UTF-8"?>
<svg width="16px" height="16px" viewBox="0 0 16 16" version="1.1" xmlns="http://www.w3.org/2000/svg" xmlns:xlink="http://www.w3.org/1999/xlink">
    <title>function icon/chart-analysis</title>
    <g id="图标入库记录" stroke="none" stroke-width="1" fill="none" fill-rule="evenodd">
        <g id="DevUI图标-入库记录-2023.04" transform="translate(-312.000000, -120.000000)" fill="#71757F" fill-rule="nonzero">
            <g id="实例" transform="translate(312.000000, 120.000000)">
                <path d="M14.5,11 C14.7454599,11 14.9496084,11.1768752 14.9919443,11.4101244 L15,11.5 L15,13 C15,14.0543618 14.1841222,14.9181651 13.1492623,14.9945143 L13,15 L11.5,15 C11.2238576,15 11,14.7761424 11,14.5 C11,14.2545401 11.1768752,14.0503916 11.4101244,14.0080557 L11.5,14 L13,14 C13.5128358,14 13.9355072,13.6139598 13.9932723,13.1166211 L14,13 L14,11.5 C14,11.2238576 14.2238576,11 14.5,11 Z M1.5,11 C1.74545989,11 1.94960837,11.1768752 1.99194433,11.4101244 L2,11.5 L2,13 C2,13.5128358 2.38604019,13.9355072 2.88337887,13.9932723 L3,14 L4.5,14 C4.77614237,14 5,14.2238576 5,14.5 C5,14.7454599 4.82312484,14.9496084 4.58987563,14.9919443 L4.5,15 L3,15 C1.9456382,15 1.08183488,14.1841222 1.00548574,13.1492623 L1,13 L1,11.5 C1,11.2238576 1.22385763,11 1.5,11 Z M3.5,8 C3.77614237,8 4,8.22385763 4,8.5 L4,11.5 C4,11.7761424 3.77614237,12 3.5,12 C3.22385763,12 3,11.7761424 3,11.5 L3,8.5 C3,8.22385763 3.22385763,8 3.5,8 Z M12.5,7 C12.7761424,7 13,7.22385763 13,7.5 L13,11.5 C13,11.7761424 12.7761424,12 12.5,12 C12.2238576,12 12,11.7761424 12,11.5 L12,7.5 C12,7.22385763 12.2238576,7 12.5,7 Z M9.5,9 C9.77614237,9 10,9.22385763 10,9.5 L10,11.5 C10,11.7761424 9.77614237,12 9.5,12 C9.22385763,12 9,11.7761424 9,11.5 L9,9.5 C9,9.22385763 9.22385763,9 9.5,9 Z M6.5,6 C6.77614237,6 7,6.22385763 7,6.5 L7,11.5 C7,11.7761424 6.77614237,12 6.5,12 C6.22385763,12 6,11.7761424 6,11.5 L6,6.5 C6,6.22385763 6.22385763,6 6.5,6 Z M6.78619095,3.08995253 L6.85355339,3.14644661 L9.563,5.856 L12.2226499,4.08397485 C12.4268849,3.9478182 12.6948594,3.98174603 12.8594684,4.15233734 L12.9160251,4.2226499 C13.0521818,4.42688487 13.018254,4.69485937 12.8476627,4.85946839 L12.7773501,4.91602515 L9.7773501,6.91602515 C9.60382772,7.03170673 9.37996648,7.02614806 9.21380905,6.91004747 L9.14644661,6.85355339 L6.436,4.143 L3.7773501,5.91602515 C3.57311513,6.0521818 3.30514063,6.01825397 3.14053161,5.84766266 L3.08397485,5.7773501 C2.9478182,5.57311513 2.98174603,5.30514063 3.15233734,5.14053161 L3.2226499,5.08397485 L6.2226499,3.08397485 C6.39617228,2.96829327 6.62003352,2.97385194 6.78619095,3.08995253 Z M13,1 C14.0543618,1 14.9181651,1.81587779 14.9945143,2.85073766 L15,3 L15,4.5 C15,4.77614237 14.7761424,5 14.5,5 C14.2545401,5 14.0503916,4.82312484 14.0080557,4.58987563 L14,4.5 L14,3 C14,2.48716416 13.6139598,2.06449284 13.1166211,2.00672773 L13,2 L11.5,2 C11.2238576,2 11,1.77614237 11,1.5 C11,1.25454011 11.1768752,1.05039163 11.4101244,1.00805567 L11.5,1 L13,1 Z M4.5,1 C4.77614237,1 5,1.22385763 5,1.5 C5,1.74545989 4.82312484,1.94960837 4.58987563,1.99194433 L4.5,2 L3,2 C2.48716416,2 2.06449284,2.38604019 2.00672773,2.88337887 L2,3 L2,4.5 C2,4.77614237 1.77614237,5 1.5,5 C1.25454011,5 1.05039163,4.82312484 1.00805567,4.58987563 L1,4.5 L1,3 C1,1.9456382 1.81587779,1.08183488 2.85073766,1.00548574 L3,1 L4.5,1 Z" id="形状结合"></path>
            </g>
        </g>
    </g>
</svg>