<?xml version="1.0" encoding="UTF-8"?>
<svg width="16px" height="16px" viewBox="0 0 16 16" version="1.1" xmlns="http://www.w3.org/2000/svg" xmlns:xlink="http://www.w3.org/1999/xlink">
    <title>function icon/chart</title>
    <g id="图标入库记录" stroke="none" stroke-width="1" fill="none" fill-rule="evenodd">
        <g id="API-starter-图标入库记录-221103" transform="translate(-172.000000, -510.000000)" fill="#71757F" fill-rule="nonzero">
            <g id="编组-13备份" transform="translate(172.000000, 510.000000)">
                <path d="M8.5,1 C9.05228475,1 9.5,1.44771525 9.5,2 L9.5,12 C9.5,12.5522847 9.05228475,13 8.5,13 L7.5,13 C6.94771525,13 6.5,12.5522847 6.5,12 L6.5,2 C6.5,1.44771525 6.94771525,1 7.5,1 L8.5,1 Z M8.5,2 L7.5,2 L7.5,12 L8.5,12 L8.5,2 Z M13,4 C13.5522847,4 14,4.44771525 14,5 L14,12 C14,12.5522847 13.5522847,13 13,13 L12,13 C11.4477153,13 11,12.5522847 11,12 L11,5 C11,4.44771525 11.4477153,4 12,4 L13,4 Z M13,5 L12,5 L12,12 L13,12 L13,5 Z M4,6 C4.55228475,6 5,6.44771525 5,7 L5,12 C5,12.5522847 4.55228475,13 4,13 L3,13 C2.44771525,13 2,12.5522847 2,12 L2,7 C2,6.44771525 2.44771525,6 3,6 L4,6 Z M4,7 L3,7 L3,12 L4,12 L4,7 Z M1.5,14 L14.5,14 C14.7761424,14 15,14.2238576 15,14.5 C15,14.7761424 14.7761424,15 14.5,15 L1.5,15 C1.22385763,15 1,14.7761424 1,14.5 C1,14.2238576 1.22385763,14 1.5,14 Z" id="形状结合"></path>
            </g>
        </g>
    </g>
</svg>