<?xml version="1.0" encoding="UTF-8"?>
<svg width="16px" height="16px" viewBox="0 0 16 16" version="1.1" xmlns="http://www.w3.org/2000/svg" xmlns:xlink="http://www.w3.org/1999/xlink">
    <title>Check swb file查看SWB文件</title>
    <g id="Check-swb-file查看SWB文件" stroke="none" stroke-width="1" fill="none" fill-rule="evenodd">
        <path d="M12.3333333,1 C13.4779235,1 14.4152196,1.81925966 14.4945599,2.85716817 L14.5,3 L14.5,13 C14.5,14.0565447 13.6124687,14.9217411 12.4880678,14.9949784 L12.3333333,15 L3.66666667,15 C2.52207653,15 1.58478044,14.1807403 1.50544012,13.1428318 L1.5,13 L1.5,3 C1.5,1.94345526 2.3875313,1.07825887 3.51193218,1.00502165 L3.66666667,1 L12.3333333,1 Z M12.3333333,2 L3.66666667,2 C3.10824542,2 2.6485068,2.39000973 2.58969019,2.89103898 L2.58333333,3 L2.58333333,13 C2.58333333,13.5154657 3.00584387,13.9398399 3.54862556,13.9941321 L3.66666667,14 L12.3333333,14 C12.8917545,14 13.3514932,13.6099902 13.4103098,13.108961 L13.4166667,13 L13.4166667,3 C13.4166667,2.44771525 12.9316418,2 12.3333333,2 Z M8.54166667,11 C8.8408209,11 9.08333333,11.2238576 9.08333333,11.5 C9.08333333,11.7761424 8.8408209,12 8.54166667,12 L5.29166667,12 C4.99251243,12 4.75,11.7761424 4.75,11.5 C4.75,11.2238576 4.99251243,11 5.29166667,11 L8.54166667,11 Z M10.7083333,9 C11.0074876,9 11.25,9.22385763 11.25,9.5 C11.25,9.77614237 11.0074876,10 10.7083333,10 L5.29166667,10 C4.99251243,10 4.75,9.77614237 4.75,9.5 C4.75,9.22385763 4.99251243,9 5.29166667,9 L10.7083333,9 Z M4.51675111,2.9 C4.93719001,2.9 5.34648332,3.03546725 5.58162134,3.23589577 L5.69487415,3.33559188 C5.79954344,3.43507948 5.86109998,3.53278242 5.91940204,3.7020886 L5.95944404,3.83300939 L6.00317346,4.01084618 C6.00987018,4.25472144 5.88408774,4.39831849 5.65380695,4.39831849 C5.44044574,4.39831849 5.29498508,4.30620449 5.25009495,4.14088536 C5.13854587,3.88719314 5.00288583,3.75236132 4.83635398,3.69349259 C4.74061112,3.65964765 4.65942603,3.65224288 4.48760344,3.65224288 C4.29393558,3.65224288 4.16509649,3.68746149 4.0447872,3.76441379 C3.93721995,3.82798604 3.87168521,3.98405689 3.87168521,4.17321649 C3.87168521,4.3391579 3.91823288,4.43667957 4.04723646,4.51740611 L4.08415926,4.5382215 L4.20631281,4.59570494 L4.28993856,4.6314704 L4.64753222,4.77207903 L4.97840712,4.89803138 L5.25278503,5.01305012 C5.41620618,5.08575126 5.53996732,5.15016289 5.6200777,5.20428415 C5.96212122,5.44555724 6.13451761,5.78243925 6.13451761,6.21 C6.13451761,6.62253947 5.99558066,6.95591312 5.71861776,7.19815483 C5.44271228,7.43296144 5.0575667,7.552 4.57766482,7.552 C4.10888058,7.552 3.73667074,7.44321186 3.46823128,7.22304648 C3.20720068,7.00706976 3.0803966,6.80467026 3.01104467,6.46521334 C2.99769696,6.39988031 2.99319309,6.31371095 3.0124093,6.22639328 C3.04545294,6.0762443 3.14351817,5.96743207 3.31185336,5.938033 C3.59571453,5.88845779 3.77435632,6.04307791 3.81731563,6.22955014 C3.87051231,6.46045936 3.89807721,6.52141475 3.98947491,6.60159103 C4.10024604,6.69511351 4.27519016,6.734 4.57766482,6.734 C4.82148233,6.734 5.01628781,6.68545119 5.14925764,6.59643091 C5.27949582,6.50406599 5.34060898,6.39454727 5.34060898,6.252 C5.34060898,6.063286 5.24596183,5.91412209 5.04962872,5.79808922 L4.96521499,5.75687456 L4.72357619,5.65852237 L4.19571816,5.46118376 L3.91776604,5.35063128 L3.70508466,5.25826368 L3.55591054,5.18305703 C3.53624248,5.17189578 3.51914708,5.16140691 3.50458759,5.15156909 C3.19898584,4.93483633 3.04619274,4.61671267 3.04619274,4.206 C3.04619274,3.79477587 3.19384235,3.4671358 3.48853585,3.23495352 C3.76019356,3.01018393 4.10199369,2.9 4.51675111,2.9 Z M11.6139594,2.94669066 C12.0057583,2.94669066 12.3289485,3.06770854 12.5696939,3.29796287 C12.7911402,3.51345826 12.9232778,3.8133196 12.9404905,4.15267526 C12.9601213,4.53970486 12.8109111,4.89373134 12.6186532,5.09894801 L12.5447843,5.16870262 L12.532,5.177 C12.5626792,5.19327892 12.5775943,5.2030951 12.593373,5.21597966 L12.6478668,5.26321819 C12.8674517,5.45059181 12.9945691,5.73878108 12.9945691,6.162 C12.9945691,6.652058 12.8613921,6.96067934 12.5599588,7.19599545 C12.3520159,7.35197729 12.0724819,7.44040177 11.728546,7.46248189 L11.452729,7.46843095 L10.4849375,7.46786802 C10.3684618,7.46673584 10.3290106,7.46208792 10.2709632,7.43245049 C10.2473763,7.42040767 10.2248539,7.40491026 10.2013181,7.38497589 C10.1649622,7.35418297 10.1381136,7.31495015 10.1201668,7.2662622 L10.0998471,7.18601203 L10.0945691,7.116 L10.0945691,3.36962995 C10.0945691,3.24516611 10.1259721,3.14498595 10.193009,3.07350812 C10.249136,3.01366297 10.3049906,2.97909189 10.379658,2.96153584 L10.4613033,2.94934559 L10.5410029,2.94669066 L11.6139594,2.94669066 Z M7.9609631,4.172 C8.07739953,4.172 8.17305519,4.20906232 8.24336722,4.28776285 L8.29127802,4.35466691 L8.32534543,4.43651971 L8.756,6.02 L9.17798172,4.53602459 C9.24785804,4.35405055 9.362195,4.24539634 9.51128283,4.220963 L9.5886777,4.21581521 L9.67159466,4.22500703 C9.90361001,4.26963437 9.97928226,4.4160572 9.94726445,4.62376166 L9.91456356,4.77580108 L9.84600909,4.99639436 L9.12938025,7.11530828 C9.05684926,7.2819557 8.92707289,7.372 8.75433968,7.372 C8.6421666,7.372 8.54903662,7.33356689 8.47929279,7.25402486 L8.43143767,7.18661861 L8.39524664,7.10216632 L7.96,5.537 L7.52081578,7.10460847 C7.48560853,7.21989294 7.41776353,7.30030546 7.3233123,7.34110443 L7.24757945,7.36420202 L7.16243472,7.372 C7.04976131,7.372 6.95456289,7.33486545 6.87983752,7.25788902 L6.82767903,7.19264404 L6.78460971,7.10817631 L5.96720732,4.7488754 C5.9181463,4.49469619 6.01587277,4.32109639 6.24669233,4.27504876 C6.39741196,4.24498077 6.52934982,4.27804695 6.6360461,4.37586818 L6.6969832,4.44234449 L6.75820913,4.54536654 L7.161,6.013 L7.59307599,4.43108346 C7.63063316,4.31872445 7.70074541,4.24102925 7.79722994,4.20171678 L7.87444154,4.1794873 L7.9609631,4.172 Z M10.956,5.559 L10.956,6.69200576 L11.490677,6.69200576 C11.6279629,6.69200576 11.7089559,6.68559955 11.8011271,6.65904666 C12.0086082,6.59927498 12.132488,6.4560393 12.1536618,6.17312816 C12.1828838,5.78268713 11.9669718,5.59541958 11.6521894,5.56459772 L11.5549348,5.55999781 L10.956,5.559 Z M10.958,3.667 L10.9565176,3.70506665 L10.957,4.8 L11.4907738,4.8 C11.8702946,4.8 12.0820531,4.71467786 12.140792,4.38689365 L12.1538378,4.28112739 C12.1830626,3.89069002 11.9671258,3.70342193 11.6523048,3.67259994 L11.5550382,3.668 L10.958,3.667 Z" id="形状结合" fill="#71757F" fill-rule="nonzero"></path>
    </g>
</svg>