<?xml version="1.0" encoding="UTF-8"?>
<svg width="16px" height="16px" viewBox="0 0 16 16" version="1.1" xmlns="http://www.w3.org/2000/svg" xmlns:xlink="http://www.w3.org/1999/xlink">
    <title>icon-children-node</title>
    <g id="icon-children-node" stroke="none" stroke-width="1" fill="none" fill-rule="evenodd">
        <g transform="translate(0.500000, 2.750000)" fill="#71757F" fill-rule="nonzero" id="形状结合">
            <path d="M12.5,0 C13.8807119,0 15,1.11928813 15,2.5 C15,3.88071187 13.8807119,5 12.5,5 C11.4907191,5 10.6211274,4.40191913 10.2263028,3.54083518 C9.12478381,3.6996727 8.44475488,3.99027305 8.1795494,4.36144027 C7.88404409,4.7750135 7.70185236,5.26321677 7.63468823,5.8137515 L7.61295111,6.05347531 L7.6115255,8.3795809 C7.51218843,9.69223716 6.72793136,10.4337681 5.40694438,10.4957677 L5.22349687,10.5 L0.5,10.5 C0.223857625,10.5 8.18012325e-13,10.2761424 8.18012325e-13,10 C8.18012325e-13,9.75454011 0.176875161,9.55039163 0.410124368,9.50805567 L0.5,9.5 L5.22349687,9.5 C6.08622068,9.5 6.49801677,9.1859349 6.59723432,8.48682709 L6.61295111,8.3418506 L6.61381839,6.02403838 C6.66458652,5.16321377 6.91471835,4.41153381 7.36590514,3.78007721 C7.43693705,3.68066478 7.51875406,3.58722034 7.61133729,3.4995523 L5,3.5 C4.93194782,3.5 4.867071,3.48640467 4.80793742,3.46178188 C4.43235628,4.36447482 3.54039557,5 2.5,5 C1.11928813,5 0,3.88071187 0,2.5 C0,1.11928813 1.11928813,0 2.5,0 C3.88071187,0 5,1.11928813 5,2.5 L5,2.5 L10,2.5 C10,1.11928813 11.1192881,0 12.5,0 Z M12.5,1 C11.6715729,1 11,1.67157287 11,2.5 C11,3.32842713 11.6715729,4 12.5,4 C13.3284271,4 14,3.32842713 14,2.5 C14,1.67157287 13.3284271,1 12.5,1 Z M2.5,1 C1.67157287,1 1,1.67157287 1,2.5 C1,3.32842713 1.67157287,4 2.5,4 C3.32842713,4 4,3.32842713 4,2.5 C4,1.67157287 3.32842713,1 2.5,1 Z"></path>
        </g>
    </g>
</svg>