<?xml version="1.0" encoding="UTF-8"?>
<svg width="16px" height="16px" viewBox="0 0 16 16" version="1.1" xmlns="http://www.w3.org/2000/svg" xmlns:xlink="http://www.w3.org/1999/xlink">
    <title>清理记录备份-clean record</title>
    <g id="清理记录备份-clean-record" stroke="none" stroke-width="1" fill="none" fill-rule="evenodd">
        <g id="编组">
            <path d="M11.4916016,6.5 C12.3339234,6.5 13.0167601,7.18283674 13.0167601,8.02515855 L13.0167601,8.02515855 L13.016395,8.05725872 L12.963,9 L14.0004773,9 C14.5190139,9.00024763 14.9445813,9.39494428 14.9950011,9.89925456 L14.9950011,9.89925456 L14.9999594,10.008895 L14.9910651,11.008895 C14.9881619,11.3352636 14.8291541,11.6239732 14.5853084,11.8043883 L14.5852597,11.8059017 L14.9809821,13.8059017 C15.1033042,14.4241237 14.6302072,15 14,15 L14,15 L9,15 C8.34697556,15 7.86917314,14.3842805 8.03131534,13.7517058 L8.03131534,13.7517058 L8.51217931,11.8731607 C8.20398668,11.7006028 7.99665936,11.3696523 7.99999914,10.991105 L7.99999914,10.991105 L8.00893492,9.99110499 C8.01381496,9.44249955 8.45978845,9.00026336 9.00841554,9 L9.00841554,9 L10.027,9 L9.97285146,8.11796374 C9.92268806,7.32578024 10.4880092,6.63684948 11.2575856,6.51800212 L11.2575856,6.51800212 L11.3954298,6.50304189 Z M5.25,1 C5.45075459,1 5.62896745,1.11955134 5.70766226,1.29855273 L5.73507125,1.37873219 L5.92070516,2.12126781 C5.9693953,2.31602838 6.1286001,2.45992478 6.32134325,2.49285575 L6.40577641,2.5 L9.59422359,2.5 C9.79497819,2.5 9.97319104,2.38044866 10.0518859,2.20144727 L10.0792948,2.12126781 L10.2649287,1.37873219 C10.3136189,1.18397162 10.4728237,1.04007522 10.6655668,1.00714425 L10.75,1 L12,1 C13.0543618,1 13.9181651,1.81587779 13.9945143,2.85073766 L14,3 L14,5.8 C14,6.07614237 13.7761424,6.3 13.5,6.3 C13.2545401,6.3 13.0503916,6.12312484 13.0080557,5.88987563 L13,5.8 L13,3 C13,2.48716416 12.6139598,2.06449284 12.1166211,2.00672773 L12,2 L11.14,2 L11.0494373,2.36380344 C10.8936289,2.98703724 10.3605971,3.43665473 9.73060406,3.4938338 L9.59422359,3.5 L6.40577641,3.5 C5.76336171,3.5 5.19788947,3.09193143 4.98962187,2.4946164 L4.95056266,2.36380344 L4.859,2 L4,2 C3.48716416,2 3.06449284,2.38604019 3.00672773,2.88337887 L3,3 L3,13 C3,13.5128358 3.38604019,13.9355072 3.88337887,13.9932723 L4,14 L6.5,14 C6.77614237,14 7,14.2238576 7,14.5 C7,14.7454599 6.82312484,14.9496084 6.58987563,14.9919443 L6.5,15 L4,15 C2.9456382,15 2.08183488,14.1841222 2.00548574,13.1492623 L2,13 L2,3 C2,1.9456382 2.81587779,1.08183488 3.85073766,1.00548574 L4,1 L5.25,1 Z M13.6042776,12 L9.51264203,12 L9,14 L9.889,14 L10.1097097,12.9019419 C10.1578483,12.6612487 10.3713255,12.4957527 10.6083479,12.4999828 L10.6980581,12.5097097 C10.9387513,12.5578483 11.1042473,12.7713255 11.1000172,13.0083479 L11.0902903,13.0980581 L10.91,14 L12.129,14 L12.004386,13.0660819 L12.0004928,12.97593 C12.0116303,12.7391316 12.1906114,12.5368269 12.4339181,12.504386 L12.4339181,12.504386 L12.52407,12.5004928 C12.7608684,12.5116303 12.9631731,12.6906114 12.995614,12.9339181 L12.995614,12.9339181 L13.137,14 L14,14 L13.6042776,12 Z M6.72751679,11 C7.00365916,11 7.22751679,11.2238576 7.22751679,11.5 C7.22751679,11.7454599 7.05064163,11.9496084 6.81739242,11.9919443 L6.72751679,12 L4.5,12 C4.22385763,12 4,11.7761424 4,11.5 C4,11.2545401 4.17687516,11.0503916 4.41012437,11.0080557 L4.5,11 L6.72751679,11 Z M11.4916016,7.5 L11.4751056,7.50026082 L11.3655522,7.51536033 C11.1254157,7.5748361 10.9546643,7.79912138 10.9708526,8.05476736 L10.9708526,8.05476736 L11.093,9.999 L9.00889536,10 L9,11 L13.9911046,11 L14,10 L11.905,9.999 L12.0165482,8.04007602 L12.0082991,7.93076064 C11.9638329,7.68577501 11.7494123,7.5 11.4916016,7.5 L11.4916016,7.5 Z M7,8 C7.27614237,8 7.5,8.22385763 7.5,8.5 C7.5,8.74545989 7.32312484,8.94960837 7.08987563,8.99194433 L7,9 L4.5,9 C4.22385763,9 4,8.77614237 4,8.5 C4,8.25454011 4.17687516,8.05039163 4.41012437,8.00805567 L4.5,8 L7,8 Z M9.5,5 C9.77614237,5 10,5.22385763 10,5.5 C10,5.74545989 9.82312484,5.94960837 9.58987563,5.99194433 L9.5,6 L4.5,6 C4.22385763,6 4,5.77614237 4,5.5 C4,5.25454011 4.17687516,5.05039163 4.41012437,5.00805567 L4.5,5 L9.5,5 Z M9.29092317,1 C9.56706555,1 9.79092317,1.22385763 9.79092317,1.5 C9.79092317,1.74545989 9.61404801,1.94960837 9.3807988,1.99194433 L9.29092317,2 L6.59533105,2 C6.31918868,2 6.09533105,1.77614237 6.09533105,1.5 C6.09533105,1.25454011 6.27220621,1.05039163 6.50545542,1.00805567 L6.59533105,1 L9.29092317,1 Z" id="形状结合" fill="#333333" fill-rule="nonzero"></path>
        </g>
    </g>
</svg>