<?xml version="1.0" encoding="UTF-8"?>
<svg width="16px" height="16px" viewBox="0 0 16 16" version="1.1" xmlns="http://www.w3.org/2000/svg" xmlns:xlink="http://www.w3.org/1999/xlink">
    <title>function icon/cloud service</title>
    <g id="图标入库记录" stroke="none" stroke-width="1" fill="none" fill-rule="evenodd">
        <g id="入库图标" transform="translate(-412.000000, -120.000000)" fill="#77787C" fill-rule="nonzero">
            <g id="编组-7" transform="translate(412.000000, 120.000000)">
                <path d="M7.73256667,2.66666667 C8.90922447,2.66666667 10.0117417,3.13869121 10.8193027,3.96099156 C11.0127912,4.15801147 11.0099283,4.47458101 10.8129085,4.66806943 C10.6158885,4.86155785 10.299319,4.85869501 10.1058306,4.66167511 C9.48448847,4.02899248 8.63819673,3.66666667 7.73256667,3.66666667 C5.89546532,3.66666667 4.40656667,5.15538611 4.40656667,6.992 L4.40611518,7.01308 C4.40598985,7.0159986 4.40583915,7.0189218 4.40566289,7.0218494 C4.3787509,7.46883587 4.45148005,7.89132467 4.60682383,8.33889173 L4.7214794,8.6411288 L4.89219439,9.0314314 L4.96410901,9.181308 L5.32374153,9.89340673 C5.50143216,10.276503 5.58442025,10.6250918 5.58589784,11.0849961 C5.58603651,11.1321446 5.58548629,11.1781682 5.58412846,11.2231608 C5.63016383,11.1874124 5.67401963,11.1504351 5.71659125,11.1125571 L5.83272246,11.0052599 C6.04826318,10.7986203 6.22194583,10.5877293 6.40830955,10.3101517 L6.50999505,10.1543628 L6.62111027,9.97543527 L7.42504573,8.6012642 L7.86482307,7.83405407 L8.16733013,7.31987933 L8.35584487,7.01115647 C8.3694662,6.98140667 8.38622447,6.9525614 8.40619047,6.92506727 C8.4718528,6.83464693 8.53632547,6.75226527 8.61247547,6.66525085 C9.3358896,5.82823622 10.3852954,5.33753333 11.5134333,5.33753333 C13.6311239,5.33753333 15.3481,7.0542724 15.3481,9.1722 C15.3481,11.2766453 13.6193125,13.0054329 11.4780968,13.0049518 L10.8619293,12.9631868 C10.6664359,12.9488103 10.4807292,12.9331626 10.2961098,12.9150066 L9.87177533,12.8683087 L8.91417407,12.7395165 L8.663654,12.712029 L8.48621347,12.6981976 L8.186562,12.6837832 L7.95405487,12.6781578 L7.6870262,12.6755296 L7.2061368,12.6768504 C6.9300034,12.6790798 6.70434573,12.4570368 6.70209967,12.1809035 C6.69988687,11.9047701 6.92192987,11.6791124 7.1980632,11.6768829 L7.85059713,11.6767479 L8.11658547,11.6814068 L8.3520744,11.689485 L8.56432893,11.7011836 L8.76061373,11.7167039 L8.94819373,11.7362471 L10.063939,11.8842713 L10.1308793,11.8920253 C10.3073474,11.9119553 10.4811001,11.9289488 10.6606156,11.9441883 L11.1066561,11.9778789 L11.5132512,12.0062 C13.0668873,12.0056341 14.3481,10.7244213 14.3481,9.1722 C14.3481,7.60658807 13.07887,6.33753333 11.5134333,6.33753333 C10.6788946,6.33753333 9.9044764,6.69965187 9.367055,7.32145233 C9.33203073,7.36148007 9.30061133,7.3998672 9.2698934,7.43967107 C9.26998607,7.44135073 9.26949833,7.44199667 9.2690088,7.44264173 L9.2127084,7.5252088 L8.972107,7.92079193 L8.4901458,8.7528462 L8.23289807,9.20454627 L7.60828687,10.2733547 L7.4716926,10.5013449 L7.35123,10.6950803 L7.23854433,10.8675655 C7.0138222,11.2022757 6.7947462,11.4682847 6.52476702,11.7271146 L6.38172793,11.8592785 C5.88294545,12.3030695 5.25530115,12.6485907 4.42466768,12.8570308 C4.26589054,12.9063817 4.10220662,12.9323436 3.93636436,12.9422447 L3.92765032,12.9429635 C3.92065855,12.9432535 3.91362971,12.9434 3.90656667,12.9434 C2.10954609,12.9434 0.6519,11.4859975 0.6519,9.68873333 C0.6519,8.05079273 1.86335576,6.6945152 3.43868405,6.46748396 C3.69669047,4.32615995 5.52063973,2.66666667 7.73256667,2.66666667 Z M3.4099688,7.48940673 L3.30742783,7.51465373 C2.35338776,7.7772914 1.6519,8.65162973 1.6519,9.68873333 C1.6519,10.9274283 2.65168372,11.9332607 3.88784599,11.9433238 L3.87676897,11.944022 C3.92753689,11.9409911 3.97772125,11.9347742 4.02656509,11.9248565 C4.02801033,11.9231047 4.03029645,11.9225851 4.03258975,11.9220805 L4.09400423,11.9084983 C4.21458173,11.8742157 4.32421101,11.8144588 4.41045298,11.7207662 C4.54669723,11.5725445 4.58680247,11.3940419 4.58591732,11.0880731 C4.58504865,10.8222863 4.54867081,10.6320253 4.46336575,10.4215447 L4.40778417,10.2964106 L4.13286742,9.75632833 L4.01123747,9.5078444 L3.91218377,9.28846507 L3.74734979,8.8972564 C3.56182745,8.4238496 3.44364261,7.96626593 3.4099688,7.48940673 Z" id="形状结合"></path>
            </g>
        </g>
    </g>
</svg>