<?xml version="1.0" encoding="UTF-8"?>
<svg width="16px" height="16px" viewBox="0 0 16 16" version="1.1" xmlns="http://www.w3.org/2000/svg" xmlns:xlink="http://www.w3.org/1999/xlink">
    <title>english to chinese</title>
    <g id="页面-1" stroke="none" stroke-width="1" fill="none" fill-rule="evenodd">
        <path d="M8.00071999,5.60095599 C9.26877398,5.60095599 10.3090664,6.58840784 10.3935559,7.83527398 L10.399096,7.99932001 L10.399096,13.600836 C10.399096,14.868117 9.41163922,15.9098416 8.16476685,15.9944519 L8.00071999,16 L2.39917601,16 C1.13188868,16 0.0901588206,15.0110787 0.00554815054,13.7647942 L0,13.600836 L0,7.99932001 C0,6.73127236 0.988926222,5.69098519 2.23521694,5.60649606 L2.39917601,5.60095599 L8.00071999,5.60095599 Z M5.20717637,7.5389531 L5.09316819,7.54647233 C4.83222155,7.58127016 4.60977549,7.73479543 4.48868918,7.9641385 L4.44318401,8.06694518 L2.64160203,13.0268708 L2.61565269,13.1209502 C2.56181883,13.4045611 2.72072124,13.6934208 3.00079844,13.7956593 C3.06799776,13.8196589 3.13759707,13.8316587 3.20559639,13.8316587 C3.42049424,13.8316587 3.62314221,13.7152855 3.7299349,13.5232696 L3.76959075,13.4364646 L4.07118773,12.6060771 L6.34278368,12.6060771 L6.64438066,13.4364646 C6.73317977,13.679661 6.96277748,13.8316587 7.20837502,13.8316587 C7.27637434,13.8316587 7.34597365,13.8196589 7.41317297,13.7956593 C7.69325017,13.6934208 7.85215258,13.4045611 7.79831872,13.1209502 L7.77236938,13.0268708 L5.9707874,8.06694518 C5.85398857,7.74535001 5.55479156,7.5389531 5.20717637,7.5389531 Z M5.20679504,9.47972399 L5.90598805,11.4060951 L4.50798336,11.4060951 L5.20679504,9.47972399 Z M13.600024,0 C14.868078,0 15.9098398,0.988921277 15.9944518,2.23590986 L16,2.399964 L16,8.00227997 C16,9.27032761 15.0110738,10.3120842 13.764079,10.3966958 L13.600024,10.402244 L11.199248,10.402244 L11.199248,9.20226197 L13.600024,9.20226197 C14.2202678,9.20226197 14.7322314,8.72906594 14.7938041,8.12478301 L14.800012,8.00227997 L14.800012,2.399964 C14.800012,1.7797233 14.3268136,1.26776223 13.7225277,1.20618991 L13.600024,1.199982 L7.99768002,1.199982 C7.37743623,1.199982 6.8654726,1.67317803 6.80389997,2.27746096 L6.79769202,2.399964 L6.79769202,4.80072799 L5.59770402,4.80072799 L5.59770402,2.399964 C5.59770402,1.13191635 6.58663024,0.0901597587 7.83362507,0.00554818067 L7.99768002,0 L13.600024,0 Z M11.344699,2.37479104 L11.4130983,2.82478429 L11.4694977,3.27477755 L13.7942745,3.27477755 L13.7942745,4.2243633 L12.8950835,4.2243633 C12.6110863,5.20754855 12.1862905,5.97393706 11.6198962,6.5243288 C12.2198902,6.89152329 12.9694827,7.16671917 13.8694737,7.34911643 C13.6198762,7.68191144 13.4110783,8.00750655 13.24468,8.3243018 C12.4538931,8.08301329 11.770751,7.8039458 11.1952536,7.48709933 L11.1975168,7.19682025 C11.1975168,6.70694058 11.0501411,6.25105363 10.7973674,5.8711368 C11.2612598,5.4243453 11.5860565,4.87395356 11.7700547,4.2243633 L9.81967421,4.2243633 C9.98832249,4.6949534 10.2052533,5.11348259 10.4707708,5.47964672 C10.082082,5.09992892 9.56533391,4.85193886 8.99218213,4.80613803 L8.933,4.804 L8.88499843,4.68400844 C8.86903068,4.64337379 8.85331948,4.60240761 8.83786466,4.56110981 L8.71992521,4.2243633 L7.81993421,4.2243633 L7.81993421,3.27477755 L10.344709,3.27477755 C10.3279091,3.17477904 10.2943095,3.03318117 10.24471,2.84918393 C10.2178302,2.68918633 10.1909505,2.56656417 10.1644804,2.48131745 L10.144711,2.4243903 L11.344699,2.37479104 Z" id="english-to-chinese" fill="#191919" fill-rule="nonzero"></path>
    </g>
</svg>