<svg xmlns:xlink="http://www.w3.org/1999/xlink" xmlns="http://www.w3.org/2000/svg" version="1.1" viewBox="0 0 16 16" height="16px" width="16px">
      <title>驾驶舱</title>
      <g fill-rule="evenodd" fill="none" stroke-width="1" stroke="none" id="驾驶舱">
          <path fill="#71757F" id="形状结合" d="M10.4283357,7.63400641 C10.5598745,7.87680704 10.469679,8.18026914 10.2268784,8.31180799 C9.56368589,8.67109695 9.13229188,9.35301173 9.10549338,10.1204204 C9.06424312,11.3016734 9.98839795,12.2927081 11.169651,12.3339584 C11.9568227,12.361447 12.6832229,11.9577759 13.0812604,11.2942276 C13.2233105,11.0574231 13.5304328,10.9806094 13.7672373,11.1226595 C14.0040419,11.2647095 14.0808555,11.5718319 13.9388055,11.8086364 C13.3554685,12.7810881 12.2891416,13.3736614 11.1347515,13.3333492 C9.40155014,13.2728245 8.04557783,11.8187222 8.10610256,10.0855209 C8.14539988,8.96019283 8.77877073,7.95900843 9.75053409,7.43254916 C9.99333471,7.30101031 10.2967968,7.39120579 10.4283357,7.63400641 Z M10.9008499,2.66666667 C11.6485148,2.66666667 12.3297249,3.08316861 12.6728949,3.73933877 L12.7298899,3.85758542 L13.5881184,5.79772969 C13.6998293,6.05026742 13.5856665,6.34554921 13.3331287,6.45726001 C13.1016358,6.55966159 12.834226,6.47226661 12.7052195,6.2624713 L12.6735984,6.20227031 L11.8153699,4.26212604 C11.6685874,3.93030398 11.3550562,3.70647109 10.9989362,3.67146992 L10.9008499,3.66666667 L5.1723267,3.66666667 C4.81424057,3.66666667 4.48620524,3.85780324 4.30837261,4.16306155 L4.26368711,4.24908542 L3.14736424,6.67558559 C3.17144475,6.67331482 3.1956495,6.67147101 3.21997085,6.6700618 L3.33748604,6.66666667 L8.21085843,6.66666667 C8.48700081,6.66666667 8.71085843,6.89052429 8.71085843,7.16666667 C8.71085843,7.41979718 8.52275585,7.62899397 8.27870547,7.66210226 L8.21085843,7.66666667 L3.33748604,7.66666667 C2.81768863,7.66666667 2.39052025,8.06325872 2.34206376,8.57035999 L2.33748604,8.66666667 L2.33748604,11.3333333 C2.33748604,11.8531307 2.73407809,12.2802991 3.24117936,12.3287556 L3.33748604,12.3333333 L7.8775251,12.3333333 C8.15366748,12.3333333 8.3775251,12.557191 8.3775251,12.8333333 C8.3775251,13.0864638 8.18942251,13.2956606 7.94537214,13.3287689 L7.8775251,13.3333333 L3.33748604,13.3333333 C2.27236545,13.3333333 1.40171212,12.50072 1.34088117,11.4508485 L1.33748604,11.3333333 L1.33748604,8.66666667 C1.33748604,8.35595657 1.40833876,8.06179502 1.53476869,7.79945751 L1.55653864,7.74498542 L3.35504752,3.83150418 C3.66317006,3.16104223 4.31337008,2.71800211 5.04282933,2.67084475 L5.1723267,2.66666667 L10.9008499,2.66666667 Z M7.00415271,10.5 C7.28029471,10.5 7.50415271,10.723858 7.50415271,11 C7.50415271,11.276142 7.28029471,11.5 7.00415271,11.5 C6.72801071,11.5 6.50415271,11.276142 6.50415271,11 C6.50415271,10.723858 6.72801071,10.5 7.00415271,10.5 Z M5.17081937,10.5 C5.44696175,10.5 5.67081937,10.7238576 5.67081937,11 C5.67081937,11.2531305 5.48271678,11.4623273 5.23866641,11.4954356 L5.17081937,11.5 L3.83748604,11.5 C3.56134366,11.5 3.33748604,11.2761424 3.33748604,11 C3.33748604,10.7468695 3.52558863,10.5376727 3.769639,10.5045644 L3.83748604,10.5 L5.17081937,10.5 Z M11.632491,6.93333333 C13.3094133,6.93333333 14.6685776,8.29232313 14.6685776,9.96911252 C14.6685776,10.2208491 14.4815109,10.428894 14.2388044,10.46182 L14.1713309,10.4663592 L11.632491,10.4663592 C11.3807544,10.4663592 11.1727096,10.2792924 11.1397836,10.036586 L11.1352443,9.96911252 L11.1352443,7.43058004 C11.1352443,7.15595827 11.3578692,6.93333333 11.632491,6.93333333 Z M5.17081937,8.53333333 C5.44696175,8.53333333 5.67081937,8.75719096 5.67081937,9.03333333 C5.67081937,9.28646384 5.48271678,9.49566064 5.23866641,9.52876892 L5.17081937,9.53333333 L3.83748604,9.53333333 C3.56134366,9.53333333 3.33748604,9.30947571 3.33748604,9.03333333 C3.33748604,8.78020282 3.52558863,8.57100603 3.769639,8.53789774 L3.83748604,8.53333333 L5.17081937,8.53333333 Z M7.00415271,8.5 C7.28029471,8.5 7.50415271,8.723858 7.50415271,9 C7.50415271,9.276142 7.28029471,9.5 7.00415271,9.5 C6.72801071,9.5 6.50415271,9.276142 6.50415271,9 C6.50415271,8.723858 6.72801071,8.5 7.00415271,8.5 Z M12.1291223,7.98792253 L12.1291223,9.47125586 L13.6124557,9.47125586 L13.5814526,9.35908102 C13.3838546,8.72703729 12.8872082,8.22698565 12.2591573,8.0251975 L12.1291223,7.98792253 Z"></path>
      </g>
  </svg>