<?xml version="1.0" encoding="UTF-8"?>
<svg width="16px" height="16px" viewBox="0 0 16 16" version="1.1" xmlns="http://www.w3.org/2000/svg" xmlns:xlink="http://www.w3.org/1999/xlink">
    <title>Code_repo</title>
    <g id="Code_repo" stroke="none" stroke-width="1" fill="none" fill-rule="nonzero">
        <path d="M7.66574176,1.07902007 C7.82114176,0.956951068 8.11264176,0.991800068 8.28354176,1.07902007 L8.28354176,1.07902007 L13.9745818,5.55021007 L15.2835818,6.57902007 C15.5006818,6.74968007 15.5383818,7.06401007 15.3677818,7.28111007 C15.2161818,7.47410007 14.8753818,7.47618007 14.6657818,7.36540007 L14.6657818,7.36540007 L13.9745818,6.82219007 L13.9745818,14.0248101 C13.9745818,14.5481101 13.5267818,14.9722101 12.9745818,14.9722101 L12.9745818,14.9722101 L2.97458176,14.9722101 C2.42233176,14.9722101 1.97458176,14.5481101 1.97458176,14.0248101 L1.97458176,14.0248101 L1.97458176,6.82121007 L1.28354176,7.36540007 C1.09055176,7.51701007 0.758761758,7.43834007 0.581393758,7.28111007 C0.429781758,7.08812007 0.508517758,6.75639007 0.665743758,6.57902007 L0.665743758,6.57902007 L2.07358176,5.47221007 Z M7.97458176,2.10722007 L2.97458176,6.03520007 L2.97458176,14.0248101 L12.9745818,14.0248101 L12.9745818,6.03624007 L7.97458176,2.10722007 Z" id="形状结合" fill="#252B3A"></path>
        <path d="M8.65561176,8.98851007 C8.78366176,8.95463007 8.92014176,8.97404007 9.03366176,9.04240007 C9.14926176,9.10728007 9.23361176,9.21617007 9.26755176,9.34434007 C9.30136176,9.47245007 9.28195176,9.60887007 9.21359176,9.72239007 L7.45358176,12.7224101 C7.36484176,12.8761101 7.20114176,12.9713101 7.02365176,12.9724209 C6.93540176,12.9730101 6.84873176,12.9487101 6.77365176,12.9024101 C6.65805176,12.8375101 6.57370176,12.7286101 6.53977176,12.6005101 C6.50583176,12.4723101 6.52524176,12.3360101 6.59360176,12.2224101 L8.35361176,9.22239007 C8.41855176,9.10679007 8.52744176,9.02244007 8.65561176,8.98851007 Z M5.41867176,9.04448007 C5.55197176,9.04448007 5.67978176,9.09776007 5.77365176,9.19242007 C5.96542176,9.39024007 5.96542176,9.70457007 5.77365176,9.90239007 L4.67368176,10.9924101 L5.77365176,12.0824101 C5.96542176,12.2802101 5.96542176,12.5946101 5.77365176,12.7924101 C5.67819176,12.8881101 5.54880176,12.9420101 5.41367176,12.9424101 C5.28171176,12.9405101 5.15598176,12.8866101 5.06369176,12.7924101 L3.61362176,11.3424101 C3.42819176,11.1459101 3.42819176,10.8389101 3.61362176,10.6424101 L5.06369176,9.19242007 C5.15756176,9.09776007 5.28537176,9.04448007 5.41867176,9.04448007 Z M10.7435818,9.19242007 C10.6497818,9.09776007 10.5219818,9.04448007 10.3886818,9.04448007 C10.2553818,9.04448007 10.1275818,9.09776007 10.0336818,9.19242007 C9.84189176,9.39024007 9.84189176,9.70457007 10.0336818,9.90239007 L11.1336818,10.9924101 L10.0336818,12.0824101 C9.84189176,12.2802101 9.84189176,12.5946101 10.0336818,12.7924101 C10.1289818,12.8881101 10.2584818,12.9420101 10.3936818,12.9424101 C10.5254818,12.9405101 10.6513818,12.8866101 10.7435818,12.7924101 L12.1935818,11.3424101 C12.3789818,11.1459101 12.3789818,10.8389101 12.1935818,10.6424101 L10.7435818,9.19242007 Z" id="矢量-4" fill="#252B3A"></path>
    </g>
</svg>