<?xml version="1.0" encoding="UTF-8"?>
<svg width="16px" height="16px" viewBox="0 0 16 16" version="1.1" xmlns="http://www.w3.org/2000/svg" xmlns:xlink="http://www.w3.org/1999/xlink">
    <title>codecheck-plugin代码检查</title>
    <g id="codecheck-plugin代码检查" stroke="none" stroke-width="1" fill="none" fill-rule="evenodd">
        <path d="M12.5717611,1.7917305 C13.913813,1.7917305 15.0017611,2.87967856 15.0017611,4.2217305 L15.0017611,4.2217305 L15.0017611,11.7817305 C15.0017611,13.1237824 13.913813,14.2117305 12.5717611,14.2117305 L12.5717611,14.2117305 L3.43176108,14.2117305 C2.08970914,14.2117305 1.00176108,13.1237824 1.00176108,11.7817305 L1.00176108,11.7817305 L1.00176108,4.2217305 C1.00176108,2.87967856 2.08970914,1.7917305 3.43176108,1.7917305 L3.43176108,1.7917305 Z M14.0017611,5.7117305 L2.00176108,5.7117305 L2.00176108,11.7817305 C2.00176108,12.1609901 2.15242137,12.5247162 2.42059839,12.7928932 C2.68877541,13.0610702 3.0525015,13.2117305 3.43176108,13.2117305 L3.43176108,13.2117305 L12.5717611,13.2117305 C13.3615283,13.2117305 14.0017611,12.5714977 14.0017611,11.7817305 L14.0017611,11.7817305 L14.0017611,5.7117305 Z M8.75367773,7.51786005 C8.88180453,7.48394414 9.01820565,7.50337897 9.13176108,7.5717305 C9.24734218,7.63659788 9.33171561,7.74552034 9.36563153,7.87364714 C9.39954745,8.00177395 9.38011261,8.13817507 9.31176108,8.2517305 L9.31176108,8.2517305 L7.55176108,11.2517305 C7.46298494,11.4055028 7.29931661,11.5006588 7.12176108,11.5017414 C7.03350839,11.502332 6.94686945,11.4780731 6.87176108,11.4317305 C6.75617999,11.3668631 6.67180656,11.2579407 6.63789064,11.1298139 C6.60397472,11.0016871 6.62340956,10.8652859 6.69176108,10.7517305 L6.69176108,10.7517305 L8.45176108,7.7517305 C8.51662847,7.63614941 8.62555093,7.55177597 8.75367773,7.51786005 Z M10.4867611,7.57383134 C10.6200799,7.57383134 10.7478778,7.62707417 10.8417611,7.7217305 L10.8417611,7.7217305 L12.2917611,9.1717305 C12.4771681,9.36823266 12.4771681,9.67522834 12.2917611,9.8717305 L12.2917611,9.8717305 L10.8417611,11.3217305 C10.7494459,11.4159376 10.6236457,11.469852 10.4917611,11.4717305 C10.3566275,11.4713995 10.2271494,11.4174502 10.1317611,11.3217305 C9.93997779,11.1239168 9.93997779,10.8095442 10.1317611,10.6117305 L10.1317611,10.6117305 L11.2317611,9.5217305 L10.1317611,8.4317305 C9.93997779,8.23391682 9.93997779,7.91954417 10.1317611,7.7217305 C10.2256444,7.62707417 10.3534423,7.57383134 10.4867611,7.57383134 Z M5.51676108,7.57383134 C5.65007985,7.57383134 5.77787778,7.62707417 5.87176108,7.7217305 C6.06354438,7.91954417 6.06354438,8.23391682 5.87176108,8.4317305 L5.87176108,8.4317305 L4.77176108,9.5217305 L5.87176108,10.6117305 C6.06354438,10.8095442 6.06354438,11.1239168 5.87176108,11.3217305 C5.77637279,11.4174502 5.64689467,11.4713995 5.51176108,11.4717305 C5.37987645,11.469852 5.25407631,11.4159376 5.16176108,11.3217305 L5.16176108,11.3217305 L3.71176108,9.8717305 C3.52635407,9.67522834 3.52635407,9.36823266 3.71176108,9.1717305 L3.71176108,9.1717305 L5.16176108,7.7217305 C5.25564438,7.62707417 5.38344232,7.57383134 5.51676108,7.57383134 Z M12.5717611,2.7917305 L3.43176108,2.7917305 C2.64199389,2.7917305 2.00176108,3.43196331 2.00176108,4.2217305 L2.00176108,4.2217305 L2.00176108,4.7117305 L14.0017611,4.7117305 L14.0017611,4.2217305 C14.0017611,3.43196331 13.3615283,2.7917305 12.5717611,2.7917305 L12.5717611,2.7917305 Z" id="形状结合" fill="#252B3A" fill-rule="nonzero"></path>
    </g>
</svg>