<?xml version="1.0" encoding="UTF-8"?>
<svg width="16px" height="16px" viewBox="0 0 16 16" version="1.1" xmlns="http://www.w3.org/2000/svg" xmlns:xlink="http://www.w3.org/1999/xlink">
    <title>固定到左侧</title>
    <g id="固定到左侧" stroke="none" stroke-width="1" fill="none" fill-rule="evenodd">
        <path d="M13,1.5 C14.1045695,1.5 15,2.3954305 15,3.5 L15,3.5 L15,12.5 C15,13.6045695 14.1045695,14.5 13,14.5 L13,14.5 L3,14.5 C1.8954305,14.5 1,13.6045695 1,12.5 L1,12.5 L1,3.5 C1,2.3954305 1.8954305,1.5 3,1.5 L3,1.5 Z M4,2.5 L3,2.5 C2.44771525,2.5 2,2.94771525 2,3.5 L2,3.5 L2,12.5 C2,13.0522847 2.44771525,13.5 3,13.5 L3,13.5 L4,13.5 L4,13.5 L4,2.5 Z M13,2.5 L5,2.5 L5,2.5 L5,13.5 L13,13.5 C13.5522847,13.5 14,13.0522847 14,12.5 L14,12.5 L14,3.5 C14,2.94771525 13.5522847,2.5 13,2.5 L13,2.5 Z M9.8890873,4.81933983 C10.0843494,5.01460197 10.0843494,5.33118446 9.8890873,5.52644661 L7.91413806,7.50139585 L12.5355339,7.50132034 C12.8116763,7.50132034 13.0355339,7.72517797 13.0355339,8.00132034 C13.0355339,8.27746272 12.8116763,8.50132034 12.5355339,8.50132034 L7.91413806,8.50124484 L9.8890873,10.4761941 C10.0843494,10.6714562 10.0843494,10.9880387 9.8890873,11.1833009 C9.69382515,11.378563 9.37724266,11.378563 9.18198052,11.1833009 L6.35355339,8.35487373 C6.15829124,8.15961159 6.15829124,7.8430291 6.35355339,7.64776695 L9.18198052,4.81933983 C9.37724266,4.62407768 9.69382515,4.62407768 9.8890873,4.81933983 Z" id="形状结合" fill="#71757F" fill-rule="nonzero"></path>
    </g>
</svg>