<?xml version="1.0" encoding="UTF-8"?>
<svg width="16px" height="16px" viewBox="0 0 16 16" version="1.1" xmlns="http://www.w3.org/2000/svg" xmlns:xlink="http://www.w3.org/1999/xlink">
    <!-- Generator: Sketch 63.1 (92452) - https://sketch.com -->
    <title>function icon/collapse</title>
    <desc>Created with Sketch.</desc>
    <g id="DevUI风格图标汇总-220907" stroke="none" stroke-width="1" fill="none" fill-rule="evenodd">
        <g id="API-starter-图标入库记录-220919" transform="translate(-412.000000, -124.000000)" fill="#71757F">
            <g id="编组" transform="translate(412.000000, 124.000000)">
                <path d="M3,2 L3.01154077,2.00013238 C3.03240118,2.000611 3.05323734,2.0023875 3.07391777,2.00546187 L3,2 C3.03609704,2 3.07130067,2.00382515 3.10522765,2.01109223 C3.12047425,2.01439613 3.13583471,2.01844802 3.15101164,2.02324135 C3.16473685,2.0275581 3.17802507,2.03240845 3.19103656,2.03779224 C3.20453886,2.04335147 3.21827569,2.04974961 3.23175819,2.05680497 C3.24404667,2.06329334 3.25568247,2.07001934 3.26701032,2.07718801 C3.27270191,2.08073319 3.27853638,2.08459457 3.2843055,2.08859116 L3.30214392,2.10158273 C3.31575424,2.11192025 3.32881868,2.1229392 3.34128643,2.13458875 L3.35355339,2.14644661 L4.85355339,3.64644661 C5.04881554,3.84170876 5.04881554,4.15829124 4.85355339,4.35355339 C4.67998704,4.52711974 4.41056264,4.54640489 4.2156945,4.41140884 L4.14644661,4.35355339 L3.5,3.706 L3.5,12.292 L4.14644661,11.6464466 L4.2156945,11.5885912 C4.41056264,11.4535951 4.67998704,11.4728803 4.85355339,11.6464466 C5.04881554,11.8417088 5.04881554,12.1582912 4.85355339,12.3535534 L4.85355339,12.3535534 L3.35355339,13.8535534 L3.34128643,13.8654113 C3.32881868,13.8770608 3.31575424,13.8880797 3.30214392,13.8984173 L3.2843055,13.9114088 C3.27853638,13.9154054 3.27270191,13.9192668 3.26680652,13.922993 C3.25568247,13.9299807 3.24404667,13.9367067 3.23212724,13.9429657 C3.21827569,13.9502504 3.20453886,13.9566485 3.1905951,13.9623894 C3.17802507,13.9675915 3.16473685,13.9724419 3.15119917,13.9767316 C3.13583471,13.981552 3.12047425,13.9856039 3.10498705,13.9889143 C3.09430622,13.9912471 3.08325248,13.9932298 3.07207924,13.994843 C3.05487076,13.9972949 3.03773477,13.998877 3.02056948,13.9995793 C3.01375728,13.9998604 3.00689494,14 3,14 L2.98043349,13.9996194 C2.96293275,13.9989382 2.94546098,13.9973429 2.92809589,13.9948333 L3,14 C2.96390296,14 2.92869933,13.9961748 2.89477235,13.9889078 C2.87952575,13.9856039 2.86416529,13.981552 2.84898836,13.9767587 C2.83526315,13.9724419 2.82197493,13.9675915 2.80896344,13.9622078 C2.79546114,13.9566485 2.78172431,13.9502504 2.76824181,13.943195 C2.75595333,13.9367067 2.74431753,13.9299807 2.73298968,13.922812 C2.70240643,13.9035342 2.67328088,13.8803877 2.64644661,13.8535534 L2.69785608,13.8984173 C2.68424576,13.8880797 2.67118132,13.8770608 2.65871357,13.8654113 L2.64644661,13.8535534 L1.14644661,12.3535534 L1.08859116,12.2843055 C0.953595107,12.0894374 0.972880258,11.820013 1.14644661,11.6464466 L1.14644661,11.6464466 L1.2156945,11.5885912 C1.41056264,11.4535951 1.67998704,11.4728803 1.85355339,11.6464466 L1.85355339,11.6464466 L2.5,12.292 L2.5,3.706 L1.85355339,4.35355339 C1.67998704,4.52711974 1.41056264,4.54640489 1.2156945,4.41140884 L1.14644661,4.35355339 C0.972880258,4.17998704 0.953595107,3.91056264 1.08859116,3.7156945 L1.14644661,3.64644661 L2.64644661,2.14644661 L2.65871357,2.13458875 C2.67118132,2.1229392 2.68424576,2.11192025 2.69785608,2.10158273 L2.64644661,2.14644661 C2.67328088,2.11961234 2.70240643,2.09646582 2.73319348,2.07700705 C2.74431753,2.07001934 2.75595333,2.06329334 2.76787276,2.05703434 C2.78172431,2.04974961 2.79546114,2.04335147 2.8094049,2.03761056 C2.82197493,2.03240845 2.83526315,2.0275581 2.84880083,2.02326842 C2.86416529,2.01844802 2.87952575,2.01439613 2.89501295,2.01108568 C2.90498814,2.00890403 2.91531968,2.00702791 2.92575651,2.00547432 C2.94709424,2.0023382 2.96826702,2.00055436 2.98946265,2.00011036 C2.99250948,2.00004128 2.99624992,2 3,2 Z M10.5,12 C10.7761424,12 11,12.2238576 11,12.5 C11,12.7761424 10.7761424,13 10.5,13 L6.5,13 C6.22385763,13 6,12.7761424 6,12.5 C6,12.2238576 6.22385763,12 6.5,12 L10.5,12 Z M13.5,9 C13.7761424,9 14,9.22385763 14,9.5 C14,9.77614237 13.7761424,10 13.5,10 L6.5,10 C6.22385763,10 6,9.77614237 6,9.5 C6,9.22385763 6.22385763,9 6.5,9 L13.5,9 Z M10.5,6 C10.7761424,6 11,6.22385763 11,6.5 C11,6.77614237 10.7761424,7 10.5,7 L6.5,7 C6.22385763,7 6,6.77614237 6,6.5 C6,6.22385763 6.22385763,6 6.5,6 L10.5,6 Z M13.5,3 C13.7761424,3 14,3.22385763 14,3.5 C14,3.77614237 13.7761424,4 13.5,4 L6.5,4 C6.22385763,4 6,3.77614237 6,3.5 C6,3.22385763 6.22385763,3 6.5,3 L13.5,3 Z" id="形状结合"></path>
            </g>
        </g>
    </g>
</svg>