<?xml version="1.0" encoding="UTF-8"?>
<svg width="16px" height="16px" viewBox="0 0 16 16" version="1.1" xmlns="http://www.w3.org/2000/svg" xmlns:xlink="http://www.w3.org/1999/xlink">
    <title>function icon/collection</title>
    <g id="DevUI风格图标汇总-220907" stroke="none" stroke-width="1" fill="none" fill-rule="evenodd">
        <g id="DevUI-通用图标" transform="translate(-672.000000, -520.000000)" fill="#71757F" fill-rule="nonzero">
            <g id="编组" transform="translate(672.000000, 520.000000)">
                <path d="M4.87867966,2 C5.40911264,2 5.91782046,2.21071368 6.29289322,2.58578644 L6.29289322,2.58578644 L7.41421356,3.70710678 C7.60174994,3.89464316 7.85610385,4 8.12132034,4 L8.12132034,4 L13,4 C14.1045695,4 15,4.8954305 15,6 L15,6 L15,12 C15,13.1045695 14.1045695,14 13,14 L13,14 L3,14 C1.8954305,14 1,13.1045695 1,12 L1,12 L1,4 C1,2.8954305 1.8954305,2 3,2 L3,2 Z M4.87867966,3 L3,3 C2.44771525,3 2,3.44771525 2,4 L2,4 L2,12 C2,12.5522847 2.44771525,13 3,13 L3,13 L13,13 C13.5522847,13 14,12.5522847 14,12 L14,12 L14,6 C14,5.44771525 13.5522847,5 13,5 L13,5 L8.12132034,5 C7.59088736,5 7.08217954,4.78928632 6.70710678,4.41421356 L6.70710678,4.41421356 L5.58578644,3.29289322 C5.39825006,3.10535684 5.14389615,3 4.87867966,3 L4.87867966,3 Z M7.26467642,6.36015257 C7.4651027,5.95404457 7.95679588,5.7873066 8.36290388,5.98773288 C8.52461821,6.06754367 8.65551278,6.19843824 8.73532358,6.36015257 L8.73532358,6.36015257 L9.213,7.329 L10.2834166,7.484908 C10.697109,7.54502103 10.9935156,7.90419453 10.9854481,8.3115916 L10.9854481,8.3115916 L10.9769797,8.41430037 C10.9510476,8.59276273 10.8670082,8.75769951 10.7378716,8.88357656 L10.7378716,8.88357656 L9.963,9.637 L10.1465527,10.7034691 C10.2172198,11.1154899 9.96722013,11.50838 9.57726951,11.6266 L9.57726951,11.6266 L9.47697079,11.6502848 C9.29922953,11.6807699 9.11639571,11.6518118 8.95677412,11.5678938 L8.95677412,11.5678938 L8,11.064 L7.04322588,11.5678938 C6.67577771,11.7610727 6.22855212,11.6476706 5.99424228,11.3186702 L5.99424228,11.3186702 L5.9358384,11.2236657 C5.85192037,11.0640442 5.82296233,10.8812103 5.85344734,10.7034691 L5.85344734,10.7034691 L6.036,9.637 L5.26212842,8.88357656 C4.9648566,8.59380815 4.93450812,8.13342816 5.17500039,7.80891954 L5.17500039,7.80891954 L5.24730719,7.72401617 C5.37318424,7.59487959 5.53812102,7.5108401 5.71658338,7.484908 L5.71658338,7.484908 L6.786,7.329 Z M8,7.129 L7.56669016,8.00775736 C7.49385915,8.1553291 7.35307636,8.25761379 7.19022128,8.28127802 L7.19022128,8.28127802 L6.221,8.422 L6.92242107,9.10548231 C7.01669551,9.19737717 7.06996591,9.32167621 7.07325978,9.45076491 L7.07325978,9.45076491 L7.06621939,9.54804802 L6.901,10.512 L7.76732944,10.0574343 C7.88385905,9.99617105 8.01853591,9.9839184 8.14232443,10.0206763 L8.14232443,10.0206763 L8.23267056,10.0574343 L9.098,10.512 L8.93378061,9.54804802 C8.91152544,9.41829039 8.94148992,9.2864188 9.01470155,9.18004776 L9.01470155,9.18004776 L9.07757893,9.10548231 L9.778,8.422 L8.80977872,8.28127802 C8.67949466,8.26234663 8.56333686,8.19309816 8.48479562,8.09059929 L8.48479562,8.09059929 L8.43330984,8.00775736 L8,7.129 Z" id="形状结合"></path>
            </g>
        </g>
    </g>
</svg>