<?xml version="1.0" encoding="UTF-8"?>
<svg width="16px" height="16px" viewBox="0 0 16 16" version="1.1" xmlns="http://www.w3.org/2000/svg" xmlns:xlink="http://www.w3.org/1999/xlink">
    <title>收起到顶部</title>
    <g id="收起到顶部" stroke="none" stroke-width="1" fill="none" fill-rule="evenodd">
        <path d="M12.5,1.5 C13.6045695,1.5 14.5,2.3954305 14.5,3.5 L14.5,3.5 L14.5,12.5 C14.5,13.6045695 13.6045695,14.5 12.5,14.5 L12.5,14.5 L3.5,14.5 C2.3954305,14.5 1.5,13.6045695 1.5,12.5 L1.5,12.5 L1.5,3.5 C1.5,2.3954305 2.3954305,1.5 3.5,1.5 L3.5,1.5 Z M12.5,2.5 L6.5,2.5 L6.5,4.5 C6.5,5.5543618 5.68412221,6.41816512 4.64926234,6.49451426 L4.5,6.5 L2.5,6.5 L2.5,12.5 C2.5,13.0128358 2.88604019,13.4355072 3.38337887,13.4932723 L3.5,13.5 L12.5,13.5 C13.0522847,13.5 13.5,13.0522847 13.5,12.5 L13.5,12.5 L13.5,3.5 C13.5,2.94771525 13.0522847,2.5 12.5,2.5 L12.5,2.5 Z M11.5,7 C11.7761424,7 12,7.22385763 12,7.5 C12,7.77614237 11.7761424,8 11.5,8 L8.707,8 L11.9748737,11.267767 C12.1701359,11.4630291 12.1701359,11.7796116 11.9748737,11.9748737 C11.7796116,12.1701359 11.4630291,12.1701359 11.267767,11.9748737 L8,8.707 L8,11.5 C8,11.7761424 7.77614237,12 7.5,12 C7.22385763,12 7,11.7761424 7,11.5 L7,7.5 C7,7.22385763 7.22385763,7 7.5,7 L11.5,7 Z M5.5,2.5 L3.5,2.5 C2.94771525,2.5 2.5,2.94771525 2.5,3.5 L2.5,3.5 L2.5,5.5 L4.5,5.5 C5.01283584,5.5 5.43550716,5.11395981 5.49327227,4.61662113 L5.49327227,4.61662113 L5.5,4.5 L5.5,2.5 Z" id="形状结合" fill="#71757F" fill-rule="nonzero"></path>
    </g>
</svg>