<?xml version="1.0" encoding="UTF-8"?>
<svg width="16px" height="16px" viewBox="0 0 16 16" version="1.1" xmlns="http://www.w3.org/2000/svg" xmlns:xlink="http://www.w3.org/1999/xlink">
    <title>function icon/colony</title>
    <g id="图标入库记录" stroke="none" stroke-width="1" fill="none" fill-rule="evenodd">
        <g id="DevUI图标-入库记录230223" transform="translate(-412.000000, -120.000000)" fill="#71757F" fill-rule="nonzero">
            <g id="line" transform="translate(412.000000, 120.000000)">
                <path d="M11.75,8.5669873 C11.9047005,8.4776709 12.0952995,8.4776709 12.25,8.5669873 L12.25,8.5669873 L14.3480762,9.77831216 C14.8121778,10.0462614 15.0980762,10.5414519 15.0980762,11.0773503 L15.0980762,11.0773503 L15.0980762,12.9226497 C15.0980762,13.4585481 14.8121778,13.9537386 14.3480762,14.2216878 L14.3480762,14.2216878 L12.75,15.1443376 C12.2858984,15.4122868 11.7141016,15.4122868 11.25,15.1443376 L11.25,15.1443376 L9.15192379,13.9330127 C8.99722325,13.8436963 8.90192379,13.6786328 8.90192379,13.5 L8.90192379,13.5 L8.90192379,10.5 C8.90192379,10.3213672 8.99722325,10.1563037 9.15192379,10.0669873 L9.15192379,10.0669873 Z M3.75,8.5669873 C3.90470054,8.4776709 4.09529946,8.4776709 4.25,8.5669873 L4.25,8.5669873 L6.84807621,10.0669873 C7.00277675,10.1563037 7.09807621,10.3213672 7.09807621,10.5 L7.09807621,10.5 L7.09807621,13.5 C7.09807621,13.6786328 7.00277675,13.8436963 6.84807621,13.9330127 L6.84807621,13.9330127 L4.75,15.1443376 C4.28589838,15.4122868 3.71410162,15.4122868 3.25,15.1443376 L3.25,15.1443376 L1.65192379,14.2216878 C1.18782217,13.9537386 0.901923789,13.4585481 0.901923789,12.9226497 L0.901923789,12.9226497 L0.901923789,11.0773503 C0.901923789,10.5414519 1.18782217,10.0462614 1.65192379,9.77831216 L1.65192379,9.77831216 Z M12,9.577 L9.901,10.789 L9.901,13.21 L11.75,14.2783122 C11.8789171,14.3527425 12.0327637,14.3651475 12.1699906,14.3155273 L12.1699906,14.3155273 L12.25,14.2783122 L13.8480762,13.3556624 C14.0027767,13.266346 14.0980762,13.1012825 14.0980762,12.9226497 L14.0980762,12.9226497 L14.0980762,11.0773503 C14.0980762,10.8987175 14.0027767,10.733654 13.8480762,10.6443376 L13.8480762,10.6443376 L12,9.577 Z M4,9.577 L2.15192379,10.6443376 C1.99722325,10.733654 1.90192379,10.8987175 1.90192379,11.0773503 L1.90192379,11.0773503 L1.90192379,12.9226497 C1.90192379,13.1012825 1.99722325,13.266346 2.15192379,13.3556624 L2.15192379,13.3556624 L3.75,14.2783122 C3.90470054,14.3676286 4.09529946,14.3676286 4.25,14.2783122 L4.25,14.2783122 L6.098,13.21 L6.098,10.789 L4,9.577 Z M7.25,0.855662433 C7.71410162,0.58771324 8.28589838,0.58771324 8.75,0.855662433 L8.75,0.855662433 L11.2141016,2.27831216 C11.6782032,2.54626136 11.9641016,3.04145188 11.9641016,3.57735027 L11.9641016,3.57735027 L11.9641016,7 C11.9641016,7.17863279 11.8688022,7.3436963 11.7141016,7.4330127 L11.7141016,7.4330127 L8.25,9.4330127 C8.09529946,9.5223291 7.90470054,9.5223291 7.75,9.4330127 L7.75,9.4330127 L4.28589838,7.4330127 C4.13119785,7.3436963 4.03589838,7.17863279 4.03589838,7 L4.03589838,7 L4.03589838,3.57735027 C4.03589838,3.04145188 4.32179677,2.54626136 4.78589838,2.27831216 L4.78589838,2.27831216 Z M8.25,1.72168784 C8.09529946,1.63237144 7.90470054,1.63237144 7.75,1.72168784 L7.75,1.72168784 L5.28589838,3.14433757 C5.13119785,3.23365396 5.03589838,3.39871747 5.03589838,3.57735027 L5.03589838,3.57735027 L5.035,6.71 L8,8.422 L10.964,6.71 L10.9641016,3.57735027 C10.9641016,3.42848961 10.8979214,3.28905206 10.7863356,3.19502017 L10.7863356,3.19502017 L10.7141016,3.14433757 Z" id="形状结合"></path>
            </g>
        </g>
    </g>
</svg>