<?xml version="1.0" encoding="UTF-8"?>
<svg width="16px" height="16px" viewBox="0 0 16 16" version="1.1" xmlns="http://www.w3.org/2000/svg" xmlns:xlink="http://www.w3.org/1999/xlink">
    <title>function icon/comment</title>
    <g id="图标入库记录" stroke="none" stroke-width="1" fill="none" fill-rule="evenodd">
        <g id="语言-图标入库记录230112" transform="translate(-252.000000, -500.000000)" fill="#71757F" fill-rule="nonzero">
            <g id="评论" transform="translate(252.000000, 500.000000)">
                <path d="M13,2 C14.1045695,2 15,2.8954305 15,4 L15,4 L15,11 C15,12.1045695 14.1045695,13 13,13 L13,13 L10.4142136,13 C10.2816053,13 10.1544284,13.0526784 10.0606602,13.1464466 L10.0606602,13.1464466 L8.35355339,14.8535534 C8.15829124,15.0488155 7.84170876,15.0488155 7.64644661,14.8535534 L7.64644661,14.8535534 L5.93933983,13.1464466 C5.84557164,13.0526784 5.71839468,13 5.58578644,13 L5.58578644,13 L3,13 C1.8954305,13 1,12.1045695 1,11 L1,11 L1,4 C1,2.8954305 1.8954305,2 3,2 L3,2 Z M13,3 L3,3 C2.44771525,3 2,3.44771525 2,4 L2,4 L2,11 C2,11.5522847 2.44771525,12 3,12 L3,12 L5.58578644,12 C5.98361117,12 6.36514204,12.1580353 6.64644661,12.4393398 L6.64644661,12.4393398 L8,13.793 L9.35355339,12.4393398 C9.59969489,12.1931983 9.92257215,12.0414349 10.265957,12.00734 L10.265957,12.00734 L10.4142136,12 L13,12 C13.5522847,12 14,11.5522847 14,11 L14,11 L14,4 C14,3.44771525 13.5522847,3 13,3 L13,3 Z M8.05,6.7 C8.4918278,6.7 8.85,7.0581722 8.85,7.5 C8.85,7.9418278 8.4918278,8.3 8.05,8.3 C7.6081722,8.3 7.25,7.9418278 7.25,7.5 C7.25,7.0581722 7.6081722,6.7 8.05,6.7 Z M4.8,6.7 C5.2418278,6.7 5.6,7.0581722 5.6,7.5 C5.6,7.9418278 5.2418278,8.3 4.8,8.3 C4.3581722,8.3 4,7.9418278 4,7.5 C4,7.0581722 4.3581722,6.7 4.8,6.7 Z M11.2,6.7 C11.6418278,6.7 12,7.0581722 12,7.5 C12,7.9418278 11.6418278,8.3 11.2,8.3 C10.7581722,8.3 10.4,7.9418278 10.4,7.5 C10.4,7.0581722 10.7581722,6.7 11.2,6.7 Z" id="形状结合"></path>
            </g>
        </g>
    </g>
</svg>