<?xml version="1.0" encoding="UTF-8"?>
<svg width="16px" height="16px" viewBox="0 0 16 16" version="1.1" xmlns="http://www.w3.org/2000/svg" xmlns:xlink="http://www.w3.org/1999/xlink">
    <title>工具命令生成</title>
    <g id="工具命令生成" stroke="none" stroke-width="1" fill="none" fill-rule="evenodd">
        <path d="M12.5,9 C14.4329966,9 16,10.5670034 16,12.5 C16,14.4329966 14.4329966,16 12.5,16 C10.5670034,16 9,14.4329966 9,12.5 C9,10.5670034 10.5670034,9 12.5,9 Z M12.5,10 C11.1192881,10 10,11.1192881 10,12.5 C10,13.8807119 11.1192881,15 12.5,15 C13.8807119,15 15,13.8807119 15,12.5 C15,11.1192881 13.8807119,10 12.5,10 Z M13.0149598,10.9845804 L13.0850253,11.0414429 L14.0850253,12.013332 C14.2610973,12.1844544 14.2841782,12.4536677 14.1518708,12.6504454 L14.094967,12.7205086 L13.094967,13.7486194 C12.9024298,13.946569 12.5858777,13.9509566 12.3879281,13.7584195 C12.2119729,13.5872753 12.1889556,13.318144 12.3212379,13.1214237 L12.3781281,13.0513806 L12.526,12.899 L11.5,12.9 C11.2238576,12.9 11,12.6761424 11,12.4 C11,12.1545401 11.1768752,11.9503916 11.4101244,11.9080557 L11.5,11.9 L12.533,11.899 L12.3880697,11.7585572 C12.2120469,11.5874825 12.1889233,11.3183604 12.3211279,11.1215878 L12.3779904,11.0515222 C12.549065,10.8754994 12.8181871,10.8523758 13.0149598,10.9845804 Z M12,0.5 C13.3254834,0.5 14.4100387,1.53153594 14.4946823,2.83562431 L14.5,3 L14.5,8.12252458 C14.5,8.39866696 14.2761424,8.62252458 14,8.62252458 C13.7545401,8.62252458 13.5503916,8.44564942 13.5080557,8.21240021 L13.5,8.12252458 L13.5,4 L1.5,4 L1.5,10 C1.5,10.7796961 2.09488808,11.4204487 2.85553999,11.4931334 L3,11.5 L8,11.5 C8.27614237,11.5 8.5,11.7238576 8.5,12 C8.5,12.2454599 8.32312484,12.4496084 8.08987563,12.4919443 L8,12.5 L3,12.5 C1.6745166,12.5 0.589961328,11.4684641 0.50531768,10.1643757 L0.5,10 L0.5,3 C0.5,1.6745166 1.53153594,0.589961328 2.83562431,0.50531768 L3,0.5 L12,0.5 Z M8.72470323,4.65761175 C8.946732,4.76227205 9.05597604,5.00930882 8.99481683,5.23834393 L8.96378194,5.32307502 L6.52157047,10.5040386 C6.40382762,10.7538209 6.10588957,10.8608601 5.8561072,10.7431173 C5.63407842,10.638457 5.52483438,10.3914202 5.58599359,10.1623851 L5.61702848,10.077654 L8.05923995,4.89669047 C8.1769828,4.64690809 8.47492085,4.53986891 8.72470323,4.65761175 Z M4.44916978,6.34729734 C4.6107383,6.53208417 4.61195955,6.80219513 4.46423186,6.98759755 L4.40187425,7.05282065 L3.239,8.069 L4.41988648,9.20877204 C4.59655176,9.37918311 4.62068794,9.64821633 4.4892247,9.84548503 L4.43262626,9.91576404 C4.26221518,10.0924293 3.99318197,10.1165655 3.79591327,9.98510226 L3.72563425,9.92850382 L2.15287389,8.41142147 C1.96550027,8.23068115 1.95125613,7.94183014 2.10525829,7.74447543 L2.17088611,7.67514616 L3.74364648,6.30000182 C3.95153166,6.11823723 4.2674052,6.13941216 4.44916978,6.34729734 Z M10.6812924,5.0865243 L10.7509611,5.14387226 L12.0875087,6.46103027 C12.260672,6.63168154 12.2833875,6.89785932 12.1533212,7.09353122 L12.0973801,7.16327894 L10.7608326,8.55663183 C10.569675,8.75591397 10.253161,8.76250017 10.0538789,8.57134254 C9.87673919,8.40142464 9.85185308,8.13245976 9.98276586,7.93482533 L10.0391682,7.8643888 L11.0355479,6.82751031 L10.0490396,5.85612655 C9.87420976,5.68383298 9.85295661,5.41455667 9.98652528,5.2187074 L10.0438732,5.14903865 C10.2161668,4.97420879 10.4854431,4.95295563 10.6812924,5.0865243 Z M12,1.5 L3,1.5 C2.22030388,1.5 1.57955132,2.09488808 1.50686658,2.85553999 L1.5,3 L13.5,3 C13.5,2.22030388 12.9051119,1.57955132 12.14446,1.50686658 L12,1.5 Z" id="形状结合" fill="#71757F" fill-rule="nonzero"></path>
    </g>
</svg>