<?xml version="1.0" encoding="UTF-8"?>
<svg width="16px" height="16px" viewBox="0 0 16 16" version="1.1" xmlns="http://www.w3.org/2000/svg" xmlns:xlink="http://www.w3.org/1999/xlink">
    <title>icon icon-company-member</title>
    <g id="icon-icon-company-member" stroke="none" stroke-width="1" fill="none" fill-rule="evenodd">
        <g transform="translate(2.500000, 1.000000)" fill="#71757F" fill-rule="nonzero" id="形状结合">
            <path d="M9.25,7.5669873 C9.40470054,7.4776709 9.59529946,7.4776709 9.75,7.5669873 L9.75,7.5669873 L11.9150635,8.8169873 C12.069764,8.9063037 12.1650635,9.07136721 12.1650635,9.25 L12.1650635,9.25 L12.1650635,11.75 C12.1650635,11.9286328 12.069764,12.0936963 11.9150635,12.1830127 L11.9150635,12.1830127 L9.75,13.4330127 C9.59529946,13.5223291 9.40470054,13.5223291 9.25,13.4330127 L9.25,13.4330127 L7.08493649,12.1830127 C6.93023595,12.0936963 6.83493649,11.9286328 6.83493649,11.75 L6.83493649,11.75 L6.83493649,9.25 C6.83493649,9.07136721 6.93023595,8.9063037 7.08493649,8.8169873 L7.08493649,8.8169873 Z M5.5,0 C7.709139,0 9.5,1.790861 9.5,4 C9.5,6.209139 7.709139,8 5.5,8 L5.5,8 C3.01471863,8 1,10.0147186 1,12.5 C1,12.7761424 0.776142375,13 0.5,13 C0.223857625,13 0,12.7761424 0,12.5 C0,10.2017839 1.40959649,8.23279676 3.41138565,7.41044231 C2.26459636,6.70836196 1.5,5.44347151 1.5,4 C1.5,1.790861 3.290861,0 5.5,0 Z M9.5,8.577 L7.834,9.539 L7.834,11.46 L9.5,12.422 L11.165,11.46 L11.165,9.539 L9.5,8.577 Z M9.5,9.75 C9.91421356,9.75 10.25,10.0857864 10.25,10.5 C10.25,10.9142136 9.91421356,11.25 9.5,11.25 C9.08578644,11.25 8.75,10.9142136 8.75,10.5 C8.75,10.0857864 9.08578644,9.75 9.5,9.75 Z M5.5,1 C3.84314575,1 2.5,2.34314575 2.5,4 C2.5,5.65685425 3.84314575,7 5.5,7 C7.15685425,7 8.5,5.65685425 8.5,4 C8.5,2.34314575 7.15685425,1 5.5,1 Z"></path>
        </g>
    </g>
</svg>