<?xml version="1.0" encoding="UTF-8"?>
<svg width="16px" height="16px" viewBox="0 0 16 16" version="1.1" xmlns="http://www.w3.org/2000/svg" xmlns:xlink="http://www.w3.org/1999/xlink">
    <title>connector接口</title>
    <g id="connector接口" stroke="none" stroke-width="1" fill="none" fill-rule="evenodd">
        <path d="M11.4004192,4 C11.7611189,4 12.1068185,4.14434489 12.3604192,4.40084248 L12.3604192,4.40084248 L14.6004192,6.60084248 C15.1390388,7.10717542 15.1745692,7.9510245 14.6804192,8.50084248 L14.6804192,8.50084248 L12.4804192,10.7308425 C12.2201437,11.0028906 11.8567591,11.1518783 11.4804192,11.1408425 C11.1079152,11.152268 10.746832,11.0114456 10.4804192,10.7508425 L10.4804192,10.7508425 L9.16041919,9.44084248 C9.06635512,9.34867889 9.01334775,9.22253217 9.01334775,9.09084248 C9.01334775,8.95915278 9.06635512,8.83300607 9.16041919,8.74084248 C9.25430249,8.64618615 9.38210042,8.59294332 9.51541919,8.59294332 C9.64873796,8.59294332 9.77653589,8.64618615 9.87041919,8.74084248 L9.87041919,8.74084248 L11.2004192,10.0408425 C11.2710263,10.1014482 11.3580343,10.1397317 11.4504192,10.1508425 C11.5438754,10.1438264 11.6321072,10.1050044 11.7004192,10.0408425 L11.7004192,10.0408425 L13.9004192,7.81084248 C14.0314383,7.66608659 14.0314383,7.44559836 13.9004192,7.30084248 L13.9004192,7.30084248 L11.6504192,5.12084248 C11.5109354,4.98622471 11.2899029,4.98622471 11.1504192,5.12084248 L11.1504192,5.12084248 L8.35041919,7.96084248 L5.59041919,10.7808425 C5.32735613,11.0487727 4.96585359,11.1969887 4.59041919,11.1908425 C4.23474116,11.1910263 3.89334577,11.0509126 3.64041919,10.8008425 L3.64041919,10.8008425 L1.40041919,8.60084248 C1.15619892,8.35942424 1.01315972,8.03401005 1.00041919,7.69084248 C0.991284244,7.31873669 1.13177147,6.95851303 1.39041919,6.69084248 L1.39041919,6.69084248 L3.51041919,4.46084248 C3.77280568,4.19190752 4.13476129,4.04350572 4.51041919,4.05084248 L4.51041919,4.05084248 L4.64932681,4.05400315 C4.97142283,4.077594 5.27675245,4.21367698 5.51041919,4.44084248 L5.51041919,4.44084248 L7.00041919,5.90084248 C7.09448326,5.99300607 7.14749063,6.11915278 7.14749063,6.25084248 C7.14749063,6.38253217 7.09448326,6.50867889 7.00041919,6.60084248 C6.90653589,6.6954988 6.77873796,6.74874164 6.64541919,6.74874164 C6.51210042,6.74874164 6.38430249,6.6954988 6.29041919,6.60084248 L6.29041919,6.60084248 L4.80041919,5.16084248 C4.73458806,5.09365386 4.64448326,5.05579145 4.55041919,5.05579145 C4.45635512,5.05579145 4.36625032,5.09365386 4.30041919,5.16084248 L4.30041919,5.16084248 L2.10041919,7.39084248 C2.03254672,7.45993933 1.99634163,7.55407254 2.00041919,7.65084248 C2.00282274,7.74538991 2.04233648,7.83519387 2.11041919,7.90084248 L2.11041919,7.90084248 L4.35041919,10.0908425 C4.48990294,10.2254602 4.71093544,10.2254602 4.85041919,10.0908425 L4.85041919,10.0908425 L7.65041919,7.25084248 L10.4404192,4.40084248 C10.6940198,4.14434489 11.0397194,4 11.4004192,4 Z M11.5497121,6.73572488 L12.2921742,7.478187 C12.3585634,7.54457613 12.3585634,7.65221417 12.2921742,7.7186033 L11.5497121,8.46106542 C11.483323,8.52745455 11.3756849,8.52745455 11.3092958,8.46106542 L10.5668337,7.7186033 C10.5004445,7.65221417 10.5004445,7.54457613 10.5668337,7.478187 L11.3092958,6.73572488 C11.3756849,6.66933575 11.483323,6.66933575 11.5497121,6.73572488 Z" id="形状结合" fill="#252B3A" fill-rule="nonzero"></path>
    </g>
</svg>