<?xml version="1.0" encoding="UTF-8"?>
<svg width="16px" height="16px" viewBox="0 0 16 16" version="1.1" xmlns="http://www.w3.org/2000/svg" xmlns:xlink="http://www.w3.org/1999/xlink">
    <title>icon icon-console</title>
    <g id="icon-icon-console" stroke="none" stroke-width="1" fill="none" fill-rule="evenodd">
        <g transform="translate(1.000000, 1.500000)" fill="#71757F" id="形状结合">
            <path d="M12,0 C13.1045695,0 14,0.8954305 14,2 L14,8 C14,9.1045695 13.1045695,10 12,10 L7.5,10 L7.5,12 L12.5,12 C12.7761424,12 13,12.2238576 13,12.5 C13,12.7761424 12.7761424,13 12.5,13 L1.5,13 C1.22385763,13 1,12.7761424 1,12.5 C1,12.2238576 1.22385763,12 1.5,12 L6.5,12 L6.5,10 L2,10 C0.8954305,10 0,9.1045695 0,8 L0,2 C0,0.8954305 0.8954305,0 2,0 L12,0 Z M12,1 L2,1 C1.44771525,1 1,1.44771525 1,2 L1,8 C1,8.55228475 1.44771525,9 2,9 L12,9 C12.5522847,9 13,8.55228475 13,8 L13,2 C13,1.44771525 12.5522847,1 12,1 Z M11.8218149,2.71488814 C11.9908235,2.89289553 12.0031179,3.16272932 11.8631157,3.35403247 L11.8034845,3.42175729 L8.3068374,6.74163982 C8.13860598,6.90136671 7.88687786,6.92190104 7.69717115,6.80288424 L7.62008975,6.74333204 L5.711,4.949 L3.23950157,7.41333305 C3.06562981,7.58659345 2.79617186,7.60540407 2.60154177,7.47006502 L2.53239589,7.41208771 C2.35913549,7.23821594 2.34032487,6.96875799 2.47566392,6.77412791 L2.53364123,6.70498202 L5.34896355,3.8995589 C5.5161845,3.73292593 5.77269318,3.70866933 5.96589299,3.829009 L6.04437197,3.88944244 L7.961,5.69 L11.1149457,2.69655778 C11.3152041,2.50642304 11.6316802,2.51462983 11.8218149,2.71488814 Z"></path>
        </g>
    </g>
</svg>