<?xml version="1.0" encoding="UTF-8"?>
<svg width="16px" height="16px" viewBox="0 0 16 16" version="1.1" xmlns="http://www.w3.org/2000/svg" xmlns:xlink="http://www.w3.org/1999/xlink">
    <title>Construct-product构建产物</title>
    <g id="Construct-product构建产物" stroke="none" stroke-width="1" fill="none" fill-rule="evenodd">
        <path d="M6.43,1.42001887 C7.38745555,0.859993711 8.57254445,0.859993711 9.53,1.42001887 L9.53,1.42001887 L12.91,3.37001887 C13.8647104,3.9259275 14.4542547,4.94526849 14.46,6.05001887 L14.46,6.05001887 L14.41,9.98001887 C14.40618,10.2859121 14.3555951,10.5894215 14.26,10.8800189 C14.098959,11.5750429 13.6573089,12.1723566 13.04,12.5300189 L13.04,12.5300189 L13.005625,12.5583001 C12.97375,12.5906439 12.9475,12.6300189 12.91,12.6300189 L12.91,12.6300189 L9.53,14.5800189 C9.05993834,14.8555139 8.52484423,15.0006048 7.98,15.0000189 C7.42826394,15.0106607 6.88341318,14.8761723 6.4,14.6100189 L6.4,14.6100189 L3.02,12.6100189 L2.87,12.5000189 L2.71051651,12.4012147 C2.19291908,12.0536846 1.81794386,11.5275652 1.66,10.9200189 C1.55679982,10.6241433 1.50275123,10.3133638 1.5,10.0000189 L1.5,10.0000189 L1.5,6.05001887 C1.52321016,4.9631894 2.11043944,3.96679392 3.05,3.42001887 L3.05,3.42001887 Z M10.29,3.00001887 L9.29,3.57001887 C8.48611379,4.03653673 7.49388621,4.03653673 6.69,3.57001887 L6.69,3.57001887 L5.69,3.00001887 L3.5,4.23001887 C2.87053857,4.61931582 2.4910663,5.30995536 2.5,6.05001887 L2.5,6.05001887 L2.5,8.56001887 L3.5,9.14001887 C4.30392755,9.6041664 4.79940505,10.4617236 4.8,11.3900189 L4.8,11.3900189 L4.8,12.4900189 L6.93,13.6800189 C7.58135822,14.0490676 8.37864178,14.0490676 9.03,13.6800189 L9.03,13.6800189 L11.18,12.4900189 L11.18,11.3900189 C11.180595,10.4617236 11.6760725,9.6041664 12.48,9.14001887 L12.48,9.14001887 L13.48,8.57001887 L13.48,6.05001887 C13.4784284,5.2998306 13.0786549,4.60688988 12.43,4.23001887 L12.43,4.23001887 L10.29,3.00001887 Z M10.9409231,5.86064547 L11.0380834,5.87614842 C11.1662102,5.91006434 11.2751326,5.99443778 11.34,6.11001887 C11.477485,6.35071644 11.3975445,6.65715506 11.16,6.80001887 L11.16,6.80001887 L8.48,8.34001887 L8.48,11.4300189 C8.48,11.7061612 8.25614237,11.9300189 7.98,11.9300189 C7.70385763,11.9300189 7.48,11.7061612 7.48,11.4300189 L7.48,11.4300189 L7.48,8.34001887 L4.8,6.79001887 C4.59263893,6.63921431 4.53295624,6.35599644 4.6618278,6.13433735 C4.79069936,5.91267827 5.06635419,5.82442407 5.3,5.93001887 L5.3,5.93001887 L7.98,7.48001887 L10.66,5.93001887 C10.7735554,5.86166734 10.9099566,5.84223251 11.0380834,5.87614842 Z M2.57,9.76001887 L2.57,10.2500189 C2.56536226,10.3707915 2.57543628,10.4916797 2.6,10.6100189 C2.74343917,11.0331639 3.01630935,11.4004892 3.38,11.6600189 L3.38,11.6600189 L3.78,11.8800189 L3.78,11.3900189 C3.77548204,10.8184698 3.47192779,10.2910443 2.98,10.0000189 L2.98,10.0000189 L2.57,9.76001887 Z M13.41,9.76001887 L12.98,10.0000189 C12.4923276,10.278683 12.182482,10.7887947 12.16,11.3500189 L12.16,11.3500189 L12.16,11.8400189 L12.54,11.6300189 L12.54,11.6700189 C12.9408275,11.4154334 13.2465943,11.0358608 13.41,10.5900189 C13.4203801,10.4769232 13.4203801,10.3631145 13.41,10.2500189 L13.41,10.2500189 L13.41,9.76001887 Z M8.78,2.21001887 C8.28335508,1.9302536 7.67664492,1.9302536 7.18,2.21001887 L7.18,2.21001887 L6.75,2.46001887 L7.18,2.71001887 C7.67664492,2.98978414 8.28335508,2.98978414 8.78,2.71001887 L8.78,2.71001887 L9.21,2.46001887 Z" id="形状结合" fill="#252B3A" fill-rule="nonzero"></path>
    </g>
</svg>