<?xml version="1.0" encoding="UTF-8"?>
<svg width="16px" height="16px" viewBox="0 0 16 16" version="1.1" xmlns="http://www.w3.org/2000/svg" xmlns:xlink="http://www.w3.org/1999/xlink">
    <title>function icon/container</title>
    <g id="图标入库记录" stroke="none" stroke-width="1" fill="none" fill-rule="evenodd">
        <g id="DevUI图标-入库记录230223" transform="translate(-333.000000, -440.000000)" fill="#71757F" fill-rule="nonzero">
            <g id="编组-13备份" transform="translate(333.000000, 440.000000)">
                <path d="M13,1 C14.1045695,1 15,1.8954305 15,3 L15,13 C15,14.1045695 14.1045695,15 13,15 L3,15 C1.8954305,15 1,14.1045695 1,13 L1,3 C1,1.8954305 1.8954305,1 3,1 L13,1 Z M13,2 L3,2 C2.48716416,2 2.06449284,2.38604019 2.00672773,2.88337887 L2,3 L2,13 C2,13.5128358 2.38604019,13.9355072 2.88337887,13.9932723 L3,14 L13,14 C13.5128358,14 13.9355072,13.6139598 13.9932723,13.1166211 L14,13 L14,3 C14,2.48716416 13.6139598,2.06449284 13.1166211,2.00672773 L13,2 Z M4.5,4 C4.77614237,4 5,4.22385763 5,4.5 L5,11.5 C5,11.7761424 4.77614237,12 4.5,12 C4.22385763,12 4,11.7761424 4,11.5 L4,4.5 C4,4.22385763 4.22385763,4 4.5,4 Z M8,4 C8.27614237,4 8.5,4.22385763 8.5,4.5 L8.5,11.5 C8.5,11.7761424 8.27614237,12 8,12 C7.72385763,12 7.5,11.7761424 7.5,11.5 L7.5,4.5 C7.5,4.22385763 7.72385763,4 8,4 Z M11.5,4 C11.7761424,4 12,4.22385763 12,4.5 L12,11.5 C12,11.7761424 11.7761424,12 11.5,12 C11.2238576,12 11,11.7761424 11,11.5 L11,4.5 C11,4.22385763 11.2238576,4 11.5,4 Z" id="形状结合"></path>
            </g>
        </g>
    </g>
</svg>