<?xml version="1.0" encoding="UTF-8"?>
<svg width="16px" height="16px" viewBox="0 0 16 16" version="1.1" xmlns="http://www.w3.org/2000/svg" xmlns:xlink="http://www.w3.org/1999/xlink">
    <title>function icon/course</title>
    <g id="图标入库记录" stroke="none" stroke-width="1" fill="none" fill-rule="evenodd">
        <g id="DevUI图标-入库记录230223" transform="translate(-732.000000, -120.000000)" fill="#71757F" fill-rule="nonzero">
            <g id="编组" transform="translate(732.000000, 120.000000)">
                <path d="M4.5,15 C4.22385763,15 4,14.7761424 4,14.5 C4,14.2238576 4.22385763,14 4.5,14 L7.5,14 L7.5,12 L3,12 C1.9456382,12 1.08183488,11.1841222 1.00548574,10.1492623 L1,10 L1,3 C1,1.9456382 1.81587779,1.08183488 2.85073766,1.00548574 L3,1 L13,1 C14.0543618,1 14.9181651,1.81587779 14.9945143,2.85073766 L15,3 L15,10 C15,11.0543618 14.1841222,11.9181651 13.1492623,11.9945143 L13,12 L8.5,12 L8.5,14 L11.5,14 C11.7761424,14 12,14.2238576 12,14.5 C12,14.7761424 11.7761424,15 11.5,15 L4.5,15 Z M13,2 L3,2 C2.48716416,2 2.06449284,2.38604019 2.00672773,2.88337887 L2,3 L2,10 C2,10.5128358 2.38604019,10.9355072 2.88337887,10.9932723 L3,11 L13,11 C13.5128358,11 13.9355072,10.6139598 13.9932723,10.1166211 L14,10 L14,3 C14,2.44771525 13.5522847,2 13,2 Z M9.5,9 C9.77614237,9 10,9.22385763 10,9.5 C10,9.77614237 9.77614237,10 9.5,10 L5.5,10 C5.22385763,10 5,9.77614237 5,9.5 C5,9.22385763 5.22385763,9 5.5,9 L9.5,9 Z M3.5,9 C3.77614237,9 4,9.22385763 4,9.5 C4,9.77614237 3.77614237,10 3.5,10 C3.22385763,10 3,9.77614237 3,9.5 C3,9.22385763 3.22385763,9 3.5,9 Z M12.5,9 C12.7761424,9 13,9.22385763 13,9.5 C13,9.77614237 12.7761424,10 12.5,10 L11.5,10 C11.2238576,10 11,9.77614237 11,9.5 C11,9.22385763 11.2238576,9 11.5,9 L12.5,9 Z M7.36760172,3.16072351 L7.42399915,3.23500053 L9.451,6.479 L10.0527864,5.2763932 L10.1021699,5.19710296 C10.1769495,5.0988657 10.2856871,5.03165783 10.4069957,5.00870418 L10.5,4.99999324 L12.5,4.99999324 L12.5898756,5.00805567 C12.7939687,5.04509963 12.9549004,5.20603131 12.9919443,5.41011984 L13,5.49999324 L12.9919443,5.58987563 C12.9549004,5.79396869 12.7939687,5.95489519 12.5898756,5.99193786 L12.5,5.99999324 L10.81,5.99999324 L9.9472136,7.7236068 L9.89734119,7.80410974 C9.71152919,8.04970593 9.34154077,8.06728466 9.13328101,7.84041143 L9.07600085,7.76499947 L6.963,4.382 L5.9,5.8 L5.83724831,5.86914672 C5.7687579,5.93172008 5.68412132,5.97403457 5.59296839,5.99128098 L5.5,5.99999324 L3.5,5.99999324 L3.41012437,5.99194433 C3.20603131,5.95490037 3.04509963,5.79396869 3.00805567,5.5898711 L3,5.49999324 L3.00805567,5.41012437 C3.04509963,5.20603131 3.20603131,5.04509446 3.41012437,5.0080492 L3.5,4.99999324 L5.25,4.99999324 L6.6,3.2 L6.66249297,3.13077301 C6.86400591,2.94525261 7.18254673,2.95878309 7.36760172,3.16072351 Z" id="形状结合"></path>
            </g>
        </g>
    </g>
</svg>