<?xml version="1.0" encoding="UTF-8"?>
<svg width="16px" height="16px" viewBox="0 0 16 16" version="1.1" xmlns="http://www.w3.org/2000/svg" xmlns:xlink="http://www.w3.org/1999/xlink">
    <title>icon_custom_checkpoint</title>
    <g id="icon_custom_checkpoint" stroke="none" stroke-width="1" fill="none" fill-rule="evenodd">
        <path d="M4.67570656,2.70376683 L4.73674602,2.73373745 L13.6646626,7.88866667 L13.6654147,3.16768603 C13.6654147,2.89154365 13.8892724,2.66768603 14.1654147,2.66768603 C14.4185452,2.66768603 14.627742,2.85578861 14.6608503,3.09983899 L14.6654147,3.16768603 L14.6654147,12.8343527 C14.6654147,13.1104951 14.4415571,13.3343527 14.1654147,13.3343527 C13.9122842,13.3343527 13.7030874,13.1462501 13.6699791,12.9021997 L13.6654147,12.8343527 L13.6646626,9.04266667 L4.23674602,3.59976286 C3.99759971,3.46169167 3.91566213,3.15589647 4.05373332,2.91675015 C4.18029858,2.6975327 4.44779859,2.61041426 4.67570656,2.70376683 Z M4.66431607,4.69441943 C4.94045845,4.69441943 5.16431607,4.91827705 5.16431607,5.19441943 C5.16431607,5.42594696 5.00695001,5.62071968 4.79334262,5.67761285 L4.26872991,5.81139115 C4.24289239,5.81841981 4.21888469,5.82508342 4.19670829,5.83138974 C3.99503008,5.8887411 3.8282175,6.02731778 3.73504734,6.20857845 L3.69973904,6.28876254 L3.67681088,6.36091804 L3.221,8.08041943 L3.56839621,8.03653244 C4.66012133,7.91084934 5.74790458,7.84799202 6.8316582,7.84799202 C7.81398975,7.84799202 8.82482253,7.89963488 9.86415125,8.00284425 L10.5652649,8.07976968 C10.83944,8.11267253 11.0350299,8.36160843 11.002127,8.63578358 C10.9692242,8.90995873 10.7202883,9.10554858 10.4461131,9.07264573 L10.272148,9.05222169 C9.0857017,8.91602815 7.93887457,8.84799202 6.8316582,8.84799202 C5.57708039,8.84799202 4.31642394,8.93534342 3.04954486,9.1100997 C2.64006521,9.16659073 2.33858669,9.51281089 2.33022657,9.91754535 L2.33298908,10.0050855 L2.52741471,12.3290194 L3.25474804,12.3290194 L3.36344967,12.0392142 C3.42847115,11.8656914 3.5831259,11.7442147 3.76310469,11.7193621 L3.8316582,11.7146587 L9.89832486,11.7146587 C10.0725053,11.7146587 10.2321669,11.8050652 10.3225336,11.9499644 L10.3568599,12.0152956 L10.4927481,12.327686 L11.2527481,12.327686 L11.5192048,10.0394529 C11.5340732,9.91157541 11.5195993,9.78532138 11.4782089,9.66763127 L11.4421572,9.58107786 C11.3218234,9.33253333 11.4257587,9.03349835 11.6743033,8.91316453 C11.9228478,8.79283072 12.2218828,8.89676604 12.3422166,9.14531057 C12.4740215,9.41754825 12.53672,9.7182999 12.5230621,10.0237998 L12.5125126,10.1549497 L12.1949786,12.8857424 C12.1683293,13.1149261 11.9894282,13.2929077 11.7664368,13.3233739 L11.6983249,13.327992 L10.1649916,13.327992 C9.99081115,13.327992 9.83114954,13.2375855 9.74078284,13.0926863 L9.7064565,13.0273551 L9.57008137,12.7143527 L4.17808137,12.7143527 L4.06964392,13.0044985 C4.00462244,13.1780212 3.84996769,13.299498 3.6699889,13.3243505 L3.60143539,13.3290539 L2.06747995,13.3290539 C1.83113168,13.3290539 1.63063433,13.1643926 1.57985029,12.9398049 L1.56922034,12.8707355 L1.33646985,10.0884487 C1.28112278,9.42683275 1.58500952,8.81447063 2.08964406,8.44931322 L2.71008826,6.1050912 C2.86809143,5.50802625 3.32911772,5.03845963 3.92318224,4.86952514 L4.19168392,4.79788432 L4.51087658,4.71840359 C4.55922543,4.70283069 4.61078848,4.69441943 4.66431607,4.69441943 Z M7.9516582,9.98132533 C8.22780057,9.98132533 8.4516582,10.205183 8.4516582,10.4813253 C8.4516582,10.7344559 8.26355561,10.9436527 8.01950523,10.9767609 L7.9516582,10.9813253 L5.9516582,10.9813253 C5.67551582,10.9813253 5.4516582,10.7574677 5.4516582,10.4813253 C5.4516582,10.2281948 5.63976078,10.018998 5.88381116,9.98588976 L5.9516582,9.98132533 L7.9516582,9.98132533 Z M4.28499153,9.98132533 C4.5611339,9.98132533 4.78499153,10.205183 4.78499153,10.4813253 C4.78499153,10.7344559 4.59688894,10.9436527 4.35283857,10.9767609 L4.28499153,10.9813253 L3.61832486,10.9813253 C3.34218249,10.9813253 3.11832486,10.7574677 3.11832486,10.4813253 C3.11832486,10.2281948 3.30642745,10.018998 3.55047782,9.98588976 L3.61832486,9.98132533 L4.28499153,9.98132533 Z M10.2849916,9.98132533 C10.5611339,9.98132533 10.7849916,10.205183 10.7849916,10.4813253 C10.7849916,10.7344559 10.596889,10.9436527 10.3528386,10.9767609 L10.2849916,10.9813253 L9.61832486,10.9813253 C9.34218249,10.9813253 9.11832486,10.7574677 9.11832486,10.4813253 C9.11832486,10.2281948 9.30642745,10.018998 9.55047782,9.98588976 L9.61832486,9.98132533 L10.2849916,9.98132533 Z" id="形状结合" fill="#71757F" fill-rule="nonzero"></path>
    </g>
</svg>