<?xml version="1.0" encoding="UTF-8"?>
<svg width="16px" height="16px" viewBox="0 0 16 16" version="1.1" xmlns="http://www.w3.org/2000/svg" xmlns:xlink="http://www.w3.org/1999/xlink">
    <title>剪切</title>
    <g id="资源库" stroke="none" stroke-width="1" fill="none" fill-rule="evenodd">
        <g id="画板" transform="translate(-539.000000, -1446.000000)" fill="#71757F" fill-rule="nonzero">
            <g id="编组" transform="translate(539.000000, 1446.000000)">
                <path d="M3.21274087,2.09075412 C3.43876113,1.93210528 3.75059705,1.98672061 3.90924588,2.21274087 L3.90924588,2.21274087 L7.999,8.03895763 L12.0907541,2.21274087 C12.249403,1.98672061 12.5612389,1.93210528 12.7872591,2.09075412 C12.988166,2.23177531 13.0536419,2.4938332 12.9542876,2.70906854 L12.9092459,2.78725913 L8.611,8.90995763 L10.186842,11.1548055 C10.4854343,10.5153503 11.112347,10.0599633 11.8507388,10.0054858 L12,10 C13.104568,10 14,10.89544 14,12 C14,13.10456 13.104568,14 12,14 C11.3429013,14 10.7598105,13.6831023 10.3952219,13.1938012 L10.3907541,13.1872591 L8,9.78095763 L5.60924588,13.1872591 C5.24018947,13.6831023 4.65709869,14 4,14 C2.895432,14 2,13.10456 2,12 C2,10.89544 2.895432,10 4,10 C4.80251305,10 5.49463828,10.4726744 5.81315803,11.1548055 L7.388,8.90995763 L3.09075412,2.78725913 L3.04571242,2.70906854 C2.94635813,2.4938332 3.01183397,2.23177531 3.21274087,2.09075412 Z M4,11 C3.44772013,11 3,11.4477214 3,12 C3,12.5522786 3.44772013,13 4,13 C4.55227525,13 5,12.5522753 5,12 C5,11.4477247 4.55227525,11 4,11 Z M12,11 C11.4477247,11 11,11.4477247 11,12 C11,12.5522753 11.4477247,13 12,13 C12.5522799,13 13,12.5522786 13,12 C13,11.4477214 12.5522799,11 12,11 Z" id="形状结合"></path>
            </g>
        </g>
    </g>
</svg>