<?xml version="1.0" encoding="UTF-8"?>
<svg width="16px" height="16px" viewBox="0 0 16 16" version="1.1" xmlns="http://www.w3.org/2000/svg" xmlns:xlink="http://www.w3.org/1999/xlink">
    <title>database</title>
    <g id="database" stroke="none" stroke-width="1" fill="none" fill-rule="evenodd">
        <path d="M9,1.07735027 L13.4951905,3.67264973 C14.1139927,4.02991532 14.4951905,4.69016936 14.4951905,5.40470054 L14.4951905,10.5952995 C14.4951905,11.3098306 14.1139927,11.9700847 13.4951905,12.3273503 L9,14.9226497 C8.38119785,15.2799153 7.61880215,15.2799153 7,14.9226497 L2.50480947,12.3273503 C1.88600732,11.9700847 1.50480947,11.3098306 1.50480947,10.5952995 L1.50480947,5.40470054 C1.50480947,4.69016936 1.88600732,4.02991532 2.50480947,3.67264973 L7,1.07735027 C7.61880215,0.720084679 8.38119785,0.720084679 9,1.07735027 Z M7.61911042,1.88476179 L7.5,1.94337567 L3.00480947,4.53867513 C2.72978629,4.69745984 2.54863148,4.97594369 2.5117702,5.28678772 L2.50480947,5.40470054 L2.50480947,10.5952995 C2.50480947,10.9128689 2.65540615,11.2089955 2.90617435,11.3963403 L3.00480947,11.4613249 L7.5,14.0566243 C7.77072594,14.212928 8.09642129,14.232466 8.38088958,14.1152382 L8.5,14.0566243 L12.9951905,11.4613249 C13.2702137,11.3025402 13.4513685,11.0240563 13.4882298,10.7132123 L13.4951905,10.5952995 L13.4951905,5.40470054 C13.4951905,5.08713113 13.3445938,4.79100453 13.0938257,4.60365971 L12.9951905,4.53867513 L8.5,1.94337567 C8.22927406,1.78707198 7.90357871,1.76753402 7.61911042,1.88476179 Z M8,3.5 C10.1809462,3.5 12,4.27959448 12,5.5 L12,5.5 L12,10.5 C12,11.7204055 10.1809462,12.5 8,12.5 C5.89425884,12.5 4.1258823,11.7732437 4.00642915,10.6246625 L4,10.5 L4,5.5 L4.00642915,5.3753375 C4.1258823,4.22675633 5.89425884,3.5 8,3.5 Z M8,10 C6.81512616,10 5.73706771,9.76989658 4.99948719,9.36401524 L5,10.5 C5,10.9364487 6.31495295,11.5 8,11.5 C9.61178413,11.5 10.8849567,10.9843879 10.9926205,10.5575921 L11,10.5 L11.0012597,9.36360413 C10.2636601,9.7697412 9.18527382,10 8,10 Z M6.5,9.96 C6.77614237,9.96 7,10.1838576 7,10.46 C7,10.7361424 6.77614237,10.96 6.5,10.96 C6.22385763,10.96 6,10.7361424 6,10.46 C6,10.1838576 6.22385763,9.96 6.5,9.96 Z M11.0012597,6.86360413 C10.2636601,7.2697412 9.18527382,7.5 8,7.5 C6.81512616,7.5 5.73706771,7.26989658 4.99948719,6.86401524 L5,8 C5,8.43644873 6.31495295,9 8,9 C9.61178413,9 10.8849567,8.48438788 10.9926205,8.05759214 L11,8 Z M6.5,7.6 C6.77614237,7.6 7,7.82385763 7,8.1 C7,8.37614237 6.77614237,8.6 6.5,8.6 C6.22385763,8.6 6,8.37614237 6,8.1 C6,7.82385763 6.22385763,7.6 6.5,7.6 Z M8,4.5 C6.31495295,4.5 5,5.06355127 5,5.5 C5,5.93644873 6.31495295,6.5 8,6.5 C9.68504705,6.5 11,5.93644873 11,5.5 C11,5.06355127 9.68504705,4.5 8,4.5 Z" id="å½¢çŠ¶ç»“åˆ" fill="#71757F" fill-rule="nonzero"></path>
    </g>
</svg>