<svg xmlns:xlink="http://www.w3.org/1999/xlink" xmlns="http://www.w3.org/2000/svg" version="1.1" viewBox="0 0 16 16" height="16px" width="16px">
      <title>自助取数</title>
      <g fill-rule="evenodd" fill="none" stroke-width="1" stroke="none" id="自助取数">
          <path fill="#71757F" id="形状结合" d="M11.2290875,2 C11.7823663,2 12.26528,2.3628439 12.4244677,2.88440867 L12.4504599,2.98401224 L13.9552156,9.89360489 L13.9644098,9.95261894 C13.9799159,10.0161601 13.9905651,10.0816047 13.9959416,10.1485373 L14,10.25 L14,12.75 C14,13.3972087 13.5081253,13.9295339 12.8778052,13.9935464 L12.75,14 L3.25,14 C2.60279131,14 2.0704661,13.5081253 2.00645361,12.8778052 L2,12.75 L2,10.25 C2,10.1511209 2.01148087,10.0549233 2.03318229,9.96266751 C2.03464881,9.96289247 2.03472638,9.96188106 2.03480707,9.96086936 L2.04478438,9.89360489 L3.54954011,2.98401224 C3.66727242,2.44340472 4.12456575,2.04876037 4.66805918,2.00420224 L4.7709125,2 L11.2290875,2 Z M12.75,10 L3.25,10 C3.13165327,10 3.03251318,10.0822334 3.00660268,10.1926773 L3,10.25 L3,12.75 C3,12.8683467 3.08223341,12.9674868 3.19267729,12.9933973 L3.25,13 L12.75,13 C12.8683467,13 12.9674868,12.9177666 12.9933973,12.8073227 L13,12.75 L13,10.25 C13,10.1119288 12.8880712,10 12.75,10 Z M4.5,10.6666667 C4.75313051,10.6666667 4.96232731,10.8547693 4.99543559,11.0988196 L5,11.1666667 L5,11.8333333 C5,12.1094757 4.77614237,12.3333333 4.5,12.3333333 C4.24686949,12.3333333 4.03767269,12.1452307 4.00456441,11.9011804 L4,11.8333333 L4,11.1666667 C4,10.8905243 4.22385763,10.6666667 4.5,10.6666667 Z M6.16666667,10.6666667 C6.41979718,10.6666667 6.62899397,10.8547693 6.66210226,11.0988196 L6.66666667,11.1666667 L6.66666667,11.8333333 C6.66666667,12.1094757 6.44280904,12.3333333 6.16666667,12.3333333 C5.91353616,12.3333333 5.70433936,12.1452307 5.67123108,11.9011804 L5.66666667,11.8333333 L5.66666667,11.1666667 C5.66666667,10.8905243 5.89052429,10.6666667 6.16666667,10.6666667 Z M7.83333333,10.6666667 C8.08646384,10.6666667 8.29566064,10.8547693 8.32876892,11.0988196 L8.33333333,11.1666667 L8.33333333,11.8333333 C8.33333333,12.1094757 8.10947571,12.3333333 7.83333333,12.3333333 C7.58020282,12.3333333 7.37100603,12.1452307 7.33789774,11.9011804 L7.33333333,11.8333333 L7.33333333,11.1666667 C7.33333333,10.8905243 7.55719096,10.6666667 7.83333333,10.6666667 Z M11.5,10.6315104 C11.7761424,10.6315104 12,10.855368 12,11.1315104 L12,11.1315104 L12,11.7981771 C12,12.0743195 11.7761424,12.2981771 11.5,12.2981771 L11.5,12.2981771 L10.1666667,12.2981771 C9.89052429,12.2981771 9.66666667,12.0743195 9.66666667,11.7981771 L9.66666667,11.7981771 L9.66666667,11.1315104 C9.66666667,10.855368 9.89052429,10.6315104 10.1666667,10.6315104 L10.1666667,10.6315104 Z M11.2290875,3 L4.7709125,3 C4.67013673,3 4.58103311,3.06018858 4.54187674,3.14972901 L4.52663802,3.19680245 L3.262,9 L12.737,9 L11.473362,3.19680245 C11.4519179,3.09833465 11.3741474,3.02407924 11.2783255,3.00487295 L11.2290875,3 Z M6.76239069,5.87603015 L6.82155615,5.92627813 L6.86728746,5.97925173 C6.98923759,6.14360899 6.99074315,6.36919462 6.87180413,6.53506369 L6.82155615,6.59422916 L6.80271591,6.61291379 L10.3847355,6.61346652 L10.4477105,6.61777817 C10.6782467,6.6490531 10.8570482,6.84666571 10.8570482,7.08577922 C10.8570482,7.32489273 10.6782467,7.52250534 10.4477105,7.55378026 L10.3847355,7.55809192 L6.80019691,7.5575392 L6.82155615,7.57937259 L6.86728746,7.63234619 C7.00448136,7.81724811 6.98923759,8.07964218 6.82155615,8.24732362 C6.65387471,8.41500506 6.39148065,8.43024883 6.20657873,8.29305492 L6.15360512,8.24732362 L5.32705789,7.42077639 L5.28132659,7.36780278 C5.15937645,7.20344552 5.15787089,6.9778599 5.27680992,6.81199082 L5.32705789,6.75282536 L6.15360512,5.92627813 L6.20657873,5.88054682 C6.37093599,5.75859669 6.59652161,5.75709113 6.76239069,5.87603015 Z M9.76535524,3.60004317 L9.83919014,3.64493336 L9.89216374,3.69066466 L10.718711,4.51721189 L10.7689589,4.57637736 C10.8709067,4.71855085 10.8843645,4.90459773 10.8093325,5.05835443 L10.7644423,5.13218932 L10.718711,5.18516292 L9.89216374,6.01171016 L9.83919014,6.05744146 C9.65428822,6.19463536 9.39189415,6.1793916 9.22421271,6.01171016 C9.07749145,5.8649889 9.04748028,5.64575328 9.13417921,5.46936706 L9.17848141,5.39673273 L9.22421271,5.34375912 L9.24557195,5.32192574 L5.66103341,5.32247846 L5.59805838,5.3181668 C5.3675222,5.28689188 5.1887207,5.08927927 5.1887207,4.85016576 C5.1887207,4.64094143 5.3256156,4.46349124 5.51428055,4.40144606 L5.59805838,4.38216471 L5.66103341,4.37785305 L9.24305295,4.37730033 L9.22421271,4.35861569 L9.17396474,4.29945023 C9.072017,4.15727674 9.05855917,3.97122986 9.13359122,3.81747316 L9.17848141,3.74363827 L9.22421271,3.69066466 L9.28337818,3.64041669 C9.42555167,3.53846895 9.61159855,3.52501112 9.76535524,3.60004317 Z"></path>
      </g>
  </svg>