<?xml version="1.0" encoding="UTF-8"?>
<svg width="16px" height="16px" viewBox="0 0 16 16" version="1.1" xmlns="http://www.w3.org/2000/svg" xmlns:xlink="http://www.w3.org/1999/xlink">
    <title>function icon/data storage</title>
    <g id="图标入库记录" stroke="none" stroke-width="1" fill="none" fill-rule="evenodd">
        <g id="DevUI图标-入库记录230223" transform="translate(-812.000000, -120.000000)" fill="#71757F" fill-rule="nonzero">
            <g id="ic_square_lined-(1)-6" transform="translate(812.000000, 120.000000)">
                <path d="M7,1 C10.2091592,1 12.8495829,1.92773834 12.9937969,3.37471165 L13,3.5 L13,6.5 C13,6.77614237 12.7761424,7 12.5,7 C12.2545401,7 12.0503916,6.82312484 12.0080557,6.58987563 L12,6.5 L12.0017356,4.93996503 C10.9248547,5.60946502 9.08213304,6 7,6 C4.9185037,6 3.07627234,5.60970385 1.99925262,4.94057917 L1.999,6.492 L2,6.5 C2,7.19064829 4.22571719,8 7,8 C7.32858917,8 7.65322338,7.98917172 7.97108073,7.96783932 C8.2466033,7.94934813 8.48494854,8.15771325 8.50343972,8.43323582 C8.5219309,8.70875839 8.31356579,8.94710363 8.03804322,8.96559481 C7.69784175,8.98842679 7.35087459,9 7,9 C4.91786696,9 3.07514527,8.60946502 1.99826445,7.93996503 L1.999,9.493 L2,9.5 C2,10.0802448 3.69148491,10.8113892 6.03141696,10.9680067 C6.30694285,10.9864484 6.51535081,11.2247561 6.49690918,11.500282 C6.47846754,11.7758079 6.24015977,11.9842159 5.96463388,11.9657742 C4.30519605,11.8547039 2.89013211,11.4950765 2.00034352,10.9445294 L2,12.5 C2,13.1906483 4.22571719,14 7,14 C7.27614237,14 7.5,14.2238576 7.5,14.5 C7.5,14.7761424 7.27614237,15 7,15 C3.69915056,15 1,14.0184907 1,12.5 L1,3.5 L1.00620308,3.37471165 C1.15041708,1.92773834 3.79084082,1 7,1 Z M12,8 C12.9924197,8 13.8666255,8.58273115 14.2678648,9.44626985 L14.3374679,9.61140036 L14.35,9.65 L14.3889661,9.66306994 C15.232871,9.98299024 15.8453514,10.7417903 15.9746316,11.6434208 L15.9939704,11.8255635 L16,12 C16,13.2566962 15.0696404,14.3063014 13.8308988,14.4769573 L13.6676261,14.4941769 L13.5,14.5 L10.4816362,14.4996627 L10.313949,14.493159 C9.01301912,14.39718 8,13.3113352 8,12 C8,11.0075803 8.58273115,10.1333745 9.44626985,9.73213523 L9.61140036,9.66253206 L9.65,9.649 L9.66306994,9.61103392 C9.98299024,8.76712895 10.7417903,8.15464857 11.6434208,8.0253684 L11.8255635,8.00602964 L12,8 Z M12,9 C11.3440685,9 10.7738916,9.42461752 10.5755497,10.0295428 L10.5388435,10.1618405 L10.5143913,10.2393205 C10.4535663,10.3885398 10.3233966,10.501135 10.163086,10.5378735 C9.48756943,10.6926821 9,11.2971321 9,12 C9,12.7403866 9.53856422,13.3612201 10.2364695,13.4787971 L10.3691014,13.4948516 L10.5,13.5 L13.4816362,13.5003373 L13.6124737,13.4958695 C14.3920115,13.4383573 15,12.7866607 15,12 C15,11.3440685 14.5753825,10.7738916 13.9704572,10.5755497 L13.8381595,10.5388435 L13.7606795,10.5143913 C13.6114602,10.4535663 13.498865,10.3233966 13.4621265,10.163086 C13.3073179,9.48756943 12.7028679,9 12,9 Z M7,2 C4.22571719,2 2,2.80935171 2,3.5 C2,4.19064829 4.22571719,5 7,5 C9.77428281,5 12,4.19064829 12,3.5 C12,2.80935171 9.77428281,2 7,2 Z" id="形状结合"></path>
            </g>
        </g>
    </g>
</svg>