<?xml version="1.0" encoding="UTF-8"?>
<svg width="16px" height="16px" viewBox="0 0 16 16" version="1.1" xmlns="http://www.w3.org/2000/svg" xmlns:xlink="http://www.w3.org/1999/xlink">
    <title>延时</title>
    <g id="延时" stroke="none" stroke-width="1" fill="none" fill-rule="evenodd">
        <path d="M3.28611022,3.28577994 C5.88937236,0.682517797 10.1106215,0.682517797 12.7138837,3.28577994 C13.9807996,4.5533974 14.6663303,6.24406928 14.6663303,8 L14.6663303,8 L14.6660694,8.01397674 C14.6655549,8.03248828 14.6640182,8.05097663 14.6615631,8.06932545 C14.6600761,8.08004616 14.6582491,8.09065819 14.6559257,8.10142468 C14.6523089,8.11896811 14.6477431,8.13635483 14.6424368,8.15315771 C14.6386454,8.16495278 14.6344279,8.1765568 14.6296788,8.18808403 C14.6238799,8.2023901 14.6173916,8.21648204 14.6103178,8.2301707 C14.6037323,8.2428479 14.5966199,8.25520741 14.5889779,8.26724706 L14.5889779,8.26724706 L14.5606697,8.30633333 L14.5326697,8.33833333 L14.5566697,8.31133333 L14.5339303,8.3389289 L14.5206697,8.35233333 C14.5175169,8.35585219 14.5152999,8.35802778 14.5130627,8.36019028 C14.4942202,8.3778427 14.4816011,8.38844693 14.4682452,8.39858145 C14.4571412,8.4070163 14.4457653,8.41492499 14.4343744,8.42215601 C14.421485,8.43035709 14.4081947,8.43798409 14.3945703,8.44498397 L14.3945703,8.44498397 L14.3604414,8.4609235 C14.3461377,8.46695464 14.3314946,8.4723394 14.3164254,8.47702634 C14.3024583,8.48141014 14.2883368,8.48516655 14.2746079,8.48824445 L14.2746079,8.48824445 L14.2236697,8.49533333 L14.1663303,8.5 L14.1435494,8.49948696 L14.1435494,8.49948696 L14.0992313,8.49553649 C14.086012,8.49376347 14.0729563,8.49147389 14.0608824,8.48882976 C14.0446932,8.48535563 14.0286432,8.48107112 14.0121946,8.47579104 C13.9996707,8.47173677 13.9873632,8.46720175 13.9757569,8.46242577 C13.9627944,8.45709181 13.9500107,8.45118996 13.9371397,8.44449533 L13.9371397,8.44449533 L13.8934655,8.41914582 L13.8934655,8.41914582 L13.8626697,8.39633333 L13.8266697,8.36633333 L13.8446697,8.38233333 L13.8253505,8.36569759 L13.8126118,8.35345498 L12.6152785,7.15545498 L12.566882,7.09936255 C12.4217002,6.90358114 12.4379149,6.62580985 12.6154753,6.44834822 C12.8107918,6.25314043 13.1273743,6.25322854 13.3225821,6.44854502 L13.3225821,6.44854502 L13.498177,6.62498345 C13.2537665,5.64357963 12.7472086,4.7337285 12.006679,3.99278885 C9.79403903,1.78014887 6.20595485,1.78014887 3.993217,3.99288672 C1.78047099,6.20563273 1.78047099,9.79375465 3.99326593,12.0071622 C6.20595485,14.2198511 9.79403903,14.2198511 12.0067769,12.0071133 C12.202039,11.8118511 12.5186215,11.8118511 12.7138837,12.0071133 C12.9091458,12.2023754 12.9091458,12.5189579 12.7138837,12.7142201 C10.1106215,15.3174822 5.88937236,15.3174822 3.28611022,12.7142201 C0.682856227,10.1102453 0.682856227,5.88903393 3.28611022,3.28577994 Z M7.83333333,3.5 L7.90118037,3.50456441 C8.14523075,3.53767269 8.33333333,3.74686949 8.33333333,4 L8.33333333,4 L8.33353333,7.79186667 L10.1868867,9.64644661 L10.2352988,9.70252556 C10.3805351,9.89826656 10.3643978,10.1760423 10.1868867,10.3535534 C9.99162458,10.5488155 9.67504209,10.5488155 9.47977994,10.3535534 L9.47977994,10.3535534 L7.47977994,8.35355339 L7.42854251,8.29350724 C7.36704752,8.20869717 7.33333333,8.1060866 7.33333333,8 L7.33333333,8 L7.33333333,4 L7.33789774,3.93215296 C7.37100603,3.68810259 7.58020282,3.5 7.83333333,3.5 L7.83333333,3.5 Z" id="形状结合" fill="#71757F"></path>
    </g>
</svg>