<?xml version="1.0" encoding="UTF-8"?>
<svg width="16px" height="16px" viewBox="0 0 16 16" version="1.1" xmlns="http://www.w3.org/2000/svg" xmlns:xlink="http://www.w3.org/1999/xlink">
    <title>deploy-plugin部署</title>
    <g id="deploy-plugin部署" stroke="none" stroke-width="1" fill="none" fill-rule="evenodd">
        <path d="M2.75615049,5.94691003 C4.28136412,4.77337893 6.38401318,4.69961246 7.98771689,5.76337289 C8.1896599,5.9059842 8.25025341,6.17865501 8.12771689,6.39337289 C8.05627127,6.50230832 7.94438684,6.57830872 7.81678872,6.60457893 C7.68919059,6.63084913 7.55638375,6.60522634 7.44771689,6.53337289 C6.19471874,5.69157484 4.54511969,5.73966026 3.34328387,6.65301615 C2.14144805,7.56637204 1.65337522,9.14284726 2.12889045,10.5755069 C2.60440569,12.0081665 3.9382642,12.979923 5.44771689,12.9933729 C5.62740904,13.0082607 5.80802473,13.0082607 5.98771689,12.9933729 C6.12234235,12.9610117 6.26437492,12.9871177 6.37869395,13.0652357 C6.49301298,13.1433537 6.56894599,13.2661908 6.58771689,13.4033729 C6.6077003,13.5308903 6.57548538,13.6610823 6.49834254,13.7645666 C6.42119969,13.8680509 6.30563042,13.936106 6.17771689,13.9533729 C5.94988426,13.9932851 5.71901905,14.0133729 5.48771689,14.0133729 C3.56328892,14.0080025 1.85527038,12.7794883 1.23802416,10.9567269 C0.620777951,9.13396557 1.23093687,7.12044113 2.75615049,5.94691003 Z M13.9920109,7.01229308 C14.1823623,7.02429737 14.3484514,7.14566513 14.4177169,7.32337289 L14.4177169,7.32337289 L14.4177169,7.31337289 C15.3354112,8.9586521 15.1311076,11.0014287 13.9057516,12.4323757 C12.6803956,13.8633227 10.693384,14.3795214 8.92649059,13.7259204 C7.15959719,13.0723193 5.98685741,11.38728 5.98771689,9.50337289 C5.97299107,9.30364395 5.97299107,9.10310182 5.98771689,8.90337289 C6.00643542,8.76879031 6.08131698,8.64844662 6.19378442,8.5721975 C6.30625187,8.49594838 6.44576661,8.47093865 6.57771689,8.50337289 C6.82854921,8.5441627 7.00657063,8.76994597 6.98771689,9.02337289 C6.9778105,9.18321955 6.9778105,9.34352622 6.98771689,9.50337289 C6.95973704,10.9967719 7.87471121,12.3461362 9.27244463,12.8727904 C10.6701781,13.3994447 12.2480906,12.9893793 13.2125565,11.8488404 C14.1770224,10.7083015 14.3192549,9.084192 13.5677169,7.79337289 C13.4540377,7.64022331 13.4395555,7.43502585 13.5305973,7.26742768 C13.6216391,7.09982952 13.8016595,7.00028878 13.9920109,7.01229308 Z M4.24771689,3.24337289 C5.24519191,1.5228164 7.2538039,0.661078189 9.18799057,1.12388809 C11.1221772,1.58669799 12.5231824,3.26428536 12.6338273,5.24999147 C12.7444722,7.23569758 11.5385137,9.05854673 9.66771689,9.73337289 C9.54572373,9.77857285 9.41076327,9.77340334 9.29258516,9.71900389 C9.17440705,9.66460444 9.08271355,9.56544117 9.03771689,9.44337289 C8.99300087,9.32009086 8.99956848,9.18402905 9.05595043,9.06562695 C9.11233238,8.94722486 9.21382296,8.85636446 9.33771689,8.81337289 C10.8100884,8.2873474 11.761013,6.85543481 11.6747102,5.29430302 C11.5884075,3.73317123 10.4854412,2.41480221 8.96405934,2.05427796 C7.44267744,1.69375371 5.86539032,2.3769789 5.08771689,3.73337289 C5.02478578,3.84552746 4.9194811,3.92773818 4.79540868,3.96157611 C4.67133625,3.99541404 4.53887447,3.97804872 4.42771689,3.91337289 C4.31278878,3.85048474 4.22855956,3.74335338 4.19456839,3.61683069 C4.16057722,3.49030801 4.1797781,3.35538945 4.24771689,3.24337289 Z" id="形状结合" fill="#252B3A" fill-rule="nonzero"></path>
    </g>
</svg>