<?xml version="1.0" encoding="UTF-8"?>
<svg width="16px" height="16px" viewBox="0 0 16 16" version="1.1" xmlns="http://www.w3.org/2000/svg" xmlns:xlink="http://www.w3.org/1999/xlink">
    <title>icon icon-desk-notice</title>
    <g id="icon-icon-desk-notice" stroke="none" stroke-width="1" fill="none" fill-rule="evenodd">
        <g transform="translate(1.500000, 1.105945)" fill="#71757F" id="形状结合">
            <path d="M6.38505878,0.496565802 C6.93924731,-0.11919923 7.88768207,-0.169116849 8.5034471,0.385071681 C8.81951789,0.669535392 9,1.07478314 9,1.5000129 L9,1.5000129 L9,12.2880964 C9,13.1165236 8.32842712,13.7880964 7.5,13.7880964 C7.07477024,13.7880964 6.66952249,13.6076143 6.38505878,13.2915435 L6.38505878,13.2915435 L3.777,10.3930547 L2,10.3940547 C0.945638205,10.3940547 0.0818348781,9.57817688 0.00548573643,8.54331702 L0.00548573643,8.54331702 L0,8.39405467 L0,5.39405467 C0,4.28948517 0.8954305,3.39405467 2,3.39405467 L2,3.39405467 L3.777,3.39305467 Z M7.76228938,1.07422993 C7.56059534,0.949662509 7.29255694,0.983081636 7.12835293,1.16553053 L7.12835293,1.16553053 L4.37164707,4.22853704 C4.27682584,4.33389397 4.14174325,4.39405467 4,4.39405467 L4,4.39405467 L2,4.39405467 C1.44771525,4.39405467 1,4.84176992 1,5.39405467 L1,5.39405467 L1,8.39405467 C1,8.94633942 1.44771525,9.39405467 2,9.39405467 L2,9.39405467 L4,9.39405467 C4.14174325,9.39405467 4.27682584,9.45421538 4.37164707,9.55957231 L4.37164707,9.55957231 L7.12835293,12.6225788 C7.22317416,12.7279357 7.35825675,12.7880964 7.5,12.7880964 C7.77614237,12.7880964 8,12.5642388 8,12.2880964 L8,12.2880964 L8,1.5000086 C8,1.35826965 7.9398393,1.22318706 7.83448237,1.12836583 L7.83448237,1.12836583 Z M10.8504809,9.08604197 L12.1495191,9.83604197 C12.3886654,9.97411316 12.4706029,10.2799084 12.3325318,10.5190547 C12.1944606,10.758201 11.8886654,10.8401386 11.6495191,10.7020674 L10.3504809,9.95206737 C10.1113346,9.81399619 10.0293971,9.50820098 10.1674682,9.26905467 C10.3055394,9.02990836 10.6113346,8.94797078 10.8504809,9.08604197 Z M12,6.39405467 C12.2761424,6.39405467 12.5,6.6179123 12.5,6.89405467 C12.5,7.17019705 12.2761424,7.39405467 12,7.39405467 L10.5,7.39405467 C10.2238576,7.39405467 10,7.17019705 10,6.89405467 C10,6.6179123 10.2238576,6.39405467 10.5,6.39405467 L12,6.39405467 Z M12.3325318,3.26905467 C12.4706029,3.50820098 12.3886654,3.81399619 12.1495191,3.95206737 L10.8504809,4.70206737 C10.6113346,4.84013856 10.3055394,4.75820098 10.1674682,4.51905467 C10.0293971,4.27990836 10.1113346,3.97411316 10.3504809,3.83604197 L11.6495191,3.08604197 C11.8886654,2.94797078 12.1944606,3.02990836 12.3325318,3.26905467 Z"></path>
        </g>
    </g>
</svg>