<?xml version="1.0" encoding="UTF-8"?>
<svg width="16px" height="16px" viewBox="0 0 16 16" version="1.1" xmlns="http://www.w3.org/2000/svg" xmlns:xlink="http://www.w3.org/1999/xlink">
    <title>detail view</title>
    <g id="é¡µé¢-1" stroke="none" stroke-width="1" fill="none" fill-rule="evenodd">
        <path d="M14,3 C14.55,3 15,3.44 15,4 L15,13 C15,13.55 14.55,14 14,14 L11,14 C10.44,14 10,13.55 10,13 L10,4 C10,3.44 10.44,3 11,3 L14,3 Z M8,12.5 C8.27,12.5 8.5,12.72 8.5,13 C8.5,13.28 8.27,13.5 8,13.5 L1.5,13.5 C1.22,13.5 1,13.28 1,13 C1,12.72 1.22,12.5 1.5,12.5 L8,12.5 Z M14,4 L11,4 L11,13 L14,13 L14,4 Z M8,9.5 C8.27,9.5 8.5,9.72 8.5,10 C8.5,10.28 8.27,10.5 8,10.5 L8,10.5 L1.5,10.5 C1.22,10.5 1,10.28 1,10 C1,9.72 1.22,9.5 1.5,9.5 L1.5,9.5 Z M8,6.5 C8.27,6.5 8.5,6.72 8.5,7 C8.5,7.28 8.27,7.5 8,7.5 L8,7.5 L1.5,7.5 C1.22,7.5 1,7.28 1,7 C1,6.72 1.22,6.5 1.5,6.5 L1.5,6.5 Z M8,3.5 C8.27,3.5 8.5,3.72 8.5,4 C8.5,4.28 8.27,4.5 8,4.5 L8,4.5 L1.5,4.5 C1.22,4.5 1,4.28 1,4 C1,3.72 1.22,3.5 1.5,3.5 L1.5,3.5 Z" id="detail-view" fill="#595959"></path>
    </g>
</svg>