<?xml version="1.0" encoding="UTF-8"?>
<svg width="16px" height="16px" viewBox="0 0 16 16" version="1.1" xmlns="http://www.w3.org/2000/svg" xmlns:xlink="http://www.w3.org/1999/xlink">
    <title>function icon/details</title>
    <g id="图标入库记录" stroke="none" stroke-width="1" fill="none" fill-rule="evenodd">
        <g id="语言-图标入库记录230112" transform="translate(-172.000000, -500.000000)" fill="#71757F" fill-rule="nonzero">
            <g id="编组" transform="translate(172.000000, 500.000000)">
                <path d="M12,1 C13.1045695,1 14,1.8954305 14,3 L14,3 L14,13 C14,14.1045695 13.1045695,15 12,15 L12,15 L4,15 C2.8954305,15 2,14.1045695 2,13 L2,13 L2,3 C2,1.8954305 2.8954305,1 4,1 L4,1 Z M12,2 L4,2 C3.44771525,2 3,2.44771525 3,3 L3,3 L3,13 C3,13.5522847 3.44771525,14 4,14 L4,14 L12,14 C12.5522847,14 13,13.5522847 13,13 L13,13 L13,3 C13,2.44771525 12.5522847,2 12,2 L12,2 Z M8.5,11 C8.77614237,11 9,11.2238576 9,11.5 C9,11.7761424 8.77614237,12 8.5,12 L5.5,12 C5.22385763,12 5,11.7761424 5,11.5 C5,11.2238576 5.22385763,11 5.5,11 L8.5,11 Z M10.5,9 C10.7761424,9 11,9.22385763 11,9.5 C11,9.77614237 10.7761424,10 10.5,10 L5.5,10 C5.22385763,10 5,9.77614237 5,9.5 C5,9.22385763 5.22385763,9 5.5,9 L10.5,9 Z M10.5,4 C10.7761424,4 11,4.22385763 11,4.5 L11,4.5 L11,6.5 C11,6.77614237 10.7761424,7 10.5,7 L10.5,7 L5.5,7 C5.22385763,7 5,6.77614237 5,6.5 L5,6.5 L5,4.5 C5,4.22385763 5.22385763,4 5.5,4 L5.5,4 Z M10,5 L6,5 L6,6 L10,6 L10,5 Z" id="形状结合"></path>
            </g>
        </g>
    </g>
</svg>