<?xml version="1.0" encoding="UTF-8"?>
<svg width="16px" height="16px" viewBox="0 0 16 16" version="1.1" xmlns="http://www.w3.org/2000/svg" xmlns:xlink="http://www.w3.org/1999/xlink">
    <title>function icon/diagnose</title>
    <g id="图标入库记录" stroke="none" stroke-width="1" fill="none" fill-rule="evenodd">
        <g id="DevUI图标-入库记录-2023.04" transform="translate(-232.000000, -120.000000)" fill="#71757F" fill-rule="nonzero">
            <g id="编组-4" transform="translate(232.000000, 120.000000)">
                <path d="M9.5,1 C10.1532187,1 10.7089149,1.41754351 10.9147505,2.00029246 L12,2 C13.0543618,2 13.9181651,2.81587779 13.9945143,3.85073766 L14,4 L14,13 C14,14.0543618 13.1841222,14.9181651 12.1492623,14.9945143 L12,15 L4,15 C2.9456382,15 2.08183488,14.1841222 2.00548574,13.1492623 L2,13 L2,4 C2,2.9456382 2.81587779,2.08183488 3.85073766,2.00548574 L4,2 L5.08524952,2.00029246 C5.29108512,1.41754351 5.84678131,1 6.5,1 L9.5,1 Z M5.08560151,3.00070296 L4,3 C3.48716416,3 3.06449284,3.38604019 3.00672773,3.88337887 L3,4 L3,13 C3,13.5128358 3.38604019,13.9355072 3.88337887,13.9932723 L4,14 L12,14 C12.5128358,14 12.9355072,13.6139598 12.9932723,13.1166211 L13,13 L13,4 C13,3.48716416 12.6139598,3.06449284 12.1166211,3.00672773 L12,3 L10.9143985,3.00070296 C10.7082819,3.58293192 10.1528467,4 9.5,4 L6.5,4 C5.8471533,4 5.29171807,3.58293192 5.08560151,3.00070296 Z M8.93590352,6.25369296 L8.97434165,6.34188612 L9.86,8.99999138 L11.4976605,8.99999138 C11.7431203,8.99999138 11.9472688,9.17687516 11.9896048,9.41012437 L11.9976605,9.49999138 C11.9976605,9.74545989 11.8207853,9.94960837 11.5875361,9.99194433 L11.4976605,9.99999138 L9.5,9.99999138 C9.31552983,9.99999138 9.14879941,9.8988216 9.06206878,9.74133928 L9.02565835,9.65811388 L8.457,7.953 L6.96423835,11.6856953 C6.81633649,12.05545 6.32926005,12.1036791 6.10344873,11.8054078 L6.0527864,11.7236068 L5.19,9.99999138 L4.5,9.99999138 C4.25454011,9.99999138 4.05039163,9.82312484 4.00805567,9.58987563 L4,9.49999138 C4,9.25454011 4.17687516,9.05039163 4.41012437,9.00805567 L4.5,8.99999138 L5.5,8.99999138 C5.65782169,8.99999138 5.80435556,9.07430638 5.89783013,9.19710296 L5.9472136,9.2763932 L6.449,10.28 L8.03576165,6.31430466 C8.19639223,5.91272823 8.74099212,5.89971085 8.93590352,6.25369296 Z M9.5,2 L6.5,2 C6.22385763,2 6,2.22385763 6,2.5 C6,2.74545989 6.17687516,2.94960837 6.41012437,2.99194433 L6.5,3 L9.5,3 C9.77614237,3 10,2.77614237 10,2.5 C10,2.25454011 9.82312484,2.05039163 9.58987563,2.00805567 L9.5,2 Z" id="形状结合"></path>
            </g>
        </g>
    </g>
</svg>