<?xml version="1.0" encoding="UTF-8"?>
<svg width="16px" height="16px" viewBox="0 0 16 16" version="1.1" xmlns="http://www.w3.org/2000/svg" xmlns:xlink="http://www.w3.org/1999/xlink">
    <title>icon icon-directory</title>
    <g id="icon-icon-directory" stroke="none" stroke-width="1" fill="none" fill-rule="evenodd">
        <path d="M1.99509036,11.25 C2.40930392,11.25 2.74509036,11.5857864 2.74509036,12 C2.74509036,12.4142136 2.40930392,12.75 1.99509036,12.75 C1.5808768,12.75 1.24509036,12.4142136 1.24509036,12 C1.24509036,11.5857864 1.5808768,11.25 1.99509036,11.25 Z M14.2549096,11.5 C14.531052,11.5 14.7549096,11.7238576 14.7549096,12 C14.7549096,12.2454599 14.5780345,12.4496084 14.3447853,12.4919443 L14.2549096,12.5 L4.25490964,12.5 C3.97876726,12.5 3.75490964,12.2761424 3.75490964,12 C3.75490964,11.7545401 3.9317848,11.5503916 4.16503401,11.5080557 L4.25490964,11.5 L14.2549096,11.5 Z M1.99509036,7.25 C2.40930392,7.25 2.74509036,7.58578644 2.74509036,8 C2.74509036,8.41421356 2.40930392,8.75 1.99509036,8.75 C1.5808768,8.75 1.24509036,8.41421356 1.24509036,8 C1.24509036,7.58578644 1.5808768,7.25 1.99509036,7.25 Z M14.2549096,7.5 C14.531052,7.5 14.7549096,7.72385763 14.7549096,8 C14.7549096,8.24545989 14.5780345,8.44960837 14.3447853,8.49194433 L14.2549096,8.5 L4.25490964,8.5 C3.97876726,8.5 3.75490964,8.27614237 3.75490964,8 C3.75490964,7.75454011 3.9317848,7.55039163 4.16503401,7.50805567 L4.25490964,7.5 L14.2549096,7.5 Z M1.99509036,3.25 C2.40930392,3.25 2.74509036,3.58578644 2.74509036,4 C2.74509036,4.41421356 2.40930392,4.75 1.99509036,4.75 C1.5808768,4.75 1.24509036,4.41421356 1.24509036,4 C1.24509036,3.58578644 1.5808768,3.25 1.99509036,3.25 Z M14.2549096,3.5 C14.531052,3.5 14.7549096,3.72385763 14.7549096,4 C14.7549096,4.24545989 14.5780345,4.44960837 14.3447853,4.49194433 L14.2549096,4.5 L4.25490964,4.5 C3.97876726,4.5 3.75490964,4.27614237 3.75490964,4 C3.75490964,3.75454011 3.9317848,3.55039163 4.16503401,3.50805567 L4.25490964,3.5 L14.2549096,3.5 Z" id="形状结合" fill="#71757F" fill-rule="nonzero"></path>
    </g>
</svg>