<?xml version="1.0" encoding="UTF-8"?>
<svg width="16px" height="16px" viewBox="0 0 16 16" version="1.1" xmlns="http://www.w3.org/2000/svg" xmlns:xlink="http://www.w3.org/1999/xlink">
    <title>function icon/disaster recovery</title>
    <g id="图标入库记录" stroke="none" stroke-width="1" fill="none" fill-rule="evenodd">
        <g id="DevUI图标-入库记录230223" transform="translate(-92.000000, -200.000000)" fill="#71757F" fill-rule="nonzero">
            <g id="编组" transform="translate(92.000000, 200.000000)">
                <path d="M14,2 C14.5522847,2 15,2.44771525 15,3 L15,4 C15,4.55228475 14.5522847,5 14,5 L9.5,5 C8.94771525,5 8.5,4.55228475 8.5,4 L8.5,3 C8.5,2.44771525 8.94771525,2 9.5,2 L14,2 Z M14,3 L9.5,3 L9.5,4 L14,4 L14,3 Z M11.4,3.2 C11.5656854,3.2 11.7,3.33431458 11.7,3.5 C11.7,3.66568542 11.5656854,3.8 11.4,3.8 L10.8,3.8 C10.6343146,3.8 10.5,3.66568542 10.5,3.5 C10.5,3.33431458 10.6343146,3.2 10.8,3.2 L11.4,3.2 Z M14,6 C14.5522847,6 15,6.44771525 15,7 L15,8 C15,8.55228475 14.5522847,9 14,9 L9.5,9 C8.94771525,9 8.5,8.55228475 8.5,8 L8.5,7 C8.5,6.44771525 8.94771525,6 9.5,6 L14,6 Z M14,7 L9.5,7 L9.5,8 L14,8 L14,7 Z M11.4,7.2 C11.5656854,7.2 11.7,7.33431458 11.7,7.5 C11.7,7.66568542 11.5656854,7.8 11.4,7.8 L10.8,7.8 C10.6343146,7.8 10.5,7.66568542 10.5,7.5 C10.5,7.33431458 10.6343146,7.2 10.8,7.2 L11.4,7.2 Z M6.5,11 C7.05228475,11 7.5,11.4477153 7.5,12 L7.5,13 C7.5,13.5522847 7.05228475,14 6.5,14 L2,14 C1.44771525,14 1,13.5522847 1,13 L1,12 C1,11.4477153 1.44771525,11 2,11 L6.5,11 Z M6.5,12 L2,12 L2,13 L6.5,13 L6.5,12 Z M3.9,12.2 C4.06568542,12.2 4.2,12.3343146 4.2,12.5 C4.2,12.6656854 4.06568542,12.8 3.9,12.8 L3.3,12.8 C3.13431458,12.8 3,12.6656854 3,12.5 C3,12.3343146 3.13431458,12.2 3.3,12.2 L3.9,12.2 Z M6.5,7 C7.05228475,7 7.5,7.44771525 7.5,8 L7.5,9 C7.5,9.55228475 7.05228475,10 6.5,10 L2,10 C1.44771525,10 1,9.55228475 1,9 L1,8 C1,7.44771525 1.44771525,7 2,7 L6.5,7 Z M6.5,8 L2,8 L2,9 L6.5,9 L6.5,8 Z M3.9,8.2 C4.06568542,8.2 4.2,8.33431458 4.2,8.5 C4.2,8.66568542 4.06568542,8.8 3.9,8.8 L3.3,8.8 C3.13431458,8.8 3,8.66568542 3,8.5 C3,8.33431458 3.13431458,8.2 3.3,8.2 L3.9,8.2 Z M13.5,10 L13.5115408,10.0001324 C13.5324012,10.000611 13.5532373,10.0023875 13.5739178,10.0054619 L13.5,10 C13.536097,10 13.5713007,10.0038252 13.6052277,10.0110922 C13.6204743,10.0143961 13.6358347,10.018448 13.6510116,10.0232413 C13.6647369,10.0275581 13.6780251,10.0324085 13.6910366,10.0377922 C13.7045389,10.0433515 13.7182757,10.0497496 13.7317582,10.056805 C13.7440467,10.0632933 13.7556825,10.0700193 13.7670103,10.077188 C13.7727019,10.0807332 13.7785364,10.0845946 13.7843055,10.0885912 L13.8021439,10.1015827 C13.8157542,10.1119203 13.8288187,10.1229392 13.8412864,10.1345887 L13.8535534,10.1464466 L14.8535534,11.1464466 C15.0488155,11.3417088 15.0488155,11.6582912 14.8535534,11.8535534 C14.679987,12.0271197 14.4105626,12.0464049 14.2156945,11.9114088 L14.1464466,11.8535534 L14,11.707 L14,12 C14,13.0543618 13.1841222,13.9181651 12.1492623,13.9945143 L12,14 L9.5,14 C9.22385763,14 9,13.7761424 9,13.5 C9,13.2545401 9.17687516,13.0503916 9.41012437,13.0080557 L9.5,13 L12,13 C12.5128358,13 12.9355072,12.6139598 12.9932723,12.1166211 L13,12 L13,11.706 L12.8535534,11.8535534 C12.679987,12.0271197 12.4105626,12.0464049 12.2156945,11.9114088 L12.1464466,11.8535534 C11.9728803,11.679987 11.9535951,11.4105626 12.0885912,11.2156945 L12.1464466,11.1464466 L13.1464466,10.1464466 L13.1587136,10.1345887 C13.1711813,10.1229392 13.1842458,10.1119203 13.1978561,10.1015827 L13.1464466,10.1464466 C13.1732809,10.1196123 13.2024064,10.0964658 13.2331935,10.077007 C13.2443175,10.0700193 13.2559533,10.0632933 13.2678728,10.0570343 C13.2817243,10.0497496 13.2954611,10.0433515 13.3094049,10.0376106 C13.3219749,10.0324085 13.3352631,10.0275581 13.3488008,10.0232684 C13.3641653,10.018448 13.3795257,10.0143961 13.3950129,10.0110857 C13.4049881,10.008904 13.4153197,10.0070279 13.4257565,10.0054743 C13.4470942,10.0023382 13.468267,10.0005544 13.4894626,10.0001104 C13.4925095,10.0000413 13.4962499,10 13.5,10 Z M6.5,2 C6.77614237,2 7,2.22385763 7,2.5 C7,2.74545989 6.82312484,2.94960837 6.58987563,2.99194433 L6.5,3 L4,3 C3.48716416,3 3.06449284,3.38604019 3.00672773,3.88337887 L3,4 L3,4.292 L3.14644661,4.14644661 C3.32001296,3.97288026 3.58943736,3.95359511 3.7843055,4.08859116 L3.85355339,4.14644661 C4.02711974,4.32001296 4.04640489,4.58943736 3.91140884,4.7843055 L3.85355339,4.85355339 L2.85355339,5.85355339 L2.84128643,5.86541125 C2.82881868,5.8770608 2.81575424,5.88807975 2.80214392,5.89841727 L2.85355339,5.85355339 C2.82671912,5.88038766 2.79759357,5.90353418 2.76680652,5.92299295 C2.75568247,5.92998066 2.74404667,5.93670666 2.73212724,5.94296566 C2.71827569,5.95025039 2.70453886,5.95664853 2.6905951,5.96238944 C2.67802507,5.96759155 2.66473685,5.9724419 2.65119917,5.97673158 C2.63583471,5.98155198 2.62047425,5.98560387 2.60498705,5.98891432 C2.59430622,5.99124711 2.58325248,5.99322979 2.57207924,5.994843 C2.55487076,5.99729494 2.53773477,5.99887696 2.52056948,5.99957935 C2.51375728,5.99986044 2.50689494,6 2.5,6 L2.48043349,5.99961939 C2.46293275,5.99893824 2.44546098,5.99734289 2.42809589,5.99483331 L2.5,6 C2.46390296,6 2.42869933,5.99617485 2.39477235,5.98890777 C2.37952575,5.98560387 2.36416529,5.98155198 2.34898836,5.97675865 C2.33526315,5.9724419 2.32197493,5.96759155 2.30896344,5.96220776 C2.29546114,5.95664853 2.28172431,5.95025039 2.26824181,5.94319503 C2.25595333,5.93670666 2.24431753,5.92998066 2.23298968,5.92281199 C2.22729809,5.91926681 2.22146362,5.91540543 2.2156945,5.91140884 L2.19785608,5.89841727 C2.18424576,5.88807975 2.17118132,5.8770608 2.15871357,5.86541125 L2.14644661,5.85355339 L1.14644661,4.85355339 C0.951184464,4.65829124 0.951184464,4.34170876 1.14644661,4.14644661 C1.32001296,3.97288026 1.58943736,3.95359511 1.7843055,4.08859116 L1.85355339,4.14644661 L2,4.293 L2,4 C2,2.9456382 2.81587779,2.08183488 3.85073766,2.00548574 L4,2 L6.5,2 Z" id="形状结合"></path>
            </g>
        </g>
    </g>
</svg>