<?xml version="1.0" encoding="UTF-8"?>
<svg width="16px" height="16px" viewBox="0 0 16 16" version="1.1" xmlns="http://www.w3.org/2000/svg" xmlns:xlink="http://www.w3.org/1999/xlink">
    <title>Dislike</title>
    <g id="Dislike" stroke="none" stroke-width="1" fill="none" fill-rule="evenodd">
        <path d="M11.55205,1 C13.14165,1 14.16285,1.458308 14.49075,2.448728 C14.81075,3.415528 15.17575,5.009158 15.29175,6.292968 L15.29175,6.292968 L15.30985,6.514648 L15.33085,6.925358 C15.38255,8.656368 14.91455,9.740718 13.65015,9.740718 L13.65015,9.740718 L9.55591,9.741028 L9.60108,9.881038 C10.02005,11.217788 10.18555,12.247488 10.08695,12.992388 C9.89815,14.419688 8.75318,15.633388 7.67652,15.272788 L7.67652,15.272788 L7.55713,15.226188 C7.03589,14.992888 6.86426,14.595988 6.70117,13.653488 L6.70117,13.653488 L6.54492,12.721688 L6.4978,12.506488 C6.4231,12.182088 6.33277,11.910688 6.21558,11.674688 C5.8313,10.900988 5.28443,10.233788 4.57056,9.670048 L4.57056,9.670048 L2.60156,9.670288 C1.71704,9.670288 1,8.953248 1,8.068728 L1,8.068728 L1,2.605228 C1,1.720708 1.71704,1.003601 2.60156,1.003601 L2.60156,1.003601 L4.83325,1 Z M11.55205,1.999998 L5.33301,1.999998 L5.33301,9.002988 L5.41699,9.071468 C6.13672,9.686458 6.70239,10.406788 7.11109,11.230088 C7.23584,11.480988 7.33399,11.750888 7.4148,12.050988 L7.50098,12.409088 L7.56079,12.715988 L7.69336,13.519388 C7.69946,13.553388 7.70557,13.586088 7.71167,13.617588 L7.76441,13.867488 C7.83374,14.157988 7.8982,14.283188 7.96558,14.313488 C8.30152,14.463788 8.97461,13.775988 9.09571,12.861188 C9.17749,12.243388 9.00025,11.240388 8.55029,9.880678 C8.51196,9.764348 8.49854,9.641728 8.51099,9.520328 C8.55908,9.045288 8.98218,8.699098 9.45679,8.742858 L13.65015,8.740718 C14.18895,8.740718 14.43655,7.941288 14.29595,6.382938 C14.18755,5.183288 13.83915,3.662168 13.54155,2.762938 L13.50585,2.674618 C13.30125,2.245118 12.68435,1.999998 11.55205,1.999998 Z M4.33277,2.003598 L2.60156,2.003598 C2.26929,2.003598 2,2.272948 2,2.605228 L2,2.605228 L2,8.068668 L2.00781,8.166258 C2.05445,8.452148 2.30249,8.670288 2.60156,8.670288 L2.60156,8.670288 L4.33277,8.670598 L4.33277,2.003598 Z" id="形状结合" fill="#252B3A"></path>
    </g>
</svg>