<?xml version="1.0" encoding="UTF-8"?>
<svg width="16px" height="16px" viewBox="0 0 16 16" version="1.1" xmlns="http://www.w3.org/2000/svg" xmlns:xlink="http://www.w3.org/1999/xlink">
    <title>display-input</title>
    <g id="资源库" stroke="none" stroke-width="1" fill="none" fill-rule="evenodd">
        <g id="画板" transform="translate(-511.000000, -1342.000000)" fill="#71757F" fill-rule="nonzero">
            <g id="display-input" transform="translate(512.000000, 1343.479993)">
                <path d="M4.62038517,3.71531672e-06 C4.98683912,-0.000992771669 5.32448799,0.198527013 5.50038517,0.520007459 L5.50038517,0.520007459 L6.34038517,2.07000746 L12.8303852,2.07000746 C13.144185,2.06996161 13.4448506,2.19597075 13.6648522,2.41973311 C13.8848539,2.64349547 14.0057493,2.9462535 14.0003852,3.26000746 L14.0003852,3.26000746 L14.0003852,7.26000746 C14.0003852,7.53614983 13.7765275,7.76000746 13.5003852,7.76000746 C13.2264767,7.75468735 13.0057053,7.53391591 13.0003852,7.26000746 L13.0003852,7.26000746 L13.0003852,6.12000746 L1.00038517,6.12000746 L1.00038517,11.8400075 C0.997627795,11.8868005 1.01431362,11.9326556 1.04649855,11.9667337 C1.07868347,12.0008119 1.12351105,12.0200886 1.17038517,12.0200075 L1.17038517,12.0200075 L7.50038517,12.0200075 C7.77652755,12.0200075 8.00038517,12.2438651 8.00038517,12.5200075 C7.99506507,12.7939159 7.77429362,13.0146874 7.50038517,13.0200075 L7.50038517,13.0200075 L1.17038517,13.0200075 C0.85834147,13.0200075 0.559221834,12.8953796 0.339514534,12.6737944 C0.119807235,12.4522093 -0.00228186946,12.1520398 0.000385170932,11.8400075 L0.000385170932,11.8400075 L0.000385170932,1.20000746 C-0.00770643011,0.884539439 0.111979628,0.579179671 0.332280327,0.353230236 C0.552581027,0.127280801 0.854813413,3.71531672e-06 1.17038517,3.71531672e-06 L1.17038517,3.71531672e-06 Z M9.63038517,7.58000746 C9.80274025,7.36111114 10.1188641,7.3210391 10.3403852,7.49000746 L10.3403852,7.49000746 L13.3403852,9.84000746 L13.3403852,9.89000746 L13.3903852,9.89000746 L13.3945812,9.94000746 L13.3945812,9.94000746 L13.3903852,9.99000746 L13.3903852,10.0700075 C13.3589146,10.1723066 13.2811108,10.2538154 13.1803852,10.2900075 C13.1852381,10.3198112 13.1852381,10.3502037 13.1803852,10.3800075 L13.1803852,10.3800075 L13.1803852,10.4700075 C13.1841499,10.4998893 13.1841499,10.5301256 13.1803852,10.5600075 L13.1803852,10.5600075 L10.1803852,12.9100075 C10.0913334,12.9786239 9.98276962,13.0171466 9.87038517,13.0200075 C9.713373,13.0184718 9.565821,12.9446958 9.47038517,12.8200075 C9.30248513,12.601707 9.34272428,12.2887358 9.56038517,12.1200075 L9.56038517,12.1200075 L11.4403852,10.7400075 L3.84038517,10.7400075 C3.5642428,10.7400075 3.34038517,10.5161498 3.34038517,10.2400075 C3.34038517,9.96386508 3.5642428,9.74000746 3.84038517,9.74000746 L3.84038517,9.74000746 L11.6003852,9.74000746 L9.72038517,8.28000746 C9.50272428,8.11127909 9.46248513,7.79830795 9.63038517,7.58000746 Z M4.62038517,1.0200072 L1.17038517,1.0200072 C1.12351105,1.01992629 1.07868347,1.03920305 1.04649855,1.0732812 C1.01431362,1.10735936 0.997627795,1.15321444 1.00038517,1.20000746 L1.00038517,1.20000746 L1.00038517,5.12000746 L13.0003852,5.12000746 L13.0003852,3.22000746 C13.0003852,3.12611905 12.9242736,3.05000746 12.8303852,3.05000746 L12.8303852,3.05000746 L6.34038517,3.05000746 C5.97179143,3.04902393 5.63362353,2.84535463 5.46038517,2.5200072 L5.46038517,2.5200072 L4.62038517,1.0200072 Z" id="形状结合"></path>
            </g>
        </g>
    </g>
</svg>