<?xml version="1.0" encoding="UTF-8"?>
<svg width="16px" height="16px" viewBox="0 0 16 16" version="1.1" xmlns="http://www.w3.org/2000/svg" xmlns:xlink="http://www.w3.org/1999/xlink">
    <title>distribution</title>
    <g id="distribution" stroke="none" stroke-width="1" fill="none" fill-rule="evenodd">
        <path d="M3.35577784,13 L3.355,12.9949999 L3.32372721,12.9949073 C1.74891996,12.9036609 0.5,11.5976809 0.5,10 C0.5,8.47741046 1.63427984,7.21974618 3.10393388,7.02591278 L3.11183215,6.99906677 C3.33536773,6.01541055 3.84984097,5.15299073 4.58961809,4.56818698 C5.03922592,4.21276596 5.63770705,4.00493464 6.28324999,3.90335532 C6.55603585,3.86043113 6.81196941,4.04677084 6.85489359,4.3195567 C6.89781778,4.59234256 6.71147807,4.84827612 6.43869221,4.8912003 C5.94763604,4.96847038 5.4984647,5.12445169 5.20976474,5.35267289 C4.71175846,5.74635354 4.34223022,6.32168619 4.1459271,6.99333382 L4,7.5 C4,7.65472739 3.92971863,7.7930397 3.81933811,7.88475469 C3.73383789,7.95563974 3.62531657,7.99780206 3.51004729,7.99999704 C3.50619885,7.99997174 3.50310272,8 3.5,8 C2.3954305,8 1.5,8.8954305 1.5,10 C1.5,11.1045695 2.3954305,12 3.5,12 L11.5,12 L11.5,12 C12.6045695,12 13.5,11.1045695 13.5,10 C13.5,9.7125578 13.4396326,9.43457099 13.3243957,9.17899564 C13.2108898,8.92725959 13.3229476,8.63117254 13.5746836,8.51766671 C13.8264197,8.40416088 14.1225067,8.51621861 14.2360125,8.76795466 C14.4092226,9.15210414 14.5,9.57012671 14.5,10 C14.5,11.632647 13.1958153,12.9606853 11.5724178,12.9991431 L11.5725124,13 L3.35577784,13 Z M10.7861059,2.58984579 L10.8546008,2.64749711 L11.9271132,3.72639251 C12.1217952,3.92223312 12.1208559,4.23881421 11.9250153,4.43349618 C11.7509348,4.60654682 11.4814543,4.62503254 11.2869876,4.48945893 L11.2179116,4.43139829 L11,4.21299988 L11,7.59699988 L12.418,6.42299988 L12.1901832,6.42844801 C11.9447742,6.4334469 11.737066,6.26076598 11.6899886,6.02842734 L11.6801042,5.9387344 C11.6751053,5.69332542 11.8477862,5.48561715 12.0801249,5.43853976 L12.1698178,5.42865541 L13.7179624,5.3971203 C13.9669132,5.39204927 14.1763921,5.56963775 14.2198695,5.80590708 L14.2281451,5.8970166 L14.2281451,7.42486155 C14.2281451,7.70100393 14.0042875,7.92486155 13.7281451,7.92486155 C13.4826852,7.92486155 13.2785368,7.74798639 13.2362008,7.51473718 L13.2281451,7.42486155 L13.228,7.04999988 L10.8243136,9.04148696 C10.8013902,9.06104087 10.7766783,9.07856006 10.7504576,9.09376501 C10.7287476,9.10601857 10.7125759,9.11397176 10.6961299,9.12099082 C10.6880727,9.12442796 10.6798809,9.12767173 10.6715864,9.1307021 C10.6218449,9.14889225 10.5697938,9.15882867 10.5176591,9.16063371 L10.4797568,9.16051555 L10.4797568,9.16051555 C10.3874684,9.16387697 10.2940768,9.14172884 10.2109446,9.09328253 L10.1373887,9.0410135 L7.771,7.01799988 L7.77150097,7.42486193 L7.7634453,7.51473756 C7.72110934,7.74798677 7.51696086,7.92486193 7.27150097,7.92486193 C7.02604108,7.92486193 6.8218926,7.74798677 6.77955664,7.51473756 L6.77150097,7.42486193 L6.77150097,5.9037398 L6.7795879,5.81368782 C6.81677388,5.60921668 6.97830395,5.44815654 7.18288256,5.41156645 L7.27295772,5.40374192 L8.8214169,5.40825337 L8.91126868,5.41657086 C9.11525295,5.45420929 9.27571507,5.61560916 9.31216425,5.81980928 L9.31995803,5.909708 L9.31164054,5.99955978 C9.27400211,6.20354404 9.11260224,6.36400616 8.90840212,6.40045534 L8.8185034,6.40824913 L8.595,6.40699988 L10,7.60799988 L10,4.18099988 L9.73764121,4.43755183 C9.56156968,4.60857631 9.29189336,4.62394218 9.09900856,4.48612716 L9.03060917,4.42727101 C8.85958469,4.25119947 8.84421882,3.98152316 8.98203384,3.78863836 L9.04088999,3.72023897 L10.1516244,2.64134357 C10.3262568,2.47171696 10.5933042,2.45503733 10.7861059,2.58984579 Z" id="形状结合" fill="#000000" fill-rule="nonzero"></path>
    </g>
</svg>