<?xml version="1.0" encoding="UTF-8"?>
<svg width="16px" height="16px" viewBox="0 0 16 16" version="1.1" xmlns="http://www.w3.org/2000/svg" xmlns:xlink="http://www.w3.org/1999/xlink">
    <title>形状</title>
    <g id="页面-1" stroke="none" stroke-width="1" fill="none" fill-rule="evenodd">
        <path d="M13.5,0 C14.880712,0 16,1.11929 16,2.5 C16,3.88071 14.880712,5 13.5,5 C13.041484,5 12.611798,4.87656 12.24236,4.66111 L12.122023,4.58628 L11.160994,5.54855 L11.150305,5.53485 C11.682637,6.21418 12,7.07003 12,8 C12,8.84954 11.735159,9.63723 11.283535,10.285 L11.159459,10.45343 L12.121011,11.41439 L12.095824,11.4313 C12.496079,11.15909 12.979461,11 13.5,11 C14.880712,11 16,12.11929 16,13.5 C16,14.88071 14.880712,16 13.5,16 C12.119288,16 11,14.88071 11,13.5 C11,13.04453 11.121803,12.6175 11.334614,12.24973 L11.414393,12.12101 L10.453426,11.15946 L10.493136,11.12818 C9.809397,11.67383 8.942789,12 8,12 C7.15457,12 6.370399,11.73772 5.724419,11.29008 L5.54855,11.16099 L4.586277,12.12202 L4.563227,12.08781 C4.838776,12.48962 5,12.97598 5,13.5 C5,14.88071 3.880712,16 2.5,16 C1.119288,16 0,14.88071 0,13.5 C0,12.11929 1.119288,11 2.5,11 C3.027497,11 3.516837,11.16337 3.920182,11.44228 L3.879222,11.41455 L4.840541,10.45343 L4.857477,10.47505 C4.320458,9.79415 4,8.9345 4,8 C4,7.06625 4.319948,6.20722 4.856196,5.52657 C4.866775,5.51315 4.861557,5.51981 4.840541,5.54657 L3.878202,4.58613 L3.927156,4.55288 C3.522483,4.83474 3.030541,5 2.5,5 C1.119288,5 0,3.88071 0,2.5 C0,1.11929 1.119288,0 2.5,0 C3.880712,0 5,1.11929 5,2.5 C5,3.03054 4.834738,3.52248 4.552883,3.92716 L4.586128,3.8782 L5.547562,4.83977 L5.521983,4.85982 C6.203357,4.32139 7.064146,4 8,4 C8.849542,4 9.637228,4.26484 10.284997,4.71646 L10.453426,4.84054 L11.414547,3.87922 L11.442277,3.92018 C11.163371,3.51684 11,3.0275 11,2.5 C11,1.11929 12.119288,0 13.5,0 Z M13.5,12 C12.671573,12 12,12.67157 12,13.5 C12,14.32843 12.671573,15 13.5,15 C14.328427,15 15,14.32843 15,13.5 C15,12.67157 14.328427,12 13.5,12 Z M2.5,12 C1.671573,12 1,12.67157 1,13.5 C1,14.32843 1.671573,15 2.5,15 C3.328427,15 4,14.32843 4,13.5 C4,12.67157 3.328427,12 2.5,12 Z M8,5 C6.343146,5 5,6.34315 5,8 C5,9.65685 6.343146,11 8,11 C9.656854,11 11,9.65685 11,8 C11,6.34315 9.656854,5 8,5 Z M2.5,1 C1.671573,1 1,1.67157 1,2.5 C1,3.32843 1.671573,4 2.5,4 C3.328427,4 4,3.32843 4,2.5 C4,1.67157 3.328427,1 2.5,1 Z M13.5,1 C12.671573,1 12,1.67157 12,2.5 C12,3.32843 12.671573,4 13.5,4 C14.328427,4 15,3.32843 15,2.5 C15,1.67157 14.328427,1 13.5,1 Z" id="形状" fill="#252B3A" fill-rule="nonzero"></path>
    </g>
</svg>