<svg height="16" viewBox="0 0 16 16" width="16" xmlns="http://www.w3.org/2000/svg">
  <path d="m12.7803132 5.62744225c.2192857.42558555.0659087.94940239-.3499481 1.18949746-.2471491.1426916-.5427205.15813074-.7902854.05302437-.1645467-.0644867-.4021084-.07153625-.6856882-.02652172.0749678 1.93758495-.7176011 3.59059314-2.43709517 5.20547424l-.20252009.1861773-.0780081.0681898-.37133517 1.4350729c-.17033317.6556957-.71255668 1.1362709-1.36454895 1.2404991l-.13178437.0157681-.13424546.0053762c-.60606763.0005074-1.16160894-.3240216-1.46142526-.8433187-.05644096-.0977586-.10298565-.201088-.14081241-.3161017l-.04830652-.1662692-.0489435-.138664-.0755502-.1807413c-.04381229-.0974668-.09621951-.2030103-.15514777-.305077-.17189057-.2977232-.33507124-.4690851-.47338117-.5437597l-.05770588-.0261702c-.37586435-.1364563-.68730007-.4004131-.88379495-.7407522-.18286345-.3161616-.25804109-.6831829-.21431371-1.0448889.08796208-.73228043.63993483-1.31662683 1.35387261-1.45415028l.13568762-.02047651.42906174-.04770129.00767136-.06050915c.01265596-.13199843.01532021-.2665074.00672186-.40288984-.09152086-.02731003-.16926221-.07984389-.2259936-.15050665l-.0384962-.05628537-.02895273-.05978828c-.1263366-.32012215-.16932945-.66174197-.14094707-1.01887644-.36667546-.58489627-.98665178-1.14127876-1.85837269-1.64383559-.25479933-.14724054-.46906924-.35237633-.61952468-.6129728l-.06440431-.12352335-.05347682-.12834693-.03072813-.09678952c-.02160622-.02520345-.06037348-.05334483-.13252927-.08316727l-.06063074-.02266238-.21283322-.06901473c-.31637269-.12037133-.58899029-.33324669-.78245715-.61019437l-.09234469-.14850802-.06818786-.1365977c-.0810108-.18370601-.14869579-.40542508-.18062788-.66409586-.05206584-.42176722.00541351-.85304426.21874212-1.26074301.28153714-.5383807.79148265-.94562387 1.49744561-1.08237437.20091152-.03895886.40680917-.04091849.6075901-.00624703l.14946846.03286618.29501741.07951769.06965532-.04279639c.93261954-.54555831 1.97576662-.87456902 3.08587574-.79055664l.2388896.02439603.22573594.03473626c1.35037255.24197632 2.44900458 1.09989048 3.23665991 2.46366605.14307974.24782135.27794095.51654789.40218122.80042271.0551132.12612181.1077674.25100964.157953.3747027.5192944.1871508 1.0305073.491613 1.5246443.87780944.3913692.30587757.7045017.60762518.9098568.83560287l.0437411.05045981.0536677.07431276zm-4.15960616-2.50135628-.11933175-.1975443c-.60641808-.95928733-1.38032972-1.52900328-2.3031962-1.69437383-1.09038546-.1953883-2.12189422.23542761-2.76342305.60345293l-.11563575.06810071-.18258563.11500954-.1489845.10128168-.8018621-.21485831-.07497558-.01412797c-.05048122-.00560639-.10166714-.00357804-.15181591.00614634-.39549722.07661089-.58589428.29807004-.6760614.47049573-.13615998.26021951-.11074423.53225602-.06708931.71141873l.01940804.07079265.03222164.09207973.02314804.05185573.01300673.02396283c.06531828.11313458.17242816.19728189.2992761.23337097.57347634.16318378.84926821.4664322.97961786.69220443l.02926797.0541089.02226733.04705128.02623951.06704164.01788221.06883132c.01012345.03340253.02370598.06457893.04047387.09362177.04293984.07437398.10695393.13437214.18782431.18110459.67529934.3893171 1.23638913.8186334 1.67793162 1.28313912.23896375-.49759351.52246126-.9121443.73940013-1.17345143.15811675-.19112768.44140768-.21770491.63297733-.05922128.19039349.15849.21737213.44103557.05984151.63195363-.32088834.3900454-.6355565.8940315-.8107473 1.40542249l.05782076.09377795c.05925052.10262478.11245545.20476183.16010209.3061516l1.2183958-.85656193c.16250959-.11425236.37462737-.10564832.52593445.00641525l.05367398.04683559.04684665.05654708c.12788256.18295625.10104456.42771558-.05363203.5789105l-.05625674.04671985-1.44176581 1.01306833c.14937318.76341363.0321245 1.42688499-.09491807 1.85365815l-.03469784.11042144-.05569879.1561078-1.23753662.1360647-.075879.0142329c-.19676408.052724-.34571246.2204597-.37061164.4277443-.01312133.1085384.00938216.2184015.06411921.3130408.0578588.1002145.14991164.180466.26475637.22216.43820853.1595632.82543024.5261336 1.1505871 1.0893218.04157369.0720076.07976351.1433772.1146912.2128349l.04996022.1025937.08560594.1927632.06712815.1698295.04938044.1392533.0723194.2291903.02967506.0603883c.08874874.1537173.25419356.2532153.43807923.2530612.20131724 0 .3804182-.1189029.46079925-.2977784l.02818187-.0801669.46388141-1.7897555.17748821-.1517122c2.61367783-2.27209469 3.04071669-4.39253503 1.59928895-7.69111765-.07104125-.162321-.1459464-.31858304-.22383479-.46680773zm-3.4495775-.31061066c.21732642.37642039.08835526.85774728-.28806513 1.07507369-.3764204.21732642-.85774728.08835527-1.0750737-.28806512-.21732641-.3764204-.08835527-.85774729.28806513-1.0750737.37642039-.21732642.85774728-.08835527 1.0750737.28806513zm6.91267906 3.17832687-.0118746-.02052741-.0980027-.10733856c-.1797292-.18879962-.429511-.42166466-.7307272-.65708241-.2208088-.17257479-.4440396-.32555826-.6672585-.4549615.1381736.45125221.2389412.88501828.3023725 1.30505921.2824794-.04191883.5457991-.0434429.7855719.00343583l.1410028.0339997.1323517.04490775c.032598.01381861.0686851.01193362.0996163-.00592453.0414743-.02394516.0619589-.07036524.0562357-.11182857z" fill="#575d6c" transform="translate(2 .5)"/>
</svg>