<svg width="16px" height="16px" viewBox="0 0 16 16" version="1.1" xmlns="http://www.w3.org/2000/svg" xmlns:xlink="http://www.w3.org/1999/xlink">
    <title>域群组</title>
    <g id="域群组" stroke="none" stroke-width="1" fill="none" fill-rule="evenodd">
        <g id="编组">
            <path d="M12,8.1 C14.1539105,8.1 15.9,9.84608948 15.9,12 C15.9,14.1539105 14.1539105,15.9 12,15.9 C9.84608948,15.9 8.1,14.1539105 8.1,12 C8.1,9.84608948 9.84608948,8.1 12,8.1 Z M11.0192954,9.0581459 L10.9883779,9.06881326 C9.77301812,9.48818688 8.9,10.6421413 8.9,12 C8.9,13.3692972 9.78778853,14.5312403 11.0191647,14.9416283 C10.4493748,14.3483504 10.1,13.2415114 10.1,12 C10.1,10.7584886 10.4493748,9.65164959 11.0192954,9.0581459 Z M12.9808353,9.05837166 L12.9924646,9.07049841 C13.5554275,9.66692274 13.9,10.7670508 13.9,12 C13.9,13.2415114 13.5506252,14.3483504 12.9807046,14.9418541 C14.2122115,14.5312403 15.1,13.3692972 15.1,12 C15.1,10.6307028 14.2122115,9.46875973 12.9808353,9.05837166 Z M12,9.4 C11.4678577,9.4 10.9,10.5357153 10.9,12 C10.9,13.4642847 11.4678577,14.6 12,14.6 C12.5321423,14.6 13.1,13.4642847 13.1,12 C13.1,10.5357153 12.5321423,9.4 12,9.4 Z M7.5,8.5 C7.77614237,8.5 8,8.72385763 8,9 C8,9.24545989 7.82312484,9.44960837 7.58987563,9.49194433 L7.5,9.5 L6,9.5 C4.6745166,9.5 3.58996133,10.5315359 3.50531768,11.8356243 L3.5,12 L3.5,13.5 L7,13.5 C7.24545989,13.5 7.44960837,13.6768752 7.49194433,13.9101244 L7.5,14 C7.5,14.2454599 7.32312484,14.4496084 7.08987563,14.4919443 L7,14.5 L3,14.5 C2.75454011,14.5 2.55039163,14.3231248 2.50805567,14.0898756 L2.5,14 L2.5,12 C2.5,10.1314366 3.9642776,8.60487355 5.8079648,8.50517886 L6,8.5 L7.5,8.5 Z M4,7.5 C4.27614237,7.5 4.5,7.72385763 4.5,8 C4.5,8.27614237 4.27614237,8.5 4,8.5 C2.6745166,8.5 1.58996133,9.53153594 1.50531768,10.8356243 L1.5,11 L1.5,12.5 L1.58987563,12.5080557 C1.79396869,12.5450996 1.95490037,12.7060313 1.99194433,12.9101244 L2,13 C2,13.2454599 1.82312484,13.4496084 1.58987563,13.4919443 L1.5,13.5 L1,13.5 C0.754540111,13.5 0.55039163,13.3231248 0.508055669,13.0898756 L0.5,13 L0.5,11 C0.5,9.06700338 2.06700338,7.5 4,7.5 Z M8.5,1.5 C10.1568542,1.5 11.5,2.84314575 11.5,4.5 C11.5,6.15685425 10.1568542,7.5 8.5,7.5 C6.84314575,7.5 5.5,6.15685425 5.5,4.5 C5.5,2.84314575 6.84314575,1.5 8.5,1.5 Z M8.5,2.5 C7.3954305,2.5 6.5,3.3954305 6.5,4.5 C6.5,5.6045695 7.3954305,6.5 8.5,6.5 C9.6045695,6.5 10.5,5.6045695 10.5,4.5 C10.5,3.3954305 9.6045695,2.5 8.5,2.5 Z M6.5,0.5 C6.77614237,0.5 7,0.723857625 7,1 C7,1.27614237 6.77614237,1.5 6.5,1.5 C5.3954305,1.5 4.5,2.3954305 4.5,3.5 C4.5,4.03809786 4.71280993,4.54123706 5.08578644,4.91421356 C5.28104858,5.10947571 5.28104858,5.4260582 5.08578644,5.62132034 C4.89052429,5.81658249 4.5739418,5.81658249 4.37867966,5.62132034 C3.82002587,5.06266655 3.5,4.30604042 3.5,3.5 C3.5,1.84314575 4.84314575,0.5 6.5,0.5 Z" id="形状结合" fill="#71757F" fill-rule="nonzero"></path>
        </g>
    </g>
</svg>