<?xml version="1.0" encoding="UTF-8"?>
<svg width="16px" height="16px" viewBox="0 0 16 16" version="1.1" xmlns="http://www.w3.org/2000/svg" xmlns:xlink="http://www.w3.org/1999/xlink">
    <title>double-up</title>
    <g id="double-up" stroke="none" stroke-width="1" fill="none" fill-rule="evenodd">
        <path d="M4.2843055,7.58859116 L4.35355339,7.64644661 L8,11.293 L11.6464466,7.64644661 C11.820013,7.47288026 12.0894374,7.45359511 12.2843055,7.58859116 L12.3535534,7.64644661 C12.5271197,7.82001296 12.5464049,8.08943736 12.4114088,8.2843055 L12.3535534,8.35355339 L8.35355339,12.3535534 C8.17998704,12.5271197 7.91056264,12.5464049 7.7156945,12.4114088 L7.64644661,12.3535534 L3.64644661,8.35355339 C3.45118446,8.15829124 3.45118446,7.84170876 3.64644661,7.64644661 C3.82001296,7.47288026 4.08943736,7.45359511 4.2843055,7.58859116 Z M4.2843055,3.58859116 L4.35355339,3.64644661 L8,7.293 L11.6464466,3.64644661 C11.820013,3.47288026 12.0894374,3.45359511 12.2843055,3.58859116 L12.3535534,3.64644661 C12.5271197,3.82001296 12.5464049,4.08943736 12.4114088,4.2843055 L12.3535534,4.35355339 L8.35355339,8.35355339 C8.17998704,8.52711974 7.91056264,8.54640489 7.7156945,8.41140884 L7.64644661,8.35355339 L3.64644661,4.35355339 C3.45118446,4.15829124 3.45118446,3.84170876 3.64644661,3.64644661 C3.82001296,3.47288026 4.08943736,3.45359511 4.2843055,3.58859116 Z" id="形状结合" fill="#71757F" fill-rule="nonzero" transform="translate(8.000000, 8.000000) scale(1, -1) translate(-8.000000, -8.000000) "></path>
    </g>
</svg>