<?xml version="1.0" encoding="UTF-8"?>
<svg width="16px" height="16px" viewBox="0 0 16 16" version="1.1" xmlns="http://www.w3.org/2000/svg" xmlns:xlink="http://www.w3.org/1999/xlink">
    <title>download-template-下载模板文件</title>
    <g id="download-template-下载模板文件" stroke="none" stroke-width="1" fill="none" fill-rule="evenodd">
        <path d="M10.5,1 C10.6326082,1 10.7597852,1.05267842 10.8535534,1.14644661 L10.8535534,1.14644661 L13.8535534,4.14644661 C13.9473216,4.2402148 14,4.36739176 14,4.5 L14,4.5 L14,13 C14,14.1045695 13.1045695,15 12,15 L12,15 L4,15 C2.8954305,15 2,14.1045695 2,13 L2,13 L2,3 C2,1.8954305 2.8954305,1 4,1 L4,1 Z M9.5,2 L4,2 C3.44771525,2 3,2.44771525 3,3 L3,3 L3,13 C3,13.5522847 3.44771525,14 4,14 L4,14 L12,14 C12.5522847,14 13,13.5522847 13,13 L13,13 L13,5.5 L10,5.5 C9.75454011,5.5 9.55039163,5.32312484 9.50805567,5.08987563 L9.5,5 L9.5,2 Z M10.5,12 C10.7761424,12 11,12.2238576 11,12.5 C11,12.7454599 10.8231248,12.9496084 10.5898756,12.9919443 L10.5,13 L5.5,13 C5.22385763,13 5,12.7761424 5,12.5 C5,12.2545401 5.17687516,12.0503916 5.41012437,12.0080557 L5.5,12 L10.5,12 Z M8,5 C8.24545989,5 8.44960837,5.17687516 8.49194433,5.41012437 L8.5,5.5 L8.5,9.408 L9.76330086,8.14644661 C9.93686721,7.97288026 10.2062916,7.95359511 10.4011598,8.08859116 L10.4704076,8.14644661 C10.643974,8.32001296 10.6632591,8.58943736 10.5282631,8.7843055 L10.4704076,8.85355339 L8.3490873,10.9748737 C8.17552094,11.1484401 7.90609654,11.1677252 7.7112284,11.0327292 L7.64198052,10.9748737 L5.52066017,8.85355339 C5.32539803,8.65829124 5.32539803,8.34170876 5.52066017,8.14644661 C5.69422652,7.97288026 5.96365092,7.95359511 6.15851907,8.08859116 L6.22776695,8.14644661 L7.5,9.419 L7.5,5.5 C7.5,5.22385763 7.72385763,5 8,5 Z M10.5,2.207 L10.5,4.5 L12.793,4.5 L10.5,2.207 Z" id="形状结合" fill="#7A7E87" fill-rule="nonzero"></path>
    </g>
</svg>