<?xml version="1.0" encoding="UTF-8"?>
<svg width="16px" height="16px" viewBox="0 0 16 16" version="1.1" xmlns="http://www.w3.org/2000/svg" xmlns:xlink="http://www.w3.org/1999/xlink">
    <title>i下载</title>
    <g id="页面-1" stroke="none" stroke-width="1" fill="none" fill-rule="evenodd">
        <g id="i下载">
            <path d="M14.5,14 C14.7761424,14 15,14.2238576 15,14.5 C15,14.7761424 14.7761424,15 14.5,15 L1.5,15 C1.22385763,15 1,14.7761424 1,14.5 C1,14.2238576 1.22385763,14 1.5,14 L14.5,14 Z M8,1 C8.24545989,1 8.44960837,1.17687516 8.49194433,1.41012437 L8.5,1.5 L8.5,10.793 L11.6464466,7.64644661 C11.820013,7.47288026 12.0894374,7.45359511 12.2843055,7.58859116 L12.3535534,7.64644661 C12.5271197,7.82001296 12.5464049,8.08943736 12.4114088,8.2843055 L12.3535534,8.35355339 L8.35355339,12.3535534 L8.34128643,12.3654113 C8.32881868,12.3770608 8.31575424,12.3880797 8.30214392,12.3984173 L8.35355339,12.3535534 C8.32671912,12.3803877 8.29759357,12.4035342 8.26680652,12.422993 C8.25568247,12.4299807 8.24404667,12.4367067 8.23212724,12.4429657 C8.21827569,12.4502504 8.20453886,12.4566485 8.1905951,12.4623894 C8.17802507,12.4675915 8.16473685,12.4724419 8.15119917,12.4767316 C8.13583471,12.481552 8.12047425,12.4856039 8.10498705,12.4889143 C8.09430622,12.4912471 8.08325248,12.4932298 8.07207924,12.494843 C8.05487076,12.4972949 8.03773477,12.498877 8.02056948,12.4995793 C8.01375728,12.4998604 8.00689494,12.5 8,12.5 L7.98043349,12.4996194 C7.96293275,12.4989382 7.94546098,12.4973429 7.92809589,12.4948333 L8,12.5 C7.96390296,12.5 7.92869933,12.4961748 7.89477235,12.4889078 C7.87952575,12.4856039 7.86416529,12.481552 7.84898836,12.4767587 C7.83526315,12.4724419 7.82197493,12.4675915 7.80896344,12.4622078 C7.79546114,12.4566485 7.78172431,12.4502504 7.76824181,12.443195 C7.75595333,12.4367067 7.74431753,12.4299807 7.73298968,12.422812 C7.72729809,12.4192668 7.72146362,12.4154054 7.7156945,12.4114088 L7.69785608,12.3984173 C7.68424576,12.3880797 7.67118132,12.3770608 7.65871357,12.3654113 L7.64644661,12.3535534 L3.64644661,8.35355339 C3.45118446,8.15829124 3.45118446,7.84170876 3.64644661,7.64644661 C3.82001296,7.47288026 4.08943736,7.45359511 4.2843055,7.58859116 L4.35355339,7.64644661 L7.5,10.793 L7.5,1.5 C7.5,1.22385763 7.72385763,1 8,1 Z" id="形状结合" fill="#71757F"></path>
        </g>
    </g>
</svg>