<?xml version="1.0" encoding="UTF-8"?>
<svg width="16px" height="16px" viewBox="0 0 16 16" version="1.1" xmlns="http://www.w3.org/2000/svg" xmlns:xlink="http://www.w3.org/1999/xlink">
    <title>download</title>
    <g id="download" stroke="none" stroke-width="1" fill="none" fill-rule="evenodd">
        <g id="ipd_download" transform="translate(1.500000, 1.500000)" fill="#71757F" fill-rule="nonzero">
            <path d="M12.5,6 C12.7454599,6 12.9496084,6.17687516 12.9919443,6.41012437 L13,6.5 L13,12.5 C13,12.7454599 12.8231248,12.9496084 12.5898756,12.9919443 L12.5,13 L0.5,13 C0.254540111,13 0.0503916296,12.8231248 0.00805566941,12.5898756 L0,12.5 L0,6.50276667 C0,6.22662429 0.223857625,6.00276667 0.5,6.00276667 C0.745459889,6.00276667 0.94960837,6.17964183 0.991944331,6.41289103 L1,6.50276667 L1,12 L12,12 L12,6.5 C12,6.25454011 12.1768752,6.05039163 12.4101244,6.00805567 L12.5,6 Z M3.14644661,6.52022006 C2.95118446,6.32495791 2.95118446,6.00837542 3.14644661,5.81311328 C3.32001296,5.63954692 3.58943736,5.62026177 3.7843055,5.75525783 L3.85355339,5.81311328 L5.997,7.957 L5.99723333,0.5 C5.99723333,0.223857625 6.22109096,-3.73034936e-14 6.49723333,-3.73034936e-14 C6.74269322,-3.73034936e-14 6.9468417,0.176875161 6.98917766,0.410124368 L6.99723333,0.5 L6.997,7.963 L9.14644661,5.81311328 C9.32001296,5.63954692 9.58943736,5.62026177 9.7843055,5.75525783 L9.85355339,5.81311328 C10.0271197,5.98667963 10.0464049,6.25610403 9.91140884,6.45097217 L9.85355339,6.52022006 L6.85355339,9.52022006 C6.8024889,9.57128455 6.74312713,9.60899477 6.67980786,9.63335074 C6.67373265,9.63467239 6.66738241,9.63701955 6.66097299,9.63923999 C6.64161197,9.64673049 6.62190423,9.65208237 6.60199346,9.65621132 C6.59071139,9.65807051 6.57967893,9.66003038 6.56852785,9.66162233 C6.55284438,9.6641456 6.53671989,9.66558515 6.52056948,9.66624601 C6.51287334,9.66648617 6.50507441,9.66666667 6.49723333,9.66666667 L6.47441675,9.66601579 C6.46197228,9.66538214 6.44954698,9.66428581 6.43716882,9.66272682 L6.49723333,9.66666667 C6.4586095,9.66666667 6.42100853,9.66228725 6.38489991,9.65399789 C6.37633269,9.65129476 6.36765219,9.64900584 6.35902639,9.64647986 C6.33762103,9.64116811 6.31697233,9.63369852 6.29700435,9.62496218 C6.2930065,9.62198645 6.28830808,9.61982194 6.28363727,9.61758068 C6.26048849,9.60787777 6.23899943,9.59561283 6.2185788,9.58188127 C6.21826178,9.57984509 6.21697652,9.57896364 6.2156945,9.57807551 C6.19756616,9.56721366 6.18612377,9.55837773 6.17508969,9.54907294 L3.14644661,6.52022006 Z" id="形状结合"></path>
        </g>
    </g>
</svg>