<?xml version="1.0" encoding="UTF-8"?>
<svg width="16px" height="16px" viewBox="0 0 16 16" version="1.1" xmlns="http://www.w3.org/2000/svg" xmlns:xlink="http://www.w3.org/1999/xlink">
    <title>下载asc文件</title>
    <g id="下载asc文件" stroke="none" stroke-width="1" fill="none" fill-rule="evenodd">
        <path d="M12,9.5 C12.2454599,9.5 12.4496084,9.67687516 12.4919443,9.91012437 L12.5,10 L12.5,13.408 L13.7633009,12.1464466 C13.9368672,11.9728803 14.2062916,11.9535951 14.4011598,12.0885912 L14.4704076,12.1464466 C14.643974,12.320013 14.6632591,12.5894374 14.5282631,12.7843055 L14.4704076,12.8535534 L12.3490873,14.9748737 C12.1755209,15.1484401 11.9060965,15.1677252 11.7112284,15.0327292 L11.6419805,14.9748737 L9.52066017,12.8535534 C9.32539803,12.6582912 9.32539803,12.3417088 9.52066017,12.1464466 C9.69422652,11.9728803 9.96365092,11.9535951 10.1585191,12.0885912 L10.227767,12.1464466 L11.5,13.419 L11.5,10 C11.5,9.72385763 11.7238576,9.5 12,9.5 Z M12.5,1 C13.5543618,1 14.4181651,1.81587779 14.4945143,2.85073766 L14.5,3 L14.5,9 C14.5,9.27614237 14.2761424,9.5 14,9.5 C13.7545401,9.5 13.5503916,9.32312484 13.5080557,9.08987563 L13.5,9 L13.5,3 C13.5,2.48716416 13.1139598,2.06449284 12.6166211,2.00672773 L12.5,2 L3.5,2 C2.98716416,2 2.56449284,2.38604019 2.50672773,2.88337887 L2.5,3 L2.5,13 C2.5,13.5128358 2.88604019,13.9355072 3.38337887,13.9932723 L3.5,14 L8,14 C8.27614237,14 8.5,14.2238576 8.5,14.5 C8.5,14.7454599 8.32312484,14.9496084 8.08987563,14.9919443 L8,15 L3.5,15 C2.4456382,15 1.58183488,14.1841222 1.50548574,13.1492623 L1.5,13 L1.5,3 C1.5,1.9456382 2.31587779,1.08183488 3.35073766,1.00548574 L3.5,1 L12.5,1 Z M7.95289069,4.85 C8.6508489,4.85 9.14813209,5.14872767 9.32834699,5.67662541 L9.34311615,5.75084716 C9.3442156,5.76150164 9.34470904,5.77220254 9.34470904,5.78430633 C9.34470904,5.96592379 9.20654351,6.09877526 9.01616645,6.15123687 C8.96902394,6.16066537 8.92965989,6.1660332 8.8916816,6.1660332 C8.73528569,6.1660332 8.59579119,6.09653611 8.53028644,5.96697819 L8.50396417,5.89723785 C8.45006419,5.71066098 8.26065401,5.60157031 7.97071584,5.60157031 C7.59255319,5.60157031 7.4136518,5.72463624 7.4136518,5.89719891 C7.4136518,6.07711049 7.47304976,6.14573598 7.79070696,6.22318682 L8.27453761,6.32667939 C9.14505217,6.50747857 9.47542677,6.80114487 9.47542677,7.48363671 C9.47542677,8.16624628 8.88830216,8.62590305 8.00636612,8.62590305 C7.20191437,8.62590305 6.68058617,8.29835802 6.49862638,7.67348042 C6.48935871,7.63232516 6.48383005,7.60099608 6.48383005,7.56682071 C6.48383005,7.4040949 6.59119747,7.27550673 6.740482,7.21712299 L6.81831435,7.19394845 L6.8646559,7.18518622 C6.89053711,7.18080212 6.90846924,7.17915213 6.93091578,7.17915213 C7.11577442,7.17915213 7.27442827,7.27018302 7.32966913,7.44511854 C7.41878011,7.73225392 7.61051638,7.85650759 8.00636612,7.85650759 C8.40518465,7.85650759 8.64067245,7.70164877 8.64067245,7.49552014 C8.64067245,7.29687732 8.54439628,7.19554858 8.19363261,7.11169497 L8.0670689,7.08428147 L7.72808756,7.01886369 C6.91933762,6.86105882 6.57295577,6.54546647 6.57295577,5.90908234 C6.57295577,5.2654949 7.12372807,4.85 7.95289069,4.85 Z M11.1868811,4.85 C11.9227788,4.85 12.3579768,5.19323167 12.5798544,5.75236459 C12.5980536,5.79786265 12.608408,5.85222332 12.608408,5.89719891 C12.608408,6.06902106 12.494782,6.1927471 12.3213647,6.26127094 C12.2673365,6.27670756 12.2061371,6.28486749 12.1494388,6.28486749 C11.9929623,6.28486749 11.8656159,6.20792908 11.8009165,6.05057441 C11.685832,5.74166335 11.5317817,5.61345374 11.1987645,5.61345374 C10.6950602,5.61345374 10.3921484,6.03447335 10.3921484,6.74092238 C10.3921484,7.46462862 10.6841515,7.86244931 11.2047062,7.86244931 C11.5539807,7.86244931 11.7121859,7.73309915 11.8244942,7.41395576 C11.8856123,7.2480639 12.0206583,7.15538527 12.1850891,7.15538527 C12.2283824,7.15538527 12.2696087,7.16017013 12.3017897,7.16827051 L12.3424047,7.18272407 C12.5200555,7.22220203 12.65,7.3521465 12.65,7.53117042 C12.65,7.58894758 12.6391884,7.63868108 12.6159196,7.69278119 C12.3837589,8.28608077 11.9545936,8.62590305 11.1928228,8.62590305 C10.1672965,8.62590305 9.53956899,7.87773947 9.53956899,6.7468641 C9.53956899,5.60919549 10.1585773,4.85 11.1868811,4.85 Z M4.99137037,4.85594171 C5.81915387,4.85594171 6.27112126,5.19297828 6.32438366,5.87991782 L6.32971329,6.02197491 L6.32971329,7.644063 C6.32971329,7.78912409 6.34571257,7.94013083 6.36883547,8.04771997 L6.38737464,8.11949972 C6.39915881,8.15485223 6.40695558,8.19123714 6.40695558,8.22635103 C6.40695558,8.39012244 6.28302314,8.51424645 6.10077325,8.55449882 L6.01928699,8.5664859 L5.96581156,8.5664859 C5.79556428,8.5664859 5.65588702,8.50880779 5.59461749,8.38041483 L5.57073817,8.31026509 L5.566,8.292 L5.45652523,8.37255195 C5.21278455,8.53192704 4.92386158,8.61401962 4.55168349,8.61401962 C3.81651571,8.61401962 3.35,8.18000705 3.35,7.48363671 C3.35,6.86819858 3.7146515,6.44541423 4.3577313,6.2694135 C4.58890137,6.20636712 4.81050463,6.16959282 5.12106017,6.14855831 L5.518,6.131 L5.51872583,6.02197491 C5.51872583,5.78165844 5.42982693,5.66059208 5.19233834,5.62177819 L5.09619839,5.6110063 L4.98542865,5.60751202 C4.63705933,5.60751202 4.46331894,5.71690412 4.37752408,5.94905471 C4.31591316,6.11628433 4.1761691,6.20168349 4.00504574,6.20168349 C3.93345447,6.20168349 3.86867385,6.191235 3.8232166,6.17095403 C3.64726861,6.1153915 3.52230972,5.97713912 3.52230972,5.80213147 L3.5299508,5.73262641 C3.53278445,5.71927567 3.53654148,5.70389857 3.54143686,5.68478048 C3.60519474,5.48713106 3.76069562,5.2913829 3.9431338,5.14860982 C4.20219179,4.94876508 4.51566087,4.85594171 4.99137037,4.85594171 Z M5.518,6.86 L5.48719136,6.8613087 C4.95906017,6.88290051 4.67689716,6.93514636 4.47616437,7.03551275 C4.28256928,7.1323103 4.19663774,7.26854323 4.19663774,7.48957842 C4.19663774,7.71118816 4.36339775,7.85650759 4.6408092,7.85650759 C4.94288905,7.85650759 5.2170973,7.71595864 5.39663438,7.49154041 C5.47270008,7.39545742 5.50519919,7.3238591 5.51515621,7.20371678 L5.51872583,7.10336697 L5.518,6.86 Z" id="形状结合" fill="#7A7E87" fill-rule="nonzero"></path>
    </g>
</svg>