<?xml version="1.0" encoding="UTF-8"?>
<svg width="16px" height="16px" viewBox="0 0 16 16" version="1.1" xmlns="http://www.w3.org/2000/svg" xmlns:xlink="http://www.w3.org/1999/xlink">
    <title>下载p7s文件</title>
    <g id="下载p7s文件" stroke="none" stroke-width="1" fill="none" fill-rule="evenodd">
        <path d="M12,9.5 C12.2454599,9.5 12.4496084,9.67687516 12.4919443,9.91012437 L12.5,10 L12.5,13.408 L13.7633009,12.1464466 C13.9368672,11.9728803 14.2062916,11.9535951 14.4011598,12.0885912 L14.4704076,12.1464466 C14.643974,12.320013 14.6632591,12.5894374 14.5282631,12.7843055 L14.4704076,12.8535534 L12.3490873,14.9748737 C12.1755209,15.1484401 11.9060965,15.1677252 11.7112284,15.0327292 L11.6419805,14.9748737 L9.52066017,12.8535534 C9.32539803,12.6582912 9.32539803,12.3417088 9.52066017,12.1464466 C9.69422652,11.9728803 9.96365092,11.9535951 10.1585191,12.0885912 L10.227767,12.1464466 L11.5,13.419 L11.5,10 C11.5,9.72385763 11.7238576,9.5 12,9.5 Z M12.5,1 C13.5543618,1 14.4181651,1.81587779 14.4945143,2.85073766 L14.5,3 L14.5,9 C14.5,9.27614237 14.2761424,9.5 14,9.5 C13.7545401,9.5 13.5503916,9.32312484 13.5080557,9.08987563 L13.5,9 L13.5,3 C13.5,2.48716416 13.1139598,2.06449284 12.6166211,2.00672773 L12.5,2 L3.5,2 C2.98716416,2 2.56449284,2.38604019 2.50672773,2.88337887 L2.5,3 L2.5,13 C2.5,13.5128358 2.88604019,13.9355072 3.38337887,13.9932723 L3.5,14 L8,14 C8.27614237,14 8.5,14.2238576 8.5,14.5 C8.5,14.7454599 8.32312484,14.9496084 8.08987563,14.9919443 L8,15 L3.5,15 C2.4456382,15 1.58183488,14.1841222 1.50548574,13.1492623 L1.5,13 L1.5,3 C1.5,1.9456382 2.31587779,1.08183488 3.35073766,1.00548574 L3.5,1 L12.5,1 Z M5.10239629,5.08946037 C6.0693569,5.08946037 6.63941147,5.7949029 6.63941147,6.93338954 C6.63941147,8.07424129 6.03847218,8.83043845 5.07878752,8.83043845 C4.76537278,8.83043845 4.50241781,8.74944267 4.28895683,8.595174 L4.18634636,8.51196935 L4.172,8.497 L4.17229511,9.63659359 C4.17229511,9.81147668 4.07712127,9.93788948 3.92807404,9.99016568 L3.84925218,10.0100069 L3.76259865,10.0167791 C3.58463003,10.0167791 3.44295631,9.94059212 3.37907817,9.79158369 L3.3538142,9.7110266 L3.347,9.63659359 L3.347,5.51686341 C3.347,5.27786194 3.5153348,5.13667791 3.76259865,5.13667791 C3.92547258,5.13667791 4.06314569,5.20227631 4.13294368,5.34183715 L4.16198886,5.41781983 L4.164,5.443 L4.19822063,5.40962501 C4.36326851,5.25893313 4.56192607,5.16016606 4.79905834,5.11602911 L4.94599359,5.0961242 L5.10239629,5.08946037 Z M11.1335936,5.08355818 C11.8273079,5.08355818 12.321679,5.3805365 12.5008688,5.9054409 C12.5127305,5.95288797 12.5171518,5.97646793 12.5171518,6.01264755 C12.5171518,6.19358021 12.3795614,6.32587864 12.1899925,6.37811577 C12.143104,6.38749346 12.103947,6.39283305 12.06614,6.39283305 C11.9104303,6.39283305 11.7715031,6.32361433 11.7062604,6.19456934 L11.680043,6.12510481 L11.6537876,6.05944254 C11.5781464,5.91490887 11.4029546,5.83212479 11.1513002,5.83212479 C10.7761418,5.83212479 10.5989393,5.95402204 10.5989393,6.12478921 C10.5989393,6.30299692 10.6576336,6.3708522 10.9728157,6.44766582 L11.0876473,6.47376581 L11.6192388,6.58795199 C12.3607895,6.77077633 12.647,7.0674037 12.647,7.70067454 C12.647,8.37935554 12.0632879,8.83634064 11.1867133,8.83634064 C10.4443067,8.83634064 9.9444024,8.55557365 9.7319328,8.01804355 L9.6880242,7.88945115 L9.67721241,7.83381754 L9.67330691,7.78330523 C9.67330691,7.62121156 9.78023118,7.49314849 9.92887295,7.43501053 L10.0063684,7.41193482 L10.0867107,7.39858323 L10.1184165,7.39721754 C10.3024441,7.39721754 10.4604489,7.48787607 10.5154704,7.66211685 C10.6038513,7.94689982 10.7939117,8.07006745 11.1867133,8.07006745 C11.5823942,8.07006745 11.8158027,7.91657602 11.8158027,7.71247892 C11.8158027,7.51566797 11.7204823,7.41533115 11.3724206,7.33215424 L11.2468233,7.30495536 L10.9100947,7.23997232 C10.1063017,7.08313466 9.7618398,6.76929161 9.7618398,6.13659359 C9.7618398,5.49666509 10.3094466,5.08355818 11.1335936,5.08355818 Z M8.89,4.525 L8.792,4.675 L6.68671332,4.67529511 C6.51036793,4.67529511 6.3813663,4.57622728 6.32788707,4.42815355 L6.30757145,4.35026462 L6.30062563,4.26559865 C6.30062563,4.06069417 6.41602056,3.89617981 6.60254732,3.85825286 L6.68671332,3.85 L9.40762395,3.85 C9.70759865,3.85 9.87634233,4.01633306 9.87634233,4.3010118 C9.87634233,4.41618913 9.85750936,4.50880742 9.81715755,4.5975268 L9.76953333,4.68563764 L9.49493967,5.07666479 C8.9272952,5.93479249 8.47625822,7.08579032 8.19075254,8.40557898 C8.1434269,8.62192479 8.01219533,8.74427867 7.82223657,8.77148674 L7.73730354,8.77731872 L7.71424324,8.77722315 C7.46493751,8.76831937 7.27448735,8.62283661 7.27448735,8.38532884 C7.27448735,8.34970342 7.28066305,8.31264925 7.28990914,8.27585686 C7.56486337,7.04664971 8.08540226,5.79174608 8.74545718,4.74719287 L8.891,4.525 L8.89,4.525 Z M5.02566779,5.84983137 C4.48992365,5.84983137 4.16049073,6.2735891 4.16049073,6.95109612 C4.16049073,7.6247929 4.50013712,8.06416526 5.01386341,8.06416526 C5.50113496,8.06416526 5.79640978,7.65078051 5.79640978,6.94519393 C5.79640978,6.23778472 5.51607362,5.84983137 5.02566779,5.84983137 Z" id="形状结合" fill="#7A7E87" fill-rule="nonzero"></path>
    </g>
</svg>