<?xml version="1.0" encoding="UTF-8"?>
<svg width="16px" height="16px" viewBox="0 0 16 16" version="1.1" xmlns="http://www.w3.org/2000/svg" xmlns:xlink="http://www.w3.org/1999/xlink">
    <title>function icon/drag</title>
    <g id="页面-1" stroke="none" stroke-width="1" fill="none" fill-rule="evenodd">
        <g id="API-starter-图标入库" transform="translate(-492.000000, -124.000000)">
            <g id="方格备份-3" transform="translate(460.000000, 100.000000)">
                <text id="图标" font-family="PingFangSC-Regular, PingFang SC" font-size="12" font-weight="normal" line-spacing="16" fill="#71757F">
                    <tspan x="27.136" y="61">拖拽</tspan>
                </text>
            </g>
            <path d="M500,135 C500.24546,135 500.449608,135.176875 500.491944,135.410124 L500.5,135.5 L500.5,137.791 L501.446447,136.846447 L501.515694,136.788591 C501.710563,136.653595 501.979987,136.67288 502.153553,136.846447 C502.348816,137.041709 502.348816,137.358291 502.153553,137.553553 L502.153553,137.553553 L500.353553,139.353553 L500.341286,139.365411 C500.328819,139.377061 500.315754,139.38808 500.302144,139.398417 L500.284306,139.411409 C500.278536,139.415405 500.272702,139.419267 500.266807,139.422993 C500.255682,139.429981 500.244047,139.436707 500.232127,139.442966 C500.218276,139.45025 500.204539,139.456649 500.190595,139.462389 C500.178025,139.467592 500.164737,139.472442 500.151199,139.476732 C500.135835,139.481552 500.120474,139.485604 500.104987,139.488914 C500.094306,139.491247 500.083252,139.49323 500.072079,139.494843 C500.054871,139.497295 500.037735,139.498877 500.020569,139.499579 C500.013757,139.49986 500.006895,139.5 500,139.5 L499.980433,139.499619 C499.962933,139.498938 499.945461,139.497343 499.928096,139.494833 L500,139.5 C499.963903,139.5 499.928699,139.496175 499.894772,139.488908 C499.879526,139.485604 499.864165,139.481552 499.848988,139.476759 C499.835263,139.472442 499.821975,139.467592 499.808963,139.462208 C499.795461,139.456649 499.781724,139.45025 499.768242,139.443195 C499.755953,139.436707 499.744318,139.429981 499.73299,139.422812 C499.702406,139.403534 499.673281,139.380388 499.646447,139.353553 L499.697856,139.398417 C499.684246,139.38808 499.671181,139.377061 499.658714,139.365411 L499.646447,139.353553 L497.846447,137.553553 L497.788591,137.484306 C497.653595,137.289437 497.67288,137.020013 497.846447,136.846447 L497.846447,136.846447 L497.915694,136.788591 C498.110563,136.653595 498.379987,136.67288 498.553553,136.846447 L498.553553,136.846447 L499.5,137.793 L499.5,135.5 C499.5,135.223858 499.723858,135 500,135 Z M505.5,133 C505.776142,133 506,133.223858 506,133.5 C506,133.776142 505.776142,134 505.5,134 L494.5,134 C494.223858,134 494,133.776142 494,133.5 C494,133.223858 494.223858,133 494.5,133 L505.5,133 Z M505.5,130 C505.776142,130 506,130.223858 506,130.5 C506,130.776142 505.776142,131 505.5,131 L494.5,131 C494.223858,131 494,130.776142 494,130.5 C494,130.223858 494.223858,130 494.5,130 L505.5,130 Z M500,124.5 L500.011541,124.500132 C500.032401,124.500611 500.053237,124.502387 500.073918,124.505462 L500,124.5 C500.036097,124.5 500.071301,124.503825 500.105228,124.511092 C500.120474,124.514396 500.135835,124.518448 500.151012,124.523241 C500.164737,124.527558 500.178025,124.532408 500.191037,124.537792 C500.204539,124.543351 500.218276,124.54975 500.231758,124.556805 C500.244047,124.563293 500.255682,124.570019 500.26701,124.577188 C500.272702,124.580733 500.278536,124.584595 500.284306,124.588591 L500.302144,124.601583 C500.315754,124.61192 500.328819,124.622939 500.341286,124.634589 L500.353553,124.646447 L502.153553,126.446447 C502.348816,126.641709 502.348816,126.958291 502.153553,127.153553 C501.979987,127.32712 501.710563,127.346405 501.515694,127.211409 L501.446447,127.153553 L500.5,126.208 L500.5,128.5 C500.5,128.776142 500.276142,129 500,129 C499.75454,129 499.550392,128.823125 499.508056,128.589876 L499.5,128.5 L499.5,126.206 L498.553553,127.153553 C498.379987,127.32712 498.110563,127.346405 497.915694,127.211409 L497.846447,127.153553 C497.67288,126.979987 497.653595,126.710563 497.788591,126.515694 L497.846447,126.446447 L499.646447,124.646447 L499.658714,124.634589 C499.671181,124.622939 499.684246,124.61192 499.697856,124.601583 L499.646447,124.646447 C499.673281,124.619612 499.702406,124.596466 499.733193,124.577007 C499.744318,124.570019 499.755953,124.563293 499.767873,124.557034 C499.781724,124.54975 499.795461,124.543351 499.809405,124.537611 C499.821975,124.532408 499.835263,124.527558 499.848801,124.523268 C499.864165,124.518448 499.879526,124.514396 499.895013,124.511086 C499.904988,124.508904 499.91532,124.507028 499.925757,124.505474 C499.947094,124.502338 499.968267,124.500554 499.989463,124.50011 C499.992509,124.500041 499.99625,124.5 500,124.5 Z" id="形状结合" fill="#71757F" fill-rule="nonzero"></path>
        </g>
    </g>
</svg>