<?xml version="1.0" encoding="UTF-8"?>
<svg width="16px" height="16px" viewBox="0 0 16 16" version="1.1" xmlns="http://www.w3.org/2000/svg" xmlns:xlink="http://www.w3.org/1999/xlink">
    <title>dropdown1下拉单选</title>
    <g id="dropdown1下拉单选" stroke="none" stroke-width="1" fill="none" fill-rule="evenodd">
        <path d="M14,3 C14.548403,3 14.994516,3.44162446 15,3.99 L15,3.99 L15,6.4 C15,6.95228475 14.5522847,7.4 14,7.4 L14,7.4 L14,12.4 C14.0111662,12.7091906 13.8939344,13.0092271 13.6761102,13.2289455 C13.458286,13.4486638 13.1592757,13.5684889 12.85,13.56 L12.85,13.56 L3.2,13.56 C2.90295753,13.56 2.61808115,13.4420003 2.40804041,13.2319596 C2.19799966,13.0219189 2.08,12.7370425 2.08,12.44 L2.08,12.44 L2.08,7.44 L2,7.44 C1.44771525,7.44 1,6.99228475 1,6.44 L1,6.44 L1,4 C1,3.44771525 1.44771525,3 2,3 L2,3 Z M13,7.4 L3.07,7.4 L3.07,12.4 C3.07,12.4662742 3.12372583,12.52 3.19,12.52 L3.19,12.52 L12.88,12.52 C12.9462742,12.52 13,12.4662742 13,12.4 L13,12.4 L13,7.4 Z M7.62,8.34 C7.81606109,8.14393892 8.13393891,8.14393892 8.32999999,8.34000001 C8.52606108,8.53606109 8.52606108,8.85393891 8.33,9.05 L8.33,9.05 L5.63,11.75 C5.53461171,11.8457197 5.40513358,11.899669 5.27,11.9 C5.20700854,11.9093064 5.14299146,11.9093064 5.08,11.9 C5.01571266,11.876724 4.95757435,11.8391051 4.91,11.79 L4.91,11.79 L3.68,10.56 C3.48942856,10.3655782 3.48942856,10.0544218 3.68,9.86 C3.7738833,9.76534367 3.90168123,9.71210084 4.035,9.71210084 C4.16831877,9.71210084 4.2961167,9.76534367 4.39,9.86 L4.39,9.86 L5.27,10.74 Z M12,9.8 C12.2761424,9.8 12.5,10.0238576 12.5,10.3 C12.4946799,10.5739085 12.2739085,10.7946799 12,10.8 L12,10.8 L9,10.8 C8.72385763,10.8 8.5,10.5761424 8.5,10.3 C8.5,10.0238576 8.72385763,9.8 9,9.8 L9,9.8 Z M14,4 L2,4 L2,6.4 L14,6.4 L14,4 Z M3.17,4.27 C3.44390845,4.27532011 3.66467989,4.49609155 3.67,4.77 L3.67,4.77 L3.67,5.66 C3.67,5.93614237 3.44614237,6.16 3.17,6.16 C2.89385763,6.16 2.67,5.93614237 2.67,5.66 L2.67,5.66 L2.67,4.77 C2.67,4.49385763 2.89385763,4.27 3.17,4.27 Z" id="形状结合" fill="#252B3A" fill-rule="nonzero"></path>
    </g>
</svg>