<?xml version="1.0" encoding="UTF-8"?>
<svg width="16px" height="16px" viewBox="0 0 16 16" version="1.1" xmlns="http://www.w3.org/2000/svg" xmlns:xlink="http://www.w3.org/1999/xlink">
    <title>droptree下拉树</title>
    <g id="droptree下拉树" stroke="none" stroke-width="1" fill="none" fill-rule="evenodd">
        <path d="M9.5500737,12 C9.7383915,11.9998219 9.9185999,12.0766217 10.0488981,12.212585 C10.1791962,12.3485483 10.2482615,12.5318602 10.2400737,12.72 L10.2400737,12.72 L10.2400737,13 L11.6100737,13 L11.6100737,12.69 C11.6100543,12.5052548 11.6841216,12.3282179 11.8156927,12.1985265 C11.9472637,12.068835 12.1253479,11.9973225 12.3100737,12 L12.3100737,12 L13.8700737,12 C14.0602191,11.9996802 14.2420686,12.0778412 14.3726827,12.2160271 C14.5032968,12.354213 14.5710969,12.5401741 14.5600737,12.73 L14.5600737,12.73 L14.5600737,14.28 C14.5627512,14.4647258 14.4912387,14.64281 14.3615472,14.774381 C14.2318558,14.9059521 14.0548189,14.9800194 13.8700737,14.98 L13.8700737,14.98 L12.3100737,14.98 C11.9234744,14.98 11.6100737,14.6665993 11.6100737,14.28 L11.6100737,14.28 L11.6100737,14 L10.2400737,14 L10.2400737,14.3 C10.2427512,14.4847258 10.1712387,14.66281 10.0415472,14.794381 C9.91185579,14.9259521 9.73481894,15.0000023 9.5500737,15.0000023 L9.5500737,15.0000023 L8.0000737,15.0000023 C7.80542532,15.0004972 7.61935943,14.9199242 7.48654685,14.7776251 C7.35373428,14.6353259 7.28616956,14.4441518 7.3000737,14.25 L7.3000737,14.25 L7.3000737,12.69 C7.3000543,12.5052548 7.37412163,12.3282179 7.50569265,12.1985265 C7.63726368,12.068835 7.81534786,11.9973225 8.0000737,12 L8.0000737,12 Z M13.6600737,1 C14.0172032,1 14.3595617,1.14254011 14.6111499,1.39600583 C14.8627381,1.64947154 15.0027388,1.99288043 15.0001111,2.35 L15.0001111,2.35 L15.0001111,4.27 C15.0001111,4.6253901 14.8588955,4.96622434 14.6075968,5.21752309 C14.356298,5.46882183 14.0154638,5.61 13.6600737,5.61 L13.6600737,5.61 L3.9400737,5.61 L3.9400737,7.12 C3.94794303,7.48072326 4.09883189,7.82353549 4.3595269,8.07297748 C4.62022191,8.32241947 4.96935431,8.45804485 5.3300737,8.45 L5.3300737,8.45 L6.0800737,8.45 C6.35621608,8.45 6.5800737,8.67385763 6.5800737,8.95 C6.5800737,9.22614237 6.35621608,9.45 6.0800737,9.45 L6.0800737,9.45 L5.3300737,9.45 C4.83102018,9.44944194 4.34476831,9.29202227 3.9400737,9 L3.9400737,9 L3.9400737,11.67 C3.94794303,12.0307233 4.09883189,12.3735355 4.3595269,12.6229775 C4.62022191,12.8724195 4.96935431,13.0080449 5.3300737,13 L5.3300737,13 L6.0800737,13 C6.35621608,13 6.5800737,13.2238576 6.5800737,13.5 C6.5800737,13.7761424 6.35621608,14 6.0800737,14 L6.0800737,14 L5.3300737,14 C4.03048594,14.0167064 2.96199505,12.9795103 2.9400737,11.68 L2.9400737,11.68 L2.9400737,5.61 L2.3400737,5.61 C1.60001214,5.61 1.00003633,5.01006156 1.00003633,4.27 L1.00003633,4.27 L1.00003633,2.35 C0.997408555,1.99288043 1.13740929,1.64947154 1.38899748,1.39600583 C1.64058567,1.14254011 1.98294419,1 2.3400737,1 L2.3400737,1 Z M9.2400737,13 L8.2400737,13 L8.2400737,14 L9.2400737,14 L9.2400737,13 Z M13.5600737,13 L12.5600737,13 L12.5600737,14 L13.5600737,14 L13.5600737,13 Z M9.5500737,7.48 C9.73481894,7.48 9.91185579,7.55404793 10.0415472,7.68561895 C10.1712387,7.81718998 10.2427512,7.99527416 10.2400737,8.18 L10.2400737,8.18 L10.2400737,8.46 L11.6100737,8.46 L11.6100737,8.18 C11.6100737,7.79340068 11.9234744,7.48 12.3100737,7.48 L12.3100737,7.48 L13.8700737,7.48 C14.0548189,7.48 14.2318558,7.55404793 14.3615472,7.68561895 C14.4912387,7.81718998 14.5627512,7.99527416 14.5601463,8.18 L14.5601463,8.18 L14.5601463,9.74 C14.5601463,10.1210765 14.2511502,10.43 13.8700737,10.43 L13.8700737,10.43 L12.3100737,10.43 C12.1253479,10.4326775 11.9472637,10.361165 11.8156927,10.2314735 C11.6841216,10.1017821 11.6100543,9.92474524 11.6100737,9.74 L11.6100737,9.74 L11.6100737,9.46 L10.2400737,9.46 L10.2400737,9.74 C10.2400737,10.1210765 9.93115018,10.43 9.5500737,10.43 L9.5500737,10.43 L8.0000737,10.43 C7.81534786,10.4326775 7.63726368,10.361165 7.50569265,10.2314735 C7.37412163,10.1017821 7.3000737,9.92474524 7.3000737,9.74 L7.3000737,9.74 L7.3000737,8.18 C7.3000737,7.79340068 7.61347438,7.48 8.0000737,7.48 L8.0000737,7.48 Z M9.2400737,8.48 L8.2400737,8.48 L8.2400737,9.43 L9.2400737,9.43 L9.2400737,8.48 Z M13.5600737,8.48 L12.5600737,8.48 L12.5600737,9.43 L13.5600737,9.43 L13.5600737,8.48 Z M13.6600737,1.99999997 L2.3400737,1.99999997 C2.24814044,1.99996023 2.16010941,2.037151 2.09605162,2.10309284 C2.03199383,2.16903468 1.99736977,2.2581065 2.0000737,2.35 L2.0000737,2.35 L2.0000737,4.27 C2.0000737,4.45777681 2.15229689,4.61 2.3400737,4.61 L2.3400737,4.61 L13.6600737,4.61 C13.8478505,4.61 14.0000737,4.45777681 14.0000737,4.27 L14.0000737,4.27 L14.0000737,2.34 C14.0000737,2.15222319 13.8478505,1.99999997 13.6600737,1.99999997 L13.6600737,1.99999997 Z M3.4400737,2.61 C3.71398215,2.61532011 3.9347536,2.83609155 3.9400737,3.11 L3.9400737,3.11 L3.9400737,3.51 C3.9347536,3.78390845 3.71398215,4.00467989 3.4400737,4.01 C3.16393133,4.01 2.9400737,3.78614237 2.9400737,3.51 L2.9400737,3.51 L2.9400737,3.11 C2.9400737,2.83385763 3.16393133,2.61 3.4400737,2.61 Z" id="形状结合" fill="#252B3A" fill-rule="nonzero"></path>
    </g>
</svg>