<?xml version="1.0" encoding="UTF-8"?>
<svg width="16px" height="16px" viewBox="0 0 16 16" version="1.1" xmlns="http://www.w3.org/2000/svg" xmlns:xlink="http://www.w3.org/1999/xlink">
    <title>dropdown2下拉多选</title>
    <g id="dropdown2下拉多选" stroke="none" stroke-width="1" fill="none" fill-rule="evenodd">
        <path d="M4.24,11.0600002 C4.42266374,10.8620588 4.73084573,10.8486596 4.93,11.0300002 C5.12057144,11.224422 5.12057144,11.5355785 4.93,11.7300002 L4.93,11.7300002 L3.5,13.1700002 C3.40541767,13.2608407 3.28101022,13.3141582 3.15,13.3200002 C3.08754035,13.3348774 3.02245965,13.3348774 2.96,13.3200002 C2.89571266,13.2967242 2.83757435,13.2591053 2.79,13.2100002 L2.79,13.2100002 L2.14,12.5600002 C1.94670035,12.3667005 1.94670036,12.0532999 2.14000001,11.8600002 C2.33329967,11.6667006 2.64670034,11.6667006 2.84,11.8600002 L2.84,11.8600002 L3.14,12.1700002 Z M11.84,11.8200002 C12.1161424,11.8200002 12.34,12.0438578 12.34,12.3200002 C12.34,12.5961426 12.1161424,12.8200002 11.84,12.8200002 L11.84,12.8200002 L6.24,12.8200002 C5.96385763,12.8200002 5.74,12.5961426 5.74,12.3200002 C5.74,12.0438578 5.96385763,11.8200002 6.24,11.8200002 L6.24,11.8200002 Z M4.24,8.34000021 C4.43472279,8.17834857 4.72051389,8.19158069 4.8994667,8.37053351 C5.07841951,8.54948632 5.09165164,8.83527742 4.93,9.03000021 L4.93,9.03000021 L3.5,10.4800002 C3.40768477,10.5742073 3.28188463,10.6281217 3.15,10.6300002 C3.08709724,10.6404443 3.02290276,10.6404443 2.96,10.6300002 C2.89768831,10.6028971 2.84025589,10.565735 2.79,10.5200002 L2.79,10.5200002 L2.14,9.87000021 C2.01495704,9.74495725 1.96612221,9.56270317 2.01189111,9.39189132 C2.05766001,9.22107946 2.19107925,9.08766021 2.36189111,9.04189132 C2.53270296,8.99612242 2.71495704,9.04495725 2.84,9.17000021 L2.84,9.17000021 L3.14,9.43000021 Z M11.84,9.09000021 C12.1161424,9.09000021 12.34,9.31385783 12.34,9.59000021 C12.34,9.86614258 12.1161424,10.0900002 11.84,10.0900002 L11.84,10.0900002 L6.24,10.0900002 C5.96385763,10.0900002 5.74,9.86614258 5.74,9.59000021 C5.74,9.31385783 5.96385763,9.09000021 6.24,9.09000021 L6.24,9.09000021 Z M14,3.0000001 C14.540778,2.9997568 14.9837767,3.42946553 15,3.97000021 L15,3.97000021 L15,6.54000021 C15,7.09228496 14.5522847,7.54000021 14,7.54000021 L14,7.54000021 L2,7.54000021 C1.44771525,7.54000021 1,7.09228496 1,6.54000021 L1,6.54000021 L1,4.0000001 C1,3.44771546 1.44771525,3.0000001 2,3.0000001 L2,3.0000001 Z M14,3.95000021 L2,3.95000021 L2,6.54000021 L14,6.54000021 L14,6.54000021 L14,3.95000021 Z M2.99,4.29000021 C3.26614237,4.29000021 3.49,4.51385783 3.49,4.79000021 L3.49,4.79000021 L3.49,5.68000021 C3.49,5.80995629 3.43837515,5.9345897 3.34648232,6.02648253 C3.2545895,6.11837535 3.12995608,6.17000021 3,6.17000021 C2.73662539,6.18161966 2.51126469,5.98277199 2.49,5.72000021 L2.49,5.72000021 L2.49,4.79000021 C2.49,4.51385783 2.71385763,4.29000021 2.99,4.29000021 Z" id="形状结合" fill="#252B3A" fill-rule="nonzero"></path>
    </g>
</svg>