<?xml version="1.0" encoding="UTF-8"?>
<svg width="16px" height="16px" viewBox="0 0 16 16" version="1.1" xmlns="http://www.w3.org/2000/svg" xmlns:xlink="http://www.w3.org/1999/xlink">
    <title>function icon/editor</title>
    <g id="页面-1" stroke="none" stroke-width="1" fill="none" fill-rule="evenodd">
        <g id="API-starter-图标入库" transform="translate(-392.000000, -124.000000)">
            <g id="方格备份-16" transform="translate(360.000000, 100.000000)">
                <text id="图标" font-family="PingFangSC-Regular, PingFang SC" font-size="12" font-weight="normal" line-spacing="16" fill="#71757F">
                    <tspan x="21.136" y="61">修改者</tspan>
                </text>
            </g>
            <path d="M400,125.5 C401.932997,125.5 403.5,127.067003 403.5,129 C403.5,130.165458 402.93036,131.197869 402.054314,131.833999 C402.475207,131.97158 402.879837,132.154344 403.263824,132.377698 C403.502522,132.516542 403.58347,132.822601 403.444626,133.061299 C403.305782,133.299998 402.999723,133.380946 402.761025,133.242102 C401.929472,132.758412 400.984191,132.5 400,132.5 C396.962434,132.5 394.5,134.962434 394.5,138 C394.5,138.276142 394.276142,138.5 394,138.5 C393.723858,138.5 393.5,138.276142 393.5,138 C393.5,135.128941 395.36143,132.692642 397.943281,131.832113 C397.068789,131.196326 396.5,130.164587 396.5,129 C396.5,127.067003 398.067003,125.5 400,125.5 Z M407.62132,133.87868 C407.794887,134.052246 407.814172,134.32167 407.679176,134.516539 L407.62132,134.585786 L404.085786,138.12132 C403.890524,138.316582 403.573942,138.316582 403.37868,138.12132 C403.205113,137.947754 403.185828,137.67833 403.320824,137.483461 L403.37868,137.414214 L406.914214,133.87868 C407.109476,133.683418 407.426058,133.683418 407.62132,133.87868 Z M400,126.5 C398.619288,126.5 397.5,127.619288 397.5,129 C397.5,130.380712 398.619288,131.5 400,131.5 C401.380712,131.5 402.5,130.380712 402.5,129 C402.5,127.619288 401.380712,126.5 400,126.5 Z" id="形状结合" fill="#71757F" fill-rule="nonzero"></path>
        </g>
    </g>
</svg>