<?xml version="1.0" encoding="UTF-8"?>
<svg width="16px" height="16px" viewBox="0 0 16 16" version="1.1" xmlns="http://www.w3.org/2000/svg" xmlns:xlink="http://www.w3.org/1999/xlink">
    <title>icon-edit-3</title>
    <g id="icon-edit-3" stroke="none" stroke-width="1" fill="none" fill-rule="evenodd">
        <path d="M14.5,14 C14.7761424,14 15,14.2238576 15,14.5 C15,14.7761424 14.7761424,15 14.5,15 L9.5,15 C9.22385763,15 9,14.7761424 9,14.5 C9,14.2238576 9.22385763,14 9.5,14 L14.5,14 Z M12.3271836,1.33604507 L12.4409961,1.43891601 L14.5602701,3.55818996 C15.1089151,4.10683497 15.1432054,4.97505901 14.663141,5.5636514 L14.5602701,5.67746391 L6.07849414,14.1592398 C5.87263519,14.3650988 5.61206819,14.5057819 5.3292686,14.5656561 L5.18616644,14.5887867 L1.55455325,14.9967972 C1.26491271,15.0293382 1.01597439,14.8096891 1,14.5301116 L1.00238886,14.4446328 L1.41039932,10.8130196 C1.44290301,10.5237113 1.55882105,10.2512229 1.74252045,10.0280301 L1.83994623,9.92069193 L10.3217221,1.43891601 C10.8703672,0.890270998 11.7385912,0.855980685 12.3271836,1.33604507 Z M9.26207617,3.91118893 L2.54637088,10.6271166 C2.48632869,10.6871588 2.44291992,10.7611629 2.41963554,10.841877 L2.40318858,10.9245591 L2.06501393,13.9334899 L5.07462692,13.5959975 C5.13088132,13.5896773 5.1852279,13.5738958 5.23551791,13.5496873 L5.3076419,13.5071836 L5.37206949,13.4528152 L12.0873481,6.73646082 L9.26207617,3.91118893 Z M11.0973279,2.08754102 L11.0281468,2.14534066 L9.96839414,3.20487096 L12.793666,6.03014285 L13.8538454,4.97103926 C14.0272443,4.79764035 14.0465109,4.52847585 13.911645,4.3337957 L13.8538454,4.26461461 L11.7345715,2.14534066 C11.5611725,1.97194174 11.292008,1.9526752 11.0973279,2.08754102 Z" id="形状" fill="#D8D8D8"></path>
    </g>
</svg>