<?xml version="1.0" encoding="UTF-8"?>
<svg width="16px" height="16px" viewBox="0 0 16 16" version="1.1" xmlns="http://www.w3.org/2000/svg" xmlns:xlink="http://www.w3.org/1999/xlink">
    <title>email</title>
    <g id="email" stroke="none" stroke-width="1" fill="none" fill-rule="evenodd">
        <path d="M13,2 C13.102522,2 13.2032423,2.00771401 13.3016122,2.02259327 C13.324268,2.02602542 13.3463502,2.02975388 13.3683063,2.03384105 C13.3964003,2.03906545 13.4246404,2.04495875 13.4526552,2.05144063 C13.4638248,2.05402523 13.4749194,2.0566936 13.4859775,2.05945401 C13.5168033,2.06714864 13.547366,2.07556459 13.5776264,2.08467806 L13.6049749,2.09313017 C13.6097124,2.09463182 13.6144422,2.09615064 13.6191643,2.09768655 C13.6575431,2.11016786 13.6954854,2.12380706 13.7328769,2.13854032 C13.7474103,2.14426751 13.7617927,2.15013136 13.7760903,2.15615667 C13.8093936,2.17018936 13.8423263,2.18514142 13.8747679,2.20094513 C13.8826018,2.20475996 13.8906646,2.20875412 13.8986963,2.21280083 C13.9322499,2.22971442 13.9649338,2.24735593 13.9970552,2.26586426 C14.0112859,2.27406052 14.0257129,2.28261392 14.0400217,2.291342 C14.0655974,2.30694193 14.0908327,2.32312499 14.1156722,2.33985081 C14.1325241,2.35120254 14.148901,2.36259383 14.1650971,2.37422115 C14.1877774,2.39050321 14.2101202,2.40726158 14.2320939,2.42446967 C14.2473153,2.43638526 14.2626437,2.44875274 14.2777834,2.46133943 C14.3000125,2.47982486 14.3216408,2.49860721 14.3428544,2.51783868 C14.3560682,2.5298141 14.3693459,2.54217858 14.3824532,2.5547196 C14.4072968,2.57850468 14.4310922,2.60246241 14.4542731,2.62700676 C14.4624223,2.63563152 14.4707881,2.64464985 14.4790713,2.65374488 C14.5007456,2.67755518 14.5215412,2.70151386 14.5417664,2.72596161 C14.5545491,2.74140474 14.5674257,2.75745648 14.580057,2.77370827 C14.5970686,2.79560328 14.6134398,2.81758731 14.6293636,2.83991246 C14.6402614,2.85518446 14.6511774,2.87095519 14.6618703,2.88688818 C14.6771274,2.90963639 14.6916143,2.9322012 14.7056543,2.95507 C14.7159541,2.97184101 14.7261634,2.98903686 14.7361199,3.00639627 C14.7975173,3.11338292 14.8494783,3.22706664 14.8905648,3.34582567 C14.9144786,3.41500204 14.9345937,3.48542022 14.9508372,3.55730627 C14.9830285,3.69982804 15,3.84793206 15,4 L15,12 C15,13.1045695 14.1045695,14 13,14 L3,14 C1.8954305,14 1,13.1045695 1,12 L1,4 C1,2.8954305 1.8954305,2 3,2 L13,2 Z M6.149,7.678 L2.64525636,12.9352528 C2.72069094,12.9638809 2.80048909,12.9836448 2.88337887,12.9932723 L3,13 L13,13 C13.1249216,13 13.2444931,12.9770939 13.3547436,12.9352528 L9.85,7.678 L8.58123819,8.58482986 C8.23354067,8.83318523 7.76645933,8.83318523 7.41876181,8.58482986 L6.149,7.678 Z M14,4.714 L10.665,7.096 L13.995,12.09 L14,12 L14,4.714 Z M2,4.714 L2,12 L2.005,12.09 L5.334,7.095 L2,4.714 Z M13,3 L3,3 L2.87323776,3.00795806 C2.86446235,3.00906815 2.85572239,3.01029197 2.8470194,3.011628 C2.81495441,3.01656108 2.78370439,3.02293719 2.75302051,3.030732 L2.8470194,3.011628 C2.80233293,3.01848795 2.75862125,3.02830601 2.71609058,3.04087595 L2.75302051,3.030732 C2.71411073,3.04061649 2.67611134,3.05278231 2.63917308,3.06707871 L2.71609058,3.04087595 C2.67585558,3.05276741 2.63667753,3.06712169 2.59873103,3.08376423 L2.63917308,3.06707871 C2.60084809,3.08191182 2.56366539,3.09903848 2.52779338,3.11829032 L2.59873103,3.08376423 C2.56334792,3.09928251 2.52903559,3.11679032 2.49593557,3.13614613 L2.52779338,3.11829032 C2.49167372,3.13767507 2.45688289,3.15921444 2.42359279,3.18273654 L2.49593557,3.13614613 C2.4612199,3.15644671 2.42783778,3.17878009 2.3959525,3.20298298 L2.42359279,3.18273654 C2.39149471,3.20541638 2.36079182,3.2299395 2.33163819,3.25615182 L2.3959525,3.20298298 C2.36419444,3.22708931 2.3339213,3.25305025 2.30529444,3.28070446 L2.33163819,3.25615182 C2.30072264,3.2839483 2.27154927,3.31364432 2.24430182,3.34505616 L2.30529444,3.28070446 C2.27675406,3.30827513 2.24985002,3.33752886 2.22474221,3.36830575 L2.24430182,3.34505616 C2.21194547,3.38235771 2.18230496,3.42207882 2.15568797,3.46391182 L2.102,3.558 L8,7.77109639 L13.896,3.559 L13.8767769,3.51871532 C13.8507606,3.47142099 13.821029,3.42645859 13.7879752,3.38422129 C13.7728043,3.36466319 13.7567995,3.34572989 13.7401253,3.32741975 L13.7879752,3.38422129 C13.766179,3.35636934 13.7429382,3.32970234 13.7183656,3.30433303 L13.7401253,3.32741975 C13.7131373,3.29778396 13.6843956,3.26978068 13.6540695,3.24357111 L13.7183656,3.30433303 C13.6919979,3.2771105 13.6640967,3.25138216 13.6348013,3.22728732 L13.6540695,3.24357111 C13.5987254,3.19573948 13.5381042,3.15388183 13.4732347,3.11897801 C13.464239,3.11400094 13.4551198,3.10927234 13.4459199,3.10468138 L13.4732347,3.11897801 C13.4045004,3.08199473 13.3309965,3.05281853 13.2539465,3.03261501 C13.2459518,3.03043804 13.2381503,3.02849849 13.2303133,3.02665115 L13.2539465,3.03261501 C13.2101249,3.02112442 13.1651563,3.0125362 13.1192658,3.00706479 L13,3 Z" id="形状结合" fill="#71757F" fill-rule="nonzero"></path>
    </g>
</svg>