<?xml version="1.0" encoding="UTF-8"?>
<svg width="16px" height="16px" viewBox="0 0 16 16" version="1.1" xmlns="http://www.w3.org/2000/svg" xmlns:xlink="http://www.w3.org/1999/xlink">
    <title>email-set</title>
    <g id="email-set" stroke="none" stroke-width="1" fill="none" fill-rule="evenodd">
        <g transform="translate(1.000000, 2.000000)" fill="#71757F" fill-rule="nonzero" id="形状结合">
            <path d="M10.7566033,5.88919256 C11.2166188,5.62360248 11.7833812,5.62360248 12.2433967,5.88919256 L12.2433967,5.88919256 L14.2566033,7.05151788 C14.7166188,7.31710796 15,7.80793866 15,8.3391188 L15,8.3391188 L15,10.6637695 C15,11.1949496 14.7166188,11.6857803 14.2566033,11.9513704 L14.2566033,11.9513704 L12.2433967,13.1136957 C11.7833812,13.3792858 11.2166188,13.3792858 10.7566033,13.1136957 L10.7566033,13.1136957 L8.74339674,11.9513704 C8.28338124,11.6857803 8,11.1949496 8,10.6637695 L8,10.6637695 L8,8.3391188 C8,7.80793866 8.28338124,7.31710796 8.74339674,7.05151788 L8.74339674,7.05151788 L10.7566033,5.88919256 Z M11.7477989,6.74759318 C11.5944604,6.65906315 11.4055396,6.65906315 11.2522011,6.74759318 L11.2522011,6.74759318 L9.2389946,7.9099185 C9.0856561,7.99844852 8.99119566,8.1620588 8.99119566,8.3391188 L8.99119566,8.3391188 L8.99119566,10.6637695 C8.99119566,10.8408295 9.0856561,11.0044397 9.2389946,11.0929698 L9.2389946,11.0929698 L11.2522011,12.2552951 C11.4055396,12.3438251 11.5944604,12.3438251 11.7477989,12.2552951 L11.7477989,12.2552951 L13.7610054,11.0929698 C13.9143439,11.0044397 14.0088043,10.8408295 14.0088043,10.6637695 L14.0088043,10.6637695 L14.0088043,8.3391188 C14.0088043,8.1620588 13.9143439,7.99844852 13.7610054,7.9099185 L13.7610054,7.9099185 L11.7477989,6.74759318 Z M0.02387944,1.69000511 L0.03377448,1.63205152 C0.0577177,1.50329862 0.09399541,1.37888044 0.1413353,1.26006926 C0.14680908,1.24632919 0.15247445,1.23256134 0.15828799,1.21887163 C0.17448504,1.18072221 0.19190467,1.14303592 0.21043988,1.10600505 C0.21109506,1.10469526 0.21194678,1.10299878 0.21280083,1.10130369 C0.22949834,1.06792876 0.24973626,1.03054543 0.27110572,0.99390294 C0.27753884,0.98286425 0.28438493,0.97138374 0.291342,0.95997834 C0.30694193,0.93440259 0.32312499,0.90916731 0.33985081,0.88432784 C0.35120254,0.86747589 0.36259383,0.85109897 0.37422115,0.83490293 C0.39050321,0.81222262 0.40726158,0.7898798 0.42446967,0.76790607 C0.43638526,0.75268473 0.44875274,0.7373563 0.46133943,0.7222166 C0.47982486,0.69998753 0.49860721,0.67835923 0.51783868,0.65714561 C0.5298141,0.64393176 0.54217858,0.63065413 0.5547196,0.61754679 C0.57850468,0.59270319 0.60246241,0.56890778 0.62700676,0.54572694 C0.63563152,0.53757773 0.64464985,0.52921185 0.65374488,0.52092873 C0.67755518,0.49925443 0.70151386,0.47845885 0.72596161,0.45823359 C0.74140474,0.44545086 0.75745648,0.43257431 0.77370827,0.41994297 C0.79560328,0.40293139 0.81758731,0.3865602 0.83991246,0.37063639 C0.85518446,0.35973864 0.87095519,0.34882261 0.88688818,0.33812965 C0.90963639,0.32287264 0.9322012,0.30838565 0.95507,0.29434569 C0.97377274,0.28285952 0.99294074,0.27152327 1.01231081,0.26050122 C1.04219178,0.24349147 1.07285768,0.22707679 1.10398793,0.21145094 C1.11295966,0.20695101 1.12140292,0.20279078 1.12987953,0.19868863 C1.16688711,0.18076422 1.20513578,0.16369899 1.24399565,0.14782117 C1.25197918,0.14456218 1.25936544,0.14159871 1.26677333,0.13867818 C1.29241669,0.1285577 1.31899162,0.11871885 1.34582567,0.1094352 C1.36985316,0.10112901 1.39362379,0.09340909 1.41758493,0.08612683 C1.43475827,0.08090463 1.4523213,0.07582718 1.46998194,0.07098577 C1.49891949,0.063055 1.52799082,0.05578697 1.55730627,0.04916278 C1.58019435,0.04399306 1.60305654,0.03924888 1.62605799,0.03489855 C1.65079515,0.03021703 1.67591696,0.02595748 1.70119347,0.02217093 C1.79882744,0.00755632 1.89853128,0 2,0 L12,0 C13.0543618,0 13.9181651,0.81587779 13.9945143,1.85073766 L14,2 L14,4.5 C14,4.77614237 13.7761424,5 13.5,5 C13.2545401,5 13.0503916,4.82312484 13.0080557,4.58987563 L13,4.5 L13,2.714 L7.58123819,6.58482986 C7.23354067,6.83318523 6.76645933,6.83318523 6.41876181,6.58482986 L1,2.714 L1,10 C1,10.5128358 1.38604019,10.9355072 1.88337887,10.9932723 L2,11 L6.5,11 C6.77614237,11 7,11.2238576 7,11.5 C7,11.7454599 6.82312484,11.9496084 6.58987563,11.9919443 L6.5,12 L2,12 C0.9456382,12 0.08183488,11.1841222 0.00548574,10.1492623 L0,10 L0,2 L0.004,1.883 L0.00548574,1.85073766 C0.00912141,1.80145861 0.01454269,1.75267613 0.02168514,1.70445466 L0.02387944,1.69000511 L0.02387944,1.69000511 Z M11.5,8 C12.3284271,8 13,8.6715729 13,9.5 C13,10.3284271 12.3284271,11 11.5,11 C10.6715729,11 10,10.3284271 10,9.5 C10,8.6715729 10.6715729,8 11.5,8 Z M11.5,9 C11.2238576,9 11,9.2238576 11,9.5 C11,9.7761424 11.2238576,10 11.5,10 C11.7761424,10 12,9.7761424 12,9.5 C12,9.2238576 11.7761424,9 11.5,9 Z M12,1 L2,1 L1.87323776,1.00795806 C1.86446235,1.00906815 1.85572239,1.01029197 1.8470194,1.011628 C1.81495441,1.01656108 1.78370439,1.02293719 1.75302051,1.030732 L1.8470194,1.011628 C1.80233293,1.01848795 1.75862125,1.02830601 1.71609058,1.04087595 L1.75302051,1.030732 C1.71411073,1.04061649 1.67611134,1.05278231 1.63917308,1.06707871 L1.71609058,1.04087595 C1.67585558,1.05276741 1.63667753,1.06712169 1.59873103,1.08376423 L1.63917308,1.06707871 C1.60084809,1.08191182 1.56366539,1.09903848 1.52779338,1.11829032 L1.59873103,1.08376423 C1.56334792,1.09928251 1.52903559,1.11679032 1.49593557,1.13614613 L1.52779338,1.11829032 C1.49167372,1.13767507 1.45688289,1.15921444 1.42359279,1.18273654 L1.49593557,1.13614613 C1.4612199,1.15644671 1.42783778,1.17878009 1.3959525,1.20298298 L1.42359279,1.18273654 C1.3925584,1.2046648 1.36282825,1.2283162 1.33454162,1.25355147 L1.3959525,1.20298298 C1.36419444,1.22708931 1.3339213,1.25305025 1.30529444,1.28070446 L1.33454162,1.25355147 C1.30254785,1.28209397 1.27240075,1.3126627 1.24430182,1.34505616 L1.30529444,1.28070446 C1.27675406,1.30827513 1.24985002,1.33752886 1.22474221,1.36830575 L1.24430182,1.34505616 C1.21194547,1.38235771 1.18230496,1.42207882 1.15568797,1.46391182 L1.102,1.558 L7,5.77109639 L12.896,1.559 L12.8767769,1.51871532 C12.8507606,1.47142099 12.821029,1.42645859 12.7879752,1.38422129 C12.7728043,1.36466319 12.7567995,1.34572989 12.7401253,1.32741975 L12.7879752,1.38422129 C12.766179,1.35636934 12.7429382,1.32970234 12.7183656,1.30433303 L12.7401253,1.32741975 C12.7131373,1.29778396 12.6843956,1.26978068 12.6540695,1.24357111 L12.7183656,1.30433303 C12.6919979,1.2771105 12.6640967,1.25138216 12.6348013,1.22728732 L12.6540695,1.24357111 C12.598145,1.19523787 12.5368321,1.15300456 12.4711924,1.11788218 C12.4628876,1.11330116 12.4544383,1.10893227 12.4459199,1.10468138 L12.4711924,1.11788218 C12.4030451,1.08141807 12.3302339,1.05261857 12.2539465,1.03261501 C12.2459518,1.03043804 12.2381503,1.02849849 12.2303133,1.02665115 L12.2539465,1.03261501 C12.2101249,1.02112442 12.1651563,1.0125362 12.1192658,1.00706479 L12,1 Z"></path>
        </g>
    </g>
</svg>