<?xml version="1.0" encoding="UTF-8"?>
<svg width="16px" height="16px" viewBox="0 0 16 16" version="1.1" xmlns="http://www.w3.org/2000/svg" xmlns:xlink="http://www.w3.org/1999/xlink">
    <title>chinese to english</title>
    <g id="页面-1" stroke="none" stroke-width="1" fill="none" fill-rule="evenodd">
        <path d="M8.00071999,5.60095599 C9.32390676,5.60095599 10.399096,6.67613986 10.399096,7.99932001 L10.399096,7.99932001 L10.399096,13.600836 C10.399096,14.9232162 9.32390676,16 8.00071999,16 L8.00071999,16 L2.39917601,16 C1.07678923,16 0,14.9232162 0,13.600836 L0,13.600836 L0,7.99932001 C0,6.67613986 1.07678923,5.60095599 2.39917601,5.60095599 L2.39917601,5.60095599 L8.00071999,5.60095599 Z M5.84154158,7.70812438 L4.64155358,7.75772363 C4.67435326,7.84092239 4.70795292,7.98252026 4.74155258,8.18251726 C4.79115209,8.3665145 4.82475175,8.50811238 4.84155158,8.60811088 L4.84155158,8.60811088 L2.31677683,8.60811088 L2.31677683,9.55769663 L3.21676783,9.55769663 C3.51676483,10.4744829 3.93276067,11.2408714 4.46635534,11.8576621 C3.89916101,12.2080569 3.16636834,12.5160523 2.26637734,12.7824483 C2.39917601,12.9496458 2.59197408,13.2328415 2.84157158,13.6328355 C2.85837142,13.665635 2.87437126,13.6904346 2.89197108,13.7072344 C3.87436126,13.3576396 4.67435326,12.9824453 5.29114709,12.5824513 C5.94154058,12.999245 6.75833242,13.3576396 7.74152258,13.6576351 C7.90792092,13.3408399 8.11671883,13.0152448 8.36631634,12.6824498 C7.46632534,12.5000525 6.71673283,12.2248566 6.11673883,11.8576621 C6.68313317,11.3072704 7.10792892,10.5408819 7.39192608,9.55769663 L7.39192608,9.55769663 L8.29111709,9.55769663 L8.29111709,8.60811088 L5.96634034,8.60811088 C5.93274067,8.30811538 5.89114109,8.00811988 5.84154158,7.70812438 L5.84154158,7.70812438 Z M6.26689733,9.55769663 C6.08289917,10.2072869 5.75810242,10.7576786 5.29170708,11.2080719 C4.87411126,10.7576786 4.54931451,10.2072869 4.31651683,9.55769663 L4.31651683,9.55769663 L6.26689733,9.55769663 Z M13.600024,0 C14.9232108,0 16,1.07678385 16,2.399964 L16,2.399964 L16,8.00227997 C16,9.32546012 14.9232108,10.402244 13.600024,10.402244 L13.600024,10.402244 L11.199248,10.402244 L11.199248,9.20226197 L13.600024,9.20226197 C14.2616174,9.20226197 14.800012,8.66387004 14.800012,8.00227997 L14.800012,8.00227997 L14.800012,2.399964 C14.800012,1.73837392 14.2616174,1.199982 13.600024,1.199982 L13.600024,1.199982 L7.99768002,1.199982 C7.33608664,1.199982 6.79769202,1.73837392 6.79769202,2.399964 L6.79769202,2.399964 L6.79769202,4.80072799 L5.59770402,4.80072799 L5.59770402,2.399964 C5.59770402,1.07678385 6.67449326,0 7.99768002,0 L7.99768002,0 L13.600024,0 Z M10.798532,2.0533292 C11.1465285,2.0533292 11.4457255,2.2597261 11.5625244,2.58132128 L11.5625244,2.58132128 L13.3641064,7.54124688 C13.4777052,7.85244221 13.3161068,8.19643705 13.00491,8.31003535 C12.9377106,8.33403499 12.8681113,8.34603481 12.800112,8.34603481 C12.5545145,8.34603481 12.3249168,8.19403709 12.2361176,7.95084074 L12.2361176,7.95084074 L11.9345207,7.12045319 L11.0609294,7.12045319 C10.9313307,6.67085994 10.7097329,6.26526602 10.4113359,5.92047119 L10.4113359,5.92047119 L11.497725,5.92047119 L10.798532,3.99410009 L10.1873381,5.67727484 C9.88894111,5.39567906 9.53774462,5.1732824 9.14814852,5.02288466 L9.14814852,5.02288466 L10.0353396,2.58212127 C10.1521385,2.2597261 10.4513355,2.0533292 10.798532,2.0533292 Z" id="chinese-to-english" fill="#191919" fill-rule="nonzero"></path>
    </g>
</svg>