<?xml version="1.0" encoding="UTF-8"?>
<svg width="16px" height="16px" viewBox="0 0 16 16" version="1.1" xmlns="http://www.w3.org/2000/svg" xmlns:xlink="http://www.w3.org/1999/xlink">
    <title>icon-end-new</title>
    <g id="icon-end-new" stroke="none" stroke-width="1" fill="none" fill-rule="evenodd">
        <path d="M8,1 C11.865995,1 15,4.134005 15,8 C15,11.865995 11.865995,15 8,15 C4.134005,15 1,11.865995 1,8 C1,4.134005 4.134005,1 8,1 Z M8,2 C4.68628975,2 2,4.68628975 2,8 C2,11.3137103 4.68628975,14 8,14 C11.3137103,14 14,11.3137103 14,8 C14,4.68628975 11.3137103,2 8,2 Z M9.5,5 C10.3284271,5 11,5.67157288 11,6.5 L11,6.5 L11,9.5 C11,10.3284271 10.3284271,11 9.5,11 L9.5,11 L6.5,11 C5.67157288,11 5,10.3284271 5,9.5 L5,9.5 L5,6.5 C5,5.67157288 5.67157288,5 6.5,5 L6.5,5 Z M9.5,6 L6.5,6 C6.22385763,6 6,6.22385763 6,6.5 L6,6.5 L6,9.5 C6,9.77614237 6.22385763,10 6.5,10 L6.5,10 L9.5,10 C9.77614237,10 10,9.77614237 10,9.5 L10,9.5 L10,6.5 C10,6.22385763 9.77614237,6 9.5,6 L9.5,6 Z" id="形状结合" fill="#71757F" fill-rule="nonzero"></path>
    </g>
</svg>