<?xml version="1.0" encoding="UTF-8"?>
<svg width="16px" height="16px" viewBox="0 0 16 16" version="1.1" xmlns="http://www.w3.org/2000/svg" xmlns:xlink="http://www.w3.org/1999/xlink">
    <title>enlarge</title>
    <g id="enlarge" stroke="none" stroke-width="1" fill="none" fill-rule="evenodd">
        <path d="M7.16666667,1 C10.572409,1 13.3333333,3.76092429 13.3333333,7.16666667 C13.3333333,8.68984984 12.781084,10.0840543 11.8658888,11.1599767 L14.4225201,13.7154466 C14.6177822,13.9107088 14.6177822,14.2272912 14.4225201,14.4225534 C14.2489537,14.5961197 13.9795293,14.6154049 13.7846612,14.4804088 L13.7154133,14.4225534 L11.158968,11.8667467 C10.083183,12.7814291 8.68937384,13.3333333 7.16666667,13.3333333 C3.76092429,13.3333333 1,10.572409 1,7.16666667 C1,3.76092429 3.76092429,1 7.16666667,1 Z M7.16666667,2 C4.31320904,2 2,4.31320904 2,7.16666667 C2,10.0201243 4.31320904,12.3333333 7.16666667,12.3333333 C10.0201243,12.3333333 12.3333333,10.0201243 12.3333333,7.16666667 C12.3333333,4.31320904 10.0201243,2 7.16666667,2 Z M7.16666667,4.66666667 C7.41212656,4.66666667 7.61627504,4.84354183 7.658611,5.07679103 L7.66666667,5.16666667 L7.666,6.668 L9.16601582,6.66666666 C9.44215796,6.66630764 9.66630679,6.88987368 9.66666668,7.16601582 C9.66698576,7.4114755 9.49037648,7.61585405 9.25718258,7.65849359 L9.16731751,7.66666666 L7.666,7.668 L7.66666667,9.16666667 C7.66666667,9.44280904 7.44280904,9.66666667 7.16666667,9.66666667 C6.92120678,9.66666667 6.7170583,9.48979151 6.67472234,9.2565423 L6.66666667,9.16666667 L6.666,7.669 L5.17251751,7.67186668 C4.89637537,7.6722257 4.67222654,7.44865965 4.67186666,7.17251751 C4.67154758,6.92705783 4.84815685,6.72267929 5.08135075,6.68003974 L5.17121582,6.67186709 L6.666,6.669 L6.66666667,5.16666667 C6.66666667,4.89052429 6.89052429,4.66666667 7.16666667,4.66666667 Z" id="形状结合" fill="#71757F" fill-rule="nonzero"></path>
    </g>
</svg>