<?xml version="1.0" encoding="UTF-8"?>
<svg width="16px" height="16px" viewBox="0 0 16 16" version="1.1" xmlns="http://www.w3.org/2000/svg" xmlns:xlink="http://www.w3.org/1999/xlink">
    <title>进入</title>
    <g id="进入" stroke="none" stroke-width="1" fill="none" fill-rule="evenodd">
        <path d="M11.789,1.49905729 L11.788,1.49905729 L12.5,1.5 C13.6045695,1.5 14.5,2.3954305 14.5,3.5 L14.5,10 L14.5,10.0153473 C14.5,10.7139914 14.1354327,11.3619963 13.538317,11.7247033 L9.27873773,14.6158225 C8.5706993,15.0459075 7.64806799,14.8205817 7.21798302,14.1125433 C7.07540131,13.8778145 7,13.6084456 7,13.3338055 L6.999,12.9990573 L5,13 C3.8954305,13 3,12.1045695 3,11 L3.00805567,10.9101244 C3.05039163,10.6768752 3.25454011,10.5 3.5,10.5 C3.74545989,10.5 3.94960837,10.6768752 3.99194433,10.9101244 L4,11 C4,11.5128358 4.38604019,11.9355072 4.88337887,11.9932723 L5,12 L6.999,11.9990573 L7,5.62519924 C7,4.92655519 7.36456734,4.27855025 7.96168303,3.91584326 L9.963,2.49905729 L5,2.5 C4.48716416,2.5 4.06449284,2.88604019 4.00672773,3.38337887 L4,3.5 C4,3.77614237 3.77614237,4 3.5,4 C3.25454011,4 3.05039163,3.82312484 3.00805567,3.58987563 L3,3.5 C3,2.3954305 3.8954305,1.5 5,1.5 L11.633944,1.49882613 C11.634955,1.49856914 11.635966,1.49831286 11.6369771,1.49805729 L11.789,1.49905729 Z M12.5,2.5 L11.776,2.49905729 L11.71533,2.52222279 C11.6907548,2.53212973 11.6663602,2.54283977 11.64218,2.5543612 L11.525094,2.61763003 L8.48084151,4.77052125 C8.2196034,4.92920556 8.0473877,5.19710549 8.00841562,5.49561949 L8,5.62519924 L8,13.3338055 C8,13.4253522 8.02513377,13.5151418 8.07266101,13.5933848 C8.20009359,13.8031739 8.45725031,13.8858289 8.67858235,13.8009192 L8.75957924,13.7611445 L13.0191585,10.8700253 C13.2803966,10.711341 13.4526123,10.4434411 13.4915844,10.1449271 L13.5,10.0153473 L13.5,3.49905729 L13.5,3.49805729 L13.4932723,3.38337887 C13.4399506,2.92429701 13.075703,2.56004937 12.6166211,2.50672773 L12.5,2.5 Z M2.94837397,4.63446198 C3.12795341,4.45517934 3.41879454,4.45517934 3.59837397,4.63446198 L3.59837397,4.63446198 L5.51837397,6.57446198 C5.6028874,6.66743587 5.64929913,6.7888204 5.64838754,6.91446198 C5.64382337,7.03008702 5.59765689,7.1401763 5.51837397,7.22446198 L5.51837397,7.22446198 L3.59837397,9.13446198 C3.51399753,9.22694043 3.3935088,9.27805686 3.26837397,9.27446198 C3.14670416,9.27517028 3.03042968,9.22430019 2.94837397,9.13446198 C2.85702594,9.05109473 2.80497977,8.93313317 2.80497977,8.80946198 C2.80497977,8.6857908 2.85702594,8.56782924 2.94837397,8.48446198 L2.94837397,8.48446198 L4.04837397,7.34446198 L1.53837397,7.34446198 C1.35596688,7.37128327 1.17472391,7.28897848 1.07488168,7.13398411 C0.975039441,6.97898973 0.975039441,6.77993423 1.07488168,6.62493986 C1.17472391,6.46994549 1.35596688,6.3876407 1.53837397,6.41446198 L1.53837397,6.41446198 L4.04837397,6.41446198 L2.94837397,5.29446198 C2.85652016,5.20930482 2.80431514,5.08971718 2.80431514,4.96446198 C2.80431514,4.83920678 2.85652016,4.71961914 2.94837397,4.63446198 Z" id="形状结合" fill="#71757F" fill-rule="nonzero"></path>
    </g>
</svg>