<?xml version="1.0" encoding="UTF-8"?>
<svg width="16px" height="16px" viewBox="0 0 16 16" version="1.1" xmlns="http://www.w3.org/2000/svg" xmlns:xlink="http://www.w3.org/1999/xlink">
    <title>function icon/enumeration</title>
    <g id="资源库" stroke="none" stroke-width="1" fill="none" fill-rule="evenodd">
        <g id="画板备份-2" transform="translate(-591.000000, -6069.000000)" fill="#71757F" fill-rule="nonzero">
            <g id="icon" transform="translate(591.000000, 6069.000000)">
                <path d="M3.5,10.7113249 C3.80940108,10.5326921 4.19059892,10.5326921 4.5,10.7113249 L4.5,10.7113249 L5.73205081,11.4226497 C6.04145188,11.6012825 6.23205081,11.9314095 6.23205081,12.2886751 L6.23205081,12.2886751 L6.23205081,13.7113249 C6.23205081,14.0685905 6.04145188,14.3987175 5.73205081,14.5773503 L5.73205081,14.5773503 L4.5,15.2886751 C4.19059892,15.4673079 3.80940108,15.4673079 3.5,15.2886751 L3.5,15.2886751 L2.26794919,14.5773503 C1.95854812,14.3987175 1.76794919,14.0685905 1.76794919,13.7113249 L1.76794919,13.7113249 L1.76794919,12.2886751 C1.76794919,11.9314095 1.95854812,11.6012825 2.26794919,11.4226497 L2.26794919,11.4226497 Z M9.5,10.7113249 C9.80940108,10.5326921 10.1905989,10.5326921 10.5,10.7113249 L10.5,10.7113249 L11.7320508,11.4226497 C12.0414519,11.6012825 12.2320508,11.9314095 12.2320508,12.2886751 L12.2320508,12.2886751 L12.2320508,13.7113249 C12.2320508,14.0685905 12.0414519,14.3987175 11.7320508,14.5773503 L11.7320508,14.5773503 L10.5,15.2886751 C10.1905989,15.4673079 9.80940108,15.4673079 9.5,15.2886751 L9.5,15.2886751 L8.26794919,14.5773503 C7.95854812,14.3987175 7.76794919,14.0685905 7.76794919,13.7113249 L7.76794919,13.7113249 L7.76794919,12.2886751 C7.76794919,11.9314095 7.95854812,11.6012825 8.26794919,11.4226497 L8.26794919,11.4226497 Z M4,11.577 L2.76794919,12.2886751 L2.76794919,13.7113249 L4,14.4226497 L5.23205081,13.7113249 L5.23205081,12.2886751 L4,11.577 Z M10,11.5773503 L8.76794919,12.2886751 L8.76794919,13.7113249 L10,14.4226497 L11.2320508,13.7113249 L11.2320508,12.2886751 L10,11.5773503 Z M6.5,5.71132487 C6.80940108,5.53269207 7.19059892,5.53269207 7.5,5.71132487 L7.5,5.71132487 L8.73205081,6.42264973 C9.04145188,6.60128253 9.23205081,6.93140954 9.23205081,7.28867513 L9.23205081,7.28867513 L9.23205081,8.71132487 C9.23205081,9.06859046 9.04145188,9.39871747 8.73205081,9.57735027 L8.73205081,9.57735027 L7.5,10.2886751 C7.19059892,10.4673079 6.80940108,10.4673079 6.5,10.2886751 L6.5,10.2886751 L5.26794919,9.57735027 C4.95854812,9.39871747 4.76794919,9.06859046 4.76794919,8.71132487 L4.76794919,8.71132487 L4.76794919,7.28867513 C4.76794919,6.93140954 4.95854812,6.60128253 5.26794919,6.42264973 L5.26794919,6.42264973 Z M12.5,5.71132487 C12.8094011,5.53269207 13.1905989,5.53269207 13.5,5.71132487 L13.5,5.71132487 L14.7320508,6.42264973 C15.0414519,6.60128253 15.2320508,6.93140954 15.2320508,7.28867513 L15.2320508,7.28867513 L15.2320508,8.71132487 C15.2320508,9.06859046 15.0414519,9.39871747 14.7320508,9.57735027 L14.7320508,9.57735027 L13.5,10.2886751 C13.1905989,10.4673079 12.8094011,10.4673079 12.5,10.2886751 L12.5,10.2886751 L11.2679492,9.57735027 C10.9585481,9.39871747 10.7679492,9.06859046 10.7679492,8.71132487 L10.7679492,8.71132487 L10.7679492,7.28867513 C10.7679492,6.93140954 10.9585481,6.60128253 11.2679492,6.42264973 L11.2679492,6.42264973 Z M13,6.57735027 L11.7679492,7.28867513 L11.7679492,8.71132487 L13,9.42264973 L14.2320508,8.71132487 L14.2320508,7.28867513 L13,6.57735027 Z M7,6.57735027 L5.76794919,7.28867513 L5.76794919,8.70535027 L8.23194919,7.31235027 L8.23205081,7.28867513 L7,6.57735027 Z M3.5,0.711324865 C3.80940108,0.53269207 4.19059892,0.53269207 4.5,0.711324865 L4.5,0.711324865 L5.73205081,1.42264973 C6.04145188,1.60128253 6.23205081,1.93140954 6.23205081,2.28867513 L6.23205081,2.28867513 L6.23205081,3.71132487 C6.23205081,4.06859046 6.04145188,4.39871747 5.73205081,4.57735027 L5.73205081,4.57735027 L4.5,5.28867513 C4.19059892,5.46730793 3.80940108,5.46730793 3.5,5.28867513 L3.5,5.28867513 L2.26794919,4.57735027 C1.95854812,4.39871747 1.76794919,4.06859046 1.76794919,3.71132487 L1.76794919,3.71132487 L1.76794919,2.28867513 C1.76794919,1.93140954 1.95854812,1.60128253 2.26794919,1.42264973 L2.26794919,1.42264973 Z M9.5,0.711324865 C9.80940108,0.53269207 10.1905989,0.53269207 10.5,0.711324865 L10.5,0.711324865 L11.7320508,1.42264973 C12.0414519,1.60128253 12.2320508,1.93140954 12.2320508,2.28867513 L12.2320508,2.28867513 L12.2320508,3.71132487 C12.2320508,4.06859046 12.0414519,4.39871747 11.7320508,4.57735027 L11.7320508,4.57735027 L10.5,5.28867513 C10.1905989,5.46730793 9.80940108,5.46730793 9.5,5.28867513 L9.5,5.28867513 L8.26794919,4.57735027 C7.95854812,4.39871747 7.76794919,4.06859046 7.76794919,3.71132487 L7.76794919,3.71132487 L7.76794919,2.28867513 C7.76794919,1.93140954 7.95854812,1.60128253 8.26794919,1.42264973 L8.26794919,1.42264973 Z M4,1.57735027 L2.76794919,2.28867513 L2.76794919,3.71132487 L4,4.42264973 L5.23205081,3.71132487 L5.23205081,2.28867513 L4,1.57735027 Z M10,1.57735027 L8.76794919,2.28867513 L8.76794919,3.71132487 L10,4.42264973 L11.2320508,3.71132487 L11.2320508,2.28867513 L10,1.57735027 Z" id="形状结合"></path>
            </g>
        </g>
    </g>
</svg>