<?xml version="1.0" encoding="UTF-8"?>
<svg width="16px" height="16px" viewBox="0 0 16 16" version="1.1" xmlns="http://www.w3.org/2000/svg" xmlns:xlink="http://www.w3.org/1999/xlink">
    <title>function icon/environment</title>
    <g id="页面-1" stroke="none" stroke-width="1" fill="none" fill-rule="evenodd">
        <g id="API-starter-图标入库" transform="translate(-692.000000, -204.000000)">
            <g id="方格备份-20" transform="translate(660.000000, 180.000000)">
                <text id="图标" font-family="PingFangSC-Regular, PingFang SC" font-size="12" font-weight="normal" line-spacing="16" fill="#71757F">
                    <tspan x="27.136" y="61">环境</tspan>
                </text>
            </g>
            <path d="M706.5,207 C706.776142,207 707,207.223858 707,207.5 L707,207.5 L707,216.5 C707,217.328427 706.328427,218 705.5,218 L705.5,218 L694.5,218 C693.671573,218 693,217.328427 693,216.5 L693,216.5 L693,207.5 C693,207.223858 693.223858,207 693.5,207 L693.5,207 Z M706,208 L694,208 L694,216.5 C694,216.74546 694.176875,216.949608 694.410124,216.991944 L694.410124,216.991944 L694.5,217 L705.5,217 C705.776142,217 706,216.776142 706,216.5 L706,216.5 L706,208 Z M700.85505,210.150768 C701.085707,210.234721 701.217049,210.470752 701.177056,210.704414 L701.153887,210.791625 L699.785806,214.550395 C699.69136,214.809884 699.404439,214.943678 699.14495,214.849232 C698.914293,214.765279 698.782951,214.529248 698.822944,214.295586 L698.846113,214.208375 L700.214194,210.449605 C700.30864,210.190116 700.595561,210.056322 700.85505,210.150768 Z M703.284306,210.588591 L703.353553,210.646447 L704.753553,212.046447 C704.92712,212.220013 704.946405,212.489437 704.811409,212.684306 L704.753553,212.753553 L703.353553,214.153553 C703.158291,214.348816 702.841709,214.348816 702.646447,214.153553 C702.47288,213.979987 702.453595,213.710563 702.588591,213.515694 L702.646447,213.446447 L703.693,212.4 L702.646447,211.353553 C702.47288,211.179987 702.453595,210.910563 702.588591,210.715694 L702.646447,210.646447 C702.820013,210.47288 703.089437,210.453595 703.284306,210.588591 Z M697.353553,210.646447 C697.52712,210.820013 697.546405,211.089437 697.411409,211.284306 L697.353553,211.353553 L696.307,212.4 L697.353553,213.446447 C697.52712,213.620013 697.546405,213.889437 697.411409,214.084306 L697.353553,214.153553 C697.179987,214.32712 696.910563,214.346405 696.715694,214.211409 L696.646447,214.153553 L695.246447,212.753553 C695.07288,212.579987 695.053595,212.310563 695.188591,212.115694 L695.246447,212.046447 L696.646447,210.646447 C696.841709,210.451184 697.158291,210.451184 697.353553,210.646447 Z M701.6,204.9 C701.931371,204.9 702.2,205.168629 702.2,205.5 C702.2,205.831371 701.931371,206.1 701.6,206.1 C701.268629,206.1 701,205.831371 701,205.5 C701,205.168629 701.268629,204.9 701.6,204.9 Z M704,204.9 C704.331371,204.9 704.6,205.168629 704.6,205.5 C704.6,205.831371 704.331371,206.1 704,206.1 C703.668629,206.1 703.4,205.831371 703.4,205.5 C703.4,205.168629 703.668629,204.9 704,204.9 Z M706.4,204.9 C706.731371,204.9 707,205.168629 707,205.5 C707,205.831371 706.731371,206.1 706.4,206.1 C706.068629,206.1 705.8,205.831371 705.8,205.5 C705.8,205.168629 706.068629,204.9 706.4,204.9 Z M698.5,205 C698.776142,205 699,205.223858 699,205.5 C699,205.776142 698.776142,206 698.5,206 L693.5,206 C693.223858,206 693,205.776142 693,205.5 C693,205.223858 693.223858,205 693.5,205 L698.5,205 Z" id="形状结合" fill="#71757F" fill-rule="nonzero"></path>
        </g>
    </g>
</svg>