<?xml version="1.0" encoding="UTF-8"?>
<svg width="16px" height="16px" viewBox="0 0 16 16" version="1.1" xmlns="http://www.w3.org/2000/svg" xmlns:xlink="http://www.w3.org/1999/xlink">
    <title>function icon/exit loop</title>
    <g id="图标入库记录" stroke="none" stroke-width="1" fill="none" fill-rule="evenodd">
        <g id="API-starter-图标入库记录-221020" transform="translate(-492.000000, -124.000000)" fill="#71757F" fill-rule="nonzero">
            <g id="icon" transform="translate(492.000000, 124.000000)">
                <path d="M9.88411064,10.7474286 C9.95899189,10.8372861 10,10.9505526 10,11.0675208 L10,12 L10,12 C10.1383501,12 10.2750597,11.9929762 10.4097917,11.9792656 L11.3905213,12.8041027 C10.9490808,12.9316496 10.4825225,13 10,13 L10,13.9324792 C10,14.2086216 9.77614237,14.4324792 9.5,14.4324792 C9.38303175,14.4324792 9.2697653,14.3914711 9.1799078,14.3165898 L7.46093277,12.8841106 C7.24879432,12.7073286 7.22013229,12.3920462 7.39691433,12.1799078 C7.41627394,12.1566763 7.43770124,12.135249 7.46093277,12.1158894 L9.1799078,10.6834102 C9.39204625,10.5066281 9.7073286,10.5352902 9.88411064,10.7474286 Z M1.81001604,2.1532831 L14.8327716,13.0806725 C15.0443089,13.2581734 15.0719009,13.5735512 14.8944,13.7850885 C14.7168991,13.9966258 14.4015213,14.0242178 14.189984,13.8467169 L1.16722843,2.91932754 C0.955691097,2.74182664 0.928099115,2.42644884 1.10560001,2.21491151 C1.28310091,2.00337418 1.59847871,1.9757822 1.81001604,2.1532831 Z M2.03554334,4.95277633 L2.8028833,5.59577715 C2.29881085,6.26502758 2,7.09761828 2,8 C2,10.209139 3.790861,12 6,12 C6.27614237,12 6.5,12.2238576 6.5,12.5 C6.5,12.7761424 6.27614237,13 6,13 C3.23857625,13 1,10.7614237 1,8 C1,6.85309288 1.38615555,5.79637722 2.03554334,4.95277633 Z M10,3 C12.7614237,3 15,5.23857625 15,8 C15,9.14690712 14.6138445,10.2036228 13.9644567,11.0472237 L13.1978745,10.4032163 C13.7014886,9.73413772 14,8.90192939 14,8 C14,5.790861 12.209139,4 10,4 C9.72385763,4 9.5,3.77614237 9.5,3.5 C9.5,3.22385763 9.72385763,3 10,3 Z M6.5,1.56752081 C6.61696825,1.56752081 6.7302347,1.60852892 6.8200922,1.68341017 L8.53906723,3.11588936 C8.75120568,3.2926714 8.77986771,3.60795375 8.60308567,3.8200922 C8.58372606,3.84332373 8.56229876,3.86475103 8.53906723,3.88411064 L6.8200922,5.31658983 C6.60795375,5.49337187 6.2926714,5.46470984 6.11588936,5.25257139 C6.04100811,5.16271389 6,5.04944745 6,4.93247919 L6,4 L6,4 C5.86164988,4 5.72494027,4.00702384 5.5902083,4.02073439 L4.60848148,3.19618552 C5.05021651,3.06845334 5.51711419,3 6,3 L6,2.06752081 C6,1.79137843 6.22385763,1.56752081 6.5,1.56752081 Z" id="形状结合"></path>
            </g>
        </g>
    </g>
</svg>