<?xml version="1.0" encoding="UTF-8"?>
<svg width="16px" height="16px" viewBox="0 0 16 16" version="1.1" xmlns="http://www.w3.org/2000/svg" xmlns:xlink="http://www.w3.org/1999/xlink">
    <title>icon icon-exit</title>
    <g id="icon-icon-exit" stroke="none" stroke-width="1" fill="none" fill-rule="evenodd">
        <g transform="translate(1.000000, 2.000000)" fill="#71757F" fill-rule="nonzero" id="形状结合">
            <path d="M11,0 C12.1045695,0 13,0.8954305 13,2 C13,2.27614237 12.7761424,2.5 12.5,2.5 C12.2238576,2.5 12,2.27614237 12,2 C12,1.48716416 11.6139598,1.06449284 11.1166211,1.00672773 L11,1 L2,1 C1.48716416,1 1.06449284,1.38604019 1.00672773,1.88337887 L1,2 L1,10 C1,10.5128358 1.38604019,10.9355072 1.88337887,10.9932723 L2,11 L11,11 C11.5522847,11 12,10.5522847 12,10 C12,9.72385763 12.2238576,9.5 12.5,9.5 C12.7761424,9.5 13,9.72385763 13,10 C13,11.0543618 12.1841222,11.9181651 11.1492623,11.9945143 L11,12 L2,12 C0.945638205,12 0.0818348781,11.1841222 0.00548573643,10.1492623 L0,10 L0,2 C0,0.945638205 0.815877791,0.0818348781 1.85073766,0.00548573643 L2,0 L11,0 Z M10.8111366,2.81801945 L13.6395637,5.64644658 C13.8348259,5.84170873 13.8348259,6.15829121 13.6395637,6.35355336 L10.8111366,9.1819805 C10.6158745,9.37724265 10.299292,9.37724265 10.1040298,9.1819805 C9.90876767,8.98671836 9.90876767,8.67013587 10.1040298,8.47487372 L12.0770104,6.50157285 L6.66468999,6.50157287 C6.38854761,6.50157287 6.16468999,6.27771524 6.16468999,6.00157287 C6.16468999,5.72543049 6.38854761,5.50157287 6.66468999,5.50157287 L12.0830104,5.50157285 L10.1040298,3.52512624 C9.90876769,3.32986409 9.90876769,3.0132816 10.1040298,2.81801945 C10.299292,2.62275731 10.6158745,2.62275731 10.8111366,2.81801945 Z"></path>
        </g>
    </g>
</svg>