<?xml version="1.0" encoding="UTF-8"?>
<svg width="16px" height="16px" viewBox="0 0 16 16" version="1.1" xmlns="http://www.w3.org/2000/svg" xmlns:xlink="http://www.w3.org/1999/xlink">
    <!-- Generator: Sketch 63.1 (92452) - https://sketch.com -->
    <title>function icon/expand</title>
    <desc>Created with Sketch.</desc>
    <g id="DevUI风格图标汇总-220907" stroke="none" stroke-width="1" fill="none" fill-rule="evenodd">
        <g id="API-starter-图标入库记录-220919" transform="translate(-492.000000, -124.000000)" fill="#71757F">
            <g id="编组" transform="translate(492.000000, 124.000000)">
                <path d="M3.2843055,9.58859116 L3.35355339,9.64644661 L4.85355339,11.1464466 C5.04881554,11.3417088 5.04881554,11.6582912 4.85355339,11.8535534 C4.67998704,12.0271197 4.41056264,12.0464049 4.2156945,11.9114088 L4.14644661,11.8535534 L3.5,11.207 L3.5,13.5 C3.5,13.7761424 3.27614237,14 3,14 C2.75454011,14 2.55039163,13.8231248 2.50805567,13.5898756 L2.5,13.5 L2.5,11.207 L1.85355339,11.8535534 C1.67998704,12.0271197 1.41056264,12.0464049 1.2156945,11.9114088 L1.14644661,11.8535534 C0.972880258,11.679987 0.953595107,11.4105626 1.08859116,11.2156945 L1.14644661,11.1464466 L2.64644661,9.64644661 C2.82001296,9.47288026 3.08943736,9.45359511 3.2843055,9.58859116 Z M13.5,12 C13.7761424,12 14,12.2238576 14,12.5 C14,12.7761424 13.7761424,13 13.5,13 L6.5,13 C6.22385763,13 6,12.7761424 6,12.5 C6,12.2238576 6.22385763,12 6.5,12 L13.5,12 Z M13.5,9 C13.7761424,9 14,9.22385763 14,9.5 C14,9.77614237 13.7761424,10 13.5,10 L6.5,10 C6.22385763,10 6,9.77614237 6,9.5 C6,9.22385763 6.22385763,9 6.5,9 L13.5,9 Z M13.5,6 C13.7761424,6 14,6.22385763 14,6.5 C14,6.77614237 13.7761424,7 13.5,7 L6.5,7 C6.22385763,7 6,6.77614237 6,6.5 C6,6.22385763 6.22385763,6 6.5,6 L13.5,6 Z M3,2 C3.24545989,2 3.44960837,2.17687516 3.49194433,2.41012437 L3.5,2.5 L3.5,4.793 L4.14644661,4.14644661 L4.2156945,4.08859116 C4.41056264,3.95359511 4.67998704,3.97288026 4.85355339,4.14644661 C5.04881554,4.34170876 5.04881554,4.65829124 4.85355339,4.85355339 L4.85355339,4.85355339 L3.35355339,6.35355339 L3.2843055,6.41140884 C3.08943736,6.54640489 2.82001296,6.52711974 2.64644661,6.35355339 L2.64644661,6.35355339 L1.14644661,4.85355339 L1.08859116,4.7843055 C0.953595107,4.58943736 0.972880258,4.32001296 1.14644661,4.14644661 L1.14644661,4.14644661 L1.2156945,4.08859116 C1.41056264,3.95359511 1.67998704,3.97288026 1.85355339,4.14644661 L1.85355339,4.14644661 L2.5,4.793 L2.5,2.5 C2.5,2.22385763 2.72385763,2 3,2 Z M13.5,3 C13.7761424,3 14,3.22385763 14,3.5 C14,3.77614237 13.7761424,4 13.5,4 L6.5,4 C6.22385763,4 6,3.77614237 6,3.5 C6,3.22385763 6.22385763,3 6.5,3 L13.5,3 Z" id="形状结合"></path>
            </g>
        </g>
    </g>
</svg>