<svg width="16.000000" height="16.000000" viewBox="0 0 16 16" fill="none" xmlns="http://www.w3.org/2000/svg" xmlns:xlink="http://www.w3.org/1999/xlink">
	<desc>
			Created with Pixso.
	</desc>
	<defs/>
	<path id="合并" d="M4.99 1.45L4.99 2.28L3.57 2.28Q3.33 2.28 3.1 2.33Q3.1 2.33 3.1 2.33Q3.09 2.33 3.09 2.33C2.96 2.36 2.83 2.4 2.7 2.45C2.57 2.51 2.45 2.57 2.34 2.65C2.21 2.73 2.1 2.82 1.99 2.93C1.88 3.04 1.78 3.16 1.7 3.28C1.63 3.39 1.56 3.52 1.51 3.64C1.45 3.77 1.41 3.9 1.38 4.03C1.35 4.19 1.33 4.35 1.33 4.51L1.33 12.76C1.33 12.93 1.35 13.09 1.38 13.24C1.41 13.38 1.45 13.51 1.51 13.63Q1.59 13.82 1.7 13.99L1.7 13.99Q1.82 14.18 1.99 14.34C2.1 14.45 2.21 14.55 2.34 14.63C2.45 14.71 2.57 14.77 2.7 14.82C2.98 14.94 3.27 15 3.57 15L12.42 15Q12.66 15 12.88 14.95Q12.89 14.95 12.9 14.95C13.03 14.92 13.16 14.88 13.29 14.82C13.55 14.71 13.79 14.55 14 14.34Q14.16 14.18 14.29 13.99Q14.4 13.82 14.48 13.63C14.59 13.36 14.65 13.07 14.65 12.76L14.65 7.36C14.65 7.08 14.43 6.86 14.15 6.86C13.87 6.86 13.65 7.08 13.65 7.36L13.65 12.76C13.65 12.93 13.62 13.09 13.56 13.24C13.49 13.39 13.41 13.52 13.29 13.64C13.18 13.75 13.05 13.84 12.9 13.9C12.75 13.97 12.58 14 12.42 14L3.57 14C3.47 14 3.38 13.99 3.29 13.97C3.22 13.95 3.15 13.93 3.09 13.9C2.94 13.84 2.81 13.75 2.69 13.64C2.58 13.52 2.49 13.39 2.43 13.24C2.37 13.09 2.33 12.93 2.33 12.76L2.33 4.51C2.33 4.42 2.34 4.32 2.36 4.23C2.38 4.16 2.4 4.1 2.43 4.03C2.46 3.96 2.49 3.9 2.53 3.84Q2.53 3.84 2.54 3.83Q2.61 3.73 2.69 3.64C2.76 3.58 2.82 3.52 2.9 3.48C2.96 3.44 3.02 3.4 3.09 3.37C3.15 3.35 3.22 3.32 3.29 3.31C3.38 3.29 3.47 3.28 3.57 3.28L12.42 3.28C12.58 3.28 12.75 3.31 12.9 3.37C13.05 3.44 13.18 3.52 13.29 3.64C13.41 3.75 13.49 3.88 13.56 4.03C13.62 4.19 13.65 4.35 13.65 4.51L13.65 4.83L3.89 4.83C3.61 4.83 3.39 5.05 3.39 5.33C3.39 5.61 3.61 5.83 3.89 5.83L14.15 5.83C14.49 5.83 14.65 5.66 14.65 5.33L14.65 4.51C14.65 4.35 14.64 4.19 14.6 4.03C14.57 3.9 14.53 3.77 14.48 3.64C14.42 3.52 14.36 3.39 14.28 3.28C14.2 3.16 14.11 3.04 14 2.93C13.79 2.73 13.55 2.57 13.29 2.45C13.16 2.4 13.03 2.36 12.9 2.33C12.74 2.29 12.58 2.28 12.42 2.28L11 2.28L11 1.45C11 1.2 10.81 1.01 10.57 1.01C10.33 1.01 10.14 1.2 10.14 1.45L10.14 2.28L5.85 2.28L5.85 1.45C5.85 1.2 5.66 1.01 5.42 1.01C5.18 1.01 4.99 1.2 4.99 1.45ZM8.51 7.31L7.48 7.31C7.34 7.31 7.22 7.42 7.22 7.57L7.22 8.6C7.22 8.74 7.34 8.85 7.48 8.85L8.51 8.85C8.65 8.85 8.77 8.74 8.77 8.6L8.77 7.57C8.77 7.42 8.65 7.31 8.51 7.31ZM10.57 7.31L11.6 7.31C11.74 7.31 11.86 7.42 11.86 7.57L11.86 8.6C11.86 8.74 11.74 8.85 11.6 8.85L10.57 8.85C10.43 8.85 10.31 8.74 10.31 8.6L10.31 7.57C10.31 7.42 10.43 7.31 10.57 7.31ZM5.42 10.4L4.39 10.4C4.25 10.4 4.13 10.51 4.13 10.66L4.13 11.69C4.13 11.83 4.25 11.94 4.39 11.94L5.42 11.94C5.56 11.94 5.68 11.83 5.68 11.69L5.68 10.66C5.68 10.51 5.56 10.4 5.42 10.4ZM7.48 10.4L8.51 10.4C8.65 10.4 8.77 10.51 8.77 10.66L8.77 11.69C8.77 11.83 8.65 11.94 8.51 11.94L7.48 11.94C7.34 11.94 7.22 11.83 7.22 11.69L7.22 10.66C7.22 10.51 7.34 10.4 7.48 10.4Z" fill="#595959" fill-opacity="1.000000" fill-rule="evenodd"/>
</svg>
