<?xml version="1.0" encoding="UTF-8"?>
<svg width="16px" height="16px" viewBox="0 0 16 16" version="1.1" xmlns="http://www.w3.org/2000/svg" xmlns:xlink="http://www.w3.org/1999/xlink">
    <title>icon icon-export-o</title>
    <g id="icon-icon-export-o" stroke="none" stroke-width="1" fill="none" fill-rule="evenodd">
        <g id="ipd_export" transform="translate(1.500000, 1.500000)" fill="#71757F" fill-rule="nonzero">
            <path d="M4.83333333,0 C5.10947571,0 5.33333333,0.223857625 5.33333333,0.5 C5.33333333,0.745459889 5.15645817,0.94960837 4.92320897,0.991944331 L4.83333333,1 L1.5,1 C1.25454137,1 1.05039191,1.17687628 1.00805572,1.41012474 L1,1.5 L1,11.5 C1,11.7454672 1.17687071,11.94961 1.41012289,11.9919446 L1.5,12 L11.5,12 C11.7454734,12 11.9496114,11.8231369 11.9919448,11.5898796 L12,11.5 L12,8.16666667 C12,7.89052429 12.2238576,7.66666667 12.5,7.66666667 C12.7454599,7.66666667 12.9496084,7.84354183 12.9919443,8.07679103 L13,8.16666667 L13,11.5 C13,12.2797105 12.4051254,12.9204504 11.6444624,12.9931336 L11.5,13 L1.5,13 C0.720301011,13 0.079550984,12.4051215 0.00686654825,11.6444617 L0,11.5 L0,1.5 C0,0.720305216 0.594889338,0.0795514787 1.35554021,0.0068665919 L1.5,0 L4.83333333,0 Z M11.5426027,0.503556329 C11.5571881,0.520497447 11.5666535,0.532686497 11.5755737,0.545363328 C11.5847483,0.558591688 11.5933022,0.572093036 11.6011923,0.585963291 C11.6025897,0.588242662 11.6037744,0.59036749 11.6049449,0.592503365 L11.6138803,0.609726536 C11.6224099,0.626785768 11.6299695,0.644330004 11.6365142,0.662269414 L11.6410083,0.67521945 L12.9743416,4.67521945 C13.0616655,4.93719111 12.9200855,5.2203511 12.6581139,5.30767498 C12.4252502,5.38529621 12.1756451,5.28205512 12.0617218,5.0741633 L12.0256584,4.99144722 L11.155,2.383 L11.148679,2.4039353 C11.1309209,2.45220865 11.1132016,2.50005044 11.0955164,2.54746647 L10.8846326,3.09639506 C9.73047978,6.00719745 8.64323823,7.16473519 6.27315727,8.2403903 L5.82779702,8.43543373 L5.352362,8.63090501 C5.09597025,8.73346172 4.80498502,8.60875376 4.70242832,8.352362 C4.59987162,8.09597025 4.72457957,7.80498502 4.98097133,7.70242832 L5.41682733,7.52373736 C5.48701683,7.49416879 5.55600484,7.46467517 5.62382903,7.43520901 L6.0171095,7.25836138 C7.79005581,6.43106271 8.70960763,5.55079806 9.60239059,3.5747391 L9.79359274,3.13414549 C9.8254919,3.05779115 9.85743222,2.9799441 9.88945136,2.90055685 L10.0828134,2.40537071 C10.1152984,2.31963258 10.1479377,2.23225923 10.1807686,2.14320316 L10.366,1.626 L7.32478055,2.64100832 C7.09191685,2.71862955 6.84231176,2.61538846 6.72838847,2.40749663 L6.69232502,2.32478055 C6.61470379,2.09191685 6.71794488,1.84231176 6.9258367,1.72838847 L7.00855278,1.69232502 L11.0085528,0.358991684 L11.0313119,0.351951522 C11.0493719,0.34685579 11.0677554,0.342764153 11.0863775,0.339718955 L11.0085528,0.358991684 C11.0443522,0.347058535 11.0805474,0.339400003 11.1165843,0.335739173 C11.1327976,0.334069429 11.1495476,0.333204729 11.16639,0.333197725 C11.1837857,0.333204729 11.2005357,0.334069429 11.2171354,0.335762915 C11.2268146,0.336761686 11.2368924,0.33809608 11.2469706,0.339748389 C11.265578,0.342764153 11.2839614,0.34685579 11.3020214,0.351951522 C11.3095472,0.354112887 11.3171728,0.356455763 11.3247805,0.358991684 L11.3377306,0.363485832 C11.35567,0.370030514 11.3732142,0.377590122 11.3902735,0.386119738 L11.3247805,0.358991684 C11.3562809,0.369491817 11.3860407,0.382823447 11.413871,0.398609268 C11.427907,0.406697786 11.4414083,0.41525174 11.4544882,0.424443252 C11.4673135,0.433346491 11.4795026,0.442811876 11.4911815,0.452777837 C11.4926878,0.454133602 11.4945715,0.455758152 11.4964437,0.457397317 L11.5426027,0.503556329 L11.5426027,0.503556329 Z" id="形状结合"></path>
        </g>
    </g>
</svg>