<?xml version="1.0" encoding="UTF-8"?>
<svg width="16px" height="16px" viewBox="0 0 16 16" version="1.1" xmlns="http://www.w3.org/2000/svg" xmlns:xlink="http://www.w3.org/1999/xlink">
    <title>Extract Dependent Bversion提取依赖B版本</title>
    <g id="Extract-Dependent-Bversion提取依赖B版本" stroke="none" stroke-width="1" fill="none" fill-rule="evenodd">
        <path d="M12.4682488,9.54479184 C12.7131108,9.52766942 12.9291002,9.68987305 12.9876037,9.91960086 L13.0019091,10.0086956 L13.1414221,12.0038237 C13.1606848,12.2792934 12.952988,12.5182213 12.6775183,12.537484 C12.4326563,12.5546064 12.2166669,12.3924028 12.1581635,12.162675 L12.143858,12.0735802 L12.0899167,11.3022661 C11.0016313,12.9270731 9.28549748,13.7451563 7,13.7451563 C5.25864277,13.7451563 3.28490473,12.8286778 2.20710799,11.5279765 C2.03091717,11.3153468 2.06045674,11.0001454 2.27308648,10.8239546 C2.48571622,10.6477638 2.80091756,10.6773034 2.97710838,10.8899331 C3.8638128,11.9600213 5.55468805,12.7451563 7,12.7451563 C9.02058096,12.7451563 10.4450088,12.0428438 11.3368672,10.6258693 L10.5428772,10.6818688 C10.2980153,10.6989913 10.0820259,10.5367876 10.0235224,10.3070598 L10.009217,10.217965 C9.99209454,9.97310309 10.1542982,9.75711371 10.384026,9.69861024 L10.4731207,9.68430479 L12.4682488,9.54479184 Z M8.48796973,4.024 C8.91463639,4.024 9.28130306,4.13066667 9.58796973,4.344 C9.89463639,4.55733333 10.1146364,4.852 10.2479697,5.228 C10.3739894,5.58337553 10.4682042,6.00893113 10.3374076,6.23475364 C10.3310484,6.24231456 10.3260789,6.25103631 10.320824,6.25953243 C10.3183314,6.26411436 10.3153717,6.26809748 10.3123236,6.272 C10.2229938,6.40528821 10.0605944,6.4796141 9.82491492,6.496 L7.55683219,6.49793466 C7.57873984,6.62500545 7.61311902,6.74036056 7.65996973,6.844 C7.74796973,7.03866667 7.86930306,7.18533333 8.02396973,7.284 C8.17863639,7.38266667 8.35730306,7.432 8.55996973,7.432 C8.74663639,7.432 8.91196973,7.39066667 9.05596973,7.308 C9.19996973,7.22533333 9.61494131,6.9908132 9.8528258,7.20238592 C10.2365351,7.54365418 9.89063639,7.95466667 9.57596973,8.12 C9.26130306,8.28533333 8.90663639,8.368 8.51196973,8.368 C8.13863639,8.368 7.79196973,8.28533333 7.47196973,8.12 C7.15196973,7.95466667 6.89463639,7.70666667 6.69996973,7.376 C6.50530306,7.04533333 6.40796973,6.648 6.40796973,6.184 L7.095,6.155 L7.095,6.154 L6.40796973,6.184 C6.40796973,5.72533333 6.50530306,5.33333333 6.69996973,5.008 C6.89463639,4.68266667 7.15063639,4.43733333 7.46796973,4.272 C7.78530306,4.10666667 8.12530306,4.024 8.48796973,4.024 Z M3.252,2.416 C3.82266667,2.416 4.33866667,2.53066667 4.8,2.76 C5.26133333,2.98933333 5.62533333,3.324 5.892,3.764 C6.15866667,4.204 6.292,4.728 6.292,5.336 C6.292,5.944 6.15866667,6.46933333 5.892,6.912 C5.62533333,7.35466667 5.26266667,7.692 4.804,7.924 C4.34533333,8.156 3.828,8.272 3.252,8.272 L1.8,8.272 C1.52385763,8.272 1.3,8.04814237 1.3,7.772 L1.3,2.916 C1.3,2.63985763 1.52385763,2.416 1.8,2.416 L3.252,2.416 Z M12.7159023,2.416 C13.174569,2.416 13.578569,2.496 13.9279023,2.656 C14.2772357,2.816 14.546569,3.04266667 14.7359023,3.336 C14.9252357,3.62933333 15.0199023,3.968 15.0199023,4.352 C15.0199023,4.736 14.9252357,5.07333333 14.7359023,5.364 C14.546569,5.65466667 14.278569,5.87866667 13.9319023,6.036 C13.5852357,6.19333333 13.1799023,6.272 12.7159023,6.272 L11.859,6.272 L11.8599023,7.692 C11.8599023,8.01232515 11.6002275,8.272 11.2799023,8.272 C10.9595772,8.272 10.6999023,8.01232515 10.6999023,7.692 L10.6999023,2.916 C10.6999023,2.63985763 10.92376,2.416 11.1999023,2.416 L12.7159023,2.416 Z M2.459,3.4 L2.459,7.28 L3.116,7.28 C3.532,7.28 3.88533333,7.20533333 4.176,7.056 C4.46666667,6.90666667 4.68666667,6.68666667 4.836,6.396 C4.98533333,6.10533333 5.06,5.752 5.06,5.336 C5.06,4.92533333 4.98533333,4.576 4.836,4.288 C4.68666667,4 4.46666667,3.78 4.176,3.628 C3.88533333,3.476 3.532,3.4 3.116,3.4 L2.459,3.4 Z M8.45596973,4.928 C8.27463639,4.928 8.11330306,4.97866667 7.97196973,5.08 C7.83063639,5.18133333 7.72130306,5.32133333 7.64396973,5.5 C7.61446095,5.56817544 7.59058215,5.64120429 7.5723333,5.71908657 L9.23538923,5.7192119 C9.22845502,5.64206457 9.21531518,5.57032727 9.19596973,5.504 C9.13996973,5.312 9.04796973,5.168 8.91996973,5.072 C8.79196973,4.976 8.63730306,4.928 8.45596973,4.928 Z M11.859,3.4 L11.859,5.288 L12.5799023,5.288 C12.9532357,5.288 13.2479023,5.20933333 13.4639023,5.052 C13.6799023,4.89466667 13.7879023,4.66133333 13.7879023,4.352 C13.7879023,4.03733333 13.678569,3.8 13.4599023,3.64 C13.2412357,3.48 12.9479023,3.4 12.5799023,3.4 L11.859,3.4 Z" id="形状结合" fill="#71757F" fill-rule="nonzero"></path>
    </g>
</svg>