<?xml version="1.0" encoding="UTF-8"?>
<svg width="16px" height="16px" viewBox="0 0 16 16" version="1.1" xmlns="http://www.w3.org/2000/svg" xmlns:xlink="http://www.w3.org/1999/xlink">
    <title>icon icon-fee-center</title>
    <g id="icon-icon-fee-center" stroke="none" stroke-width="1" fill="none" fill-rule="evenodd">
        <g transform="translate(1.000000, 1.000000)" fill="#71757F" fill-rule="nonzero" id="形状结合">
            <path d="M7,0 C10.8659932,0 14,3.13400675 14,7 C14,10.8659932 10.8659932,14 7,14 C3.13400675,14 0,10.8659932 0,7 C0,3.13400675 3.13400675,0 7,0 Z M7,1 C3.6862915,1 1,3.6862915 1,7 C1,10.3137085 3.6862915,13 7,13 C10.3137085,13 13,10.3137085 13,7 C13,3.6862915 10.3137085,1 7,1 Z M9,3 C9.22976434,3.15317623 9.29185128,3.4636109 9.13867505,3.69337525 L7.60092521,6 L9.5,6 C9.77614237,6 10,6.22385763 10,6.5 C10,6.77614237 9.77614237,7 9.5,7 L7.5,7 L7.5,8 L9.5,8 C9.77614237,8 10,8.22385763 10,8.5 C10,8.77614237 9.77614237,9 9.5,9 L7.5,9 L7.5,10.78 C7.5,11.0561424 7.27614237,11.28 7,11.28 C6.72385763,11.28 6.5,11.0561424 6.5,10.78 L6.5,9 L4.5,9 C4.22385763,9 4,8.77614237 4,8.5 C4,8.22385763 4.22385763,8 4.5,8 L6.5,8 L6.5,7 L4.5,7 C4.22385763,7 4,6.77614237 4,6.5 C4,6.22385763 4.22385763,6 4.5,6 L6.39907479,6 L4.86132495,3.69337525 C4.70814872,3.4636109 4.77023566,3.15317623 5,3 C5.22976434,2.84682377 5.54019902,2.9089107 5.69337525,3.13867505 L7,5.09861218 L8.30662475,3.13867505 C8.45980098,2.9089107 8.77023566,2.84682377 9,3 Z"></path>
        </g>
    </g>
</svg>