<?xml version="1.0" encoding="UTF-8"?>
<svg width="16px" height="16px" viewBox="0 0 16 16" version="1.1" xmlns="http://www.w3.org/2000/svg" xmlns:xlink="http://www.w3.org/1999/xlink">
    <title>function icon/comment</title>
    <g id="图标入库记录" stroke="none" stroke-width="1" fill="none" fill-rule="evenodd">
        <g id="DevUI图标-入库记录230210" transform="translate(-412.000000, -120.000000)" fill="#71757F" fill-rule="nonzero">
            <g id="编组-13" transform="translate(412.000000, 120.000000)">
                <path d="M9.5,2 C9.77614237,2 10,2.22385763 10,2.5 C10,2.74545989 9.82312484,2.94960837 9.58987563,2.99194433 L9.5,3 L3,3 C2.48716416,3 2.06449284,3.38604019 2.00672773,3.88337887 L2,4 L2,13 C2,13.5128358 2.38604019,13.9355072 2.88337887,13.9932723 L3,14 L12,14 C12.5128358,14 12.9355072,13.6139598 12.9932723,13.1166211 L13,13 L13,6.5 C13,6.22385763 13.2238576,6 13.5,6 C13.7454599,6 13.9496084,6.17687516 13.9919443,6.41012437 L14,6.5 L14,13 C14,14.0543618 13.1841222,14.9181651 12.1492623,14.9945143 L12,15 L3,15 C1.9456382,15 1.08183488,14.1841222 1.00548574,13.1492623 L1,13 L1,4 C1,2.9456382 1.81587779,2.08183488 2.85073766,2.00548574 L3,2 L9.5,2 Z M10.5,9 C10.7761424,9 11,9.22385763 11,9.5 C11,9.77614237 10.7761424,10 10.5,10 L4.5,10 C4.22385763,10 4,9.77614237 4,9.5 C4,9.22385763 4.22385763,9 4.5,9 L10.5,9 Z M7.5,6 C7.77614237,6 8,6.22385763 8,6.5 C8,6.77614237 7.77614237,7 7.5,7 L4.5,7 C4.22385763,7 4,6.77614237 4,6.5 C4,6.22385763 4.22385763,6 4.5,6 L7.5,6 Z M14.8535534,1.14644661 C15.0271197,1.32001296 15.0464049,1.58943736 14.9114088,1.7843055 L14.8535534,1.85355339 L9.85355339,6.85355339 C9.65829124,7.04881554 9.34170876,7.04881554 9.14644661,6.85355339 C8.97288026,6.67998704 8.95359511,6.41056264 9.08859116,6.2156945 L9.14644661,6.14644661 L14.1464466,1.14644661 C14.3417088,0.951184464 14.6582912,0.951184464 14.8535534,1.14644661 Z" id="形状结合"></path>
            </g>
        </g>
    </g>
</svg>