<?xml version="1.0" encoding="UTF-8"?>
<svg width="16px" height="16px" viewBox="0 0 16 16" version="1.1" xmlns="http://www.w3.org/2000/svg" xmlns:xlink="http://www.w3.org/1999/xlink">
    <title>icon icon-feedback</title>
    <g id="icon-icon-feedback" stroke="none" stroke-width="1" fill="none" fill-rule="evenodd">
        <g transform="translate(1.000000, 2.000000)" fill="#71757F" fill-rule="nonzero" id="形状结合">
            <path d="M13.42411,0.595752182 L13.4486224,0.621048097 C13.474685,0.648419168 13.49998,0.676527963 13.5244726,0.705339951 C13.5375691,0.720746977 13.5503972,0.7363063 13.562992,0.752060215 C13.5847521,0.779269494 13.6059976,0.807312109 13.6265072,0.835918123 C13.636093,0.849290238 13.6454292,0.862654991 13.6546049,0.876137738 C13.6754973,0.906838877 13.6955263,0.938099845 13.7146937,0.96993831 C13.72366,0.984836303 13.7323153,0.999644909 13.7407842,1.01457318 C13.7929121,1.10639443 13.8382055,1.20333604 13.8756094,1.30411091 C13.8767608,1.3072115 13.8780107,1.31060566 13.8792516,1.31400412 C13.957506,1.52867486 14,1.75937493 14,2 L14,10 C14,11.1045695 13.1045695,12 12,12 L2,12 C0.8954305,12 0,11.1045695 0,10 L0,2 C0,1.64149209 0.0943285733,1.30501581 0.259520442,1.01403641 C0.267998932,0.999101797 0.276666147,0.984283628 0.285516948,0.96958854 C0.30447367,0.938099845 0.324502685,0.906838877 0.345361098,0.876187683 C0.35486983,0.86222357 0.364199948,0.848874864 0.373687457,0.835646683 C0.394002388,0.807312109 0.415247899,0.779269494 0.437201654,0.751817967 C0.449551678,0.736376355 0.462077761,0.721178359 0.474821396,0.706170878 C0.542705996,0.626211489 0.61691194,0.551533014 0.696574612,0.483022061 C0.697685218,0.48206653 0.699074244,0.480874807 0.700464921,0.479684958 L0.796379543,0.402579353 C1.13126185,0.149855104 1.54813066,0 2,0 L12,0 C12.4518693,0 12.8687381,0.149855104 13.2036205,0.402579353 L13.2995351,0.479684958 C13.3416376,0.515885038 13.3785942,0.550167088 13.4142136,0.585786438 L13.42411,0.595752182 L13.42411,0.595752182 Z M1,2.192 L1,10 C1,10.5128358 1.38604019,10.9355072 1.88337887,10.9932723 L2,11 L12,11 C12.5128358,11 12.9355072,10.6139598 12.9932723,10.1166211 L13,10 L13,2.193 L8.76776695,6.4246212 C7.83390452,7.35848364 6.34504164,7.39908635 5.3629183,6.54642935 L5.23223305,6.4246212 L1,2.192 Z M12,1 L2,1 C1.78014989,1 1.57687016,1.0709462 1.41180639,1.19119301 L5.93933983,5.71751442 C6.48851461,6.26668921 7.35757702,6.30101263 7.94673776,5.82048469 L8.06066017,5.71751442 L12.5881936,1.19119301 C12.4527481,1.09252275 12.2915709,1.02704787 12.1166211,1.00672773 L12,1 Z"></path>
        </g>
    </g>
</svg>