<?xml version="1.0" encoding="UTF-8"?>
<svg width="16px" height="16px" viewBox="0 0 16 16" version="1.1" xmlns="http://www.w3.org/2000/svg" xmlns:xlink="http://www.w3.org/1999/xlink">
    <title>筛选项</title>
    <g id="筛选项" stroke="none" stroke-width="1" fill="none" fill-rule="evenodd">
        <path d="M10.6313802,6.00561523 C12.4539199,6.00561523 13.9313802,7.48307556 13.9313802,9.30561523 C13.9313802,10.0343637 13.69516,10.7079399 13.2951121,11.2539513 L14.5196829,12.4792428 C14.7149451,12.674505 14.7149451,12.9910875 14.5196829,13.1863496 C14.3421719,13.3638607 14.0643961,13.379998 13.8686551,13.2347617 L13.8125762,13.1863496 L12.5897205,11.9619885 C12.0419423,12.3664966 11.3645858,12.6056152 10.6313802,12.6056152 C8.80884053,12.6056152 7.33138021,11.1281549 7.33138021,9.30561523 C7.33138021,7.48307556 8.80884053,6.00561523 10.6313802,6.00561523 Z M6.63333333,11.6666667 C6.90947571,11.6666667 7.13333333,11.8905243 7.13333333,12.1666667 C7.13333333,12.4197972 6.94405037,12.628994 6.7,12.6621023 L6.63333333,12.6666667 L1.83333333,12.6666667 C1.55719096,12.6666667 1.33333333,12.442809 1.33333333,12.1666667 C1.33333333,11.9135362 1.52143592,11.7043394 1.7654863,11.6712311 L1.83333333,11.6666667 L6.63333333,11.6666667 Z M10.6313802,7.00561523 C9.36112528,7.00561523 8.33138021,8.03536031 8.33138021,9.30561523 C8.33138021,10.5758702 9.36112528,11.6056152 10.6313802,11.6056152 C11.9016351,11.6056152 12.9313802,10.5758702 12.9313802,9.30561523 C12.9313802,8.03536031 11.9016351,7.00561523 10.6313802,7.00561523 Z M5.7,8.66666667 C5.97614237,8.66666667 6.2,8.89052429 6.2,9.16666667 C6.2,9.41979718 6.01071704,9.62899397 5.76666667,9.66210226 L5.7,9.66666667 L1.83333333,9.66666667 C1.55719096,9.66666667 1.33333333,9.44280904 1.33333333,9.16666667 C1.33333333,8.91353616 1.52143592,8.70433936 1.7654863,8.67123108 L1.83333333,8.66666667 L5.7,8.66666667 Z M6.83333333,5.66666667 C7.10947571,5.66666667 7.33333333,5.89052429 7.33333333,6.16666667 C7.33333333,6.41979718 7.14523075,6.62899397 6.90118037,6.66210226 L6.83333333,6.66666667 L1.83333333,6.66666667 C1.55719096,6.66666667 1.33333333,6.44280904 1.33333333,6.16666667 C1.33333333,5.91353616 1.52143592,5.70433936 1.7654863,5.67123108 L1.83333333,5.66666667 L6.83333333,5.66666667 Z M12.8333333,2.66666667 C13.1094757,2.66666667 13.3333333,2.89052429 13.3333333,3.16666667 C13.3333333,3.41979718 13.1440504,3.62899397 12.9,3.66210226 L12.8333333,3.66666667 L1.83333333,3.66666667 C1.55719096,3.66666667 1.33333333,3.44280904 1.33333333,3.16666667 C1.33333333,2.91353616 1.52143592,2.70433936 1.7654863,2.67123108 L1.83333333,2.66666667 L12.8333333,2.66666667 Z" fill="#71757F"></path>
    </g>
</svg>