<?xml version="1.0" encoding="UTF-8"?>
<svg width="16px" height="16px" viewBox="0 0 16 16" version="1.1" xmlns="http://www.w3.org/2000/svg" xmlns:xlink="http://www.w3.org/1999/xlink">
    <title>流量</title>
    <g id="页面-1" stroke="none" stroke-width="1" fill="none" fill-rule="evenodd">
        <g id="流量">
            <g id="流量备份-8" transform="translate(1.000000, 1.000000)" fill="#71757F" fill-rule="nonzero">
                <path d="M9.625,10.5 L4.375,10.5 L4.375,11.375 L9.625,11.375 L9.625,10.5 Z M10.5,10.5 L10.5,11.375 L11.0360023,11.375 C11.5192515,11.375 11.9110023,11.7667509 11.9110023,12.25 C11.9110023,12.3440468 11.8958404,12.4374786 11.8661002,12.5266993 L11.5744336,13.4016993 C11.4553338,13.7589987 11.1209623,14 10.7443357,14 L3.25566432,14 C2.87903771,14 2.54466622,13.7589987 2.42556643,13.4016993 L2.13389977,12.5266993 C1.98108297,12.0682488 2.22884795,11.5727189 2.68729836,11.4199021 C2.77651902,11.3901619 2.86995082,11.375 2.96399765,11.375 L3.5,11.375 L3.5,10.5 L0.875,10.5 C0.391750844,10.5 0,10.1082491 0,9.625 L0,0.875 C0,0.391750844 0.391750844,0 0.875,0 L13.125,0 C13.6082491,0 14,0.391750844 14,0.875 L14,9.625 C14,10.1082491 13.6082491,10.5 13.125,10.5 L10.5,10.5 Z M0.875,0.875 L0.875,9.625 L13.125,9.625 L13.125,0.875 L0.875,0.875 Z M10.5327758,6.125 L8.30908203,8.75 L5.6875,4.375 L4.375,6.125 L1.75,6.125 L1.75,5.25 L3.89850819,5.25 L5.72548917,2.625 L8.30908203,7.2706604 L10.0625,5.25 L12.25,5.25 L12.25,6.125 L10.5327758,6.125 Z M3.0625,12.25 L3.5,13.125 L10.5,13.125 L10.9375,12.25 L3.0625,12.25 Z" id="形状"></path>
            </g>
        </g>
    </g>
</svg>