<?xml version="1.0" encoding="UTF-8"?>
<svg width="16px" height="16px" viewBox="0 0 16 16" version="1.1" xmlns="http://www.w3.org/2000/svg" xmlns:xlink="http://www.w3.org/1999/xlink">
    <title>function icon/folder</title>
    <g id="图标入库记录" stroke="none" stroke-width="1" fill="none" fill-rule="evenodd">
        <g id="DevUI图标-入库记录230223" transform="translate(-172.000000, -120.000000)" fill="#71757F" fill-rule="nonzero">
            <g id="project/收藏" transform="translate(172.000000, 120.000000)">
                <path d="M5.69722436,1 C6.36593074,1 6.99039339,1.33420227 7.36132495,1.89059961 L7.36132495,1.89059961 L7.434,2 L12,2 C13.0543618,2 13.9181651,2.81587779 13.9945143,3.85073766 L14,4 L14.0006752,4.26795512 C14.5575699,4.59039157 14.9445643,5.17370049 14.9945143,5.85073766 L14.9945143,5.85073766 L15,6 L15,12 C15,13.1045695 14.1045695,14 13,14 L13,14 L3,14 C1.8954305,14 1,13.1045695 1,12 L1,12 L1,3 C1,1.8954305 1.8954305,1 3,1 L3,1 Z M14,8 L2,8 L2,12 C2,12.5128358 2.38604019,12.9355072 2.88337887,12.9932723 L3,13 L13,13 C13.5522847,13 14,12.5522847 14,12 L14,12 L14,8 Z M5.69722436,2 L3,2 C2.44771525,2 2,2.44771525 2,3 L2,3 L2,7 L14,7 L14,6 C14,5.48716416 13.6139598,5.06449284 13.1166211,5.00672773 L13,5 L8.5,5 C8.33282341,5 8.17670774,4.91644943 8.08397485,4.7773501 L8.08397485,4.7773501 L6.52927466,2.4452998 C6.34380888,2.16710114 6.03157755,2 5.69722436,2 L5.69722436,2 Z M8.101,3 L8.768,4 L13,4 C13,3.48716416 12.6139598,3.06449284 12.1166211,3.00672773 L12,3 L8.101,3 Z" id="形状结合"></path>
            </g>
        </g>
    </g>
</svg>