<?xml version="1.0" encoding="UTF-8"?>
<svg width="16px" height="16px" viewBox="0 0 16 16" version="1.1" xmlns="http://www.w3.org/2000/svg" xmlns:xlink="http://www.w3.org/1999/xlink">
    <title>关注我们</title>
    <g id="关注我们" stroke="none" stroke-width="1" fill="none" fill-rule="evenodd">
        <g transform="translate(2.500000, 1.000000)" fill="#71757F" id="形状结合">
            <path d="M11.9828846,10.2228333 L11.9995512,10.2386667 C12.0930052,10.3267197 12.1459859,10.4494317 12.1459859,10.5778333 C12.1459859,10.706235 12.0930052,10.8289469 11.9995512,10.917 L9.46421788,13.307 C9.36830949,13.3975794 9.24042593,13.4464796 9.10855121,13.443 C8.9766193,13.446524 8.84866756,13.3976207 8.75271788,13.307 L7.29671788,11.9345 C7.20326387,11.8464469 7.15028317,11.723735 7.15028317,11.5953333 C7.15028317,11.4669317 7.20326387,11.3442197 7.29671788,11.2561667 L7.31355121,11.2403333 C7.50616301,11.0587344 7.80693941,11.0587344 7.99955121,11.2403333 L9.10855121,12.2856667 L11.2968846,10.2228333 C11.4894964,10.0412344 11.7902728,10.0412344 11.9828846,10.2228333 Z M5.5,0 C7.709139,0 9.5,1.790861 9.5,4 C9.5,5.4438899 8.73496034,6.70909522 7.5881218,7.41237515 C8.2578178,7.68509636 8.86993766,8.09176307 9.3890873,8.6109127 C9.58434944,8.80617485 9.58434944,9.12275734 9.3890873,9.31801948 C9.19382515,9.51328163 8.87724266,9.51328163 8.68198052,9.31801948 C7.84318886,8.47922783 6.71016701,8 5.5,8 L5.5,8 C3.01471863,8 1,10.0147186 1,12.5 C1,12.7761424 0.776142375,13 0.5,13 C0.223857625,13 0,12.7761424 0,12.5 C0,10.2017839 1.40959649,8.23279676 3.41138565,7.41044231 C2.26459636,6.70836196 1.5,5.44347151 1.5,4 C1.5,1.790861 3.290861,0 5.5,0 Z M5.5,1 C3.84314575,1 2.5,2.34314575 2.5,4 C2.5,5.65685425 3.84314575,7 5.5,7 C7.15685425,7 8.5,5.65685425 8.5,4 C8.5,2.34314575 7.15685425,1 5.5,1 Z"></path>
        </g>
    </g>
</svg>