<?xml version="1.0" encoding="UTF-8"?>
<svg width="16px" height="16px" viewBox="0 0 16 16" version="1.1" xmlns="http://www.w3.org/2000/svg" xmlns:xlink="http://www.w3.org/1999/xlink">
    <title>forbid-download</title>
    <g id="页面-1" stroke="none" stroke-width="1" fill="none" fill-rule="evenodd">
        <g id="编组-2">
            <g id="矢量-11" transform="translate(0.515000, 0.015000)"></g>
            <path d="M11.87,14 L12.87,15 L2,15 C1.72,15 1.5,14.77 1.5,14.5 C1.5,14.22 1.72,14 2,14 L11.87,14 Z M3.55,2.84 L14.15,13.45 C14.35,13.64 14.35,13.96 14.15,14.15 C13.96,14.35 13.64,14.35 13.44,14.15 L2.84,3.55 C2.64,3.35 2.64,3.03 2.84,2.84 C3.03,2.64 3.35,2.64 3.55,2.84 Z M4.78,7.58 L8,10.79 L7.999,10.129 L9.534,11.664 L8.85,12.35 C8.84,12.36 8.74,12.43 8.73,12.44 C8.71,12.44 8.62,12.48 8.6,12.48 C8.59,12.48 8.5,12.5 8.5,12.5 C8.47,12.49 8.42,12.49 8.39,12.48 C8.38,12.48 8.28,12.45 8.26,12.44 C8.25,12.43 8.17,12.37 8.15,12.36 L4.14,8.35 C3.95,8.15 3.95,7.84 4.14,7.64 C4.31,7.47 4.58,7.45 4.78,7.58 Z M12.78,7.58 C12.95,7.76 13.04,8.08 12.91,8.28 L11.656,9.536 L10.952,8.832 L12.14,7.64 C12.31,7.47 12.58,7.45 12.78,7.58 Z M8.5,1 C8.74,1 8.94,1.17 8.99,1.41 L8.995,6.875 L7.999,5.879 L8,1.5 C8,1.22 8.22,1 8.5,1 Z" id="形状结合" fill="#71757F"></path>
        </g>
    </g>
</svg>