<?xml version="1.0" encoding="UTF-8"?>
<svg width="16px" height="16px" viewBox="0 0 16 16" version="1.1" xmlns="http://www.w3.org/2000/svg" xmlns:xlink="http://www.w3.org/1999/xlink">
    <!-- Generator: Sketch 63.1 (92452) - https://sketch.com -->
    <title>function icon/forbid</title>
    <desc>Created with Sketch.</desc>
    <g id="DevUI风格图标汇总-220907" stroke="none" stroke-width="1" fill="none" fill-rule="evenodd">
        <g id="API-starter-图标入库记录-220919" transform="translate(-652.000000, -124.000000)" fill="#71757F" fill-rule="nonzero">
            <g id="project/收藏" transform="translate(652.000000, 124.000000)">
                <path d="M8,1 C11.8659932,1 15,4.13400675 15,8 C15,11.8659932 11.8659932,15 8,15 C4.13400675,15 1,11.8659932 1,8 C1,4.13400675 4.13400675,1 8,1 Z M2,8 C2,11.3137085 4.6862915,14 8,14 C9.47704791,14 10.8294388,13.4662797 11.8748373,12.5811745 L3.41882553,4.12516271 C2.53372027,5.17056123 2,6.52295209 2,8 Z M8,2 C6.52295209,2 5.17056123,2.53372027 4.12516271,3.41882553 L12.5811745,11.8748373 C13.4662797,10.8294388 14,9.47704791 14,8 C14,4.6862915 11.3137085,2 8,2 Z" id="形状结合"></path>
            </g>
        </g>
    </g>
</svg>