<?xml version="1.0" encoding="UTF-8"?>
<svg width="16px" height="16px" viewBox="0 0 16 16" version="1.1" xmlns="http://www.w3.org/2000/svg" xmlns:xlink="http://www.w3.org/1999/xlink">
    <title>function icon/format</title>
    <g id="页面-1" stroke="none" stroke-width="1" fill="none" fill-rule="evenodd">
        <g id="API-starter-图标入库" transform="translate(-1092.000000, -124.000000)">
            <g id="方格备份-11" transform="translate(1060.000000, 100.000000)">
                <text id="图标" font-family="PingFangSC-Regular, PingFang SC" font-size="12" font-weight="normal" line-spacing="16" fill="#71757F">
                    <tspan x="21.136" y="61">格式化</tspan>
                </text>
            </g>
            <path d="M1102.35097,128.90614 C1102.74149,128.515616 1103.37466,128.515616 1103.76518,128.90614 L1103.76518,128.90614 L1106.59361,131.734567 C1106.98413,132.125091 1106.98413,132.758256 1106.59361,133.148781 L1106.59361,133.148781 L1101.64386,138.098528 C1101.25334,138.489052 1100.62017,138.489052 1100.22965,138.098528 L1100.22965,138.098528 L1097.40122,135.270101 C1097.0107,134.879577 1097.0107,134.246412 1097.40122,133.855887 L1097.40122,133.855887 Z M1099.171,133.5 L1098.10833,134.562994 L1100.93675,137.391421 L1101.999,136.328 L1099.171,133.5 Z M1095.5,135 C1095.77614,135 1096,135.223858 1096,135.5 C1096,135.776142 1095.77614,136 1095.5,136 L1093.5,136 C1093.22386,136 1093,135.776142 1093,135.5 C1093,135.223858 1093.22386,135 1093.5,135 L1095.5,135 Z M1103.05807,129.613247 L1099.878,132.793 L1102.706,135.621 L1105.8865,132.441674 L1103.05807,129.613247 Z M1097.5,131 C1097.77614,131 1098,131.223858 1098,131.5 C1098,131.776142 1097.77614,132 1097.5,132 L1093.5,132 C1093.22386,132 1093,131.776142 1093,131.5 C1093,131.223858 1093.22386,131 1093.5,131 L1097.5,131 Z M1100.5,127 C1100.77614,127 1101,127.223858 1101,127.5 C1101,127.776142 1100.77614,128 1100.5,128 L1093.5,128 C1093.22386,128 1093,127.776142 1093,127.5 C1093,127.223858 1093.22386,127 1093.5,127 L1100.5,127 Z" id="形状结合" fill="#71757F" fill-rule="nonzero"></path>
        </g>
    </g>
</svg>