<?xml version="1.0" encoding="UTF-8"?>
<svg width="16px" height="16px" viewBox="0 0 16 16" version="1.1" xmlns="http://www.w3.org/2000/svg" xmlns:xlink="http://www.w3.org/1999/xlink">
    <title>full-screen</title>
    <g id="full-screen" stroke="none" stroke-width="1" fill="none" fill-rule="evenodd">
        <path d="M6.78789544,9.21210456 C6.94811053,9.37231966 6.96591221,9.6210191 6.84130047,9.80089739 L6.78789544,9.86481851 L3.575,13.076 L6.15384615,13.0769231 C6.38042451,13.0769231 6.56886926,13.2401925 6.60794861,13.4554994 L6.61538462,13.5384615 C6.61538462,13.7650399 6.45211524,13.9534846 6.23680828,13.992564 L6.15384615,14 L2.46153846,14 C2.43212685,14 2.40335779,13.9972489 2.37547457,13.99199 C2.36929388,13.9907816 2.36323475,13.9895097 2.35719824,13.988115 C2.33547867,13.9831281 2.31451532,13.9766331 2.29424685,13.9687472 C2.28331542,13.9645077 2.2721078,13.9596508 2.26106816,13.9543287 C2.24601312,13.9470192 2.23176434,13.9391568 2.21799961,13.9305898 C2.20924172,13.925195 2.20041882,13.9192823 2.19176379,13.9130327 C2.17517236,13.9009899 2.15978115,13.8882642 2.14527387,13.8746099 C2.14210657,13.871637 2.13862361,13.8682606 2.13518149,13.8648185 L2.12539015,13.8547261 C2.11201694,13.8405175 2.09953451,13.825461 2.08803208,13.8096458 L2.13518149,13.8648185 C2.10894417,13.8385812 2.08652615,13.8099709 2.06792742,13.7796784 C2.05870175,13.7646003 2.05016174,13.7487132 2.04255733,13.7323042 C2.03839389,13.7233228 2.03465143,13.7144966 2.03119603,13.7055848 C2.02075901,13.6787817 2.012728,13.6505798 2.007436,13.6214237 L2,13.5384615 L2,9.84615385 C2,9.59125319 2.20663781,9.38461538 2.46153846,9.38461538 C2.68811682,9.38461538 2.87656157,9.54788476 2.91564092,9.76319172 L2.92307692,9.84615385 L2.922,12.425 L6.13518149,9.21210456 C6.31542347,9.03186258 6.60765346,9.03186258 6.78789544,9.21210456 Z M13.5384615,2 C13.5678732,2 13.5966422,2.0027511 13.6245254,2.00800999 C13.6307061,2.00921837 13.6367652,2.01049033 13.6428018,2.01188504 C13.6645213,2.01687185 13.6854847,2.02336694 13.7057532,2.03125282 C13.7166846,2.03549234 13.7278922,2.04034924 13.7389318,2.04567128 C13.7539869,2.05298083 13.7682357,2.06084323 13.7820004,2.06941021 C13.7907583,2.07480497 13.7995812,2.08071774 13.8082362,2.08696734 C13.8248276,2.09901012 13.8402188,2.11173583 13.8547261,2.12539015 C13.8578934,2.12836298 13.8613764,2.13173936 13.8648185,2.13518149 L13.8746099,2.14527387 C13.8879831,2.15948247 13.9004655,2.17453897 13.9119679,2.19035416 L13.8648185,2.13518149 C13.8910558,2.1614188 13.9134739,2.19002912 13.9320726,2.22032158 C13.9412983,2.23539972 13.9498383,2.25128679 13.9574427,2.26769579 C13.9616061,2.27667719 13.9653486,2.28550337 13.968804,2.29441523 C13.979241,2.32121829 13.987272,2.34942019 13.992564,2.37857634 L14,2.46153846 L14,6.15384615 C14,6.40874681 13.7933622,6.61538462 13.5384615,6.61538462 C13.3118832,6.61538462 13.1234384,6.45211524 13.0843591,6.23680828 L13.0769231,6.15384615 L13.076,3.575 L9.86481851,6.78789544 C9.68457653,6.96813742 9.39234654,6.96813742 9.21210456,6.78789544 C9.05188947,6.62768034 9.03408779,6.3789809 9.15869953,6.19910261 L9.21210456,6.13518149 L12.425,2.922 L9.84615385,2.92307692 C9.61957549,2.92307692 9.43113074,2.75980754 9.39205139,2.54450058 L9.38461538,2.46153846 C9.38461538,2.2349601 9.54788476,2.04651535 9.76319172,2.007436 L9.84615385,2 L13.5384615,2 Z" id="形状结合" fill="#71757F" fill-rule="nonzero"></path>
    </g>
</svg>