<?xml version="1.0" encoding="UTF-8"?>
<svg width="16px" height="16px" viewBox="0 0 16 16" version="1.1" xmlns="http://www.w3.org/2000/svg" xmlns:xlink="http://www.w3.org/1999/xlink">
    <title>function-AI</title>
    <g id="function-AI" stroke="none" stroke-width="1" fill="none" fill-rule="evenodd">
        <path d="M1,8 C1,8.93351902 1.42638398,9.76745073 2.09502535,10.3176686 C2.03298056,10.5336891 2,10.762993 2,11 C2,12.2791738 2.96071571,13.3339604 4.19996848,13.4821812 C4.58165749,14.374414 5.46777202,15 6.5,15 C7.88071187,15 9,13.8807119 9,12.5 L9,3.5 L8.99468232,3.33562431 C8.91003867,2.03153594 7.8254834,1 6.5,1 C5.46777202,1 4.58165749,1.62558601 4.20011279,2.51830163 C2.96071571,2.66603956 2,3.72082619 2,5 C2,5.23700697 2.03298056,5.46631091 2.09460264,5.6835728 C1.42638398,6.23254927 1,7.06648098 1,8 Z M2,8 C2,7.45406366 2.21901845,6.94582584 2.59743746,6.57473371 L2.72939907,6.45625222 C2.78027012,6.414459 2.826241,6.36833306 2.86704751,6.31871847 C3.19576427,6.72818192 3.67999587,7.01508679 4.24407438,7.08434692 C4.40852481,7.10453889 4.55820705,6.98759431 4.57839903,6.82314388 C4.598591,6.65869345 4.48164642,6.5090112 4.31719598,6.48881923 C3.64685447,6.40651164 3.13438282,5.89388623 3.02260982,5.26174965 L3.00480072,5.12360725 C2.996913,5.02698158 2.99833114,4.92819381 3.00986129,4.82827574 C3.01713152,4.7639232 3.0285992,4.70067497 3.04390492,4.63888528 L3.07728886,4.52405601 L3.10763701,4.44154819 L3.13860743,4.36990719 L3.18849257,4.27189488 C3.23476297,4.18867822 3.28873166,4.11024996 3.34947148,4.0376155 L3.38980783,3.991177 L3.48170564,3.89844888 L3.58128487,3.81402303 L3.63452869,3.7745266 C3.79553393,3.66054265 3.98026383,3.57747329 4.18041727,3.53432009 L4.323,3.51 L4.39943248,3.50424322 C4.39989693,3.74140256 4.44084865,3.98251741 4.5266455,4.2182423 C4.92331977,5.3080959 6.1283887,5.87002877 7.2182423,5.4733545 C7.37393567,5.41668675 7.4542118,5.24453405 7.39754404,5.08884067 C7.34087629,4.9331473 7.16872359,4.85287118 7.01303021,4.90953893 C6.23456336,5.1928777 5.37379983,4.79149707 5.09046107,4.01303021 C4.94775495,3.62094837 4.97874324,3.20799012 5.14412137,2.85844439 L5.24095297,2.6837264 L5.21236093,2.73050183 C5.28312231,2.61193367 5.37036037,2.50277591 5.47229085,2.40685492 C5.53932234,2.34401333 5.61127361,2.28784983 5.68779621,2.23858035 C5.77964626,2.17948313 5.87973001,2.12949316 5.98696979,2.09046107 L6.16421473,2.03785799 L6.24103748,2.0222675 L6.3731738,2.00499545 C6.46840748,1.99685783 6.56326482,1.99799168 6.65658006,2.00785341 L6.72616693,2.01686354 L6.7950682,2.02908717 C7.29068776,2.12899962 7.72396324,2.47710475 7.90953893,2.98696979 L7.92682058,3.01882717 C7.96386033,3.13037818 7.98729628,3.24741125 7.9952052,3.36795816 L8,3.5 L8,12.5 C8,13.3284271 7.32842712,14 6.5,14 L6.34886693,13.9924357 L6.21328338,13.9725178 C6.116752,13.9537932 6.02314718,13.9257677 5.93357453,13.889267 L5.80910367,13.8317726 L5.74159237,13.7944267 L5.6264875,13.7195568 L5.57580655,13.6819531 L5.47224675,13.5932007 L5.37626393,13.494425 L5.31681226,13.4221006 L5.23483833,13.3061818 C5.08616443,13.0733493 5,12.796737 5,12.5 C5,11.6715729 5.67157288,11 6.5,11 C6.66568542,11 6.8,10.8656854 6.8,10.7 C6.8,10.5343146 6.66568542,10.4 6.5,10.4 C5.34188289,10.4 4.40272568,11.3374788 4.40000592,12.4949588 L4.5,12.5 C4.41328747,12.5 4.32829345,12.4926422 4.24560821,12.4785169 L4.12338572,12.452327 L4.02026807,12.4216471 L3.92805265,12.387496 L3.8097962,12.3325406 L3.69888725,12.2687796 L3.61568476,12.2117328 L3.50275298,12.1205112 L3.38903638,12.0079057 L3.33715065,11.9475871 L3.29934884,11.8991331 L3.22383037,11.7883547 L3.1572996,11.6689538 L3.08737169,11.5056753 L3.10164783,11.5433004 C3.08099718,11.4902133 3.06328507,11.4356962 3.04870469,11.3799584 C3.03199475,11.3165076 3.01954625,11.251801 3.01138974,11.1857649 C3.0038908,11.1248742 3,11.0628552 3,11 L3.00387498,10.891733 L3.02479465,10.7269528 L3.01533557,10.7853214 C3.10111491,10.1894605 3.5388245,9.69668468 4.12792489,9.54643256 C4.24837962,9.51571016 4.37302518,9.5 4.5,9.5 C4.66568542,9.5 4.8,9.36568542 4.8,9.2 C4.8,9.03431458 4.66568542,8.9 4.5,8.9 C4.32291054,8.9 4.14845436,8.92198822 3.97963994,8.96504493 C3.52945972,9.07986498 3.14256222,9.33720238 2.86434801,9.68277613 L2.80229268,9.61111874 L2.73043802,9.54549581 C2.27048928,9.16700892 2,8.60669024 2,8 Z M9.6,3 C9.6,3.2209139 9.7790861,3.4 10,3.4 L11.6683353,3.40014989 C11.8331121,3.86614854 12.2775685,4.2 12.8,4.2 C13.4627417,4.2 14,3.6627417 14,3 C14,2.3372583 13.4627417,1.8 12.8,1.8 C12.2779416,1.8 11.8337471,2.1333747 11.6686888,2.59885175 L10,2.6 C9.7790861,2.6 9.6,2.7790861 9.6,3 Z M12.4,3 C12.4027662,2.77633309 12.5807907,2.6 12.8,2.6 C13.0209139,2.6 13.2,2.7790861 13.2,3 C13.2,3.2209139 13.0209139,3.4 12.8,3.4 C12.6067003,3.4 12.4454251,3.2628872 12.4081266,3.08061395 L12.4,3 Z M9.6,10.5 C9.6,10.7209139 9.7790861,10.9 10,10.9 L12,10.9 L12.0784005,10.8922431 C12.1552869,10.8768741 12.2265818,10.8391036 12.2828427,10.7828427 L13.165,9.9 L13.6683353,9.90014989 C13.8331121,10.3661485 14.2775685,10.7 14.8,10.7 C15.4627417,10.7 16,10.1627417 16,9.5 C16,8.8372583 15.4627417,8.3 14.8,8.3 C14.2779416,8.3 13.8337471,8.6333747 13.6686888,9.09885175 L13,9.1 L12.9215995,9.1077569 C12.8447131,9.12312586 12.7734182,9.16089637 12.7171573,9.21715729 L11.835,10.1 L10,10.1 C9.7790861,10.1 9.6,10.2790861 9.6,10.5 Z M14.399,9.502 C14.4027662,9.27633309 14.5807907,9.1 14.8,9.1 C15.0209139,9.1 15.2,9.2790861 15.2,9.5 C15.2,9.7209139 15.0209139,9.9 14.8,9.9 C14.6067003,9.9 14.4454251,9.7628872 14.4081266,9.58061395 L14.399,9.502 Z M9.6,5.5 C9.6,5.7209139 9.7790861,5.9 10,5.9 L10.835,5.9 L11.7171573,6.78284271 C11.7734182,6.83910363 11.8447131,6.87687414 11.9215995,6.8922431 L12,6.9 L12.6683353,6.90014989 C12.8331121,7.36614854 13.2775685,7.7 13.8,7.7 C14.4627417,7.7 15,7.1627417 15,6.5 C15,5.8372583 14.4627417,5.3 13.8,5.3 C13.2779416,5.3 12.8337471,5.6333747 12.6686888,6.09885175 L12.165,6.1 L11.2828427,5.21715729 C11.2265818,5.16089637 11.1552869,5.12312586 11.0784005,5.1077569 L11,5.1 L10,5.1 C9.7790861,5.1 9.6,5.2790861 9.6,5.5 Z M13.4,6.5 C13.4027662,6.27633309 13.5807907,6.1 13.8,6.1 C14.0209139,6.1 14.2,6.2790861 14.2,6.5 C14.2,6.7209139 14.0209139,6.9 13.8,6.9 C13.5790861,6.9 13.4,6.7209139 13.4,6.5 Z M9.6,8 C9.6,8.2209139 9.7790861,8.4 10,8.4 L11,8.4 C11.2209139,8.4 11.4,8.2209139 11.4,8 C11.4,7.7790861 11.2209139,7.6 11,7.6 L10,7.6 C9.7790861,7.6 9.6,7.7790861 9.6,8 Z M9.6,13 C9.6,13.2209139 9.7790861,13.4 10,13.4 L10.6683353,13.4001499 C10.8331121,13.8661485 11.2775685,14.2 11.8,14.2 C12.4627417,14.2 13,13.6627417 13,13 C13,12.3372583 12.4627417,11.8 11.8,11.8 C11.2779416,11.8 10.8337471,12.1333747 10.6686888,12.5988517 L10,12.6 C9.7790861,12.6 9.6,12.7790861 9.6,13 Z M11.4,13 C11.4,12.7790861 11.5790861,12.6 11.8,12.6 C12.0209139,12.6 12.2,12.7790861 12.2,13 C12.2,13.2209139 12.0209139,13.4 11.8,13.4 C11.5790861,13.4 11.4,13.2209139 11.4,13 Z" id="形状" fill="#71757F" fill-rule="nonzero"></path>
    </g>
</svg>