<?xml version="1.0" encoding="UTF-8"?>
<svg width="16px" height="16px" viewBox="0 0 16 16" version="1.1" xmlns="http://www.w3.org/2000/svg" xmlns:xlink="http://www.w3.org/1999/xlink">
    <title>function icon/FunctionGraph</title>
    <g id="图标入库记录" stroke="none" stroke-width="1" fill="none" fill-rule="evenodd">
        <g id="DevUI图标-入库记录230223" transform="translate(-972.000000, -120.000000)" fill="#71757F" fill-rule="nonzero">
            <g id="编组-9备份" transform="translate(972.000000, 120.000000)">
                <path d="M8,2 C10.2722573,2 12.1511625,3.6841403 12.4565664,5.87227165 L12.4565664,5.87227165 L12.474,6.029 L12.5910907,6.04337027 C14.4556543,6.31954468 15.9008313,7.88238014 15.9951047,9.80035966 L15.9951047,9.80035966 L16,10 C16,12.1274828 14.3347321,13.8796884 12.2055145,13.9946394 L12.2055145,13.9946394 L12,14 L3.98652075,13.9998183 L3.78096747,13.9940917 C1.66526786,13.8796884 0,12.1274828 0,10 C0,8.00977413 1.45732598,6.34796468 3.38849484,6.04771467 L3.38849484,6.04771467 L3.525,6.029 L3.5470089,5.84716693 C3.85373769,3.73476759 5.62419579,2.10791719 7.78287758,2.00515723 L7.78287758,2.00515723 Z M8,3 C6.13212828,3 4.59561016,4.467059 4.50474506,6.31261629 L4.50474506,6.31261629 L4.49984975,6.51225663 C4.49332571,6.77832018 4.27952604,6.99264345 4.01347925,6.99981828 L4.01347925,6.99981828 L3.83496212,7.00444948 C2.24910158,7.09020256 1,8.40451529 1,10 C1,11.5954847 2.24910158,12.9097974 3.82144405,12.9950029 L3.82144405,12.9950029 L4,13 L11.9865208,13.0001817 L12.1650379,12.9955505 C13.7508984,12.9097974 15,11.5954847 15,10 C15,8.34314575 13.6568542,7 12,7 C11.7238576,7 11.5,6.77614237 11.5,6.5 C11.5,4.56700338 9.93299662,3 8,3 Z M5.5,8 C5.77614237,8 6,8.22385763 6,8.5 C6,8.74545989 5.82312484,8.94960837 5.58987563,8.99194433 L5.5,9 L5,9 C4.44771525,9 4,9.44771525 4,10 C4,10.5128358 4.38604019,10.9355072 4.88337887,10.9932723 L5,11 L8,11 C8.55228475,11 9,10.5522847 9,10 C9,9.72385763 9.22385763,9.5 9.5,9.5 C9.77614237,9.5 10,9.72385763 10,10 C10,11.0543618 9.18412221,11.9181651 8.14926234,11.9945143 L8,12 L5,12 C3.8954305,12 3,11.1045695 3,10 C3,8.9456382 3.81587779,8.08183488 4.85073766,8.00548574 L5,8 L5.5,8 Z M11,8 C12.1045695,8 13,8.8954305 13,10 C13,11.0543618 12.1841222,11.9181651 11.1492623,11.9945143 L11,12 L10.5,12 C10.2238576,12 10,11.7761424 10,11.5 C10,11.2545401 10.1768752,11.0503916 10.4101244,11.0080557 L10.5,11 L11,11 C11.5522847,11 12,10.5522847 12,10 C12,9.48716416 11.6139598,9.06449284 11.1166211,9.00672773 L11,9 L8,9 C7.44771525,9 7,9.44771525 7,10 C7,10.2761424 6.77614237,10.5 6.5,10.5 C6.22385763,10.5 6,10.2761424 6,10 C6,8.9456382 6.81587779,8.08183488 7.85073766,8.00548574 L8,8 L11,8 Z" id="形状结合"></path>
            </g>
        </g>
    </g>
</svg>