<?xml version="1.0" encoding="UTF-8"?>
<svg width="16px" height="16px" viewBox="0 0 16 16" version="1.1" xmlns="http://www.w3.org/2000/svg" xmlns:xlink="http://www.w3.org/1999/xlink">
    <title>general-plugin通用</title>
    <g id="general-plugin通用" stroke="none" stroke-width="1" fill="none" fill-rule="evenodd">
        <path d="M9.50176108,14.99 L3.35176108,14.99 C2.05389192,14.99 1.00176108,13.9378692 1.00176108,12.64 L1.00176108,11.48 C1.00073892,11.3044764 1.09183037,11.1412709 1.24176108,11.05 C1.39390045,10.9644817 1.57962172,10.9644817 1.73176108,11.05 C2.42598104,11.4097281 3.27736602,11.2328166 3.77080765,10.6263011 C4.26424928,10.0197856 4.26424928,9.15021444 3.77080765,8.54369897 C3.27736602,7.9371835 2.42598104,7.76027194 1.73176108,8.12000004 C1.57962172,8.20551842 1.39390045,8.20551842 1.24176108,8.12000004 C1.07886518,8.02174609 0.985837176,7.83956624 1.00176108,7.65000004 L1.00176108,6.49000004 C1.00176108,5.19213088 2.05389192,4.14000004 3.35176108,4.14000004 L3.81176108,4.14000004 C3.78030619,3.98188757 3.76356799,3.82120085 3.76176108,3.66000004 C3.76176107,2.70967356 4.2687542,1.83153568 5.09176107,1.35637243 C5.91476794,0.881209189 6.92875423,0.881209189 7.7517611,1.35637243 C8.57476797,1.83153568 9.0817611,2.70967356 9.08176108,3.66000004 C9.0966193,3.81965509 9.0966193,3.98034499 9.08176108,4.14000004 L9.50176108,4.14000004 C10.7957233,4.14550631 11.8417728,5.19602611 11.8417611,6.49000004 L11.8417611,6.99000004 C12.0081013,6.975248 12.1754209,6.975248 12.3417611,6.99000004 C13.7502936,7.07632212 14.8484363,8.24382485 14.8484363,9.65500004 C14.8484363,11.0661752 13.7502936,12.233678 12.3417611,12.32 C12.1739415,12.3181923 12.0066154,12.3014596 11.8417611,12.27 L11.8417611,12.73 C11.7935269,13.9887272 10.7614043,14.9855636 9.50176108,14.99 L9.50176108,14.99 Z M2.00176108,12.18 L2.00176108,12.64 C2.00176108,13.3855845 2.60617667,13.99 3.35176108,13.99 L9.50176108,13.99 C10.2434373,13.984506 10.8417814,13.3816966 10.8417611,12.64 L10.8417611,11.47 C10.848486,11.2940356 10.9421684,11.1329018 11.0917611,11.04 C11.2439004,10.9544817 11.4296217,10.9544817 11.5817611,11.04 C12.275981,11.3997281 13.127366,11.2228166 13.6208077,10.6163011 C14.1142493,10.0097856 14.1142493,9.14021444 13.6208077,8.53369897 C13.127366,7.9271835 12.275981,7.75027194 11.5817611,8.11000004 C11.4260525,8.18877239 11.2408786,8.18246645 11.0908897,8.09328381 C10.9409007,8.00410118 10.8469206,7.8444237 10.8417611,7.67000004 L10.8417611,6.49000004 C10.8417814,5.74830348 10.2434373,5.14549409 9.50176108,5.14000004 L8.33176108,5.14000004 C8.15927803,5.13949759 7.99976229,5.04834574 7.91176108,4.90000004 C7.82624271,4.74786068 7.82624271,4.5621394 7.91176108,4.41000004 C8.03511519,4.17916021 8.10033149,3.92172741 8.10176108,3.66000004 C8.10176108,2.74320735 7.35855377,2.00000004 6.44176108,2.00000004 C5.5249684,2.00000004 4.78176108,2.74320735 4.78176108,3.66000004 C4.79726948,3.92344879 4.87250061,4.17991856 5.00176108,4.41000004 C5.08727946,4.5621394 5.08727946,4.74786068 5.00176108,4.90000004 C4.90910481,5.04848403 4.74678063,5.13908357 4.57176108,5.14000004 L3.35176108,5.14000004 C2.99371882,5.14000004 2.65034104,5.28223177 2.39716693,5.53540589 C2.14399282,5.78858 2.00176108,6.13195778 2.00176108,6.49000004 L2.00176108,6.99000004 C2.16473852,6.97475142 2.32878365,6.97475142 2.49176108,6.99000004 C3.90029362,7.07632212 4.99843625,8.24382485 4.99843625,9.65500004 C4.99843625,11.0661752 3.90029362,12.233678 2.49176108,12.32 C2.32428095,12.289305 2.16017744,12.2424183 2.00176108,12.18 Z" id="形状" fill="#252B3A" fill-rule="nonzero"></path>
    </g>
</svg>