<?xml version="1.0" encoding="UTF-8"?>
<svg width="16px" height="16px" viewBox="0 0 16 16" version="1.1" xmlns="http://www.w3.org/2000/svg" xmlns:xlink="http://www.w3.org/1999/xlink">
    <title>function icon/global variable</title>
    <g id="图标入库记录" stroke="none" stroke-width="1" fill="none" fill-rule="evenodd">
        <g id="DevUI图标入库-2023.09" transform="translate(-232.000000, -420.000000)" fill="#71757F" fill-rule="nonzero">
            <g id="编组-5" transform="translate(232.000000, 420.000000)">
                <path d="M1.5,7.5 L7.5,7.5 C7.77614237,7.5 8,7.72385763 8,8 C8,8.27614237 7.77614237,8.5 7.5,8.5 L1.5,8.5 C1.22385763,8.5 1,8.27614237 1,8 C1,7.72385763 1.22385763,7.5 1.5,7.5 Z M11,6 C11.9319128,6 12.7149582,6.63737692 12.9369863,7.49998077 L14.5,7.5 C14.7761424,7.5 15,7.72385763 15,8 C15,8.27614237 14.7761424,8.5 14.5,8.5 L12.9367279,8.50102216 C12.7143512,9.36311708 11.9315516,10 11,10 C9.8954305,10 9,9.1045695 9,8 C9,6.8954305 9.8954305,6 11,6 Z M11,7 C10.4477153,7 10,7.44771525 10,8 C10,8.55228475 10.4477153,9 11,9 C11.5522847,9 12,8.55228475 12,8 C12,7.44771525 11.5522847,7 11,7 Z M8.5,3 L14.5,3 C14.7761424,3 15,3.22385763 15,3.5 C15,3.77614237 14.7761424,4 14.5,4 L8.5,4 C8.22385763,4 8,3.77614237 8,3.5 C8,3.22385763 8.22385763,3 8.5,3 Z M5,1.5 C6.1045695,1.5 7,2.3954305 7,3.5 C7,4.6045695 6.1045695,5.5 5,5.5 C4.06844842,5.5 3.28564881,4.86311708 3.06327212,4.00102216 L1.5,4 C1.22385763,4 1,3.77614237 1,3.5 C1,3.22385763 1.22385763,3 1.5,3 L3.06301369,2.99998077 C3.28504178,2.13737692 4.06808721,1.5 5,1.5 Z M5,2.5 C4.44771525,2.5 4,2.94771525 4,3.5 C4,4.05228475 4.44771525,4.5 5,4.5 C5.55228475,4.5 6,4.05228475 6,3.5 C6,2.94771525 5.55228475,2.5 5,2.5 Z M8.5,12 L14.5,12 C14.7761424,12 15,12.2238576 15,12.5 C15,12.7761424 14.7761424,13 14.5,13 L8.5,13 C8.22385763,13 8,12.7761424 8,12.5 C8,12.2238576 8.22385763,12 8.5,12 Z M5,10.5 C6.1045695,10.5 7,11.3954305 7,12.5 C7,13.6045695 6.1045695,14.5 5,14.5 C4.06844842,14.5 3.28564881,13.8631171 3.06327212,13.0010222 L1.5,13 C1.22385763,13 1,12.7761424 1,12.5 C1,12.2238576 1.22385763,12 1.5,12 L3.06301369,11.9999808 C3.28504178,11.1373769 4.06808721,10.5 5,10.5 Z M5,11.5 C4.44771525,11.5 4,11.9477153 4,12.5 C4,13.0522847 4.44771525,13.5 5,13.5 C5.55228475,13.5 6,13.0522847 6,12.5 C6,11.9477153 5.55228475,11.5 5,11.5 Z" id="形状"></path>
            </g>
        </g>
    </g>
</svg>