<?xml version="1.0" encoding="UTF-8"?>
<svg width="16px" height="16px" viewBox="0 0 16 16" version="1.1" xmlns="http://www.w3.org/2000/svg" xmlns:xlink="http://www.w3.org/1999/xlink">
    <title>grabbing</title>
    <g id="页面-1" stroke="none" stroke-width="1" fill="none" fill-rule="evenodd">
        <path d="M7.02438122,3.09084333 C7.33962449,2.99571729 7.6880782,2.97204138 7.99518845,3.03533099 L7.99518845,3.03533099 L8.13150439,3.07109611 C8.44918503,3.17245261 8.75682235,3.3946269 8.90082118,3.64282014 L8.90082118,3.64282014 L8.93510701,3.70901353 L8.99087471,3.64810295 C9.15214242,3.4877721 9.3685337,3.35407392 9.56224481,3.29140366 L9.56224481,3.29140366 L9.67512742,3.26268002 C9.99578088,3.2059658 10.3456909,3.19963259 10.6408598,3.25713373 C10.9377898,3.31556573 11.3177719,3.60860917 11.4662873,3.84199047 C11.5312973,3.94410657 11.5871138,4.07754928 11.6354015,4.23559106 L11.6354015,4.23559106 L11.668107,4.35401353 L11.6785111,4.34560782 C11.926272,4.15622804 12.2537922,4.05322174 12.5755728,4.06806187 L12.5755728,4.06806187 L12.7128781,4.08172878 C13.3030727,4.17284095 13.7042727,4.64631595 13.7321184,5.3692789 L13.7321184,5.3692789 L13.7483875,5.84753187 L13.7483875,6.54277128 C13.7467449,6.69574419 13.7433543,6.83077225 13.7377937,6.96202636 L13.7377937,6.96202636 L13.7141802,7.35863762 L13.674464,7.80844821 C13.6289691,8.25450777 13.5667911,8.67405916 13.4938039,8.92980622 C13.3923627,9.28485042 13.1184879,9.88661583 12.8567799,10.2599354 C12.8321831,10.288563 12.8049976,10.3207281 12.7757508,10.3559201 L12.7757508,10.3559201 L12.5797521,10.5993074 L12.3595914,10.890821 C12.3025234,10.9692059 12.2492809,11.045092 12.2006019,11.1177026 C12.0388216,11.3590171 11.9361819,11.5537607 11.9165124,11.6482417 C11.908282,11.6878461 11.9010055,11.7238379 11.8945727,11.7568487 L11.8945727,11.7568487 L11.8652167,11.9241949 L11.8508126,12.0503138 L11.8347433,12.4963722 L11.838459,12.5804618 C11.8451659,12.675703 11.8601186,12.7808021 11.8808718,12.8885308 C11.8868249,12.9194334 11.8927584,12.9482009 11.898426,12.9742864 L11.898426,12.9742864 L11.9272712,13.0942405 C11.9876295,13.3138775 11.839844,13.5361603 11.6139604,13.5654886 L11.6139604,13.5654886 L11.3627374,13.5921273 C11.2143405,13.6053784 11.0671552,13.6144771 10.9278351,13.6175234 C10.7415757,13.621596 10.5803187,13.6147373 10.4470219,13.5931864 C10.0100551,13.5238975 9.59513514,13.0049679 9.31470882,12.4710361 L9.346,12.529 L9.29521187,12.6147703 C9.02659609,13.0456742 8.72867698,13.3956511 8.42388582,13.5393761 L8.30931083,13.5833601 L8.20585975,13.6051995 C8.17750405,13.6087598 8.14835481,13.6120729 8.11824356,13.6151479 L8.11824356,13.6151479 L7.92468421,13.630813 L7.69995011,13.6412008 L7.43595475,13.646749 L6.75783406,13.6450782 L5.45863024,13.6252837 C5.22590685,13.6231388 5.05131961,13.4117323 5.09321123,13.1828003 L5.09321123,13.1828003 L5.10727751,13.0811477 C5.12364759,12.9372909 5.12834739,12.7879857 5.1149524,12.6552193 C5.09939633,12.501033 5.06153889,12.4010129 5.02383282,12.369247 L5.02383282,12.369247 L4.85460578,12.219099 L4.0062177,11.4247743 L3.27504057,10.614072 L2.94498369,10.2446013 L2.75708963,10.0235328 C2.45617965,9.64192395 2.24575758,9.23908016 2.13654545,8.76054038 C1.937418,7.88550147 1.95022231,7.39341854 2.21368583,6.96198324 C2.43845037,6.59286561 2.8672921,6.31637554 3.19328495,6.25260129 C3.3602589,6.21888539 3.58921331,6.21196377 3.79820717,6.23618546 L3.79820717,6.23618546 L3.83810701,6.24201353 L3.68331425,5.80148663 C3.5844053,5.4901258 3.53738642,5.2299031 3.54726179,4.95574414 C3.56560176,4.44910256 3.84556202,3.96830782 4.50626402,3.72269718 C4.99305654,3.54217829 5.66249354,3.61853638 6.08852137,3.93191688 L6.08852137,3.93191688 L6.16510701,3.99501353 L6.19351022,3.90868398 C6.32748565,3.5605769 6.57219773,3.2767674 6.89832459,3.13654235 L6.89832459,3.13654235 Z M7.73207466,3.7540488 C7.576703,3.74096843 7.401548,3.76043321 7.23978881,3.80924283 C7.09342649,3.8528493 6.96654262,3.98818287 6.89331648,4.17844505 C6.85373098,4.28097398 6.82807853,4.46177439 6.81700893,4.71029934 L6.81700893,4.71029934 L6.8001325,5.42648037 L6.81383864,5.46195822 C6.81857396,5.48340594 6.81216451,5.50274185 6.78056693,5.53374524 L6.78056693,5.53374524 L6.71252403,5.59072333 L6.4209615,5.798521 L6.19019784,5.68634255 L6.11354884,5.64372343 C6.08714214,5.62655852 6.07649959,5.61423739 6.07211479,5.60058067 L6.07211479,5.60058067 L6.06887213,5.56965552 C6.04831851,5.52735054 6.03073324,5.47870991 6.00375991,5.39638501 L6.00375991,5.39638501 L5.85404464,4.93746661 C5.81184311,4.81646738 5.77284047,4.7163316 5.73656205,4.63764318 C5.64021552,4.4287639 5.0890046,4.30650599 4.76731683,4.42579842 C4.42234388,4.55403939 4.3049994,4.75556303 4.2967733,4.98280888 C4.28915472,5.19431502 4.34118248,5.42366963 4.45513314,5.74265287 L4.45513314,5.74265287 L4.63230944,6.24604686 C4.66018431,6.32126602 4.69862253,6.40405289 4.75377232,6.51119548 L4.75377232,6.51119548 L4.85552112,6.70770921 L4.91844873,6.83915405 C4.94478564,6.89879378 4.9652199,6.9531631 4.98081422,7.00693377 C5.00979015,7.10498363 5.02433521,7.1637083 5.029641,7.22065927 C5.06267166,7.57520128 4.66022307,7.79884911 4.38249939,7.54466134 C4.34300758,7.50851629 4.3152312,7.47386697 4.2608881,7.40057108 L4.2608881,7.40057108 L4.10018286,7.18599597 L4.03988506,7.12269787 C4.02337565,7.10847857 4.00528575,7.09582297 3.97707907,7.07904587 L3.97707907,7.07904587 L3.83787454,7.00175189 C3.79060649,6.97566406 3.47614027,6.96062336 3.33951243,6.98820472 C3.20934615,7.01367203 2.96399089,7.17186161 2.85402177,7.35245686 C2.71621602,7.5781213 2.70805101,7.89191102 2.86779708,8.59389407 C2.94990861,8.95368566 3.10945774,9.25913545 3.34602193,9.55914205 L3.34602193,9.55914205 L3.44957229,9.68208621 L4.53206045,10.8917356 L4.61636986,10.9669945 L5.28890586,11.5992437 L5.50868047,11.7970427 C5.72544129,11.9796058 5.82791005,12.25033 5.86116415,12.5799329 C5.86767092,12.6444258 5.87130975,12.709628 5.87245758,12.7750367 L5.87245758,12.7750367 L5.87010701,12.8800135 L6.93550826,12.8967511 L7.53229245,12.8950474 L7.86095965,12.8831898 L8.11222552,12.8610674 C8.13465211,12.8582394 8.18003042,12.8214562 8.23854936,12.7611238 L8.23854936,12.7611238 L8.37020113,12.6121433 L8.51945268,12.4188642 C8.59557142,12.3142332 8.67174935,12.1999276 8.7381754,12.0863531 C9.01670787,11.6149905 9.69902762,11.5889726 9.97881184,12.1225147 C10.1402473,12.4298879 10.465567,12.8367567 10.5655976,12.85262 C10.6469145,12.865766 10.7668024,12.8708652 10.9114401,12.8677026 L10.9114401,12.8677026 L11.115107,12.8580135 L11.1109923,12.8292477 L11.0903117,12.633146 C11.0840302,12.5439451 11.0827547,12.4592444 11.0874254,12.3782412 L11.0874254,12.3782412 L11.1038505,11.9820148 C11.1090217,11.9178312 11.1171798,11.8512366 11.1297632,11.7731721 L11.1297632,11.7731721 L11.1822282,11.4955105 C11.2275517,11.2778029 11.3644309,11.018095 11.5776432,10.7000634 C11.6319931,10.618994 11.690743,10.5352583 11.7532628,10.4493851 C11.8702988,10.2886318 11.9950739,10.127713 12.1197993,9.97383161 L12.1197993,9.97383161 L12.264354,9.80162461 C12.4530571,9.52994569 12.6928789,9.00300266 12.7726299,8.72387412 C12.8161707,8.57130727 12.8584385,8.31799631 12.8944445,8.02939813 L12.8944445,8.02939813 L12.9343269,7.6703317 L12.9662822,7.30252498 L12.988523,6.92894852 L12.9984655,6.53201084 L12.9994127,5.91513509 L12.9826922,5.39860834 C12.9683566,5.02641401 12.8256727,4.85802603 12.5984513,4.82294837 C12.3830768,4.78969961 12.1354822,4.89192066 12.0432254,5.03712118 C12.0183857,5.07602541 11.9936777,5.12607175 11.9700433,5.1852655 C11.952819,5.22840472 11.9384468,5.26915626 11.9238953,5.3161487 L11.9238953,5.3161487 L11.8491195,5.58249865 L11.8349152,5.62108164 L11.8385773,5.66335308 C11.8375607,5.68732849 11.8268649,5.70373454 11.7899122,5.71762168 L11.7899122,5.71762168 L11.7127181,5.73719449 C11.6958795,5.7403522 11.6768819,5.7435103 11.655466,5.7467477 L11.655466,5.7467477 L11.2658269,5.79445375 L11.1350614,5.60859228 L11.103831,5.5537301 C11.0962183,5.53450993 11.0986974,5.52424722 11.1026639,5.50782687 C11.0967512,5.45317426 11.0903753,5.39846263 11.0835835,5.34408617 L11.0835835,5.34408617 L11.0382196,5.02500249 L10.9851414,4.73288219 C10.9383253,4.50593881 10.8858358,4.32679028 10.8335791,4.24470658 C10.7881262,4.17328059 10.5743739,4.00843416 10.4967492,3.99315793 C10.3002284,3.95487465 10.0412656,3.95956176 9.80649619,4.00108484 C9.72491159,4.01568419 9.52508881,4.147686 9.47191191,4.23631418 C9.43254183,4.30193098 9.39095205,4.48213896 9.35929376,4.74275264 L9.35929376,4.74275264 L9.30238824,5.30211279 L9.28284794,5.43840206 L9.27107697,5.49488175 L9.26074135,5.52936577 L9.22891869,5.59748788 L9.17011398,5.67955447 C9.11653391,5.74332902 9.06599234,5.75519354 8.90477076,5.74184321 L8.90477076,5.74184321 L8.70244403,5.72107665 C8.60796755,5.66002383 8.54008547,5.34452942 8.49489183,5.05541732 L8.49489183,5.05541732 L8.42691496,4.550114 C8.38083752,4.32125675 8.32099996,4.1377755 8.25222353,4.01941147 C8.20087625,3.93091048 8.00766814,3.80340019 7.8443756,3.7700113 L7.8443756,3.7700113 Z M8.89695659,7.3386063 C9.0781731,7.33777551 9.22995923,7.46562084 9.26571345,7.63633911 L9.2736802,7.71187879 L9.28742316,10.6949591 C9.28837728,10.9020637 9.12125932,11.0707286 8.91415473,11.0716868 C8.73293822,11.0725176 8.58115209,10.9446723 8.54539788,10.773954 L8.53743112,10.6984143 L8.52368816,7.71533398 C8.52273404,7.5082294 8.689852,7.33956449 8.89695659,7.3386063 Z M10.6431806,7.34058194 C10.8243991,7.34058194 10.9755946,7.46912518 11.010562,7.64000636 L11.0181806,7.71558194 L11.0181806,10.6866372 C11.0181806,10.893744 10.8502874,11.0616372 10.6431806,11.0616372 C10.4619622,11.0616372 10.3107666,10.9330939 10.2757993,10.7622128 L10.2681806,10.6866372 L10.2681806,7.71558194 C10.2681806,7.50847516 10.4360738,7.34058194 10.6431806,7.34058194 Z M7.19569486,7.36574857 C7.37690989,7.36464499 7.5288905,7.49225907 7.5649046,7.66292271 L7.57298637,7.73845017 L7.591024,10.6811606 C7.59229345,10.8882635 7.42543249,11.0571826 7.2183296,11.0584593 C7.03711457,11.0595628 6.88513395,10.9319488 6.84911985,10.7612851 L6.84103809,10.6857577 L6.82300046,7.74304728 C6.821731,7.53594439 6.98859197,7.36702523 7.19569486,7.36574857 Z" id="grabbing" fill="#191919" fill-rule="nonzero"></path>
    </g>
</svg>