<?xml version="1.0" encoding="UTF-8"?>
<svg width="16px" height="16px" viewBox="0 0 16 16" version="1.1" xmlns="http://www.w3.org/2000/svg" xmlns:xlink="http://www.w3.org/1999/xlink">
    <title>grab</title>
    <g id="é¡µé¢-1" stroke="none" stroke-width="1" fill="none" fill-rule="evenodd">
        <path d="M6.95704299,2.14880989 C7.34815436,1.95800071 7.82073222,1.95035062 8.24645048,2.12780792 L8.24645048,2.12780792 L8.37790894,2.19144363 C8.71051783,2.37981857 8.89992121,2.71528617 8.95501255,3.1415675 L8.934,3.021 L9.05467349,2.91754523 L9.17574688,2.83566973 L9.30738037,2.76538672 C9.74962965,2.55708834 10.4045395,2.67513536 10.7239643,3.01871086 C10.9829525,3.29587365 11.129551,3.64698051 11.1612029,4.05230263 C11.1700798,4.16465123 11.1716183,4.28577041 11.1677942,4.42941472 L11.1677942,4.42941472 L11.1532326,4.79599477 L11.1755696,4.7591243 C11.3150562,4.54082773 11.4690402,4.40139581 11.6775558,4.28905633 L11.6775558,4.28905633 L11.8095293,4.22448956 C12.3710045,3.98014387 12.9984263,4.29486138 13.2180467,4.84276869 C13.2882854,5.01836551 13.2855386,5.19565757 13.2477952,5.55895502 L13.2477952,5.55895502 L13.1847489,6.08841154 C13.1577819,6.25283668 13.121474,6.42271342 13.0770417,6.60001588 L13.0770417,6.60001588 L12.9347495,7.12257201 L12.8717953,7.39338932 L12.8047836,7.72204015 L12.5627796,9.03304965 L12.5028294,9.30217902 L12.4751394,9.40686062 C12.3906654,9.70251973 12.1644812,10.2000284 11.9445631,10.5147204 L11.9445631,10.5147204 L11.8060151,10.6818723 L11.6087384,10.9341982 C11.3893018,11.2253937 11.2168607,11.4938123 11.1909236,11.6173407 L11.1909236,11.6173407 L11.1555763,11.8017316 L11.1394696,11.9264085 L11.1262785,12.2944363 L11.1290504,12.3583728 C11.1342418,12.4329472 11.1460936,12.5160379 11.1626315,12.6013851 L11.1626315,12.6013851 L11.1991858,12.7626295 C11.2600114,12.9824404 11.1121703,13.2051966 10.8859926,13.2345264 L10.8859926,13.2345264 L10.7628936,13.2484817 L10.4966556,13.2701258 L10.3203021,13.277461 C10.1641478,13.2809199 10.0285868,13.2751815 9.9152388,13.2568128 C9.60544962,13.2076902 9.32318145,12.9221809 9.09880938,12.5751092 L9.09880938,12.5751092 L9.02723263,12.4579948 L8.93356157,12.5995146 C8.71120843,12.9214153 8.47173395,13.1625372 8.21750626,13.2426618 L8.21750626,13.2426618 L8.10765519,13.26691 C8.07994377,13.2703947 8.05135837,13.2735928 8.02166684,13.2765172 L8.02166684,13.2765172 L7.82838719,13.2908788 L7.59741833,13.2992767 L7.15592392,13.3020212 L5.86011189,13.2838242 C5.6273885,13.2816793 5.45280126,13.0702728 5.49469288,12.8413408 L5.49469288,12.8413408 L5.50546799,12.7631421 C5.51829506,12.6504205 5.52197799,12.5334198 5.51162828,12.4308371 C5.50058805,12.3214102 5.47571338,12.2556909 5.46139265,12.2436209 L5.46139265,12.2436209 L5.35627422,12.1511486 L4.62559887,11.467619 L4.02705321,10.8038007 L3.94903525,10.6890468 L3.26643301,9.58383398 L3.14278163,9.39511171 L3.07320524,9.30094857 L2.98164958,9.19092745 L2.52716157,8.68335475 C2.38114405,8.51303874 2.29253349,8.38943431 2.22050357,8.25097634 C2.0074281,7.8448908 1.93210794,7.37628819 2.06888318,7.01640505 C2.28975356,6.43330724 2.76913249,6.13303401 3.40892865,6.19356841 C3.84005973,6.23510319 4.14336935,6.36924076 4.48151077,6.65622898 L4.449,6.63 L4.42423263,6.60999477 L4.24327603,6.17075701 L4.17028003,5.96735873 L4.1019883,5.79715778 L3.92013377,5.38851435 L3.82496481,5.15706831 C3.80818834,5.11237674 3.79060733,5.06347767 3.77266955,5.01180767 L3.77266955,5.01180767 L3.66434358,4.68002915 C3.61162203,4.50900693 3.56374918,4.33890471 3.53281459,4.20851005 C3.431853,3.77666594 3.53067327,3.37215167 3.76823689,3.05465005 C4.0422624,2.68747753 4.70689081,2.52598505 5.14267684,2.67933795 C5.46454618,2.79212236 5.79416365,3.09130966 5.97771196,3.38584222 C6.0627495,3.52166606 6.12052468,3.61871254 6.17935902,3.73719719 L6.17935902,3.73719719 L6.21523263,3.81199477 L6.2166152,3.66568857 C6.21712656,3.63347312 6.22155139,3.57910095 6.22814777,3.51500988 L6.22814777,3.51500988 L6.27984934,3.11333929 C6.3513142,2.65523123 6.57789778,2.33323079 6.95704299,2.14880989 Z M7.84303733,2.78095604 C7.64667256,2.72801828 7.44759139,2.74398359 7.28549759,2.8230631 C7.13291873,2.89727944 7.05545195,3.00736835 7.02087248,3.22903153 L7.02087248,3.22903153 L6.9867533,3.48142177 L6.96649512,3.67903124 C6.96388514,3.81142855 6.96208348,3.93431222 6.96113079,4.05382706 L6.96113079,4.05382706 L6.96086028,4.40840988 L6.96486758,4.72419728 L6.99305084,5.71956813 L7.02385084,6.53296813 C7.03538007,6.99413736 6.36568486,7.06501186 6.28042787,6.6116453 L6.28042787,6.6116453 L6.21862553,6.2816258 C6.15821617,5.87932515 6.02211447,5.3298711 5.81306318,4.80218935 C5.79091195,4.74619597 5.77038478,4.69438485 5.75126429,4.64628726 L5.75126429,4.64628726 L5.61129188,4.30101782 L5.5427888,4.14474421 L5.48196297,4.0213457 L5.41838107,3.90832255 L5.34160975,3.78317503 C5.24114829,3.62196943 5.03763034,3.43724019 4.89418838,3.38697715 C4.7524119,3.33708619 4.43589779,3.4139933 4.36902331,3.50359934 C4.25885313,3.650841 4.21481011,3.83112819 4.26284009,4.03657615 C4.28077816,4.11218606 4.30599972,4.2054751 4.33488511,4.30491832 L4.33488511,4.30491832 L4.42891309,4.61018554 L4.523206,4.88322809 L4.56366491,4.98605583 L4.7929299,5.50542297 L4.87257647,5.70414834 L4.97587162,5.98430004 L5.1415849,6.38570102 L5.19749336,6.539641 L5.2534626,6.71388648 L5.34836303,7.05579105 L5.56631823,7.91804697 L5.57753998,7.99746786 C5.60221721,8.34351855 5.20101973,8.56625232 4.92791456,8.30556103 C4.92108865,8.29904538 4.91102693,8.28761869 4.89897157,8.27305814 L4.89897157,8.27305814 L4.81265303,8.16230637 L4.52758287,7.76968117 L4.4756015,7.70534518 C4.37003255,7.57770814 4.14364084,7.35255354 3.99691268,7.22864824 C3.77168249,7.03749134 3.61122579,6.96652996 3.33764537,6.94017291 C3.03551735,6.91158729 2.87172756,7.01418189 2.77010554,7.28246337 C2.72092895,7.41185711 2.76232624,7.66940941 2.88524119,7.90366931 C2.91107116,7.95331914 2.9459063,8.00649133 2.99552937,8.07104533 L2.99552937,8.07104533 L3.11620614,8.21765779 L3.56248987,8.71578885 L3.67053024,8.84690622 L3.76026239,8.96941556 L3.95348045,9.26647577 L4.45504598,10.0874646 L4.59973707,10.3201614 L5.15144162,10.9345803 L5.85396036,11.5900126 L5.94624031,11.6714166 C6.13961578,11.8342838 6.22910177,12.0707073 6.25784002,12.3555507 C6.26333171,12.4099824 6.26640679,12.4648877 6.26738534,12.5198857 L6.26738534,12.5198857 L6.26823263,12.5399948 L7.29200338,12.5522118 L7.66814438,12.5469036 L7.85976325,12.5374449 L8.01408716,12.5227695 C8.0240187,12.5215208 8.05951395,12.4868293 8.10872214,12.4304132 L8.10872214,12.4304132 L8.22191112,12.2920869 L8.35059992,12.1166607 C8.3937386,12.0543166 8.43594925,11.9892613 8.47372052,11.9249667 C8.72717107,11.4960504 9.3515139,11.4722432 9.60566038,11.9568969 C9.63271346,12.0081896 9.66640538,12.0639142 9.70300241,12.1196557 L9.70300241,12.1196557 L9.81777504,12.2825161 C9.83711178,12.3081963 9.85624136,12.3327769 9.87469707,12.3557061 L9.87469707,12.3557061 L9.97361104,12.4690494 C10.0013977,12.4972814 10.0227551,12.5144927 10.0339495,12.5162683 C10.0952148,12.5261955 10.1893092,12.5301786 10.3036935,12.5276449 L10.3036935,12.5276449 L10.3932326,12.5239948 L10.3808611,12.4104572 L10.3762731,12.2997005 L10.3848695,12.0223968 L10.3999889,11.7872333 C10.4035356,11.7583603 10.4078572,11.7280715 10.4130996,11.6954348 L10.4130996,11.6954348 L10.4567703,11.4639837 C10.5317118,11.1070591 10.8816224,10.6154072 11.3350452,10.074011 L11.3350452,10.074011 L11.3498186,10.059226 C11.4987679,9.84401806 11.6910908,9.42098972 11.7539654,9.20092852 C11.7591593,9.18272927 11.7646233,9.16231458 11.7703395,9.13977857 L11.7703395,9.13977857 L11.8075166,8.97985978 L11.8534289,8.7554148 L12.0340342,7.76023787 L12.1063891,7.38841886 L12.1761156,7.06800916 C12.1989378,6.97053333 12.2213489,6.88276448 12.2433761,6.80584137 L12.2433761,6.80584137 L12.349538,6.41770226 C12.408491,6.18245624 12.4506256,5.96533417 12.4724275,5.76462425 L12.4724275,5.76462425 L12.5113756,5.38073784 L12.5235744,5.17194594 L12.5217895,5.12156224 C12.4508803,4.9446587 12.2573115,4.84756373 12.1120975,4.91073991 C11.9622879,4.97765093 11.8891215,5.03532226 11.8074917,5.16307291 L11.8074917,5.16307291 L11.6559099,5.39863367 L11.5914329,5.50549559 L11.5005823,5.68866407 L11.3551004,6.03858939 L11.2427276,6.33111246 L11.1199339,6.68218075 C11.0210685,6.98398024 10.4979895,7.26664768 10.3795382,6.64744867 C10.3706969,6.60123139 10.3692209,6.55552081 10.370291,6.50522339 L10.370291,6.50522339 L10.3972993,5.22786957 L10.3987774,4.90442981 L10.4197394,4.2972839 C10.4198365,4.2271685 10.4178451,4.16595154 10.4135062,4.11103548 C10.3946907,3.87009335 10.3152431,3.67981443 10.1753267,3.53007759 C10.0801236,3.42767696 9.77728245,3.37309007 9.62679985,3.44396698 C9.4530526,3.52570411 9.33759359,3.66162837 9.26726574,3.87310015 C9.24707364,3.93391878 9.22804197,4.02364316 9.21022551,4.13991996 L9.21022551,4.13991996 L9.17622912,4.40717952 L9.14557067,4.74106184 L9.11834754,5.13738322 L9.04330634,6.55783294 L9.03198779,6.61825208 C9.04712002,6.65811093 9.05342512,6.67471879 8.96558698,6.72237832 L8.96558698,6.72237832 L8.86525177,6.77210037 L8.6021737,6.89182356 L8.35462345,6.70103222 L8.30919852,6.65767424 C8.30037167,6.64672154 8.29706269,6.63850815 8.29688078,6.63075206 L8.29688078,6.63075206 L8.30332551,6.6065737 L8.29384108,6.5428332 L8.28433088,5.5456766 L8.27307525,4.88983957 C8.27171003,4.78704732 8.27077779,4.68811748 8.27030454,4.58905454 L8.27030454,4.58905454 L8.27318099,3.96111531 L8.26528675,3.83962872 L8.21116095,3.23740445 C8.18112753,3.00501469 8.10061449,2.87845543 7.9602126,2.82103338 L7.9602126,2.82103338 Z M8.66184037,8.02164011 C8.84305688,8.02080932 8.99484302,8.14865466 9.03059723,8.31937292 L9.03856399,8.3949126 L9.04976399,10.8260126 C9.05071811,11.0331172 8.88360015,11.2017821 8.67649556,11.2027403 C8.49527905,11.2035711 8.34349292,11.0757257 8.3077387,10.9050075 L8.29977195,10.8294678 L8.28857195,8.39836779 C8.28761782,8.19126321 8.45473579,8.0225983 8.66184037,8.02164011 Z M10.085268,8.0230402 C10.2664864,8.0230402 10.417682,8.15158344 10.4526493,8.32246462 L10.460268,8.3980402 L10.460268,10.8193402 C10.460268,11.026447 10.2923747,11.1943402 10.085268,11.1943402 C9.90404953,11.1943402 9.75285398,11.065797 9.71788664,10.8949158 L9.71026797,10.8193402 L9.71026797,8.3980402 C9.71026797,8.19093342 9.87816119,8.0230402 10.085268,8.0230402 Z M7.27526941,8.04404005 C7.45648444,8.04293647 7.60846505,8.17055055 7.64447916,8.34121418 L7.65256092,8.41674164 L7.66726092,10.8149416 C7.66853038,11.0220445 7.50166941,11.1909637 7.29456652,11.1922403 C7.11335149,11.1933439 6.96137088,11.0657298 6.92535678,10.8950662 L6.91727501,10.8195388 L6.90257501,8.42133875 C6.90130556,8.21423586 7.06816652,8.0453167 7.27526941,8.04404005 Z" id="grab" fill="#191919" fill-rule="nonzero"></path>
    </g>
</svg>