<?xml version="1.0" encoding="UTF-8"?>
<svg width="24px" height="24px" viewBox="0 0 24 24" version="1.1" xmlns="http://www.w3.org/2000/svg" xmlns:xlink="http://www.w3.org/1999/xlink">
    <title>icon icon-hamburger</title>
    <g id="icon-icon-hamburger" stroke="none" stroke-width="1" fill="none" fill-rule="evenodd">
        <g transform="translate(3.000000, 3.000000)" fill="#71757F" id="形状结合">
            <path d="M2,14 C3.1045695,14 4,14.8954305 4,16 C4,17.1045695 3.1045695,18 2,18 C0.8954305,18 1.3527075e-16,17.1045695 0,16 C-1.3527075e-16,14.8954305 0.8954305,14 2,14 Z M9,14 C10.1045695,14 11,14.8954305 11,16 C11,17.1045695 10.1045695,18 9,18 C7.8954305,18 7,17.1045695 7,16 C7,14.8954305 7.8954305,14 9,14 Z M16,14 C17.1045695,14 18,14.8954305 18,16 C18,17.1045695 17.1045695,18 16,18 C14.8954305,18 14,17.1045695 14,16 C14,14.8954305 14.8954305,14 16,14 Z M2,7 C3.1045695,7 4,7.8954305 4,9 C4,10.1045695 3.1045695,11 2,11 C0.8954305,11 1.3527075e-16,10.1045695 0,9 C-1.3527075e-16,7.8954305 0.8954305,7 2,7 Z M9,7 C10.1045695,7 11,7.8954305 11,9 C11,10.1045695 10.1045695,11 9,11 C7.8954305,11 7,10.1045695 7,9 C7,7.8954305 7.8954305,7 9,7 Z M16,7 C17.1045695,7 18,7.8954305 18,9 C18,10.1045695 17.1045695,11 16,11 C14.8954305,11 14,10.1045695 14,9 C14,7.8954305 14.8954305,7 16,7 Z M2,0 C3.1045695,-2.02906125e-16 4,0.8954305 4,2 C4,3.1045695 3.1045695,4 2,4 C0.8954305,4 1.3527075e-16,3.1045695 0,2 C-1.3527075e-16,0.8954305 0.8954305,2.02906125e-16 2,0 Z M9,0 C10.1045695,-2.02906125e-16 11,0.8954305 11,2 C11,3.1045695 10.1045695,4 9,4 C7.8954305,4 7,3.1045695 7,2 C7,0.8954305 7.8954305,2.02906125e-16 9,0 Z M16,0 C17.1045695,-2.02906125e-16 18,0.8954305 18,2 C18,3.1045695 17.1045695,4 16,4 C14.8954305,4 14,3.1045695 14,2 C14,0.8954305 14.8954305,2.02906125e-16 16,0 Z"></path>
        </g>
    </g>
</svg>