<?xml version="1.0" encoding="UTF-8"?>
<svg width="16px" height="16px" viewBox="0 0 16 16" version="1.1" xmlns="http://www.w3.org/2000/svg" xmlns:xlink="http://www.w3.org/1999/xlink">
    <title>health-check-2</title>
    <g id="页面-1" stroke="none" stroke-width="1" fill="none" fill-rule="evenodd">
        <g id="API测试图标备份" transform="translate(-846.000000, -319.000000)">
            <g id="编组" transform="translate(846.000000, 319.000000)">
                <path d="M11.3333333,1.33333333 C12.3984539,1.33333333 13.2691073,2.16594664 13.3299382,3.21581814 L13.3333333,3.33333333 L13.3333333,7.23333333 C13.3333333,7.50947571 13.1094757,7.73333333 12.8333333,7.73333333 C12.5802028,7.73333333 12.371006,7.54523075 12.3378977,7.30118037 L12.3333333,7.23333333 L12.3333333,3.33333333 C12.3333333,2.81353592 11.9367413,2.38636755 11.42964,2.33791105 L11.3333333,2.33333333 L4.66666667,2.33333333 C4.14686926,2.33333333 3.71970088,2.72992539 3.67124439,3.23702666 L3.66666667,3.33333333 L3.66666667,12.6666667 C3.66666667,13.1864641 4.06325872,13.6136325 4.57035999,13.6620889 L4.66666667,13.6666667 L8.26666667,13.6666667 C8.54280904,13.6666667 8.76666667,13.8905243 8.76666667,14.1666667 C8.76666667,14.4197972 8.57856408,14.628994 8.3345137,14.6621023 L8.26666667,14.6666667 L4.66666667,14.6666667 C3.60154608,14.6666667 2.73089275,13.8340534 2.6700618,12.7841819 L2.66666667,12.6666667 L2.66666667,3.33333333 C2.66666667,2.26821274 3.49927998,1.39755941 4.54915147,1.33672846 L4.66666667,1.33333333 L11.3333333,1.33333333 Z M13.101266,8.86499259 C14.1505503,9.91499343 14.2598897,11.5483121 13.4292843,12.7198809 L14.5217867,13.8123799 C14.7170489,14.0076421 14.7170489,14.3242246 14.5217867,14.5194867 C14.3442757,14.6969978 14.0664999,14.7131351 13.8707589,14.5678988 L13.8146799,14.5194867 L12.7233106,13.4288592 C11.5511748,14.2673865 9.91126253,14.160536 8.85894661,13.1082201 C7.6870178,11.9362912 7.6870178,10.0370421 8.85894661,8.86511328 C10.0301886,7.69387125 11.9293447,7.69387125 13.101266,8.86499259 Z M9.56605339,9.57222006 C8.78464887,10.3536246 8.78464887,11.6197088 9.56605339,12.4011133 C10.3468114,13.1818712 11.6129886,13.1818712 12.3941593,12.401234 C13.175058,11.6198018 13.175058,10.3535315 12.3944007,9.57234075 C11.6129886,8.79146209 10.3468114,8.79146209 9.56605339,9.57222006 Z M7.58901502,6.34350326 C7.76728475,6.52025236 7.78461173,6.79795648 7.64021515,6.99431775 L7.59204369,7.05060355 L6.26774369,8.38629689 C6.09107948,8.56448098 5.81353654,8.58188834 5.61717549,8.43767733 L5.56088469,8.38956463 L4.88518469,7.72053796 C4.68895595,7.52624721 4.6873849,7.20966862 4.88167565,7.01343989 C5.0583036,6.83505013 5.33599588,6.81753449 5.53245521,6.96179763 L5.58877372,7.00993085 L5.90897921,7.3272344 L6.88191473,6.34653192 C7.07633874,6.15043522 7.39291832,6.14907925 7.58901502,6.34350326 Z M7.51870252,3.47826888 C7.69697225,3.65501798 7.71429923,3.93272211 7.56990265,4.12908338 L7.52173119,4.18536918 L6.19743119,5.52106251 C6.02076698,5.6992466 5.74322404,5.71665397 5.54686299,5.57244295 L5.49057219,5.52433025 L4.81487219,4.85530359 C4.61864345,4.66101284 4.6170724,4.34443425 4.81136315,4.14820551 C4.9879911,3.96981575 5.26568338,3.95230011 5.46214271,4.09656326 L5.51846122,4.14469647 L5.83897921,4.46190107 L6.81160223,3.48129755 C7.00602624,3.28520085 7.32260582,3.28384487 7.51870252,3.47826888 Z M10.8333334,4.00000003 C11.1094757,4.00000003 11.3333334,4.22385765 11.3333334,4.50000003 C11.3333334,4.75313054 11.1452308,4.96232734 10.9011804,4.99543562 L10.8333334,5.00000003 L8.50000004,5.00000003 C8.22385766,5.00000003 8.00000004,4.7761424 8.00000004,4.50000003 C8.00000004,4.24686952 8.18810263,4.03767272 8.432153,4.00456444 L8.50000004,4.00000003 L10.8333334,4.00000003 Z" id="形状结合" fill="#71757F"></path>
            </g>
        </g>
    </g>
</svg>