<?xml version="1.0" encoding="UTF-8"?>
<svg width="16px" height="16px" viewBox="0 0 16 16" version="1.1" xmlns="http://www.w3.org/2000/svg" xmlns:xlink="http://www.w3.org/1999/xlink">
    <title>helping</title>
    <g id="页面-1" stroke="none" stroke-width="1" fill="none" fill-rule="evenodd">
        <path d="M8,1 C11.8659932,1 15,4.13400675 15,8 C15,11.8659932 11.8659932,15 8,15 C4.13400675,15 1,11.8659932 1,8 C1,4.13400675 4.13400675,1 8,1 Z M8,2 C4.6862915,2 2,4.6862915 2,8 C2,11.3137085 4.6862915,14 8,14 C11.3137085,14 14,11.3137085 14,8 C14,4.6862915 11.3137085,2 8,2 Z M8.40625,11.25 L8.40625,12.0625 L7.59375,12.0625 L7.59375,11.25 L8.40625,11.25 Z M8,3.9375 C9.34619408,3.9375 10.4375,5.02880592 10.4375,6.375 C10.4375,7.58277974 9.55907104,8.58539141 8.40625,8.77879813 L8.40625,10.4375 L7.59375,10.4375 L7.59375,8.40625 C7.59375,8.18188432 7.77563432,8 8,8 C8.89746272,8 9.625,7.27246272 9.625,6.375 C9.625,5.47753728 8.89746272,4.75 8,4.75 C7.10253728,4.75 6.375,5.47753728 6.375,6.375 L5.5625,6.375 C5.5625,5.02880592 6.65380592,3.9375 8,3.9375 Z" id="helping" fill="#191919" fill-rule="nonzero"></path>
    </g>
</svg>