<?xml version="1.0" encoding="UTF-8"?>
<svg width="16px" height="16px" viewBox="0 0 16 16" version="1.1" xmlns="http://www.w3.org/2000/svg" xmlns:xlink="http://www.w3.org/1999/xlink">
    <title>history</title>
    <g id="history" stroke="none" stroke-width="1" fill="none" fill-rule="evenodd">
        <g id="ipd_history" transform="translate(0.833333, 0.833333)" fill="#71757F" fill-rule="nonzero">
            <path d="M7.16666667,4.08562073e-14 C11.124709,4.08562073e-14 14.3333333,3.20862429 14.3333333,7.16666667 C14.3333333,11.124709 11.124709,14.3333333 7.16666667,14.3333333 C3.20862429,14.3333333 -3.00204306e-13,11.124709 -3.00204306e-13,7.16666667 C-3.00204306e-13,6.89052429 0.223857625,6.66666667 0.5,6.66666667 C0.776142375,6.66666667 1,6.89052429 1,7.16666667 C1,10.5724243 3.76090904,13.3333333 7.16666667,13.3333333 C10.5724243,13.3333333 13.3333333,10.5724243 13.3333333,7.16666667 C13.3333333,3.76090904 10.5724243,1 7.16666667,1 C5.25057169,1 3.48834266,1.8809292 2.3359967,3.33251096 L3.53036667,3.33333333 C3.77582656,3.33333333 3.97997504,3.51020849 4.022311,3.7434577 L4.03036667,3.83333333 C4.03036667,4.07879322 3.85349151,4.2829417 3.6202423,4.32527766 L3.53036667,4.33333333 L1.10612,4.33333333 C0.860660111,4.33333333 0.65651163,4.15645817 0.614175669,3.92320897 L0.60612,3.83333333 L0.60612,1.40909667 C0.60612,1.13295429 0.829977625,0.909096667 1.10612,0.909096667 C1.35157989,0.909096667 1.55572837,1.08597183 1.59806433,1.31922103 L1.60612,1.40909667 L1.60486615,2.64592148 C2.94448149,0.997967472 4.96883659,4.08562073e-14 7.16666667,4.08562073e-14 Z M7.1683833,2.66666667 C7.41384318,2.66666667 7.61797399,2.84358676 7.66028664,3.07684019 L7.66833333,3.16671663 L7.667,6.962 L10.3479534,9.64251328 C10.5215197,9.81607963 10.5408049,10.085504 10.4058088,10.2803722 L10.3479534,10.3496201 C10.174387,10.5231864 9.90496264,10.5424716 9.7100945,10.4074755 L9.64084661,10.3496201 L6.81437994,7.52315339 C6.7393556,7.44812905 6.69063589,7.35171786 6.67415577,7.24825008 L6.66793334,7.16955004 L6.66833334,3.1666167 C6.66836093,2.89047433 6.89224092,2.66666667 7.1683833,2.66666667 Z" id="形状结合"></path>
        </g>
    </g>
</svg>