<?xml version="1.0" encoding="UTF-8"?>
<svg width="16px" height="16px" viewBox="0 0 16 16" version="1.1" xmlns="http://www.w3.org/2000/svg" xmlns:xlink="http://www.w3.org/1999/xlink">
    <title>function icon/homepage</title>
    <g id="图标入库记录" stroke="none" stroke-width="1" fill="none" fill-rule="evenodd">
        <g id="API-starter-图标入库记录-221215" transform="translate(-92.000000, -660.000000)" fill="#71757F" fill-rule="nonzero">
            <g id="编组-16" transform="translate(92.000000, 660.000000)">
                <path d="M6.86158004,1.68000657 L1.86158004,5.14154504 C1.32198366,5.51511177 1,6.12963957 1,6.78592942 L1,13 C1,14.1045695 1.8954305,15 3,15 L5.5,15 C5.77614237,15 6,14.7761424 6,14.5 L6,12 C6,10.8954305 6.8954305,10 8,10 C9.1045695,10 10,10.8954305 10,12 L10,14.5 C10,14.7761424 10.2238576,15 10.5,15 L13,15 C14.1045695,15 15,14.1045695 15,13 L15,6.78592942 C15,6.12963957 14.6780163,5.51511177 14.13842,5.14154504 L9.13841996,1.68000657 C8.45353062,1.20585242 7.54646938,1.20585242 6.86158004,1.68000657 Z M8.56920998,2.50219877 L13.56921,5.96373723 C13.8390082,6.15052059 14,6.4577845 14,6.78592942 L14,13 L13.9932723,13.1166211 C13.9355072,13.6139598 13.5128358,14 13,14 L11,14 L11,12 C11,10.3431458 9.65685425,9 8,9 L7.82372721,9.00509269 C6.24891996,9.09633912 5,10.4023191 5,12 L5,14 L3,14 C2.44771525,14 2,13.5522847 2,13 L2,6.78592942 C2,6.4577845 2.16099183,6.15052059 2.43079002,5.96373723 L7.43079002,2.50219877 C7.77323469,2.26512169 8.22676531,2.26512169 8.56920998,2.50219877 Z" id="路径-22"></path>
            </g>
        </g>
    </g>
</svg>