<?xml version="1.0" encoding="UTF-8"?>
<svg width="16px" height="16px" viewBox="0 0 16 16" version="1.1" xmlns="http://www.w3.org/2000/svg" xmlns:xlink="http://www.w3.org/1999/xlink">
    <title>构建工具同源</title>
    <g id="构建工具同源" stroke="none" stroke-width="1" fill="none" fill-rule="evenodd">
        <path d="M9.49986028,3.789 L13.2631397,5.96132487 L13.2629619,10.257 L12.2629619,9.679 L12.2628603,7.20264973 L8.49917853,9.29392136 L8.49986028,13.6326497 L10.8039619,12.302 L11.8049619,12.88 L8,15.0773503 L4.19396189,12.88 L5.19496189,12.302 L7.49986028,13.6326497 L7.5,9.294 L3.73586028,7.20264973 L3.73596189,9.68 L2.73596189,10.257 L2.73686028,5.96132487 L6.49986028,3.789 L6.49986028,4.943 L4.15886028,6.29464973 L7.99917853,8.42692136 L11.8398603,6.29464973 L9.49986028,4.943 L9.49986028,3.789 Z M10.4911554,9.7939813 L10.5730178,9.8319427 L13.8491986,11.7233852 L13.7819222,11.5876387 C13.6731279,11.3676061 13.7411964,11.1062097 13.9315188,10.964877 L14.0085137,10.9178206 C14.2285463,10.8090262 14.4899428,10.8770948 14.6312754,11.0674172 L14.6783318,11.1444121 L15.4108859,12.6259761 C15.5577583,12.9230201 15.4360201,13.2828854 15.1389761,13.4297578 C15.0916364,13.4531648 15.041519,13.4701678 14.9899447,13.480413 L14.9116558,13.4906681 L13.2623067,13.5970396 C12.9867368,13.6148119 12.748936,13.4058257 12.7311636,13.1302559 C12.715366,12.8853049 12.8787356,12.6701961 13.1087765,12.6129361 L13.1979474,12.5991128 L13.3491986,12.5894106 L10.0730178,10.6979681 C9.83387152,10.5598969 9.75193394,10.2541017 9.89000513,10.0149554 C10.0127351,9.8023809 10.2679877,9.71402071 10.4911554,9.7939813 Z M5.57102241,9.7939813 C5.79419013,9.71402071 6.04944275,9.8023809 6.1721727,10.0149554 C6.29490264,10.2275299 6.2437985,10.4927653 6.06296674,10.6460539 L5.98916,10.6979681 L2.71297923,12.5894106 L2.86423046,12.5991128 L2.95340131,12.6129361 C3.18344223,12.6701961 3.34681183,12.8853049 3.3310142,13.1302559 C3.31521657,13.3752069 3.12556926,13.5675485 2.89007891,13.594785 L2.79987115,13.5970396 L1.15052206,13.4906681 L1.07223313,13.480413 C1.02065886,13.4701678 0.970541452,13.4531648 0.923201695,13.4297578 C0.655862083,13.2975727 0.530520206,12.9928632 0.615195186,12.7166981 L0.651291887,12.6259761 L1.383846,11.1444121 L1.43090245,11.0674172 C1.55456849,10.9008851 1.77015839,10.8279536 1.96952824,10.8852065 L2.0536641,10.9178206 L2.130659,10.964877 C2.2971911,11.0885431 2.37012261,11.304133 2.3128697,11.5035028 L2.28025561,11.5876387 L2.21297923,11.7233852 L5.48916,9.8319427 L5.57102241,9.7939813 Z M7.66717988,0.681047387 C7.91532537,0.515617059 8.24188242,0.559422527 8.43871094,0.770835772 L8.49923018,0.847457446 L9.41602515,2.2226499 L9.45917646,2.30189943 C9.54156447,2.49226341 9.49693006,2.71543549 9.34766266,2.85946839 L9.2773501,2.91602515 L9.19810057,2.95917646 C9.00773659,3.04156447 8.78456451,2.99693006 8.64053161,2.84766266 L8.58397485,2.7773501 L8.50005314,2.6512138 L8.5,6.43419081 L8.49194433,6.52406645 C8.44960837,6.75731565 8.24545989,6.93419081 8,6.93419081 C7.75454011,6.93419081 7.55039163,6.75731565 7.50805567,6.52406645 L7.5,6.43419081 L7.50005314,2.6512138 L7.41602515,2.7773501 L7.35946839,2.84766266 C7.19485937,3.01825397 6.92688487,3.0521818 6.7226499,2.91602515 C6.51841493,2.7798685 6.44666581,2.51945827 6.54082354,2.30189943 L6.58397485,2.2226499 L7.50076982,0.847457446 L7.5487955,0.784784802 C7.58345521,0.745242766 7.62323897,0.71034133 7.66717988,0.681047387 Z" id="形状" fill="#575D6C" fill-rule="nonzero"></path>
    </g>
</svg>