<?xml version="1.0" encoding="UTF-8"?>
<svg width="16px" height="16px" viewBox="0 0 16 16" version="1.1" xmlns="http://www.w3.org/2000/svg" xmlns:xlink="http://www.w3.org/1999/xlink">
    <title>function icon/host-set</title>
    <g id="图标入库记录" stroke="none" stroke-width="1" fill="none" fill-rule="evenodd">
        <g id="DevUI图标-入库记录230210" transform="translate(-172.000000, -120.000000)" fill="#71757F" fill-rule="nonzero">
            <g id="project/收藏" transform="translate(172.000000, 120.000000)">
                <path d="M11.75,7.85566243 C12.2141016,7.58771324 12.7858984,7.58771324 13.25,7.85566243 L13.25,7.85566243 L15.2810889,9.02831216 C15.7451905,9.29626135 16.0310889,9.79145188 16.0310889,10.3273503 L16.0310889,10.3273503 L16.0310889,12.6726497 C16.0310889,13.2085481 15.7451905,13.7037386 15.2810889,13.9716878 L15.2810889,13.9716878 L13.25,15.1443376 C12.7858984,15.4122868 12.2141016,15.4122868 11.75,15.1443376 L11.75,15.1443376 L9.71891109,13.9716878 C9.25480947,13.7037386 8.96891109,13.2085481 8.96891109,12.6726497 L8.96891109,12.6726497 L8.96891109,10.3273503 C8.96891109,9.79145188 9.25480947,9.29626135 9.71891109,9.02831216 L9.71891109,9.02831216 Z M10,1 C11.0543618,1 11.9181651,1.81587779 11.9945143,2.85073766 L12,3 L12,5.5 C12,5.77614237 11.7761424,6 11.5,6 C11.2545401,6 11.0503916,5.82312484 11.0080557,5.58987563 L11,5.5 L11,3 C11,2.48716416 10.6139598,2.06449284 10.1166211,2.00672773 L10,2 L3,2 C2.48716416,2 2.06449284,2.38604019 2.00672773,2.88337887 L2,3 L2,13 C2,13.5128358 2.38604019,13.9355072 2.88337887,13.9932723 L3,14 L7.5,14 C7.77614237,14 8,14.2238576 8,14.5 C8,14.7454599 7.82312484,14.9496084 7.58987563,14.9919443 L7.5,15 L3,15 C1.9456382,15 1.08183488,14.1841222 1.00548574,13.1492623 L1,13 L1,3 C1,1.9456382 1.81587779,1.08183488 2.85073766,1.00548574 L3,1 L10,1 Z M12.75,8.72168784 C12.5952995,8.63237144 12.4047005,8.63237144 12.25,8.72168784 L12.25,8.72168784 L10.2189111,9.89433757 C10.0642105,9.98365396 9.96891109,10.1487175 9.96891109,10.3273503 L9.96891109,10.3273503 L9.96891109,12.6726497 C9.96891109,12.8512825 10.0642105,13.016346 10.2189111,13.1056624 L10.2189111,13.1056624 L12.25,14.2783122 C12.4047005,14.3676286 12.5952995,14.3676286 12.75,14.2783122 L12.75,14.2783122 L14.7810889,13.1056624 C14.9357895,13.016346 15.0310889,12.8512825 15.0310889,12.6726497 L15.0310889,12.6726497 L15.0310889,10.3273503 C15.0310889,10.1487175 14.9357895,9.98365396 14.7810889,9.89433757 L14.7810889,9.89433757 Z M12.5,10 C13.3284271,10 14,10.6715729 14,11.5 C14,12.3284271 13.3284271,13 12.5,13 C11.6715729,13 11,12.3284271 11,11.5 C11,10.6715729 11.6715729,10 12.5,10 Z M6.5,10 C7.05228475,10 7.5,10.4477153 7.5,11 C7.5,11.5522847 7.05228475,12 6.5,12 C5.94771525,12 5.5,11.5522847 5.5,11 C5.5,10.4477153 5.94771525,10 6.5,10 Z M12.5,11 C12.2238576,11 12,11.2238576 12,11.5 C12,11.7761424 12.2238576,12 12.5,12 C12.7761424,12 13,11.7761424 13,11.5 C13,11.2238576 12.7761424,11 12.5,11 Z M8.5,6 C8.77614237,6 9,6.22385763 9,6.5 C9,6.77614237 8.77614237,7 8.5,7 L4.5,7 C4.22385763,7 4,6.77614237 4,6.5 C4,6.22385763 4.22385763,6 4.5,6 L8.5,6 Z M8.5,4 C8.77614237,4 9,4.22385763 9,4.5 C9,4.77614237 8.77614237,5 8.5,5 L4.5,5 C4.22385763,5 4,4.77614237 4,4.5 C4,4.22385763 4.22385763,4 4.5,4 L8.5,4 Z" id="形状结合"></path>
            </g>
        </g>
    </g>
</svg>