<?xml version="1.0" encoding="UTF-8"?>
<svg width="16px" height="16px" viewBox="0 0 16 16" version="1.1" xmlns="http://www.w3.org/2000/svg" xmlns:xlink="http://www.w3.org/1999/xlink">
    <title>function icon/host</title>
    <g id="图标入库记录" stroke="none" stroke-width="1" fill="none" fill-rule="evenodd">
        <g id="DevUI图标-入库记录230223" transform="translate(-332.000000, -120.000000)" fill="#71757F" fill-rule="nonzero">
            <g id="icon" transform="translate(332.000000, 120.000000)">
                <path d="M6,1 C7.1045695,1 8,1.8954305 8,3 L8,13 C8,14.1045695 7.1045695,15 6,15 L3,15 C1.8954305,15 1,14.1045695 1,13 L1,3 C1,1.8954305 1.8954305,1 3,1 L6,1 Z M6,2 L3,2 C2.48716416,2 2.06449284,2.38604019 2.00672773,2.88337887 L2,3 L2,13 C2,13.5128358 2.38604019,13.9355072 2.88337887,13.9932723 L3,14 L6,14 C6.51283584,14 6.93550716,13.6139598 6.99327227,13.1166211 L7,13 L7,3 C7,2.48716416 6.61395981,2.06449284 6.11662113,2.00672773 L6,2 Z M4.5,11 C4.9418278,11 5.3,11.3581722 5.3,11.8 C5.3,12.2418278 4.9418278,12.6 4.5,12.6 C4.0581722,12.6 3.7,12.2418278 3.7,11.8 C3.7,11.3581722 4.0581722,11 4.5,11 Z M5.5,7 C5.77614237,7 6,7.22385763 6,7.5 C6,7.77614237 5.77614237,8 5.5,8 L3.5,8 C3.22385763,8 3,7.77614237 3,7.5 C3,7.22385763 3.22385763,7 3.5,7 L5.5,7 Z M5.5,4 C5.77614237,4 6,4.22385763 6,4.5 C6,4.77614237 5.77614237,5 5.5,5 L3.5,5 C3.22385763,5 3,4.77614237 3,4.5 C3,4.22385763 3.22385763,4 3.5,4 L5.5,4 Z M13,4 C14.1045695,4 15,4.8954305 15,6 L15,13 C15,14.1045695 14.1045695,15 13,15 L11,15 C9.8954305,15 9,14.1045695 9,13 L9,6 C9,4.8954305 9.8954305,4 11,4 L13,4 Z M13,5 L11,5 C10.4871642,5 10.0644928,5.38604019 10.0067277,5.88337887 L10,6 L10,13 C10,13.5128358 10.3860402,13.9355072 10.8833789,13.9932723 L11,14 L13,14 C13.5128358,14 13.9355072,13.6139598 13.9932723,13.1166211 L14,13 L14,6 C14,5.48716416 13.6139598,5.06449284 13.1166211,5.00672773 L13,5 Z M12.5,10 C12.7761424,10 13,10.2238576 13,10.5 C13,10.7761424 12.7761424,11 12.5,11 L11.5,11 C11.2238576,11 11,10.7761424 11,10.5 C11,10.2238576 11.2238576,10 11.5,10 L12.5,10 Z M12.5,8 C12.7761424,8 13,8.22385763 13,8.5 C13,8.77614237 12.7761424,9 12.5,9 L11.5,9 C11.2238576,9 11,8.77614237 11,8.5 C11,8.22385763 11.2238576,8 11.5,8 L12.5,8 Z M12.5,6 C12.7761424,6 13,6.22385763 13,6.5 C13,6.77614237 12.7761424,7 12.5,7 L11.5,7 C11.2238576,7 11,6.77614237 11,6.5 C11,6.22385763 11.2238576,6 11.5,6 L12.5,6 Z" id="形状结合"></path>
            </g>
        </g>
    </g>
</svg>