<?xml version="1.0" encoding="UTF-8"?>
<svg width="16px" height="16px" viewBox="0 0 16 16" version="1.1" xmlns="http://www.w3.org/2000/svg" xmlns:xlink="http://www.w3.org/1999/xlink">
    <title>function icon/host group</title>
    <g id="资源库" stroke="none" stroke-width="1" fill="none" fill-rule="evenodd">
        <g id="画板备份-2" transform="translate(-511.000000, -6069.000000)" fill="#71757F" fill-rule="nonzero">
            <g id="编组" transform="translate(511.000000, 6069.000000)">
                <path d="M3.5,15 C3.22385763,15 3,14.7761424 3,14.5 C3,14.2238576 3.22385763,14 3.5,14 L7.5,14 L7.5,12 L3,12 C1.9456382,12 1.08183488,11.1841222 1.00548574,10.1492623 L1,10 L1,3 C1,1.8954305 1.8954305,1 3,1 L3,1 L13,1 C14.1045695,1 15,1.8954305 15,3 L15,3 L15,10 C15,11.1045695 14.1045695,12 13,12 L13,12 L8.5,12 L8.5,14 L12.5,14 C12.7761424,14 13,14.2238576 13,14.5 C13,14.7761424 12.7761424,15 12.5,15 L3.5,15 Z M13,2 L3,2 C2.44771525,2 2,2.44771525 2,3 L2,3 L2,10 C2,10.5522847 2.44771525,11 3,11 L3,11 L13,11 C13.5522847,11 14,10.5522847 14,10 L14,10 L14,3 C14,2.44771525 13.5522847,2 13,2 L13,2 Z M11.5,6 C11.7761424,6 12,6.22385763 12,6.5 C12,6.77614237 11.7761424,7 11.5,7 L4.5,7 C4.22385763,7 4,6.77614237 4,6.5 C4,6.22385763 4.22385763,6 4.5,6 L11.5,6 Z" id="形状结合"></path>
            </g>
        </g>
    </g>
</svg>