<?xml version="1.0" encoding="UTF-8"?>
<svg width="16px" height="16px" viewBox="0 0 16 16" version="1.1" xmlns="http://www.w3.org/2000/svg" xmlns:xlink="http://www.w3.org/1999/xlink">
    <title>function icon/http</title>
    <g id="图标入库记录" stroke="none" stroke-width="1" fill="none" fill-rule="evenodd">
        <g id="语言-图标入库记录230112" transform="translate(-652.000000, -120.000000)" fill="#71757F" fill-rule="nonzero">
            <g id="编组-9" transform="translate(652.000000, 120.000000)">
                <path d="M13,2 C14.0543618,2 14.9181651,2.81587779 14.9945143,3.85073766 L15,4 L15,6 C15,6.24545989 14.8231248,6.44960837 14.5898756,6.49194433 L14.5,6.5 L2,6.5 L2,12 C2,12.5128358 2.38604019,12.9355072 2.88337887,12.9932723 L3,13 L13,13 C13.5128358,13 13.9355072,12.6139598 13.9932723,12.1166211 L14,12 L14,11.5 C14,11.2238576 14.2238576,11 14.5,11 C14.7454599,11 14.9496084,11.1768752 14.9919443,11.4101244 L15,11.5 L15,12 C15,13.0543618 14.1841222,13.9181651 13.1492623,13.9945143 L13,14 L3,14 C1.9456382,14 1.08183488,13.1841222 1.00548574,12.1492623 L1,12 L1,4 C1,2.9456382 1.81587779,2.08183488 2.85073766,2.00548574 L3,2 L13,2 Z M4.67556871,7.5 L4.70603266,7.50341196 C4.72520465,7.50796125 4.74210199,7.51705982 4.75672469,7.53070767 C4.77865874,7.55117945 4.78962576,7.57750031 4.78962576,7.60967024 L4.78962576,7.60967024 L4.78962576,8.6668914 L5.86878097,8.6668914 L5.86878097,7.60967024 L5.87219293,7.57945 C5.87674222,7.56060296 5.88584078,7.54435552 5.89948864,7.53070767 C5.91996042,7.51023589 5.94628128,7.5 5.97845121,7.5 L5.97845121,7.5 L6.54434968,7.5 L6.57456992,7.50341196 C6.59341696,7.50796125 6.6096644,7.51705982 6.62331225,7.53070767 C6.64378403,7.55117945 6.65401992,7.57750031 6.65401992,7.60967024 L6.65401992,7.60967024 L6.65401992,10.4610966 L6.646343,10.5022229 L6.646343,10.5022229 L6.62331225,10.5378658 C6.60284047,10.5597998 6.57651961,10.5707669 6.54434968,10.5707669 L6.54434968,10.5707669 L5.97845121,10.5707669 L5.94823097,10.5671112 C5.92938393,10.5622369 5.91313649,10.5524885 5.89948864,10.5378658 C5.87901686,10.5159317 5.86878097,10.490342 5.86878097,10.4610966 L5.86878097,10.4610966 L5.86878097,9.36878097 L4.78962576,9.36878097 L4.78962576,10.4610966 L4.78597009,10.4891234 C4.78109585,10.5069956 4.77134739,10.5232431 4.75672469,10.5378658 C4.73479064,10.5597998 4.70773865,10.5707669 4.67556871,10.5707669 L4.67556871,10.5707669 L4.10967024,10.5707669 L4.07945,10.5673549 C4.06060296,10.5628056 4.04435552,10.553707 4.03070767,10.5400592 C4.01023589,10.5195874 4,10.4932665 4,10.4610966 L4,10.4610966 L4,7.60967024 L4.00341196,7.57945 C4.00796125,7.56060296 4.01705982,7.54435552 4.03070767,7.53070767 C4.05117945,7.51023589 4.07750031,7.5 4.10967024,7.5 L4.10967024,7.5 L4.67556871,7.5 Z M9.52299352,7.5 L9.55321377,7.50341196 C9.5720608,7.50796125 9.58830824,7.51705982 9.6019561,7.53070767 C9.62242788,7.55117945 9.63266377,7.57750031 9.63266377,7.60967024 L9.63266377,7.60967024 L9.63266377,8.07905889 L9.62498685,8.12018523 L9.62498685,8.12018523 L9.6019561,8.15582806 C9.58148432,8.17776211 9.55516346,8.18872914 9.52299352,8.18872914 L9.52299352,8.18872914 L8.74214138,8.18872914 L8.74214138,10.4610966 L8.73446446,10.5022229 L8.73446446,10.5022229 L8.71143371,10.5378658 C8.69096193,10.5597998 8.66464107,10.5707669 8.63247113,10.5707669 L8.63247113,10.5707669 L8.05341224,10.5707669 L8.023192,10.5671112 C8.00434496,10.5622369 7.98809752,10.5524885 7.97444967,10.5378658 C7.95397789,10.5159317 7.943742,10.490342 7.943742,10.4610966 L7.943742,10.4610966 L7.943742,8.18872914 L7.16288986,8.18872914 L7.13266961,8.18507346 C7.11382258,8.18019923 7.09757513,8.17045076 7.08392728,8.15582806 C7.0634555,8.13389401 7.05321961,8.10830429 7.05321961,8.07905889 L7.05321961,8.07905889 L7.05321961,7.60967024 L7.05663157,7.57945 C7.06118086,7.56060296 7.07027943,7.54435552 7.08392728,7.53070767 C7.10439906,7.51023589 7.13071992,7.5 7.16288986,7.5 L7.16288986,7.5 L9.52299352,7.5 Z M12.287232,7.5 L12.3174523,7.50341196 C12.3362993,7.50796125 12.3525468,7.51705982 12.3661946,7.53070767 C12.3866664,7.55117945 12.3969023,7.57750031 12.3969023,7.60967024 L12.3969023,7.60967024 L12.3969023,8.07905889 L12.3892254,8.12018523 L12.3892254,8.12018523 L12.3661946,8.15582806 C12.3457228,8.17776211 12.319402,8.18872914 12.287232,8.18872914 L12.287232,8.18872914 L11.5063799,8.18872914 L11.5063799,10.4610966 L11.498703,10.5022229 L11.498703,10.5022229 L11.4756722,10.5378658 C11.4552004,10.5597998 11.4288796,10.5707669 11.3967097,10.5707669 L11.3967097,10.5707669 L10.8176508,10.5707669 L10.7874305,10.5671112 C10.7685835,10.5622369 10.752336,10.5524885 10.7386882,10.5378658 C10.7182164,10.5159317 10.7079805,10.490342 10.7079805,10.4610966 L10.7079805,10.4610966 L10.7079805,8.18872914 L9.92712837,8.18872914 L9.89690813,8.18507346 C9.87806109,8.18019923 9.86181365,8.17045076 9.8481658,8.15582806 C9.82769402,8.13389401 9.81745813,8.10830429 9.81745813,8.07905889 L9.81745813,8.07905889 L9.81745813,7.60967024 L9.82087009,7.57945 C9.82541938,7.56060296 9.83451794,7.54435552 9.8481658,7.53070767 C9.86863758,7.51023589 9.89495843,7.5 9.92712837,7.5 L9.92712837,7.5 L12.287232,7.5 Z M14.1346273,7.5 L14.3107851,7.50699148 C14.4810482,7.52097443 14.6336269,7.55593182 14.7685213,7.61186365 C14.9483805,7.68643942 15.0887584,7.79830307 15.1896551,7.9474546 C15.2905517,8.09660613 15.341,8.28523895 15.341,8.51335306 C15.341,8.73854263 15.2905517,8.92425091 15.1896551,9.0704779 C15.0887584,9.2167049 14.9483805,9.32491287 14.7685213,9.39510183 C14.5886621,9.46529078 14.3773641,9.50038526 14.1346273,9.50038526 L14.1346273,9.50038526 L13.6125969,9.50038526 L13.6125969,10.4610966 L13.6089413,10.4891234 C13.604067,10.5069956 13.5943186,10.5232431 13.5796959,10.5378658 C13.5577618,10.5597998 13.5307098,10.5707669 13.4985399,10.5707669 L13.4985399,10.5707669 L12.9063206,10.5707669 L12.8761003,10.5671112 C12.8572533,10.5622369 12.8410058,10.5524885 12.827358,10.5378658 C12.8068862,10.5159317 12.7966503,10.490342 12.7966503,10.4610966 L12.7966503,10.4610966 L12.7966503,7.60967024 L12.8000623,7.57945 C12.8046116,7.56060296 12.8137101,7.54435552 12.827358,7.53070767 C12.8478298,7.51023589 12.8741506,7.5 12.9063206,7.5 L12.9063206,7.5 L14.1346273,7.5 Z M14.1126933,8.10976656 L13.5994365,8.10976656 L13.5994365,8.89500551 L14.1126933,8.89500551 C14.2384485,8.89500551 14.338614,8.86283557 14.4131897,8.7984957 C14.4877655,8.73415582 14.5250534,8.63618373 14.5250534,8.50457944 C14.5250534,8.39344693 14.4928834,8.29986165 14.4285436,8.22382361 C14.3642037,8.14778558 14.2589203,8.10976656 14.1126933,8.10976656 L14.1126933,8.10976656 Z M13,3 L3,3 C2.48716416,3 2.06449284,3.38604019 2.00672773,3.88337887 L2,4 L2,5.5 L14,5.5 L14,4 C14,3.48716416 13.6139598,3.06449284 13.1166211,3.00672773 L13,3 Z M3.5,4 C3.77614237,4 4,4.22385763 4,4.5 C4,4.77614237 3.77614237,5 3.5,5 C3.22385763,5 3,4.77614237 3,4.5 C3,4.22385763 3.22385763,4 3.5,4 Z M5,4 C5.27614237,4 5.5,4.22385763 5.5,4.5 C5.5,4.77614237 5.27614237,5 5,5 C4.72385763,5 4.5,4.77614237 4.5,4.5 C4.5,4.22385763 4.72385763,4 5,4 Z M6.5,4 C6.7761424,4 7,4.22385763 7,4.5 C7,4.77614237 6.7761424,5 6.5,5 C6.22385763,5 6,4.77614237 6,4.5 C6,4.22385763 6.22385763,4 6.5,4 Z" id="形状结合"></path>
            </g>
        </g>
    </g>
</svg>