<?xml version="1.0" encoding="UTF-8"?>
<svg width="16px" height="16px" viewBox="0 0 16 16" version="1.1" xmlns="http://www.w3.org/2000/svg" xmlns:xlink="http://www.w3.org/1999/xlink">
    <title>HWP7S</title>
    <g id="HWP7S" stroke="none" stroke-width="1" fill="none" fill-rule="evenodd">
        <path d="M12,9.5 C12.2454599,9.5 12.4496084,9.67687516 12.4919443,9.91012437 L12.5,10 L12.5,13.408 L13.7633009,12.1464466 C13.9368672,11.9728803 14.2062916,11.9535951 14.4011598,12.0885912 L14.4704076,12.1464466 C14.643974,12.320013 14.6632591,12.5894374 14.5282631,12.7843055 L14.4704076,12.8535534 L12.3490873,14.9748737 C12.1755209,15.1484401 11.9060965,15.1677252 11.7112284,15.0327292 L11.6419805,14.9748737 L9.52066017,12.8535534 C9.32539803,12.6582912 9.32539803,12.3417088 9.52066017,12.1464466 C9.69422652,11.9728803 9.96365092,11.9535951 10.1585191,12.0885912 L10.227767,12.1464466 L11.5,13.419 L11.5,10 C11.5,9.72385763 11.7238576,9.5 12,9.5 Z M12.5,1 C13.5543618,1 14.4181651,1.81587779 14.4945143,2.85073766 L14.5,3 L14.5,9 C14.5,9.27614237 14.2761424,9.5 14,9.5 C13.7545401,9.5 13.5503916,9.32312484 13.5080557,9.08987563 L13.5,9 L13.5,3 C13.5,2.48716416 13.1139598,2.06449284 12.6166211,2.00672773 L12.5,2 L3.5,2 C2.98716416,2 2.56449284,2.38604019 2.50672773,2.88337887 L2.5,3 L2.5,13 C2.5,13.5128358 2.88604019,13.9355072 3.38337887,13.9932723 L3.5,14 L8,14 C8.27614237,14 8.5,14.2238576 8.5,14.5 C8.5,14.7454599 8.32312484,14.9496084 8.08987563,14.9919443 L8,15 L3.5,15 C2.4456382,15 1.58183488,14.1841222 1.50548574,13.1492623 L1.5,13 L1.5,3 C1.5,1.9456382 2.31587779,1.08183488 3.35073766,1.00548574 L3.5,1 L12.5,1 Z M7.645,8.27 C7.965,8.27 8.245,8.34333333 8.485,8.49 C8.725,8.63666667 8.88,8.845 8.95,9.115 C8.97,9.269456 8.90916667,9.40112267 8.7675,9.51 C8.52916667,9.61849053 8.35166667,9.58515719 8.235,9.41 C8.18166667,9.26 8.11166667,9.19833333 8,9.115 C7.88833333,9.03166667 7.755,9.035 7.595,9.035 C7.45833333,9.035 7.3475,9.06666667 7.2625,9.13 C7.1775,9.19333333 7.135,9.275 7.135,9.375 C7.135,9.45166667 7.16416667,9.51666667 7.2225,9.57 C7.28083333,9.62333333 7.35333333,9.66666667 7.44,9.7 C7.52666667,9.73333333 7.65,9.775 7.81,9.825 C8.05666667,9.89833333 8.25666667,9.97083333 8.41,10.0425 C8.56333333,10.1141667 8.69666667,10.2216667 8.81,10.365 C8.92333333,10.5083333 8.98,10.695 8.98,10.925 C8.98,11.195 8.90916667,11.415 8.7675,11.585 C8.62583333,11.755 8.44833333,11.8775 8.235,11.9525 C8.02166667,12.0275 7.80333333,12.065 7.58,12.065 C7.24333333,12.065 6.935,11.9875 6.655,11.8325 C6.375,11.6775 6.19892019,11.5108333 6.10558686,11.2175 C6.06978211,11.0058333 6.13425605,10.8533333 6.2990087,10.76 C6.54613768,10.62 6.66710536,10.7675135 6.78109684,10.8786797 C6.89508833,10.9898458 6.96583333,11.0666667 7.1075,11.16 C7.24916667,11.2533333 7.41666667,11.3 7.61,11.3 C7.75333333,11.3 7.86916667,11.2725 7.9575,11.2175 C8.04583333,11.1625 8.09,11.0816667 8.09,10.975 C8.09,10.8883333 8.06,10.8166667 8,10.76 C7.94,10.7033333 7.865,10.6566667 7.775,10.62 C7.685,10.5833333 7.55833333,10.5416667 7.395,10.495 C7.155,10.425 6.95916667,10.355 6.8075,10.285 C6.65583333,10.215 6.525,10.1091667 6.415,9.9675 C6.305,9.82583333 6.25,9.64 6.25,9.41 C6.25,9.15666667 6.31583333,8.945 6.4475,8.775 C6.57916667,8.605 6.75083333,8.47833333 6.9625,8.395 C7.17416667,8.31166667 7.40166667,8.27 7.645,8.27 Z M5.3,8.335 C5.57614237,8.335 5.8,8.55885763 5.8,8.835 L5.8,8.87 L4.62673307,11.7881095 C4.50018128,11.9940267 4.32852319,12.0646568 4.11175881,12 C3.89499443,11.9353432 3.81182769,11.7739454 3.86225859,11.5158068 L4.845,9.08 L3.568384,9.08 C3.34520115,9.03931059 3.23360972,8.90896861 3.23360972,8.68897408 C3.23360972,8.46897955 3.34520115,8.35098819 3.568384,8.335 L5.3,8.335 Z M5.45217948,3.320614 C5.68405983,3.320614 5.82758847,3.454623 5.88276542,3.72264098 L5.88276542,6.66938776 C5.84435355,6.89562075 5.6991235,7.00873724 5.44707528,7.00873724 C5.19502705,7.00873724 5.0552571,6.89562075 5.02776542,6.66938776 L5.03286962,5.48 L3.855,5.48 L3.855,6.61675811 C3.83588934,6.8722527 3.69810448,7 3.44164541,7 C3.18518634,7 3.0379712,6.8722527 3,6.61675811 L2.99488278,3.72264098 C3.03371968,3.454623 3.17256374,3.320614 3.41141496,3.320614 C3.65026617,3.320614 3.79642645,3.454623 3.84989579,3.72264098 L3.855,4.725 L5.03286962,4.725 L5.02776542,3.72264098 C5.07882778,3.454623 5.22029914,3.320614 5.45217948,3.320614 Z M9.77313028,3.320614 C10.0103349,3.38716998 10.1105458,3.51633436 10.073763,3.70810715 L9.44063642,6.7587067 C9.37125361,6.9195689 9.22583149,7 9.00437006,7 C8.78290863,7 8.62946662,6.9195689 8.54404404,6.7587067 L8.19366937,5.1 C7.89724782,6.1002757 7.72904681,6.65317794 7.68906634,6.7587067 C7.62909564,6.91699984 7.54940644,7 7.31293625,7 C7.15528946,7 7.02489232,6.9195689 6.92174485,6.7587067 L6.10583226,3.77335601 C6.07313189,3.53286117 6.1779401,3.38840917 6.42025687,3.34 C6.66257363,3.29159083 6.82973629,3.39962552 6.92174485,3.66410406 L7.38472092,5.47326863 L7.84722092,3.53361511 C7.91418509,3.39161437 8.02966791,3.320614 8.19366937,3.320614 C8.35767083,3.320614 8.47446239,3.39161437 8.54404404,3.53361511 L9.00437006,5.47326863 L9.28627148,3.58499991 C9.37363942,3.34218666 9.53592569,3.25405803 9.77313028,3.320614 Z M11.755,3.34 C12.0616667,3.34 12.3283333,3.39083333 12.555,3.4925 C12.7816667,3.59416667 12.9558333,3.73833333 13.0775,3.925 C13.1991667,4.11166667 13.26,4.33 13.26,4.58 C13.26,4.83 13.1991667,5.04833333 13.0775,5.235 C12.9558333,5.42166667 12.7816667,5.56583333 12.555,5.6675 C12.3283333,5.76916667 12.0616667,5.82 11.755,5.82 L11.285,5.82 L11.285,6.62039618 C11.285,6.87346539 11.1542376,7 10.8927127,7 C10.6311878,7 10.4769502,6.87346539 10.43,6.62039618 L10.43,3.84 C10.43,3.56385763 10.6538576,3.34 10.93,3.34 L11.755,3.34 Z M11.66,4.06 L11.285,4.06 L11.285,5.1 L11.66,5.1 C11.8666667,5.1 12.035,5.06 12.165,4.98 C12.295,4.9 12.36,4.76666667 12.36,4.58 C12.36,4.39666667 12.2941667,4.26416667 12.1625,4.1825 C12.0308333,4.10083333 11.8633333,4.06 11.66,4.06 Z" fill="#7A7E87" fill-rule="nonzero"></path>
    </g>
</svg>