<?xml version="1.0" encoding="UTF-8"?>
<svg width="16px" height="16px" viewBox="0 0 16 16" version="1.1" xmlns="http://www.w3.org/2000/svg" xmlns:xlink="http://www.w3.org/1999/xlink">
    <title>icon icon-id</title>
    <g id="icon-icon-id" stroke="none" stroke-width="1" fill="none" fill-rule="evenodd">
        <g transform="translate(1.500000, 2.000000)" fill="#71757F" id="编组">
            <rect id="矩形" x="0" y="0" width="1" height="12" rx="0.5"></rect>
            <path d="M5,12 C3.8954305,12 3,11.1045695 3,10 L3,2 C3,0.8954305 3.8954305,0 5,0 L7,0 C10.3137085,0 13,2.6862915 13,6 C13,9.3137085 10.3137085,12 7,12 L5,12 Z M7,11 C9.76142375,11 12,8.76142375 12,6 C12,3.3112453 9.87769329,1.11818189 7.21688962,1.00461951 L7,1 L5,1 C4.48716416,1 4.06449284,1.38604019 4.00672773,1.88337887 L4,2 L4,10 C4,10.5128358 4.38604019,10.9355072 4.88337887,10.9932723 L5,11 L7,11 Z" id="形状结合" fill-rule="nonzero"></path>
        </g>
    </g>
</svg>