<?xml version="1.0" encoding="UTF-8"?>
<svg width="16px" height="16px" viewBox="0 0 16 16" version="1.1" xmlns="http://www.w3.org/2000/svg" xmlns:xlink="http://www.w3.org/1999/xlink">
    <title>function icon/identity</title>
    <g id="图标入库记录" stroke="none" stroke-width="1" fill="none" fill-rule="evenodd">
        <g id="DevUI图标入库-2023.08" transform="translate(-232.000000, -120.000000)" fill="#71757F" fill-rule="nonzero">
            <g id="line" transform="translate(232.000000, 120.000000)">
                <path d="M7.7226499,0.583974853 C7.89059961,0.472008382 8.10940039,0.472008382 8.2773501,0.583974853 L8.2773501,0.583974853 L8.36517407,0.642524166 C10.0735208,1.78142198 12.0646584,2.42194506 14.106546,2.49308056 L14.106546,2.49308056 L14.5086958,2.50007562 C14.7922656,2.50500809 15.0149622,2.74455892 14.9992302,3.02773501 L14.9992302,3.02773501 L14.7567542,7.39230266 C14.5875549,10.4378895 12.799413,13.1593105 10.0711568,14.5234386 L10.0711568,14.5234386 L8.2236068,15.4472136 C8.08284305,15.5175955 7.91715695,15.5175955 7.7763932,15.4472136 L7.7763932,15.4472136 L5.92884324,14.5234386 C3.200587,13.1593105 1.41244507,10.4378895 1.2432458,7.39230266 L1.2432458,7.39230266 L1.00076982,3.02773501 C0.984847572,2.74113448 1.21295752,2.5 1.5,2.5 C3.68346402,2.5 5.81807405,1.85369209 7.63482593,0.642524166 L7.63482593,0.642524166 Z M7.999,1.596 L7.85619728,1.68896941 C6.17400979,2.73227642 4.26244564,3.34442533 2.29125429,3.47402013 L2.29125429,3.47402013 L2.028,3.487 L2.24170616,7.33683264 C2.38585158,9.93145024 3.86165859,12.2594251 6.13001095,13.500262 L6.13001095,13.500262 L6.37605684,13.6290114 L7.999,14.44 L9.62394316,13.6290114 C11.9482183,12.4668739 13.4992021,10.1882948 13.7377786,7.61376969 L13.7377786,7.61376969 L13.7582938,7.33683264 L13.971,3.486 L13.686594,3.4725436 C11.7211234,3.33969435 9.81728196,2.72719687 8.14235706,1.68807207 L8.14235706,1.68807207 L7.999,1.596 Z M11.2843055,5.83859116 L11.3535534,5.89644661 C11.5271197,6.07001296 11.5464049,6.33943736 11.4114088,6.5343055 L11.3535534,6.60355339 L7.60355339,10.3535534 C7.42998704,10.5271197 7.16056264,10.5464049 6.9656945,10.4114088 L6.89644661,10.3535534 L4.64644661,8.10355339 C4.45118446,7.90829124 4.45118446,7.59170876 4.64644661,7.39644661 C4.82001296,7.22288026 5.08943736,7.20359511 5.2843055,7.33859116 L5.35355339,7.39644661 L7.24975971,9.29173308 L10.6464466,5.89644661 C10.820013,5.72288026 11.0894374,5.70359511 11.2843055,5.83859116 Z" id="形状结合"></path>
            </g>
        </g>
    </g>
</svg>