<?xml version="1.0" encoding="UTF-8"?>
<svg width="16px" height="16px" viewBox="0 0 16 16" version="1.1" xmlns="http://www.w3.org/2000/svg" xmlns:xlink="http://www.w3.org/1999/xlink">
    <title>function icon/image</title>
    <g id="DevUI风格图标汇总-220907" stroke="none" stroke-width="1" fill="none" fill-rule="evenodd">
        <g id="DevUI-通用图标" transform="translate(-352.000000, -600.000000)" fill="#71757F" fill-rule="nonzero">
            <g id="编组-13备份" transform="translate(352.000000, 600.000000)">
                <path d="M13,2 C14.1045695,2 15,2.8954305 15,4 L15,4 L15,12 C15,13.1045695 14.1045695,14 13,14 L13,14 L3,14 C1.8954305,14 1,13.1045695 1,12 L1,12 L1,4 C1,2.8954305 1.8954305,2 3,2 L3,2 Z M10.576,7.182 L7.48280432,10.8237273 C7.34072298,10.990968 7.10946747,11.0434683 6.91266911,10.9629321 L6.83079701,10.9202181 L4.101,9.16 L1.99998746,11.681 L2,12 C2,12.5128358 2.38604019,12.9355072 2.88337887,12.9932723 L3,13 L13,13 C13.5522847,13 14,12.5522847 14,12 L14,12 L13.9999875,9.75 L10.576,7.182 Z M13,3 L3,3 C2.44771525,3 2,3.44771525 2,4 L2,4 L1.99998746,10.117 L3.61588936,8.1799078 C3.75738878,8.01010849 3.99025827,7.95599331 4.18848791,8.03682269 L4.27095528,8.07978192 L7.004,9.842 L10.118948,6.17627271 C10.2687115,5.99998416 10.5159015,5.95236724 10.717037,6.04947468 L10.8,6.1 L13.9999875,8.5 L14,4 C14,3.48716416 13.6139598,3.06449284 13.1166211,3.00672773 L13,3 Z M6,5 C6.55228475,5 7,5.44771525 7,6 C7,6.55228475 6.55228475,7 6,7 C5.44771525,7 5,6.55228475 5,6 C5,5.44771525 5.44771525,5 6,5 Z" id="形状结合"></path>
            </g>
        </g>
    </g>
</svg>