<?xml version="1.0" encoding="UTF-8"?>
<svg width="16px" height="16px" viewBox="0 0 16 16" version="1.1" xmlns="http://www.w3.org/2000/svg" xmlns:xlink="http://www.w3.org/1999/xlink">
    <title>icon icon-import-o</title>
    <g id="icon-icon-import-o" stroke="none" stroke-width="1" fill="none" fill-rule="evenodd">
        <g id="ipd_import" transform="translate(2.000000, 2.000000)" fill="#71757F" fill-rule="nonzero">
            <path d="M4.33333333,-0.5 C4.60947571,-0.5 4.83333333,-0.276142375 4.83333333,0 C4.83333333,0.245459889 4.65645817,0.44960837 4.42320897,0.491944331 L4.33333333,0.5 L1,0.5 C0.75454137,0.5 0.550391909,0.67687628 0.508055716,0.910124741 L0.5,1 L0.5,11 C0.5,11.2454672 0.676870713,11.44961 0.910122885,11.4919446 L1,11.5 L11,11.5 C11.2454734,11.5 11.4496114,11.3231369 11.4919448,11.0898796 L11.5,11 L11.5,7.66666667 C11.5,7.39052429 11.7238576,7.16666667 12,7.16666667 C12.2454599,7.16666667 12.4496084,7.34354183 12.4919443,7.57679103 L12.5,7.66666667 L12.5,11 C12.5,11.7797105 11.9051254,12.4204504 11.1444624,12.4931336 L11,12.5 L1,12.5 C0.220301011,12.5 -0.420449016,11.9051215 -0.493133452,11.1444617 L-0.5,11 L-0.5,1 C-0.5,0.220305216 0.094889338,-0.420448521 0.855540211,-0.493133408 L1,-0.5 L4.33333333,-0.5 Z M12.0911492,0.147635347 C12.1937059,0.404027105 12.068998,0.695012327 11.8126062,0.797569031 L11.3767502,0.976259988 C11.3065607,1.00582856 11.2375727,1.03532218 11.1697485,1.06478835 L10.776468,1.24163597 C10.7131485,1.27118235 10.6509175,1.30079629 10.5897374,1.33052529 L10.2349656,1.51066012 C8.69252755,2.33090061 7.86126196,3.30428464 6.99998481,5.36585186 L6.80779462,5.84227043 L6.6128089,6.35679419 L6.41322017,6.91170339 L6.20722093,7.50927826 L6.193,7.551 L9.04902706,6.59867287 C9.28189075,6.52105164 9.53149584,6.62429273 9.64541914,6.83218455 L9.68148259,6.91490064 C9.75910382,7.14776433 9.65586273,7.39736942 9.44797091,7.51129272 L9.36525482,7.54735617 L5.36525482,8.8806895 C5.13239112,8.95831073 4.88278603,8.85506964 4.76886274,8.64717782 L4.73279929,8.56446173 L3.39946596,4.56446173 C3.31214207,4.30249008 3.45372206,4.01933009 3.71569372,3.9320062 C3.94855742,3.85438497 4.19816251,3.95762606 4.3120858,4.16551788 L4.34814925,4.24823397 L5.295,7.089 L5.37502691,6.85325612 L5.59150291,6.24218259 L5.80380004,5.67309713 L6.01372113,5.14376731 C7.13016919,2.42272129 8.22215995,1.30266655 10.5204203,0.259607054 L10.9657805,0.0645636172 L11.4412155,-0.13090766 C11.6976073,-0.233464364 11.9885925,-0.108756412 12.0911492,0.147635347 Z" id="形状结合"></path>
        </g>
    </g>
</svg>