<?xml version="1.0" encoding="UTF-8"?>
<svg width="16px" height="16px" viewBox="0 0 16 16" version="1.1" xmlns="http://www.w3.org/2000/svg" xmlns:xlink="http://www.w3.org/1999/xlink">
    <title>Incremental rebuild</title>
    <g id="Incremental-rebuild" stroke="none" stroke-width="1" fill="none" fill-rule="evenodd">
        <path d="M1.5,7.5 C1.77614237,7.5 2,7.72385763 2,8 C2,11.3137085 4.6862915,14 8,14 C8.46250858,14 8.91783472,13.9477609 9.36009163,13.8452999 C9.62910869,13.7829747 9.89771467,13.9505316 9.96003988,14.2195486 C10.0223651,14.4885657 9.85480825,14.7571717 9.58579118,14.8194969 C9.06965537,14.939074 8.53861195,15 8,15 C5.45371321,15 3.22496429,13.6404588 2.00005536,11.6076785 L2,13.5 C2,13.7761424 1.77614237,14 1.5,14 C1.22385763,14 1,13.7761424 1,13.5 L1,8 C1,7.72385763 1.22385763,7.5 1.5,7.5 Z M12,9 C12.2761424,9 12.5,9.22385763 12.5,9.5 L12.5,11.5 L14.5,11.5 C14.7761424,11.5 15,11.7238576 15,12 C15,12.2761424 14.7761424,12.5 14.5,12.5 L12.5,12.5 L12.5,14.5 C12.5,14.7761424 12.2761424,15 12,15 C11.7238576,15 11.5,14.7761424 11.5,14.5 L11.5,12.5 L9.5,12.5 C9.22385763,12.5 9,12.2761424 9,12 C9,11.7238576 9.22385763,11.5 9.5,11.5 L11.5,11.5 L11.5,9.5 C11.5,9.22385763 11.7238576,9 12,9 Z M6.31164504,4.66 C6.38414262,4.66 6.45527718,4.67970313 6.51744334,4.71700283 L11.3399831,7.61052668 C11.5294152,7.72418594 11.5908412,7.96989004 11.477182,8.15932215 C11.4434021,8.21562199 11.3962829,8.26274111 11.3399831,8.29652102 L6.51744334,11.1900449 C6.32801123,11.3037041 6.08230713,11.2422781 5.96864787,11.052846 C5.93134817,10.9906798 5.91164504,10.9195453 5.91164504,10.8470477 L5.91164504,5.06 C5.91164504,4.8390861 6.09073114,4.66 6.31164504,4.66 Z M6.91264504,6.11952385 L6.91264504,9.78652385 L9.96864504,7.95352385 L6.91264504,6.11952385 Z M8,1 C10.5471258,1 12.7765044,2.36043727 14.0011551,4.39433108 L14,2.5 C14,2.22385763 14.2238576,2 14.5,2 C14.7761424,2 15,2.22385763 15,2.5 L15,8 C15,8.24545989 14.8231248,8.44960837 14.5898756,8.49194433 L14.5,8.5 L14.5,8.5 C14.2238576,8.5 14,8.27614237 14,8 C14,4.6862915 11.3137085,2 8,2 C6.38659151,2 4.87564005,2.63907857 3.75735931,3.75735931 C3.46753172,4.04718691 3.20783927,4.36587238 2.98274571,4.70820052 C2.83103085,4.93893243 2.52099649,5.0029884 2.29026459,4.85127354 C2.05953268,4.69955868 1.99547671,4.38952432 2.14719156,4.15879241 C2.4096716,3.75960595 2.71241408,3.38809098 3.05025253,3.05025253 C4.35421056,1.74629451 6.11864895,1 8,1 Z" id="形状结合" fill="#71757F" fill-rule="nonzero"></path>
    </g>
</svg>