<?xml version="1.0" encoding="UTF-8"?>
<svg width="16px" height="16px" viewBox="0 0 16 16" version="1.1" xmlns="http://www.w3.org/2000/svg" xmlns:xlink="http://www.w3.org/1999/xlink">
    <title>information</title>
    <g id="information" stroke="none" stroke-width="1" fill="none" fill-rule="evenodd">
        <path d="M8,1 C11.8659932,1 15,4.13400675 15,8 C15,11.8659932 11.8659932,15 8,15 C4.13400675,15 1,11.8659932 1,8 C1,4.13400675 4.13400675,1 8,1 Z M8,2 C4.6862915,2 2,4.6862915 2,8 C2,11.3137085 4.6862915,14 8,14 C11.3137085,14 14,11.3137085 14,8 C14,4.6862915 11.3137085,2 8,2 Z M8,11 C8.27614237,11 8.5,11.2238576 8.5,11.5 C8.5,11.7761424 8.27614237,12 8,12 C7.72385763,12 7.5,11.7761424 7.5,11.5 C7.5,11.2238576 7.72385763,11 8,11 Z M8,4 C8.27614237,4 8.5,4.22385763 8.5,4.5 L8.5,8.5 C8.5,8.77614237 8.27614237,9 8,9 C7.72385763,9 7.5,8.77614237 7.5,8.5 L7.5,4.5 C7.5,4.22385763 7.72385763,4 8,4 Z" id="形状结合" fill="#71757F" fill-rule="nonzero"></path>
    </g>
</svg>