<?xml version="1.0" encoding="UTF-8"?>
<svg width="16px" height="16px" viewBox="0 0 16 16" version="1.1" xmlns="http://www.w3.org/2000/svg" xmlns:xlink="http://www.w3.org/1999/xlink">
    <title>inform</title>
    <g id="页面-1" stroke="none" stroke-width="1" fill="none" fill-rule="evenodd">
        <g id="task-parameters备份-2" fill="#191919" fill-rule="nonzero">
            <path d="M7.76490297,0 C10.696033,0 13.0740179,2.3791374 13.0765018,5.31175226 L13.0765018,5.31175226 L13.0809281,6.26969875 L13.0954918,6.30613584 L13.0814456,6.28777786 L13.083238,6.32029481 L13.1001188,8.41127139 C13.1007647,8.49652409 13.1175031,8.57957254 13.1505424,8.65863876 L13.1505424,8.65863876 L14.3410645,11.5629276 C14.4759223,11.8919144 14.2339797,12.252572 13.8784254,12.252572 L13.8784254,12.252572 L10.4404736,12.2524993 C10.438915,13.6995574 9.3148694,14.8963882 7.8608281,14.9945206 L7.8608281,14.9945206 L7.68996084,15 C6.17153452,15 4.93944644,13.7679119 4.93944644,12.2494856 L4.939,12.252 L1.50059613,12.252572 C1.1629983,12.252572 0.93084573,11.9289532 1.01867892,11.6184513 L1.04742774,11.541294 L2.39055911,8.66042583 C2.4321357,8.57077633 2.45330318,8.47487134 2.45330318,8.37567515 L2.45330318,8.37567515 L2.45330318,5.31159979 C2.45330318,2.37759991 4.83090309,0 7.76490297,0 Z M9.44,12.252 L9.43759613,12.3 L5.94059613,12.3 L5.9452518,12.3929683 C6.01445157,13.2447813 6.69390516,13.9249677 7.53202561,13.9944362 L7.53202561,13.9944362 L7.67310405,14.0002842 L7.81020513,13.9959463 C8.72435427,13.9340704 9.44047525,13.1709371 9.44047525,12.2494856 L9.44,12.252 Z M7.76490297,1 C5.38318784,1 3.45330318,2.92988466 3.45330318,5.31159979 L3.45330318,5.31159979 L3.45330318,8.37567515 C3.45330318,8.62022773 3.40044792,8.8597027 3.29732162,9.08206636 L3.29732162,9.08206636 L2.28459613,11.252 L13.1325961,11.252 L12.2265888,9.04112773 C12.1649495,8.89367669 12.1255585,8.73783066 12.1090319,8.5788822 L12.1090319,8.5788822 L12.1001495,8.41909562 L12.0825961,6.368 C12.0651162,6.33177735 12.0670688,6.32908793 12.0827036,6.33792207 L12.0827036,6.33792207 L12.0765029,5.3131486 C12.0744856,2.93164048 10.1437808,1 7.76490297,1 Z" id="形状结合"></path>
        </g>
    </g>
</svg>