<?xml version="1.0" encoding="UTF-8"?>
<svg width="16px" height="16px" viewBox="0 0 16 16" version="1.1" xmlns="http://www.w3.org/2000/svg" xmlns:xlink="http://www.w3.org/1999/xlink">
    <title>Configuration</title>
    <g id="Configuration" stroke="none" stroke-width="1" fill="none" fill-rule="evenodd">
        <path d="M3.3335,2.2 C3.58643,2.2 3.79565,2.38812 3.82886,2.63213 L3.8335,2.7 L3.8335,3.75372 C3.67236,3.71856 3.50513,3.70007 3.3335,3.70007 C3.16187,3.70007 2.99463,3.71862 2.8335,3.75384 L2.8335,2.7 C2.8335,2.42388 3.05737,2.2 3.3335,2.2 Z" id="合并-path" fill="#252B3A"></path>
        <path d="M8,2.2 C8.25293,2.2 8.46216,2.38812 8.49536,2.63213 L8.5,2.7 L8.5,7.43768 C8.33911,7.40264 8.17188,7.38415 8.00049,7.38415 C7.82861,7.38415 7.66113,7.40276 7.5,7.43804 L7.5,2.7 C7.5,2.42388 7.72388,2.2 8,2.2 Z" id="合并-path" fill="#252B3A"></path>
        <path d="M13.1619,2.63213 C13.1287,2.38812 12.9194,2.2 12.6665,2.2 C12.3904,2.2 12.1665,2.42388 12.1665,2.7 L12.1665,3.75384 C12.3276,3.71862 12.4949,3.70007 12.6665,3.70007 C12.8381,3.70007 13.0054,3.71856 13.1665,3.75372 L13.1665,2.7 L13.1619,2.63213 Z" id="合并-path" fill="#252B3A"></path>
        <path d="M3.33325,4.20013 C4.34595,4.20013 5.16675,5.02081 5.16675,6.03344 C5.16675,7.04577 4.34595,7.86681 3.33325,7.86681 C2.32129,7.86681 1.5,7.04559 1.5,6.03344 C1.5,5.02093 2.32104,4.20013 3.33325,4.20013 Z M3.33325,5.20013 C2.87329,5.20013 2.5,5.5733 2.5,6.03344 C2.5,6.49334 2.87354,6.86681 3.33325,6.86681 C3.79346,6.86681 4.16675,6.49352 4.16675,6.03344 C4.16675,5.57305 3.7937,5.20013 3.33325,5.20013 Z" id="形状结合" fill="#252B3A"></path>
        <path d="M12.6663,4.20013 C13.679,4.20013 14.4998,5.02081 14.4998,6.03344 C14.4998,7.04577 13.679,7.86681 12.6663,7.86681 C11.6543,7.86681 10.833,7.04559 10.833,6.03344 C10.833,5.02093 11.6541,4.20013 12.6663,4.20013 Z M12.6663,5.20013 C12.2063,5.20013 11.833,5.5733 11.833,6.03344 C11.833,6.49334 12.2065,6.86681 12.6663,6.86681 C13.1265,6.86681 13.4998,6.49352 13.4998,6.03344 C13.4998,5.57305 13.1267,5.20013 12.6663,5.20013 Z" id="形状结合" fill="#252B3A"></path>
        <path d="M8.00024,7.88421 C9.01294,7.88421 9.83374,8.70489 9.83374,9.71752 C9.83374,10.72984 9.01294,11.55094 8.00024,11.55094 C6.98828,11.55094 6.16699,10.72964 6.16699,9.71752 C6.16699,8.70501 6.98804,7.88421 8.00024,7.88421 Z M8.00024,8.88421 C7.54028,8.88421 7.16699,9.25738 7.16699,9.71752 C7.16699,10.17744 7.54053,10.55094 8.00024,10.55094 C8.46045,10.55094 8.83374,10.17764 8.83374,9.71752 C8.83374,9.25713 8.46069,8.88421 8.00024,8.88421 Z" id="形状结合" fill="#252B3A"></path>
        <path d="M2.8335,8.31292 L2.8335,13.36674 L2.83789,13.43454 C2.87109,13.67854 3.08032,13.86674 3.3335,13.86674 C3.60962,13.86674 3.8335,13.64284 3.8335,13.36674 L3.8335,8.31304 C3.67236,8.3482 3.50513,8.36675 3.3335,8.36675 C3.16187,8.36675 2.99463,8.3482 2.8335,8.31292 Z" id="合并-path" fill="#252B3A"></path>
        <path d="M13.1665,8.31304 C13.0054,8.3482 12.8381,8.36675 12.6665,8.36675 C12.4949,8.36675 12.3276,8.3482 12.1665,8.31292 L12.1665,13.36674 L12.1709,13.43454 C12.2041,13.67854 12.4133,13.86674 12.6665,13.86674 C12.9426,13.86674 13.1665,13.64284 13.1665,13.36674 L13.1665,8.31304 Z" id="合并-path" fill="#252B3A"></path>
        <path d="M7.5,11.99694 L7.5,13.36674 L7.50439,13.43454 C7.5376,13.67854 7.74683,13.86674 8,13.86674 C8.27612,13.86674 8.5,13.64284 8.5,13.36674 L8.5,11.99724 C8.33911,12.03234 8.17188,12.05084 8.00049,12.05084 C7.82861,12.05084 7.66113,12.03224 7.5,11.99694 Z" id="合并-path" fill="#252B3A"></path>
    </g>
</svg>