<?xml version="1.0" encoding="UTF-8"?>
<svg width="16px" height="16px" viewBox="0 0 16 16" version="1.1" xmlns="http://www.w3.org/2000/svg" xmlns:xlink="http://www.w3.org/1999/xlink">
    <title>继承</title>
    <g id="继承" stroke="none" stroke-width="1" fill="none" fill-rule="evenodd">
        <path d="M1.5,10.8 C1.74545989,10.8 1.94960837,10.9768752 1.99194433,11.2101244 L2,11.3 L2,12.6 L4.308,12.6 L3.76066017,12.0535534 C3.58709382,11.879987 3.56780867,11.6105626 3.70280472,11.4156945 L3.76066017,11.3464466 C3.93422652,11.1728803 4.20365092,11.1535951 4.39851907,11.2885912 L4.46776695,11.3464466 L5.88198052,12.7606602 C6.05554687,12.9342265 6.07483202,13.2036509 5.93983597,13.3985191 L5.88198052,13.467767 L4.46776695,14.8819805 C4.27250481,15.0772427 3.95592232,15.0772427 3.76066017,14.8819805 C3.58709382,14.7084142 3.56780867,14.4389898 3.70280472,14.2441216 L3.76066017,14.1748737 L4.334,13.6 L2,13.6 C1.48716416,13.6 1.06449284,13.2139598 1.00672773,12.7166211 L1,12.6 L1,11.3 C1,11.0238576 1.22385763,10.8 1.5,10.8 Z M14,6 C14.5522847,6 15,6.44771525 15,7 L15,14 C15,14.5522847 14.5522847,15 14,15 L8,15 C7.44771525,15 7,14.5522847 7,14 L7,9.05860255 C7,8.82676226 7.08055545,8.60212513 7.22788636,8.42311808 L8.92220945,6.36451552 C9.11216561,6.13371879 9.39540759,6 9.69432309,6 L14,6 Z M14,7 L10.5,7 L10.5,9 C10.5,9.51283584 10.1139598,9.93550716 9.61662113,9.99327227 L9.5,10 L8,10 L8,14 L14,14 L14,7 Z M8,1 C8.51283584,1 8.93550716,1.38604019 8.99327227,1.88337887 L9,2 L9,4.5 C9,4.77614237 8.77614237,5 8.5,5 C8.25454011,5 8.05039163,4.82312484 8.00805567,4.58987563 L8,4.5 L8,2 L2,2 L2,9 L5.5,9 C5.77614237,9 6,9.22385763 6,9.5 C6,9.74545989 5.82312484,9.94960837 5.58987563,9.99194433 L5.5,10 L2,10 C1.48716416,10 1.06449284,9.61395981 1.00672773,9.11662113 L1,9 L1,2 C1,1.48716416 1.38604019,1.06449284 1.88337887,1.00672773 L2,1 L8,1 Z M9.5,7.236 L8.048,9 L9.5,9 L9.5,7.236 Z M6.5,6 C6.77614237,6 7,6.22385763 7,6.5 C7,6.77614237 6.77614237,7 6.5,7 L3.5,7 C3.22385763,7 3,6.77614237 3,6.5 C3,6.22385763 3.22385763,6 3.5,6 L6.5,6 Z M12.2393398,1.14801948 C12.4129062,1.32158584 12.4321913,1.59101024 12.2971953,1.78587838 L12.2393398,1.85512627 L11.666,2.43 L14,2.43 C14.5128358,2.43 14.9355072,2.81604019 14.9932723,3.31337887 L15,3.43 L15,4.73 C15,5.00614237 14.7761424,5.23 14.5,5.23 C14.2545401,5.23 14.0503916,5.05312484 14.0080557,4.81987563 L14,4.73 L14,3.43 L11.693,3.43 L12.2393398,3.97644661 C12.4129062,4.15001296 12.4321913,4.41943736 12.2971953,4.6143055 L12.2393398,4.68355339 C12.0657735,4.85711974 11.7963491,4.87640489 11.6014809,4.74140884 L11.532233,4.68355339 L10.1180195,3.26933983 C9.94445313,3.09577348 9.92516798,2.82634908 10.060164,2.63148093 L10.1180195,2.56223305 L11.532233,1.14801948 C11.7274952,0.952757339 12.0440777,0.952757339 12.2393398,1.14801948 Z M6.5,4 C6.77614237,4 7,4.22385763 7,4.5 C7,4.77614237 6.77614237,5 6.5,5 L3.5,5 C3.22385763,5 3,4.77614237 3,4.5 C3,4.22385763 3.22385763,4 3.5,4 L6.5,4 Z" id="形状结合" fill="#71757F" fill-rule="nonzero"></path>
    </g>
</svg>