<?xml version="1.0" encoding="UTF-8"?>
<svg width="16px" height="16px" viewBox="0 0 16 16" version="1.1" xmlns="http://www.w3.org/2000/svg" xmlns:xlink="http://www.w3.org/1999/xlink">
    <title>input_1输入框</title>
    <g id="input_1输入框" stroke="none" stroke-width="1" fill="none" fill-rule="evenodd">
        <path d="M13.6600003,3.00062108 C14.0099304,2.98983977 14.3494179,3.12065377 14.601634,3.3634589 C14.8538502,3.60626403 14.9974733,3.94053402 15.0000001,4.29062108 L15.0000001,4.29062108 L15.0000001,12.6706211 C14.9974733,13.0207081 14.8538502,13.3549781 14.601634,13.5977833 C14.3494179,13.8405884 14.0099304,13.9714024 13.6600003,13.9606211 L13.6600003,13.9606211 L2.2900003,13.9606211 C1.57755297,13.9606211 1.00000015,13.3830684 1.00000015,12.6706211 L1.00000015,12.6706211 L1.00000015,4.29062108 C0.999832395,3.94144724 1.14121977,3.60712008 1.39186329,3.36401471 C1.64250681,3.12090934 1.98099432,2.98979394 2.3300003,3.00062108 L2.3300003,3.00062108 Z M13.6600003,3.91062105 L2.3700003,3.91062105 C2.27011276,3.91062105 2.17445402,3.95093633 2.1047708,4.02250288 C2.03508758,4.09406943 1.99730063,4.19077002 2.0000003,4.29062108 L2.0000003,4.29062108 L2.0000003,12.6706211 C1.99364456,12.8641155 2.13752485,13.0297958 2.3300003,13.0506211 L2.3300003,13.0506211 L13.6200003,13.0506211 C13.8298685,13.0506211 14.0000003,12.8804893 14.0000003,12.6706211 L14.0000003,12.6706211 L14.0400003,4.29062108 C14.0400003,4.08075287 13.8698685,3.91062105 13.6600003,3.91062105 L13.6600003,3.91062105 Z M6.7500003,6.56062108 C7.08649206,6.52826338 7.41895345,6.65385991 7.6500003,6.90062108 C7.8695388,7.15106381 7.98099402,7.4782388 7.9600003,7.81062108 L7.9600003,8.09062108 L6.2600003,8.09062108 C6.29333363,8.49062108 6.53333363,8.69062108 6.9800003,8.69062108 C7.24836567,8.69602344 7.51248141,8.62304409 7.7400003,8.48062108 L7.7400003,8.48062108 L7.7400003,9.10062108 C7.45140222,9.24343534 7.13179438,9.31216821 6.8100003,9.30062108 C6.44209095,9.33123971 6.07851469,9.20398802 5.8100003,8.95062108 C5.56556133,8.6772958 5.44282153,8.31629639 5.4700003,7.95062108 C5.45323669,7.58100034 5.58669041,7.22031462 5.8400003,6.95062108 C6.07149188,6.69350169 6.40416103,6.5509292 6.7500003,6.56062108 Z M12.1300003,5.84062108 L12.1700003,6.63062108 L12.7600003,6.63062108 L12.7600003,7.19062108 L12.1700003,7.19062108 L12.1700003,8.28062108 C12.1700003,8.55062108 12.2800003,8.69062108 12.5000003,8.69062108 C12.5922303,8.68749755 12.6819677,8.65988604 12.7600003,8.61062108 L12.7600003,8.61062108 L12.7600003,9.18062108 C12.5994746,9.25041367 12.4247186,9.28125295 12.2500003,9.27062108 C11.7000003,9.27062108 11.4300003,8.98062108 11.4300003,8.41062108 L11.4300003,8.41062108 L11.4300003,7.19062108 L11.0000003,7.19062108 L11.0000003,6.63062108 L11.3900003,6.63062108 L11.3900003,6.06062108 L12.1300003,5.84062108 Z M5.6800003,5.59062108 L5.6800003,6.22062108 L4.6500003,6.22062108 L4.6500003,9.21062108 L3.8700003,9.21062108 L3.8700003,6.22062108 L2.8500003,6.22062108 L2.8500003,5.59062108 L5.6800003,5.59062108 Z M9.0000003,6.63062108 L9.4000003,7.37062108 C9.4300003,7.44062108 9.5000003,7.52062108 9.5000003,7.61062108 L9.5000003,7.61062108 L9.54815027,7.48748148 L9.54815027,7.48748148 L9.6100003,7.37062108 L10.0000003,6.63062108 L10.8500003,6.63062108 L10.0000003,7.88062108 L10.8300003,9.19062108 L9.9600003,9.19062108 L9.5700003,8.48062108 C9.52540719,8.40643973 9.48533426,8.32963329 9.4500003,8.25062108 L9.4500003,8.25062108 L9.40315134,8.3669911 L9.40315134,8.3669911 L9.3500003,8.48062108 L9.0000003,9.21062108 L8.0900003,9.21062108 L9.0000003,7.92062108 L8.1400003,6.63062108 L9.0000003,6.63062108 Z M6.7500003,7.08062108 C6.61555795,7.08024507 6.4876799,7.1387036 6.4000003,7.24062108 C6.29334973,7.35566692 6.22975724,7.5040494 6.2200003,7.66062108 L6.2200003,7.66062108 L7.2200003,7.66062108 C7.2200003,7.27062108 7.0600003,7.08062108 6.7500003,7.08062108 Z" id="形状结合" fill="#252B3A" fill-rule="nonzero"></path>
    </g>
</svg>