<?xml version="1.0" encoding="UTF-8"?>
<svg width="16px" height="16px" viewBox="0 0 16 16" version="1.1" xmlns="http://www.w3.org/2000/svg" xmlns:xlink="http://www.w3.org/1999/xlink">
    <title>function icon/install</title>
    <g id="图标入库记录" stroke="none" stroke-width="1" fill="none" fill-rule="evenodd">
        <g id="DevUI图标入库-2023.07" transform="translate(-392.000000, -300.000000)" fill="#71757F" fill-rule="nonzero">
            <g id="编组" transform="translate(392.000000, 300.000000)">
                <path d="M11.6972244,2 C12.3659307,2 12.9903934,2.33420227 13.361325,2.89059961 L13.361325,2.89059961 L14.9160251,5.2226499 C14.9184094,5.22622627 14.9207404,5.22981571 14.9230185,5.23341752 C14.9301765,5.24462704 14.9370739,5.25658939 14.9434776,5.26885039 C14.951701,5.28434526 14.9588202,5.29970911 14.9650831,5.31519631 C14.967724,5.32269766 14.9705526,5.3303424 14.9731972,5.33807253 C14.981214,5.35971453 14.9871022,5.3814618 14.9914485,5.40326881 C14.9967624,5.43433763 15,5.46679072 15,5.5 L14.9940274,5.41727454 C15.000354,5.45470137 15.0021905,5.49222222 14.9998867,5.52918312 L15,13 C15,14.1045695 14.1045695,15 13,15 L13,15 L3,15 C1.8954305,15 1,14.1045695 1,13 L1,13 L1,5.5 C1,5.49693175 1.00002764,5.49386996 1.00008267,5.49081485 C0.999565209,5.46768545 1.00162262,5.44396598 1.00547465,5.42027717 C1.00763387,5.41212572 1.00906022,5.40443564 1.01066034,5.39680949 C1.01384787,5.37814982 1.01910131,5.35908384 1.02559336,5.34016057 C1.02897516,5.33162263 1.03202433,5.32332987 1.03528356,5.31514353 C1.04765379,5.28369962 1.06393273,5.25271309 1.08397485,5.2226499 L1.05858284,5.26494748 C1.06343453,5.25585522 1.06855893,5.24693047 1.07394512,5.23818414 L1.08397485,5.2226499 L2.63867505,2.89059961 C3.00960661,2.33420227 3.63406926,2 4.30277564,2 L4.30277564,2 Z M14,6 L2,6 L2,13 C2,13.5128358 2.38604019,13.9355072 2.88337887,13.9932723 L2.88337887,13.9932723 L3,14 L13,14 C13.5522847,14 14,13.5522847 14,13 L14,13 L14,6 Z M8,7 C8.27614237,7 8.5,7.22385763 8.5,7.5 L8.49915929,11.293 L9.64644661,10.1464466 C9.82001296,9.97288026 10.0894374,9.95359511 10.2843055,10.0885912 L10.3535534,10.1464466 C10.5271197,10.320013 10.5464049,10.5894374 10.4114088,10.7843055 L10.3535534,10.8535534 L8.35355339,12.8535534 L8.33789949,12.8685469 C8.32788595,12.8777327 8.31749694,12.8865157 8.30675814,12.8948702 L8.35355339,12.8535534 C8.32678585,12.8803209 8.29773842,12.903419 8.26703618,12.9228477 C8.25458861,12.9306816 8.24157366,12.9381335 8.2282091,12.945001 C8.21722634,12.9506761 8.20585027,12.9559807 8.19432927,12.9608342 C8.1798074,12.9669546 8.16516435,12.9723394 8.1502186,12.9770412 C8.13535096,12.9816794 8.1202304,12.985656 8.10498705,12.9889143 C8.09437102,12.9912332 8.08338366,12.9932062 8.07227812,12.9948142 C8.05453902,12.9973429 8.03706725,12.9989382 8.01956651,12.9996194 C8.01360478,12.9998635 8.00681833,13 8,13 L7.97943052,12.9995793 C7.96260352,12.9988908 7.94580467,12.997357 7.92910308,12.9949778 L8,13 C7.96347323,13 7.92786127,12.9960832 7.89356121,12.9886468 C7.87854749,12.9853288 7.86418897,12.9815254 7.84998983,12.9770738 C7.8360957,12.9727452 7.8223824,12.9677601 7.80896344,12.9622078 C7.79546114,12.9566485 7.78172431,12.9502504 7.76824181,12.943195 C7.75595333,12.9367067 7.74431753,12.9299807 7.73298968,12.922812 C7.72729809,12.9192668 7.72146362,12.9154054 7.7156945,12.9114088 L7.69785608,12.8984173 C7.68424576,12.8880797 7.67118132,12.8770608 7.65871357,12.8654113 L7.64644661,12.8535534 L5.64644661,10.8535534 C5.45118446,10.6582912 5.45118446,10.3417088 5.64644661,10.1464466 C5.82001296,9.97288026 6.08943736,9.95359511 6.2843055,10.0885912 L6.35355339,10.1464466 L7.49915929,11.293 L7.5,7.5 C7.5,7.22385763 7.72385763,7 8,7 Z M11.6972244,3 L4.30277564,3 C3.96842245,3 3.65619112,3.16710114 3.47072534,3.4452998 L3.47072534,3.4452998 L2.434,5 L13.565,5 L12.5292747,3.4452998 C12.3669921,3.20187597 12.1076547,3.04351118 11.8213655,3.00772348 L11.8213655,3.00772348 L11.6972244,3 Z" id="形状结合"></path>
            </g>
        </g>
    </g>
</svg>