<?xml version="1.0" encoding="UTF-8"?>
<svg width="16px" height="16px" viewBox="0 0 16 16" version="1.1" xmlns="http://www.w3.org/2000/svg" xmlns:xlink="http://www.w3.org/1999/xlink">
    <title>失效</title>
    <g id="失效" stroke="none" stroke-width="1" fill="none" fill-rule="evenodd">
        <path d="M12.194411,8.01081576 C12.5063048,8.01081576 12.8034844,8.13532106 13.0213242,8.35368219 L13.0991689,8.43990725 L14.387736,10.01858 C14.639135,10.3265785 14.4457191,10.7792992 14.0684205,10.8286509 L13.9999826,10.8330613 L12.3452974,10.8330613 C11.733008,10.8330613 11.2308528,10.3624192 11.182168,9.76381693 L11.1782995,9.66828736 L11.1778482,9.00861779 L10.465646,9.00919339 C10.3183282,9.00919339 10.1958044,9.11514632 10.1703956,9.25486879 L10.1655608,9.30870668 L10.1655608,13.3687757 C10.1655608,13.5158127 10.271716,13.6381031 10.4117053,13.6634635 L10.465646,13.668289 L13.1997555,13.668289 C13.3470732,13.668289 13.4695971,13.5623361 13.4950059,13.4226136 L13.4998407,13.3687757 L13.4998407,11.8381013 C13.4998407,11.5624069 13.7237618,11.3389124 13.9999826,11.3389124 C14.253185,11.3389124 14.4624412,11.5267099 14.4955589,11.7703643 L14.5001246,11.8381013 L14.5001246,13.3687757 C14.5001246,14.052999 13.9696535,14.6135603 13.2968035,14.6631067 L13.1997555,14.6666667 L10.465646,14.6666667 C9.78011622,14.6666667 9.21848462,14.1372065 9.16884359,13.4656389 L9.16527685,13.3687757 L9.16527685,9.30870668 C9.16527685,8.62448338 9.695748,8.06392213 10.3685979,8.0143757 L10.465646,8.01081576 L12.194411,8.01081576 Z M8.00189304,1.33333333 C11.5969609,1.33333333 14.5417162,4.17780238 14.6663585,7.75390989 C14.6759618,8.02943759 14.4599609,8.26056709 14.1839071,8.27015208 C13.9078533,8.27973707 13.6762825,8.06414791 13.6666792,7.78862021 C13.6211618,6.48268295 13.1329618,5.29143983 12.3484632,4.35747656 L4.3630688,12.3271447 C5.34763947,13.1507633 6.61674453,13.6466575 8.00189304,13.6466575 C8.27811383,13.6466575 8.50203502,13.870152 8.50203502,14.1458463 C8.50203502,14.4215407 8.27811383,14.6450352 8.00189304,14.6450352 C4.31894921,14.6450352 1.33333333,11.6651092 1.33333333,7.98918424 C1.33333333,4.31325929 4.31894921,1.33333333 8.00189304,1.33333333 Z M12.5095543,12.3154873 C12.785775,12.3154873 13.0096962,12.539345 13.0096962,12.8154873 C13.0096962,13.0686178 12.8215402,13.2778146 12.5774206,13.3109229 L12.5095543,13.3154873 L11.1567939,13.3154873 C10.8805731,13.3154873 10.656652,13.0916297 10.656652,12.8154873 C10.656652,12.5623568 10.844808,12.35316 11.0889276,12.3200517 L11.1567939,12.3154873 L12.5095543,12.3154873 Z M12.5095543,11.0744214 C12.785775,11.0744214 13.0096962,11.298279 13.0096962,11.5744214 C13.0096962,11.8275519 12.8215402,12.0367487 12.5774206,12.069857 L12.5095543,12.0744214 L11.1567939,12.0744214 C10.8805731,12.0744214 10.656652,11.8505638 10.656652,11.5744214 C10.656652,11.3212909 10.844808,11.1120941 11.0889276,11.0789858 L11.1567939,11.0744214 L12.5095543,11.0744214 Z M8.00189304,2.33171097 C4.87139079,2.33171097 2.33361729,4.86464803 2.33361729,7.98918424 C2.33361729,9.37216789 2.83079978,10.6392497 3.65650012,11.6220863 L11.6412819,3.65180919 C10.6555402,2.82732631 9.38534735,2.33171097 8.00189304,2.33171097 Z M12.194411,9.00919339 L12.1781321,9.00861779 L12.1785834,9.66828736 C12.1785834,9.74705718 12.2334213,9.81304335 12.3070714,9.83028899 L12.3452974,9.83468363 L12.9476839,9.83460888 L12.3236621,9.07049218 C12.3078322,9.05109829 12.2880508,9.03577359 12.2659613,9.02529737 L12.2313011,9.0133168 L12.194411,9.00919339 Z" id="形状结合" fill="#71757F"></path>
    </g>
</svg>