<?xml version="1.0" encoding="UTF-8"?>
<svg width="16px" height="16px" viewBox="0 0 16 16" version="1.1" xmlns="http://www.w3.org/2000/svg" xmlns:xlink="http://www.w3.org/1999/xlink">
    <title>icon-job-collapse</title>
    <g id="icon-job-collapse" stroke="none" stroke-width="1" fill="none" fill-rule="evenodd">
        <path d="M4.71569412,14.411409 C4.91056312,14.546405 5.17998712,14.52712 5.35355312,14.353553 L5.35355312,14.353553 L8,11.707 L10.6464471,14.353553 L10.7156941,14.411409 C10.9105631,14.546405 11.1799871,14.52712 11.3535531,14.353553 C11.5488161,14.158291 11.5488161,13.841709 11.3535531,13.646447 L11.3535531,13.646447 L8.35355312,10.646447 L8.28430612,10.588591 C8.08943712,10.453595 7.82001312,10.47288 7.64644712,10.646447 L7.64644712,10.646447 L4.64644712,13.646447 L4.58859112,13.715694 C4.45359512,13.910563 4.47288012,14.179987 4.64644712,14.353553 L4.64644712,14.353553 L4.71569412,14.411409 Z M14.5000001,7.5 C14.7761421,7.5 15.0000001,7.723858 15.0000001,8 C15.0000001,8.276142 14.7761421,8.5 14.5000001,8.5 L1.50000012,8.5 C1.22385812,8.5 1.00000012,8.276142 1.00000012,8 C1.00000012,7.723858 1.22385812,7.5 1.50000012,7.5 L14.5000001,7.5 Z M8.28430612,5.411409 L8.35355312,5.353553 L11.3535531,2.353553 C11.5488161,2.158291 11.5488161,1.841709 11.3535531,1.646447 C11.1799871,1.47288 10.9105631,1.453595 10.7156941,1.588591 L10.6464471,1.646447 L8,4.293 L5.35355312,1.646447 C5.17998712,1.47288 4.91056312,1.453595 4.71569412,1.588591 L4.64644712,1.646447 C4.47288012,1.820013 4.45359512,2.089437 4.58859112,2.284306 L4.64644712,2.353553 L7.64644712,5.353553 C7.82001312,5.52712 8.08943712,5.546405 8.28430612,5.411409 Z" id="形状结合备份" fill="#71757F" fill-rule="nonzero" transform="translate(8.000000, 8.000000) rotate(-270.000000) translate(-8.000000, -8.000000) "></path>
    </g>
</svg>