<?xml version="1.0" encoding="UTF-8"?>
<svg width="16px" height="16px" viewBox="0 0 16 16" version="1.1" xmlns="http://www.w3.org/2000/svg" xmlns:xlink="http://www.w3.org/1999/xlink">
    <title>全部展开</title>
    <g id="全部展开" stroke="none" stroke-width="1" fill="none" fill-rule="evenodd">
        <path d="M4.71569412,10.588591 C4.91056312,10.453595 5.17998712,10.47288 5.35355312,10.646447 L5.35355312,10.646447 L8,13.293 L10.6464471,10.646447 L10.7156941,10.588591 C10.9105631,10.453595 11.1799871,10.47288 11.3535531,10.646447 C11.5488161,10.841709 11.5488161,11.158291 11.3535531,11.353553 L11.3535531,11.353553 L8.35355312,14.353553 L8.28430612,14.411409 C8.08943712,14.546405 7.82001312,14.52712 7.64644712,14.353553 L7.64644712,14.353553 L4.64644712,11.353553 L4.58859112,11.284306 C4.45359512,11.089437 4.47288012,10.820013 4.64644712,10.646447 L4.64644712,10.646447 L4.71569412,10.588591 Z M14.5000001,7.5 C14.7761421,7.5 15.0000001,7.723858 15.0000001,8 C15.0000001,8.276142 14.7761421,8.5 14.5000001,8.5 L1.50000012,8.5 C1.22385812,8.5 1.00000012,8.276142 1.00000012,8 C1.00000012,7.723858 1.22385812,7.5 1.50000012,7.5 L14.5000001,7.5 Z M8.28430612,1.588591 L8.35355312,1.646447 L11.3535531,4.646447 C11.5488161,4.841709 11.5488161,5.158291 11.3535531,5.353553 C11.1799871,5.52712 10.9105631,5.546405 10.7156941,5.411409 L10.6464471,5.353553 L8,2.707 L5.35355312,5.353553 C5.17998712,5.52712 4.91056312,5.546405 4.71569412,5.411409 L4.64644712,5.353553 C4.47288012,5.179987 4.45359512,4.910563 4.58859112,4.715694 L4.64644712,4.646447 L7.64644712,1.646447 C7.82001312,1.47288 8.08943712,1.453595 8.28430612,1.588591 Z" id="形状结合备份-2" fill="#71757F" fill-rule="nonzero" transform="translate(8.000000, 8.000000) rotate(-270.000000) translate(-8.000000, -8.000000) "></path>
    </g>
</svg>