<?xml version="1.0" encoding="UTF-8"?>
<svg width="16px" height="16px" viewBox="0 0 16 16" version="1.1" xmlns="http://www.w3.org/2000/svg" xmlns:xlink="http://www.w3.org/1999/xlink">
    <title>jump_to</title>
    <g id="资源库" stroke="none" stroke-width="1" fill="none" fill-rule="evenodd">
        <g id="画板备份-2" transform="translate(-911.000000, -6073.000000)" fill="#252B3A" fill-rule="nonzero">
            <g id="jump_to" transform="translate(911.000000, 6073.000000)">
                <path d="M11.989685,4.61310503 L12,10.1558957 C12.0003078,10.3215808 11.867661,10.4561478 11.7037247,10.4564594 C11.6248062,10.4566094 11.5490773,10.4249911 11.4932734,10.3685919 L8.98866052,7.83663485 L6.94110817,9.9068247 C5.99695791,10.8608152 4.92005847,11.6370754 3.71228036,12.2343846 C3.46685977,12.3557578 3.1705531,12.2530753 3.0504609,12.0050367 C2.9303687,11.7569981 3.03196744,11.4575306 3.27738803,11.3361574 C4.26398657,10.848233 5.1538005,10.2316344 5.94814356,9.48550441 L6.24154957,9.1996322 L8.28901711,7.12952807 L5.6986272,4.51213204 C5.58270649,4.39497475 5.58270649,4.20502525 5.6986272,4.08786797 C5.75448097,4.03141839 5.83029308,3.99979612 5.90928197,4 L11.3975425,4.01423544 C11.7243842,4.01508314 11.9890703,4.28277627 11.989685,4.61310503 Z" id="路径"></path>
            </g>
        </g>
    </g>
</svg>