<?xml version="1.0" encoding="UTF-8"?>
<svg width="16px" height="16px" viewBox="0 0 16 16" version="1.1" xmlns="http://www.w3.org/2000/svg" xmlns:xlink="http://www.w3.org/1999/xlink">
    <title>icon icon-jump-to</title>
    <g id="icon-icon-jump-to" stroke="none" stroke-width="1" fill="none" fill-rule="evenodd">
        <path d="M12.5408547,2 C12.7658596,2 12.9529957,2.16213556 12.9918037,2.37594734 L12.999188,2.45833333 L12.999188,9.79166667 C12.999188,10.0447972 12.7939852,10.25 12.5408547,10.25 C12.3158498,10.25 12.1287137,10.0878644 12.0899057,9.87405266 L12.0825214,9.79166667 L12.0818514,3.6285362 C10.9907238,5.63389687 9.65748091,7.42462587 8.08272006,8.99938672 C6.37044938,10.7116574 4.42519972,12.1900471 2.24806947,13.4341216 C2.00831075,13.5711266 1.70288341,13.4878282 1.56587843,13.2480695 C1.42887344,13.0083107 1.51217181,12.7028834 1.75193053,12.5658784 C3.85257806,11.3655084 5.72677284,9.94112038 7.37561328,8.29227994 C8.94264798,6.72524524 10.260061,4.93421238 11.3285242,2.91767763 L5.20752135,2.91666667 C4.98251646,2.91666667 4.79538035,2.7545311 4.75657238,2.54071933 L4.74918802,2.45833333 C4.74918802,2.23332844 4.91132358,2.04619233 5.12513536,2.00738436 L5.20752135,2 L12.5408547,2 Z" id="形状结合" fill="#71757F" fill-rule="nonzero"></path>
    </g>
</svg>