<?xml version="1.0" encoding="UTF-8"?>
<svg width="16px" height="16px" viewBox="0 0 16 16" version="1.1" xmlns="http://www.w3.org/2000/svg" xmlns:xlink="http://www.w3.org/1999/xlink">
    <title>key</title>
    <g id="é¡µé¢-1" stroke="none" stroke-width="1" fill="none" fill-rule="evenodd">
        <path d="M10.1666667,2 C12.6514757,2 14.6666667,4.01519096 14.6666667,6.5 C14.6666667,8.98570769 12.6519105,11 10.1666667,11 C9.52238213,11 8.89607801,10.8619815 8.31640342,10.5994728 C8.06485274,10.4855568 7.95327782,10.1892874 8.06719387,9.93773675 C8.18110991,9.68618607 8.47737923,9.57461115 8.72892991,9.6885272 C9.18030204,9.89293343 9.66615157,10 10.1666667,10 C12.0996773,10 13.6666667,8.43337139 13.6666667,6.5 C13.6666667,4.56747571 12.099191,3 10.1666667,3 C8.23329528,3 6.66666667,4.56698938 6.66666667,6.5 C6.66666667,7.0005151 6.77373324,7.48636463 6.97813947,7.93773675 C7.05327916,8.10366106 7.03158889,8.29513089 6.92638279,8.43901527 L6.87622006,8.49755339 L2.99966667,12.3730667 L2.99966667,13.6664 L4.66633333,13.6664 L4.66666667,12.8333333 C4.66666667,12.5802028 4.85476925,12.371006 5.09881963,12.3378977 L5.16666667,12.3333333 L5.99966667,12.3330667 L6,11.5 C6,11.2468695 6.18810259,11.0376727 6.43215296,11.0045644 L6.5,11 L7.16666667,11 C7.44280904,11 7.66666667,11.2238576 7.66666667,11.5 C7.66666667,11.7531305 7.47856408,11.9623273 7.2345137,11.9954356 L7.16666667,12 L6.99966667,11.9997333 L7,12.8333333 C7,13.0864638 6.81189741,13.2956606 6.56784704,13.3287689 L6.5,13.3333333 L5.66633333,13.3330667 L5.66666667,14.1666667 C5.66666667,14.4197972 5.47856408,14.628994 5.2345137,14.6621023 L5.16666667,14.6666667 L2.5,14.6666667 C2.24686949,14.6666667 2.03767269,14.4785641 2.00456441,14.2345137 L2,14.1666667 L2,12.1666667 C2,12.0605801 2.03371419,11.9579695 2.09520918,11.8731594 L2.14644661,11.8131133 L5.935,8.0244 L5.91077953,7.95721984 C5.77310509,7.55789713 5.69209575,7.14067973 5.67175991,6.71405627 L5.66666667,6.5 C5.66666667,4.01475616 7.68095897,2 10.1666667,2 Z M11.1665333,4.66673333 C11.626009,4.66673333 11.9998667,5.04059096 11.9998667,5.50006667 C11.9998667,5.96013377 11.6260849,6.3334 11.1665333,6.3334 C10.706391,6.3334 10.3332,5.96020904 10.3332,5.50006667 C10.3332,5.04051513 10.7064662,4.66673333 11.1665333,4.66673333 Z" id="key" fill="#191919"></path>
    </g>
</svg>