<?xml version="1.0" encoding="UTF-8"?>
<svg width="16px" height="16px" viewBox="0 0 16 16" version="1.1" xmlns="http://www.w3.org/2000/svg" xmlns:xlink="http://www.w3.org/1999/xlink">
    <title>function icon/light</title>
    <g id="图标入库记录" stroke="none" stroke-width="1" fill="none" fill-rule="evenodd">
        <g id="DevUI图标入库-2023.05" transform="translate(-312.000000, -340.000000)" fill="#71757F">
            <g id="light" transform="translate(312.000000, 340.000000)">
                <path d="M8,13.5 C8.24545989,13.5 8.44960837,13.6768752 8.49194433,13.9101244 L8.5,14 L8.5,15 C8.5,15.2761424 8.27614237,15.5 8,15.5 C7.75454011,15.5 7.55039163,15.3231248 7.50805567,15.0898756 L7.5,15 L7.5,14 C7.5,13.7238576 7.72385763,13.5 8,13.5 Z M12.5269462,11.8312318 L12.5961941,11.8890873 L13.3033009,12.5961941 C13.498563,12.7914562 13.498563,13.1080387 13.3033009,13.3033009 C13.1297345,13.4768672 12.8603101,13.4961524 12.665442,13.3611563 L12.5961941,13.3033009 L11.8890873,12.5961941 C11.6938252,12.4009319 11.6938252,12.0843494 11.8890873,11.8890873 C12.0626536,11.7155209 12.332078,11.6962358 12.5269462,11.8312318 Z M4.1109127,11.8890873 C4.28447906,12.0626536 4.30376421,12.332078 4.16876815,12.5269462 L4.1109127,12.5961941 L3.40380592,13.3033009 C3.20854378,13.498563 2.89196129,13.498563 2.69669914,13.3033009 C2.52313279,13.1297345 2.50384764,12.8603101 2.63884369,12.665442 L2.69669914,12.5961941 L3.40380592,11.8890873 C3.59906807,11.6938252 3.91565056,11.6938252 4.1109127,11.8890873 Z M8,3.5 C10.4852814,3.5 12.5,5.51471863 12.5,8 C12.5,10.4852814 10.4852814,12.5 8,12.5 C5.51471863,12.5 3.5,10.4852814 3.5,8 C3.5,5.51471863 5.51471863,3.5 8,3.5 Z M8,4.5 L8,11.5 L8.1920352,11.4948211 C10.0357224,11.3951264 11.5,9.8685634 11.5,8 C11.5,6.06700338 9.93299662,4.5 8,4.5 Z M2,7.5 C2.27614237,7.5 2.5,7.72385763 2.5,8 C2.5,8.24545989 2.32312484,8.44960837 2.08987563,8.49194433 L2,8.5 L1,8.5 C0.723857625,8.5 0.5,8.27614237 0.5,8 C0.5,7.75454011 0.676875161,7.55039163 0.910124368,7.50805567 L1,7.5 L2,7.5 Z M15,7.5 C15.2761424,7.5 15.5,7.72385763 15.5,8 C15.5,8.24545989 15.3231248,8.44960837 15.0898756,8.49194433 L15,8.5 L14,8.5 C13.7238576,8.5 13.5,8.27614237 13.5,8 C13.5,7.75454011 13.6768752,7.55039163 13.9101244,7.50805567 L14,7.5 L15,7.5 Z M3.33455803,2.63884369 L3.40380592,2.69669914 L4.1109127,3.40380592 C4.30617485,3.59906807 4.30617485,3.91565056 4.1109127,4.1109127 C3.93734635,4.28447906 3.66792195,4.30376421 3.47305381,4.16876815 L3.40380592,4.1109127 L2.69669914,3.40380592 C2.501437,3.20854378 2.501437,2.89196129 2.69669914,2.69669914 C2.87026549,2.52313279 3.13968989,2.50384764 3.33455803,2.63884369 Z M13.3033009,2.69669914 C13.4768672,2.87026549 13.4961524,3.13968989 13.3611563,3.33455803 L13.3033009,3.40380592 L12.5961941,4.1109127 C12.4009319,4.30617485 12.0843494,4.30617485 11.8890873,4.1109127 C11.7155209,3.93734635 11.6962358,3.66792195 11.8312318,3.47305381 L11.8890873,3.40380592 L12.5961941,2.69669914 C12.7914562,2.501437 13.1080387,2.501437 13.3033009,2.69669914 Z M8,0.5 C8.24545989,0.5 8.44960837,0.676875161 8.49194433,0.910124368 L8.5,1 L8.5,2 C8.5,2.27614237 8.27614237,2.5 8,2.5 C7.75454011,2.5 7.55039163,2.32312484 7.50805567,2.08987563 L7.5,2 L7.5,1 C7.5,0.723857625 7.72385763,0.5 8,0.5 Z" id="形状结合"></path>
            </g>
        </g>
    </g>
</svg>