<?xml version="1.0" encoding="UTF-8"?>
<svg width="16px" height="16px" viewBox="0 0 16 16" version="1.1" xmlns="http://www.w3.org/2000/svg" xmlns:xlink="http://www.w3.org/1999/xlink">
    <title>link-jump</title>
    <g id="页面-1" stroke="none" stroke-width="1" fill="none" fill-rule="evenodd">
        <path d="M11.5,3.21554044 C12.6537014,3.21554044 13.604027,4.11570507 13.6844831,5.24954071 L13.69,5.40554044 L13.69,12.7155404 C13.69,13.8692418 12.7898354,14.8195674 11.6559997,14.9000235 L11.5,14.9055404 L4.19,14.9055404 C3.0362986,14.9055404 2.08597303,14.0053758 2.00551694,12.8715402 L2,12.7155404 L2,5.40554044 C2,4.25183904 2.90016463,3.30151347 4.03400027,3.22105738 L4.19,3.21554044 L11.5,3.21554044 Z M11.5,4.21554044 L4.19,4.21554044 C3.57700848,4.21554044 3.06747762,4.68675932 3.00618076,5.28442377 L3,5.40554044 L3,12.7155404 C3,13.328532 3.47121888,13.8380628 4.06888333,13.8993597 L4.19,13.9055404 L11.5,13.9055404 C12.1129915,13.9055404 12.6225224,13.4343216 12.6838192,12.8366571 L12.69,12.7155404 L12.69,5.40554044 C12.69,4.75168281 12.1538576,4.21554044 11.5,4.21554044 Z M6.46201911,2.00019565 L11.8442617,2.06166785 C13.4876442,2.08043742 14.81,3.41798249 14.81,5.0614722 L14.81,10.5769261 C14.81,11.3540696 14.5145003,12.0621955 14.0297318,12.5950729 L14.03,5.37554044 C14.03,4.05005704 12.9984641,2.96550177 11.6943757,2.88085812 L11.53,2.87554044 L4.3093968,2.87572406 C4.85205455,2.33456798 5.60083473,2 6.42775745,2 L6.46201911,2.00019565 Z M5.80644661,8.23198705 L6.51355339,8.93909383 L6.23071374,9.22191085 C5.79976209,9.64602201 5.79976209,10.3350589 6.23637041,10.7648267 C6.63018791,11.1649961 7.25243626,11.1935796 7.6811422,10.8483037 L7.77644661,10.761987 L8.05644661,10.481987 L8.76355339,11.1890938 L8.48637041,11.4662542 C7.67048157,12.2953025 6.33951843,12.2953025 5.52928626,11.4719109 C4.74169033,10.6968164 4.70231053,9.4568675 5.40871223,8.63770289 L5.52644661,8.51198705 L5.80644661,8.23198705 Z M8.33644661,7.95198705 L9.04355339,8.65909383 L7.35355339,10.3490938 L6.64644661,9.64198705 L8.33644661,7.95198705 Z M10.1735534,6.82198705 C10.9480524,7.59648609 10.9867774,8.83245174 10.2949988,9.64773358 L10.1797007,9.7728377 L9.89970073,10.0628377 L9.18029927,9.36824318 L9.46644661,9.07198705 C9.89118446,8.64724919 9.89118446,7.95383168 9.46644661,7.52909383 C9.07204717,7.13469439 8.44598007,7.10652301 8.01848526,7.44457966 L7.92355339,7.52909383 L7.64355339,7.80909383 L6.93644661,7.10198705 L7.21644661,6.82198705 C8.03170876,6.0067249 9.35829124,6.0067249 10.1735534,6.82198705 Z" id="形状结合" fill="#595959" fill-rule="nonzero"></path>
    </g>
</svg>