<?xml version="1.0" encoding="UTF-8"?>
<svg width="16px" height="16px" viewBox="0 0 16 16" version="1.1" xmlns="http://www.w3.org/2000/svg" xmlns:xlink="http://www.w3.org/1999/xlink">
    <title>function icon/living example</title>
    <g id="图标入库记录" stroke="none" stroke-width="1" fill="none" fill-rule="evenodd">
        <g id="DevUI图标-入库记录230223" transform="translate(-652.000000, -120.000000)" fill="#71757F" fill-rule="nonzero">
            <g id="实例" transform="translate(652.000000, 120.000000)">
                <path d="M13,1 C14.1045695,1 15,1.8954305 15,3 L15,13 C15,14.1045695 14.1045695,15 13,15 L3,15 C1.8954305,15 1,14.1045695 1,13 L1,3 C1,1.8954305 1.8954305,1 3,1 L13,1 Z M13,2 L3,2 C2.48716416,2 2.06449284,2.38604019 2.00672773,2.88337887 L2,3 L2,13 C2,13.5128358 2.38604019,13.9355072 2.88337887,13.9932723 L3,14 L13,14 C13.5128358,14 13.9355072,13.6139598 13.9932723,13.1166211 L14,13 L14,3 C14,2.48716416 13.6139598,2.06449284 13.1166211,2.00672773 L13,2 Z M12,3 C12.5522847,3 13,3.44771525 13,4 L13,12 C13,12.5522847 12.5522847,13 12,13 L4,13 C3.44771525,13 3,12.5522847 3,12 L3,4 C3,3.44771525 3.44771525,3 4,3 L12,3 Z M12,4 L4,4 L4,12 L12,12 L12,4 Z M10.5,8 C10.7761424,8 11,8.22385763 11,8.5 C11,8.77614237 10.7761424,9 10.5,9 L8.5,9 C8.22385763,9 8,8.77614237 8,8.5 C8,8.22385763 8.22385763,8 8.5,8 L10.5,8 Z M5.7843055,6.08859116 L5.85355339,6.14644661 L6.85355339,7.14644661 C7.02711974,7.32001296 7.04640489,7.58943736 6.91140884,7.7843055 L6.85355339,7.85355339 L5.85355339,8.85355339 C5.65829124,9.04881554 5.34170876,9.04881554 5.14644661,8.85355339 C4.97288026,8.67998704 4.95359511,8.41056264 5.08859116,8.2156945 L5.14644661,8.14644661 L5.793,7.5 L5.14644661,6.85355339 C4.97288026,6.67998704 4.95359511,6.41056264 5.08859116,6.2156945 L5.14644661,6.14644661 C5.32001296,5.97288026 5.58943736,5.95359511 5.7843055,6.08859116 Z" id="形状结合"></path>
            </g>
        </g>
    </g>
</svg>