<?xml version="1.0" encoding="UTF-8"?>
<svg width="16px" height="16px" viewBox="0 0 16 16" version="1.1" xmlns="http://www.w3.org/2000/svg" xmlns:xlink="http://www.w3.org/1999/xlink">
    <title>loading</title>
    <g id="loading" stroke="none" stroke-width="1" fill="none" fill-rule="evenodd">
        <path d="M8,12 C8.27614237,12 8.5,12.2238576 8.5,12.5 L8.5,14.5 C8.5,14.7761424 8.27614237,15 8,15 C7.72385763,15 7.5,14.7761424 7.5,14.5 L7.5,12.5 C7.5,12.2238576 7.72385763,12 8,12 Z M11.0495421,11.3466838 L12.2251126,12.9647178 C12.3874251,13.1881217 12.3379006,13.5008065 12.1144968,13.663119 C11.8910929,13.8254314 11.5784081,13.775907 11.4160956,13.5525031 L10.2405251,11.9344691 C10.0782127,11.7110652 10.1277371,11.3983804 10.351141,11.236068 C10.5745449,11.0737556 10.8872297,11.12328 11.0495421,11.3466838 Z M5.64885899,11.236068 C5.87226287,11.3983804 5.92178728,11.7110652 5.75947486,11.9344691 L4.58390436,13.5525031 C4.42159194,13.775907 4.10890711,13.8254314 3.88550323,13.663119 C3.66209936,13.5008065 3.61257495,13.1881217 3.77488736,12.9647178 L4.95045787,11.3466838 C5.11277028,11.12328 5.42545512,11.0737556 5.64885899,11.236068 Z M12.4342628,8.91504822 L14.3363759,9.53308221 C14.5990029,9.61841489 14.7427283,9.90049196 14.6573956,10.163119 C14.5720629,10.425746 14.2899859,10.5694714 14.0273589,10.4841387 L12.1252458,9.86610473 C11.8626188,9.78077205 11.7188934,9.49869498 11.8042261,9.23606798 C11.8895588,8.97344097 12.1716358,8.82971553 12.4342628,8.91504822 Z M4.19577393,9.23606798 C4.28110662,9.49869498 4.13738118,9.78077205 3.87475417,9.86610473 L1.97264114,10.4841387 C1.71001414,10.5694714 1.42793707,10.425746 1.34260439,10.163119 C1.2572717,9.90049196 1.40099714,9.61841489 1.66362415,9.53308221 L3.56573718,8.91504822 C3.82836418,8.82971553 4.11044125,8.97344097 4.19577393,9.23606798 Z M14.6573956,5.83688104 C14.7427283,6.09950804 14.5990029,6.38158511 14.3363759,6.46691779 L12.4342628,7.08495178 C12.1716358,7.17028447 11.8895588,7.02655903 11.8042261,6.76393202 C11.7188934,6.50130502 11.8626188,6.21922795 12.1252458,6.13389527 L14.0273589,5.51586128 C14.2899859,5.43052859 14.5720629,5.57425403 14.6573956,5.83688104 Z M1.97264114,5.51586128 L3.87475417,6.13389527 C4.13738118,6.21922795 4.28110662,6.50130502 4.19577393,6.76393202 C4.11044125,7.02655903 3.82836418,7.17028447 3.56573718,7.08495178 L1.66362415,6.46691779 C1.40099714,6.38158511 1.2572717,6.09950804 1.34260439,5.83688104 C1.42793707,5.57425403 1.71001414,5.43052859 1.97264114,5.51586128 Z M12.1144968,2.33688104 C12.3379006,2.49919345 12.3874251,2.81187829 12.2251126,3.03528216 L11.0495421,4.65331615 C10.8872297,4.87672003 10.5745449,4.92624444 10.351141,4.76393202 C10.1277371,4.60161961 10.0782127,4.28893477 10.2405251,4.0655309 L11.4160956,2.44749691 C11.5784081,2.22409304 11.8910929,2.17456862 12.1144968,2.33688104 Z M4.58390436,2.44749691 L5.75947486,4.0655309 C5.92178728,4.28893477 5.87226287,4.60161961 5.64885899,4.76393202 C5.42545512,4.92624444 5.11277028,4.87672003 4.95045787,4.65331615 L3.77488736,3.03528216 C3.61257495,2.81187829 3.66209936,2.49919345 3.88550323,2.33688104 C4.10890711,2.17456862 4.42159194,2.22409304 4.58390436,2.44749691 Z M8,1 C8.27614237,1 8.5,1.22385763 8.5,1.5 L8.5,3.5 C8.5,3.77614237 8.27614237,4 8,4 C7.72385763,4 7.5,3.77614237 7.5,3.5 L7.5,1.5 C7.5,1.22385763 7.72385763,1 8,1 Z" id="形状结合" fill="#71757F"></path>
    </g>
</svg>