<?xml version="1.0" encoding="UTF-8"?>
<svg width="16px" height="16px" viewBox="0 0 16 16" version="1.1" xmlns="http://www.w3.org/2000/svg" xmlns:xlink="http://www.w3.org/1999/xlink">
    <title>function icon/local variable</title>
    <g id="图标入库记录" stroke="none" stroke-width="1" fill="none" fill-rule="evenodd">
        <g id="DevUI图标入库-2023.09" transform="translate(-312.000000, -420.000000)" fill="#71757F" fill-rule="nonzero">
            <g id="编组-5" transform="translate(312.000000, 420.000000)">
                <path d="M8.5,4 L14.5,4 C14.7761424,4 15,4.22385763 15,4.5 C15,4.77614237 14.7761424,5 14.5,5 L8.5,5 C8.22385763,5 8,4.77614237 8,4.5 C8,4.22385763 8.22385763,4 8.5,4 Z M5,2.5 C6.1045695,2.5 7,3.3954305 7,4.5 C7,5.6045695 6.1045695,6.5 5,6.5 C4.06844842,6.5 3.28564881,5.86311708 3.06327212,5.00102216 L1.5,5 C1.22385763,5 1,4.77614237 1,4.5 C1,4.22385763 1.22385763,4 1.5,4 L3.06301369,3.99998077 C3.28504178,3.13737692 4.06808721,2.5 5,2.5 Z M5,3.5 C4.44771525,3.5 4,3.94771525 4,4.5 C4,5.05228475 4.44771525,5.5 5,5.5 C5.55228475,5.5 6,5.05228475 6,4.5 C6,3.94771525 5.55228475,3.5 5,3.5 Z M1.5,11 L7.5,11 C7.77614237,11 8,11.2238576 8,11.5 C8,11.7761424 7.77614237,12 7.5,12 L1.5,12 C1.22385763,12 1,11.7761424 1,11.5 C1,11.2238576 1.22385763,11 1.5,11 Z M11,9.5 C11.9319128,9.5 12.7149582,10.1373769 12.9369863,10.9999808 L14.5,11 C14.7761424,11 15,11.2238576 15,11.5 C15,11.7761424 14.7761424,12 14.5,12 L12.9367279,12.0010222 C12.7143512,12.8631171 11.9315516,13.5 11,13.5 C9.8954305,13.5 9,12.6045695 9,11.5 C9,10.3954305 9.8954305,9.5 11,9.5 Z M11,10.5 C10.4477153,10.5 10,10.9477153 10,11.5 C10,12.0522847 10.4477153,12.5 11,12.5 C11.5522847,12.5 12,12.0522847 12,11.5 C12,10.9477153 11.5522847,10.5 11,10.5 Z" id="形状"></path>
            </g>
        </g>
    </g>
</svg>