<?xml version="1.0" encoding="UTF-8"?>
<svg width="16px" height="16px" viewBox="0 0 16 16" version="1.1" xmlns="http://www.w3.org/2000/svg" xmlns:xlink="http://www.w3.org/1999/xlink">
    <!-- Generator: Sketch 63.1 (92452) - https://sketch.com -->
    <title>function icon/location</title>
    <desc>Created with Sketch.</desc>
    <g id="DevUI风格图标汇总-220907" stroke="none" stroke-width="1" fill="none" fill-rule="evenodd">
        <g id="API-starter-图标入库记录-220919" transform="translate(-892.000000, -124.000000)" fill="#71757F" fill-rule="nonzero">
            <g id="project/收藏" transform="translate(892.000000, 124.000000)">
                <path d="M8,1 C11.3137085,1 14,3.6862915 14,7 C14,9.07606948 12.2336869,11.850593 8.70106084,15.3235706 C8.34189216,15.6766747 7.78264311,15.7038366 7.39269281,15.4050562 L7.29894605,15.3235707 L6.98266054,15.0097728 C3.66088685,11.6830832 2,9.01315896 2,7 C2,3.6862915 4.6862915,1 8,1 Z M8,2 C5.23857625,2 3,4.23857625 3,7 C3,8.6177896 4.44367851,10.9907319 7.38757736,13.9971327 L7.68697007,14.2998798 L8,14.6104691 L8.30030644,14.3125762 C11.4533549,11.1561409 13,8.67588723 13,7 C13,4.23857625 10.7614237,2 8,2 Z M8,4 C9.65685425,4 11,5.34314575 11,7 C11,8.65685425 9.65685425,10 8,10 C6.34314575,10 5,8.65685425 5,7 C5,5.34314575 6.34314575,4 8,4 Z M8,5 C6.8954305,5 6,5.8954305 6,7 C6,8.1045695 6.8954305,9 8,9 C9.1045695,9 10,8.1045695 10,7 C10,5.8954305 9.1045695,5 8,5 Z" id="形状结合"></path>
            </g>
        </g>
    </g>
</svg>