<?xml version="1.0" encoding="UTF-8"?>
<svg width="12px" height="13px" viewBox="0 0 12 13" version="1.1" xmlns="http://www.w3.org/2000/svg" xmlns:xlink="http://www.w3.org/1999/xlink">
    <!-- Generator: Sketch 50.2 (55047) - http://www.bohemiancoding.com/sketch -->
    <title>私有</title>
    <desc>Created with Sketch.</desc>
    <defs></defs>
    <g id="图标" stroke="none" stroke-width="1" fill="none" fill-rule="evenodd">
        <g transform="translate(-199.000000, -878.000000)" id="私有">
            <g transform="translate(197.000000, 877.000000)">
                <path d="M5,5 L5,4 C5,2.34314575 6.34314575,1 8,1 C9.65685425,1 11,2.34314575 11,4 L11,5 L13,5 C13.5522847,5 14,5.44771525 14,6 L14,13 C14,13.5522847 13.5522847,14 13,14 L3,14 C2.44771525,14 2,13.5522847 2,13 L2,6 C2,5.44771525 2.44771525,5 3,5 L5,5 Z M5,6 L3,6 L3,13 L13,13 L13,6 L11,6 L5,6 Z M7.5,8.06300874 L7.5,7 L8.5,7 L8.5,8.06300874 C9.36261361,8.28503014 10,9.06808029 10,10 C10,11.1045695 9.1045695,12 8,12 C6.8954305,12 6,11.1045695 6,10 C6,9.06808029 6.63738639,8.28503014 7.5,8.06300874 Z M8,9 C7.44771525,9 7,9.44771525 7,10 C7,10.5522847 7.44771525,11 8,11 C8.55228475,11 9,10.5522847 9,10 C9,9.44771525 8.55228475,9 8,9 Z M6,5 L10,5 L10,4 C10,2.8954305 9.1045695,2 8,2 C6.8954305,2 6,2.8954305 6,4 L6,5 Z" id="Combined-Shape" fill="#293040" fill-rule="nonzero"></path>
            </g>
        </g>
    </g>
</svg>