<?xml version="1.0" encoding="UTF-8"?>
<svg width="16px" height="16px" viewBox="0 0 16 16" version="1.1" xmlns="http://www.w3.org/2000/svg" xmlns:xlink="http://www.w3.org/1999/xlink">
    <title>icon icon-lock-private</title>
    <g id="icon-icon-lock-private" stroke="none" stroke-width="1" fill="none" fill-rule="evenodd">
        <g transform="translate(2.000000, 1.000000)" fill="#71757F" id="形状结合">
            <path d="M6,0 C7.65685425,0 9,1.34314575 9,3 L9,4 L10,4 C11.1045695,4 12,4.8954305 12,6 L12,12 C12,13.1045695 11.1045695,14 10,14 L2,14 C0.8954305,14 0,13.1045695 0,12 L0,6 C0,4.8954305 0.8954305,4 2,4 L3,4 L3,3 C3,1.34314575 4.34314575,0 6,0 Z M10.0279905,5.00038418 L2,5 C1.45707601,5 1.01520683,5.43266708 1.00038418,5.97200952 L1,12 C1,12.542924 1.43266708,12.9847932 1.97200952,12.9996158 L2,13 L10,13 C10.542924,13 10.9847932,12.5673329 10.9996158,12.0279905 L11,12 L11,6 C11,5.45707601 10.5673329,5.01520683 10.0279905,5.00038418 Z M6,6.5 C6.24545989,6.5 6.44960837,6.67687516 6.49194433,6.91012437 L6.5,7 L6.5,8 L6.49500156,8.06172916 C7.36015023,8.28200728 8,9.06628118 8,10 C8,11.1045695 7.1045695,12 6,12 C4.8954305,12 4,11.1045695 4,10 C4,9.06591997 4.64034491,8.28140051 5.50600258,8.06147377 L5.5,8 L5.5,7 C5.5,6.72385763 5.72385763,6.5 6,6.5 Z M6,9 C5.44771525,9 5,9.44771525 5,10 C5,10.5522847 5.44771525,11 6,11 C6.55228475,11 7,10.5522847 7,10 C7,9.44771525 6.55228475,9 6,9 Z M6,1 C4.9456382,1 4.08183488,1.81587779 4.00548574,2.85073766 L4,3 L4,4 L8,4 L8,3 C8,1.9456382 7.18412221,1.08183488 6.14926234,1.00548574 L6,1 Z"></path>
        </g>
    </g>
</svg>