<?xml version="1.0" encoding="UTF-8"?>
<svg width="16px" height="16px" viewBox="0 0 16 16" version="1.1" xmlns="http://www.w3.org/2000/svg" xmlns:xlink="http://www.w3.org/1999/xlink">
    <title>log</title>
    <g id="log" stroke="none" stroke-width="1" fill="none" fill-rule="evenodd">
        <path d="M11.3333333,1.33333333 C12.3984961,1.33333333 13.2691103,2.16616163 13.3299384,3.21584118 L13.3333333,3.33333333 L13.3333333,7 C13.3333333,7.27614237 13.1094757,7.5 12.8333333,7.5 C12.5802028,7.5 12.371006,7.31189741 12.3378977,7.06784704 L12.3333333,7 L12.3333333,3.33333333 C12.3333333,2.81368886 11.9367191,2.38638554 11.4296361,2.33791264 L11.3333333,2.33333333 L4.66666667,2.33333333 C4.14689281,2.33333333 3.71970365,2.73006933 3.67124463,3.23705206 L3.66666667,3.33333333 L3.66666667,12.6673333 C3.66666667,13.1867934 4.06310741,13.6136689 4.57033329,13.6620921 L4.66666667,13.6666667 L7.66666667,13.6666667 C7.94280904,13.6666667 8.16666667,13.8905243 8.16666667,14.1666667 C8.16666667,14.4197972 7.97856408,14.628994 7.7345137,14.6621023 L7.66666667,14.6666667 L4.66666667,14.6666667 C3.60144764,14.6666667 2.73088572,13.8344039 2.67006142,12.7848172 L2.66666667,12.6673333 L2.66666667,3.33333333 C2.66666667,2.26843569 3.49923934,1.39757534 4.54914712,1.33672932 L4.66666667,1.33333333 L11.3333333,1.33333333 Z M11.3333333,8 C13.174597,8 14.6666667,9.49231221 14.6666667,11.3333333 C14.6666667,13.174809 13.174809,14.6666667 11.3333333,14.6666667 C9.49185763,14.6666667 8,13.174809 8,11.3333333 C8,9.49231221 9.49206967,8 11.3333333,8 Z M11.3333333,9 C10.0443908,9 9,10.0445606 9,11.3333333 C9,12.6225243 10.0441424,13.6666667 11.3333333,13.6666667 C12.6225243,13.6666667 13.6666667,12.6225243 13.6666667,11.3333333 C13.6666667,10.0445606 12.6222759,9 11.3333333,9 Z M11.3333333,12.3046689 C11.6098333,12.3046689 11.8333333,12.5286689 11.8333333,12.8046689 C11.8333333,13.0811689 11.6098333,13.3046689 11.3333333,13.3046689 C11.0568333,13.3046689 10.8333333,13.0811689 10.8333333,12.8046689 C10.8333333,12.5286689 11.0568333,12.3046689 11.3333333,12.3046689 Z M11.3333333,9.36199779 C11.586,9.36199779 11.7953333,9.54999779 11.8286667,9.79399779 L11.8333333,9.86199779 L11.8333333,11.3902367 C11.8333333,11.6662367 11.6093333,11.8902367 11.3333333,11.8902367 C11.08,11.8902367 10.8713333,11.7022367 10.838,11.4589034 L10.8333333,11.3902367 L10.8333333,9.86199779 C10.8333333,9.58599779 11.0573333,9.36199779 11.3333333,9.36199779 Z M8.66666667,6.5 C8.94280904,6.5 9.16666667,6.72385763 9.16666667,7 C9.16666667,7.25313051 8.97856408,7.46232731 8.7345137,7.49543559 L8.66666667,7.5 L5.66666667,7.5 C5.39052429,7.5 5.16666667,7.27614237 5.16666667,7 C5.16666667,6.74686949 5.35476925,6.53767269 5.59881963,6.50456441 L5.66666667,6.5 L8.66666667,6.5 Z M10.3333333,3.83333333 C10.6094757,3.83333333 10.8333333,4.05719096 10.8333333,4.33333333 C10.8333333,4.58646384 10.6452307,4.79566064 10.4011804,4.82876892 L10.3333333,4.83333333 L5.66666667,4.83333333 C5.39052429,4.83333333 5.16666667,4.60947571 5.16666667,4.33333333 C5.16666667,4.08020282 5.35476925,3.87100603 5.59881963,3.83789774 L5.66666667,3.83333333 L10.3333333,3.83333333 Z" id="形状结合" fill="#71757F"></path>
    </g>
</svg>