<?xml version="1.0" encoding="UTF-8"?>
<svg width="16px" height="16px" viewBox="0 0 16 16" version="1.1" xmlns="http://www.w3.org/2000/svg" xmlns:xlink="http://www.w3.org/1999/xlink">
    <title>Log out</title>
    <g id="资源库" stroke="none" stroke-width="1" fill="none" fill-rule="evenodd">
        <g id="画板备份-2" transform="translate(-831.000000, -6073.000000)" fill="#252B3A" fill-rule="nonzero">
            <g id="Log-out" transform="translate(831.000000, 6073.000000)">
                <path d="M12.0299176,1 C12.8096137,1 13.4503663,1.59488808 13.523051,2.35553999 L13.5299176,2.5 L13.5299176,3.5 C13.5299176,3.77614237 13.30606,4 13.0299176,4 C12.7844577,4 12.5803092,3.82312484 12.5379733,3.58987563 L12.5299176,3.5 L12.5299176,2.5 C12.5299176,2.25454011 12.3530425,2.05039163 12.1197932,2.00805567 L12.0299176,2 L2.5,2 C2.25454011,2 2.05039163,2.17687516 2.00805567,2.41012437 L2,2.5 L2,13.5 C2,13.7454599 2.17687516,13.9496084 2.41012437,13.9919443 L2.5,14 L12.0299176,14 C12.2753775,14 12.479526,13.8231248 12.5218619,13.5898756 L12.5299176,13.5 L12.5299176,12.4974668 C12.5299176,12.2213245 12.7537752,11.9974668 13.0299176,11.9974668 C13.2753775,11.9974668 13.479526,12.174342 13.5218619,12.4075912 L13.5299176,12.4974668 L13.5299176,13.5 C13.5299176,14.2796961 12.9350295,14.9204487 12.1743776,14.9931334 L12.0299176,15 L2.5,15 C1.72030388,15 1.07955132,14.4051119 1.00686658,13.64446 L1,13.5 L1,2.5 C1,1.72030388 1.59488808,1.07955132 2.35553999,1.00686658 L2.5,1 L12.0299176,1 Z M9.9,3 C10.0060866,3 10.1078282,3.03634075 10.1828427,3.1010277 L15.439697,7.63414634 C15.6740115,7.83620174 15.6740115,8.16379826 15.439697,8.36585366 L10.1828427,12.8989723 C10.026633,13.0336759 9.773367,13.0336759 9.61715729,12.8989723 C9.54214274,12.8342854 9.5,12.746551 9.5,12.6550699 L9.5,10.5 L5,10.5 C4.72385763,10.5 4.5,10.2761424 4.5,10 L4.5,6 C4.5,5.72385763 4.72385763,5.5 5,5.5 L9.5,5.5 L9.5,3.34493014 C9.5,3.15443048 9.6790861,3 9.9,3 Z" id="形状结合"></path>
            </g>
        </g>
    </g>
</svg>