<?xml version="1.0" encoding="UTF-8"?>
<svg width="14px" height="12px" viewBox="0 0 14 12" version="1.1" xmlns="http://www.w3.org/2000/svg" xmlns:xlink="http://www.w3.org/1999/xlink">
    <!-- Generator: Sketch 51.2 (57519) - http://www.bohemiancoding.com/sketch -->
    <title>Group 11</title>
    <desc>Created with Sketch.</desc>
    <defs></defs>
    <g id="图标" stroke="none" stroke-width="1" fill="none" fill-rule="evenodd">
        <g id="Group-11" transform="translate(-1.000000, -2.000000)">
            <path d="M1,11.3333333 L1,12.8888889 L6.53,12.8888889 C6.07316742,12.4394149 5.69928053,11.9128137 5.42555556,11.3333333 L1,11.3333333 Z M1,6.66666667 L5.41777778,6.66666667 C5.69150275,6.08718632 6.06538964,5.56058506 6.52222222,5.11111111 L1,5.11111111 L1,6.66666667 Z M1,2 L1,3.55555556 L11.8888889,3.55555556 L11.8888889,2 L1,2 Z M11.1111111,9 L12.6666667,9 L12.6666667,10.5555556 L9.55555556,10.5555556 L9.55555556,9.77777778 L9.55555556,6.66666667 L11.1111111,6.66666667 L11.1111111,9 Z M4.88888889,9 C4.89100134,9.26041373 4.91179547,9.52034031 4.95111111,9.77777778 L1,9.77777778 L1,8.22222222 L4.95111111,8.22222222 C4.91179547,8.47965969 4.89100134,8.73958627 4.88888889,9 Z M10.3333333,4.33333333 C12.9106622,4.33333333 15,6.42267117 15,9 C15,11.5773288 12.9106622,13.6666667 10.3333333,13.6666667 C7.7560045,13.6666667 5.66666667,11.5773288 5.66666667,9 C5.66666667,6.42267117 7.7560045,4.33333333 10.3333333,4.33333333 Z M10.3333333,12.1111111 C11.1584513,12.1111111 11.9497746,11.7833343 12.5332211,11.1998878 C13.1166676,10.6164413 13.4444444,9.82511797 13.4444444,9 C13.4444444,7.28178078 12.0515526,5.88888889 10.3333333,5.88888889 C8.61511411,5.88888889 7.22222222,7.28178078 7.22222222,9 C7.22222222,10.7182192 8.61511411,12.1111111 10.3333333,12.1111111 Z" id="Combined-Shape" fill="#293040" fill-rule="nonzero"></path>
        </g>
    </g>
</svg>