<?xml version="1.0" encoding="UTF-8"?>
<svg width="16px" height="16px" viewBox="0 0 16 16" version="1.1" xmlns="http://www.w3.org/2000/svg" xmlns:xlink="http://www.w3.org/1999/xlink">
    <title>function icon/loop</title>
    <g id="页面-1" stroke="none" stroke-width="1" fill="none" fill-rule="evenodd">
        <g id="API-starter-图标入库" transform="translate(-492.000000, -204.000000)">
            <g id="方格备份-15" transform="translate(460.000000, 180.000000)">
                <text id="图标" font-family="PingFangSC-Regular, PingFang SC" font-size="12" font-weight="normal" line-spacing="16" fill="#71757F">
                    <tspan x="27.136" y="61">循环</tspan>
                </text>
            </g>
            <path d="M505.5,212 C505.776142,212 506,212.223858 506,212.5 C506,214.914273 504.098763,216.884489 501.711836,216.995102 L501.5,217 L495.206,217 L495.853553,217.646447 C496.02712,217.820013 496.046405,218.089437 495.911409,218.284306 L495.853553,218.353553 C495.679987,218.52712 495.410563,218.546405 495.215694,218.411409 L495.146447,218.353553 L493.646447,216.853553 L493.634589,216.841286 C493.622939,216.828819 493.61192,216.815754 493.601583,216.802144 L493.646447,216.853553 C493.619612,216.826719 493.596466,216.797594 493.577007,216.766807 C493.570019,216.755682 493.563293,216.744047 493.557034,216.732127 C493.54975,216.718276 493.543351,216.704539 493.537611,216.690595 C493.532408,216.678025 493.527558,216.664737 493.523268,216.651199 C493.518448,216.635835 493.514396,216.620474 493.511086,216.604987 C493.508892,216.594954 493.507007,216.584564 493.505448,216.574067 C493.502387,216.553237 493.500611,216.532401 493.500132,216.511541 C493.500042,216.507575 493.5,216.503792 493.5,216.5 L493.50011,216.489463 C493.50059,216.466575 493.502632,216.443713 493.506236,216.421052 L493.5,216.5 C493.5,216.463903 493.503825,216.428699 493.511092,216.394772 C493.514396,216.379526 493.518448,216.364165 493.523241,216.348988 C493.527558,216.335263 493.532408,216.321975 493.537792,216.308963 C493.543351,216.295461 493.54975,216.281724 493.556805,216.268242 C493.563293,216.255953 493.570019,216.244318 493.577188,216.23299 C493.580733,216.227298 493.584595,216.221464 493.588591,216.215694 L493.601583,216.197856 C493.61192,216.184246 493.622939,216.171181 493.634589,216.158714 L493.646447,216.146447 L495.146447,214.646447 C495.341709,214.451184 495.658291,214.451184 495.853553,214.646447 C496.02712,214.820013 496.046405,215.089437 495.911409,215.284306 L495.853553,215.353553 L495.206,216 L501.5,216 C503.432997,216 505,214.432997 505,212.5 C505,212.223858 505.223858,212 505.5,212 Z M504.146447,205.646447 C504.341709,205.451184 504.658291,205.451184 504.853553,205.646447 L504.853553,205.646447 L506.353553,207.146447 L506.365411,207.158714 C506.377061,207.171181 506.38808,207.184246 506.398417,207.197856 L506.411409,207.215694 C506.415405,207.221464 506.419267,207.227298 506.422993,207.233193 C506.429981,207.244318 506.436707,207.255953 506.442966,207.267873 C506.45025,207.281724 506.456649,207.295461 506.462389,207.309405 C506.467592,207.321975 506.472442,207.335263 506.476732,207.348801 C506.481552,207.364165 506.485604,207.379526 506.488914,207.395013 C506.491233,207.405629 506.493206,207.416616 506.494814,207.427722 C506.497343,207.445461 506.498938,207.462933 506.499619,207.480433 C506.499864,207.486395 506.5,207.493182 506.5,207.5 L506.499579,207.520569 C506.498877,207.537735 506.497295,207.554871 506.494833,207.571904 L506.5,207.5 C506.5,207.536097 506.496175,207.571301 506.488908,207.605228 C506.485604,207.620474 506.481552,207.635835 506.476759,207.651012 C506.472442,207.664737 506.467592,207.678025 506.462208,207.691037 C506.456649,207.704539 506.45025,207.718276 506.443195,207.731758 C506.436707,207.744047 506.429981,207.755682 506.422812,207.76701 C506.403534,207.797594 506.380388,207.826719 506.353553,207.853553 L506.398417,207.802144 C506.38808,207.815754 506.377061,207.828819 506.365411,207.841286 L506.353553,207.853553 L504.853553,209.353553 L504.784306,209.411409 C504.589437,209.546405 504.320013,209.52712 504.146447,209.353553 L504.146447,209.353553 L504.088591,209.284306 C503.953595,209.089437 503.97288,208.820013 504.146447,208.646447 L504.146447,208.646447 L504.792,208 L498.5,208 C496.567003,208 495,209.567003 495,211.5 C495,211.776142 494.776142,212 494.5,212 C494.223858,212 494,211.776142 494,211.5 C494,209.085727 495.901237,207.115511 498.288164,207.004898 L498.5,207 L504.792,207 L504.146447,206.353553 L504.088591,206.284306 C503.953595,206.089437 503.97288,205.820013 504.146447,205.646447 Z" id="形状结合" fill="#71757F" fill-rule="nonzero"></path>
        </g>
    </g>
</svg>