<?xml version="1.0" encoding="UTF-8"?>
<svg width="16px" height="16px" viewBox="0 0 16 16" version="1.1" xmlns="http://www.w3.org/2000/svg" xmlns:xlink="http://www.w3.org/1999/xlink">
    <title>function icon/management</title>
    <g id="图标入库记录" stroke="none" stroke-width="1" fill="none" fill-rule="evenodd">
        <g id="DevUI图标-入库记录230223" transform="translate(-1052.000000, -120.000000)" fill="#71757F" fill-rule="nonzero">
            <g id="ic_square_lined-(1)-5" transform="translate(1052.000000, 120.000000)">
                <path d="M1.93782217,10.056 C2.18328206,10.056 2.38743054,10.2328752 2.4297665,10.4661244 L2.43782217,10.556 L2.43782217,10.6339746 C2.43782217,10.951544 2.58841885,11.2476706 2.83918705,11.4350154 L2.93782217,11.5 L7.49991388,14.1339249 C7.77066674,14.2902441 8.09639787,14.3097695 8.3808834,14.1925058 L8.5,14.1338752 L11.0937791,12.6360122 C11.3329117,12.4979172 11.638715,12.5798244 11.77681,12.8189569 C11.8995611,13.0315192 11.8484833,13.2967597 11.6676668,13.4500663 L11.5938652,13.5019878 L9.00008611,14.9998508 C8.43282697,15.3274333 7.74486005,15.3547637 7.15745557,15.081831 L6.99991388,14.9999503 L2.43782217,12.3660254 C1.86662019,12.0362418 1.49787394,11.4482905 1.44452364,10.7977897 L1.43782217,10.6339746 L1.43782217,10.556 C1.43782217,10.2798576 1.6616798,10.056 1.93782217,10.056 Z M6.99829483,3.5 C7.61709698,3.14273441 8.37949268,3.14273441 8.99829483,3.5 L8.99829483,3.5 L11.3954091,4.8839746 C12.0142113,5.24124019 12.3954091,5.90149422 12.3954091,6.6160254 L12.3954091,6.6160254 L12.3954091,9.3839746 C12.3954091,10.0985058 12.0142113,10.7587598 11.3954091,11.1160254 L11.3954091,11.1160254 L8.99829483,12.5 C8.37949268,12.8572656 7.61709698,12.8572656 6.99829483,12.5 L6.99829483,12.5 L4.60118051,11.1160254 C3.98237836,10.7587598 3.60118051,10.0985058 3.60118051,9.3839746 L3.60118051,9.3839746 L3.60118051,6.6160254 C3.60118051,5.90149422 3.98237836,5.24124019 4.60118051,4.8839746 L4.60118051,4.8839746 Z M10.8828968,2.09700342 L10.9647643,2.13495388 L13.5619462,3.63397462 C14.1332687,3.96372595 14.5021103,4.55173707 14.5554746,5.2023224 L14.5621778,5.36615911 L14.5621778,10.6340659 C14.5621778,11.2935729 14.237429,11.906845 13.7008331,12.27831 L13.5623359,12.3660254 L13.4948617,12.4049899 C13.255728,12.5430829 12.9499253,12.4611732 12.8118323,12.2220395 C12.6890829,12.0094762 12.7401629,11.7442362 12.9209806,11.5909311 L12.9947826,11.5390101 L13.0622569,11.5000456 C13.3372405,11.3412503 13.5183636,11.062785 13.5552183,10.7519681 L13.5621778,10.6340659 L13.5621778,5.36615911 C13.5621778,5.04854724 13.4115412,4.75238704 13.1607183,4.56504756 L13.062062,4.50006686 L10.4648801,3.00104612 C10.2257153,2.86300691 10.1437368,2.55722267 10.281776,2.3180579 C10.4044776,2.10546699 10.6597184,2.01707267 10.8828968,2.09700342 Z M4.60118051,6.6160254 L4.60118051,9.3839746 C4.60118051,9.74124019 4.79177944,10.0713672 5.10118051,10.25 L5.10118051,10.25 L7.49829483,11.6339746 L7.49829483,11.6339746 L7.49782217,8.28811511 L4.60118051,6.6160254 Z M8.49782217,8.28811511 L8.49829483,11.6339746 L10.8954091,10.25 C11.2048102,10.0713672 11.3954091,9.74124019 11.3954091,9.3839746 L11.3954091,9.3839746 L11.3954091,6.6160254 L11.3954091,6.6160254 L8.49782217,8.28811511 Z M8.68005107,0.851275945 L8.84257555,0.918289769 L9.00011135,1.00019291 L9.06387786,1.03701945 C9.30300641,1.17512139 9.38490466,1.48092713 9.24680272,1.72005568 C9.12404544,1.9326144 8.86878146,2.02094176 8.64562403,1.94095248 L8.56376649,1.90298055 L8.49999999,1.86615401 C8.22925934,1.7097954 7.90352023,1.6902318 7.61901457,1.80746941 L7.49988863,1.8660897 L2.93782217,4.5 C2.66279899,4.65878471 2.48164418,4.93726855 2.44478291,5.24811259 L2.43782217,5.3660254 L2.43782217,8.362 C2.43782217,8.63814237 2.21396455,8.862 1.93782217,8.862 C1.69236228,8.862 1.4882138,8.68512484 1.44587784,8.45187563 L1.43782217,8.362 L1.43782217,5.3660254 C1.43782217,4.70645816 1.76262981,4.0931389 2.29930486,3.72168579 L2.43782217,3.6339746 L6.99988863,1.0000643 C7.5156234,0.702304689 8.13109671,0.652712134 8.68005107,0.851275945 Z M8.49829483,4.3660254 C8.18889375,4.18739261 7.80769591,4.18739261 7.49829483,4.3660254 L7.49829483,4.3660254 L5.10118051,5.75 L5.10118051,5.75 L7.99782217,7.42211511 L10.8954091,5.75 Z" id="形状结合"></path>
            </g>
        </g>
    </g>
</svg>