<?xml version="1.0" encoding="UTF-8"?>
<svg width="16px" height="16px" viewBox="0 0 16 16" version="1.1" xmlns="http://www.w3.org/2000/svg" xmlns:xlink="http://www.w3.org/1999/xlink">
    <title>function icon/mandatory</title>
    <g id="页面-1" stroke="none" stroke-width="1" fill="none" fill-rule="evenodd">
        <g id="API-starter-图标入库" transform="translate(-792.000000, -204.000000)">
            <g id="方格备份-19" transform="translate(760.000000, 180.000000)">
                <text id="图标" font-family="PingFangSC-Regular, PingFang SC" font-size="12" font-weight="normal" line-spacing="16" fill="#71757F">
                    <tspan x="27.136" y="61">必选</tspan>
                </text>
            </g>
            <path d="M800.5,206 C800.776142,206 801,206.223858 801,206.5 C801,206.74546 800.823125,206.949608 800.589876,206.991944 L800.5,207 L795.5,207 C795.25454,207 795.050392,207.176875 795.008056,207.410124 L795,207.5 L795,216.5 C795,216.74546 795.176875,216.949608 795.410124,216.991944 L795.5,217 L804.5,217 C804.74546,217 804.949608,216.823125 804.991944,216.589876 L805,216.5 L805,211.5 C805,211.223858 805.223858,211 805.5,211 C805.74546,211 805.949608,211.176875 805.991944,211.410124 L806,211.5 L806,216.5 C806,217.279696 805.405112,217.920449 804.64446,217.993133 L804.5,218 L795.5,218 C794.720304,218 794.079551,217.405112 794.006867,216.64446 L794,216.5 L794,207.5 C794,206.720304 794.594888,206.079551 795.35554,206.006867 L795.5,206 L800.5,206 Z M806.596194,207.232233 C806.76976,207.405799 806.789046,207.675224 806.65405,207.870092 L806.596194,207.93934 L800.93934,213.596194 C800.765773,213.76976 800.496349,213.789046 800.301481,213.65405 L800.232233,213.596194 L797.403806,210.767767 C797.208544,210.572505 797.208544,210.255922 797.403806,210.06066 C797.577372,209.887094 797.846797,209.867809 798.041665,210.002805 L798.110913,210.06066 L800.586,212.536 L805.889087,207.232233 C806.084349,207.036971 806.400932,207.036971 806.596194,207.232233 Z" id="形状结合" fill="#71757F"></path>
        </g>
    </g>
</svg>