<?xml version="1.0" encoding="UTF-8"?>
<svg width="16px" height="16px" viewBox="0 0 16 16" version="1.1" xmlns="http://www.w3.org/2000/svg" xmlns:xlink="http://www.w3.org/1999/xlink">
    <title>manually</title>
    <g id="manually" stroke="none" stroke-width="1" fill="none" fill-rule="evenodd">
        <path d="M3.839606,3.35557387 C4.68197705,2.85115409 5.77371144,3.12408768 6.279606,3.96557387 L6.279606,3.96557387 L7.599606,6.09557387 L10.449606,4.32557387 C10.8700593,4.06335186 11.3792545,3.98390297 11.859606,4.10557387 C12.3706477,4.22904246 12.812521,4.54877193 13.089606,4.99557387 L13.089606,4.99557387 L14.229606,6.82557387 C14.9276525,7.93153626 15.1645857,9.26697779 14.889606,10.5455739 C14.4587999,12.7147707 12.5511508,14.274431 10.339606,14.2656114 C9.93496596,14.2650096 9.53193446,14.2146307 9.139606,14.1155739 L9.139606,14.1155739 L4.739606,12.9855739 C3.79389308,12.7306944 3.20788471,11.7860838 3.399606,10.8255739 C3.50105224,10.3683305 3.7845754,9.97223054 4.18468585,9.72876711 C4.5847963,9.48530367 5.06688838,9.41553401 5.519606,9.53557387 L5.519606,9.53557387 L5.609606,9.53557387 L3.299606,5.81557387 C3.04866172,5.41330203 2.96268594,4.92968825 3.059606,4.46557387 C3.15430889,4.00336611 3.43683895,3.60130411 3.839606,3.35557387 Z M4.92045287,4.08816806 C4.72109713,4.03362734 4.50818462,4.06152063 4.329606,4.16557387 C4.15744618,4.26783045 4.03732004,4.43891919 3.999606,4.63557387 C3.94496583,4.86016922 3.98088642,5.09724513 4.099606,5.29557387 L4.099606,5.29557387 L7.099606,10.0755739 C7.21394426,10.2447317 7.21394426,10.466416 7.099606,10.6355739 C6.96704679,10.7774084 6.76545759,10.8316824 6.579606,10.7755739 L6.579606,10.7755739 L5.279606,10.4355739 L5.089606,10.4355739 C4.95691951,10.4391355 4.82685827,10.4733622 4.709606,10.5355739 C4.5447685,10.6480613 4.43004149,10.8201518 4.389606,11.0155739 C4.28865582,11.4590849 4.55906224,11.9023741 4.999606,12.0155739 L4.999606,12.0155739 L9.379606,13.1455739 C10.3550927,13.4117675 11.3973489,13.2601991 12.2566129,12.7271899 C13.1158768,12.1941807 13.7147083,11.3277675 13.909606,10.3355739 C14.138969,9.31507367 13.9594817,8.24532932 13.409606,7.35557387 L13.409606,7.35557387 L12.269606,5.51557387 C12.1312778,5.29511537 11.9124497,5.13727216 11.659606,5.07557387 C11.4349641,5.022016 11.1982998,5.05787422 10.999606,5.17557387 L10.999606,5.17557387 L7.829606,7.12557387 C7.6871941,7.2165398 7.51382243,7.24543508 7.349606,7.20557387 C7.17913695,7.16880359 7.03105474,7.06406251 6.939606,6.91557387 L6.939606,6.91557387 L5.389606,4.45557387 C5.2888686,4.27510399 5.11980861,4.14270879 4.92045287,4.08816806 Z M2.759606,1.54557387 C3.5995611,1.03065131 4.61019545,0.871990654 5.5675307,1.10475452 C6.52486596,1.33751839 7.34983467,1.94248253 7.859606,2.78557387 L7.859606,2.78557387 L7.919606,2.88557387 C8.05709097,3.12627143 7.97715046,3.43271006 7.739606,3.57557387 C7.50191942,3.71211492 7.19861161,3.63182756 7.059606,3.39557387 L7.059606,3.39557387 L6.999606,3.30557387 C6.63491803,2.69458881 6.04064289,2.25518538 5.349606,2.08557387 C4.65209452,1.91531122 3.91558732,2.02668548 3.299606,2.39557387 C2.6980001,2.7732838 2.27021511,3.37362071 2.109606,4.06557387 C1.93823949,4.76303558 2.04967782,5.49996647 2.419606,6.11557387 C2.49011667,6.22823 2.51287485,6.36432301 2.48285336,6.49379065 C2.45283188,6.62325828 2.37250122,6.73544664 2.259606,6.80557387 C2.18139284,6.8532352 2.09117618,6.8775243 1.999606,6.87557387 C1.81399467,6.88537464 1.63774914,6.79342045 1.539606,6.63557387 C0.481985068,4.89137544 1.02620821,2.62080513 2.759606,1.54557387 Z" id="形状结合" fill="#252B3A" fill-rule="nonzero"></path>
    </g>
</svg>