<?xml version="1.0" encoding="UTF-8"?>
<svg width="16px" height="16px" viewBox="0 0 16 16" version="1.1" xmlns="http://www.w3.org/2000/svg" xmlns:xlink="http://www.w3.org/1999/xlink">
    <title>icon/store</title>
    <g id="icon/store" stroke="none" stroke-width="1" fill="none" fill-rule="evenodd">
        <path d="M12.0013333,2 C13.1049465,2 14,2.89532846 14,3.99933333 L14,3.99933333 L14,12.0006667 C14,13.1046715 13.1049465,14 12.0013333,14 L12.0013333,14 L3.99866667,14 C2.89505348,14 2,13.1046715 2,12.0006667 L2,12.0006667 L2,3.99933333 C2,2.89532846 2.89505348,2 3.99866667,2 L3.99866667,2 L12.0013333,2 Z M12.0013333,3 L3.99866667,3 C3.44740701,3 3,3.44754445 3,3.99933333 L3,3.99933333 L3,12.0006667 C3,12.5524555 3.44740701,13 3.99866667,13 L3.99866667,13 L12.0013333,13 C12.552593,13 13,12.5524555 13,12.0006667 L13,12.0006667 L13,3.99933333 C13,3.44754445 12.552593,3 12.0013333,3 L12.0013333,3 Z M10.6666667,4.83333333 C10.9428091,4.83333333 11.1666667,5.05719096 11.1666667,5.33333333 C11.1666667,7.0821424 9.74880907,8.5 8,8.5 C6.25119096,8.5 4.83333333,7.0821424 4.83333333,5.33333333 C4.83333333,5.05719096 5.05719096,4.83333333 5.33333333,4.83333333 C5.60947571,4.83333333 5.83333333,5.05719096 5.83333333,5.33333333 C5.83333333,6.52985763 6.80347573,7.5 8,7.5 C9.19652427,7.5 10.1666667,6.52985763 10.1666667,5.33333333 C10.1666667,5.05719096 10.3905243,4.83333333 10.6666667,4.83333333 Z" id="形状结合" fill="#71757F" fill-rule="nonzero"></path>
    </g>
</svg>