<?xml version="1.0" encoding="UTF-8"?>
<svg width="16px" height="16px" viewBox="0 0 16 16" version="1.1" xmlns="http://www.w3.org/2000/svg" xmlns:xlink="http://www.w3.org/1999/xlink">
    <title>function icon/marketing</title>
    <g id="图标入库记录" stroke="none" stroke-width="1" fill="none" fill-rule="evenodd">
        <g id="语言-图标入库记录230112" transform="translate(-892.000000, -120.000000)" fill="#71757F" fill-rule="nonzero">
            <g id="编组" transform="translate(892.000000, 120.000000)">
                <path d="M2,10 C2,10.5128358 2.38604019,10.9355072 2.88337887,10.9932723 L3,11 L7,11 C7.77969612,11 8.42044868,11.5948881 8.49313342,12.35554 L8.5,12.5 L8.5,13 L11.5,13 C11.7761424,13 12,13.2238576 12,13.5 C12,13.7761424 11.7761424,14 11.5,14 L4.5,14 C4.22385763,14 4,13.7761424 4,13.5 C4,13.2238576 4.22385763,13 4.5,13 L7.5,13 L7.5,12.5 C7.5,12.2545401 7.32312484,12.0503916 7.08987563,12.0080557 L7,12 L3,12 C1.9456382,12 1.08183488,11.1841222 1.00548574,10.1492623 L1,10 L1,4 C1,2.9456382 1.81587779,2.08183488 2.85073766,2.00548574 L3,2 L13,2 C14.0543618,2 14.9181651,2.81587779 14.9945143,3.85073766 L15,4 L15,10 C15,11.0543618 14.1841222,11.9181651 13.1492623,11.9945143 L13,12 L9.5,12 C9.22385763,12 9,11.7761424 9,11.5 C9,11.2545401 9.17687516,11.0503916 9.41012437,11.0080557 L9.5,11 L13,11 C13.5128358,11 13.9355072,10.6139598 13.9932723,10.1166211 L14,10 L14,4 C14,3.48716416 13.6139598,3.06449284 13.1166211,3.00672773 L13,3 L3,3 C2.48716416,3 2.06449284,3.38604019 2.00672773,3.88337887 L2,4 L2,6.999 L5.5,6.99999138 C5.65782169,6.99999138 5.80435556,7.07430638 5.89783013,7.19710296 L5.9472136,7.2763932 L6.449,8.28 L8.03576165,4.31430466 C8.19639223,3.91272823 8.74099212,3.89971085 8.93590352,4.25369296 L8.97434165,4.34188612 L9.86,6.99999138 L12.5,6.99999138 C12.7454599,6.99999138 12.9496084,7.17687516 12.9919443,7.41012437 L13,7.49999138 C13,7.74545989 12.8231248,7.94960837 12.5898756,7.99194433 L12.5,7.99999138 L9.5,7.99999138 C9.31552983,7.99999138 9.14879941,7.8988216 9.06206878,7.74133928 L9.02565835,7.65811388 L8.457,5.953 L6.96423835,9.68569534 C6.81633649,10.05545 6.32926005,10.1036791 6.10344873,9.80540784 L6.0527864,9.7236068 L5.19,7.99999138 L2,7.999 L2,10 Z" id="形状结合"></path>
            </g>
        </g>
    </g>
</svg>