<?xml version="1.0" encoding="UTF-8"?>
<svg width="16px" height="16px" viewBox="0 0 16 16" version="1.1" xmlns="http://www.w3.org/2000/svg" xmlns:xlink="http://www.w3.org/1999/xlink">
    <title>function icon/meeting</title>
    <g id="图标入库记录" stroke="none" stroke-width="1" fill="none" fill-rule="evenodd">
        <g id="DevUI图标入库-2023.06" transform="translate(-232.000000, -120.000000)" fill="#71757F" fill-rule="nonzero">
            <g id="编组-49" transform="translate(232.000000, 120.000000)">
                <path d="M10,2 C11.1045695,2 12,2.8954305 12,4 L12,4 L12,4.565 L12.6679497,4.12044165 C13.3166961,3.68794406 14.179819,3.82749529 14.6622301,4.4200777 L14.6622301,4.4200777 L14.7480754,4.5364668 C14.912343,4.78286807 15,5.07237961 15,5.36851709 L15,5.36851709 L15,10.6314829 C15,11.45991 14.3284271,12.1314829 13.5,12.1314829 C13.2038625,12.1314829 12.914351,12.0438259 12.6679497,11.8795583 L12.6679497,11.8795583 L12,11.434 L12,12 C12,13.0543618 11.1841222,13.9181651 10.1492623,13.9945143 L10.1492623,13.9945143 L10,14 L3,14 C1.8954305,14 1,13.1045695 1,12 L1,12 L1,4 C1,2.8954305 1.8954305,2 3,2 L3,2 Z M10,3 L3,3 C2.44771525,3 2,3.44771525 2,4 L2,4 L2,12 C2,12.5522847 2.44771525,13 3,13 L3,13 L10,13 C10.5522847,13 11,12.5522847 11,12 L11,12 L11,10.5 C11,10.1006523 11.4450727,9.86245661 11.7773501,10.0839749 L11.7773501,10.0839749 L13.2226499,11.0475081 C13.3047837,11.1022639 13.4012875,11.1314829 13.5,11.1314829 C13.7761424,11.1314829 14,10.9076253 14,10.6314829 L14,10.6314829 L14,5.36851709 C14,5.2698046 13.970781,5.17330075 13.9160251,5.09116699 C13.7628489,4.86140265 13.4524142,4.79931572 13.2226499,4.95249194 L13.2226499,4.95249194 L11.7773501,5.91602515 C11.4450727,6.13754339 11,5.89934769 11,5.5 L11,5.5 L11,4 C11,3.44771525 10.5522847,3 10,3 L10,3 Z M6,5.40212382 C6.18741972,5.40212382 6.37106734,5.45479327 6.52999894,5.55412552 L6.52999894,5.55412552 L9.08660083,7.1520017 C9.55493736,7.44471203 9.69731052,8.06166241 9.40460019,8.52999894 C9.32411948,8.65876807 9.21536996,8.7675176 9.08660083,8.8479983 L9.08660083,8.8479983 L6.52999894,10.4458745 C6.06166241,10.7385848 5.44471203,10.5962117 5.1520017,10.1278751 C5.05266944,9.96894352 5,9.7852959 5,9.59787618 L5,9.59787618 L5,6.40212382 C5,5.84983907 5.44771525,5.40212382 6,5.40212382 Z M6,6.40212382 L6,9.59787618 L8.555,7.999 L6,6.40212382 Z" id="形状结合"></path>
            </g>
        </g>
    </g>
</svg>