<?xml version="1.0" encoding="UTF-8"?>
<svg width="16px" height="16px" viewBox="0 0 16 16" version="1.1" xmlns="http://www.w3.org/2000/svg" xmlns:xlink="http://www.w3.org/1999/xlink">
    <title>function icon/member</title>
    <g id="页面-1" stroke="none" stroke-width="1" fill="none" fill-rule="evenodd">
        <g id="API-starter-图标入库" transform="translate(-92.000000, -124.000000)">
            <g id="方格备份-13" transform="translate(60.000000, 100.000000)">
                <text id="图标" font-family="PingFangSC-Regular, PingFang SC" font-size="12" font-weight="normal" line-spacing="16" fill="#71757F">
                    <tspan x="27.136" y="61">成员</tspan>
                </text>
            </g>
            <path d="M100,125.5 C101.932997,125.5 103.5,127.067003 103.5,129 C103.5,130.164587 102.931211,131.196326 102.056277,131.832572 C104.63857,132.692642 106.5,135.128941 106.5,138 C106.5,138.276142 106.276142,138.5 106,138.5 C105.723858,138.5 105.5,138.276142 105.5,138 C105.5,134.962434 103.037566,132.5 100,132.5 C96.9624339,132.5 94.5,134.962434 94.5,138 C94.5,138.276142 94.2761424,138.5 94,138.5 C93.7238576,138.5 93.5,138.276142 93.5,138 C93.5,135.128941 95.3614301,132.692642 97.9432809,131.832113 C97.0687895,131.196326 96.5,130.164587 96.5,129 C96.5,127.067003 98.0670034,125.5 100,125.5 Z M100,126.5 C98.6192881,126.5 97.5,127.619288 97.5,129 C97.5,130.380712 98.6192881,131.5 100,131.5 C101.380712,131.5 102.5,130.380712 102.5,129 C102.5,127.619288 101.380712,126.5 100,126.5 Z" id="形状结合" fill="#71757F" fill-rule="nonzero"></path>
        </g>
    </g>
</svg>