<svg width="16px" height="16px" viewBox="0 0 16 16" version="1.1" xmlns="http://www.w3.org/2000/svg" xmlns:xlink="http://www.w3.org/1999/xlink">
    <title>mine</title>
    <g id="mine" stroke="none" stroke-width="1" fill="none" fill-rule="evenodd">
        <g id="编组">
            <path d="M10.5,9 C12.9852814,9 15,11.0147186 15,13.5 L15,13.5 L15,14.5 C15,14.7761424 14.7761424,15 14.5,15 L14.5,15 L1.5,15 C1.22385763,15 1,14.7761424 1,14.5 L1,14.5 L1,13.5 C1,11.0147186 3.01471863,9 5.5,9 L5.5,9 Z M10.5,10 L5.5,10 C3.56700338,10 2,11.5670034 2,13.5 L2,13.5 L2,14 L14,14 L14,13.5 C14,11.6314366 12.5357224,10.1048736 10.6920352,10.0051789 L10.6920352,10.0051789 L10.5,10 Z M8,1 C9.93299662,1 11.5,2.56700338 11.5,4.5 C11.5,6.43299662 9.93299662,8 8,8 C6.06700338,8 4.5,6.43299662 4.5,4.5 C4.5,2.56700338 6.06700338,1 8,1 Z M8,2 C6.61928813,2 5.5,3.11928813 5.5,4.5 C5.5,5.88071187 6.61928813,7 8,7 C9.38071187,7 10.5,5.88071187 10.5,4.5 C10.5,3.11928813 9.38071187,2 8,2 Z" id="形状结合" fill="#71757F" fill-rule="nonzero"></path>
        </g>
    </g>
</svg>