<?xml version="1.0" encoding="UTF-8"?>
<svg width="16px" height="16px" viewBox="0 0 16 16" version="1.1" xmlns="http://www.w3.org/2000/svg" xmlns:xlink="http://www.w3.org/1999/xlink">
    <title>分享</title>
    <g id="分享" stroke="none" stroke-width="1" fill="none" fill-rule="evenodd">
        <path d="M11,1 C11.2761424,1 11.5,1.22385763 11.5,1.5 C11.5,1.74545989 11.3231248,1.94960837 11.0898756,1.99194433 L11,2 L5,2 C4.48716416,2 4.06449284,2.38604019 4.00672773,2.88337887 L4,3 L4,13 C4,13.5128358 4.38604019,13.9355072 4.88337887,13.9932723 L5,14 L11,14 C11.5128358,14 11.9355072,13.6139598 11.9932723,13.1166211 L12,13 L12,12 L12.0080557,11.9101244 C12.0503916,11.6768752 12.2545401,11.5 12.5,11.5 C12.7454599,11.5 12.9496084,11.6768752 12.9919443,11.9101244 L13,12 L13,13 C13,14.1045695 12.1045695,15 11,15 L5,15 C3.8954305,15 3,14.1045695 3,13 L3,3 C3,1.8954305 3.8954305,1 5,1 L11,1 Z M10.5,12 C10.7761424,12 11,12.2238576 11,12.5 C11,12.7761424 10.7761424,13 10.5,13 L5.5,13 C5.22385763,13 5,12.7761424 5,12.5 C5,12.2238576 5.22385763,12 5.5,12 L10.5,12 Z M12.2082109,3.22558487 L15.3135442,6.33025154 C15.4582109,6.4749182 15.5382109,6.66825154 15.5382109,6.87358487 C15.5382109,7.0789182 15.4582109,7.27225154 15.3128776,7.4169182 L12.2075442,10.5222515 C12.0615442,10.6689182 11.8655442,10.7475849 11.6655442,10.7475849 C11.5662109,10.7475849 11.4668776,10.7282515 11.3715442,10.6895849 C11.0828776,10.5702515 10.8968776,10.2909182 10.8968776,9.9789182 L10.8955062,8.68612279 C8.52814991,8.66379435 6.89190627,9.40694457 5.92521442,10.9043692 C5.77544333,11.1363676 5.46595806,11.2030259 5.23395971,11.0532548 C5.19945739,11.0309812 5.1686119,11.0051751 5.14159129,10.9766169 C5.139314,10.9719306 5.1360343,10.9684758 5.13280483,10.9649759 C5.11741147,10.9498107 5.1044261,10.9331885 5.09259651,10.9159113 C5.08556046,10.905588 5.07862497,10.8950509 5.07209014,10.8842584 C5.06589554,10.8726123 5.05983271,10.8611075 5.05423527,10.8494061 C5.01165305,10.7677694 4.99242425,10.6727582 5.00274425,10.5741182 C5.00856487,10.5204391 5.61480808,5.35658037 10.8951273,5.04786804 L10.8968776,3.76825154 C10.8968776,3.45625154 11.0828776,3.17758487 11.3708776,3.05825154 C11.6602109,2.93958487 11.9875442,3.00558487 12.2082109,3.22558487 Z M11.8968776,4.32825154 L11.8968776,5.53358487 C11.8968776,5.7789182 11.7198899,5.98316512 11.4867157,6.02552451 L11.3967442,6.03345154 C8.59182573,6.03345154 7.23215627,7.52076281 6.58029929,8.81323277 C7.80048101,7.97478973 9.41325776,7.60526511 11.3957833,7.70042634 C11.4772403,7.70433628 11.5532066,7.72752885 11.6194798,7.76537815 C11.7836962,7.84748304 11.8968776,8.01739684 11.8968776,8.21358487 L11.8968776,9.4189182 L14.4422109,6.87358487 L11.8968776,4.32825154 Z M8.5,3 C8.77614237,3 9,3.22385763 9,3.5 C9,3.77614237 8.77614237,4 8.5,4 L7.5,4 C7.22385763,4 7,3.77614237 7,3.5 C7,3.22385763 7.22385763,3 7.5,3 L8.5,3 Z" id="形状结合" fill="#71757F" fill-rule="nonzero"></path>
    </g>
</svg>