<?xml version="1.0" encoding="UTF-8"?>
<svg width="16px" height="16px" viewBox="0 0 16 16" version="1.1" xmlns="http://www.w3.org/2000/svg" xmlns:xlink="http://www.w3.org/1999/xlink">
    <title>mobile</title>
    <g id="mobile" stroke="none" stroke-width="1" fill="none" fill-rule="evenodd">
        <path d="M11,1 C12.1045695,1 13,1.8954305 13,3 L13,13 C13,14.1045695 12.1045695,15 11,15 L5,15 C3.8954305,15 3,14.1045695 3,13 L3,3 C3,1.8954305 3.8954305,1 5,1 L11,1 Z M11,2 L5,2 C4.48716416,2 4.06449284,2.38604019 4.00672773,2.88337887 L4,3 L4,13 C4,13.5128358 4.38604019,13.9355072 4.88337887,13.9932723 L5,14 L11,14 C11.5128358,14 11.9355072,13.6139598 11.9932723,13.1166211 L12,13 L12,3 C12,2.48716416 11.6139598,2.06449284 11.1166211,2.00672773 L11,2 Z M10.5,11 C10.7761424,11 11,11.2238576 11,11.5 C11,11.7761424 10.7761424,12 10.5,12 L5.5,12 C5.22385763,12 5,11.7761424 5,11.5 C5,11.2238576 5.22385763,11 5.5,11 L10.5,11 Z M8.5,3 C8.77614237,3 9,3.22385763 9,3.5 C9,3.77614237 8.77614237,4 8.5,4 L7.5,4 C7.22385763,4 7,3.77614237 7,3.5 C7,3.22385763 7.22385763,3 7.5,3 L8.5,3 Z" id="形状结合" fill="#71757F"></path>
    </g>
</svg>