<?xml version="1.0" encoding="UTF-8"?>
<svg width="16px" height="16px" viewBox="0 0 16 16" version="1.1" xmlns="http://www.w3.org/2000/svg" xmlns:xlink="http://www.w3.org/1999/xlink">
    <title>icon/横版更多</title>
    <g id="icon/横版更多" stroke="none" stroke-width="1" fill="none" fill-rule="evenodd">
        <path d="M1.5,6.5 C2.32842712,6.5 3,7.17157288 3,8 C3,8.82842712 2.32842712,9.5 1.5,9.5 C0.671572875,9.5 0,8.82842712 0,8 C0,7.17157288 0.671572875,6.5 1.5,6.5 Z M8,6.5 C8.82842712,6.5 9.5,7.17157288 9.5,8 C9.5,8.82842712 8.82842712,9.5 8,9.5 C7.17157288,9.5 6.5,8.82842712 6.5,8 C6.5,7.17157288 7.17157288,6.5 8,6.5 Z M14.5,6.5 C15.3284271,6.5 16,7.17157288 16,8 C16,8.82842712 15.3284271,9.5 14.5,9.5 C13.6715729,9.5 13,8.82842712 13,8 C13,7.17157288 13.6715729,6.5 14.5,6.5 Z" id="形状" fill="#71757F"></path>
    </g>
</svg>