<?xml version="1.0" encoding="UTF-8"?>
<svg width="16px" height="16px" viewBox="0 0 16 16" version="1.1" xmlns="http://www.w3.org/2000/svg" xmlns:xlink="http://www.w3.org/1999/xlink">
    <title>more</title>
    <g id="more" stroke="none" stroke-width="1" fill="none" fill-rule="evenodd">
        <path d="M8.00473277,1.34829903 C9.4827555,1.34829903 10.8886152,1.83109127 12.040259,2.70779312 C12.2599796,2.87505786 12.3025034,3.18877141 12.1352387,3.40849196 C11.967974,3.62821251 11.6542604,3.67073634 11.4345398,3.5034716 C10.4555077,2.75817237 9.2619831,2.34829903 8.00473277,2.34829903 C4.87530319,2.34829903 2.3380661,4.88534667 2.3380661,8.01496569 C2.3380661,11.1441566 4.87554181,13.6816324 8.00473277,13.6816324 C11.1343518,13.6816324 13.6713994,11.1443953 13.6713994,8.01496569 C13.6713994,6.75803729 13.2619666,5.56519012 12.5167996,4.58570195 C12.349603,4.36592955 12.3922241,4.05222919 12.6119965,3.88503258 C12.8317689,3.71783597 13.1454692,3.76045705 13.3126659,3.98022944 C14.1891178,5.13228593 14.6713994,6.53737145 14.6713994,8.01496569 C14.6713994,11.6966633 11.6866532,14.6816324 8.00473277,14.6816324 C4.32325706,14.6816324 1.3380661,11.6964414 1.3380661,8.01496569 C1.3380661,4.3330452 4.32303516,1.34829903 8.00473277,1.34829903 Z M5,7 C5.55228475,7 6,7.44771525 6,8 C6,8.55228475 5.55228475,9 5,9 C4.44771525,9 4,8.55228475 4,8 C4,7.44771525 4.44771525,7 5,7 Z M8,7 C8.55228475,7 9,7.44771525 9,8 C9,8.55228475 8.55228475,9 8,9 C7.44771525,9 7,8.55228475 7,8 C7,7.44771525 7.44771525,7 8,7 Z M11,7 C11.5522847,7 12,7.44771525 12,8 C12,8.55228475 11.5522847,9 11,9 C10.4477153,9 10,8.55228475 10,8 C10,7.44771525 10.4477153,7 11,7 Z" id="形状结合" fill="#71757F"></path>
    </g>
</svg>