<?xml version="1.0" encoding="UTF-8"?>
<svg width="16px" height="16px" viewBox="0 0 16 16" version="1.1" xmlns="http://www.w3.org/2000/svg" xmlns:xlink="http://www.w3.org/1999/xlink">
    <title>function icon/mortarboard</title>
    <g id="图标入库记录" stroke="none" stroke-width="1" fill="none" fill-rule="evenodd">
        <g id="DevUI图标入库-2023.08" transform="translate(-472.000000, -120.000000)" fill="#71757F" fill-rule="nonzero">
            <g id="编组-11" transform="translate(472.000000, 120.000000)">
                <path d="M15.5,9 C15.5,9.27614237 15.2761424,9.5 15,9.5 C14.7545401,9.5 14.5503916,9.32312484 14.5080557,9.08987563 L14.5,9 L14.5,5.708 L13,6.244 L13,12 C13,12.1671766 12.9164494,12.3232923 12.7773501,12.4160251 C9.88441965,14.3446454 6.11558035,14.3446454 3.2226499,12.4160251 C3.11137043,12.3418388 3.03564218,12.2270875 3.00980205,12.0985601 L3,12 L3,6.245 L0.831831802,5.47087096 C0.420992428,5.32414261 0.391646759,4.77414536 0.743794793,4.56980717 L0.831831802,4.52912904 L7.8318318,2.02912904 C7.94058023,1.99029032 8.05941977,1.99029032 8.1681682,2.02912904 L8.1681682,2.02912904 L15.1681682,4.52912904 C15.1688864,4.52938556 15.1696035,4.52964331 15.1703195,4.52990229 C15.1848403,4.53502921 15.1987556,4.54081607 15.2123371,4.54719599 C15.4039428,4.63532956 15.4996497,4.81707924 15.499999,4.99900035 L15.5,9 Z M12,6.601 L8.1681682,7.97087096 C8.05941977,8.00970968 7.94058023,8.00970968 7.8318318,7.97087096 L7.8318318,7.97087096 L4,6.602 L4,11.726 L4.02716962,11.743623 C6.38040577,13.184004 9.32450372,13.2336723 11.718489,11.8926279 L12,11.725 L12,6.601 Z M8,3.03 L2.485,5 L8,6.969 L13.514,5 L8,3.03 Z" id="形状结合"></path>
            </g>
        </g>
    </g>
</svg>