<?xml version="1.0" encoding="UTF-8"?>
<svg width="16px" height="16px" viewBox="0 0 16 16" version="1.1" xmlns="http://www.w3.org/2000/svg" xmlns:xlink="http://www.w3.org/1999/xlink">
    <title>move-down</title>
    <g id="move-down" stroke="none" stroke-width="1" fill="none" fill-rule="evenodd">
        <path d="M7.7156945,13.9135689 L7.6844296,13.8878545 C7.68001602,13.8842591 7.67566497,13.8805899 7.67137833,13.8768487 C7.66236482,13.8711186 7.6543074,13.8635742 7.64644661,13.8557134 L2.69669914,8.90596596 C2.501437,8.71070381 2.501437,8.39412132 2.69669914,8.19885918 C2.89196129,8.00359703 3.20854378,8.00359703 3.40380592,8.19885918 L7.49925253,12.296 L7.5,2.5 C7.5,2.22385763 7.72385763,2 8,2 C8.27614237,2 8.5,2.22385763 8.5,2.5 L8.49925253,12.294 L12.5961941,8.19885918 C12.7914562,8.00359703 13.1080387,8.00359703 13.3033009,8.19885918 C13.498563,8.39412132 13.498563,8.71070381 13.3033009,8.90596596 L8.35355339,13.8557134 L8.35355339,13.8557134 C8.30185847,13.9074083 8.24166015,13.9454172 8.1774609,13.9697401 C8.17522055,13.9684393 8.17388524,13.9689368 8.17254723,13.9694288 C8.02611034,14.0270815 7.85252321,14.0083578 7.7156945,13.9135689 Z" fill="#71757F"></path>
    </g>
</svg>