<?xml version="1.0" encoding="UTF-8"?>
<svg width="16px" height="16px" viewBox="0 0 16 16" version="1.1" xmlns="http://www.w3.org/2000/svg" xmlns:xlink="http://www.w3.org/1999/xlink">
    <title>move-up</title>
    <g id="move-up" stroke="none" stroke-width="1" fill="none" fill-rule="evenodd">
        <path d="M8.1774609,2.03025993 C8.24166015,2.05458277 8.30185847,2.09259166 8.35355339,2.14428657 C8.35596403,2.14669722 8.35834492,2.14912635 8.36069604,2.15157352 L8.36069604,2.15157352 L13.3033009,7.09403404 C13.498563,7.28929619 13.498563,7.60587868 13.3033009,7.80114082 C13.1080387,7.99640297 12.7914562,7.99640297 12.5961941,7.80114082 L12.5961941,7.80114082 L8.49925253,3.70590101 L8.5,13.5 C8.5,13.7454599 8.32312484,13.9496084 8.08987563,13.9919443 L8,14 C7.72385763,14 7.5,13.7761424 7.5,13.5 L7.5,13.5 L7.49925253,3.70390101 L3.40380592,7.80114082 C3.23023957,7.97470717 2.96081517,7.99399232 2.76594703,7.85899627 L2.69669914,7.80114082 C2.501437,7.60587868 2.501437,7.28929619 2.69669914,7.09403404 L2.69669914,7.09403404 L7.64644661,2.14428657 C7.6543074,2.13642578 7.66236482,2.12888144 7.67060303,2.12165356 C7.67566497,2.11941012 7.68001602,2.1157409 7.6844296,2.11214551 C7.82346577,1.99606417 8.01092504,1.96877433 8.17346412,2.02876526 L8.17254723,2.0305712 Z" fill="#71757F"></path>
    </g>
</svg>