<?xml version="1.0" encoding="UTF-8"?>
<svg width="16px" height="16px" viewBox="0 0 16 16" version="1.1" xmlns="http://www.w3.org/2000/svg" xmlns:xlink="http://www.w3.org/1999/xlink">
    <title>move</title>
    <g id="move" stroke="none" stroke-width="1" fill="none" fill-rule="evenodd">
        <path d="M14.9012357,7.70319851 L14.893,7.694 L14.9133704,7.72157985 L14.9133704,7.72157985 C14.9597599,7.7888814 14.9893353,7.86809814 14.9973918,7.95357632 L14.994989,7.95654348 C14.9988657,7.9692138 14.9996194,7.98506084 14.9996194,8.00108392 C14.9996194,8.16019453 14.9252997,8.30194683 14.8094809,8.39352021 L12.7289459,10.4730286 C12.5336838,10.6682907 12.2171013,10.6682907 12.0218392,10.4730286 C11.826577,10.2777664 11.826577,9.96118395 12.0218392,9.7659218 L13.2866194,8.50083451 L8.498,8.5 L8.49840426,13.2926194 L9.76885087,12.0218391 C9.96411301,11.826577 10.2806955,11.826577 10.4759577,12.0218391 C10.6712198,12.2171013 10.6712198,12.5336838 10.4759577,12.7289459 L8.3546373,14.8502663 L8.308,14.891 L8.27765892,14.9133704 L8.27765892,14.9133704 C8.21035737,14.9597599 8.13114062,14.9893352 8.04566245,14.9973918 L8.04269528,14.994989 C8.03002496,14.9988657 8.01417792,14.9996194 7.99815485,14.9996194 C7.83904424,14.9996194 7.69729193,14.9252997 7.60571855,14.8094809 L5.52621018,12.7289459 C5.33094803,12.5336838 5.33094803,12.2171013 5.52621018,12.0218391 C5.72147233,11.826577 6.03805482,11.826577 6.23331696,12.0218391 L7.49840426,13.2866194 L7.498,8.5 L2.70761938,8.50083451 L3.97449311,9.76885087 C4.14805947,9.94241722 4.16734462,10.2118416 4.03234857,10.4067098 L3.97449311,10.4759577 C3.80092676,10.649524 3.53150236,10.6688092 3.33663422,10.5338131 L3.26738633,10.4759577 L1.14606599,8.35463731 C1.14197838,8.3505497 1.13797633,8.34640892 1.13405986,8.3422172 C1.12255858,8.3299026 1.11153963,8.31683815 1.10120211,8.30322784 C1.09239392,8.29169307 1.08422873,8.27991856 1.07662643,8.26789044 L1.05665372,8.23321116 L1.05665372,8.23321116 C1.04933237,8.21928963 1.04290446,8.20548018 1.0371406,8.19146189 C1.03225367,8.17965478 1.02758533,8.16693507 1.02343057,8.15398535 C1.01832808,8.13788682 1.01415606,8.12217447 1.01076031,8.1063291 L1.00466371,8.07237843 L1.00466371,8.07237843 C1.0023032,8.05572424 1.0007377,8.03870327 1,8.0216534 L1,7.98151741 L1.00170737,7.95529774 L1.00170737,7.95529774 L1.00244034,7.94765632 L1.001,7.977 L1.004,7.937 L1.01071161,7.89585626 L1.01071161,7.89585626 C1.01396339,7.88085352 1.01793999,7.86573296 1.02263486,7.85078932 L1.03869588,7.80697277 L1.03869588,7.80697277 L1.05469897,7.7726534 L1.05469897,7.7726534 C1.06148588,7.75951026 1.06893777,7.74649531 1.07694028,7.73386371 L1.108,7.689 L1.115,7.681 C1.12198737,7.67329183 1.12647956,7.6681912 1.13107244,7.66318443 L1.135,7.659 L1.14606599,7.64753053 L3.26738633,5.52621018 C3.46264848,5.33094804 3.77923097,5.33094804 3.97449311,5.52621018 C4.14805947,5.69977654 4.16734462,5.96920094 4.03234857,6.16406908 L3.97449311,6.23331697 L2.70761938,7.50083451 L7.498,7.5 L7.49840426,2.70761938 L6.23038789,3.97449312 C6.05682154,4.14805947 5.78739714,4.16734462 5.592529,4.03234857 L5.52328111,3.97449312 C5.34971476,3.80092677 5.33042961,3.53150237 5.46542566,3.33663423 L5.52328111,3.26738634 L7.64460146,1.14606599 C7.64868907,1.14197838 7.65282985,1.13797634 7.65702157,1.13405986 C7.66933616,1.12255859 7.68240061,1.11153964 7.69601093,1.10120212 C7.70754569,1.09239392 7.71932021,1.08422873 7.73134833,1.07662643 C7.74247238,1.06963872 7.75410817,1.06291273 7.7660276,1.05665372 C7.77994914,1.04933237 7.79375858,1.04290446 7.80777688,1.03714061 L7.84525341,1.02343058 L7.84525341,1.02343058 C7.86135195,1.01832809 7.87706429,1.01415607 7.89290967,1.01076031 L7.92686033,1.00466372 L7.92686033,1.00466372 C7.94351452,1.00230321 7.9605355,1.00073771 7.97758537,1 L8.01772136,1 L8.04394102,1.00170737 L8.04394102,1.00170737 L8.061,1.003 L8.1033825,1.01071162 L8.1033825,1.01071162 C8.11838524,1.01396339 8.1335058,1.01793999 8.14844944,1.02263486 L8.19226599,1.03869589 L8.19226599,1.03869589 L8.22658537,1.05469898 L8.22658537,1.05469898 C8.23972851,1.06148588 8.25274346,1.06893778 8.26537506,1.07694029 L8.306,1.106 L8.319,1.117 L8.309,1.108 L8.32075564,1.11759909 C8.32594693,1.12198737 8.33104757,1.12647956 8.33605434,1.13107244 L8.35170824,1.14606599 L10.4730286,3.26738634 C10.6682907,3.46264848 10.6682907,3.77923097 10.4730286,3.97449312 C10.2994622,4.14805947 10.0300378,4.16734462 9.83516969,4.03234857 L9.7659218,3.97449312 L8.49840426,2.70761938 L8.498,7.5 L13.2926194,7.50083451 L12.0218392,6.2303879 C11.826577,6.03512575 11.826577,5.71854326 12.0218392,5.52328112 C12.2171013,5.32801897 12.5336838,5.32801897 12.7289459,5.52328112 L14.8502663,7.64460146 L14.853,7.647 L14.893,7.694 L14.89,7.689 L14.9012357,7.70319851 L14.9012357,7.70319851 Z" id="形状结合" fill="#252B3A" fill-rule="nonzero"></path>
    </g>
</svg>