<?xml version="1.0" encoding="UTF-8"?>
<svg width="16px" height="16px" viewBox="0 0 16 16" version="1.1" xmlns="http://www.w3.org/2000/svg" xmlns:xlink="http://www.w3.org/1999/xlink">
    <title>multi-input多行输入</title>
    <g id="multi-input多行输入" stroke="none" stroke-width="1" fill="none" fill-rule="evenodd">
        <path d="M13.6600003,3.00062108 C14.0099304,2.98983977 14.3494179,3.12065377 14.601634,3.3634589 C14.8538502,3.60626403 14.9974733,3.94053402 15.0000001,4.29062108 L15.0000001,4.29062108 L15.0000001,12.6606211 C14.9974733,13.0107081 14.8538502,13.3449781 14.601634,13.5877833 C14.3494179,13.8305884 14.0099304,13.9614024 13.6600003,13.9506211 L13.6600003,13.9506211 L2.2900003,13.9506211 C1.57755297,13.9506211 1.00000015,13.3730684 1.00000015,12.6606211 L1.00000015,12.6606211 L1.00000015,4.29062108 C0.999832395,3.94144724 1.14121977,3.60712008 1.39186329,3.36401471 C1.64250681,3.12090934 1.98099432,2.98979394 2.3300003,3.00062108 L2.3300003,3.00062108 Z M13.6600003,3.91062105 L2.3700003,3.91062105 C2.27011276,3.91062105 2.17445402,3.95093633 2.1047708,4.02250288 C2.03508758,4.09406943 1.99730063,4.19077002 2.0000003,4.29062108 L2.0000003,4.29062108 L2.0000003,12.6606211 C1.99364456,12.8541155 2.13752485,13.0197958 2.3300003,13.0406211 L2.3300003,13.0406211 L13.6200003,13.0406211 C13.8298685,13.0406211 14.0000003,12.8704893 14.0000003,12.6606211 L14.0000003,12.6606211 L14.0400003,4.29062108 C14.0400003,4.08075287 13.8698685,3.91062105 13.6600003,3.91062105 L13.6600003,3.91062105 Z M13.4900003,9.73062108 L13.4900003,12.4006211 L10.8100003,12.4006211 L13.4900003,9.73062108 Z M12.6900003,5.53062108 L12.6900003,6.37062108 L13.3200003,6.37062108 L13.3200003,6.98062108 L12.6900003,6.98062108 L12.6900003,8.15062108 C12.6900003,8.45062108 12.8000003,8.60062108 13.0400003,8.60062108 C13.1383005,8.59618704 13.2341954,8.56878851 13.3200003,8.52062108 L13.3200003,8.52062108 L13.3200003,9.12062108 C13.144403,9.19951687 12.9520512,9.23386541 12.7600003,9.22062108 C12.1700003,9.22062108 11.8800003,8.91062108 11.8800003,8.29062108 L11.8800003,8.29062108 L11.8800003,6.98062108 L11.4200003,6.98062108 L11.4200003,6.37062108 L11.8800003,6.37062108 L11.8800003,5.76062108 L12.6900003,5.53062108 Z M6.8900003,6.31062108 C7.23072697,6.29026439 7.56439956,6.41357818 7.8100003,6.65062108 C8.04501661,6.92882817 8.16327233,7.28717883 8.1400003,7.65062108 L8.1400003,7.65062108 L8.1400003,7.94062108 L6.2700003,7.94062108 C6.3000003,8.37062108 6.5600003,8.59062108 7.0500003,8.59062108 C7.33973993,8.59421953 7.62439659,8.51437681 7.8700003,8.36062108 L7.8700003,8.36062108 L7.8700003,8.96062108 C7.55917657,9.11228219 7.21557454,9.18443862 6.8700003,9.17062108 C6.50037956,9.18738468 6.13969384,9.05393097 5.8700003,8.80062108 C5.62145078,8.52800548 5.48875257,8.16936166 5.5000003,7.80062108 C5.48379158,7.40347625 5.62379225,7.01578207 5.8900003,6.72062108 C6.14646047,6.44302784 6.51248496,6.2929578 6.8900003,6.31062108 Z M5.7300003,5.26062108 L5.7300003,5.94062108 L4.6200003,5.94062108 L4.6200003,9.15062108 L3.7900003,9.15062108 L3.7900003,5.94062108 L2.6800003,5.94062108 L2.6800003,5.26062108 L5.7300003,5.26062108 Z M9.3600003,6.37062108 L9.7800003,7.17062108 C9.8200003,7.25062108 9.8900003,7.34062108 9.8900003,7.43062108 L9.8900003,7.43062108 L9.94018999,7.29858595 L9.94018999,7.29858595 L10.0000003,7.17062108 L10.4000003,6.37062108 L11.2700003,6.37062108 L10.3500003,7.73062108 L11.2700003,9.15062108 L10.3300003,9.15062108 L9.9100003,8.39062108 C9.8600003,8.28062108 9.8000003,8.20062108 9.8000003,8.14062108 L9.8000003,8.14062108 L9.74602278,8.26363232 L9.74602278,8.26363232 L9.6800003,8.38062108 L9.2600003,9.15062108 L8.3300003,9.15062108 L9.2700003,7.77062108 L8.3800003,6.37062108 L9.3600003,6.37062108 Z M6.8800003,6.90062108 C6.73841355,6.90345982 6.60438198,6.9650419 6.5100003,7.07062108 C6.40883056,7.19141791 6.34001099,7.33593899 6.3100003,7.49062108 L6.3100003,7.49062108 L7.3900003,7.53062108 C7.3900003,7.11062108 7.2200003,6.90062108 6.8800003,6.90062108 Z" id="形状结合" fill="#252B3A" fill-rule="nonzero"></path>
    </g>
</svg>