<?xml version="1.0" encoding="UTF-8"?>
<svg width="16px" height="16px" viewBox="0 0 16 16" version="1.1" xmlns="http://www.w3.org/2000/svg" xmlns:xlink="http://www.w3.org/1999/xlink">
    <title>function icon/namespace</title>
    <g id="图标入库记录" stroke="none" stroke-width="1" fill="none" fill-rule="evenodd">
        <g id="DevUI图标-入库记录230223" transform="translate(-492.000000, -120.000000)" fill="#71757F" fill-rule="nonzero">
            <g id="命名空间-线-16" transform="translate(492.000000, 120.000000)">
                <path d="M13.371577,11.4720785 L13.3717092,13.4669956 C13.3717092,14.2635702 12.7733417,14.9194081 12.011686,14.9898204 L11.8756697,14.9960785 L9.44706349,14.9960785 C10.0330557,14.9960785 10.5895677,14.7390848 10.9695604,14.2929991 L13.371577,11.4720785 Z M8.0240623,0.99767535 C8.22498527,1.0086314 8.42355925,1.07596588 8.59543797,1.19971741 L8.695167,1.28073868 L10.9573875,3.34465253 C10.9656427,3.02086412 11.2037287,2.75364519 11.5104655,2.70773587 L11.6043849,2.7007671 L12.9154058,2.7007671 C13.2394204,2.7007671 13.5090261,2.94622115 13.5553675,3.26454438 L13.5624031,3.36205484 L13.5624031,5.7229681 L15.2128139,7.2288479 C15.5045302,7.49452315 15.6032825,7.90869811 15.4648023,8.28226768 C15.3416986,8.61677228 15.0469223,8.84894168 14.7059753,8.89048341 L14.5907884,8.89714926 L14.1666502,8.89680992 C14.0965171,8.771411 14.0086905,8.65342874 13.9033056,8.54656906 C13.3589142,7.99455942 12.4701055,7.98838364 11.9180959,8.53277506 L11.8549272,8.59928063 L8.50979143,12.3598897 C8.17610225,12.7350238 7.99571094,13.2219403 8.00444452,13.7239341 L8.00871985,13.9696745 C8.01863193,14.5394072 8.48331742,14.9960785 9.05313632,14.9960785 L4.16391546,14.9960785 C3.38455482,14.9960785 2.74288957,14.3844948 2.67399887,13.6060161 L2.667876,13.4669956 L2.667876,8.89714926 L1.51463162,8.89714926 C1.10510719,8.89870205 0.737692143,8.64017815 0.59294418,8.24862321 C0.460139463,7.89466025 0.530525963,7.50592747 0.769349708,7.22620275 L0.855148365,7.13719574 L7.23318003,1.28305899 C7.42491771,1.10686565 7.66235497,1.01177934 7.90342141,0.997866818 L8.0240623,0.99767535 Z M11.3441619,10.6078377 L12.1588206,11.262605 L9.98161464,13.8501711 C9.83646852,14.0225885 9.63241135,14.1325255 9.4114878,14.1604173 L9.29981514,14.1674356 L9.2482452,14.1674356 C9.04768477,14.1674356 8.88509842,14.0048492 8.88509842,13.8042888 C8.88509842,13.6169359 8.93921731,13.4346231 9.03949136,13.2786642 L9.12322656,13.1669695 L11.3441619,10.6078377 Z M7.97782253,1.99698244 L7.9544052,1.99698244 L7.93124279,2.00451122 L7.90938203,2.01977526 L1.52986809,7.87551916 L1.52669239,7.88444182 L1.529,7.897 L3.667876,7.89714926 L3.66690752,13.4229953 L3.67010612,13.5178666 C3.69155773,13.7602741 3.86685472,13.9495814 4.08171256,13.988657 L4.16391546,13.9960785 L7.008,13.9960785 L7.00459583,13.7413293 C6.99268641,13.0567922 7.21522931,12.3909461 7.63184852,11.8527748 L7.76261619,11.6952626 L11.146987,7.89168977 L11.2159193,7.82077222 C11.9033651,7.14281379 12.8958531,6.9635095 13.7446674,7.27974151 L13.817,7.309 L12.5624031,6.16424815 L12.564,3.699 L11.949,3.698 L11.9012459,5.55942044 L8.06461451,2.0568853 L8.006,2.009 L7.97782253,1.99698244 Z M12.957584,9.52629789 C12.9628136,9.53034889 12.9679604,9.53450577 12.973021,9.53876597 C13.156343,9.69309196 13.1976063,9.953544 13.0825761,10.154364 L13.0320857,10.2265525 L12.7706365,10.5361572 L11.9676486,9.8905983 L12.2223065,9.59879559 C12.409368,9.38341948 12.7320618,9.35160215 12.957584,9.52629789 Z M9.5,6 C9.77614237,6 10,6.22385763 10,6.5 C10,6.74545989 9.82312484,6.94960837 9.58987563,6.99194433 L9.5,7 L6.5,7 C6.22385763,7 6,6.77614237 6,6.5 C6,6.25454011 6.17687516,6.05039163 6.41012437,6.00805567 L6.5,6 L9.5,6 Z" id="形状结合"></path>
            </g>
        </g>
    </g>
</svg>