<?xml version="1.0" encoding="UTF-8"?>
<svg width="16px" height="16px" viewBox="0 0 16 16" version="1.1" xmlns="http://www.w3.org/2000/svg" xmlns:xlink="http://www.w3.org/1999/xlink">
    <title>nav-expand</title>
    <g id="nav-expand" stroke="none" stroke-width="1" fill="none" fill-rule="evenodd">
        <path d="M14.5,14 C14.7761424,14 15,14.2238576 15,14.5 C15,14.7761424 14.7761424,15 14.5,15 L1.5,15 C1.22385763,15 1,14.7761424 1,14.5 C1,14.2238576 1.22385763,14 1.5,14 L14.5,14 Z M3.9006,4.80247826 C4.1534,4.55047826 4.5838,4.72887826 4.5838,5.08567826 L4.5838,5.08567826 L4.5838,10.8512783 C4.5838,11.2072783 4.1534,11.3856783 3.9006,11.1336783 L3.9006,11.1336783 L1.1878,8.42087826 C0.9374,8.17047826 0.9374,7.76567826 1.1878,7.51607826 L1.1878,7.51607826 Z M14.5,10 C14.7761424,10 15,10.2238576 15,10.5 C15,10.7761424 14.7761424,11 14.5,11 L6.5,11 C6.22385763,11 6,10.7761424 6,10.5 C6,10.2238576 6.22385763,10 6.5,10 L14.5,10 Z M14.5,5 C14.7761424,5 15,5.22385763 15,5.5 C15,5.77614237 14.7761424,6 14.5,6 L6.5,6 C6.22385763,6 6,5.77614237 6,5.5 C6,5.22385763 6.22385763,5 6.5,5 L14.5,5 Z M14.5,1 C14.7761424,1 15,1.22385763 15,1.5 C15,1.77614237 14.7761424,2 14.5,2 L1.5,2 C1.22385763,2 1,1.77614237 1,1.5 C1,1.22385763 1.22385763,1 1.5,1 L14.5,1 Z" id="形状结合" fill="#71757F" transform="translate(8.000000, 8.000000) scale(-1, 1) translate(-8.000000, -8.000000) "></path>
    </g>
</svg>