<?xml version="1.0" encoding="UTF-8"?>
<svg width="16px" height="16px" viewBox="0 0 16 16" version="1.1" xmlns="http://www.w3.org/2000/svg" xmlns:xlink="http://www.w3.org/1999/xlink">
    <title>导航展开</title>
    <g id="导航展开" stroke="none" stroke-width="1" fill="none" fill-rule="evenodd">
        <path d="M9.4141965,1.47708824 C9.59170754,1.65452918 9.60784491,1.93219527 9.4626086,2.12785896 L9.4141965,2.18391577 L3.71630048,7.87956154 C3.662061,7.93377961 3.65302108,8.01607 3.68918074,8.0796455 L3.71630048,8.11517072 L9.4141965,13.8108165 C9.60945864,14.0060015 9.60945864,14.322459 9.4141965,14.517644 C9.23668545,14.695085 8.95890967,14.711216 8.76316867,14.566037 L8.70708972,14.517644 L3.0091937,8.82199825 C2.58038271,8.39335661 2.55515854,7.7140573 2.93352117,7.25592653 L3.0091937,7.17273402 L8.70708972,1.47708824 C8.90235186,1.28190321 9.21893435,1.28190321 9.4141965,1.47708824 Z M13.1867116,1.47708824 C13.3642226,1.65452918 13.38036,1.93219527 13.2351237,2.12785896 L13.1867116,2.18391577 L7.48881554,7.87956154 C7.43457605,7.93377961 7.42553614,8.01607 7.46169579,8.0796455 L7.48881554,8.11517072 L13.1867116,13.8108165 C13.3819737,14.0060015 13.3819737,14.322459 13.1867116,14.517644 C13.0092005,14.695085 12.7314247,14.711216 12.5356837,14.566037 L12.4796048,14.517644 L6.78170876,8.82199825 C6.35289777,8.39335661 6.32767359,7.7140573 6.70603623,7.25592653 L6.78170876,7.17273402 L12.4796048,1.47708824 C12.6748669,1.28190321 12.9914494,1.28190321 13.1867116,1.47708824 Z" id="形状结合" fill="#71757F" transform="translate(8.000322, 7.997366) scale(1, -1) rotate(-180.000000) translate(-8.000322, -7.997366) "></path>
    </g>
</svg>