<?xml version="1.0" encoding="UTF-8"?>
<svg width="16px" height="16px" viewBox="0 0 16 16" version="1.1" xmlns="http://www.w3.org/2000/svg" xmlns:xlink="http://www.w3.org/1999/xlink">
    <title>导航收起</title>
    <g id="导航收起" stroke="none" stroke-width="1" fill="none" fill-rule="evenodd">
        <path d="M9.41355339,1.47708824 C9.59106443,1.65452918 9.6072018,1.93219527 9.46196549,2.12785896 L9.41355339,2.18391577 L3.71565738,7.87956154 C3.66141789,7.93377961 3.65237798,8.01607 3.68853763,8.0796455 L3.71565738,8.11517072 L9.41355339,13.8108165 C9.60881554,14.0060015 9.60881554,14.322459 9.41355339,14.517644 C9.23604235,14.695085 8.95826656,14.711216 8.76252556,14.566037 L8.70644661,14.517644 L3.0085506,8.82199825 C2.57973961,8.39335661 2.55451543,7.7140573 2.93287807,7.25592653 L3.0085506,7.17273402 L8.70644661,1.47708824 C8.90170876,1.28190321 9.21829124,1.28190321 9.41355339,1.47708824 Z M13.1860684,1.47708824 C13.3635795,1.65452918 13.3797169,1.93219527 13.2344805,2.12785896 L13.1860684,2.18391577 L7.48817243,7.87956154 C7.43393295,7.93377961 7.42489303,8.01607 7.46105269,8.0796455 L7.48817243,8.11517072 L13.1860684,13.8108165 C13.3813306,14.0060015 13.3813306,14.322459 13.1860684,14.517644 C13.0085574,14.695085 12.7307816,14.711216 12.5350406,14.566037 L12.4789617,14.517644 L6.78106565,8.82199825 C6.35225466,8.39335661 6.32703049,7.7140573 6.70539312,7.25592653 L6.78106565,7.17273402 L12.4789617,1.47708824 C12.6742238,1.28190321 12.9908063,1.28190321 13.1860684,1.47708824 Z" id="形状结合" fill="#71757F" transform="translate(7.999678, 7.997366) scale(-1, -1) rotate(-180.000000) translate(-7.999678, -7.997366) "></path>
    </g>
</svg>