<?xml version="1.0" encoding="UTF-8"?>
<svg width="16px" height="16px" viewBox="0 0 16 16" version="1.1" xmlns="http://www.w3.org/2000/svg" xmlns:xlink="http://www.w3.org/1999/xlink">
    <title>net</title>
    <g id="net" stroke="none" stroke-width="1" fill="none" fill-rule="evenodd">
        <path d="M14.6478306,4.01680682 C14.382941,3.94659901 14.1108951,4.10269089 14.0378306,4.36680682 C12.5878306,9.62680682 11.3378306,10.0268068 11.0378306,10.0268068 L11.0378306,10.0268068 C12.1221905,8.42390211 12.9269282,6.64874556 13.4178306,4.77680682 C13.4503786,4.64128307 13.4260432,4.49834306 13.3504829,4.38122469 C13.2749227,4.26410632 13.1547218,4.18301496 13.0178306,4.15680682 C12.8904678,4.12025419 12.7537309,4.13684071 12.6388012,4.20278403 C12.5238714,4.26872735 12.4405475,4.37840518 12.4078306,4.50680682 C11.9570111,6.26701604 11.2096562,7.93757399 10.1978306,9.44680682 C9.8283232,8.79307119 9.54592707,8.09380457 9.35783062,7.36680682 C8.91783062,5.94680682 8.35783062,4.00680682 6.72783062,4.00680682 C6.39267024,4.01729773 6.06710358,4.12120199 5.78783062,4.30680682 C5.54667144,4.19455056 5.28383652,4.13652207 5.01783062,4.13680682 C2.88783062,4.13680682 1.30783062,9.34680682 1.01783062,10.3968068 C0.946243557,10.6612486 1.09636814,10.9350052 1.35783062,11.0168068 L1.51783062,11.0168068 C1.74567821,11.030853 1.95304027,10.8856996 2.01783062,10.6668068 C2.59783062,8.51680682 3.88783062,5.51680682 4.87783062,5.17680682 C3.8493391,6.77480237 3.11132513,8.54197344 2.69783062,10.3968068 C2.62433023,10.6555209 2.76436957,10.9268471 3.01783062,11.0168068 L3.14783062,11.0168068 C3.37118445,11.0202458 3.56859293,10.8721894 3.62783062,10.6568068 C4.44783062,7.65680682 5.20783062,6.25680682 5.76783062,5.58680682 C6.17844459,6.24959921 6.48532262,6.97126844 6.67783062,7.72680682 C7.11783062,9.11680682 7.67783062,11.0168068 9.29783062,11.0168068 C9.58430512,11.0098546 9.86380929,10.9270385 10.1078306,10.7768068 C10.3685593,10.930678 10.6651023,11.0134342 10.9678306,11.0168068 C12.4678306,11.0168068 13.7878306,8.92680682 14.9678306,4.62680682 C15.0405762,4.37070665 14.8998875,4.10251883 14.6478306,4.01680682 Z M7.64783062,7.43680682 C7.42436852,6.58094137 7.07020294,5.76467404 6.59783062,5.01680682 L6.69783062,5.01680682 C7.47783062,5.01680682 7.93783062,6.26680682 8.36783062,7.67680682 C8.59160744,8.50552454 8.92808131,9.29960288 9.36783062,10.0368068 L9.36783062,10.0368068 C8.54783062,10.0268068 8.10783062,8.85680682 7.66783062,7.43680682 L7.64783062,7.43680682 Z" fill="#71757F" fill-rule="nonzero"></path>
    </g>
</svg>