<?xml version="1.0" encoding="UTF-8"?>
<svg width="16px" height="16px" viewBox="0 0 16 16" version="1.1" xmlns="http://www.w3.org/2000/svg" xmlns:xlink="http://www.w3.org/1999/xlink">
    <title>function icon/new line</title>
    <g id="图标入库记录" stroke="none" stroke-width="1" fill="none" fill-rule="evenodd">
        <g id="API-starter-图标入库记录-221124" transform="translate(-172.000000, -120.000000)" fill="#71757F" fill-rule="nonzero">
            <g id="编组-13备份" transform="translate(172.000000, 120.000000)">
                <path d="M2.5,2 L13.5,2 C13.7761424,2 14,2.22385763 14,2.5 C14,2.77614237 13.7761424,3 13.5,3 L2.5,3 C2.22385763,3 2,2.77614237 2,2.5 C2,2.22385763 2.22385763,2 2.5,2 Z M11,7 C12.6568542,7 14,8.34314575 14,10 C14,11.5976809 12.75108,12.9036609 11.1762728,12.9949073 L11,13 L10,13 L10,13.9324792 C10,14.2086216 9.77614237,14.4324792 9.5,14.4324792 C9.38303175,14.4324792 9.2697653,14.3914711 9.1799078,14.3165898 L7.46093277,12.8841106 C7.24879432,12.7073286 7.22013229,12.3920462 7.39691433,12.1799078 L7.46093277,12.1158894 L9.1799078,10.6834102 C9.39204625,10.5066281 9.7073286,10.5352902 9.88411064,10.7474286 C9.95899189,10.8372861 10,10.9505526 10,11.0675208 L10,12 L11,12 C12.1045695,12 13,11.1045695 13,10 C13,8.9456382 12.1841222,8.08183488 11.1492623,8.00548574 L11,8 L2.5,8 C2.22385763,8 2,7.77614237 2,7.5 C2,7.25454011 2.17687516,7.05039163 2.41012437,7.00805567 L2.5,7 L11,7 Z M4.5,12 C4.77614237,12 5,12.2238576 5,12.5 C5,12.7761424 4.77614237,13 4.5,13 L2.5,13 C2.22385763,13 2,12.7761424 2,12.5 C2,12.2238576 2.22385763,12 2.5,12 L4.5,12 Z" id="形状结合"></path>
            </g>
        </g>
    </g>
</svg>