<?xml version="1.0" encoding="UTF-8"?>
<svg width="16px" height="16px" viewBox="0 0 16 16" version="1.1" xmlns="http://www.w3.org/2000/svg" xmlns:xlink="http://www.w3.org/1999/xlink">
    <title>新建缺陷</title>
    <g id="页面-1" stroke="none" stroke-width="1" fill="none" fill-rule="evenodd">
        <g id="新建缺陷">
            <path d="M8,0.6 C9.65685425,0.6 11,1.94314575 11,3.6 C11,3.95975483 10.9366761,4.30471957 10.8205664,4.624356 C11.1538014,4.89374692 11.4586264,5.20907957 11.7279372,5.56408886 L13.6464466,3.64644661 C13.8417088,3.45118446 14.1582912,3.45118446 14.3535534,3.64644661 C14.5271197,3.82001296 14.5464049,4.08943736 14.4114088,4.2843055 L14.3535534,4.35355339 L12.2739715,6.43257093 C12.4810397,6.83439613 12.6490594,7.2690155 12.771456,7.7297369 C12.8423575,7.99662187 12.6834815,8.2704519 12.4165965,8.34135338 C12.1497116,8.41225486 11.8758815,8.25337885 11.8049801,7.98649387 C11.2698157,5.97204613 9.73001688,4.6 8,4.6 C5.8130797,4.6 4,6.77569564 4,9.5 C4,12.0137609 5.54366689,14.0604331 7.50032515,14.3617666 L7.5,6.1 C7.5,5.82385763 7.72385763,5.6 8,5.6 C8.24545989,5.6 8.44960837,5.77687516 8.49194433,6.01012437 L8.5,6.1 L8.5,14.9 C8.5,15.1454599 8.32312484,15.3496084 8.08987563,15.3919443 L8,15.4 L8,15.4 C6.42868964,15.4 5.03813758,14.5525421 4.12495354,13.2315445 L2.40355339,14.9535534 C2.20829124,15.1488155 1.89170876,15.1488155 1.69644661,14.9535534 C1.52288026,14.779987 1.50359511,14.5105626 1.63859116,14.3156945 L1.69644661,14.2464466 L3.61176173,12.331973 C3.30506623,11.6704417 3.1027656,10.932702 3.03005875,10.1505207 L1,10.15 C0.723857625,10.15 0.5,9.92614237 0.5,9.65 C0.5,9.40454011 0.676875161,9.20039163 0.910124368,9.15805567 L1,9.15 L3.008644,9.15029538 C3.05766828,8.16118248 3.31331097,7.23492198 3.7266697,6.43316216 L1.64644661,4.35355339 C1.45118446,4.15829124 1.45118446,3.84170876 1.64644661,3.64644661 C1.82001296,3.47288026 2.08943736,3.45359511 2.2843055,3.58859116 L2.35355339,3.64644661 L4.27220027,5.56500703 C4.54087732,5.21031754 4.84555461,4.89406512 5.1797771,4.62438722 L5.18535959,4.6402614 C5.06555601,4.31676932 5,3.96604037 5,3.6 C5,1.94314575 6.34314575,0.6 8,0.6 Z M12.5,9.6 C12.7454599,9.6 12.9496084,9.77687516 12.9919443,10.0101244 L13,10.1 L13,12 L14.9,12 C15.1761424,12 15.4,12.2238576 15.4,12.5 C15.4,12.7454599 15.2231248,12.9496084 14.9898756,12.9919443 L14.9,13 L13,13 L13,14.9 C13,15.1761424 12.7761424,15.4 12.5,15.4 C12.2545401,15.4 12.0503916,15.2231248 12.0080557,14.9898756 L12,14.9 L12,12.999 L10.1,13 C9.82385763,13 9.6,12.7761424 9.6,12.5 C9.6,12.2545401 9.77687516,12.0503916 10.0101244,12.0080557 L10.1,12 L12,11.999 L12,10.1 C12,9.82385763 12.2238576,9.6 12.5,9.6 Z M8,1.6 C6.8954305,1.6 6,2.4954305 6,3.6 C6,3.75935581 6.01863724,3.91435866 6.05385093,4.06294777 C6.65007839,3.76460905 7.30748407,3.6 8,3.6 C8.68732266,3.6 9.34530418,3.76382898 9.94525842,4.06228794 C9.98060982,3.92055704 10,3.76254293 10,3.6 C10,2.4954305 9.1045695,1.6 8,1.6 Z" id="形状结合" fill="#71757F" fill-rule="nonzero"></path>
        </g>
    </g>
</svg>