<?xml version="1.0" encoding="UTF-8"?>
<svg width="16px" height="16px" viewBox="0 0 16 16" version="1.1" xmlns="http://www.w3.org/2000/svg" xmlns:xlink="http://www.w3.org/1999/xlink">
    <title>new-directory-2</title>
    <g id="页面-1" stroke="none" stroke-width="1" fill="none" fill-rule="evenodd">
        <g id="API测试图标" transform="translate(-57.000000, -363.000000)">
            <g id="new-directory-2" transform="translate(57.000000, 363.000000)">
                <g transform="translate(1.000000, 1.000000)" fill="#71757F" id="形状结合">
                    <path d="M4.19098301,0 C4.52766928,0 4.83866948,0.169088297 5.02259344,0.444602326 L5.0854102,0.552786405 L5.80901699,2 L13,2 C13.5128358,2 13.9355072,2.38604019 13.9932723,2.88337887 L14,3 L14,8.5 C14,8.77614237 13.7761424,9 13.5,9 C13.2545401,9 13.0503916,8.82312484 13.0080557,8.58987563 L13,8.5 L13,5.5 L1,5.5 L1,12 L9,12 C9.27614237,12 9.5,12.2238576 9.5,12.5 C9.5,12.7454599 9.32312484,12.9496084 9.08987563,12.9919443 L9,13 L1,13 C0.487164161,13 0.0644928393,12.6139598 0.00672773133,12.1166211 L0,12 L0,1 C0,0.487164161 0.38604019,0.0644928393 0.883378875,0.00672773133 L1,0 L4.19098301,0 Z M4.19098301,1 L1,1 L1,4.5 L13,4.5 L13,3 L5.80901699,3 C5.47233072,3 5.16133052,2.8309117 4.97740656,2.55539767 L4.9145898,2.4472136 L4.19098301,1 Z" fill-rule="nonzero"></path>
                    <path d="M11,7.5 C11.2761424,7.5 11.5,7.72385763 11.5,8 L11.5,10 L13.5,10 C13.7761424,10 14,10.2238576 14,10.5 C14,10.7761424 13.7761424,11 13.5,11 L11.5,11 L11.5,13 C11.5,13.2761424 11.2761424,13.5 11,13.5 C10.7238576,13.5 10.5,13.2761424 10.5,13 L10.5,11 L8.5,11 C8.22385763,11 8,10.7761424 8,10.5 C8,10.2238576 8.22385763,10 8.5,10 L10.5,10 L10.5,8 C10.5,7.72385763 10.7238576,7.5 11,7.5 Z"></path>
                </g>
            </g>
        </g>
    </g>
</svg>