<?xml version="1.0" encoding="UTF-8"?>
<svg width="16px" height="16px" viewBox="0 0 16 16" version="1.1" xmlns="http://www.w3.org/2000/svg" xmlns:xlink="http://www.w3.org/1999/xlink">
    <title>function icon/no identity</title>
    <g id="图标入库记录" stroke="none" stroke-width="1" fill="none" fill-rule="evenodd">
        <g id="DevUI图标入库-2023.08" transform="translate(-312.000000, -120.000000)" fill="#71757F" fill-rule="nonzero">
            <g id="line" transform="translate(312.000000, 120.000000)">
                <path d="M7.7226499,0.583974853 C7.89059961,0.472008382 8.10940039,0.472008382 8.2773501,0.583974853 L8.2773501,0.583974853 L8.36517407,0.642524166 C10.0735208,1.78142198 12.0646584,2.42194506 14.106546,2.49308056 L14.106546,2.49308056 L14.5086958,2.50007562 C14.7922656,2.50500809 15.0149622,2.74455892 14.9992302,3.02773501 L14.9992302,3.02773501 L14.7567542,7.39230266 C14.5875549,10.4378895 12.799413,13.1593105 10.0711568,14.5234386 L10.0711568,14.5234386 L8.2236068,15.4472136 C8.08284305,15.5175955 7.91715695,15.5175955 7.7763932,15.4472136 L7.7763932,15.4472136 L5.92884324,14.5234386 C3.200587,13.1593105 1.41244507,10.4378895 1.2432458,7.39230266 L1.2432458,7.39230266 L1.00076982,3.02773501 C0.984847572,2.74113448 1.21295752,2.5 1.5,2.5 C3.68346402,2.5 5.81807405,1.85369209 7.63482593,0.642524166 L7.63482593,0.642524166 Z M7.999,1.596 L7.85619728,1.68896941 C6.17400979,2.73227642 4.26244564,3.34442533 2.29125429,3.47402013 L2.29125429,3.47402013 L2.028,3.487 L2.24170616,7.33683264 C2.38585158,9.93145024 3.86165859,12.2594251 6.13001095,13.500262 L6.13001095,13.500262 L6.37605684,13.6290114 L7.999,14.44 L9.62394316,13.6290114 C11.9482183,12.4668739 13.4992021,10.1882948 13.7377786,7.61376969 L13.7377786,7.61376969 L13.7582938,7.33683264 L13.971,3.486 L13.686594,3.4725436 C11.7211234,3.33969435 9.81728196,2.72719687 8.14235706,1.68807207 L8.14235706,1.68807207 L7.999,1.596 Z M6.58578644,5.87867966 L7.99929289,7.29218611 L9.41421356,5.87867966 C9.60947571,5.68341751 9.9260582,5.68341751 10.1213203,5.87867966 C10.3165825,6.0739418 10.3165825,6.39052429 10.1213203,6.58578644 L8.70639967,7.99929289 L10.1213203,9.41421356 C10.3165825,9.60947571 10.3165825,9.9260582 10.1213203,10.1213203 C9.9260582,10.3165825 9.60947571,10.3165825 9.41421356,10.1213203 L7.99929289,8.70639967 L6.58578644,10.1213203 C6.39052429,10.3165825 6.0739418,10.3165825 5.87867966,10.1213203 C5.68341751,9.9260582 5.68341751,9.60947571 5.87867966,9.41421356 L7.29218611,7.99929289 L5.87867966,6.58578644 C5.68341751,6.39052429 5.68341751,6.0739418 5.87867966,5.87867966 C6.0739418,5.68341751 6.39052429,5.68341751 6.58578644,5.87867966 Z" id="形状结合"></path>
            </g>
        </g>
    </g>
</svg>