<?xml version="1.0" encoding="UTF-8"?>
<svg width="16px" height="16px" viewBox="0 0 16 16" version="1.1" xmlns="http://www.w3.org/2000/svg" xmlns:xlink="http://www.w3.org/1999/xlink">
    <title>no-sort无语言</title>
    <g id="no-sort无语言" stroke="none" stroke-width="1" fill="none" fill-rule="evenodd">
        <path d="M12.2000358,1.00001777 C12.9434571,0.99736638 13.6572001,1.29150825 14.1828817,1.81718988 C14.7085633,2.3428715 15.0027052,3.05661449 15.0000538,3.80003578 L15.0000538,3.80003578 L15.0000538,12.2000358 C15.0027052,12.9434571 14.7085633,13.6572001 14.1828817,14.1828817 C13.6572001,14.7085633 12.9434571,15.0027052 12.2000358,15.0000538 L12.2000358,15.0000538 L3.80003578,15.0000538 C3.05661449,15.0027052 2.3428715,14.7085633 1.81718988,14.1828817 C1.29150825,13.6572001 0.99736638,12.9434571 1.00001777,12.2000358 L1.00001777,12.2000358 L1.00001777,3.80003578 C0.99736638,3.05661449 1.29150825,2.3428715 1.81718988,1.81718988 C2.3428715,1.29150825 3.05661449,0.99736638 3.80003578,1.00001777 L3.80003578,1.00001777 Z M12.2000358,2.00000765 L3.80003578,2.00000765 C3.32182983,1.99735669 2.86243453,2.18613857 2.52428655,2.52428655 C2.18613857,2.86243453 1.99735669,3.32182983 2.00000765,3.80003578 L2.00000765,3.80003578 L2.00000765,12.2000358 C1.99735669,12.6782417 2.18613857,13.137637 2.52428655,13.475785 C2.86243453,13.813933 3.32182983,14.0027149 3.80003578,14.0000639 L3.80003578,14.0000639 L12.2000358,14.0000639 C12.6782417,14.0027149 13.137637,13.813933 13.475785,13.475785 C13.813933,13.137637 14.0027149,12.6782417 14.0000639,12.2000358 L14.0000639,12.2000358 L14.0000639,3.80003578 C14.0027149,3.32182983 13.813933,2.86243453 13.475785,2.52428655 C13.137637,2.18613857 12.6782417,1.99735669 12.2000358,2.00000765 L12.2000358,2.00000765 Z M9.12003578,5.54001261 C10.7478554,5.53407321 12.1529093,6.67950228 12.475076,8.27513404 C12.7972426,9.87076581 11.9466775,11.4716166 10.4440647,12.0977052 C8.94145195,12.7237939 7.20583452,12.2005192 6.29969265,10.8482104 C5.39355078,9.49590165 5.56958586,7.6916855 6.72003578,6.54003578 L6.72003578,6.54003578 L6.8823493,6.38747326 C7.49382611,5.84933826 8.28058201,5.54688796 9.10003578,5.54001261 L9.10003578,5.54001261 Z M7.09003578,7.67003578 C6.8296184,8.06476458 6.69055728,8.5271428 6.69003578,9.00003578 C6.69554247,10.3271351 7.77292502,11.4000358 9.10003578,11.4000358 C9.57582507,11.398004 10.0409874,11.2591496 10.4400358,11.0000358 L10.4400358,11.0000358 Z M9.10003578,6.54003573 C8.6424466,6.54003573 8.1945645,6.6719924 7.81003578,6.92003578 L7.81003578,6.92003578 L11.1300358,10.2900358 L11.1300358,10.2400358 C11.3700175,9.8703005 11.5016553,9.44074565 11.5100358,9.00003578 C11.5234783,8.35224536 11.2755152,7.72632852 10.8220873,7.26349344 C10.3686594,6.80065837 9.74796565,6.53989632 9.10003578,6.54003573 Z" fill="#71757F" fill-rule="nonzero"></path>
    </g>
</svg>