<?xml version="1.0" encoding="UTF-8"?>
<svg width="16px" height="16px" viewBox="0 0 16 16" version="1.1" xmlns="http://www.w3.org/2000/svg" xmlns:xlink="http://www.w3.org/1999/xlink">
    <title>nogroup</title>
    <g id="nogroup" stroke="none" stroke-width="1" fill="none" fill-rule="evenodd">
        <path d="M12.12,9.20087365 C13.7099182,9.21184697 14.9945551,10.5009445 15,12.0908911 C15,13.2606955 14.2947802,14.3151215 13.213633,14.7618463 C12.1324858,15.2085711 10.8886646,14.9594766 10.0629228,14.1308676 C9.23718102,13.3022587 8.99239933,12.0575815 9.44286894,10.9779893 C9.89333854,9.89839703 10.9502026,9.19684331 12.12,9.20087365 Z M5.08,2.00089108 C5.44366744,1.98831318 5.79936669,2.10925093 6.08,2.34089108 L6.19,2.44089108 L7.55,3.85089108 C7.62459305,3.92818281 7.72341078,3.97759168 7.83,3.99089108 L13.49,3.99089108 C14.2687187,3.98704026 14.9226524,4.57601369 15,5.35089108 L15,7.49089108 C15.016077,7.66952387 14.9356332,7.84316433 14.7889711,7.94640378 C14.6423091,8.04964323 14.4517102,8.06679713 14.2889711,7.99140378 C14.1262321,7.91601043 14.016077,7.75952387 14,7.58089108 L14,5.49089108 C14.0032468,5.24866471 13.8290013,5.04042003 13.59,5.00089108 L7.91,5.00089108 C7.54605588,5.01535987 7.18970008,4.8941989 6.91,4.66089108 L6.8,4.56089108 L5.43,3.15089108 C5.35852411,3.07309129 5.26381727,3.02047638 5.16,3.00089108 L2.49,3.00089108 C2.24926212,3.00177407 2.04333149,3.17408338 2,3.41089108 L2,12.4908911 C2.00088299,12.731629 2.1731923,12.9375596 2.41,12.9808911 L7.49,12.9808911 C7.76614237,12.9560383 8.01014719,13.1597487 8.035,13.4358911 C8.05985281,13.7120335 7.85614237,13.9560383 7.58,13.9808911 L2.49,13.9808911 C1.72405664,13.9801546 1.08170031,13.402465 1,12.6408911 L1,3.49089108 C1.00637292,2.7253327 1.58824998,2.08742304 2.35,2.01089108 L5.08,2.01089108 L5.08,2.00089108 Z M13.75,11.1708911 L11.19,13.7308911 C11.4750105,13.8887283 11.7942649,13.9745494 12.12,13.9808911 C13.1638182,13.9808911 14.01,13.1347093 14.01,12.0908911 C14.0083456,11.7663238 13.9184733,11.4483139 13.75,11.1708911 L13.75,11.1708911 Z M12.12,10.2008911 C11.6187408,10.2008911 11.1380119,10.4000155 10.7835682,10.7544593 C10.4291244,11.108903 10.23,11.5896319 10.23,12.0908911 C10.2363417,12.4166262 10.3221628,12.7358806 10.48,13.0208911 L10.48,13.0208911 L13.05,10.4608911 C12.7682959,10.2938607 12.4474837,10.2041713 12.12,10.2008911 Z M4.5,6.99089108 L7.49,7.00089108 C7.62261584,6.99821223 7.75086161,7.04833828 7.84651103,7.14023674 C7.94216045,7.2321352 7.9973742,7.35827417 8,7.49089108 C8,7.76703345 7.77614237,7.99089108 7.5,7.99089108 L4.5,7.99089108 C4.22609155,7.98557097 4.00532011,7.76479953 4,7.49089108 C4,7.2147487 4.22385763,6.99089108 4.5,6.99089108 Z" id="形状结合" fill="#252B3A"></path>
    </g>
</svg>