<?xml version="1.0" encoding="UTF-8"?>
<svg width="16px" height="16px" viewBox="0 0 16 16" version="1.1" xmlns="http://www.w3.org/2000/svg" xmlns:xlink="http://www.w3.org/1999/xlink">
    <title>number-input数字输入</title>
    <g id="number-input数字输入" stroke="none" stroke-width="1" fill="none" fill-rule="evenodd">
        <path d="M13.66,3.00061732 C14.0099301,2.98983601 14.3494176,3.12065002 14.6016337,3.36345515 C14.8538499,3.60626028 14.997473,3.94053027 15,4.29061732 L15,4.29061732 L15,12.6706173 C14.997473,13.0207044 14.8538499,13.3549744 14.6016337,13.5977795 C14.3494176,13.8405846 14.0099301,13.9713986 13.66,13.9606173 L13.66,13.9606173 L2.3,13.9606173 C1.58591701,13.9606385 1.00549295,13.3846792 1,12.6706173 L1,12.6706173 L1,4.29061732 C1.002527,3.94053027 1.14615008,3.60626028 1.39836626,3.36345515 C1.65058244,3.12065002 1.99006987,2.98983601 2.34,3.00061732 L2.34,3.00061732 Z M13.66,3.91061732 L2.38,3.91061732 C2.1701318,3.91061732 1.99999404,4.08074912 1.99999404,4.29061732 L1.99999404,4.29061732 L1.99999404,12.6706173 C1.9989159,12.8658078 2.1458906,13.0300737 2.34,13.0506173 L2.34,13.0506173 L13.62,13.0506173 C13.8298682,13.0506173 13.999994,12.8804855 13.999994,12.6706173 L13.999994,12.6706173 L14.04,4.29061732 C14.04,4.08074912 13.8698682,3.91061732 13.66,3.91061732 L13.66,3.91061732 Z M7.7,5.30061732 C8.05552836,5.27700946 8.40842495,5.37582051 8.7,5.58061732 C8.94328337,5.75105851 9.08279174,6.03384575 9.07,6.33061732 C9.07715592,6.82279707 8.72507584,7.24698994 8.24,7.33061732 L8.24,7.33061732 L8.38349964,7.36810297 C8.57048878,7.43043976 8.73861355,7.54134911 8.87,7.69061732 C9.03987548,7.86394491 9.13347701,8.09794874 9.13,8.34061732 C9.14281817,8.70362603 8.97879656,9.05030806 8.69,9.27061732 C8.35446698,9.50635686 7.94947965,9.62257062 7.54,9.60061732 C7.19466862,9.61160303 6.85174051,9.53958813 6.54,9.39061732 L6.54,9.39061732 L6.54,8.62061732 C6.82690191,8.83756274 7.18069264,8.94723786 7.54,8.93061732 C7.73738306,8.93701046 7.93223993,8.88481666 8.1,8.78061732 C8.23224546,8.67363651 8.30635393,8.51059786 8.3,8.34061732 C8.30826379,8.15802567 8.21623691,7.98547527 8.06,7.89061732 C7.85003051,7.7724041 7.61056754,7.71687645 7.37,7.73061732 L7,7.73061732 L7,7.06061732 L7.32,7.06061732 C7.88,7.06061732 8.16,6.85061732 8.16,6.50061732 C8.16,6.15061732 7.94,5.97061732 7.52,5.97061732 C7.22569883,5.97590009 6.93986684,6.0700155 6.7,6.24061732 L6.7,6.24061732 L6.7,5.53061732 C7.01028504,5.37547656 7.35311453,5.29662578 7.7,5.30061732 Z M11.09,5.30061732 C11.4451101,5.28093685 11.7967429,5.37939402 12.09,5.58061732 C12.3280558,5.75453072 12.4632078,6.03609741 12.45,6.33061732 C12.4579763,6.81962106 12.1110925,7.24264999 11.63,7.33061732 L11.63,7.33061732 L11.7677379,7.36936461 C11.9469227,7.43298002 12.1067975,7.54353674 12.23,7.69061732 C12.3998755,7.86394491 12.493477,8.09794874 12.49,8.34061732 C12.5068722,8.70218464 12.3463923,9.04926904 12.06,9.27061732 C11.7207173,9.50640118 11.3125865,9.62250736 10.9,9.60061732 C10.554771,9.61044793 10.2121114,9.53848941 9.9,9.39061732 L9.9,9.39061732 L9.9,8.62061732 C10.1876715,8.83605845 10.5409089,8.94556206 10.9,8.93061732 C11.097881,8.94156266 11.2940841,8.88900825 11.46,8.78061732 C11.5986793,8.67788711 11.6773538,8.51304516 11.67,8.34061732 C11.680949,8.15483644 11.5835228,7.97946944 11.42,7.89061732 C11.2111084,7.7696524 10.9708107,7.71393119 10.73,7.73061732 L10.73,7.73061732 L10.36,7.73061732 L10.36,7.06061732 L10.7,7.06061732 C11.26,7.06061732 11.54,6.85061732 11.54,6.50061732 C11.54,6.15061732 11.33,5.97061732 10.9,5.97061732 C10.6084729,5.97408127 10.3253001,6.06847222 10.09,6.24061732 L10.09,6.24061732 L10.09,5.53061732 C10.3994706,5.37322132 10.7428619,5.29424131 11.09,5.30061732 Z M4.45,5.28061732 C4.8116042,5.25861702 5.16834567,5.37277429 5.45,5.60061732 C5.69473181,5.82593206 5.82664121,6.14837726 5.81,6.48061732 C5.80645665,6.66256995 5.76915776,6.84228278 5.7,7.01061732 C5.62654927,7.18272752 5.52518615,7.34152974 5.4,7.48061732 C5.20990604,7.68261922 4.9986986,7.86365417 4.77,8.02061732 C4.56633147,8.15619539 4.37553175,8.31017411 4.2,8.48061732 C4.11753198,8.55550106 4.06734206,8.65946588 4.06,8.77061732 L4.06,8.77061732 L5.82,8.77061732 L5.82,9.48061732 L3.03,9.48061732 L3.03,9.20061732 C3.02608773,8.99751559 3.06706281,8.79605476 3.15,8.61061732 C3.22411762,8.42522942 3.33270043,8.25556878 3.47,8.11061732 C3.66679015,7.90500812 3.88465462,7.72066126 4.12,7.56061732 C4.33650452,7.41479205 4.52883488,7.23595856 4.69,7.03061732 C4.79050007,6.88664247 4.84616864,6.71615747 4.85,6.54061732 C4.85,6.17061732 4.64,5.98061732 4.23,5.98061732 C3.85522528,5.99651878 3.49935111,6.14954468 3.23,6.41061732 L3.23,6.41061732 L3.23,5.64061732 C3.59131373,5.40088185 4.01641735,5.27544144 4.45,5.28061732 Z" id="形状结合" fill="#252B3A" fill-rule="nonzero"></path>
    </g>
</svg>