<?xml version="1.0" encoding="UTF-8"?>
<svg width="16px" height="16px" viewBox="0 0 16 16" version="1.1" xmlns="http://www.w3.org/2000/svg" xmlns:xlink="http://www.w3.org/1999/xlink">
    <title>testmind_icon_number_default</title>
    <g id="testmind_icon_number_default" stroke="none" stroke-width="1" fill="none" fill-rule="evenodd">
        <path d="M12,1.5 C13.3807119,1.5 14.5,2.61928813 14.5,4 L14.5,4 L14.5,12 C14.5,13.3807119 13.3807119,14.5 12,14.5 L12,14.5 L4,14.5 C2.61928813,14.5 1.5,13.3807119 1.5,12 L1.5,12 L1.5,4 C1.5,2.61928813 2.61928813,1.5 4,1.5 L4,1.5 Z M12,2.5 L4,2.5 C3.17157288,2.5 2.5,3.17157288 2.5,4 L2.5,4 L2.5,12 C2.5,12.8284271 3.17157288,13.5 4,13.5 L4,13.5 L12,13.5 C12.8284271,13.5 13.5,12.8284271 13.5,12 L13.5,12 L13.5,4 C13.5,3.17157288 12.8284271,2.5 12,2.5 L12,2.5 Z M11.6666667,10.5 C11.942809,10.5 12.1666667,10.7238576 12.1666667,11 C12.1666667,11.2454599 11.9897915,11.4496084 11.7565423,11.4919443 L11.6666667,11.5 L4.33333333,11.5 C4.05719096,11.5 3.83333333,11.2761424 3.83333333,11 C3.83333333,10.7545401 4.01020849,10.5503916 4.2434577,10.5080557 L4.33333333,10.5 L11.6666667,10.5 Z M11.6666667,7.5 C11.942809,7.5 12.1666667,7.72385763 12.1666667,8 C12.1666667,8.24545989 11.9897915,8.44960837 11.7565423,8.49194433 L11.6666667,8.5 L9,8.5 C8.72385763,8.5 8.5,8.27614237 8.5,8 C8.5,7.75454011 8.67687516,7.55039163 8.91012437,7.50805567 L9,7.5 L11.6666667,7.5 Z M6.1832,4.7728 L6.1832,8.2 L5.66,8.2 L5.66,5.4016 C5.4536,5.5984 5.1896,5.7424 4.8728,5.8336 L4.8728,5.8336 L4.8728,5.3152 C5.0264,5.2768 5.1848,5.2096 5.3576,5.1136 C5.5304,5.008 5.6744,4.8976 5.7896,4.7728 L5.7896,4.7728 L6.1832,4.7728 Z M11.6666667,4.5 C11.942809,4.5 12.1666667,4.72385763 12.1666667,5 C12.1666667,5.24545989 11.9897915,5.44960837 11.7565423,5.49194433 L11.6666667,5.5 L9,5.5 C8.72385763,5.5 8.5,5.27614237 8.5,5 C8.5,4.75454011 8.67687516,4.55039163 8.91012437,4.50805567 L9,4.5 L11.6666667,4.5 Z" id="形状结合" fill="#71757F" fill-rule="nonzero"></path>
    </g>
</svg>