<?xml version="1.0" encoding="UTF-8"?>
<svg width="16px" height="16px" viewBox="0 0 16 16" version="1.1" xmlns="http://www.w3.org/2000/svg" xmlns:xlink="http://www.w3.org/1999/xlink">
    <title>function icon/object storage</title>
    <g id="图标入库记录" stroke="none" stroke-width="1" fill="none" fill-rule="evenodd">
        <g id="DevUI图标-入库记录230223" transform="translate(-892.000000, -120.000000)" fill="#71757F" fill-rule="nonzero">
            <g id="编组-9备份" transform="translate(892.000000, 120.000000)">
                <path d="M6.5,14 C6.49761358,14 6.49523107,13.9999833 6.49285258,13.99995 L3.98652075,13.9998183 L3.78096747,13.9940917 C1.66526786,13.8796884 0,12.1274828 0,10 C0,8.00977413 1.45732598,6.34796468 3.38849484,6.04771467 L3.38849484,6.04771467 L3.525,6.029 L3.5470089,5.84716693 C3.85373769,3.73476759 5.62419579,2.10791719 7.78287758,2.00515723 L7.78287758,2.00515723 L8,2 C10.2722573,2 12.1511625,3.6841403 12.4565664,5.87227165 L12.4565664,5.87227165 L12.474,6.029 L12.5910907,6.04337027 C14.4556543,6.31954468 15.9008313,7.88238014 15.9951047,9.80035966 L15.9951047,9.80035966 L16,10 C16,12.1274828 14.3347321,13.8796884 12.2055145,13.9946394 L12.2055145,13.9946394 L12,14 Z M8,3 C6.13212828,3 4.59561016,4.467059 4.50474506,6.31261629 L4.50474506,6.31261629 L4.49984975,6.51225663 C4.49332571,6.77832018 4.27952604,6.99264345 4.01347925,6.99981828 L4.01347925,6.99981828 L3.83496212,7.00444948 C2.24910158,7.09020256 1,8.40451529 1,10 C1,11.5954847 2.24910158,12.9097974 3.82144405,12.9950029 L3.82144405,12.9950029 L4,13 L6,13 L6,11 L4.5,11 C4.06674374,11 3.8517542,10.4969082 4.11156885,10.1842112 L4.11156885,10.1842112 L4.17460431,10.1203717 L7.67460431,7.1203717 C7.86184918,6.9598761 8.13815082,6.9598761 8.32539569,7.1203717 L8.32539569,7.1203717 L11.8253957,10.1203717 C12.177845,10.4224711 11.9642031,11 11.5,11 L11.5,11 L10,11 L10,13 L11.9865208,13.0001817 L12.1650379,12.9955505 C13.7508984,12.9097974 15,11.5954847 15,10 C15,8.34314575 13.6568542,7 12,7 C11.7238576,7 11.5,6.77614237 11.5,6.5 C11.5,4.56700338 9.93299662,3 8,3 Z M8,8.158 L5.851,10 L6.5,10 C6.74545989,10 6.94960837,10.1768752 6.99194433,10.4101244 L6.99194433,10.4101244 L7,10.5 L7,13 L9,13 L9,10.5 C9,10.2545401 9.17687516,10.0503916 9.41012437,10.0080557 L9.41012437,10.0080557 L9.5,10 L10.148,10 L8,8.158 Z" id="形状结合"></path>
            </g>
        </g>
    </g>
</svg>