<?xml version="1.0" encoding="UTF-8"?>
<svg width="16px" height="16px" viewBox="0 0 16 16" version="1.1" xmlns="http://www.w3.org/2000/svg" xmlns:xlink="http://www.w3.org/1999/xlink">
    <title>Obsolete   </title>
    <g id="Obsolete---" stroke="none" stroke-width="1" fill="none" fill-rule="evenodd">
        <path d="M12,8.5 C13.9326885,8.5 15.5,10.0675887 15.5,12.0005307 C15.5,13.933325 13.9328363,15.5 12,15.5 C10.0673115,15.5 8.5,13.9324113 8.5,11.9994693 C8.5,10.066675 10.0671637,8.5 12,8.5 Z M11.5648951,1 C12.8056606,1 13.908349,2.04934817 13.9945789,3.2817105 L14,3.43664632 L14,7.22253205 C14,7.49867443 13.7761424,7.72253205 13.5,7.72253205 C13.2545401,7.72253205 13.0503916,7.54565689 13.0080557,7.31240769 L13,7.22253205 L13,3.43664632 C13,2.73551275 12.3851242,2.08155982 11.6950362,2.00705025 L11.5648951,2 L4.45831039,2 C3.73376314,2 3.08127902,2.60568668 3.00702326,3.30462725 L3,3.43664632 L3,12.5747045 C3,13.2675985 3.62751912,13.9187669 4.32654151,13.9929774 L4.45831039,14 L7.64697846,14 C7.92312083,14 8.14697846,14.2238576 8.14697846,14.5 C8.14697846,14.7454599 7.9701033,14.9496084 7.73685409,14.9919443 L7.64697846,15 L4.45831039,15 C3.21406111,15 2.09319159,13.9581037 2.00551283,12.7292262 L2,12.5747045 L2,3.43664632 C2,2.18220288 3.04852903,1.0906776 4.30077919,1.00536268 L4.45831039,1 L11.5648951,1 Z M14.0713329,10.6002083 L10.5999922,14.0712523 C10.9994731,14.3418945 11.4813309,14.5 12,14.5 C13.3806213,14.5 14.5,13.3809704 14.5,12.0005307 C14.5,11.4817366 14.3419224,10.9997728 14.0713329,10.6002083 Z M12,9.5 C10.6193787,9.5 9.5,10.6190296 9.5,11.9994693 C9.5,12.4995642 9.64688756,12.9654359 9.89984871,13.3562675 L13.3564927,9.89992365 C12.9657433,9.64691354 12.4999744,9.5 12,9.5 Z M7.66696167,9 C7.94310404,9 8.16696167,9.22385763 8.16696167,9.5 C8.16696167,9.74545989 7.99008651,9.94960837 7.7568373,9.99194433 L7.66696167,10 L6.5,10 C6.22385763,10 6,9.77614237 6,9.5 C6,9.25454011 6.17687516,9.05039163 6.41012437,9.00805567 L6.5,9 L7.66696167,9 Z M10.2236068,3.0527864 C10.4431528,3.1625594 10.5466478,3.41205933 10.480202,3.63961698 L10.4472136,3.7236068 L8.4472136,7.7236068 C8.27712547,8.06378305 7.81593514,8.08995045 7.60106206,7.80210901 L7.5527864,7.7236068 L5.5527864,3.7236068 C5.42929178,3.47661755 5.52940395,3.17628103 5.7763932,3.0527864 C5.9959392,2.94301341 6.25763613,3.00991738 6.39981478,3.1996086 L6.4472136,3.2763932 L8,6.381 L9.5527864,3.2763932 C9.67628103,3.02940395 9.97661755,2.92929178 10.2236068,3.0527864 Z" id="形状结合" fill="#71757F" fill-rule="nonzero"></path>
    </g>
</svg>