<?xml version="1.0" encoding="UTF-8"?>
<svg width="16px" height="16px" viewBox="0 0 16 16" version="1.1" xmlns="http://www.w3.org/2000/svg" xmlns:xlink="http://www.w3.org/1999/xlink">
    <title>function icon/office</title>
    <g id="图标入库记录" stroke="none" stroke-width="1" fill="none" fill-rule="evenodd">
        <g id="语言-图标入库记录230112" transform="translate(-492.000000, -120.000000)" fill="#71757F" fill-rule="nonzero">
            <g id="ic_standalone_window_lined-2" transform="translate(492.000000, 120.000000)">
                <path d="M5.5,2 L3.5,2 C2.67157288,2 2,2.67157288 2,3.5 L2,5.5 C2,6.32842712 2.67157288,7 3.5,7 L5.5,7 C6.32842712,7 7,6.32842712 7,5.5 L7,3.5 C7,2.67157288 6.32842712,2 5.5,2 Z M3.5,3 L5.5,3 C5.77614237,3 6,3.22385763 6,3.5 L6,5.5 C6,5.77614237 5.77614237,6 5.5,6 L3.5,6 C3.22385763,6 3,5.77614237 3,5.5 L3,3.5 C3,3.22385763 3.22385763,3 3.5,3 Z M12,2 C13.0543618,2 13.9181651,2.81587779 13.9945143,3.85073766 L14,4 L14,5.5 C14,5.77614237 13.7761424,6 13.5,6 C13.2545401,6 13.0503916,5.82312484 13.0080557,5.58987563 L13,5.5 L13,4 C13,3.48716416 12.6139598,3.06449284 12.1166211,3.00672773 L12,3 L8.5,3 C8.22385763,3 8,2.77614237 8,2.5 C8,2.25454011 8.17687516,2.05039163 8.41012437,2.00805567 L8.5,2 L12,2 Z M2.50090027,10 C2.74636016,10 2.95050864,10.1768752 2.9928446,10.4101244 L3.00090027,10.5 L3.00090027,12 C3.00090027,12.5128358 3.38694046,12.9355072 3.88427914,12.9932723 L4.00090027,13 L7.50090027,13 C7.77704264,13 8.00090027,13.2238576 8.00090027,13.5 C8.00090027,13.7454599 7.82402511,13.9496084 7.5907759,13.9919443 L7.50090027,14 L4.00090027,14 C2.94653847,14 2.08273515,13.1841222 2.006386,12.1492623 L2.00090027,12 L2.00090027,10.5 C2.00090027,10.2238576 2.22475789,10 2.50090027,10 Z M3.5,8 L5.5,8 C5.77614237,8 6,8.22385763 6,8.5 C6,8.77614237 5.77614237,9 5.5,9 L3.5,9 C3.22385763,9 3,8.77614237 3,8.5 C3,8.22385763 3.22385763,8 3.5,8 Z M10.5,13 L12.5,13 C12.7761424,13 13,13.2238576 13,13.5 C13,13.7761424 12.7761424,14 12.5,14 L10.5,14 C10.2238576,14 10,13.7761424 10,13.5 C10,13.2238576 10.2238576,13 10.5,13 Z M12.5,7 L10.5,7 C9.67157288,7 9,7.67157288 9,8.5 L9,10.5 C9,11.3284271 9.67157288,12 10.5,12 L12.5,12 C13.3284271,12 14,11.3284271 14,10.5 L14,8.5 C14,7.67157288 13.3284271,7 12.5,7 Z M10.5,8 L12.5,8 C12.7761424,8 13,8.22385763 13,8.5 L13,10.5 C13,10.7761424 12.7761424,11 12.5,11 L10.5,11 C10.2238576,11 10,10.7761424 10,10.5 L10,8.5 C10,8.22385763 10.2238576,8 10.5,8 Z" id="形状结合"></path>
            </g>
        </g>
    </g>
</svg>