<?xml version="1.0" encoding="UTF-8"?>
<svg width="16px" height="16px" viewBox="0 0 16 16" version="1.1" xmlns="http://www.w3.org/2000/svg" xmlns:xlink="http://www.w3.org/1999/xlink">
    <title>function icon/offline</title>
    <g id="图标入库记录" stroke="none" stroke-width="1" fill="none" fill-rule="evenodd">
        <g id="API-starter-图标入库记录-221020" transform="translate(-332.000000, -124.000000)" fill="#71757F" fill-rule="nonzero">
            <g id="icon" transform="translate(332.000000, 124.000000)">
                <path d="M11.2974376,1 C11.8909973,1 12.4538925,1.26364602 12.8338801,1.7196312 L12.8338801,1.7196312 L14.8841106,4.1799078 C14.9564803,4.26675139 14.9930836,4.36559607 14.9998109,4.4638657 L15,7.5 C15,7.77614237 14.7761424,8 14.5,8 C14.2545401,8 14.0503916,7.82312484 14.0080557,7.58987563 L14,7.5 L14,5 L2,5 L2,12 C2,12.5128358 2.38604019,12.9355072 2.88337887,12.9932723 L3,13 L8.5,13 C8.77614237,13 9,13.2238576 9,13.5 C9,13.7454599 8.82312484,13.9496084 8.58987563,13.9919443 L8.5,14 L3,14 C1.9456382,14 1.08183488,13.1841222 1.00548574,12.1492623 L1,12 L1,4.5 L0.999103881,4.48973925 C1.00076203,4.38305327 1.03716291,4.27437954 1.11588936,4.1799078 L1.11588936,4.1799078 L3.16611986,1.7196312 C3.54610751,1.26364602 4.10900273,1 4.70256242,1 L4.70256242,1 Z M10.7843055,9.08859116 L10.8535534,9.14644661 L13.9991039,12.292 L14,10.5 C14,10.2545401 14.1768752,10.0503916 14.4101244,10.0080557 L14.5,10 C14.7454599,10 14.9496084,10.1768752 14.9919443,10.4101244 L15,10.5 L15,13.5 L14.9998676,13.5115408 C14.999389,13.5324012 14.9976125,13.5532373 14.9945381,13.5739178 L15,13.5 C15,13.536097 14.9961748,13.5713007 14.9889078,13.6052277 C14.985895,13.619112 14.982259,13.6331316 14.9780063,13.6470026 C14.9733734,13.6621687 14.9681113,13.676769 14.9622078,13.6910366 C14.9575165,13.7024306 14.9521701,13.714117 14.9463502,13.7256253 C14.9389,13.7402234 14.9311559,13.7538254 14.922812,13.7670103 C14.9153907,13.7788346 14.9072255,13.7906092 14.8984974,13.8020925 C14.8880797,13.8157542 14.8770608,13.8288187 14.8654113,13.8412864 C14.861643,13.845325 14.857641,13.8494658 14.8535534,13.8535534 L14.8412864,13.8654113 C14.8288187,13.8770608 14.8157542,13.8880797 14.8021439,13.8984173 L14.8535534,13.8535534 C14.8270676,13.8800392 14.7983497,13.9029324 14.7680052,13.922233 C14.7551547,13.9303571 14.7418644,13.9379841 14.7282091,13.945001 C14.7172263,13.9506761 14.7058503,13.9559807 14.6943293,13.9608342 C14.6798074,13.9669546 14.6651644,13.9723394 14.6502186,13.9770412 C14.635351,13.9816794 14.6202304,13.985656 14.6049871,13.9889143 C14.6001386,13.9899978 14.5950208,13.9910104 14.5898756,13.9919443 L14.5719041,13.9948333 C14.554539,13.9973429 14.5370672,13.9989382 14.5195665,13.9996194 L14.5,14 L11.5,14 C11.2238576,14 11,13.7761424 11,13.5 C11,13.2545401 11.1768752,13.0503916 11.4101244,13.0080557 L11.5,13 L13.2921039,12.999 L10.1464466,9.85355339 C9.95118446,9.65829124 9.95118446,9.34170876 10.1464466,9.14644661 C10.320013,8.97288026 10.5894374,8.95359511 10.7843055,9.08859116 Z M11.2974376,2 L4.70256242,2 C4.40578258,2 4.12433496,2.13182301 3.93434114,2.3598156 L3.93434114,2.3598156 L2.567,4 L13.432,4 L12.0656589,2.3598156 C11.902807,2.16439338 11.6727646,2.03962636 11.4234683,2.00796685 L11.4234683,2.00796685 L11.2974376,2 Z" id="形状结合"></path>
            </g>
        </g>
    </g>
</svg>