<?xml version="1.0" encoding="UTF-8"?>
<svg width="16px" height="16px" viewBox="0 0 16 16" version="1.1" xmlns="http://www.w3.org/2000/svg" xmlns:xlink="http://www.w3.org/1999/xlink">
    <title>function icon/overview</title>
    <g id="页面-1" stroke="none" stroke-width="1" fill="none" fill-rule="evenodd">
        <g id="API-starter-图标入库" transform="translate(-792.000000, -124.000000)">
            <g id="方格备份-10" transform="translate(760.000000, 100.000000)">
                <text id="图标" font-family="PingFangSC-Regular, PingFang SC" font-size="12" font-weight="normal" line-spacing="16" fill="#71757F">
                    <tspan x="27.136" y="61">概览</tspan>
                </text>
            </g>
            <path d="M803.5,138 C803.776142,138 804,138.223858 804,138.5 C804,138.776142 803.776142,139 803.5,139 L796.5,139 C796.223858,139 796,138.776142 796,138.5 C796,138.223858 796.223858,138 796.5,138 L803.5,138 Z M805.5,126 C806.328427,126 807,126.671573 807,127.5 L807,127.5 L807,135.5 C807,136.328427 806.328427,137 805.5,137 L805.5,137 L794.5,137 C793.671573,137 793,136.328427 793,135.5 L793,135.5 L793,127.5 C793,126.671573 793.671573,126 794.5,126 L794.5,126 Z M805.5,127 L794.5,127 C794.223858,127 794,127.223858 794,127.5 L794,127.5 L794,135.5 C794,135.776142 794.223858,136 794.5,136 L794.5,136 L805.5,136 C805.776142,136 806,135.776142 806,135.5 L806,135.5 L806,127.5 C806,127.223858 805.776142,127 805.5,127 L805.5,127 Z M803.439342,128.760357 L803.474342,128.841886 L804.36,131.5 L805,131.5 C805.24546,131.5 805.449608,131.676875 805.491944,131.910124 L805.5,132 C805.5,132.24546 805.323125,132.449608 805.089876,132.491944 L805,132.5 L804,132.5 C803.81553,132.5 803.648799,132.398822 803.562069,132.241339 L803.525658,132.158114 L802.869,130.189 L800.428746,134.257248 C800.262661,134.534057 799.889714,134.577682 799.663206,134.369896 L799.6,134.3 L797.085,130.947 L796.447214,132.223607 C796.376634,132.364767 796.24464,132.4626 796.093004,132.49129 L796,132.5 L795,132.5 C794.723858,132.5 794.5,132.276142 794.5,132 C794.5,131.75454 794.676875,131.550392 794.910124,131.508056 L795,131.5 L795.69,131.5 L796.552786,129.776393 C796.70516,129.471647 797.102682,129.411552 797.339656,129.632689 L797.4,129.7 L799.953,133.105 L802.571254,128.742752 C802.775335,128.402616 803.262615,128.43021 803.439342,128.760357 Z" id="形状结合" fill="#71757F" fill-rule="nonzero"></path>
        </g>
    </g>
</svg>