<?xml version="1.0" encoding="UTF-8"?>
<svg width="16px" height="16px" viewBox="0 0 16 16" version="1.1" xmlns="http://www.w3.org/2000/svg" xmlns:xlink="http://www.w3.org/1999/xlink">
    <title>function icon/parallel</title>
    <g id="图标入库记录" stroke="none" stroke-width="1" fill="none" fill-rule="evenodd">
        <g id="DevUI图标-入库记录230223" transform="translate(-172.000000, -120.000000)" fill="#71757F" fill-rule="nonzero">
            <g id="icon-line" transform="translate(172.000000, 120.000000)">
                <path d="M8.5,11 L7.5,11 C6.67157288,11 6,11.6715729 6,12.5 C6,13.3284271 6.67157288,14 7.5,14 L8.5,14 C9.32842712,14 10,13.3284271 10,12.5 C10,11.6715729 9.32842712,11 8.5,11 Z M7.5,12 L8.5,12 C8.77614237,12 9,12.2238576 9,12.5 C9,12.7761424 8.77614237,13 8.5,13 L7.5,13 C7.22385763,13 7,12.7761424 7,12.5 C7,12.2238576 7.22385763,12 7.5,12 Z M3.5,11 L2.5,11 C1.67157288,11 1,11.6715729 1,12.5 C1,13.3284271 1.67157288,14 2.5,14 L3.5,14 C4.32842712,14 5,13.3284271 5,12.5 C5,11.6715729 4.32842712,11 3.5,11 Z M2.5,12 L3.5,12 C3.77614237,12 4,12.2238576 4,12.5 C4,12.7761424 3.77614237,13 3.5,13 L2.5,13 C2.22385763,13 2,12.7761424 2,12.5 C2,12.2238576 2.22385763,12 2.5,12 Z M13.5,11 L12.5,11 C11.6715729,11 11,11.6715729 11,12.5 C11,13.3284271 11.6715729,14 12.5,14 L13.5,14 C14.3284271,14 15,13.3284271 15,12.5 C15,11.6715729 14.3284271,11 13.5,11 Z M12.5,12 L13.5,12 C13.7761424,12 14,12.2238576 14,12.5 C14,12.7761424 13.7761424,13 13.5,13 L12.5,13 C12.2238576,13 12,12.7761424 12,12.5 C12,12.2238576 12.2238576,12 12.5,12 Z M8,1 C8.24545989,1 8.44960837,1.17687516 8.49194433,1.41012437 L8.5,1.5 L8.499,8.293 L8.84644661,7.94644661 C9.02001296,7.77288026 9.28943736,7.75359511 9.4843055,7.88859116 L9.55355339,7.94644661 C9.72711974,8.12001296 9.74640489,8.38943736 9.61140884,8.5843055 L9.55355339,8.65355339 L8.35355339,9.85355339 L8.34128643,9.86541125 C8.32881868,9.8770608 8.31575424,9.88807975 8.30214392,9.89841727 L8.35355339,9.85355339 C8.32671912,9.88038766 8.29759357,9.90353418 8.26680652,9.92299295 C8.25568247,9.92998066 8.24404667,9.93670666 8.23212724,9.94296566 C8.21827569,9.95025039 8.20453886,9.95664853 8.1905951,9.96238944 C8.17802507,9.96759155 8.16473685,9.9724419 8.15119917,9.97673158 C8.13583471,9.98155198 8.12047425,9.98560387 8.10498705,9.98891432 C8.09437102,9.99123323 8.08338366,9.99320625 8.07227812,9.99481425 C8.05453902,9.99734289 8.03706725,9.99893824 8.01956651,9.99961939 C8.01360478,9.99986352 8.00681833,10 8,10 L7.97943052,9.99957935 C7.96226523,9.99887696 7.94512924,9.99729494 7.92809589,9.99483331 L8,10 C7.96390296,10 7.92869933,9.99617485 7.89477235,9.98890777 C7.87952575,9.98560387 7.86416529,9.98155198 7.84898836,9.97675865 C7.83526315,9.9724419 7.82197493,9.96759155 7.80896344,9.96220776 C7.79546114,9.95664853 7.78172431,9.95025039 7.76824181,9.94319503 C7.75595333,9.93670666 7.74431753,9.92998066 7.73298968,9.92281199 C7.72729809,9.91926681 7.72146362,9.91540543 7.7156945,9.91140884 L7.69785608,9.89841727 C7.68424576,9.88807975 7.67118132,9.8770608 7.65871357,9.86541125 L7.64644661,9.85355339 L6.44644661,8.65355339 C6.25118446,8.45829124 6.25118446,8.14170876 6.44644661,7.94644661 C6.62001296,7.77288026 6.88943736,7.75359511 7.0843055,7.88859116 L7.15355339,7.94644661 L7.499,8.293 L7.5,1.5 C7.5,1.22385763 7.72385763,1 8,1 Z M11,1 C11.2761424,1 11.5,1.22385763 11.5,1.5 L11.5,1.5 L11.5,3.54583654 L11.5069536,3.66356688 C11.5254182,3.819315 11.5803404,3.96912273 11.6679497,4.10053674 L11.6679497,4.10053674 L13.1641006,6.34476306 L13.2516709,6.48894117 C13.4141319,6.78376851 13.5,7.11572062 13.5,7.45416346 L13.5,7.45416346 L13.5,8.292 L13.8464466,7.94644661 C14.020013,7.77288026 14.2894374,7.75359511 14.4843055,7.88859116 L14.5535534,7.94644661 C14.7271197,8.12001296 14.7464049,8.38943736 14.6114088,8.5843055 L14.5535534,8.65355339 L13.3535534,9.85355339 L13.3412864,9.86541125 C13.3288187,9.8770608 13.3157542,9.88807975 13.3021439,9.89841727 L13.3535534,9.85355339 C13.3267191,9.88038766 13.2975936,9.90353418 13.2668065,9.92299295 C13.2556825,9.92998066 13.2440467,9.93670666 13.2321272,9.94296566 C13.2182757,9.95025039 13.2045389,9.95664853 13.1905951,9.96238944 C13.1780251,9.96759155 13.1647369,9.9724419 13.1511992,9.97673158 C13.1358347,9.98155198 13.1204743,9.98560387 13.1049871,9.98891432 C13.0713007,9.99617485 13.036097,10 13,10 L13.0739178,9.99453813 C13.0532373,9.9976125 13.0324012,9.999389 13.0115408,9.99986762 L13,10 C12.9962499,10 12.9925095,9.99995872 12.9887791,9.99987658 C12.968267,9.99944564 12.9470942,9.9976618 12.9260822,9.99453813 C12.9153197,9.99297209 12.9049881,9.99109597 12.8947723,9.98890777 C12.8795257,9.98560387 12.8641653,9.98155198 12.8489884,9.97675865 C12.8352631,9.9724419 12.8219749,9.96759155 12.8089634,9.96220776 C12.7954611,9.95664853 12.7817243,9.95025039 12.7682418,9.94319503 C12.7559533,9.93670666 12.7443175,9.92998066 12.7329897,9.92281199 C12.7272981,9.91926681 12.7214636,9.91540543 12.7156945,9.91140884 L12.6978561,9.89841727 C12.6842458,9.88807975 12.6711813,9.8770608 12.6587136,9.86541125 L12.6464466,9.85355339 L11.4464466,8.65355339 C11.2511845,8.45829124 11.2511845,8.14170876 11.4464466,7.94644661 C11.620013,7.77288026 11.8894374,7.75359511 12.0843055,7.88859116 L12.1535534,7.94644661 L12.5,8.293 L12.5,7.45416346 L12.4930464,7.33643312 C12.4745818,7.180685 12.4196596,7.03087727 12.3320503,6.89946326 L12.3320503,6.89946326 L10.8358994,4.65523694 L10.7483291,4.51105883 C10.5858681,4.21623149 10.5,3.88427938 10.5,3.54583654 L10.5,3.54583654 L10.5,1.5 L10.5080557,1.41012437 C10.5503916,1.17687516 10.7545401,1 11,1 Z M5,1 C5.24545989,1 5.44960837,1.17687516 5.49194433,1.41012437 L5.5,1.5 L5.5,3.54583654 C5.5,3.88427938 5.41413188,4.21623149 5.25167088,4.51105883 L5.16410059,4.65523694 L3.66794971,6.89946326 C3.58034036,7.03087727 3.52541816,7.180685 3.50695365,7.33643312 L3.5,7.45416346 L3.499,8.293 L3.84644661,7.94644661 C4.02001296,7.77288026 4.28943736,7.75359511 4.4843055,7.88859116 L4.55355339,7.94644661 C4.72711974,8.12001296 4.74640489,8.38943736 4.61140884,8.5843055 L4.55355339,8.65355339 L3.35355339,9.85355339 L3.34128643,9.86541125 C3.32881868,9.8770608 3.31575424,9.88807975 3.30214392,9.89841727 L3.35355339,9.85355339 C3.32671912,9.88038766 3.29759357,9.90353418 3.26680652,9.92299295 C3.25568247,9.92998066 3.24404667,9.93670666 3.23212724,9.94296566 C3.21827569,9.95025039 3.20453886,9.95664853 3.1905951,9.96238944 C3.17802507,9.96759155 3.16473685,9.9724419 3.15119917,9.97673158 C3.13583471,9.98155198 3.12047425,9.98560387 3.10498705,9.98891432 C3.09501186,9.99109597 3.08468032,9.99297209 3.07424349,9.99452568 C3.05290576,9.9976618 3.03173298,9.99944564 3.01053735,9.99988964 C3.00749052,9.99995872 3.00375008,10 3,10 L2.98845923,9.99986762 C2.96759882,9.999389 2.94676266,9.9976125 2.92608223,9.99453813 L3,10 C2.96390296,10 2.92869933,9.99617485 2.89477235,9.98890777 C2.87952575,9.98560387 2.86416529,9.98155198 2.84898836,9.97675865 C2.83526315,9.9724419 2.82197493,9.96759155 2.80896344,9.96220776 C2.79546114,9.95664853 2.78172431,9.95025039 2.76824181,9.94319503 C2.75595333,9.93670666 2.74431753,9.92998066 2.73298968,9.92281199 C2.72729809,9.91926681 2.72146362,9.91540543 2.7156945,9.91140884 L2.69785608,9.89841727 C2.68424576,9.88807975 2.67118132,9.8770608 2.65871357,9.86541125 L2.64644661,9.85355339 L1.44644661,8.65355339 C1.25118446,8.45829124 1.25118446,8.14170876 1.44644661,7.94644661 C1.62001296,7.77288026 1.88943736,7.75359511 2.0843055,7.88859116 L2.15355339,7.94644661 L2.499,8.292 L2.5,7.45416346 C2.5,7.11572062 2.58586812,6.78376851 2.74832912,6.48894117 L2.83589941,6.34476306 L4.33205029,4.10053674 C4.41965964,3.96912273 4.47458184,3.819315 4.49304635,3.66356688 L4.5,3.54583654 L4.5,1.5 C4.5,1.22385763 4.72385763,1 5,1 Z" id="形状结合"></path>
            </g>
        </g>
    </g>
</svg>