<?xml version="1.0" encoding="UTF-8"?>
<svg width="16px" height="16px" viewBox="0 0 16 16" version="1.1" xmlns="http://www.w3.org/2000/svg" xmlns:xlink="http://www.w3.org/1999/xlink">
    <title>function icon/partner</title>
    <g id="图标入库记录" stroke="none" stroke-width="1" fill="none" fill-rule="evenodd">
        <g id="API-starter-图标入库记录-221124" transform="translate(-92.000000, -120.000000)" fill="#71757F" fill-rule="nonzero">
            <g id="编组-14" transform="translate(92.000000, 120.000000)">
                <path d="M3.75735931,2.75735931 C4.50290569,2.01181294 5.6906196,1.97792447 6.47636302,2.6556939 L6.58578644,2.75735931 L8,4.17157288 L9.41421356,2.75735931 C10.1597599,2.01181294 11.3474738,1.97792447 12.1332173,2.6556939 L12.2426407,2.75735931 L15.0710678,5.58578644 C15.8166142,6.33133281 15.8505027,7.51904672 15.1727332,8.30479014 L15.0710678,8.41421356 L9.41421356,14.0710678 C8.66866719,14.8166142 7.48095328,14.8505027 6.69520986,14.1727332 L6.58578644,14.0710678 L0.928932188,8.41421356 C0.183385813,7.66866719 0.149497341,6.48095328 0.827266773,5.69520986 L0.928932188,5.58578644 L3.75735931,2.75735931 Z M4.46446609,3.46446609 L1.63603897,6.29289322 C1.27340927,6.65552292 1.24750715,7.22736831 1.55833261,7.61988597 L1.63603897,7.70710678 L7.29289322,13.363961 C7.65552292,13.7265907 8.22736831,13.7524929 8.61988597,13.4416674 L8.70710678,13.363961 L12.2419336,9.82913423 L10.1213203,7.70710678 L9.53940751,8.28901961 C8.77435338,9.05407374 7.68344558,9.37654096 6.63946203,9.16842033 L6.44435602,9.1231584 L6.25089586,9.06533191 L6.19490742,9.04666909 C5.40899245,8.78469744 4.98425247,7.93521748 5.24622412,7.1493025 C5.3051355,6.97256838 5.39631826,6.80874886 5.51474201,6.66598333 L5.6085889,6.56298398 L7.29289322,4.87867966 L5.87867966,3.46446609 C5.54394455,3.12973099 5.03094281,3.08191169 4.64527439,3.32100819 L4.55168691,3.38675973 L4.46446609,3.46446609 Z M10.1213203,6.29289322 L12.9497475,9.12132034 L14.363961,7.70710678 C14.6986961,7.37237167 14.7465154,6.85936994 14.5074189,6.47370151 L14.4416674,6.38011403 L14.363961,6.29289322 L11.5355339,3.46446609 C11.1450096,3.0739418 10.5118446,3.0739418 10.1213203,3.46446609 L6.31569568,7.27009076 C6.26080825,7.32497819 6.21945383,7.39189105 6.19490742,7.46553026 C6.11728619,7.69839396 6.22052728,7.94799905 6.4284191,8.06192235 L6.51113519,8.0979858 L6.72718168,8.16340533 C7.42453842,8.33895985 8.16482624,8.1642016 8.71005069,7.69531346 L8.83230073,7.58191283 L10.1213203,6.29289322 Z M7.89393398,11.3487067 C8.06750033,11.1751404 8.33692474,11.1558552 8.53179288,11.2908513 L8.60104076,11.3487067 L9.66170094,12.4093669 L8.95459415,13.1164737 L7.89393398,12.0558135 C7.69867184,11.8605513 7.69867184,11.5439689 7.89393398,11.3487067 Z M9.52027958,9.72236111 C9.69384593,9.54879476 9.96327033,9.52950961 10.1581385,9.66450566 L10.2273864,9.72236111 L11.2880465,10.7830213 L10.5809398,11.4901281 L9.52027958,10.4294679 C9.32501743,10.2342057 9.32501743,9.91762325 9.52027958,9.72236111 Z" id="形状"></path>
            </g>
        </g>
    </g>
</svg>