<?xml version="1.0" encoding="UTF-8"?>
<svg width="16px" height="16px" viewBox="0 0 16 16" version="1.1" xmlns="http://www.w3.org/2000/svg" xmlns:xlink="http://www.w3.org/1999/xlink">
    <title>pasting-2</title>
    <g id="页面-1" stroke="none" stroke-width="1" fill="none" fill-rule="evenodd">
        <g id="API测试图标" transform="translate(-477.000000, -407.000000)">
            <g id="pasting-2" transform="translate(477.000000, 407.000000)">
                <g transform="translate(1.000000, 1.000000)" fill="#71757F" fill-rule="nonzero" id="形状结合">
                    <path d="M13.5,9 C13.7454599,9 13.9496084,9.17687516 13.9919443,9.41012437 L14,9.5 L14,10 C14,10.5128358 13.6139598,10.9355072 13.1166211,10.9932723 L13,11 L12.5,11 C12.2238576,11 12,10.7761424 12,10.5 C12,10.2545401 12.1768752,10.0503916 12.4101244,10.0080557 L12.5,10 L13,10 L13,9.5 C13,9.22385763 13.2238576,9 13.5,9 Z M13.5,7 C13.7761424,7 14,7.22385763 14,7.5 C14,7.77614237 13.7761424,8 13.5,8 C13.2238576,8 13,7.77614237 13,7.5 C13,7.22385763 13.2238576,7 13.5,7 Z M13.5,5 C13.7761424,5 14,5.22385763 14,5.5 C14,5.77614237 13.7761424,6 13.5,6 C13.2238576,6 13,5.77614237 13,5.5 C13,5.22385763 13.2238576,5 13.5,5 Z M13.5,3 C13.7761424,3 14,3.22385763 14,3.5 C14,3.77614237 13.7761424,4 13.5,4 C13.2238576,4 13,3.77614237 13,3.5 C13,3.22385763 13.2238576,3 13.5,3 Z M4.5,0 C4.77614237,0 5,0.223857625 5,0.5 C5,0.745459889 4.82312484,0.94960837 4.58987563,0.991944331 L4.5,1 L4,1 L4,1.5 C4,1.77614237 3.77614237,2 3.5,2 C3.25454011,2 3.05039163,1.82312484 3.00805567,1.58987563 L3,1.5 L3,1 C3,0.487164161 3.38604019,0.0644928393 3.88337887,0.00672773133 L4,0 L4.5,0 Z M13,0 C13.5128358,0 13.9355072,0.38604019 13.9932723,0.883378875 L14,1 L14,1.5 C14,1.77614237 13.7761424,2 13.5,2 C13.2545401,2 13.0503916,1.82312484 13.0080557,1.58987563 L13,1.5 L13,1 L12.5,1 C12.2238576,1 12,0.776142375 12,0.5 C12,0.254540111 12.1768752,0.0503916296 12.4101244,0.00805566941 L12.5,0 L13,0 Z M6.5,0 C6.77614237,0 7,0.223857625 7,0.5 C7,0.776142375 6.77614237,1 6.5,1 C6.22385763,1 6,0.776142375 6,0.5 C6,0.223857625 6.22385763,0 6.5,0 Z M8.5,0 C8.77614237,0 9,0.223857625 9,0.5 C9,0.776142375 8.77614237,1 8.5,1 C8.22385763,1 8,0.776142375 8,0.5 C8,0.223857625 8.22385763,0 8.5,0 Z M10.5,0 C10.7761424,0 11,0.223857625 11,0.5 C11,0.776142375 10.7761424,1 10.5,1 C10.2238576,1 10,0.776142375 10,0.5 C10,0.223857625 10.2238576,0 10.5,0 Z"></path>
                    <path d="M10,3 C10.5522847,3 11,3.44771525 11,4 L11,4 L11,13 C11,13.5522847 10.5522847,14 10,14 L10,14 L1,14 C0.44771525,14 0,13.5522847 0,13 L0,13 L0,4 C0,3.44771525 0.44771525,3 1,3 L1,3 Z M10,4 L1,4 L1,13 L10,13 L10,4 Z M5.5,5.5 C5.77614237,5.5 6,5.72385763 6,6 L6,8 L8,8 C8.27614237,8 8.5,8.22385763 8.5,8.5 C8.5,8.77614237 8.27614237,9 8,9 L6,9 L6,11 C6,11.2761424 5.77614237,11.5 5.5,11.5 C5.22385763,11.5 5,11.2761424 5,11 L5,9 L3,9 C2.72385763,9 2.5,8.77614237 2.5,8.5 C2.5,8.22385763 2.72385763,8 3,8 L5,8 L5,6 C5,5.72385763 5.22385763,5.5 5.5,5.5 Z"></path>
                </g>
            </g>
        </g>
    </g>
</svg>