<?xml version="1.0" encoding="UTF-8"?>
<svg width="16px" height="16px" viewBox="0 0 16 16" version="1.1" xmlns="http://www.w3.org/2000/svg" xmlns:xlink="http://www.w3.org/1999/xlink">
    <title>function icon/payment</title>
    <g id="图标入库记录" stroke="none" stroke-width="1" fill="none" fill-rule="evenodd">
        <g id="API-starter-图标入库记录-221020" transform="translate(-172.000000, -124.000000)" fill="#71757F" fill-rule="nonzero">
            <g id="编组-3" transform="translate(172.000000, 124.000000)">
                <path d="M15,9 C15,9.77536144 14.558781,10.4476707 13.9137219,10.7795488 C13.9081554,10.7892351 13.9012641,10.7987073 13.8940039,10.8079737 L13.8321819,10.8737047 L9.90051095,14.3685233 C9.49373067,14.7301058 8.98157276,14.9478195 8.44275426,14.9917364 L8.23960136,15 L2.5,15 C1.72030388,15 1.07955132,14.4051119 1.00686658,13.64446 L1,13.5 L1,12.177033 C1,11.6108574 1.31818582,11.0973345 1.81505488,10.8425141 L1.94291399,10.7843179 L2.03093381,10.7499643 C1.45711006,10.4315222 1.05637538,9.83903625 1.00548574,9.14926234 L1,9 L1,4 C1,2.9456382 1.81587779,2.08183488 2.85073766,2.00548574 L3,2 L13,2 C14.0543618,2 14.9181651,2.81587779 14.9945143,3.85073766 L15,4 L15,9 Z M6.66377812,8.55540047 L6.56298398,8.64412281 L5.30552503,9.90158175 C4.70465301,10.5024538 4.00085866,10.989273 3.22848362,11.3393946 L2.93569534,11.4642383 L2.31430466,11.7127946 C2.15159393,11.7778789 2.03689817,11.9222533 2.00744858,12.0909262 L2,12.177033 L2,13.5 C2,13.7454599 2.17687516,13.9496084 2.41012437,13.9919443 L2.5,14 L8.23960136,14 C8.55449099,14 8.85999608,13.9009501 9.11376819,13.7189513 L9.23614711,13.621114 L12.184,11 L8.13497819,11.001278 C8.02737809,11.1374039 7.91494174,11.2697927 7.7978584,11.3981818 L7.56298398,11.6441228 L6.35355339,12.8535534 C6.15829124,13.0488155 5.84170876,13.0488155 5.64644661,12.8535534 C5.47288026,12.679987 5.45359511,12.4105626 5.58859116,12.2156945 L5.64644661,12.1464466 L6.85587719,10.937016 C7.34149795,10.4513953 7.74565287,9.89066026 8.0527864,9.2763932 C8.20543416,8.9710977 8.0816887,8.59986135 7.7763932,8.4472136 C7.41216684,8.26510041 6.97983806,8.31113582 6.66377812,8.55540047 Z M14,6 L2,6 L2,9 C2,9.51283584 2.38604019,9.93550716 2.88337887,9.99327227 L3,10 L3.5,10 L3.58631106,10.0095121 C3.8651089,9.83060864 4.12916547,9.62888683 4.37567679,9.40619557 L4.59841825,9.19447497 L5.85587719,7.93701602 C6.4801777,7.31271552 7.43392218,7.15794409 8.2236068,7.5527864 C9.0228808,7.9524234 9.34685059,8.9243328 8.9472136,9.7236068 L8.801,10 L13,10 C13.5128358,10 13.9355072,9.61395981 13.9932723,9.11662113 L14,9 L14,6 Z M13,3 L3,3 C2.48716416,3 2.06449284,3.38604019 2.00672773,3.88337887 L2,4 L2,5 L14,5 L14,4 C14,3.48716416 13.6139598,3.06449284 13.1166211,3.00672773 L13,3 Z" id="形状结合"></path>
            </g>
        </g>
    </g>
</svg>