<?xml version="1.0" encoding="UTF-8"?>
<svg width="16px" height="16px" viewBox="0 0 16 16" version="1.1" xmlns="http://www.w3.org/2000/svg" xmlns:xlink="http://www.w3.org/1999/xlink">
    <title>PDM-sync-同步PDM系统数据</title>
    <g id="PDM-sync-同步PDM系统数据" stroke="none" stroke-width="1" fill="none" fill-rule="evenodd">
        <path d="M12.9461941,10.5 C13.191654,10.5 13.3958024,10.6768752 13.4381384,10.9101244 L13.4461941,11 L13.4461941,13 C13.4461941,13.2761424 13.2223365,13.5 12.9461941,13.5 C12.7007342,13.5 12.4965857,13.3231248 12.4542497,13.0898756 L12.4461941,13 L12.4461473,12.232561 C11.1777138,13.3610415 9.53700278,14 7.79619408,14 C5.91484303,14 4.15040463,13.2537055 2.84644661,11.9497475 C2.65118446,11.7544853 2.65118446,11.4379028 2.84644661,11.2426407 C3.04170876,11.0473785 3.35829124,11.0473785 3.55355339,11.2426407 C4.67183413,12.3609214 6.18278558,13 7.79619408,13 C9.28109297,13 10.6792064,12.4586734 11.7642912,11.5006559 L10.9461941,11.5 C10.7007342,11.5 10.4965857,11.3231248 10.4542497,11.0898756 L10.4461941,11 C10.4461941,10.7545401 10.6230692,10.5503916 10.8563184,10.5080557 L10.9461941,10.5 L12.9461941,10.5 Z M5.93391814,2.00438605 C8.25881214,1.69440018 9.5,3.0183339 9.5,5.7 C9.5,8.37560599 8.26926018,9.7294198 5.95024814,9.4975186 C5.69464724,9.47195851 5.5,9.25687572 5.5,9 L5.5,9 L5.5,2.5 C5.5,2.24939869 5.68551513,2.03750645 5.93391814,2.00438605 Z M11,2 C11.2037245,2 11.383857,2.12303954 11.4607798,2.30578161 L11.4871956,2.38757025 L12.5,6.775 L13.5128044,2.38757025 C13.5586138,2.1890629 13.7190069,2.04120994 13.914366,2.00734838 L14,2 L14.5,2 C14.7454599,2 14.9496084,2.17687516 14.9919443,2.41012437 L15,2.5 L15,9 C15,9.27614237 14.7761424,9.5 14.5,9.5 C14.2545401,9.5 14.0503916,9.32312484 14.0080557,9.08987563 L14,9 L14,4.722 L12.9871956,9.11242975 C12.8753965,9.59689256 12.2216339,9.62717149 12.0420893,9.20326653 L12.0128044,9.11242975 L11,4.727 L11,9 C11,9.24545989 10.8231248,9.44960837 10.5898756,9.49194433 L10.5,9.5 C10.2545401,9.5 10.0503916,9.32312484 10.0080557,9.08987563 L10,9 L10,2.5 C10,2.25454011 10.1768752,2.05039163 10.4101244,2.00805567 L10.5,2 L11,2 Z M2.7500154,2 C3.99264927,2 5,3.00736781 5,4.25 C5,5.44088536 4.07481772,6.41567814 2.90402279,6.49481323 L2.74997337,6.5 L2,6.5 L2,9 C2,9.27614237 1.77614237,9.5 1.5,9.5 C1.25454011,9.5 1.05039163,9.32312484 1.00805567,9.08987563 L1,9 L1,2.5 C1,2.25454011 1.17687516,2.05039163 1.41012437,2.00805567 L1.5,2 L2.7500154,2 Z M6.5566994,2.95972904 L6.5,2.961 L6.5,8.521 L6.54232481,8.52179457 C7.83015175,8.48336556 8.45136918,7.67086747 8.49725007,5.91521612 L8.49725007,5.91521612 L8.5,5.7 C8.5,3.80080409 7.89006301,2.95373609 6.5566994,2.95972904 L6.5566994,2.95972904 Z M2.75001015,3 L2,3 L2,5.5 L2.74998715,5.5 C3.44034639,5.5 4,4.94037129 4,4.25 C4,3.60279679 3.50812854,3.07047316 2.8778142,3.00645487 L2.75001015,3 Z" id="形状结合" fill="#7A7E87" fill-rule="nonzero"></path>
    </g>
</svg>