<?xml version="1.0" encoding="UTF-8"?>
<svg width="16px" height="16px" viewBox="0 0 16 16" version="1.1" xmlns="http://www.w3.org/2000/svg" xmlns:xlink="http://www.w3.org/1999/xlink">
    <title>icon icon-personal-data</title>
    <g id="icon-icon-personal-data" stroke="none" stroke-width="1" fill="none" fill-rule="evenodd">
        <g transform="translate(2.500000, 1.000000)" fill="#71757F" fill-rule="nonzero" id="形状结合">
            <path d="M5.5,0 C7.709139,0 9.5,1.790861 9.5,4 C9.5,5.4438899 8.73496034,6.70909522 7.5881218,7.41237515 C8.2578178,7.68509636 8.86993766,8.09176307 9.3890873,8.6109127 C9.58434944,8.80617485 9.58434944,9.12275734 9.3890873,9.31801948 C9.19382515,9.51328163 8.87724266,9.51328163 8.68198052,9.31801948 C7.84318886,8.47922783 6.71016701,8 5.5,8 L5.5,8 C3.01471863,8 1,10.0147186 1,12.5 C1,12.7761424 0.776142375,13 0.5,13 C0.223857625,13 0,12.7761424 0,12.5 C0,10.2017839 1.40959649,8.23279676 3.41138565,7.41044231 C2.26459636,6.70836196 1.5,5.44347151 1.5,4 C1.5,1.790861 3.290861,0 5.5,0 Z M11.2727922,9.94436508 L11.5556349,10.2272078 C11.6727922,10.3443651 11.6727922,10.5343146 11.5556349,10.6514719 L9.76661639,12.4404904 C9.68707344,12.5200333 9.59467954,12.5855851 9.49332522,12.6343853 L8.82700271,12.9552072 C8.74605443,12.9941823 8.6493147,12.9777418 8.58578644,12.9142136 C8.52225817,12.8506853 8.50581767,12.7539456 8.54479276,12.6729973 L8.86561472,12.0066748 C8.91441494,11.9053205 8.97996666,11.8129266 9.05950961,11.7333836 L10.8485281,9.94436508 C10.9656854,9.82720779 11.1556349,9.82720779 11.2727922,9.94436508 Z M5.5,1 C3.84314575,1 2.5,2.34314575 2.5,4 C2.5,5.65685425 3.84314575,7 5.5,7 C7.15685425,7 8.5,5.65685425 8.5,4 C8.5,2.34314575 7.15685425,1 5.5,1 Z"></path>
        </g>
    </g>
</svg>