<?xml version="1.0" encoding="UTF-8"?>
<svg width="16px" height="16px" viewBox="0 0 16 16" version="1.1" xmlns="http://www.w3.org/2000/svg" xmlns:xlink="http://www.w3.org/1999/xlink">
    <title>function icon/point</title>
    <g id="图标入库记录" stroke="none" stroke-width="1" fill="none" fill-rule="evenodd">
        <g id="DevUI图标-入库记录230223" transform="translate(-412.000000, -530.000000)" fill="#71757F" fill-rule="nonzero">
            <g id="icon" transform="translate(412.000000, 530.000000)">
                <path d="M8,1 C8.09098833,1 8.18157121,1.001736 8.2717173,1.00517668 C8.29626132,1.00614419 8.32060031,1.00720412 8.34491561,1.00838887 C8.41262444,1.01163284 8.48025565,1.01589204 8.54761955,1.02110477 C8.57664344,1.02344479 8.60565337,1.02587825 8.63462473,1.0284894 C8.69141656,1.03348506 8.74783041,1.03924753 8.80404196,1.04567582 C8.83677061,1.04958004 8.86975604,1.05359727 8.90268541,1.05784505 C8.98304634,1.06801544 9.06265018,1.07967398 9.14180708,1.09266033 C9.14818918,1.09394262 9.15450663,1.09498926 9.16082179,1.09604444 C9.25032684,1.11074327 9.33936859,1.12740122 9.42779963,1.14572741 C9.44421644,1.14940619 9.46129229,1.15301172 9.47834911,1.1566801 C9.54986814,1.17178067 9.62046122,1.18812597 9.69063637,1.20553 C9.71766713,1.21252249 9.74435343,1.21931001 9.77098782,1.22625256 C9.83369337,1.24231522 9.89608457,1.2595188 9.95812017,1.27755779 C9.97564559,1.28291705 9.99391884,1.28830734 10.0121654,1.29377123 C10.086068,1.31566309 10.1586325,1.33872578 10.2306736,1.36292854 C10.2460779,1.36831457 10.2617103,1.37362385 10.2773212,1.37898782 C10.3602161,1.40729073 10.4423336,1.4372813 10.5237157,1.46874912 C10.5504869,1.47921682 10.5776599,1.48990922 10.6047596,1.50077014 C10.6525983,1.51986417 10.6998518,1.53943146 10.7468411,1.55949795 C10.7793169,1.573399 10.8116616,1.58749083 10.8438929,1.60182564 C10.9033181,1.62827277 10.9622739,1.65551427 11.0207798,1.68354467 C11.041884,1.6935805 11.0632316,1.70393271 11.0845249,1.71439332 C11.1347774,1.73919359 11.1845347,1.76440615 11.2339458,1.79019115 C11.2640778,1.80575441 11.2940135,1.82164419 11.3238326,1.83775187 C11.3973274,1.87766026 11.4701477,1.9187303 11.5421442,1.96105108 C11.5645819,1.97398331 11.5863429,1.98693149 11.6080348,1.99999895 C11.6536937,2.02778315 11.699364,2.05602532 11.7446814,2.08477392 C11.7883075,2.11214166 11.8317157,2.14035193 11.8748195,2.16905073 C11.8998468,2.18603405 11.9245339,2.20270248 11.9491082,2.21952353 C11.9929161,2.24918574 12.0365866,2.27981331 12.0799213,2.31095072 C12.2074925,2.40292718 12.331774,2.49870395 12.45265,2.5984597 L12.4788812,2.61998654 C12.4947722,2.63323678 12.510609,2.64656081 12.5263912,2.65995836 C12.5755737,2.70189391 12.6245356,2.74461304 12.6728905,2.78799529 C12.6909924,2.80409687 12.7090528,2.82047806 12.7270348,2.83695909 C12.7680555,2.87466143 12.8084678,2.91257136 12.8484255,2.95095106 C12.9356708,3.03472372 13.0208399,3.1208729 13.1039465,3.20938275 L12.9290511,3.02964185 C14.2079588,4.29798704 15,6.05649796 15,8 C15,8.36378666 14.9722074,8.72426358 14.9172439,9.07922278 C14.8749883,9.35211301 14.6195122,9.53907936 14.346622,9.4968238 C14.0737317,9.45456824 13.8867654,9.1990921 13.9290209,8.92620187 C13.9508322,8.7853428 13.9676572,8.64342441 13.9794397,8.50062095 L10.9928994,8.50077571 C10.9878128,8.67949445 10.9800032,8.85708337 10.969502,9.03326368 C10.9530717,9.30891683 10.7162913,9.5190585 10.4406382,9.50262824 C10.164985,9.48619797 9.95484334,9.24941759 9.9712736,8.97376444 L9.992,8.5 L6.00774744,8.50077157 C6.03713599,9.44842735 6.1485914,10.3312958 6.3156486,11.1002147 C6.85929808,11.0335388 7.42419701,11 8,11 C8.1722635,11 8.34377321,11.002989 8.51429727,11.008938 C8.79027175,11.0185659 9.00618832,11.2500924 8.99656042,11.5260669 C8.98693252,11.8020414 8.75540604,12.0179579 8.47943156,12.00833 C8.32052859,12.0027864 8.16064255,12 8,12 C7.51313474,12 7.03579076,12.0257471 6.57563499,12.0751013 C6.93976364,13.1972905 7.43067664,13.9184912 7.91640174,13.9935146 L8,14 L8.25829751,13.9945488 C8.28234602,13.9935317 8.30637324,13.9923725 8.33037838,13.9910715 C8.68930062,13.9716058 9.04270814,13.9205135 9.38802662,13.8387517 C9.65673953,13.7751279 9.92615164,13.9413855 9.98977541,14.2100984 C10.0533992,14.4788113 9.8871416,14.7482234 9.61842869,14.8118472 C9.27236667,14.8937851 8.91949523,14.9493136 8.56204135,14.9777393 C8.55523975,14.9781497 8.5484081,14.9788129 8.54153329,14.9793394 L8.40814374,14.988285 C8.36951029,14.9905086 8.33082738,14.9924166 8.29209781,14.9940083 L8.27145412,14.9948264 L8.27145412,14.9948264 L8,15 L8,15 L7.993,15 L7.75935025,14.995941 C7.74965716,14.9956135 7.73996907,14.9952663 7.73028602,14.9948995 L8,15 C7.88452523,15 7.76949628,14.9971873 7.6549926,14.9916066 C7.58737556,14.9883672 7.51974435,14.984108 7.45238045,14.9788952 C7.42320376,14.9765427 7.39418624,14.9741079 7.36520731,14.9714954 C7.30858344,14.9665149 7.25216959,14.9607525 7.19595804,14.9543242 C7.16271027,14.9503593 7.12941869,14.9463016 7.09618425,14.9420089 C7.02199374,14.9326228 6.94836625,14.9219273 6.87511938,14.9100953 C6.8620424,14.9077506 6.84843326,14.9055092 6.83483478,14.9032282 C6.7463801,14.8886401 6.65899607,14.8722599 6.57220037,14.8542726 C6.55447761,14.850322 6.53642628,14.8465056 6.51839622,14.8426189 C6.45051807,14.8282705 6.38327446,14.8127225 6.31640945,14.7962135 C6.28268265,14.7875991 6.2489508,14.7790026 6.21530222,14.7701586 C6.15802022,14.7553818 6.10130252,14.7396932 6.04487872,14.7233135 C6.02592556,14.7175468 6.00660891,14.711852 5.98732208,14.706075 C5.91393204,14.6843369 5.84136747,14.6612742 5.76932639,14.6370715 C5.75369179,14.6316064 5.73839163,14.6264098 5.72311213,14.6211608 C5.56583514,14.5673061 5.41062192,14.5076019 5.25818397,14.4426456 C5.21902943,14.4259297 5.17998317,14.4088818 5.14110296,14.3914799 C5.08780426,14.3676038 5.03483268,14.3430677 4.98222453,14.3178938 C4.96015939,14.307407 4.93848689,14.2969052 4.91687026,14.2862918 C4.85469083,14.2556524 4.79259978,14.2239801 4.73105265,14.1914171 C4.71659854,14.1839389 4.70203339,14.1761723 4.68749584,14.1683541 C4.53119615,14.0840513 4.37872724,13.9943313 4.23009316,13.8991478 C4.2037303,13.8825724 4.17766838,13.8656393 4.15171559,13.8485299 C4.11085918,13.821278 4.07015649,13.7938236 4.02976104,13.7659557 C3.99349848,13.7412636 3.9572193,13.7157259 3.92117241,13.6898355 C3.89546214,13.671051 3.87006792,13.6525525 3.8448037,13.6338882 C3.79822684,13.5997853 3.7519633,13.5647064 3.70611352,13.529035 C3.6499313,13.4850557 3.5942461,13.4403702 3.53926809,13.3948604 C3.51909282,13.3783857 3.49934658,13.3618471 3.47968499,13.3451945 C3.42733982,13.3006731 3.37536731,13.2553519 3.32407888,13.2092842 C3.30056581,13.1883007 3.27708278,13.1669096 3.25373343,13.1453493 C3.21873436,13.1129352 3.18398267,13.0802027 3.14956855,13.0471215 C3.13157047,13.0298796 3.11376453,13.0125734 3.09604233,12.9951658 L3.05025253,12.9497475 C1.78350169,11.6829966 1,9.93299662 1,8 C1,6.15047368 1.7172966,4.46848097 2.88887819,3.21703347 C2.98484704,3.11448362 3.07722542,3.02142168 3.17189596,2.93119569 C3.20507214,2.89989493 3.23878284,2.86839661 3.27280254,2.83723013 C3.28999545,2.82114017 3.30701469,2.80569825 3.32410295,2.79034538 C3.37731632,2.74289751 3.43129081,2.69588346 3.48598323,2.64969282 C3.51971373,2.62080816 3.55399929,2.59239588 3.58853256,2.56432726 C3.63722997,2.52516723 3.68602272,2.48658545 3.73533529,2.448646 C3.77170507,2.42023836 3.80816374,2.39275019 3.84487137,2.3656324 C3.87006792,2.34744746 3.89546214,2.32894903 3.92098477,2.3106181 C3.96209948,2.28066462 4.00334121,2.25171768 4.04487513,2.22322975 C4.08422805,2.19664917 4.12389752,2.17002595 4.16385153,2.1438006 C4.18607201,2.12882251 4.20844582,2.1143232 4.23089862,2.09995443 C4.37941629,2.00526323 4.53154869,1.91575893 4.68721657,1.83197556 C4.70206449,1.82376548 4.7166302,1.81599953 4.73122324,1.80828545 C4.79259978,1.77601986 4.85469083,1.74434764 4.91730864,1.71358345 C4.93852601,1.70304156 4.96019913,1.6925406 4.98192729,1.68215179 C5.03483268,1.6569323 5.08780426,1.63239616 5.14112926,1.60850776 C5.18265316,1.58989854 5.22434834,1.57172653 5.26622727,1.55396098 C5.2966786,1.54100235 5.32723945,1.5282816 5.35790892,1.51577211 C5.39716671,1.49984089 5.43659636,1.48419251 5.47617782,1.46890151 C5.55766642,1.4372813 5.63978389,1.40729073 5.7226038,1.3788103 C5.73776978,1.37379018 5.75340577,1.36847858 5.76906308,1.36322184 C5.84136747,1.33872578 5.91393204,1.31566309 5.98699867,1.2937619 C6.00665905,1.28812597 6.02597558,1.28243162 6.04532146,1.27681977 C6.10130252,1.26030683 6.15802022,1.2446182 6.21502205,1.22963036 C6.24899885,1.22098043 6.28273031,1.21238465 6.31654264,1.20403776 C6.38327446,1.1872775 6.45051807,1.1717295 6.51812478,1.15715799 C6.53647009,1.15348263 6.5545211,1.14966646 6.57259303,1.14592071 C6.65899607,1.12774012 6.7463801,1.11135995 6.83431993,1.0966194 C6.84847058,1.09448354 6.8620794,1.09224233 6.87569874,1.09004077 C6.94836625,1.07807269 7.02199374,1.06737718 7.0959832,1.05783691 C7.12944868,1.05369428 7.1627393,1.04963682 7.196085,1.04581535 C7.25216959,1.03924753 7.30858344,1.03348506 7.36519153,1.02839649 C7.39420817,1.02589006 7.42322475,1.0234555 7.45227858,1.02119945 C7.51974435,1.01589204 7.58737556,1.01163284 7.65526061,1.00834067 C7.76950522,1.00281251 7.88452981,1 8,1 L7.7282827,1.00517668 C7.81842879,1.001736 7.90901167,1 8,1 Z M13.4128806,10.7169697 L13.4595725,10.8030404 L14.405,13.011 L15.019238,10.8626394 C15.086671,10.6266239 15.3128246,10.4789216 15.5487299,10.502293 L15.6373606,10.519238 C15.8733761,10.586671 16.0210784,10.8128246 15.997707,11.0487299 L15.980762,11.1373606 L14.980762,14.6373606 C14.8601162,15.0596208 14.3069997,15.1223186 14.0830914,14.7771783 L14.0404275,14.6969596 L13,12.268 L11.9595725,14.6969596 C11.78658,15.1006089 11.2299738,15.0929717 11.0514326,14.7223238 L11.019238,14.6373606 L10.019238,11.1373606 C9.94337588,10.8718431 10.0971219,10.5951002 10.3626394,10.519238 C10.598655,10.451805 10.84354,10.5657908 10.9483255,10.7784349 L10.980762,10.8626394 L11.594,13.011 L12.5404275,10.8030404 C12.7002729,10.4300676 13.2006463,10.4013774 13.4128806,10.7169697 Z M5.57196751,12.2264406 L5.28710046,12.2845157 C4.93229248,12.3634546 4.59513032,12.4577975 4.28025606,12.5662487 L4.161,12.609 L4.22311904,12.6626498 L4.41793807,12.8138611 C4.44680433,12.8353759 4.47587067,12.8566372 4.50513379,12.8776416 C4.55782551,12.9158977 4.61159445,12.9531954 4.66592994,12.989584 L4.50513379,12.8776416 C4.57000444,12.9242044 4.63584213,12.9695052 4.70261092,13.0135079 L4.66592994,12.989584 C4.73471703,13.0356507 4.80441211,13.0802605 4.87497157,13.1233884 L4.70261092,13.0135079 C4.80335334,13.0799003 4.90621549,13.1433378 5.01107399,13.203697 C5.05923826,13.2318409 5.10790706,13.2589494 5.15694254,13.28537 L5.01107399,13.203697 C5.08280128,13.2449851 5.15546267,13.2848327 5.22901869,13.3232005 L5.15694254,13.28537 C5.33131169,13.3793211 5.51031759,13.4645743 5.69335957,13.54079 L5.45943254,13.4371545 C5.5652495,13.4866836 5.67275003,13.5332146 5.78182481,13.5766381 L5.69335957,13.54079 C5.77421477,13.5744568 5.85585751,13.6063601 5.93823602,13.6364707 L5.78182481,13.5766381 C5.8589252,13.6073324 5.93681216,13.6364741 6.01544708,13.6640245 L6.01541297,13.6640799 L6.22389177,13.7321367 C5.97120248,13.3136996 5.75213157,12.8050075 5.57196751,12.2264406 Z M5.00691378,8.50085518 L2.02061151,8.50090367 C2.12515537,9.7658096 2.62206534,10.919423 3.38934059,11.8397431 C3.96232973,11.5930108 4.61505954,11.3965789 5.31967044,11.2557478 C5.1426584,10.4225299 5.03433136,9.48906185 5.00691378,8.50085518 Z M3.38844012,4.16156998 L3.33693349,4.22399905 C2.59926091,5.1338411 2.1224983,6.26383492 2.02052886,7.50009733 L5.00688609,7.50014375 C5.03425837,6.51156721 5.14259848,5.57775137 5.32050709,4.74262573 C4.61525965,4.60344082 3.96274237,4.40708582 3.38844012,4.16156998 Z M9.68444365,4.90020989 L9.48246792,4.92431186 C9.00134581,4.9742151 8.50489242,5 8,5 C7.42382714,5 6.85857828,4.96641839 6.31448188,4.90173819 C6.1484986,5.66926757 6.03706151,6.5522943 6.00772014,7.50010947 L9.99227986,7.50010947 C9.96293849,6.5522943 9.8515014,5.66926757 9.68444365,4.90020989 Z M12.6098206,4.15925104 L12.4186915,4.24015095 C11.8929702,4.44918943 11.3073561,4.61866962 10.6805034,4.74408088 C10.8574015,5.57775137 10.9657416,6.51156721 10.9931139,7.50014375 L13.9794711,7.50009733 C13.8750687,6.23433814 13.377775,5.07997908 12.6098206,4.15925104 Z M8,2 C7.48762749,2 6.96093963,2.73791492 6.57674642,3.92245124 C6.91821946,3.96162641 7.26971558,3.98525248 7.62755862,3.99495947 L7.62755862,3.99495947 L8,4 C8.48672323,4 8.96386564,3.97426902 9.42375865,3.924943 C9.03906037,2.73791492 8.51237251,2 8,2 Z M6.22389177,2.26786332 L6.20404113,2.2734137 C6.16308566,2.28624506 6.12231915,2.29950366 6.0817468,2.31318427 L6.20420623,2.27334988 C6.13377335,2.29539155 6.06381995,2.31871889 5.99437664,2.34331457 L6.0817468,2.31318427 C5.96004643,2.35422047 5.84009313,2.39905376 5.72202779,2.44754323 C5.69792531,2.45722749 5.67365753,2.46737053 5.64946157,2.47767213 L5.72202779,2.44754323 C5.65783762,2.47390615 5.59420552,2.50134981 5.53115413,2.52985157 L5.64946157,2.47767213 C5.57028525,2.51138199 5.4918781,2.54678961 5.41428921,2.58386719 L5.53115413,2.52985157 C5.45798681,2.56292613 5.38560149,2.59742553 5.31403356,2.6333144 L5.41428921,2.58386719 C5.34101993,2.61888055 5.26848035,2.65538311 5.19671182,2.69335147 L5.31403356,2.6333144 C5.2437709,2.66854872 5.17429609,2.70512228 5.10564259,2.7430016 L5.19671182,2.69335147 C5.12791827,2.72974595 5.05983318,2.76748722 4.99249296,2.80655469 L5.10564259,2.7430016 C5.00604464,2.79795442 4.90817527,2.85565537 4.81213671,2.91600223 C4.77259465,2.94032574 4.73373162,2.96537756 4.69514999,2.99088536 L4.81213671,2.91600223 C4.74566565,2.95777004 4.68007162,3.00080535 4.61538853,3.04507426 L4.69514999,2.99088536 C4.62443417,3.03763832 4.5546637,3.08592313 4.48588544,3.13571329 L4.61538853,3.04507426 C4.54687804,3.09196263 4.47938947,3.14023492 4.41296311,3.18985084 L4.22399905,3.33693349 C4.20262973,3.35425909 4.18138186,3.37172862 4.1602569,3.38934059 L4.28015175,3.43368978 C4.67781867,3.57066771 5.1110202,3.68513955 5.5704134,3.77449767 C5.75213157,3.1949925 5.97120248,2.68630042 6.22389177,2.26786332 Z M10.4280325,3.77355937 L10.7131451,3.71524258 C11.0678254,3.63623541 11.4047814,3.54181019 11.71936,3.43326298 L11.71936,3.43326298 L11.838,3.389 L11.7760524,3.33667857 C11.7059104,3.27977062 11.6345831,3.22451811 11.5621263,3.17095269 C11.5454799,3.15904359 11.5287715,3.14682984 11.5119979,3.13470071 L11.5621263,3.17095269 C11.489334,3.11713917 11.4154019,3.0650284 11.3403866,3.01465244 L11.5119979,3.13470071 C11.4393141,3.08214252 11.365406,3.03117308 11.2903243,2.98184333 L11.3403866,3.01465244 C11.256539,2.95834528 11.1713382,2.90420549 11.0848634,2.85227788 L11.2903243,2.98184333 C11.1937697,2.91840553 11.0952744,2.85767941 10.9949467,2.79977329 L11.0848634,2.85227788 C11.012042,2.80854903 10.938317,2.76638894 10.8637359,2.72582436 L10.9949467,2.79977329 C10.9128046,2.75236334 10.8294342,2.70684373 10.744895,2.66327389 L10.8637359,2.72582436 C10.7751675,2.67765208 10.6853916,2.6317299 10.5944875,2.5881026 L10.744895,2.66327389 C10.6775182,2.62854926 10.609399,2.59506311 10.5405675,2.56284553 L10.5944875,2.5881026 C10.4965723,2.54111049 10.3973481,2.4967809 10.2969139,2.45516982 L10.5405675,2.56284553 C10.4421828,2.51679519 10.3423427,2.47333659 10.2411351,2.43255763 L10.2969139,2.45516982 C10.2121523,2.42005209 10.1265289,2.38687061 10.0401032,2.35565906 L10.2411351,2.43255763 C10.1591786,2.3995354 10.0763254,2.36827034 9.99262203,2.33880913 L9.99293921,2.33885002 L9.77672135,2.26887889 C10.0291519,2.68712341 10.2480142,3.1954605 10.4280325,3.77355937 Z" id="形状结合"></path>
            </g>
        </g>
    </g>
</svg>