<?xml version="1.0" encoding="UTF-8"?>
<svg width="16px" height="16px" viewBox="0 0 16 16" version="1.1" xmlns="http://www.w3.org/2000/svg" xmlns:xlink="http://www.w3.org/1999/xlink">
    <!-- Generator: Sketch 63.1 (92452) - https://sketch.com -->
    <title>function icon/copy point</title>
    <desc>Created with Sketch.</desc>
    <g id="DevUI风格图标汇总-220907" stroke="none" stroke-width="1" fill="none" fill-rule="evenodd">
        <g id="API-starter-图标入库记录-220919" transform="translate(-92.000000, -124.000000)" fill="#71757F" fill-rule="nonzero">
            <g id="编组-3" transform="translate(92.000000, 124.000000)">
                <path d="M12.5,2 C13.2796961,2 13.9204487,2.59488808 13.9931334,3.35553999 L14,3.5 L14,10.5 C14,11.2796961 13.4051119,11.9204487 12.64446,11.9931334 L12.5,12 L12,12 L12,12.5 C12,13.2796961 11.4051119,13.9204487 10.64446,13.9931334 L10.5,14 L3.5,14 C2.67157288,14 2,13.3284271 2,12.5 L2,12.5 L2,5.5 C2,4.67157288 2.67157288,4 3.5,4 L3.5,4 L4,4 L4,3.5 C4,2.72030388 4.59488808,2.07955132 5.35553999,2.00686658 L5.5,2 L12.5,2 Z M10.5,5 L3.5,5 C3.22385763,5 3,5.22385763 3,5.5 L3,5.5 L3,12.5 C3,12.7761424 3.22385763,13 3.5,13 L3.5,13 L10.5,13 C10.7761424,13 11,12.7761424 11,12.5 L11,12.5 L11,5.5 C11,5.22385763 10.7761424,5 10.5,5 L10.5,5 Z M12.5,3 L5.5,3 C5.25454011,3 5.05039163,3.17687516 5.00805567,3.41012437 L5,3.5 L5,4 L10.5,4 C11.2796961,4 11.9204487,4.59488808 11.9931334,5.35553999 L12,5.5 L12,11 L12.5,11 C12.7454599,11 12.9496084,10.8231248 12.9919443,10.5898756 L13,10.5 L13,3.5 C13,3.25454011 12.8231248,3.05039163 12.5898756,3.00805567 L12.5,3 Z M7.5,8.5 C7.77614237,8.5 8,8.72385763 8,9 C8,9.27614237 7.77614237,9.5 7.5,9.5 L6.5,9.5 C6.22385763,9.5 6,9.27614237 6,9 C6,8.72385763 6.22385763,8.5 6.5,8.5 L7.5,8.5 Z" id="形状结合"></path>
            </g>
        </g>
    </g>
</svg>