<?xml version="1.0" encoding="UTF-8"?>
<svg width="16px" height="16px" viewBox="0 0 16 16" version="1.1" xmlns="http://www.w3.org/2000/svg" xmlns:xlink="http://www.w3.org/1999/xlink">
    <title>定位-position</title>
    <g id="定位-position" stroke="none" stroke-width="1" fill="none" fill-rule="evenodd">
        <path d="M8,0 C8.27614237,-5.07265313e-17 8.5,0.223857625 8.5,0.5 L8.50033196,1.51897008 C11.6916033,1.76189756 14.2386615,4.3092646 14.4811062,7.50067087 L15.5,7.5 C15.7761424,7.5 16,7.72385763 16,8 C16,8.27614237 15.7761424,8.5 15.5,8.5 L14.4810299,8.50033196 C14.2381279,11.691269 11.691269,14.2381279 8.50033196,14.4810299 L8.5,15.5 C8.5,15.7761424 8.27614237,16 8,16 C7.72385763,16 7.5,15.7761424 7.5,15.5 L7.50067087,14.4811062 C4.3092646,14.2386615 1.76189756,11.6916033 1.51897008,8.50033196 L0.5,8.5 C0.223857625,8.5 3.38176876e-17,8.27614237 0,8 C-3.38176876e-17,7.72385763 0.223857625,7.5 0.5,7.5 L1.51889382,7.50067087 C1.76136392,4.30893031 4.30893031,1.76136392 7.50067087,1.51889382 L7.5,0.5 C7.5,0.223857625 7.72385763,5.07265313e-17 8,0 Z M8.50061211,2.5224767 L8.5,4.5 C8.5,4.77614237 8.27614237,5 8,5 C7.72385763,5 7.5,4.77614237 7.5,4.5 L7.50039328,2.52238608 C4.86150871,2.75999871 2.75999871,4.86150871 2.52238608,7.50039328 L4.5,7.5 C4.77614237,7.5 5,7.72385763 5,8 C5,8.27614237 4.77614237,8.5 4.5,8.5 L2.5224767,8.50061211 C2.7605325,11.139025 4.86184385,13.2400315 7.50039328,13.4776139 L7.5,11.5 C7.5,11.2238576 7.72385763,11 8,11 C8.27614237,11 8.5,11.2238576 8.5,11.5 L8.50061211,13.4775233 C11.1386899,13.2394977 13.2394977,11.1386899 13.4775233,8.50061211 L11.5,8.5 C11.2238576,8.5 11,8.27614237 11,8 C11,7.72385763 11.2238576,7.5 11.5,7.5 L13.4776139,7.50039328 C13.2400315,4.86184385 11.139025,2.7605325 8.50061211,2.5224767 Z M8,7 C8.55228475,7 9,7.44771525 9,8 C9,8.55228475 8.55228475,9 8,9 C7.44771525,9 7,8.55228475 7,8 C7,7.44771525 7.44771525,7 8,7 Z" fill="#7A7E87" fill-rule="nonzero"></path>
    </g>
</svg>