<?xml version="1.0" encoding="UTF-8"?>
<svg width="16px" height="16px" viewBox="0 0 16 16" version="1.1" xmlns="http://www.w3.org/2000/svg" xmlns:xlink="http://www.w3.org/1999/xlink">
    <title>function icon/postman</title>
    <g id="图标入库记录" stroke="none" stroke-width="1" fill="none" fill-rule="evenodd">
        <g id="API-starter-图标入库记录-221103" transform="translate(-92.000000, -510.000000)" fill="#71757F" fill-rule="nonzero">
            <g id="编组" transform="translate(92.000000, 510.000000)">
                <path d="M8.8911351,1.05754872 C12.7262161,1.54989085 15.4348077,5.05695347 14.9424426,8.89068859 C14.4518276,12.7250071 10.9434343,15.4340554 7.10893666,14.9422967 C3.274439,14.4499545 0.565847395,10.9428919 1.05762916,7.10915678 C1.54941092,3.27483831 5.05722082,0.565789937 8.8911351,1.05754872 Z M2.04950422,7.23637263 C1.62794728,10.5226629 3.94981968,13.5284628 7.2361408,13.9504201 C10.5233546,14.3719919 13.5301042,12.0495326 13.950589,8.76330522 C14.3726328,5.47711787 12.0508167,2.4713909 8.76391191,2.04942283 C5.47742615,1.62788022 2.47097862,3.95022573 2.04950422,7.23637263 Z M4.64710306,11.1712294 L5.46202475,11.986113 L4.04624835,11.8880869 C4.03278383,11.8869044 4.02034946,11.8803929 4.01170883,11.8699995 C4.00306819,11.8596062 3.99893719,11.8461922 4.00023395,11.8327388 C4.00149849,11.8211445 4.00667277,11.810326 4.01490521,11.802064 L4.64710306,11.1712294 Z M7.67331362,9.09678468 L8.2561627,9.67960653 C7.4192341,10.4144688 7.08319878,10.3390078 5.66342112,11.0505306 C5.60119874,11.0826747 5.56898279,11.153161 5.58539671,11.2212427 L5.7207724,11.7980629 C5.7297606,11.8345991 5.71315718,11.8726269 5.68025045,11.8908729 C5.64734371,11.9091189 5.6062925,11.9030592 5.58006169,11.8760837 L4.95519948,11.2532512 L4.75913812,11.0565322 L6.45960045,9.35885446 L7.67331362,9.09678468 Z M10.2193739,6.98633041 C10.1206764,7.88323587 9.67392664,8.34259699 8.37485343,9.5735914 L7.81469119,9.01342916 L10.1400157,7.07101963 C10.1689989,7.04527204 10.1955626,7.01692387 10.2193739,6.98633041 Z M7.19716461,8.62132477 L7.53860479,8.962749 L6.80504189,9.12145792 C6.78700686,9.12552044 6.76853655,9.11669921 6.76036123,9.10011892 C6.75118526,9.08427763 6.75393171,9.06422944 6.76702999,9.05143928 L7.19716461,8.62132477 Z M9.88272891,6.23491303 C10.0301882,6.27654672 10.1425308,6.39631133 10.1746535,6.54612388 C10.2067762,6.69593644 10.1534111,6.85122866 10.0359832,6.94965398 L7.70199209,8.90073006 L7.30987854,8.50861651 L9.47113975,6.34749367 C9.57687599,6.23660423 9.73526962,6.19327934 9.88272891,6.23491303 Z M6.45093107,7.8751261 L7.03711452,8.46061531 L5.71736817,8.74469094 C5.69469548,8.75057243 5.67101179,8.7397063 5.66068375,8.71868402 C5.64784006,8.69871224 5.65152499,8.67235202 5.66935314,8.65666751 L6.45093107,7.8751261 Z M9.75322803,6.06675225 C9.60472697,6.06870214 9.4628469,6.12851388 9.35777094,6.23346331 L7.19617875,8.39491672 L6.56266195,7.76139992 C8.72388058,5.6001813 9.43405968,5.7475839 9.75322803,6.06675225 Z M11.6438197,4.28227716 L10.5701504,5.35789685 C10.5551227,5.37279749 10.5466696,5.39308303 10.5466696,5.41424519 C10.5466696,5.43540736 10.5551227,5.4556929 10.5701504,5.47059353 L11.4017439,6.30214825 C10.9356376,6.53350991 10.3738479,6.44144833 10.0059738,6.0734207 C9.54595574,5.61190723 9.53067794,4.87296394 9.96928353,4.39424805 C10.4078891,3.91553215 11.1453778,3.86621863 11.6438197,4.28227716 Z M11.7611898,4.3916396 C12.2019944,4.87176743 12.1859894,5.61329818 11.7251785,6.0734207 C11.6700226,6.12788019 11.6094699,6.17658824 11.5444553,6.21879273 L10.7388698,5.41391177 L11.7611898,4.3916396 Z" id="形状结合"></path>
            </g>
        </g>
    </g>
</svg>