<?xml version="1.0" encoding="UTF-8"?>
<svg width="14px" height="14px" viewBox="0 0 14 14" version="1.1" xmlns="http://www.w3.org/2000/svg" xmlns:xlink="http://www.w3.org/1999/xlink">
    <title>primarize</title>
    <g id="切图" stroke="none" stroke-width="1" fill="none" fill-rule="evenodd">
        <g id="入库图标时间表备份-2" transform="translate(-497.000000, -10725.000000)" fill="#71757F" fill-rule="nonzero">
            <g id="primarize" transform="translate(497.499947, 10725.500000)">
                <path d="M13.0936826,5.94769495 C13.0936826,6.09370131 13.029996,6.23083101 12.9219473,6.32485822 L12.8519493,6.37582844 L10.0930514,8.039 L10.0936826,10.947695 C10.0936826,11.0937013 10.029996,11.230831 9.9219473,11.3248582 L9.8519493,11.3758285 L6.82545225,13.201529 C6.79996212,13.2181655 6.77676571,13.2295484 6.75289512,13.2390733 L6.82545225,13.201529 C6.79803648,13.2180673 6.77000107,13.2316207 6.74163341,13.2423519 C6.72219027,13.250639 6.70217104,13.2566878 6.68185795,13.2614719 C6.67253026,13.2629842 6.66317491,13.2649347 6.65381551,13.2666036 C6.63514158,13.2705372 6.6160758,13.2727923 6.596911,13.2739493 C6.58965109,13.2737552 6.58262168,13.2740134 6.5756057,13.2741204 C6.55709567,13.275117 6.53834148,13.2744098 6.51961956,13.2726366 C6.50937838,13.2707573 6.4993575,13.2694484 6.48940253,13.2678398 C6.47088233,13.265947 6.45209323,13.2618987 6.43348146,13.2567287 C6.42832701,13.2540314 6.42293805,13.2524186 6.41757998,13.2507172 C6.40382459,13.2476933 6.39047519,13.2428595 6.37727057,13.237421 L6.35315882,13.2253032 C6.3479906,13.2228459 6.34286449,13.220302 6.33778296,13.2176729 L6.29726722,13.1956838 L3.23013472,11.228697 C3.11065517,11.1520734 3.03052923,11.0291567 3.00713946,10.8917445 L3.00005136,10.8078121 L3.00005136,8.005 L0.230134723,6.228697 C0.110655173,6.15207341 0.0305292332,6.02915668 0.00713946318,5.89174447 L5.1362254e-05,5.80781207 L5.1362254e-05,2.15690646 L5.1362254e-05,2.14537414 C-0.00245332682,1.96865331 0.0866544432,1.79095151 0.265999483,1.69594715 L0.265999483,1.69594715 L3.35773354,0.0581643036 C3.51146074,-0.0232695264 3.69646492,-0.0189468764 3.84622102,0.0695778836 L3.84622102,0.0695778836 L6.43905136,1.603 L9.3577335,0.0581643036 C9.4814592,-0.00737683638 9.6253955,-0.0173477764 9.7548892,0.0273393536 L9.8487599,0.0710888436 L12.8506555,1.86960895 C12.8929388,1.89494206 12.9297016,1.92495962 12.9609464,1.95843905 C12.9673808,1.9661625 12.9741955,1.97397977 12.9807655,1.98200509 C13.013367,2.02077783 13.0383602,2.06336908 13.0566121,2.108196 C13.0588132,2.11454764 13.0615788,2.1216931 13.0641828,2.12891576 C13.0835848,2.18272196 13.0932211,2.23855003 13.0936826,2.29443968 L13.0936826,5.94769495 Z M9.093053,8.218 L7.07505136,9.37699999 L7.069053,11.8853514 L9.093053,10.6653514 L9.093053,8.218 Z M4.00005136,8.253 L4.00005136,10.5343514 L6.06905136,11.861 L6.07505136,9.23599999 L4.00005136,8.253 Z M6.640053,6.28435141 L4.646053,7.45235141 L6.714053,8.43135141 L8.577053,7.36135141 L6.640053,6.28435141 Z M12.093053,3.177 L10.0750514,4.376 L10.069053,6.88600019 L12.093053,5.66500019 L12.093053,3.177 Z M1.00005136,3.001 L1.00005136,5.53400019 L3.06905136,6.861 L3.07605136,4.193 L1.00005136,3.001 Z M6.09305136,3.194 L4.07505136,4.376 L4.07005136,6.631 L6.11279601,5.43426037 C6.1083636,5.41871715 6.10466442,5.40286483 6.10173826,5.38674319 L6.09368259,5.29686756 L6.09305136,3.194 Z M7.09305136,3.054 L7.09368259,5.29686756 C7.09368259,5.32827199 7.09078733,5.35900019 7.08524917,5.38879981 L9.0700514,6.492 L9.0760514,4.193 L7.09305136,3.054 Z M3.578053,1.07200019 L1.534053,2.15500019 L3.733053,3.41700019 L5.648053,2.29600019 L3.578053,1.07200019 Z M9.576053,1.07300019 L7.534053,2.15500019 L9.732053,3.41700019 L11.617053,2.29600019 L9.576053,1.07300019 Z" id="形状结合"></path>
            </g>
        </g>
    </g>
</svg>