<?xml version="1.0" encoding="UTF-8"?>
<svg width="16px" height="16px" viewBox="0 0 16 16" version="1.1" xmlns="http://www.w3.org/2000/svg" xmlns:xlink="http://www.w3.org/1999/xlink">
    <title>icon icon-privacy</title>
    <g id="icon-icon-privacy" stroke="none" stroke-width="1" fill="none" fill-rule="evenodd">
        <g transform="translate(2.000000, 1.000000)" fill="#71757F" id="形状结合">
            <path d="M6.61147626,0.127147007 L11.1114763,2.08756629 C11.6519467,2.32302156 12,2.84660846 12,3.42419902 L12,8.6153817 C12,9.03236365 11.8177627,9.42955357 11.4990237,9.70727013 L6.99902365,13.6281087 C6.42992402,14.1239638 5.57007598,14.1239638 5.00097635,13.6281087 L0.500976346,9.70727013 C0.18223726,9.42955357 0,9.03236365 0,8.6153817 L0,3.42419902 C0,2.84660846 0.34805327,2.32302156 0.888523739,2.08756629 L5.38852374,0.127147007 C5.77766603,-0.0423823357 6.22233397,-0.0423823357 6.61147626,0.127147007 Z M5.87592793,0.991110795 L5.79617458,1.01823549 L1.29617458,2.97865477 C1.14175445,3.04592771 1.03445689,3.18376349 1.00695188,3.34301572 L1,3.42419902 L1,8.6153817 C1,8.72657689 1.03887728,8.83354978 1.10882633,8.91928808 L1.16699212,8.97934451 L5.66699212,12.9001831 C5.83297951,13.0448075 6.07316832,13.0628855 6.25770606,12.9544172 L6.33300788,12.9001831 L10.8330079,8.97934451 C10.918005,8.90528676 10.9738817,8.80574136 10.9928325,8.69772059 L11,8.6153817 L11,3.42419902 C11,3.25917314 10.9147625,3.10737266 10.7769574,3.01794395 L10.7038254,2.97865477 L6.20382542,1.01823549 C6.10005414,0.973027666 5.98443739,0.963986101 5.87592793,0.991110795 Z M6,3.5 C7.1045695,3.5 8,4.3954305 8,5.5 C8,6.43155158 7.36311708,7.21435119 6.50102216,7.43672788 L6.50102216,7.43672788 L6.5,9.5 L6.49194433,9.58987563 C6.44960837,9.82312484 6.24545989,10 6,10 C5.72385763,10 5.5,9.77614237 5.5,9.5 L5.5,9.5 L5.49998077,7.43698631 C4.63737692,7.21495822 4,6.43191279 4,5.5 C4,4.3954305 4.8954305,3.5 6,3.5 Z M6,4.5 C5.44771525,4.5 5,4.94771525 5,5.5 C5,6.05228475 5.44771525,6.5 6,6.5 C6.55228475,6.5 7,6.05228475 7,5.5 C7,4.94771525 6.55228475,4.5 6,4.5 Z"></path>
        </g>
    </g>
</svg>