<?xml version="1.0" encoding="UTF-8"?>
<svg width="16px" height="16px" viewBox="0 0 16 16" version="1.1" xmlns="http://www.w3.org/2000/svg" xmlns:xlink="http://www.w3.org/1999/xlink">
    <title>function icon/project</title>
    <g id="页面-1" stroke="none" stroke-width="1" fill="none" fill-rule="evenodd">
        <g id="API-starter-图标入库" transform="translate(-892.000000, -204.000000)">
            <g id="方格备份-21" transform="translate(860.000000, 180.000000)">
                <text id="图标" font-family="PingFangSC-Regular, PingFang SC" font-size="12" font-weight="normal" line-spacing="16" fill="#71757F">
                    <tspan x="15.136" y="61">工程文件</tspan>
                </text>
            </g>
            <path d="M897.085786,206 C897.483611,206 897.865142,206.158035 898.146447,206.43934 L898.146447,206.43934 L899.56066,207.853553 C899.654428,207.947322 899.781605,208 899.914214,208 L899.914214,208 L905.5,208 C906.328427,208 907,208.671573 907,209.5 L907,209.5 L907,216.5 C907,217.328427 906.328427,218 905.5,218 L905.5,218 L894.5,218 C893.671573,218 893,217.328427 893,216.5 L893,216.5 L893,207.5 C893,206.671573 893.671573,206 894.5,206 L894.5,206 Z M897.085786,207 L894.5,207 C894.223858,207 894,207.223858 894,207.5 L894,207.5 L894,216.5 C894,216.776142 894.223858,217 894.5,217 L894.5,217 L905.5,217 C905.776142,217 906,216.776142 906,216.5 L906,216.5 L906,209.5 C906,209.223858 905.776142,209 905.5,209 L905.5,209 L899.914214,209 C899.516389,209 899.134858,208.841965 898.853553,208.56066 L898.853553,208.56066 L897.43934,207.146447 C897.345572,207.052678 897.218395,207 897.085786,207 L897.085786,207 Z M900.85505,210.650768 C901.085707,210.734721 901.217049,210.970752 901.177056,211.204414 L901.153887,211.291625 L899.785806,215.050395 C899.69136,215.309884 899.404439,215.443678 899.14495,215.349232 C898.914293,215.265279 898.782951,215.029248 898.822944,214.795586 L898.846113,214.708375 L900.214194,210.949605 C900.30864,210.690116 900.595561,210.556322 900.85505,210.650768 Z M902.784306,211.188591 L902.853553,211.246447 L904.253553,212.646447 C904.42712,212.820013 904.446405,213.089437 904.311409,213.284306 L904.253553,213.353553 L902.853553,214.753553 C902.658291,214.948816 902.341709,214.948816 902.146447,214.753553 C901.97288,214.579987 901.953595,214.310563 902.088591,214.115694 L902.146447,214.046447 L903.193,213 L902.146447,211.953553 C901.97288,211.779987 901.953595,211.510563 902.088591,211.315694 L902.146447,211.246447 C902.320013,211.07288 902.589437,211.053595 902.784306,211.188591 Z M897.753553,211.246447 C897.92712,211.420013 897.946405,211.689437 897.811409,211.884306 L897.753553,211.953553 L896.707,213 L897.753553,214.046447 C897.92712,214.220013 897.946405,214.489437 897.811409,214.684306 L897.753553,214.753553 C897.579987,214.92712 897.310563,214.946405 897.115694,214.811409 L897.046447,214.753553 L895.646447,213.353553 C895.47288,213.179987 895.453595,212.910563 895.588591,212.715694 L895.646447,212.646447 L897.046447,211.246447 C897.241709,211.051184 897.558291,211.051184 897.753553,211.246447 Z" id="形状结合" fill="#71757F" fill-rule="nonzero"></path>
        </g>
    </g>
</svg>