<?xml version="1.0" encoding="UTF-8"?>
<svg width="24px" height="24px" viewBox="0 0 24 24" version="1.1" xmlns="http://www.w3.org/2000/svg" xmlns:xlink="http://www.w3.org/1999/xlink">
    <title>project-nav</title>
    <g id="project-nav" stroke="none" stroke-width="1" fill="none" fill-rule="evenodd">
        <path d="M19.3142857,16.999 C19.6929953,16.999 20,17.3347864 20,17.749 C20,18.1286958 19.7420307,18.442491 19.4073331,18.4921534 L19.3142857,18.499 L4.68571429,18.499 C4.30700475,18.499 4,18.1632136 4,17.749 C4,17.3693042 4.25796926,17.055509 4.59266692,17.0058466 L4.68571429,16.999 L19.3142857,16.999 Z M19.3142857,10.999 C19.6929953,10.999 20,11.3347864 20,11.749 C20,12.1286958 19.7420307,12.442491 19.4073331,12.4921534 L19.3142857,12.499 L4.68571429,12.499 C4.30700475,12.499 4,12.1632136 4,11.749 C4,11.3693042 4.25796926,11.055509 4.59266692,11.0058466 L4.68571429,10.999 L19.3142857,10.999 Z M19.3142857,5 C19.6929953,5 20,5.33578644 20,5.75 C20,6.12969577 19.7420307,6.44349096 19.4073331,6.49315338 L19.3142857,6.5 L4.68571429,6.5 C4.30700475,6.5 4,6.16421356 4,5.75 C4,5.37030423 4.25796926,5.05650904 4.59266692,5.00684662 L4.68571429,5 L19.3142857,5 Z" id="形状结合" fill="#71757F"></path>
    </g>
</svg>