<?xml version="1.0" encoding="UTF-8"?>
<svg width="16px" height="16px" viewBox="0 0 16 16" version="1.1" xmlns="http://www.w3.org/2000/svg" xmlns:xlink="http://www.w3.org/1999/xlink">
    <title>property-setting</title>
    <g id="property-setting" stroke="none" stroke-width="1" fill="none" fill-rule="evenodd">
        <path d="M13.1988471,8.51967527 L13.3095089,8.55299804 L13.4432314,8.61439733 L13.6395977,8.722826 L13.7624608,8.7968046 L13.9861088,8.94169838 C14.0789329,9.00552107 14.1441624,9.05638155 14.1858703,9.09416322 C14.4036869,9.29130063 14.5112422,9.6178215 14.4678171,9.91162919 L14.4443759,10.0199571 L14.429152,10.0597861 L14.4121079,10.1579677 C14.3993042,10.2783653 14.4221124,10.3987789 14.4793001,10.504541 C14.5273001,10.5936797 14.5945104,10.6620227 14.6585072,10.7019241 L14.7206023,10.7320616 L14.8167362,10.7557491 C15.1082484,10.8268182 15.3539727,11.073518 15.4445778,11.3618421 L15.4710699,11.4716531 L15.482221,11.5608017 L15.4940766,11.7334072 L15.5,11.9993214 L15.4940315,12.2795985 C15.4914669,12.3333336 15.4881357,12.3816529 15.4841554,12.4251231 L15.4777127,12.4867622 L15.4718565,12.5282483 C15.4217926,12.8245702 15.2028959,13.096298 14.9250024,13.2090639 L14.8182414,13.2436374 L14.7589523,13.2569701 C14.643852,13.2937098 14.5442706,13.3763159 14.4792601,13.4967694 C14.428447,13.590693 14.4049899,13.6971358 14.4064252,13.7916216 L14.4160669,13.8812153 L14.4446441,13.9809709 C14.5362911,14.299176 14.4308896,14.6840793 14.1868883,14.9049128 L14.163993,14.925034 L14.1370689,14.9473191 L13.9867405,15.0580798 C13.9247415,15.1007611 13.850436,15.1492002 13.7625736,15.2033867 L13.6989122,15.242121 L13.6394619,15.2773836 L13.4425651,15.385855 C13.3875725,15.4138 13.3430053,15.4339134 13.3082201,15.4473363 C13.0203049,15.5582428 12.6732266,15.488591 12.4392629,15.2874892 L12.3571652,15.2060103 L12.3376762,15.1773006 L12.2679008,15.1138023 C12.1884632,15.0510221 12.0962451,15.0179322 11.9995769,15.0179322 C11.9125271,15.0179322 11.8287008,15.0449905 11.7643417,15.0861166 L11.7070732,15.1314507 L11.6417288,15.2067963 C11.4393425,15.4392945 11.1017675,15.5471024 10.8011529,15.4803247 L10.6904911,15.447002 L10.5567686,15.3856027 L10.3604023,15.277174 L10.2375392,15.2031954 L10.0138912,15.0583016 L9.86382902,14.9479737 L9.81412972,14.9058368 C9.59631306,14.7086994 9.48875781,14.3821785 9.53191322,14.0893054 L9.55524007,13.9813736 L9.57042483,13.9406663 L9.58746896,13.8424847 C9.60027263,13.7220871 9.5774645,13.6016736 9.52082553,13.4969277 C9.47176287,13.4063175 9.40364742,13.3373104 9.33801216,13.2970813 L9.27400115,13.2667107 L9.18241751,13.2442509 C8.85446634,13.1642981 8.58446543,12.8620628 8.52813288,12.528638 L8.52544273,12.5114446 L8.52270586,12.4912861 L8.51194788,12.3797459 L8.50142456,12.1423178 L8.50098122,11.8807498 L8.51194356,11.6205386 L8.52814347,11.4712993 C8.57820744,11.1749774 8.79710415,10.9032496 9.07522405,10.7904282 L9.18208103,10.7558312 L9.2435058,10.7420159 C9.35699293,10.7058809 9.45596556,10.6236387 9.52055208,10.5040305 C9.5715981,10.409498 9.59513196,10.3025419 9.59345765,10.2074759 L9.58346595,10.1172736 L9.55535588,10.0190291 C9.46382569,9.70122963 9.5688583,9.31668781 9.81455472,9.09339737 L9.83731141,9.07358137 L9.86408576,9.05158704 L10.0137076,8.94180193 C10.0548647,8.91352469 10.101479,8.88265847 10.1539217,8.84919942 L10.2370033,8.79706575 L10.4666236,8.66253141 C10.5649916,8.60843836 10.6391789,8.57325053 10.6913568,8.55311609 C10.9794483,8.44214175 11.3272902,8.51191872 11.5604593,8.71279871 L11.6421818,8.7941772 L11.6863096,8.84653524 C11.7735619,8.93507146 11.8835824,8.98297263 11.9995769,8.98297263 C12.0862916,8.98297263 12.1694821,8.95630689 12.2400191,8.90814112 L12.306,8.853 L12.3582712,8.79320368 C12.5606575,8.5607055 12.8982325,8.45289761 13.1988471,8.51967527 Z M12,1 C13.0543618,1 13.9181651,1.81587779 13.9945143,2.85073766 L14,3 L14,7.5 C14,7.77614237 13.7761424,8 13.5,8 C13.2545401,8 13.0503916,7.82312484 13.0080557,7.58987563 L13,7.5 L13,3 C13,2.48716416 12.6139598,2.06449284 12.1166211,2.00672773 L12,2 L4,2 C3.48716416,2 3.06449284,2.38604019 3.00672773,2.88337887 L3,3 L3,13 C3,13.5128358 3.38604019,13.9355072 3.88337887,13.9932723 L4,14 L8,14 C8.27614237,14 8.5,14.2238576 8.5,14.5 C8.5,14.7454599 8.32312484,14.9496084 8.08987563,14.9919443 L8,15 L4,15 C2.9456382,15 2.08183488,14.1841222 2.00548574,13.1492623 L2,13 L2,3 C2,1.9456382 2.81587779,1.08183488 3.85073766,1.00548574 L4,1 L12,1 Z M13.04,9.531 L13.0216269,9.55208941 C12.7499386,9.82566052 12.3870552,9.98297263 11.9995769,9.98297263 C11.6591507,9.98297263 11.3373333,9.86138558 11.0700878,9.63526106 L10.959,9.532 L10.6839993,9.6971302 L10.532,9.798 L10.5521204,9.87059827 C10.6117256,10.1371087 10.6027324,10.4145411 10.5256364,10.675565 L10.4712104,10.8299916 L10.4004634,10.9791684 C10.2364789,11.2828526 9.98215241,11.515115 9.6534028,11.6521636 L9.508,11.705 L9.5008923,11.8933387 L9.50112703,12.1193047 L9.508,12.295 L9.54343412,12.3042387 C9.8148596,12.3898141 10.0550176,12.5542159 10.2377309,12.7780728 L10.3241793,12.8948662 L10.4003265,13.0210306 C10.5288223,13.2586654 10.5927641,13.5227827 10.5886532,13.8051965 L10.5779923,13.9767748 L10.5443368,14.1600604 L10.532,14.2 L10.7624608,14.3520449 L10.959,14.468 L10.9736364,14.4524674 C11.1778367,14.2457638 11.4339403,14.1046896 11.7133954,14.0470714 L11.8549367,14.0252995 L11.9995769,14.0179322 C12.2707161,14.0179322 12.5309915,14.0951096 12.7700819,14.2478405 L12.9109114,14.3485325 L13.039,14.468 L13.0933413,14.4382634 L13.3681282,14.2693563 L13.467,14.2 L13.4471476,14.1266542 C13.3883931,13.860389 13.3976007,13.5837759 13.4745848,13.3237398 L13.5289069,13.1699228 L13.5994865,13.0213767 C13.7637133,12.7170906 14.0185341,12.4847017 14.3461756,12.3471014 L14.491,12.294 L14.4941303,12.2556074 L14.5000018,12.000648 L14.4953102,11.7830309 L14.49,11.704 L14.4476725,11.6934576 C14.1784357,11.6067235 13.9403515,11.4425735 13.7597356,11.2203233 L13.6743385,11.104446 L13.5992504,10.9794218 C13.4707545,10.741787 13.4068127,10.4776697 13.4109237,10.1952559 L13.4215845,10.0236776 L13.4556241,9.83906127 L13.467,9.799 L13.2375392,9.64795515 L13.04,9.531 Z M12,10.375 C12.8973596,10.375 13.625,11.1027692 13.625,12.000199 C13.625,12.8976077 12.8973808,13.625 12,13.625 C11.1026404,13.625 10.375,12.8972308 10.375,11.999801 C10.375,11.1023923 11.1026192,10.375 12,10.375 Z M12,11.375 C11.6548342,11.375 11.375,11.6547469 11.375,11.999801 C11.375,12.3449857 11.6549648,12.625 12,12.625 C12.3451658,12.625 12.625,12.3452531 12.625,12.000199 C12.625,11.6550143 12.3450352,11.375 12,11.375 Z M6.5,6 C7.16326249,6 7.72598043,6.4304824 7.92399612,7.0272895 L7.91418425,6.99869228 L7.91418425,6.99869228 L8.5,7 C8.77614237,7 9,7.22385763 9,7.5 C9,7.77614237 8.77614237,8 8.5,8 L7.91439849,8.00070296 L7.92232166,7.97772738 C7.72282362,8.57192859 7.16140253,9 6.5,9 C5.83859747,9 5.27717638,8.57192859 5.07767834,7.97772738 L5.08560151,8.00070296 L5.08560151,8.00070296 L4.5,8 C4.22385763,8 4,7.77614237 4,7.5 C4,7.22385763 4.22385763,7 4.5,7 L5.08581575,6.99869228 L5.07600388,7.0272895 C5.27401957,6.4304824 5.83673751,6 6.5,6 Z M6.5,7 C6.22385763,7 6,7.22385763 6,7.5 C6,7.77614237 6.22385763,8 6.5,8 C6.77614237,8 7,7.77614237 7,7.5 C7,7.22385763 6.77614237,7 6.5,7 Z M9.5,3 C10.1632625,3 10.7259804,3.4304824 10.9239961,4.0272895 L10.9141842,3.99869228 L10.9141842,3.99869228 L11.5,4 C11.7761424,4 12,4.22385763 12,4.5 C12,4.74545989 11.8231248,4.94960837 11.5898756,4.99194433 L11.5,5 L10.9143985,5.00070296 L10.9223217,4.97772738 C10.7228236,5.57192859 10.1614025,6 9.5,6 C8.83859747,6 8.27717638,5.57192859 8.07767834,4.97772738 L8.08560151,5.00070296 L8.08560151,5.00070296 L4.5,5 C4.22385763,5 4,4.77614237 4,4.5 C4,4.25454011 4.17687516,4.05039163 4.41012437,4.00805567 L4.5,4 L8.08581575,3.99869228 L8.07600388,4.0272895 C8.27401957,3.4304824 8.83673751,3 9.5,3 Z M9.5,4 C9.22385763,4 9,4.22385763 9,4.5 C9,4.77614237 9.22385763,5 9.5,5 C9.77614237,5 10,4.77614237 10,4.5 C10,4.22385763 9.77614237,4 9.5,4 Z" id="形状结合" fill="#71757F"></path>
    </g>
</svg>