<?xml version="1.0" encoding="UTF-8"?>
<svg width="16px" height="16px" viewBox="0 0 16 16" version="1.1" xmlns="http://www.w3.org/2000/svg" xmlns:xlink="http://www.w3.org/1999/xlink">
    <title>Send</title>
    <g id="Send" stroke="none" stroke-width="1" fill="none" fill-rule="evenodd">
        <path d="M13.5105149,2.56164948 C14.1211149,2.35546948 14.7829149,2.68328948 14.9892149,3.29376948 C15.0349149,3.42925948 15.0552149,3.57159948 15.0495149,3.71368948 L15.0495149,3.71368948 L15.0351149,3.85546948 L13.6575149,12.2717195 C13.5237149,13.0892195 12.7524149,13.6435195 11.9348149,13.5097195 C11.8542149,13.4965195 11.7751149,13.4768195 11.6980149,13.4508195 L11.6980149,13.4508195 L11.5840149,13.4071195 L9.3049349,12.4260195 L8.4482449,13.5422195 C8.1958049,13.8708195 7.8205549,14.0786195 7.4128449,14.1207195 L7.4128449,14.1207195 L7.2585449,14.1286195 C6.4787649,14.1286195 5.8381349,13.5337195 5.7653849,12.7731195 L5.7653849,12.7731195 L5.7585449,12.6286195 L5.7602549,10.5258195 L5.7756349,10.4384195 L5.7944349,10.3824195 L5.8266649,10.3168995 L5.8735349,10.2503695 L5.9177249,10.2039195 L12.6909149,3.89392948 L2.3403349,7.38903948 C2.2329149,7.42529948 2.1418449,7.49676948 2.0808149,7.59063948 L2.0808149,7.59063948 L2.0412649,7.66497948 C1.9440949,7.89044948 2.0258749,8.14788948 2.2236349,8.27917948 L2.2236349,8.27917948 L2.3029749,8.32214948 L4.4799849,9.26177948 C4.7333949,9.37121948 4.8503449,9.66546948 4.7409649,9.91894948 C4.6435549,10.1443495 4.4003949,10.2616595 4.1694349,10.2081295 L4.1694349,10.2081295 L4.0837449,10.1798795 L1.9072249,9.24047948 C1.1462449,8.91284948 0.795166898,8.03039948 1.1225549,7.26953948 C1.2700249,6.92755948 1.5380849,6.65435948 1.8730449,6.50018948 L1.8730449,6.50018948 L2.0205049,6.44158948 Z M6.7578149,11.3299195 L6.7585449,12.6286195 L6.7666013,12.7185103 C6.80894095,12.9517898 7.0131049,13.1286195 7.2585449,13.1286195 C7.3828149,13.1286195 7.5014649,13.0824195 7.5925349,13.0008195 L7.5925349,13.0008195 L7.6550349,12.9332195 L8.3569349,12.0179195 L6.7578149,11.3299195 Z M13.9888149,4.05090948 L7.1599149,10.4129195 L11.9795149,12.4886195 C11.9980149,12.4966195 12.0173149,12.5035195 12.0369149,12.5093195 L12.0369149,12.5093195 L12.0964149,12.5228195 C12.3386149,12.5624195 12.5686149,12.4209195 12.6482149,12.1975195 L12.6482149,12.1975195 L12.6706149,12.1101195 L13.9888149,4.05090948 Z" id="å½¢çŠ¶ç»“åˆ" fill="#252B3A"></path>
    </g>
</svg>