<?xml version="1.0" encoding="UTF-8"?>
<svg width="16px" height="16px" viewBox="0 0 16 16" version="1.1" xmlns="http://www.w3.org/2000/svg" xmlns:xlink="http://www.w3.org/1999/xlink">
    <title>图钉</title>
    <g id="图钉" stroke="none" stroke-width="1" fill="none" fill-rule="evenodd">
        <path d="M11.5,1 C11.8993477,1 12.1375434,1.44507273 11.9160251,1.7773501 L11.9160251,1.7773501 L11.014,3.13 L11.485,8.075 L12.9160251,10.2226499 C13.1217207,10.5311932 12.9310302,10.9369937 12.5829991,10.993391 L12.5829991,10.993391 L12.5,11 L8.49915929,11 L8.5,15 L7.5,15 L7.49915929,11 L3.5,11 C3.12917714,11 2.89730677,10.6162383 3.04343429,10.2953753 L3.08397485,10.2226499 L4.514,8.075 L4.985,3.13 L4.08397485,1.7773501 C3.87827934,1.46880683 4.06896983,1.06300633 4.41700091,1.00660903 L4.41700091,1.00660903 L4.5,1 Z M10.565,2 L5.434,2 L5.91602515,2.7226499 C5.96384509,2.79437982 5.9920341,2.87682412 5.99854234,2.96183707 L5.99854234,2.96183707 L5.99774774,3.04740455 L5.49774774,8.29740455 C5.48991709,8.37962638 5.46183999,8.45862784 5.41602515,8.5273501 L5.41602515,8.5273501 L4.434,10 L11.565,10 L10.5839749,8.5273501 C10.5534316,8.48153526 10.5307718,8.43115188 10.5167388,8.37829148 L10.5167388,8.37829148 L10.5022523,8.29740455 L10.0022523,3.04740455 C9.99135445,2.93297748 10.0202149,2.81828979 10.0839749,2.7226499 L10.0839749,2.7226499 L10.565,2 Z" id="形状结合" fill="#71757F" fill-rule="nonzero"></path>
    </g>
</svg>