<?xml version="1.0" encoding="UTF-8"?>
<svg width="16px" height="16px" viewBox="0 0 16 16" version="1.1" xmlns="http://www.w3.org/2000/svg" xmlns:xlink="http://www.w3.org/1999/xlink">
    <title>图钉-面</title>
    <g id="图钉-面" stroke="none" stroke-width="1" fill="none" fill-rule="evenodd">
        <path d="M11.5,1 C11.8993477,1 12.1375434,1.44507273 11.9160251,1.7773501 L11.9160251,1.7773501 L11.014,3.13 L11.485,8.075 L12.9160251,10.2226499 C13.1217207,10.5311932 12.9310302,10.9369937 12.5829991,10.993391 L12.5829991,10.993391 L12.5,11 L8.49915929,11 L8.5,15 L7.5,15 L7.49915929,11 L3.5,11 C3.12917714,11 2.89730677,10.6162383 3.04343429,10.2953753 L3.08397485,10.2226499 L4.514,8.075 L4.985,3.13 L4.08397485,1.7773501 C3.87827934,1.46880683 4.06896983,1.06300633 4.41700091,1.00660903 L4.41700091,1.00660903 L4.5,1 Z" id="形状结合" fill="#5E7CE0"></path>
    </g>
</svg>