<?xml version="1.0" encoding="UTF-8"?>
<svg width="16px" height="16px" viewBox="0 0 16 16" version="1.1" xmlns="http://www.w3.org/2000/svg" xmlns:xlink="http://www.w3.org/1999/xlink">
    <title>radio单选</title>
    <g id="radio单选" stroke="none" stroke-width="1" fill="none" fill-rule="evenodd">
        <path d="M8,1 C9.85651543,1 11.6369928,1.73749788 12.9497475,3.05025253 C14.2625021,4.36300718 15,6.14348457 15,8 C15,11.8659932 11.8659932,15 8,15 C4.13400675,15 1,11.8659932 1,8 C1,4.13400675 4.13400675,1 8,1 Z M8,2 C4.6862915,2 2,4.6862915 2,8 C2,11.3137085 4.6862915,14 8,14 C9.59129894,14 11.1174224,13.367859 12.2426407,12.2426407 C13.367859,11.1174224 14,9.59129894 14,8 C14,4.6862915 11.3137085,2 8,2 Z M8,4.23 C10.0821135,4.23 11.77,5.91788649 11.77,8 C11.77,10.0821135 10.0821135,11.77 8,11.77 C5.91788649,11.77 4.23,10.0821135 4.23,8 C4.23,5.91788649 5.91788649,4.23 8,4.23 Z M8,5.23 C6.47017124,5.23 5.23,6.47017124 5.23,8 C5.23,9.52982876 6.47017124,10.77 8,10.77 C9.52982876,10.77 10.77,9.52982876 10.77,8 C10.77,6.47017124 9.52982876,5.23 8,5.23 Z" id="形状结合" fill="#252B3A" fill-rule="nonzero"></path>
    </g>
</svg>