<?xml version="1.0" encoding="UTF-8"?>
<svg width="16px" height="16px" viewBox="0 0 16 16" version="1.1" xmlns="http://www.w3.org/2000/svg" xmlns:xlink="http://www.w3.org/1999/xlink">
    <title>rebuild-failed</title>
    <g id="rebuild-failed" stroke="none" stroke-width="1" fill="none" fill-rule="evenodd">
        <path d="M1.5,7.5 C1.77614237,7.5 2,7.72385763 2,8 C2,11.3137085 4.6862915,14 8,14 C8.27614237,14 8.5,14.2238576 8.5,14.5 C8.5,14.7761424 8.27614237,15 8,15 C5.45371321,15 3.22496429,13.6404588 2.00005536,11.6076785 L2,13.5 C2,13.7761424 1.77614237,14 1.5,14 C1.22385763,14 1,13.7761424 1,13.5 L1,8 C1,7.72385763 1.22385763,7.5 1.5,7.5 Z M10.6437419,9.89842636 L12.4115088,11.6661933 L14.1792758,9.89842636 C14.3745379,9.70316422 14.6911204,9.70316422 14.8863826,9.89842636 C15.0816447,10.0936885 15.0816447,10.410271 14.8863826,10.6055331 L13.1186156,12.3733001 L14.8863826,14.1410671 C15.0816447,14.3363292 15.0816447,14.6529117 14.8863826,14.8481738 C14.6911204,15.043436 14.3745379,15.043436 14.1792758,14.8481738 L12.4115088,13.0804069 L10.6437419,14.8481738 C10.4484797,15.043436 10.1318972,15.043436 9.93663508,14.8481738 C9.74137294,14.6529117 9.74137294,14.3363292 9.93663508,14.1410671 L11.704402,12.3733001 L9.93663508,10.6055331 C9.74137294,10.410271 9.74137294,10.0936885 9.93663508,9.89842636 C10.1318972,9.70316422 10.4484797,9.70316422 10.6437419,9.89842636 Z M6.31164504,4.66 C6.38414262,4.66 6.45527718,4.67970313 6.51744334,4.71700283 L11.3399831,7.61052668 C11.5294152,7.72418594 11.5908412,7.96989004 11.477182,8.15932215 C11.4434021,8.21562199 11.3962829,8.26274111 11.3399831,8.29652102 L6.51744334,11.1900449 C6.32801123,11.3037041 6.08230713,11.2422781 5.96864787,11.052846 C5.93134817,10.9906798 5.91164504,10.9195453 5.91164504,10.8470477 L5.91164504,5.06 C5.91164504,4.8390861 6.09073114,4.66 6.31164504,4.66 Z M6.91264504,6.11952385 L6.91264504,9.78652385 L9.96864504,7.95352385 L6.91264504,6.11952385 Z M15,8 C15,8.27614237 14.7761424,8.5 14.5,8.5 C14.2238576,8.5 14,8.27614237 14,8 C14,4.6862915 11.3137085,2 8,2 C6.38659151,2 4.87564005,2.63907857 3.75735931,3.75735931 C3.47927807,4.03544056 3.22891435,4.34011272 3.01022952,4.66677663 C2.85661156,4.89624587 2.54605802,4.95773549 2.31658878,4.80411753 C2.08711954,4.65049958 2.02562992,4.33994604 2.17924788,4.11047679 C2.43424584,3.72956957 2.72610862,3.37439645 3.05025253,3.05025253 C4.35421056,1.74629451 6.11864895,1 8,1 C10.5471258,1 12.7765044,2.36043727 14.0011551,4.39433108 L14,2.5 C14,2.22385763 14.2238576,2 14.5,2 C14.7761424,2 15,2.22385763 15,2.5 L15,8 L15,8 Z" id="形状结合" fill="#71757F" fill-rule="nonzero"></path>
    </g>
</svg>