<?xml version="1.0" encoding="UTF-8"?>
<svg width="16px" height="16px" viewBox="0 0 16 16" version="1.1" xmlns="http://www.w3.org/2000/svg" xmlns:xlink="http://www.w3.org/1999/xlink">
    <title>recover-download</title>
    <g id="页面-1" stroke="none" stroke-width="1" fill="none" fill-rule="evenodd">
        <g id="编组-2" fill="#71757F">
            <path d="M1.45,6.01 L4.41,6.02 C4.66,5.98 4.94,5.75 4.94,5.48 C4.9,5.23 4.67,4.94 4.41,4.94 L2.74,4.94 L2.97,4.69 L3.47,4.16 L3.81,3.81 C4.91,2.7 6.4,2.07 8,2.07 C11.27,2.07 13.92,4.72 13.92,8 C13.92,11.27 11.27,13.92 8,13.92 C6.4,13.92 4.91,13.29 3.81,12.18 C3.6,11.97 3.26,11.97 3.05,12.18 C2.83,12.39 2.83,12.73 3.05,12.94 C4.35,14.25 6.11,15 8,15 C11.86,15 15,11.86 15,8 C15,4.13 11.86,1 8,1 C6.11,1 4.35,1.74 3.05,3.05 C3.01,3.08 2.98,3.11 2.94,3.15 L2.55,3.56 L2.07,4.08 L2.07,2.61 C2.03,2.36 1.8,2.07 1.53,2.07 C1.24,2.07 1,2.31 1,2.61 L1,5.48 C1,5.49 1.01,5.6 1.01,5.6 C1.01,5.62 1.04,5.69 1.04,5.7 C1.06,5.73 1.14,5.85 1.17,5.88 C1.21,5.9 1.4,6 1.45,6.01 Z M8.48,4.5 C8.48,4.22 8.26,4 7.98,4 C7.7,4 7.48,4.22 7.48,4.5 L7.48,10.77 L4.37,7.64 C4.17,7.44 3.86,7.44 3.66,7.64 C3.46,7.84 3.46,8.15 3.66,8.35 L7.64,12.34 C7.69,12.39 7.74,12.43 7.8,12.45 C7.86,12.48 7.93,12.49 7.99,12.49 C8.06,12.49 8.13,12.48 8.19,12.46 C8.25,12.43 8.3,12.39 8.35,12.35 L12.33,8.35 C12.53,8.15 12.53,7.84 12.33,7.64 C12.13,7.44 11.82,7.44 11.63,7.64 L8.48,10.79 L8.48,4.5 Z" id="矢量-10"></path>
        </g>
    </g>
</svg>