<?xml version="1.0" encoding="UTF-8"?>
<svg width="16px" height="16px" viewBox="0 0 16 16" version="1.1" xmlns="http://www.w3.org/2000/svg" xmlns:xlink="http://www.w3.org/1999/xlink">
    <title>recover</title>
    <g id="recover" stroke="none" stroke-width="1" fill="none" fill-rule="evenodd">
        <g id="ipd_recover" transform="translate(1.500000, 1.500000)" fill="#71757F" fill-rule="nonzero">
            <path d="M0.418104694,4.65998039 L0.5,4.66666667 C0.468956543,4.66666667 0.438573855,4.66383758 0.409095693,4.65842317 C0.393834617,4.6556013 0.378711182,4.6520885 0.363736446,4.64785965 C0.321351685,4.63588239 0.281377209,4.61851535 0.244473289,4.59653105 C0.23676807,4.59195499 0.229217413,4.58717622 0.221766464,4.58217328 C0.17969347,4.55392672 0.142188001,4.51951907 0.110509278,4.48021783 L0.168003829,4.54053635 C0.138775709,4.51458179 0.113309258,4.4859689 0.0916452319,4.45538466 C0.0809305259,4.44014928 0.0708757117,4.42412963 0.0617359882,4.40753512 C0.0553269074,4.39596533 0.0494276656,4.38412827 0.044022668,4.37211379 C0.0380066968,4.35876929 0.0326143662,4.34527261 0.0278074618,4.33150133 C0.0219865015,4.3147088 0.0168896329,4.29703486 0.0127799134,4.27916696 C0.0109644263,4.27157589 0.00942536224,4.2640886 0.00805566941,4.2565423 C0.0036467632,4.22996001 0.00159262092,4.21089149 0.000630257096,4.19176621 L0,4.16666667 L0,1.5 C0,1.22385763 0.223857625,1 0.5,1 C0.745459889,1 0.94960837,1.17687516 0.991944331,1.41012437 L1,1.5 L1,2.867 L1.44228551,2.38525291 L1.80599242,2.00292432 C1.84062997,1.96743131 1.87326229,1.93436371 1.90380893,1.90381762 C3.11458174,0.69301508 4.75304604,0 6.49999455,0 C10.0898424,0 12.9999946,2.91015763 12.9999946,6.5 C12.9999946,10.0898424 10.0898424,13 6.49999455,13 C4.75304028,13 3.11457637,12.306987 1.90380785,11.0961813 C1.7085487,10.9009162 1.70855356,10.5843337 1.9038187,10.3890745 C2.09908385,10.1938154 2.41566634,10.1938202 2.61092548,10.3890854 C3.63601409,11.4142055 5.02098554,12 6.49999455,12 C9.53755763,12 11.9999946,9.53755763 11.9999946,6.5 C11.9999946,3.46244237 9.53755763,1 6.49999455,1 C5.02099118,1 3.63601808,1.58579685 2.61091686,2.61092326 L2.29786626,2.93497409 L1.83381307,3.43480977 L1.624,3.666 L3.16666667,3.66666667 C3.41212656,3.66666667 3.61627504,3.84354183 3.658611,4.07679103 L3.66666667,4.16666667 C3.66666667,4.41212656 3.48979151,4.61627504 3.2565423,4.658611 L3.16666667,4.66666667 L0.486964648,4.6665078 C0.463937258,4.66591893 0.440925185,4.66374661 0.418104694,4.65998039 Z" id="形状结合"></path>
        </g>
    </g>
</svg>