<?xml version="1.0" encoding="UTF-8"?>
<svg width="16px" height="16px" viewBox="0 0 16 16" version="1.1" xmlns="http://www.w3.org/2000/svg" xmlns:xlink="http://www.w3.org/1999/xlink">
    <title>function icon/recycling</title>
    <g id="图标入库记录" stroke="none" stroke-width="1" fill="none" fill-rule="evenodd">
        <g id="语言-图标入库记录230112" transform="translate(-92.000000, -120.000000)" fill="#71757F" fill-rule="nonzero">
            <g id="icon" transform="translate(92.000000, 120.000000)">
                <path d="M12.5,5 C12.7454599,5 12.9496084,5.17687516 12.9919443,5.41012437 L13,5.5 L13,13 C13,14.0543618 12.1841222,14.9181651 11.1492623,14.9945143 L11,15 L5,15 C3.9456382,15 3.08183488,14.1841222 3.00548574,13.1492623 L3,13 L3,5.5 C3,5.22385763 3.22385763,5 3.5,5 C3.74545989,5 3.94960837,5.17687516 3.99194433,5.41012437 L4,5.5 L4,13 C4,13.5128358 4.38604019,13.9355072 4.88337887,13.9932723 L5,14 L11,14 C11.5128358,14 11.9355072,13.6139598 11.9932723,13.1166211 L12,13 L12,5.5 C12,5.22385763 12.2238576,5 12.5,5 Z M6.26523254,9.3906342 C6.47572969,9.51689388 6.55981868,9.77358526 6.47614565,9.99538777 L6.43682366,10.0766054 L5.882,11 L6.67767748,11.000412 C6.92313736,11.0004722 7.1272424,11.1773975 7.16952108,11.4106571 L7.17755468,11.5005347 C7.1774944,11.7459946 7.00056911,11.9500997 6.76730951,11.9923783 L6.67743191,12.0004119 L4.99987722,12 C4.64120435,11.9999119 4.40914708,11.6387308 4.53277043,11.3210813 L4.57121884,11.24281 L5.57926134,9.56222532 C5.72130348,9.32541602 6.02842324,9.24859206 6.26523254,9.3906342 Z M10.367567,9.48744777 L10.4206727,9.56040193 L11.4288967,11.2430027 C11.613205,11.5505904 11.4229032,11.935258 11.0869995,11.9926927 L11.0001228,12 L9.32256809,12.000412 C9.04642573,12.0004798 8.82251314,11.7766771 8.82244531,11.5005347 C8.82238505,11.2550749 8.99921007,11.0508829 9.23244887,11.0084897 L9.32232252,11.000412 L10.117,11 L9.56287936,10.0743966 C9.43671429,9.86384274 9.4835054,9.59781263 9.66182456,9.44160827 L9.73477871,9.38850258 C9.94533258,9.2623375 10.2113627,9.30912861 10.367567,9.48744777 Z M8.5,9.5 C8.77614237,9.5 9,9.72385763 9,10 C9,10.2761424 8.77614237,10.5 8.5,10.5 L7.5,10.5 C7.22385763,10.5 7,10.2761424 7,10 C7,9.72385763 7.22385763,9.5 7.5,9.5 L8.5,9.5 Z M8.37477128,6.16855941 L8.42873887,6.24273947 L9.52496442,8.06965986 C9.66704549,8.3064458 9.59027202,8.6135782 9.35348608,8.75565926 C9.14300969,8.88195355 8.87695092,8.83532572 8.72063714,8.65710246 L8.66748668,8.58418092 L8,7.471 L7.33360578,8.5833989 C7.20736433,8.79390698 6.95068022,8.87801818 6.72887047,8.79436436 L6.64764944,8.75504939 C6.43714136,8.62880793 6.35303015,8.37212383 6.43668398,8.15031408 L6.47599894,8.06909305 L7.57119658,6.24284708 C7.74916901,5.94607741 8.15822272,5.92129714 8.37477128,6.16855941 Z M10,1 C10.5522847,1 11,1.44771525 11,2 L11,3 L14.5,3 C14.7761424,3 15,3.22385763 15,3.5 C15,3.77614237 14.7761424,4 14.5,4 L1.5,4 C1.22385763,4 1,3.77614237 1,3.5 C1,3.22385763 1.22385763,3 1.5,3 L5,3 L5,2 C5,1.44771525 5.44771525,1 6,1 L10,1 Z M10,2 L6,2 L6,3 L10,3 L10,2 Z" id="形状结合"></path>
            </g>
        </g>
    </g>
</svg>