<?xml version="1.0" encoding="UTF-8"?>
<svg width="16px" height="16px" viewBox="0 0 16 16" version="1.1" xmlns="http://www.w3.org/2000/svg" xmlns:xlink="http://www.w3.org/1999/xlink">
    <title>Refresh PlatformConfig刷新配套关系</title>
    <g id="Refresh-PlatformConfig刷新配套关系" stroke="none" stroke-width="1" fill="none" fill-rule="evenodd">
        <path d="M12.4682488,9.54479184 C12.7131108,9.52766942 12.9291002,9.68987305 12.9876037,9.91960086 L13.0019091,10.0086956 L13.1414221,12.0038237 C13.1606848,12.2792934 12.952988,12.5182213 12.6775183,12.537484 C12.4326563,12.5546064 12.2166669,12.3924028 12.1581635,12.162675 L12.143858,12.0735802 L12.0899167,11.3022661 C11.0016313,12.9270731 9.28549748,13.7451563 7,13.7451563 C5.25864277,13.7451563 3.28490473,12.8286778 2.20710799,11.5279765 C2.03091717,11.3153468 2.06045674,11.0001454 2.27308648,10.8239546 C2.48571622,10.6477638 2.80091756,10.6773034 2.97710838,10.8899331 C3.8638128,11.9600213 5.55468805,12.7451563 7,12.7451563 C9.02058096,12.7451563 10.4450088,12.0428438 11.3368672,10.6258693 L10.5428772,10.6818688 C10.2980153,10.6989913 10.0820259,10.5367876 10.0235224,10.3070598 L10.009217,10.217965 C9.99209454,9.97310309 10.1542982,9.75711371 10.384026,9.69861024 L10.4731207,9.68430479 L12.4682488,9.54479184 Z M8.736,2.416 C9.14666667,2.416 9.51066667,2.47866667 9.828,2.604 C10.1453333,2.72933333 10.3946667,2.91466667 10.576,3.16 C10.7271111,3.36444444 10.8152593,3.60407407 10.8404444,3.87888889 L10.848,4.048 C10.848,4.56 10.6586667,4.936 10.28,5.176 L10.1902076,5.22625708 C10.3382768,5.28130343 10.4708743,5.34855107 10.588,5.428 C10.9693333,5.68666667 11.16,6.072 11.16,6.584 C11.16,7.112 10.9666667,7.52533333 10.58,7.824 C10.1933333,8.12266667 9.65066667,8.272 8.952,8.272 L7.75181258,8.271 L7.752,8.272 L7.34729122,8.272 C7.09633709,8.272 6.90733476,8.21572975 6.78028422,8.10318926 C6.65323369,7.99064876 6.59847228,7.80485059 6.616,7.54579473 L6.616,3.14729122 C6.616,2.77706698 6.89111554,2.47109942 7.24805934,2.42267583 L7.33581258,2.417 L7.336,2.416 L8.736,2.416 Z M12.696,2.416 C13.0163252,2.416 13.276,2.67567485 13.276,2.996 L13.276,7.692 C13.276,8.01232515 13.0163252,8.272 12.696,8.272 C12.3756748,8.272 12.116,8.01232515 12.116,7.692 L12.116,2.996 C12.116,2.67567485 12.3756748,2.416 12.696,2.416 Z M3.632,2.416 C4.09066667,2.416 4.49466667,2.496 4.844,2.656 C5.19333333,2.816 5.46266667,3.04266667 5.652,3.336 C5.84133333,3.62933333 5.936,3.968 5.936,4.352 C5.936,4.736 5.84133333,5.07333333 5.652,5.364 C5.46266667,5.65466667 5.19466667,5.87866667 4.848,6.036 C4.50133333,6.19333333 4.096,6.272 3.632,6.272 L2.776,6.27199489 L2.776,7.692 C2.776,8.01232515 2.51632515,8.272 2.196,8.272 C1.87567485,8.272 1.616,8.01232515 1.616,7.692 L1.616,3.04123675 C1.64316788,2.82363822 1.71614316,2.66503246 1.83492583,2.56541948 C1.95370849,2.46580308 2.10992544,2.41599489 2.30357666,2.41599489 L3.632,2.416 Z M8.848,5.776 L7.75181258,5.776 L7.75181258,7.263 L8.848,7.264 C9.20533333,7.264 9.47733333,7.2 9.664,7.072 C9.85066667,6.944 9.944,6.76266667 9.944,6.528 C9.944,6.29333333 9.84933333,6.10933333 9.66,5.976 C9.47066667,5.84266667 9.2,5.776 8.848,5.776 Z M3.496,3.4 L2.776,3.39999489 L2.776,5.28799489 L3.496,5.288 C3.86933333,5.288 4.164,5.20933333 4.38,5.052 C4.596,4.89466667 4.704,4.66133333 4.704,4.352 C4.704,4.03733333 4.59466667,3.8 4.376,3.64 C4.15733333,3.48 3.864,3.4 3.496,3.4 Z M8.624,3.424 L7.75181258,3.424 L7.75181258,4.807 L8.624,4.808 C8.93866667,4.808 9.18666667,4.744 9.368,4.616 C9.54933333,4.488 9.64,4.312 9.64,4.088 C9.64,3.94933333 9.6,3.82933333 9.52,3.728 C9.44,3.62666667 9.324,3.55066667 9.172,3.5 C9.02,3.44933333 8.83733333,3.424 8.624,3.424 Z" id="形状结合" fill="#71757F" fill-rule="nonzero"></path>
    </g>
</svg>