<?xml version="1.0" encoding="UTF-8"?>
<svg width="16px" height="16px" viewBox="0 0 16 16" version="1.1" xmlns="http://www.w3.org/2000/svg" xmlns:xlink="http://www.w3.org/1999/xlink">
    <title>编组</title>
    <g id="页面-1" stroke="none" stroke-width="1" fill="none" fill-rule="evenodd">
        <g id="项目空间-需求池-0604" transform="translate(-444.000000, -452.000000)">
            <g id="编组" transform="translate(444.000000, 452.000000)">
                <g id="关联-16px" transform="translate(1.000000, 1.000000)" fill="#575D6C" fill-rule="nonzero">
                    <path d="M7.97555169,9.05751916 C7.17049721,9.06006776 6.39877301,8.73958429 5.82959436,8.17040564 C5.67063456,8.00888197 5.67063456,7.74993132 5.82959436,7.58840765 C5.99111803,7.42944785 6.25006868,7.42944785 6.41159235,7.58840765 C7.27561579,8.44986723 8.67292372,8.44986723 9.53694717,7.58840765 L12.5315447,4.59381009 C13.3930043,3.72978665 13.3930043,2.33247871 12.5315447,1.46845527 C11.6675213,0.606995696 10.2702134,0.606995696 9.40618991,1.46845527 L6.87821628,3.9964289 C6.71669261,4.1553887 6.45774197,4.1553887 6.2962183,3.9964289 C6.13725849,3.83490523 6.13725849,3.57595458 6.2962183,3.41443091 L8.82419192,0.886457284 C10.0086988,-0.295485761 11.9290358,-0.295485761 13.1135427,0.886457284 C14.2954858,2.0709642 14.2954858,3.99130116 13.1135427,5.17580808 L10.1189452,8.17040564 C9.55233037,8.73958429 8.7780423,9.06006776 7.97555169,9.05751916 L7.97555169,9.05751916 Z" id="路径"></path>
                    <path d="M3.03241461,14.0006562 C2.22736013,14.0032048 1.45563593,13.6827214 0.886457284,13.1135427 C-0.295485761,11.9290358 -0.295485761,10.0086988 0.886457284,8.82419192 L3.88105485,5.82959436 C5.06556176,4.64765131 6.98589873,4.64765131 8.17040564,5.82959436 C8.32936544,5.99111803 8.32936544,6.25006868 8.17040564,6.41159235 C8.00888197,6.57055215 7.74993132,6.57055215 7.58840765,6.41159235 C6.72438421,5.55013277 5.32707628,5.55013277 4.46305283,6.41159235 L1.47101914,9.40618991 C0.609559564,10.2702134 0.609559564,11.6675213 1.47101914,12.5315447 C2.33504258,13.3930043 3.73235052,13.3930043 4.59637396,12.5315447 L7.12434759,10.0035711 C7.28587126,9.8446113 7.5448219,9.8446113 7.70634557,10.0035711 C7.86530537,10.1650948 7.86530537,10.4240454 7.70634557,10.5855691 L5.17837194,13.1135427 C4.6091933,13.6827214 3.83490523,14.0006562 3.03241461,14.0006562 L3.03241461,14.0006562 Z" id="路径"></path>
                </g>
            </g>
        </g>
    </g>
</svg>