<?xml version="1.0" encoding="UTF-8"?>
<svg width="16px" height="16px" viewBox="0 0 16 16" version="1.1" xmlns="http://www.w3.org/2000/svg" xmlns:xlink="http://www.w3.org/1999/xlink">
    <title>function icon/remove member</title>
    <g id="页面-1" stroke="none" stroke-width="1" fill="none" fill-rule="evenodd">
        <g id="API-starter-图标入库" transform="translate(-292.000000, -124.000000)">
            <g id="方格备份-15" transform="translate(260.000000, 100.000000)">
                <text id="图标" font-family="PingFangSC-Regular, PingFang SC" font-size="12" font-weight="normal" line-spacing="16" fill="#71757F">
                    <tspan x="15.136" y="61">移除成员</tspan>
                </text>
            </g>
            <path d="M300,125.5 C301.932997,125.5 303.5,127.067003 303.5,129 C303.5,130.165458 302.93036,131.197869 302.054314,131.833999 C302.475207,131.97158 302.879837,132.154344 303.263824,132.377698 C303.502522,132.516542 303.58347,132.822601 303.444626,133.061299 C303.305782,133.299998 302.999723,133.380946 302.761025,133.242102 C301.929472,132.758412 300.984191,132.5 300,132.5 C296.962434,132.5 294.5,134.962434 294.5,138 C294.5,138.276142 294.276142,138.5 294,138.5 C293.723858,138.5 293.5,138.276142 293.5,138 C293.5,135.128941 295.36143,132.692642 297.943281,131.832113 C297.068789,131.196326 296.5,130.164587 296.5,129 C296.5,127.067003 298.067003,125.5 300,125.5 Z M306.5,136 C306.776142,136 307,136.223858 307,136.5 C307,136.776142 306.776142,137 306.5,137 L302.5,137 C302.223858,137 302,136.776142 302,136.5 C302,136.223858 302.223858,136 302.5,136 L306.5,136 Z M300,126.5 C298.619288,126.5 297.5,127.619288 297.5,129 C297.5,130.380712 298.619288,131.5 300,131.5 C301.380712,131.5 302.5,130.380712 302.5,129 C302.5,127.619288 301.380712,126.5 300,126.5 Z" id="形状结合" fill="#71757F"></path>
        </g>
    </g>
</svg>