<?xml version="1.0" encoding="UTF-8"?>
<svg width="16px" height="16px" viewBox="0 0 16 16" version="1.1" xmlns="http://www.w3.org/2000/svg" xmlns:xlink="http://www.w3.org/1999/xlink">
    <title>rename</title>
    <g id="rename" stroke="none" stroke-width="1" fill="none" fill-rule="evenodd">
        <path d="M12,2 C13.1045695,2 14,2.8954305 14,4 L14,8 C14,8.27614237 13.7761424,8.5 13.5,8.5 C13.2238576,8.5 13,8.27614237 13,8 L13,8 L13,4 C13,3.48716416 12.6139598,3.06449284 12.1166211,3.00672773 L12,3 L4,3 C3.48716416,3 3.06449284,3.38604019 3.00672773,3.88337887 L3,4 L3,12 C3,12.5128358 3.38604019,12.9355072 3.88337887,12.9932723 L4,13 L12,13 C12.5128358,13 12.9355072,12.6139598 12.9932723,12.1166211 L13,12 L13.0080557,11.9101244 C13.0503916,11.6768752 13.2545401,11.5 13.5,11.5 C13.7761424,11.5 14,11.7238576 14,12 L14,12 C14,13.1045695 13.1045695,14 12,14 L4,14 C2.8954305,14 2,13.1045695 2,12 L2,4 C2,2.8954305 2.8954305,2 4,2 L12,2 Z M9.5,10 C9.77614237,10 10,10.2238576 10,10.5 C10,10.7761424 9.77614237,11 9.5,11 C9.22385763,11 9,10.7761424 9,10.5 C9,10.2238576 9.22385763,10 9.5,10 Z M11.5,10 C11.7761424,10 12,10.2238576 12,10.5 C12,10.7761424 11.7761424,11 11.5,11 C11.2238576,11 11,10.7761424 11,10.5 C11,10.2238576 11.2238576,10 11.5,10 Z M13.5,10 C13.7761424,10 14,10.2238576 14,10.5 C14,10.7761424 13.7761424,11 13.5,11 C13.2238576,11 13,10.7761424 13,10.5 C13,10.2238576 13.2238576,10 13.5,10 Z M4.5,11 C4.22385763,11 4,10.7761424 4,10.5 C4,10.2238576 4.22385763,10 4.5,10 L5.5,10 L5.5,6 L4.5,6 C4.22385763,6 4,5.77614237 4,5.5 C4,5.22385763 4.22385763,5 4.5,5 L7.5,5 C7.77614237,5 8,5.22385763 8,5.5 C8,5.77614237 7.77614237,6 7.5,6 L6.5,6 L6.5,10 L7.5,10 C7.77614237,10 8,10.2238576 8,10.5 C8,10.7761424 7.77614237,11 7.5,11 L4.5,11 Z" fill="#71757F" fill-rule="nonzero"></path>
    </g>
</svg>