<?xml version="1.0" encoding="UTF-8"?>
<svg width="16px" height="16px" viewBox="0 0 16 16" version="1.1" xmlns="http://www.w3.org/2000/svg" xmlns:xlink="http://www.w3.org/1999/xlink">
    <title>replace</title>
    <g id="replace" stroke="none" stroke-width="1" fill="none" fill-rule="evenodd">
        <path d="M9.56429841,14.2496276 C8.80531502,14.2390669 8.19259965,13.6263516 8.18203898,12.8673682 L8.18203898,9.54344402 C8.19295391,8.78461031 8.8054647,8.17209951 9.56429841,8.16118459 L12.8882226,8.16118459 C13.6475059,8.17103481 14.2606318,8.78416074 14.270482,9.54344402 L14.270482,12.8673682 C14.260988,13.6268017 13.6476561,14.2401336 12.8882226,14.2496276 L9.56429841,14.2496276 Z M9.20061722,9.54344402 L9.20061722,12.8673682 C9.21191141,13.0635875 9.36812248,13.2203803 9.56429841,13.2324039 L12.8882226,13.2324039 C13.0851885,13.2205824 13.2426899,13.0642414 13.2559672,12.8673682 L13.2559672,9.54344402 C13.2423301,9.34696675 13.0848392,9.19121616 12.8882226,9.17976283 L9.56429841,9.17976283 C9.36781505,9.19072645 9.21064354,9.34702478 9.19858548,9.54344402 L9.20061722,9.54344402 Z M3.56829647,13.0687355 C2.88874373,12.3343914 2.5272783,11.3027895 2.50002153,10.3026343 L1.47797922,10.3026343 L3.02150107,8.55263025 L4.51321603,10.3026343 L3.51521352,10.3026343 C3.54149681,11.0412913 3.80136348,11.8219439 4.29972233,12.3677858 C4.93571986,12.9769495 5.81220586,13.2389722 6.69285252,13.2330785 C6.88057851,13.2233811 7.05834707,13.3180161 7.15512181,13.4791674 C7.25189655,13.6403187 7.25189655,13.8417075 7.15512181,14.0028588 C7.05834707,14.1640101 6.88057851,14.2586451 6.69285252,14.2489477 C5.53557693,14.2532054 4.39508766,13.8764836 3.56897372,13.0660265 L3.56829647,13.0687355 Z M12.4317035,2.93126446 C13.1112563,3.66560857 13.4727217,4.69721054 13.4999785,5.69736566 L14.5220208,5.69736566 L12.9784989,7.44736975 L11.486784,5.69736566 L12.4847865,5.69736566 C12.4585032,4.9587087 12.1986365,4.17805613 11.7002777,3.63221424 C11.0642801,3.02305055 10.1877941,2.7610278 9.30714748,2.76692151 C9.11942149,2.7766189 8.94165293,2.68198386 8.84487819,2.52083257 C8.74810345,2.35968129 8.74810345,2.15829248 8.84487819,1.99714119 C8.94165293,1.83598991 9.11942149,1.74135486 9.30714748,1.75105226 C10.4644231,1.74679465 11.6049123,2.12351637 12.4310263,2.93397345 L12.4317035,2.93126446 Z M2.86023865,7.83746092 C2.10155445,7.82619238 1.48924777,7.21388571 1.47797922,6.45520151 L1.47797922,3.13669531 C1.48742388,2.37657409 2.10014843,1.7620483 2.86023865,1.75037241 L6.18416281,1.75037241 C6.94440341,1.7616936 7.55733271,2.37642475 7.56642222,3.13669531 L7.56642222,6.45520151 C7.57045247,6.82302021 7.42611653,7.17694981 7.16601382,7.43705252 C6.90591111,7.69715523 6.55198151,7.84149117 6.18416281,7.83746092 L2.86023865,7.83746092 Z M2.49249398,3.13398632 L2.49249398,6.45249252 C2.50591926,6.64976407 2.6629671,6.80681191 2.86023865,6.82023719 L6.18416281,6.82023719 C6.282883,6.82429542 6.3787968,6.78685585 6.44866147,6.71699118 C6.51852614,6.64712651 6.55596571,6.55121271 6.55190748,6.45249252 L6.55190748,3.13398632 C6.53993989,2.93605543 6.3820937,2.77820924 6.18416281,2.76624165 L2.86023865,2.76624165 C2.66307828,2.77882921 2.50607189,2.93612581 2.49384847,3.13330908 L2.49249398,3.13398632 Z" id="形状" fill="#71757F" fill-rule="nonzero"></path>
    </g>
</svg>