<?xml version="1.0" encoding="UTF-8"?>
<svg width="16px" height="16px" viewBox="0 0 16 16" version="1.1" xmlns="http://www.w3.org/2000/svg" xmlns:xlink="http://www.w3.org/1999/xlink">
    <title>report-guideline</title>
    <g id="report-guideline" stroke="none" stroke-width="1" fill="none" fill-rule="evenodd">
        <path d="M12,8.5 C13.9326885,8.5 15.5,10.0675887 15.5,12.0005307 C15.5,13.933325 13.9328363,15.5 12,15.5 C10.0673115,15.5 8.5,13.9324113 8.5,11.9994693 C8.5,10.066675 10.0671637,8.5 12,8.5 Z M12,1 C13.0543618,1 13.9181651,1.81587779 13.9945143,2.85073766 L14,3 L14,7.5 C14,7.77614237 13.7761424,8 13.5,8 C13.2545401,8 13.0503916,7.82312484 13.0080557,7.58987563 L13,7.5 L13,3 C13,2.48716416 12.6139598,2.06449284 12.1166211,2.00672773 L12,2 L4,2 C3.48716416,2 3.06449284,2.38604019 3.00672773,2.88337887 L3,3 L3,13 C3,13.5128358 3.38604019,13.9355072 3.88337887,13.9932723 L4,14 L8,14 C8.27614237,14 8.5,14.2238576 8.5,14.5 C8.5,14.7454599 8.32312484,14.9496084 8.08987563,14.9919443 L8,15 L4,15 C2.9456382,15 2.08183488,14.1841222 2.00548574,13.1492623 L2,13 L2,3 C2,1.9456382 2.81587779,1.08183488 3.85073766,1.00548574 L4,1 L12,1 Z M12,9.5 C10.6193787,9.5 9.5,10.6190296 9.5,11.9994693 C9.5,13.3801661 10.6196358,14.5 12,14.5 C13.3806213,14.5 14.5,13.3809704 14.5,12.0005307 C14.5,10.6198339 13.3803642,9.5 12,9.5 Z M11.935,13 C12.0716667,13 12.19,13.0492611 12.29,13.1477833 C12.39,13.2463054 12.44,13.364532 12.44,13.5024631 C12.44,13.63711 12.39,13.7536946 12.29,13.8522167 C12.19,13.9507389 12.0716667,14 11.935,14 C11.7983333,14 11.6825,13.9507389 11.5875,13.8522167 C11.4925,13.7536946 11.445,13.63711 11.445,13.5024631 C11.445,13.364532 11.4933333,13.2463054 11.59,13.1477833 C11.6866667,13.0492611 11.8016667,13 11.935,13 Z M12.5435916,9.99539875 C12.8451711,10.1393146 13.0433878,10.3286921 13.1737075,10.5921716 C13.3040272,10.8556511 13.27388,11.3688114 13.0668182,11.6526401 C12.8597565,11.9364688 12.6156329,12.0166497 12.4843109,12.1290154 C12.3529888,12.2413811 12.2918271,12.3397474 12.2627318,12.4869363 C12.2336366,12.6341251 12.1552557,12.8201235 11.8506106,12.8201235 C11.5459655,12.8201235 11.5159678,12.6175241 11.5062212,12.5769871 C11.477641,12.4581201 11.4764006,12.3508378 11.5025,12.2551401 C11.5375,12.1268068 11.595,12.0209734 11.675,11.9376401 C11.755,11.8543068 11.8633333,11.7593068 12,11.6526401 C12.4181213,11.4275199 12.4880981,11.1296225 12.397583,10.9474021 C12.3070679,10.7651816 12.1340853,10.7096396 12.020752,10.7096396 C11.7868805,10.7096396 11.6636556,10.7641358 11.5475667,10.875174 C11.4314779,10.9862122 11.4348751,11.0910798 11.3615417,11.2744132 C11.2882084,11.4577465 11.1109871,11.6044111 10.8432654,11.487641 C10.6647842,11.4097943 10.6025669,11.2442674 10.6566134,10.9910603 C10.7526339,10.6666202 10.7372098,10.6163732 11.0493758,10.2728565 C11.3276441,9.96664174 12.0805086,9.77441228 12.5435916,9.99539875 Z M8.5,7 C8.77614237,7 9,7.22385763 9,7.5 C9,7.77614237 8.77614237,8 8.5,8 L5.5,8 C5.22385763,8 5,7.77614237 5,7.5 C5,7.22385763 5.22385763,7 5.5,7 L8.5,7 Z M10.5,4 C10.7761424,4 11,4.22385763 11,4.5 C11,4.77614237 10.7761424,5 10.5,5 L5.5,5 C5.22385763,5 5,4.77614237 5,4.5 C5,4.22385763 5.22385763,4 5.5,4 L10.5,4 Z" id="形状结合" fill="#71757F" fill-rule="nonzero"></path>
    </g>
</svg>