<?xml version="1.0" encoding="UTF-8"?>
<svg width="16px" height="16px" viewBox="0 0 16 16" version="1.1" xmlns="http://www.w3.org/2000/svg" xmlns:xlink="http://www.w3.org/1999/xlink">
    <title>function icon/requestor</title>
    <g id="图标入库记录" stroke="none" stroke-width="1" fill="none" fill-rule="evenodd">
        <g id="DevUI图标入库-2023.09" transform="translate(-472.000000, -120.000000)" fill="#71757F" fill-rule="nonzero">
            <g id="编组-5" transform="translate(472.000000, 120.000000)">
                <path d="M10.4811512,0.999504582 C10.585097,0.99481499 10.6918996,1.0225043 10.7857967,1.08910148 L10.8535534,1.14644661 L13.8535534,4.14644661 C13.9287762,4.22166939 13.9733114,4.30964409 13.9914591,4.3999898 L14,4.5 L14,13 C14,14.0543618 13.1841222,14.9181651 12.1492623,14.9945143 L12,15 L4,15 C2.9456382,15 2.08183488,14.1841222 2.00548574,13.1492623 L2,13 L2,3 C2,1.9456382 2.81587779,1.08183488 3.85073766,1.00548574 L4,1 L10.4811512,0.999504582 Z M10,1.99999762 L4,1.99999762 C3.48716416,1.99999762 3.06449284,2.38604019 3.00672773,2.88337887 L3,2.99999762 L3,12.9999976 C3,13.5128358 3.38604019,13.9355072 3.88337887,13.9932723 L4,13.9999976 L12,13.9999976 C12.5128358,13.9999976 12.9355072,13.6139598 12.9932723,13.1166211 L13,12.9999976 L13,4.99999762 L10.5,4.99999762 C10.2545401,4.99999762 10.0503916,4.82312484 10.0080557,4.58987563 L10,4.49999762 L10,1.99999762 Z M10.5,8 C10.7761424,8 11,8.22385763 11,8.5 C11,8.77614237 10.7761424,9 10.5,9 L8.5,9 C8.22385763,9 8,8.77614237 8,8.5 C8,8.22385763 8.22385763,8 8.5,8 L10.5,8 Z M5.7843055,5.08859116 L5.85355339,5.14644661 L7.35355339,6.64644661 C7.52711974,6.82001296 7.54640489,7.08943736 7.41140884,7.2843055 L7.35355339,7.35355339 L5.85355339,8.85355339 C5.65829124,9.04881554 5.34170876,9.04881554 5.14644661,8.85355339 C4.97288026,8.67998704 4.95359511,8.41056264 5.08859116,8.2156945 L5.14644661,8.14644661 L6.293,7 L5.14644661,5.85355339 C4.97288026,5.67998704 4.95359511,5.41056264 5.08859116,5.2156945 L5.14644661,5.14644661 C5.32001296,4.97288026 5.58943736,4.95359511 5.7843055,5.08859116 Z M11,2.707 L11,4 L12.293,4 L11,2.707 Z" id="形状"></path>
            </g>
        </g>
    </g>
</svg>