<?xml version="1.0" encoding="UTF-8"?>
<svg width="16px" height="16px" viewBox="0 0 16 16" version="1.1" xmlns="http://www.w3.org/2000/svg" xmlns:xlink="http://www.w3.org/1999/xlink">
    <!-- Generator: Sketch 64 (93537) - https://sketch.com -->
    <title>rerun</title>
    <desc>Created with Sketch.</desc>
    <g id="rerun" stroke="none" stroke-width="1" fill="none" fill-rule="evenodd">
        <g fill="#252B3A" fill-rule="nonzero">
            <path d="M8,1 C9.95873625,1 11.7295699,1.80450671 13.0000936,3.10111274 L13,2.5 C13,2.23112453 13.2122307,2.01181819 13.478311,2.00046195 L13.5,2 C13.7688755,2 13.9881818,2.21223067 13.999538,2.47831104 L14,2.5 L14,4.5 C14,4.77614237 13.7761424,5 13.5,5 L11.5,5 C11.2238576,5 11,4.77614237 11,4.5 C11,4.23112453 11.2122307,4.01181819 11.478311,4.00046195 L11.5,4 L12.4722451,4.00003585 C11.373603,2.77251632 9.77701692,2 8,2 C4.6862915,2 2,4.6862915 2,8 C2,11.3137085 4.6862915,14 8,14 C11.3137085,14 14,11.3137085 14,8 L14.000462,7.97831104 C14.0118182,7.71223067 14.2311245,7.5 14.5,7.5 C14.7688755,7.5 14.9881818,7.71223067 14.999538,7.97831104 L15,8 C15,11.8659932 11.8659932,15 8,15 C4.13400675,15 1,11.8659932 1,8 C1,4.13400675 4.13400675,1 8,1 Z M6.99392975,5 C7.18134304,5 7.36493761,5.0536137 7.52353032,5.15465516 L10.6355409,7.13735716 C11.1000579,7.43330691 11.2395131,8.05424082 10.9470228,8.52425187 C10.8687354,8.65005398 10.7638572,8.7567297 10.6399372,8.83660052 L7.52792662,10.8424012 C7.06494736,11.1408076 6.45054998,11.002956 6.15563165,10.5345008 C6.05399159,10.3730534 6,10.1856086 6,9.99418811 L6,6.00568545 C6,5.45026071 6.44499751,5 6.99392975,5 Z M6.99392975,6.00568545 L6.99392975,9.99418811 L10.1059404,7.98838745 L6.99392975,6.00568545 Z"></path>
        </g>
    </g>
</svg>