<?xml version="1.0" encoding="UTF-8"?>
<svg width="16px" height="16px" viewBox="0 0 16 16" version="1.1" xmlns="http://www.w3.org/2000/svg" xmlns:xlink="http://www.w3.org/1999/xlink">
    <title>reset</title>
    <g id="reset" stroke="none" stroke-width="1" fill="none" fill-rule="evenodd">
        <g id="ipd_reset" transform="translate(1.500000, 1.500116)" fill="#71757F" fill-rule="nonzero">
            <path d="M12.4869832,0.665233288 C12.738719,0.665233288 12.9480871,0.84663079 12.9915055,1.08584371 L12.9997672,1.17801728 L12.9997672,6.49988358 C12.9997672,6.78308636 12.770186,7.01266758 12.4869832,7.01266758 C12.2352474,7.01266758 12.0258792,6.83127007 11.9824608,6.59205716 L11.9741992,6.49988358 L11.9741992,1.17801728 C11.9741992,0.894814502 12.2037804,0.665233288 12.4869832,0.665233288 Z" id="路径"></path>
            <path d="M0.512783993,5.98709959 C0.764519796,5.98709959 0.973887943,6.16849709 1.01730635,6.40771001 L1.02556799,6.49988358 L1.02556799,11.8217499 C1.02556799,12.1049527 0.795986772,12.3345339 0.512783993,12.3345339 C0.261048189,12.3345339 0.0516800421,12.1531364 0.00826163665,11.9139235 L0,11.8217499 L0,6.49988358 C0,6.21668081 0.229581214,5.98709959 0.512783993,5.98709959 Z" id="路径"></path>
            <path d="M0.512783993,5.98709959 C0.795986772,5.98709959 1.02556799,6.21668081 1.02556799,6.49988358 C1.02556799,9.52325612 3.47651104,11.9741992 6.49988358,11.9741992 C7.93807764,11.9741992 9.28736963,11.4178774 10.3014531,10.4389664 C10.5052101,10.2422766 10.8298364,10.2480056 11.0265263,10.4517626 C11.2232162,10.6555196 11.2174871,10.9801459 11.0137301,11.1768358 C9.81032798,12.3384991 8.2065012,12.9997672 6.49988358,12.9997672 C2.91010549,12.9997672 -1.90070182e-13,10.0896617 -1.90070182e-13,6.49988358 C-1.90070182e-13,6.21668081 0.229581214,5.98709959 0.512783993,5.98709959 Z M6.50011642,5.5067062e-14 C10.0898945,5.5067062e-14 13,2.91010549 13,6.49988358 C13,6.78308636 12.7704188,7.01266758 12.487216,7.01266758 C12.2040132,7.01266758 11.974432,6.78308636 11.974432,6.49988358 C11.974432,3.47651104 9.52348896,1.02556799 6.50011642,1.02556799 C4.99407431,1.02556799 3.58651884,1.63600716 2.56102949,2.69831827 C2.36433729,2.90207301 2.0397109,2.90779832 1.83595617,2.71110612 C1.63220143,2.51441392 1.62647612,2.18978753 1.82316832,1.9860328 C3.0399838,0.725525707 4.7129067,5.5067062e-14 6.50011642,5.5067062e-14 Z" id="形状结合"></path>
        </g>
    </g>
</svg>