<?xml version="1.0" encoding="UTF-8"?>
<svg width="16px" height="16px" viewBox="0 0 16 16" version="1.1" xmlns="http://www.w3.org/2000/svg" xmlns:xlink="http://www.w3.org/1999/xlink">
    <title>function icon/response</title>
    <g id="图标入库记录" stroke="none" stroke-width="1" fill="none" fill-rule="evenodd">
        <g id="DevUI图标入库-2023.09" transform="translate(-232.000000, -120.000000)" fill="#71757F" fill-rule="nonzero">
            <g id="编组" transform="translate(232.000000, 120.000000)">
                <path d="M13,1 C14.1045695,1 15,1.8954305 15,3 L15,13 C15,14.1045695 14.1045695,15 13,15 L3,15 C1.8954305,15 1,14.1045695 1,13 L1,3 C1,1.8954305 1.8954305,1 3,1 Z M13,2 L3,2 C2.44771525,2 2,2.44771525 2,3 L2,13 C2,13.5522847 2.44771525,14 3,14 L13,14 C13.5522847,14 14,13.5522847 14,13 L14,3 C14,2.44771525 13.5522847,2 13,2 Z M9.5,4 L8.5,7 L10,8 L7,12 L7.5,9 L6,8 L9.5,4 Z" id="形状结合"></path>
            </g>
        </g>
    </g>
</svg>