<?xml version="1.0" encoding="UTF-8"?>
<svg width="16px" height="16px" viewBox="0 0 16 16" version="1.1" xmlns="http://www.w3.org/2000/svg" xmlns:xlink="http://www.w3.org/1999/xlink">
    <title>function icon/response header</title>
    <g id="图标入库记录" stroke="none" stroke-width="1" fill="none" fill-rule="evenodd">
        <g id="DevUI图标入库-2023.09" transform="translate(-712.000000, -120.000000)" fill="#71757F" fill-rule="nonzero">
            <g id="编组" transform="translate(712.000000, 120.000000)">
                <path d="M13,2 C14.0543618,2 14.9181651,2.81587779 14.9945143,3.85073766 L15,4 L15,12 C15,13.0543618 14.1841222,13.9181651 13.1492623,13.9945143 L13,14 L3,14 C1.9456382,14 1.08183488,13.1841222 1.00548574,12.1492623 L1,12 L1,4 C1,2.9456382 1.81587779,2.08183488 2.85073766,2.00548574 L3,2 L13,2 Z M14,6 L2,6 L2,12 C2,12.5128358 2.38604019,12.9355072 2.88337887,12.9932723 L3,13 L13,13 C13.5128358,13 13.9355072,12.6139598 13.9932723,12.1166211 L14,12 L14,6 Z M10.5,10 C10.7761424,10 11,10.2238576 11,10.5 C11,10.7761424 10.7761424,11 10.5,11 L7.5,11 C7.22385763,11 7,10.7761424 7,10.5 C7,10.2238576 7.22385763,10 7.5,10 L10.5,10 Z M4.7843055,7.08859116 L4.85355339,7.14644661 L6.35355339,8.64644661 C6.52711974,8.82001296 6.54640489,9.08943736 6.41140884,9.2843055 L6.35355339,9.35355339 L4.85355339,10.8535534 C4.65829124,11.0488155 4.34170876,11.0488155 4.14644661,10.8535534 C3.97288026,10.679987 3.95359511,10.4105626 4.08859116,10.2156945 L4.14644661,10.1464466 L5.293,9 L4.14644661,7.85355339 C3.97288026,7.67998704 3.95359511,7.41056264 4.08859116,7.2156945 L4.14644661,7.14644661 C4.32001296,6.97288026 4.58943736,6.95359511 4.7843055,7.08859116 Z M13,3 L3,3 C2.48716416,3 2.06449284,3.38604019 2.00672773,3.88337887 L2,4 L2,5 L14,5 L14,4 C14,3.48716416 13.6139598,3.06449284 13.1166211,3.00672773 L13,3 Z" id="形状"></path>
            </g>
        </g>
    </g>
</svg>