<?xml version="1.0" encoding="UTF-8"?>
<svg width="14px" height="14px" viewBox="0 0 14 14" version="1.1" xmlns="http://www.w3.org/2000/svg" xmlns:xlink="http://www.w3.org/1999/xlink">
    <title>retrieval</title>
    <g id="切图" stroke="none" stroke-width="1" fill="none" fill-rule="evenodd">
        <g id="入库图标时间表备份-2" transform="translate(-576.000000, -10724.000000)" fill="#71757F" fill-rule="nonzero">
            <g id="retrieval" transform="translate(576.000000, 10724.000000)">
                <path d="M4,0 L2,0 C0.8954305,0 0,0.8954305 0,2 L0,4 C0,5.1045695 0.8954305,6 2,6 L4,6 C5.1045695,6 6,5.1045695 6,4 L6,2 C6,0.8954305 5.1045695,0 4,0 Z M4,1 C4.55228475,1 5,1.44771525 5,2 L5,4 C5,4.55228475 4.55228475,5 4,5 L2,5 C1.44771525,5 1,4.55228475 1,4 L1,2 C1,1.44771525 1.44771525,1 2,1 L4,1 Z M4,7 L2,7 C0.8954305,7 0,7.8954305 0,9 L0,11 C0,12.1045695 0.8954305,13 2,13 L4,13 C5.1045695,13 6,12.1045695 6,11 L6,9 C6,7.8954305 5.1045695,7 4,7 Z M4,8 C4.55228475,8 5,8.44771525 5,9 L5,11 C5,11.5522847 4.55228475,12 4,12 L2,12 C1.44771525,12 1,11.5522847 1,11 L1,9 C1,8.44771525 1.44771525,8 2,8 L4,8 Z M11,0 L9,0 C7.8954305,0 7,0.8954305 7,2 L7,4 C7,5.1045695 7.8954305,6 9,6 L11,6 C12.1045695,6 13,5.1045695 13,4 L13,2 C13,0.8954305 12.1045695,0 11,0 Z M11,1 C11.5522847,1 12,1.44771525 12,2 L12,4 C12,4.55228475 11.5522847,5 11,5 L9,5 C8.44771525,5 8,4.55228475 8,4 L8,2 C8,1.44771525 8.44771525,1 9,1 L11,1 Z M10,7 C11.6568542,7 13,8.34314575 13,10 C13,10.6478836 12.7946246,11.2477991 12.4454251,11.7381953 L13.8535534,13.1464466 C14.0488155,13.3417088 14.0488155,13.6582912 13.8535534,13.8535534 C13.6582912,14.0488155 13.3417088,14.0488155 13.1464466,13.8535534 L11.7381953,12.4454251 C11.2477991,12.7946246 10.6478836,13 10,13 C8.34314575,13 7,11.6568542 7,10 C7,8.34314575 8.34314575,7 10,7 Z M10,8 C8.8954305,8 8,8.8954305 8,10 C8,11.1045695 8.8954305,12 10,12 C11.1045695,12 12,11.1045695 12,10 C12,8.8954305 11.1045695,8 10,8 Z" id="形状结合"></path>
            </g>
        </g>
    </g>
</svg>