<?xml version="1.0" encoding="UTF-8"?>
<svg width="16px" height="16px" viewBox="0 0 16 16" version="1.1" xmlns="http://www.w3.org/2000/svg" xmlns:xlink="http://www.w3.org/1999/xlink">
    <title>评审</title>
    <g id="评审" stroke="none" stroke-width="1" fill="none" fill-rule="evenodd">
        <path d="M14,13.6333333 C14.3037566,13.6333333 14.55,13.8795767 14.55,14.1833333 C14.55,14.4567143 14.3505429,14.6835095 14.0892129,14.7261348 L14,14.7333333 L2,14.7333333 C1.69624339,14.7333333 1.45,14.4870899 1.45,14.1833333 C1.45,13.9099524 1.64945714,13.6831571 1.91078714,13.6405319 L2,13.6333333 L14,13.6333333 Z M8.11994998,0.45 C10.3753085,0.45 11.9761398,1.67693881 11.9761398,4.14131613 C11.9761398,5.33066612 11.6097136,6.16734854 10.9217359,6.93599017 L10.9217359,6.93599017 L10.3385039,7.55157714 L10.2256888,7.68194971 C10.165911,7.76341419 10.1476968,7.80902209 10.1476968,7.84100645 L10.1476968,7.84100645 L10.15,8.271 L13.625004,8.27156774 C14.0932287,8.27156774 14.4894663,8.61485943 14.5436828,9.06959477 L14.5436828,9.06959477 L14.55,9.17640645 L14.55,12 C14.55,12.3037566 14.3037566,12.55 14,12.55 L14,12.55 L2,12.55 C1.69611188,12.55 1.44981405,12.3035513 1.44999937,11.9996633 L1.44999937,11.9996633 L1.45172955,9.17545877 C1.45260145,8.66943975 1.87275979,8.27208596 2.37694224,8.27156774 L2.37694224,8.27156774 L5.916,8.271 L5.921,7.867 L5.87364143,7.79650428 L5.78603664,7.69285557 L5.24853287,7.12704101 L5.13503536,7.00085064 C4.45595217,6.20998123 4.08327452,5.33042765 4.08327452,4.14131613 C4.08327452,1.68671123 5.81265606,0.45 8.11994998,0.45 Z M8.11994998,1.55 C6.35615153,1.55 5.18327452,2.38874503 5.18327452,4.14131613 C5.18327452,5.04754641 5.45174319,5.68115719 5.96959415,6.28425339 L5.96959415,6.28425339 L6.21881217,6.55414827 L6.53988158,6.88770853 L6.64079831,6.99851611 C6.81993827,7.20271954 6.92591768,7.37060661 6.98415791,7.57673957 C7.00854665,7.66306 7.02135499,7.75132396 7.02135499,7.84100645 L7.02135499,7.84100645 L7.02105104,8.01479274 L7.01755841,8.27125898 L7.00789676,8.45856576 C6.99877985,8.5666131 6.98369187,8.6472421 6.95891605,8.73782867 C6.85021761,9.1352573 6.54620898,9.37156774 6.12763364,9.37156774 L6.12763364,9.37156774 L2.551,9.371 L2.549,11.45 L13.45,11.45 L13.45,9.371 L9.89041866,9.37156774 C9.27006251,9.37156774 9.10271498,9.20807326 9.06076625,8.48490023 L9.06076625,8.48490023 L9.05027368,8.18670162 L9.04769677,7.84100645 C9.04769677,7.54649209 9.15157469,7.28638441 9.33883647,7.03118635 C9.36204176,6.99956247 9.39785531,6.95641628 9.44157285,6.90630716 L9.44157285,6.90630716 L9.59173318,6.73965033 L10.0832499,6.22230744 L10.2261734,6.05735905 C10.661103,5.52392663 10.8761398,4.96433557 10.8761398,4.14131613 C10.8761398,2.35790927 9.82203147,1.55 8.11994998,1.55 Z" id="形状结合" fill="#71757F" fill-rule="nonzero"></path>
    </g>
</svg>