<?xml version="1.0" encoding="UTF-8"?>
<svg width="16px" height="16px" viewBox="0 0 16 16" version="1.1" xmlns="http://www.w3.org/2000/svg" xmlns:xlink="http://www.w3.org/1999/xlink">
    <title>function icon/revoke</title>
    <g id="页面-1" stroke="none" stroke-width="1" fill="none" fill-rule="evenodd">
        <g id="API-starter-图标入库" transform="translate(-192.000000, -204.000000)">
            <g id="方格备份-19" transform="translate(160.000000, 180.000000)">
                <text id="图标" font-family="PingFangSC-Regular, PingFang SC" font-size="12" font-weight="normal" line-spacing="16" fill="#71757F">
                    <tspan x="27.136" y="61">撤销</tspan>
                </text>
            </g>
            <path d="M197,210.63915 C197,210.676634 196.989466,210.713364 196.9696,210.74515 C196.911058,210.838818 196.787668,210.867292 196.694,210.80875 L196.694,210.80875 L193.271359,208.6696 C193.245606,208.653504 193.223856,208.631754 193.20776,208.606 C193.149218,208.512332 193.177692,208.388942 193.271359,208.3304 L193.271359,208.3304 L196.694,206.19125 C196.725787,206.171383 196.762516,206.16085 196.8,206.16085 C196.910457,206.16085 197,206.250393 197,206.36085 L197,206.36085 L196.999332,207.99985 L202,208 C204.761424,208 207,210.238576 207,213 C207,215.688755 204.877693,217.881818 202.21689,217.99538 L202,218 L197.5,218 C197.223858,218 197,217.776142 197,217.5 C197,217.25454 197.176875,217.050392 197.410124,217.008056 L197.5,217 L202,217 C204.209139,217 206,215.209139 206,213 C206,210.857805 204.316032,209.108921 202.19964,209.004895 L202,209 L196.999332,208.99985 Z" id="形状结合" fill="#71757F" fill-rule="nonzero"></path>
        </g>
    </g>
</svg>