<?xml version="1.0" encoding="UTF-8"?>
<svg width="16px" height="16px" viewBox="0 0 16 16" version="1.1" xmlns="http://www.w3.org/2000/svg" xmlns:xlink="http://www.w3.org/1999/xlink">
    <title>撤消</title>
    <g id="撤消" stroke="none" stroke-width="1" fill="none" fill-rule="evenodd">
        <g id="ipd-return" transform="translate(1.000000, 1.500000)" fill="#71757F" fill-rule="nonzero">
            <path d="M5.85355339,10.1464466 C6.02711974,10.320013 6.04640489,10.5894374 5.91140884,10.7843055 L5.85355339,10.8535534 C5.67998704,11.0271197 5.41056264,11.0464049 5.2156945,10.9114088 L5.14644661,10.8535534 L0.146446609,5.85355339 C-0.0271197425,5.67998704 -0.0464048927,5.41056264 0.0885911588,5.2156945 L0.146446609,5.14644661 L5.14644661,0.146446609 C5.34170876,-0.0488155365 5.65829124,-0.0488155365 5.85355339,0.146446609 C6.02711974,0.320012961 6.04640489,0.589437362 5.91140884,0.784305503 L5.85355339,0.853553391 L1.707,5 L7.5,5 C11.0118106,5 13.8731506,7.78499621 13.995897,11.2668659 L14,11.5 L14,12.5 C14,12.7761424 13.7761424,13 13.5,13 C13.2545401,13 13.0503916,12.8231248 13.0080557,12.5898756 L13,12.5 L13,11.5 C13,8.53652085 10.65622,6.12046086 7.72120714,6.0043672 L7.5,6 L1.707,6 L5.85355339,10.1464466 Z" id="路径"></path>
        </g>
    </g>
</svg>