<?xml version="1.0" encoding="UTF-8"?>
<svg width="14px" height="14px" viewBox="0 0 14 14" version="1.1" xmlns="http://www.w3.org/2000/svg" xmlns:xlink="http://www.w3.org/1999/xlink">
    <title>线性/ic_rocket_lined</title>
    <defs>
        <filter id="filter-1">
            <feColorMatrix in="SourceGraphic" type="matrix" values="0 0 0 0 0.729412 0 0 0 0 0.733333 0 0 0 0 0.752941 0 0 0 1.000000 0"></feColorMatrix>
        </filter>
    </defs>
    <g id="release" stroke="none" stroke-width="1" fill="none" fill-rule="evenodd">
        <g id="代码-发布" transform="translate(-386.000000, -323.000000)">
            <g id="编组-29备份-3" transform="translate(382.000000, 318.000000)">
                <g id="线性/ic_rocket_lined" transform="translate(3.000000, 4.000000)" filter="url(#filter-1)">
                    <g id="编组">
                        <path d="M13.4832461,1.34502091 C14.1132737,1.37437704 14.6261143,1.88687665 14.6554364,2.51730179 C14.7749335,5.09242975 13.8680393,7.68626213 12.2579143,9.69366338 C12.0851346,9.90907411 11.7704441,9.94363339 11.5550334,9.77085368 C11.3396226,9.59807397 11.3050634,9.28338344 11.4778431,9.06797271 C12.935676,7.25043948 13.7647212,4.89554746 13.6565138,2.56370972 C13.6511893,2.44923339 13.5511597,2.34927031 13.4367459,2.34393919 C10.8329889,2.22284851 8.29232873,3.16828915 6.40130936,4.9586536 L6.21439461,5.14049825 L5.62772795,5.72783159 C5.57272597,5.78289606 5.50807807,5.82245529 5.43921654,5.84650619 C5.41337889,5.85542237 5.38659863,5.86243994 5.35923161,5.8671961 C5.31540528,5.87474256 5.27076946,5.87642386 5.22658326,5.87224194 C5.22586757,5.87216915 5.22485809,5.87206954 5.22384839,5.87196681 L5.15681749,5.86052511 C5.14905117,5.85870559 5.14772395,5.85836258 5.14639787,5.85801404 L3.69982774,5.50978056 C3.49039064,5.45921499 3.27056202,5.50737607 3.10221185,5.6368719 L3.0333939,5.69729908 L2.54010718,6.18967902 L9.80944051,13.4590124 L10.3029538,12.966859 C10.4577519,12.8120609 10.5311768,12.5950157 10.5010872,12.3622732 L10.1862414,10.6656831 C10.135834,10.3941805 10.3150671,10.1332207 10.5865697,10.0828133 C10.8354472,10.0366064 11.0754656,10.1833615 11.152567,10.4172677 L11.1694396,10.4831416 L11.462542,12.0657329 C11.592127,12.6024597 11.4534714,13.1665317 11.0962214,13.5811558 L11.0099213,13.674105 L10.1632546,14.520105 C9.98572839,14.6974914 9.70804938,14.7135714 9.51236517,14.568377 L9.4563019,14.5199805 L1.47963523,6.54398052 C1.30211152,6.36647165 1.28596754,6.08868664 1.43120708,5.89293962 L1.47962045,5.83685897 L2.32628712,4.9901923 C2.71674397,4.59973545 3.27036803,4.42393403 3.80999634,4.51248326 L3.93419687,4.53763293 L5.11817385,4.82258764 L5.50714567,4.43353376 C7.61513386,2.32624358 10.5118806,1.20683418 13.4832461,1.34502091 Z M6.43046057,12.7819256 C6.60797161,12.9594367 6.62410898,13.2372125 6.47887267,13.4329535 L6.43046057,13.4890324 L5.89512724,14.0243657 C5.69986509,14.2196279 5.3832826,14.2196279 5.18802045,14.0243657 C5.01050941,13.8468547 4.99437205,13.5690789 5.13960835,13.3733379 L5.18802045,13.317259 L5.72335379,12.7819256 C5.91861593,12.5866635 6.23519842,12.5866635 6.43046057,12.7819256 Z M4.82477066,11.1759024 C5.00222641,11.3534687 5.01827727,11.6312495 4.87298001,11.8269453 L4.82455045,11.8830092 L3.75388378,12.9530092 C3.55856083,13.1482105 3.24197836,13.1481119 3.04677703,12.952789 C2.86932128,12.7752226 2.85327042,12.4974418 2.99856768,12.3017461 L3.04699725,12.2456822 L4.11766391,11.1756822 C4.31298686,10.9804809 4.62956933,10.9805795 4.82477066,11.1759024 Z M3.2191939,9.57032563 C3.39670494,9.74783667 3.41284231,10.0256125 3.267606,10.2213535 L3.2191939,10.2774324 L2.68386057,10.8127657 C2.48859842,11.0080279 2.17201593,11.0080279 1.97675379,10.8127657 C1.79924275,10.6352547 1.78310538,10.3574789 1.92834169,10.1617379 L1.97675379,10.105659 L2.51208712,9.57032563 C2.70734927,9.37506349 3.02393176,9.37506349 3.2191939,9.57032563 Z M7.88848712,5.4089923 C8.6350826,4.66239682 9.84499842,4.66239682 10.59138,5.40877848 C11.3382607,6.1547561 11.3382607,7.36566861 10.5915939,8.11143241 C9.84499842,8.85802789 8.6350826,8.85802789 7.88848712,8.11143241 C7.14255831,7.3655036 7.14255831,6.15492111 7.88848712,5.4089923 Z M9.88448712,6.11609908 C9.52841593,5.76002789 8.95166509,5.76002789 8.5955939,6.11609908 C8.24018938,6.4715036 8.24018938,7.04892111 8.5955939,7.40432563 C8.95166509,7.76039682 9.52841593,7.76039682 9.88470107,7.40411181 C10.240487,7.0487561 10.240487,6.47166861 9.88448712,6.11609908 Z" id="形状结合" fill="#191919"></path>
                    </g>
                </g>
            </g>
        </g>
    </g>
</svg>