<?xml version="1.0" encoding="UTF-8"?>
<svg width="16px" height="16px" viewBox="0 0 16 16" version="1.1" xmlns="http://www.w3.org/2000/svg" xmlns:xlink="http://www.w3.org/1999/xlink">
    <title>roll back</title>
    <g id="roll-back" stroke="none" stroke-width="1" fill="none" fill-rule="evenodd">
        <path d="M9.37160431,2.01 C6.98773775,2.01462132 4.86325558,3.51496184 4.06160431,5.76 L1.50160431,5.76 C1.36176554,5.75955174 1.22812927,5.8176847 1.1331212,5.92029342 C1.03811313,6.02290213 0.990416432,6.16060878 1.00160431,6.3 C1.00160431,6.57614237 1.22546193,6.8 1.50160431,6.8 L7.50160431,6.8 C7.77551276,6.79467989 7.9962842,6.57390845 8.00160431,6.3 C8.00160431,6.02385763 7.77774668,5.8 7.50160431,5.8 L5.15160431,5.8 C6.00361478,3.88249361 8.03643658,2.77540373 10.109465,3.09991217 C12.1824934,3.4244206 13.7797586,5.09975829 14.0050442,7.18590282 C14.2303298,9.27204734 13.0275629,11.2497643 11.0716093,12.009368 C9.11565558,12.7689717 6.89334541,12.1213993 5.65160431,10.43 L9.00160431,10.68 L9.00160431,10.68 C9.26285116,10.6808372 9.48070579,10.480411 9.50160431,10.22 C9.51550021,10.0883155 9.47550877,9.95661287 9.39073832,9.85488832 C9.30596787,9.75316378 9.1836359,9.6900783 9.05160431,9.68 L4.77160431,9.3 C4.64077247,9.29322322 4.51220371,9.33607947 4.41160431,9.42 C4.30923651,9.50095509 4.2442464,9.62010361 4.23160431,9.75 L3.85160431,14.03 C3.82816863,14.304865 4.02754146,14.5485429 4.30160431,14.58 L4.30160431,14.58 C4.56101135,14.57616 4.77619788,14.3781884 4.80160431,14.12 L5.10160431,11.3 C6.79696403,13.2722652 9.62262054,13.8265859 11.9374652,12.6410191 C14.2523099,11.4554523 15.4538171,8.83858653 14.8441653,6.31026709 C14.2345136,3.78194766 11.9723877,2.00026508 9.37160431,2 L9.37160431,2.01 Z" id="路径" fill="#252B3A" fill-rule="nonzero"></path>
    </g>
</svg>