<?xml version="1.0" encoding="UTF-8"?>
<svg width="16px" height="16px" viewBox="0 0 16 16" version="1.1" xmlns="http://www.w3.org/2000/svg" xmlns:xlink="http://www.w3.org/1999/xlink">
    <title>rotate</title>
    <g id="rotate" stroke="none" stroke-width="1" fill="none" fill-rule="evenodd">
        <path d="M14,7.5 C14.2761424,7.5 14.5,7.72385763 14.5,8 L14.5,8 L14.5,14 C14.5,14.2761424 14.2761424,14.5 14,14.5 L14,14.5 L4,14.5 C3.72385763,14.5 3.5,14.2761424 3.5,14 L3.5,14 L3.5,8 C3.5,7.72385763 3.72385763,7.5 4,7.5 L4,7.5 Z M13.5,8.5 L4.5,8.5 L4.5,13.5 L13.5,13.5 L13.5,8.5 Z M7.9999985,1.5 C10.0863563,1.5 12.0086168,2.49038102 13.226718,4.13527273 C13.3910562,4.35719067 13.3443785,4.67031313 13.1224606,4.83465131 C12.9005427,4.99898949 12.5874202,4.95231188 12.423082,4.73039394 C11.3916117,3.33752361 9.76603677,2.5 7.9999985,2.5 C6.35412933,2.5 4.8295104,3.22720599 3.76595707,4.4887602 L3.60190871,4.69236542 L3.156,5.166 L5,5.16666667 C5.24545989,5.16666667 5.44960837,5.34354183 5.49194433,5.57679103 L5.5,5.66666667 C5.5,5.91212656 5.32312484,6.11627504 5.08987563,6.158611 L5,6.16666667 L2,6.16666667 L1.9857307,6.16646848 C1.96958516,6.16601338 1.95345296,6.16478023 1.93739502,6.16276715 L2,6.16666667 C1.96642975,6.16666667 1.93363221,6.16335829 1.90191565,6.15704979 C1.88623767,6.15390918 1.87040519,6.14995851 1.85475352,6.14522111 C1.84054895,6.14093619 1.82666596,6.13603579 1.81307894,6.13055578 C1.80208302,6.12612724 1.79130801,6.12133649 1.78067528,6.11614401 C1.7649959,6.10845623 1.74977243,6.09999176 1.73506236,6.09078323 C1.72528141,6.08470046 1.71543563,6.07804712 1.70578032,6.07100275 C1.69200008,6.06093094 1.67883429,6.05026655 1.66624459,6.03897289 C1.663894,6.03687257 1.66071685,6.03396167 1.65756791,6.03100204 L1.63621612,6.00968654 C1.62642467,5.99930617 1.61707261,5.98850682 1.60818967,5.97731821 L1.65756791,6.03100204 C1.6283542,6.00354462 1.60317519,5.97340365 1.58205386,5.94132133 C1.57444237,5.92965036 1.56731373,5.91777925 1.56067665,5.90560163 C1.55328521,5.89214794 1.54631756,5.87775871 1.54007638,5.86312655 C1.53489351,5.85099238 1.53028623,5.83892869 1.52614269,5.82665153 C1.52092037,5.81104562 1.51639679,5.79500632 1.51268577,5.77881287 C1.51096443,5.77157589 1.50942536,5.7640886 1.50805567,5.7565423 L1.50596688,5.74382881 C1.50291855,5.72422266 1.5010364,5.70446297 1.50032391,5.68466227 L1.5,5.66666667 L1.5,2.66666667 C1.5,2.39052429 1.72385763,2.16666667 2,2.16666667 C2.24545989,2.16666667 2.44960837,2.34354183 2.49194433,2.57679103 L2.5,2.66666667 L2.5,4.406 L2.8409442,4.04549068 C4.06339405,2.452878 5.95331267,1.5 7.9999985,1.5 Z" id="形状结合" fill="#71757F" fill-rule="nonzero"></path>
    </g>
</svg>