<?xml version="1.0" encoding="UTF-8"?>
<svg width="16px" height="16px" viewBox="0 0 16 16" version="1.1" xmlns="http://www.w3.org/2000/svg" xmlns:xlink="http://www.w3.org/1999/xlink">
    <title>run-with-parameter-2</title>
    <g id="页面-1" stroke="none" stroke-width="1" fill="none" fill-rule="evenodd">
        <g id="API测试图标备份" transform="translate(-57.000000, -319.000000)">
            <g id="run-with-parameter-2" transform="translate(57.000000, 319.000000)">
                <path d="M10.383188,8.5 C10.4870748,8.5 10.5890085,8.528234 10.6780908,8.58168334 L14.7227053,11.008452 C14.9941558,11.1713223 15.0821774,11.5234089 14.9193071,11.7948595 C14.8709016,11.8755354 14.8033813,11.9430557 14.7227053,11.9914613 L10.6780908,14.41823 C10.4066402,14.5811004 10.0545536,14.4930786 9.8916833,14.2216282 C9.83823398,14.1325459 9.81,14.0306123 9.81,13.9267254 L9.81,9.07318797 C9.81,8.75662497 10.066625,8.5 10.383188,8.5 Z M14,1 C14.5122211,1 14.9354193,1.38432343 14.9932629,1.88064219 L15,1.99704142 L15,8 C15,8.27614237 14.7761424,8.5 14.5,8.5 C14.2545401,8.5 14.0503916,8.32312484 14.0080557,8.08987563 L14,8 L14,2 L2,2 L2,13 L8.3,13 C8.57614237,13 8.8,13.2238576 8.8,13.5 C8.8,13.7454599 8.62312484,13.9496084 8.38987563,13.9919443 L8.3,14 L2,14 C1.48777895,14 1.06458067,13.6156766 1.00673714,13.1193578 L1,13.0029586 L1,1.99704142 C1,1.48510401 1.38661107,1.06421363 1.8835012,1.00669835 L2,1 L14,1 Z M10.809,9.826 L10.809,13.172 L13.598,11.499 L10.809,9.826 Z M7.5,9 C7.77614237,9 8,9.22385763 8,9.5 C8,9.77614237 7.77614237,10 7.5,10 L4.5,10 C4.22385763,10 4,9.77614237 4,9.5 C4,9.22385763 4.22385763,9 4.5,9 L7.5,9 Z M11.5,5 C11.7761424,5 12,5.22385763 12,5.5 C12,5.77614237 11.7761424,6 11.5,6 L4.5,6 C4.22385763,6 4,5.77614237 4,5.5 C4,5.22385763 4.22385763,5 4.5,5 L11.5,5 Z" id="形状结合" fill="#71757F" fill-rule="nonzero"></path>
            </g>
        </g>
    </g>
</svg>