<?xml version="1.0" encoding="UTF-8"?>
<svg width="16px" height="16px" viewBox="0 0 16 16" version="1.1" xmlns="http://www.w3.org/2000/svg" xmlns:xlink="http://www.w3.org/1999/xlink">
    <!-- Generator: Sketch 64 (93537) - https://sketch.com -->
    <title>run</title>
    <desc>Created with Sketch.</desc>
    <g id="run" stroke="none" stroke-width="1" fill="none" fill-rule="evenodd">
        <g fill="#252B3A" fill-rule="nonzero">
            <path d="M13.8490217,8.49989426 C13.7687648,8.6291385 13.6601489,8.73839603 13.5314127,8.81937963 L4.53437631,13.8461584 C4.06614444,14.1407072 3.44795194,13.9996493 3.15360473,13.5310967 C3.05324411,13.371339 3,13.1864713 3,12.9977689 L3,3.00209941 C3,2.44865519 3.44834812,2 4.00141355,2 C4.18821471,2 4.37129213,2.05228465 4.52995565,2.15094508 L13.526992,7.11983583 C13.9967499,7.4119415 14.1409275,8.0298147 13.8490217,8.49989426 Z M12.683281,7.7969284 L4.29810373,3.16595571 C4.20141286,3.1125552 4.07973976,3.14764896 4.02633925,3.24433983 C4.00998938,3.2739441 4.00141355,3.30721092 4.00141355,3.34103001 L4.00141355,12.6569266 C4.00141355,12.7673836 4.0909566,12.8569266 4.20141355,12.8569266 C4.23556576,12.8569266 4.26914905,12.8481811 4.29896337,12.8315234 L12.6841406,8.14659946 C12.7805678,8.09272418 12.8150629,7.97088 12.7611876,7.87445287 C12.742968,7.84184305 12.71598,7.81498743 12.683281,7.7969284 Z"></path>
        </g>
    </g>
</svg>