<?xml version="1.0" encoding="UTF-8"?>
<svg width="16px" height="16px" viewBox="0 0 16 16" version="1.1" xmlns="http://www.w3.org/2000/svg" xmlns:xlink="http://www.w3.org/1999/xlink">
    <!-- Generator: Sketch 64 (93537) - https://sketch.com -->
    <title>run_continue</title>
    <desc>Created with Sketch.</desc>
    <g id="run_continue" stroke="none" stroke-width="1" fill="none" fill-rule="evenodd">
        <g fill="#252B3A" fill-rule="nonzero">
            <path d="M2.5,2 C2.77614237,2 3,2.22385763 3,2.5 L3,13.5 C3,13.7761424 2.77614237,14 2.5,14 C2.22385763,14 2,13.7761424 2,13.5 L2,2.5 C2,2.22385763 2.22385763,2 2.5,2 Z M6.00203251,2 C6.18894913,2 6.37213971,2.05228465 6.5309013,2.15094508 L14.5266997,7.11983583 C14.9967478,7.4119415 15.1410146,8.0298147 14.8489284,8.49989426 C14.7686219,8.6291385 14.6599389,8.73839603 14.5311231,8.81937963 L6.5353247,13.8461584 C6.06680341,14.1407072 5.44822882,13.9996493 5.15369968,13.5310967 C5.05327702,13.371339 5,13.1864713 5,12.9977689 L5,3.00209941 C5,2.44865519 5.44862524,2 6.00203251,2 Z M6.03216144,3.25629537 C6.01246867,3.28798442 6.00203251,3.32455013 6.00203251,3.36185966 L6.00203251,12.6357933 C6.00203251,12.7462502 6.09157556,12.8357933 6.20203251,12.8357933 C6.23969596,12.8357933 6.27659397,12.8251583 6.3084797,12.8051125 L13.7269426,8.14129156 C13.8205217,8.0825024 13.8486038,7.95903758 13.7898146,7.86552516 C13.7736532,7.83981817 13.7518504,7.81812863 13.7260597,7.80210128 L6.3075968,3.19198859 C6.2137796,3.13368704 6.09046299,3.16247817 6.03216144,3.25629537 Z"></path>
        </g>
    </g>
</svg>