<?xml version="1.0" encoding="UTF-8"?>
<svg width="16px" height="16px" viewBox="0 0 16 16" version="1.1" xmlns="http://www.w3.org/2000/svg" xmlns:xlink="http://www.w3.org/1999/xlink">
    <title>function icon/SaaS</title>
    <g id="图标入库记录" stroke="none" stroke-width="1" fill="none" fill-rule="evenodd">
        <g id="语言-图标入库记录230112" transform="translate(-732.000000, -120.000000)" fill="#71757F" fill-rule="nonzero">
            <g id="ic_square_lined-(1)-5" transform="translate(732.000000, 120.000000)">
                <path d="M9,1.08231367 L13.4951905,3.67761313 C14.1139927,4.03487872 14.4951905,4.69513276 14.4951905,5.40966394 L14.4951905,10.6002629 C14.4951905,11.314794 14.1139927,11.9750481 13.4951905,12.3323137 L9,14.9276131 C8.38119785,15.2848787 7.61880215,15.2848787 7,14.9276131 L2.50480947,12.3323137 C1.88600732,11.9750481 1.50480947,11.314794 1.50480947,10.6002629 L1.50480947,5.40966394 C1.50480947,4.69513276 1.88600732,4.03487872 2.50480947,3.67761313 L7,1.08231367 C7.61880215,0.725048077 8.38119785,0.725048077 9,1.08231367 Z M7.61911042,1.88972519 L7.5,1.94833907 L3.00480947,4.54363853 C2.72978629,4.70242324 2.54863148,4.98090709 2.5117702,5.29175112 L2.50480947,5.40966394 L2.50480947,10.6002629 C2.50480947,10.9178323 2.65540615,11.2139589 2.90617435,11.4013037 L3.00480947,11.4662883 L7.5,14.0615877 C7.77072594,14.2178914 8.09642129,14.2374294 8.38088958,14.1202016 L8.5,14.0615877 L12.9951905,11.4662883 C13.2702137,11.3075036 13.4513685,11.0290197 13.4882298,10.7181757 L13.4951905,10.6002629 L13.4951905,5.40966394 C13.4951905,5.09209452 13.3445938,4.79596793 13.0938257,4.60862311 L12.9951905,4.54363853 L8.5,1.94833907 C8.22927406,1.79203538 7.90357871,1.77249741 7.61911042,1.88972519 Z M8.49829483,3.92978746 L9.66335834,4.60243719 C9.97275942,4.78106999 10.1633583,5.11119701 10.1633583,5.4684626 L10.1628095,6.78136447 L11.3578621,7.4716503 C11.6672632,7.65028309 11.8578621,7.98041011 11.8578621,8.3376757 L11.8578621,9.68297516 C11.8578621,10.0402408 11.6672632,10.3703678 11.3578621,10.5490006 L10.1927986,11.2216503 C9.88339754,11.4002831 9.50219969,11.4002831 9.19279861,11.2216503 L8.04980947,10.5613645 L6.85867119,11.2497398 C6.58794525,11.4060435 6.2622499,11.4255815 5.97778161,11.3083537 L5.85867119,11.2497398 L4.69360768,10.5770901 C4.3842066,10.3984573 4.19360768,10.0683303 4.19360768,9.71106469 L4.19360768,9.71106469 L4.19360768,8.36576522 C4.19360768,8.00849963 4.3842066,7.67837262 4.69360768,7.49973982 L4.69360768,7.49973982 L5.83280947,6.84036447 L5.83323132,5.4684626 C5.83323132,5.11119701 6.02383024,4.78106999 6.33323132,4.60243719 L7.49829483,3.92978746 C7.80769591,3.75115467 8.18889375,3.75115467 8.49829483,3.92978746 Z M6.35680947,7.69336447 L5.19360768,8.36576522 L5.19360768,9.71106469 L6.35867119,10.3837144 L7.52434238,9.711 L7.52380947,8.36636447 L6.35680947,7.69336447 Z M9.692,7.665 L8.527,8.337 L8.527,9.683 L9.69279861,10.3556249 L10.8578621,9.68297516 L10.8578621,8.3376757 L9.692,7.665 Z M7.99829483,4.79581287 L6.83323132,5.4684626 L6.833,6.814 L6.84180947,6.81836447 L6.85867119,6.82709009 L7.998,7.486 L9.163,6.814 L9.16335834,5.4684626 L7.99829483,4.79581287 Z" id="形状结合"></path>
            </g>
        </g>
    </g>
</svg>