<?xml version="1.0" encoding="UTF-8"?>
<svg width="16px" height="16px" viewBox="0 0 16 16" version="1.1" xmlns="http://www.w3.org/2000/svg" xmlns:xlink="http://www.w3.org/1999/xlink">
    <title>save</title>
    <g id="save" stroke="none" stroke-width="1" fill="none" fill-rule="evenodd">
        <path d="M13,1.5 C13.8284379,1.5 14.5,2.17156982 14.5,3 L14.5,3 L14.5,13 C14.5,13.8284424 13.8284424,14.5 13,14.5 L13,14.5 L3,14.5 C2.17156982,14.5 1.5,13.8284379 1.5,13 L1.5,13 L1.5,3 C1.5,2.17157429 2.17157429,1.5 3,1.5 L3,1.5 Z M4.833,2.5 L3,2.5 C2.72385904,2.5 2.5,2.72385904 2.5,3 L2.5,3 L2.5,13 C2.5,13.2761506 2.723852,13.5 3,13.5 L3,13.5 L13,13.5 C13.2761576,13.5 13.5,13.2761576 13.5,13 L13.5,13 L13.5,3 C13.5,2.723852 13.2761506,2.5 13,2.5 L13,2.5 L11.166,2.5 L11.1666667,5.33333333 C11.1666667,5.57879322 10.9897915,5.7829417 10.7565423,5.82527766 L10.6666667,5.83333333 L5.33333333,5.83333333 C5.05719096,5.83333333 4.83333333,5.60947571 4.83333333,5.33333333 L4.83333333,5.33333333 L4.833,2.5 Z M10.3333333,11.5 C10.6094757,11.5 10.8333333,11.7238576 10.8333333,12 C10.8333333,12.2454599 10.6564582,12.4496084 10.423209,12.4919443 L10.3333333,12.5 L5.66666667,12.5 C5.39052429,12.5 5.16666667,12.2761424 5.16666667,12 C5.16666667,11.7545401 5.34354183,11.5503916 5.57679103,11.5080557 L5.66666667,11.5 L10.3333333,11.5 Z M10.166,2.5 L5.833,2.5 L5.833,4.833 L10.166,4.833 L10.166,2.5 Z" id="å½¢çŠ¶ç»“åˆ" fill="#71757F" fill-rule="nonzero"></path>
    </g>
</svg>