<?xml version="1.0" encoding="UTF-8"?>
<svg width="16px" height="16px" viewBox="0 0 16 16" version="1.1" xmlns="http://www.w3.org/2000/svg" xmlns:xlink="http://www.w3.org/1999/xlink">
    <title>schedule</title>
    <g id="schedule" stroke="none" stroke-width="1" fill="none" fill-rule="evenodd">
        <path d="M2.91403505,5.12077366 C4.22041783,2.80988871 6.92099824,1.67079425 9.48774891,2.34800636 C12.0544996,3.02521847 13.8416067,5.34834547 13.8379049,8.00292858 C13.831875,9.57423075 13.1939879,11.0770495 12.0678992,12.1729286 L12.0678992,12.1729286 L13.6378992,13.7429286 C13.777959,13.8857787 13.8193869,14.0983642 13.7432151,14.2833528 C13.6670434,14.4683414 13.4879367,14.5901185 13.2878992,14.5929286 C13.1578286,14.5916802 13.0329491,14.5417285 12.9378992,14.4529286 L12.9378992,14.4529286 L11.2878992,12.8029286 C9.30948766,14.1760931 6.68631066,14.1760931 4.70789916,12.8029286 L4.70789916,12.8029286 L3.05789916,14.5129286 C2.9628492,14.6017285 2.83796974,14.6516802 2.70789916,14.6529286 C2.50786158,14.6501185 2.32875496,14.5283414 2.25258318,14.3433528 C2.17641139,14.1583642 2.2178393,13.9457787 2.35789916,13.8029286 L2.35789916,13.8029286 L3.92789916,12.1829286 C2.02416287,10.3328979 1.60765226,7.43165862 2.91403505,5.12077366 Z M11.4059005,4.52636053 C10.0133642,3.14533274 7.92506736,2.74117458 6.11782704,3.50293415 C4.31058671,4.26469372 3.14169071,6.04177266 3.15789916,8.00292858 C3.17986209,10.6603526 5.34038435,12.8029286 7.99789916,12.8029286 C9.95912206,12.8029286 11.7264396,11.6192586 12.4731753,9.80575892 C13.2199111,7.99225927 12.7984369,5.90738832 11.4059005,4.52636053 Z M7.99789916,4.63292858 C8.27404154,4.63292858 8.49789916,4.8567862 8.49789916,5.13292858 L8.49789916,5.13292858 L8.49789916,7.73292858 L10.3178992,9.58292858 C10.5096825,9.78074226 10.5096825,10.0951149 10.3178992,10.2929286 C10.1180573,10.4796391 9.80774102,10.4796391 9.60789916,10.2929286 L9.60789916,10.2929286 L7.60789916,8.29292858 C7.55923866,8.24891912 7.52156537,8.19412161 7.49789916,8.13292858 C7.48373187,8.07038753 7.48373187,8.00546963 7.49789916,7.94292858 L7.49789916,7.94292858 L7.49789916,5.13292858 C7.49789916,4.8567862 7.72175679,4.63292858 7.99789916,4.63292858 Z M3.29789916,1.14292858 C3.49232092,0.95235714 3.80347741,0.95235714 3.99789916,1.14292858 C4.09255549,1.23681188 4.14579832,1.36460981 4.14579832,1.49792858 C4.14579832,1.63124735 4.09255549,1.75904528 3.99789916,1.85292858 L3.99789916,1.85292858 L1.84789916,3.97292858 C1.75716583,4.0696058 1.63048507,4.12444722 1.49789916,4.12444722 C1.36531325,4.12444722 1.23863249,4.0696058 1.14789916,3.97292858 C1.05324284,3.87904528 1,3.75124735 1,3.61792858 C1,3.48460981 1.05324284,3.35681188 1.14789916,3.26292858 L1.14789916,3.26292858 Z M12.0278992,1.14292858 C12.2223209,0.95235714 12.5334774,0.95235714 12.7278992,1.14292858 L12.7278992,1.14292858 L14.8478992,3.26292858 C14.9425555,3.35681188 14.9957983,3.48460981 14.9957983,3.61792858 C14.9957983,3.75124735 14.9425555,3.87904528 14.8478992,3.97292858 C14.7571658,4.0696058 14.6304851,4.12444722 14.4978992,4.12444722 C14.3653133,4.12444722 14.2386325,4.0696058 14.1478992,3.97292858 L14.1478992,3.97292858 L12.0278992,1.85292858 C11.9332428,1.75904528 11.88,1.63124735 11.88,1.49792858 C11.88,1.36460981 11.9332428,1.23681188 12.0278992,1.14292858 Z" id="形状结合" fill="#252B3A" fill-rule="nonzero"></path>
    </g>
</svg>