<?xml version="1.0" encoding="UTF-8"?>
<svg width="16px" height="16px" viewBox="0 0 16 16" version="1.1" xmlns="http://www.w3.org/2000/svg" xmlns:xlink="http://www.w3.org/1999/xlink">
    <title>function icon/score</title>
    <g id="图标入库记录" stroke="none" stroke-width="1" fill="none" fill-rule="evenodd">
        <g id="DevUI图标入库-2023.08" transform="translate(-392.000000, -120.000000)" fill="#71757F" fill-rule="nonzero">
            <g id="编组" transform="translate(392.000000, 120.000000)">
                <path d="M6.86290388,0.987732875 C6.99227535,1.05158151 7.10192216,1.14812376 7.18148145,1.26700935 L7.23534757,1.3602012 L8.20119207,3.31775086 C8.21871463,3.35326514 8.23163258,3.38985221 8.24017585,3.42683434 L8.76467642,2.36015257 C8.9651027,1.95404457 9.45679588,1.7873066 9.86290388,1.98773288 C10.0246182,2.06754367 10.1555128,2.19843824 10.2353236,2.36015257 L10.2353236,2.36015257 L11.741,5.413 L15.1121144,5.90334852 C15.5258068,5.96346155 15.8222134,6.32263504 15.8141459,6.73003212 L15.8141459,6.73003212 L15.8056776,6.83274089 C15.7797455,7.01120325 15.695706,7.17614003 15.5665694,7.30201708 L15.5665694,7.30201708 L13.127,9.678 L13.703801,13.0350286 C13.7744681,13.4470494 13.5244685,13.8399395 13.1345179,13.9581595 L13.1345179,13.9581595 L13.0342192,13.9818443 C12.8564779,14.0123293 12.6736441,13.9833713 12.5140225,13.8994533 L12.5140225,13.8994533 L9.499,12.314 L6.4859775,13.8994533 C6.11852932,14.0926322 5.67130374,13.9792301 5.4369939,13.6502297 L5.4369939,13.6502297 L5.37859002,13.5552252 C5.29467198,13.3956036 5.26571395,13.2127698 5.29619896,13.0350286 L5.29619896,13.0350286 L5.50552518,11.8227529 C5.49927153,11.8281686 5.49286093,11.8334468 5.4862956,11.8385805 L5.4104952,11.8875379 L3.4859775,12.8994533 C3.08512494,13.1101939 2.58933068,12.9560778 2.37859002,12.5552252 C2.31145559,12.427528 2.27949556,12.2849749 2.28500525,12.142058 L2.29619896,12.0350286 L2.872,8.678 L0.433430613,6.30201708 C0.136158792,6.01224867 0.105810317,5.55186868 0.34630258,5.22736006 L0.418609381,5.14245669 C0.519311025,5.03914742 0.64501089,4.9647003 0.782635501,4.92577659 L0.887885576,4.90334852 L4.258,4.413 L5.76467642,1.36015257 C5.9651027,0.954044574 6.45679588,0.787306597 6.86290388,0.987732875 Z M9.5,3.129 L8.03806597,6.09197762 C7.96523496,6.23954936 7.82445217,6.34183405 7.66159709,6.36549828 L7.66159709,6.36549828 L4.392,6.84 L6.75807217,9.14626205 C6.8523466,9.23815691 6.905617,9.36245595 6.90891088,9.49154465 L6.90891088,9.49154465 L6.90187048,9.58882776 L6.343,12.844 L9.26732944,11.3074343 C9.38385905,11.246171 9.51853591,11.2339184 9.64232443,11.2706763 L9.64232443,11.2706763 L9.73267056,11.3074343 L12.656,12.844 L12.0981295,9.58882776 C12.0758743,9.45907013 12.1058388,9.32719854 12.1790505,9.2208275 L12.1790505,9.2208275 L12.2419278,9.14626205 L14.607,6.84 L11.3384029,6.36549828 C11.2081188,6.34656689 11.091961,6.27731842 11.0134198,6.17481955 L11.0134198,6.17481955 L10.961934,6.09197762 L9.5,3.129 Z M6.499,2.129 L5.03806597,5.09197762 C4.97980116,5.21003501 4.87804721,5.29910869 4.75629443,5.34213195 L4.66159709,5.36549828 L1.392,5.84 L3.75807217,8.14626205 C3.8523466,8.23815691 3.905617,8.36245595 3.90891088,8.49154465 L3.90187048,8.58882776 L3.343,11.844 L4.94510487,11.0024323 C5.16236278,10.8881977 5.42537172,10.9497421 5.57139544,11.1364895 L5.61079978,11.1978736 L5.872,9.678 L3.43343061,7.30201708 C3.13615879,7.01224867 3.10581032,6.55186868 3.34630258,6.22736006 L3.34630258,6.22736006 L3.41860938,6.14245669 C3.54448644,6.01332011 3.70942321,5.92928062 3.88788558,5.90334852 L3.88788558,5.90334852 L7.258,5.413 L7.95779978,3.99287357 L7.88987085,4.01992006 C7.69045266,4.07700436 7.4749245,4.00389059 7.35139933,3.83725397 L7.304408,3.76021931 L6.499,2.129 Z" id="形状结合"></path>
            </g>
        </g>
    </g>
</svg>