<?xml version="1.0" encoding="UTF-8"?>
<svg width="16px" height="16px" viewBox="0 0 16 16" version="1.1" xmlns="http://www.w3.org/2000/svg" xmlns:xlink="http://www.w3.org/1999/xlink">
    <title>搜索</title>
    <g id="搜索" stroke="none" stroke-width="1" fill="none" fill-rule="evenodd">
        <path d="M7.71295742,1.53283795 C11.0266659,1.53283795 13.7129574,4.21912945 13.7129574,7.53283795 C13.7129574,9.0690006 13.1356609,10.4703284 12.1861834,11.5317059 L14.5333041,13.8784875 C14.7285663,14.0737497 14.7285663,14.3903321 14.5333041,14.5855943 C14.3597378,14.7591606 14.0903134,14.7784458 13.8954453,14.6434497 L13.8261974,14.5855943 L11.4604434,12.2188804 C10.4336319,13.0411023 9.13072017,13.5328379 7.71295742,13.5328379 C4.39924893,13.5328379 1.71295742,10.8465464 1.71295742,7.53283795 C1.71295742,4.21912945 4.39924893,1.53283795 7.71295742,1.53283795 Z M7.71295742,2.53283795 C4.95153368,2.53283795 2.71295742,4.7714142 2.71295742,7.53283795 C2.71295742,10.2942617 4.95153368,12.5328379 7.71295742,12.5328379 C10.4743812,12.5328379 12.7129574,10.2942617 12.7129574,7.53283795 C12.7129574,4.7714142 10.4743812,2.53283795 7.71295742,2.53283795 Z" id="形状结合" fill="#71757F" fill-rule="nonzero"></path>
    </g>
</svg>