<?xml version="1.0" encoding="UTF-8"?>
<svg width="16px" height="16px" viewBox="0 0 16 16" version="1.1" xmlns="http://www.w3.org/2000/svg" xmlns:xlink="http://www.w3.org/1999/xlink">
    <title>selected-product选择产物</title>
    <g id="selected-product选择产物" stroke="none" stroke-width="1" fill="none" fill-rule="evenodd">
        <path d="M9.37017536,3.31017536 C10.7928186,3.31013294 11.9491897,4.45757449 11.9601754,5.88017536 L11.9601754,5.88017536 L11.9601754,6.74017536 L11.8601754,7.04017536 L6.86017536,12.0401754 C6.71600064,12.1770501 6.50640371,12.2197457 6.32017536,12.1501754 C6.24807044,12.1261274 6.18287363,12.0849505 6.13017536,12.0301754 L6.13017536,12.0301754 L3.78017536,9.68017536 C3.68349813,9.58944202 3.62865671,9.46276127 3.62865671,9.33017536 C3.62865671,9.19758945 3.68349813,9.07090869 3.78017536,8.98017536 C3.87405866,8.88551903 4.00185659,8.83227619 4.13517536,8.83227619 C4.26849412,8.83227619 4.39629206,8.88551903 4.49017536,8.98017536 L4.49017536,8.98017536 L6.49017536,10.9801754 L10.9601754,6.50017536 L10.9601754,5.89017536 C10.954677,5.01595036 10.2444176,4.31015807 9.37017536,4.31017536 L9.37017536,4.31017536 L3.63017536,4.31017536 C3.20332315,4.29942592 2.7900854,4.46081083 2.48349392,4.75799767 C2.17690243,5.05518451 2.00272548,5.46319543 2.00017536,5.89017536 L2.00017536,5.89017536 L2.00017536,11.6301754 C2.00003967,12.0588924 2.17303672,12.4694972 2.47992761,12.768857 C2.7868185,13.0682168 3.20159398,13.2309607 3.63017536,13.2201754 L3.63017536,13.2201754 L9.37017536,13.2201754 C10.2483081,13.2201754 10.9601754,12.5083081 10.9601754,11.6301754 L10.9601754,11.6301754 L10.9601754,10.0801754 C10.9601754,9.80403298 11.184033,9.58017536 11.4601754,9.58017536 C11.7363177,9.58017536 11.9601754,9.80403298 11.9601754,10.0801754 L11.9601754,10.0801754 L11.9601754,11.6301754 C11.9681772,12.3231913 11.6991592,12.9907203 11.2128598,13.48453 C10.7265605,13.9783398 10.0632325,14.2575559 9.37017536,14.2601754 L9.37017536,14.2601754 L3.63017536,14.2601754 C2.93019699,14.2682997 2.25651541,13.9938209 1.76152262,13.4988281 C1.26652983,13.0038353 0.992050992,12.3301537 1.00017536,11.6301754 L1.00017536,11.6301754 L1.00017536,5.89017536 C1.00276519,5.19801315 1.28229972,4.53568549 1.77641006,4.05096888 C2.27052041,3.56625226 2.93809093,3.29948067 3.63017536,3.31017536 L3.63017536,3.31017536 Z M11.6301754,1.00017536 C12.3301537,0.992050992 13.0038353,1.26652983 13.4988281,1.76152262 C13.9938209,2.25651541 14.2682997,2.93019699 14.2601754,3.63017536 L14.2601754,3.63017536 L14.2601754,9.37017536 C14.2548553,9.64408381 14.0340838,9.86485525 13.7601754,9.87017536 C13.484033,9.87017536 13.2601754,9.64631773 13.2601754,9.37017536 L13.2601754,9.37017536 L13.2601754,3.63017536 C13.2712792,3.19456332 13.1031157,2.77348355 12.7949914,2.46535927 C12.4868672,2.15723499 12.0657874,1.98907151 11.6301754,2.00017536 L11.6301754,2.00017536 L5.89017536,2.00017536 C5.61403298,2.00017536 5.39017536,1.77631773 5.39017536,1.50017536 C5.39549546,1.2262669 5.6162669,1.00549546 5.89017536,1.00017536 L5.89017536,1.00017536 Z" id="形状结合" fill="#252B3A" fill-rule="nonzero"></path>
    </g>
</svg>