<?xml version="1.0" encoding="UTF-8"?>
<svg width="16px" height="16px" viewBox="0 0 16 16" version="1.1" xmlns="http://www.w3.org/2000/svg" xmlns:xlink="http://www.w3.org/1999/xlink">
    <title>排序</title>
    <g id="排序" stroke="none" stroke-width="1" fill="none" fill-rule="evenodd">
        <path d="M5.02631579,2 C5.27177568,2 5.47592416,2.17687516 5.51826012,2.41012437 L5.52631579,2.5 L5.52631579,13.2368422 L5.52580905,13.2594174 C5.52515932,13.2738823 5.52388479,13.2883243 5.52198545,13.3026996 L5.52631579,13.2368422 C5.52631579,13.2740221 5.52225768,13.3102542 5.51456024,13.3451198 C5.51144834,13.3590504 5.50768801,13.3731708 5.50330031,13.3871367 C5.49865519,13.4020065 5.49327043,13.4166496 5.48723929,13.4309533 C5.48273363,13.4416548 5.47794376,13.4520181 5.47278041,13.4622411 C5.4647904,13.4779869 5.45593652,13.4933875 5.44631569,13.5082453 C5.42778322,13.5370226 5.40550966,13.5647551 5.37986918,13.5903955 L5.42270182,13.541642 C5.41389567,13.5530772 5.40460576,13.5641206 5.39486273,13.5747416 L5.37986918,13.5903955 C5.37546713,13.5947976 5.37100343,13.5991004 5.36648084,13.603304 C5.35420571,13.6146849 5.3415866,13.6252891 5.32845971,13.6352594 C5.31692494,13.6440676 5.30515043,13.6522328 5.29312231,13.6598351 C5.28199826,13.6668228 5.27036246,13.6735488 5.25844303,13.6798078 C5.2445215,13.6871292 5.23071205,13.6935571 5.21669376,13.6993209 C5.20488665,13.7042079 5.19216694,13.7088762 5.17921722,13.713031 C5.16311869,13.7181335 5.14740634,13.7223055 5.13156097,13.7257012 C5.12112981,13.7279846 5.11040983,13.7299225 5.09957691,13.7315131 C5.07930655,13.7344756 5.05859353,13.736234 5.03785656,13.7367098 C5.03380631,13.7368422 5.03006587,13.7368422 5.02631579,13.7368422 L5.01577844,13.7368422 C4.99458281,13.7362878 4.97341003,13.7345039 4.95239802,13.7313803 L5.02631579,13.7368422 C4.99021875,13.7368422 4.95501512,13.733017 4.92108813,13.7257499 C4.90608539,13.7224981 4.89096483,13.7185215 4.87602119,13.7138267 C4.86115144,13.7091815 4.84650839,13.7037968 4.83220464,13.6977656 C4.82107537,13.6930798 4.81029422,13.6880786 4.79966595,13.6826728 C4.78490522,13.6751387 4.77018303,13.6666782 4.75595572,13.6575156 C4.7262476,13.6383997 4.69845479,13.6160879 4.6727624,13.5903955 L4.72446783,13.635484 C4.71235088,13.6262949 4.70066578,13.616566 4.68944836,13.6063332 L4.6727624,13.5903955 L2.14644661,11.0640798 L2.08859116,10.9948319 C1.95359511,10.7999637 1.97288026,10.5305393 2.14644661,10.356973 C2.34170876,10.1617108 2.65829124,10.1617108 2.85355339,10.356973 L2.85355339,10.356973 L4.526,12.03 L4.52631579,2.5 C4.52631579,2.22385762 4.75017341,2 5.02631579,2 Z M10.5,13.7368422 C10.2545401,13.7368422 10.0503916,13.559967 10.0080557,13.3267178 L10,13.2368422 L10,2.5 L10.0005067,2.4774248 C10.0011565,2.4629599 10.002431,2.4485179 10.0043303,2.4341426 L10,2.5 C10,2.4628201 10.0040581,2.426588 10.0117556,2.3917224 C10.0148675,2.3777918 10.0186278,2.3636714 10.0230155,2.3497055 C10.0276606,2.3348357 10.0330454,2.3201926 10.0390765,2.3058889 C10.0435822,2.2951874 10.048372,2.2848241 10.0535354,2.2746011 C10.0615254,2.2588553 10.0703793,2.2434547 10.0800001,2.2285969 C10.0985326,2.1998196 10.1208061,2.1720871 10.1464466,2.1464467 L10.103614,2.1952002 C10.1124201,2.183765 10.12171,2.1727216 10.1314531,2.1621006 L10.1464466,2.1464467 C10.1508487,2.1420446 10.1553124,2.1377418 10.159835,2.1335382 C10.1721101,2.1221573 10.1847292,2.1115531 10.1978561,2.1015828 C10.2093909,2.0927746 10.2211654,2.0846094 10.2331935,2.0770071 C10.2443175,2.0700194 10.2559533,2.0632934 10.2678728,2.0570344 C10.2817943,2.049713 10.2956037,2.0432851 10.309622,2.0375213 C10.3214291,2.0326343 10.3341489,2.027966 10.3470986,2.0238112 C10.3631971,2.0187087 10.3789095,2.0145367 10.3947548,2.011141 C10.405186,2.0088576 10.415906,2.0069197 10.4267389,2.0053291 C10.4470092,2.0023666 10.4677223,2.0006082 10.4884592,2.0001324 C10.4925095,2 10.4962499,2 10.5,2 L10.5105374,2 C10.531733,2.0005544 10.5529058,2.0023383 10.5739178,2.0054619 L10.5,2 C10.536097,2 10.5713007,2.0038252 10.6052277,2.0110923 C10.6202304,2.0143441 10.635351,2.0183207 10.6502946,2.0230155 C10.6651644,2.0276607 10.6798074,2.0330454 10.6941112,2.0390766 C10.7052404,2.0437624 10.7160216,2.0487636 10.7266498,2.0541694 C10.7414106,2.0617035 10.7561328,2.070164 10.7703601,2.0793266 C10.8000682,2.0984425 10.827861,2.1207543 10.8535534,2.1464467 L10.801848,2.1013582 C10.8139649,2.1105473 10.82565,2.1202762 10.8368674,2.130509 L10.8535534,2.1464467 L13.3798692,4.6727624 L13.4377246,4.7420103 C13.5727207,4.9368785 13.5534355,5.2063029 13.3798692,5.3798692 C13.184607,5.5751314 12.8680246,5.5751314 12.6727624,5.3798692 L12.6727624,5.3798692 L11.0003158,3.7068422 L11,13.2368422 C11,13.5129845 10.7761424,13.7368422 10.5,13.7368422 Z" id="形状结合" fill="#71757F" fill-rule="nonzero"></path>
    </g>
</svg>