<?xml version="1.0" encoding="UTF-8"?>
<svg width="16px" height="16px" viewBox="0 0 16 16" version="1.1" xmlns="http://www.w3.org/2000/svg" xmlns:xlink="http://www.w3.org/1999/xlink">
    <title>function icon/serial</title>
    <g id="图标入库记录" stroke="none" stroke-width="1" fill="none" fill-rule="evenodd">
        <g id="DevUI图标-入库记录230223" transform="translate(-92.000000, -120.000000)" fill="#71757F" fill-rule="nonzero">
            <g id="line" transform="translate(92.000000, 120.000000)">
                <path d="M8,1 C8.24545989,1 8.44960837,1.17687516 8.49194433,1.41012437 L8.5,1.5 L8.499,14.064 L9.2226499,13.5839749 C9.45241425,13.4307986 9.76284892,13.4928856 9.91602515,13.7226499 C10.0521818,13.9268849 10.018254,14.1948594 9.84766266,14.3594684 L9.7773501,14.4160251 L8.2773501,15.4160251 C8.13739201,15.5093305 7.96212067,15.5248814 7.8103915,15.4626778 L7.7226499,15.4160251 L6.2226499,14.4160251 C5.99288556,14.2628489 5.93079862,13.9524142 6.08397485,13.7226499 C6.2201315,13.5184149 6.48054173,13.4466658 6.69810057,13.5408235 L6.7773501,13.5839749 L7.499,14.064 L7.5,1.5 C7.5,1.22385763 7.72385763,1 8,1 Z M6.5,10 C6.77614237,10 7,10.2238576 7,10.5 C7,10.7454599 6.82312484,10.9496084 6.58987563,10.9919443 L6.5,11 L2.5,11 C2.22385763,11 2,11.2238576 2,11.5 C2,11.7454599 2.17687516,11.9496084 2.41012437,11.9919443 L2.5,12 L6.5,12 C6.77614237,12 7,12.2238576 7,12.5 C7,12.7454599 6.82312484,12.9496084 6.58987563,12.9919443 L6.5,13 L2.5,13 C1.67157288,13 1,12.3284271 1,11.5 C1,10.7203039 1.59488808,10.0795513 2.35553999,10.0068666 L2.5,10 L6.5,10 Z M13.5,10 C14.3284271,10 15,10.6715729 15,11.5 C15,12.2796961 14.4051119,12.9204487 13.64446,12.9931334 L13.5,13 L9.5,13 C9.22385763,13 9,12.7761424 9,12.5 C9,12.2545401 9.17687516,12.0503916 9.41012437,12.0080557 L9.5,12 L13.5,12 C13.7761424,12 14,11.7761424 14,11.5 C14,11.2545401 13.8231248,11.0503916 13.5898756,11.0080557 L13.5,11 L9.5,11 C9.22385763,11 9,10.7761424 9,10.5 C9,10.2545401 9.17687516,10.0503916 9.41012437,10.0080557 L9.5,10 L13.5,10 Z M6.5,6 C6.77614237,6 7,6.22385763 7,6.5 C7,6.74545989 6.82312484,6.94960837 6.58987563,6.99194433 L6.5,7 L2.5,7 C2.22385763,7 2,7.22385763 2,7.5 C2,7.74545989 2.17687516,7.94960837 2.41012437,7.99194433 L2.5,8 L6.5,8 C6.77614237,8 7,8.22385763 7,8.5 C7,8.74545989 6.82312484,8.94960837 6.58987563,8.99194433 L6.5,9 L2.5,9 C1.67157288,9 1,8.32842712 1,7.5 C1,6.72030388 1.59488808,6.07955132 2.35553999,6.00686658 L2.5,6 L6.5,6 Z M13.5,6 C14.3284271,6 15,6.67157288 15,7.5 C15,8.27969612 14.4051119,8.92044868 13.64446,8.99313342 L13.5,9 L9.5,9 C9.22385763,9 9,8.77614237 9,8.5 C9,8.25454011 9.17687516,8.05039163 9.41012437,8.00805567 L9.5,8 L13.5,8 C13.7761424,8 14,7.77614237 14,7.5 C14,7.25454011 13.8231248,7.05039163 13.5898756,7.00805567 L13.5,7 L9.5,7 C9.22385763,7 9,6.77614237 9,6.5 C9,6.25454011 9.17687516,6.05039163 9.41012437,6.00805567 L9.5,6 L13.5,6 Z M6.5,2 C6.77614237,2 7,2.22385763 7,2.5 C7,2.74545989 6.82312484,2.94960837 6.58987563,2.99194433 L6.5,3 L2.5,3 C2.22385763,3 2,3.22385763 2,3.5 C2,3.74545989 2.17687516,3.94960837 2.41012437,3.99194433 L2.5,4 L6.5,4 C6.77614237,4 7,4.22385763 7,4.5 C7,4.74545989 6.82312484,4.94960837 6.58987563,4.99194433 L6.5,5 L2.5,5 C1.67157288,5 1,4.32842712 1,3.5 C1,2.72030388 1.59488808,2.07955132 2.35553999,2.00686658 L2.5,2 L6.5,2 Z M13.5,2 C14.3284271,2 15,2.67157288 15,3.5 C15,4.27969612 14.4051119,4.92044868 13.64446,4.99313342 L13.5,5 L9.5,5 C9.22385763,5 9,4.77614237 9,4.5 C9,4.25454011 9.17687516,4.05039163 9.41012437,4.00805567 L9.5,4 L13.5,4 C13.7761424,4 14,3.77614237 14,3.5 C14,3.25454011 13.8231248,3.05039163 13.5898756,3.00805567 L13.5,3 L9.5,3 C9.22385763,3 9,2.77614237 9,2.5 C9,2.25454011 9.17687516,2.05039163 9.41012437,2.00805567 L9.5,2 L13.5,2 Z" id="形状结合"></path>
            </g>
        </g>
    </g>
</svg>