<?xml version="1.0" encoding="UTF-8"?>
<svg width="16px" height="16px" viewBox="0 0 16 16" version="1.1" xmlns="http://www.w3.org/2000/svg" xmlns:xlink="http://www.w3.org/1999/xlink">
    <title>setting-results</title>
    <g id="页面-1" stroke="none" stroke-width="1" fill="none" fill-rule="evenodd">
        <g id="API测试图标备份" transform="translate(-846.000000, -363.000000)">
            <g id="编组" transform="translate(846.000000, 363.000000)">
                <path d="M12.2526667,6.69133333 L13.9166667,7.652 C14.3793333,7.92 14.6666667,8.418 14.6666667,8.95066667 L14.6666667,10.8726667 C14.6666667,11.406 14.3793333,11.904 13.9173333,12.1713333 L12.2526667,13.1326667 C12.0213333,13.266 11.762,13.3333333 11.5026667,13.3333333 C11.2433333,13.3333333 10.984,13.266 10.7526667,13.1326667 L9.08866667,12.1713333 C8.626,11.904 8.33866667,11.406 8.33866667,10.8726667 L8.33866667,8.95066667 C8.33866667,8.418 8.626,7.92 9.088,7.652 L10.7526667,6.69133333 C11.216,6.424 11.7906667,6.424 12.2526667,6.69133333 Z M6.83333333,11.66 C7.10947571,11.66 7.33333333,11.8838576 7.33333333,12.16 C7.33333333,12.4054599 7.15645817,12.6096084 6.92320897,12.6519443 L6.83333333,12.66 L1.83333333,12.66 C1.55719096,12.66 1.33333333,12.4361424 1.33333333,12.16 C1.33333333,11.9145401 1.51020849,11.7103916 1.7434577,11.6680557 L1.83333333,11.66 L6.83333333,11.66 Z M11.5026667,7.49066667 C11.416,7.49066667 11.33,7.51266667 11.2526667,7.55733333 L9.58866667,8.518 C9.43466667,8.60733333 9.33866667,8.77333333 9.33866667,8.95066667 L9.33866667,10.8726667 C9.33866667,11.0506667 9.43466667,11.2166667 9.58933333,11.306 L11.2526667,12.2666667 C11.4066667,12.3553333 11.598,12.3553333 11.7526667,12.2666667 L13.4166667,11.306 C13.5706667,11.2166667 13.6666667,11.0506667 13.6666667,10.8726667 L13.6666667,8.95066667 C13.6666667,8.77333333 13.5706667,8.60733333 13.416,8.518 L11.7526667,7.55733333 C11.6753333,7.51266667 11.5893333,7.49066667 11.5026667,7.49066667 Z M11.5026667,8.4132 C12.33,8.4132 13.0026667,9.08653333 13.0026667,9.9132 C13.0026667,10.7398667 12.33,11.4132 11.5026667,11.4132 C10.6753333,11.4132 10.0026667,10.7398667 10.0026667,9.9132 C10.0026667,9.08653333 10.6753333,8.4132 11.5026667,8.4132 Z M11.5026667,9.4132 C11.2266667,9.4132 11.0026667,9.63786667 11.0026667,9.9132 C11.0026667,10.1885333 11.2266667,10.4132 11.5026667,10.4132 C11.7786667,10.4132 12.0026667,10.1885333 12.0026667,9.9132 C12.0026667,9.63786667 11.7786667,9.4132 11.5026667,9.4132 Z M6.83333333,7.16333333 C7.10947571,7.16333333 7.33333333,7.38719096 7.33333333,7.66333333 C7.33333333,7.90879322 7.15645817,8.1129417 6.92320897,8.15527766 L6.83333333,8.16333333 L1.83333333,8.16333333 C1.55719096,8.16333333 1.33333333,7.93947571 1.33333333,7.66333333 C1.33333333,7.41787344 1.51020849,7.21372496 1.7434577,7.171389 L1.83333333,7.16333333 L6.83333333,7.16333333 Z M12.8333333,2.66666667 C13.1094757,2.66666667 13.3333333,2.89052429 13.3333333,3.16666667 C13.3333333,3.41212656 13.1564582,3.61627504 12.923209,3.658611 L12.8333333,3.66666667 L1.83333333,3.66666667 C1.55719096,3.66666667 1.33333333,3.44280904 1.33333333,3.16666667 C1.33333333,2.92120678 1.51020849,2.7170583 1.7434577,2.67472234 L1.83333333,2.66666667 L12.8333333,2.66666667 Z" id="形状结合" fill="#71757F"></path>
            </g>
        </g>
    </g>
</svg>