<?xml version="1.0" encoding="UTF-8"?>
<svg width="16px" height="16px" viewBox="0 0 16 16" version="1.1" xmlns="http://www.w3.org/2000/svg" xmlns:xlink="http://www.w3.org/1999/xlink">
    <title>function icon/setting</title>
    <g id="页面-1" stroke="none" stroke-width="1" fill="none" fill-rule="evenodd">
        <g id="API-starter-图标入库" transform="translate(-192.000000, -824.000000)">
            <g id="方格备份-20" transform="translate(160.000000, 800.000000)">
                <text id="图标" font-family="PingFangSC-Regular, PingFang SC" font-size="12" font-weight="normal" line-spacing="16" fill="#71757F">
                    <tspan x="27.136" y="61">设置</tspan>
                </text>
            </g>
            <path d="M201,825 C201.828427,825 202.5,825.671573 202.5,826.499709 L202.5,826.499709 L202.5,827.1 L202.750717,827.236313 L202.992,827.385 L203.51314,827.084936 C204.188376,826.695088 205.040728,826.8899 205.484001,827.512302 L205.484001,827.512302 L205.562178,827.633975 L206.562178,829.366025 C206.976391,830.083464 206.730579,831.00085 206.013468,831.414874 L206.013468,831.414874 L205.491,831.716 L205.496218,831.794284 L205.499054,832.102975 L205.496218,832.205716 L205.491,832.283 L206.01314,832.584936 C206.688376,832.974785 206.94584,833.810349 206.628461,834.505435 L206.628461,834.505435 L206.562178,834.633975 L205.562178,836.366025 C205.147964,837.083464 204.230579,837.329277 203.513298,836.915155 L203.513298,836.915155 L202.992,836.614 L202.750717,836.763687 L202.5,836.899 L202.5,837.5 C202.5,838.279696 201.905112,838.920449 201.14446,838.993133 L201.14446,838.993133 L201,839 L199,839 C198.171573,839 197.5,838.328427 197.5,837.500291 L197.5,837.500291 L197.499,836.899 L197.249283,836.763687 L197.007,836.614 L196.48686,836.915064 C195.811624,837.304912 194.959272,837.1101 194.515999,836.487698 L194.515999,836.487698 L194.437822,836.366025 L193.437822,834.633975 C193.023609,833.916536 193.269421,832.99915 193.986532,832.585126 L193.986532,832.585126 L194.508,832.283 L194.503782,832.205716 L194.5,832 L194.503782,831.794284 L194.508,831.716 L193.98686,831.415064 C193.311624,831.025215 193.05416,830.189651 193.371539,829.494565 L193.371539,829.494565 L193.437822,829.366025 L194.437822,827.633975 C194.852036,826.916536 195.769421,826.670723 196.486702,827.084845 L196.486702,827.084845 L197.007,827.385 L197.249283,827.236313 L197.499,827.1 L197.5,826.5 C197.5,825.720304 198.094888,825.079551 198.85554,825.006867 L198.85554,825.006867 L199,825 Z M201,826 L199,826 C198.723858,826 198.5,826.223858 198.5,826.500291 L198.5,826.500291 L198.499468,827.416567 C198.499352,827.615178 198.381695,827.79489 198.199707,827.874429 C197.891329,828.009208 197.599167,828.178373 197.328526,828.378379 C197.168582,828.496579 196.953792,828.508749 196.78152,828.409372 L196.78152,828.409372 L195.98686,827.950962 C195.747714,827.812891 195.441919,827.894828 195.303848,828.133975 L195.303848,828.133975 L194.303848,829.866025 C194.165776,830.105172 194.247714,830.410967 194.487188,830.549228 L194.487188,830.549228 L195.281196,831.008451 C195.452965,831.107795 195.549733,831.299314 195.527805,831.496528 C195.509319,831.662783 195.5,831.830767 195.5,832 C195.5,832.169233 195.509319,832.337217 195.527805,832.503472 C195.549733,832.700686 195.452965,832.892205 195.281196,832.991549 L195.281196,832.991549 L194.48686,833.450962 C194.247714,833.589033 194.165776,833.894828 194.303848,834.133975 L194.303848,834.133975 L195.303848,835.866025 C195.441919,836.105172 195.747714,836.187109 195.987019,836.048947 L195.987019,836.048947 L196.78152,835.590628 C196.953792,835.491251 197.168582,835.503421 197.328526,835.621621 C197.599167,835.821627 197.891329,835.990792 198.199707,836.125571 C198.381695,836.20511 198.499352,836.384822 198.499468,836.583433 L198.499468,836.583433 L198.5,837.5 C198.5,837.776142 198.723858,838 199,838 L199,838 L201,838 C201.276142,838 201.5,837.776142 201.5,837.499709 L201.5,837.499709 L201.500532,836.583433 C201.500648,836.384822 201.618305,836.20511 201.800293,836.125571 C202.108671,835.990792 202.400833,835.821627 202.671474,835.621621 C202.831418,835.503421 203.046208,835.491251 203.21848,835.590628 L203.21848,835.590628 L204.01314,836.049038 C204.252286,836.187109 204.558081,836.105172 204.696152,835.866025 L204.696152,835.866025 L205.696152,834.133975 C205.834224,833.894828 205.752286,833.589033 205.512812,833.450772 L205.512812,833.450772 L204.718804,832.991549 C204.547035,832.892205 204.450267,832.700686 204.472195,832.503472 C204.490681,832.337217 204.5,832.169233 204.5,832 C204.5,831.830767 204.490681,831.662783 204.472195,831.496528 C204.450267,831.299314 204.547035,831.107795 204.718804,831.008451 L204.718804,831.008451 L205.51314,830.549038 C205.752286,830.410967 205.834224,830.105172 205.696152,829.866025 L205.696152,829.866025 L204.696152,828.133975 C204.558081,827.894828 204.252286,827.812891 204.012981,827.951053 L204.012981,827.951053 L203.21848,828.409372 C203.046208,828.508749 202.831418,828.496579 202.671474,828.378379 C202.400833,828.178373 202.108671,828.009208 201.800293,827.874429 C201.618305,827.79489 201.500648,827.615178 201.500532,827.416567 L201.500532,827.416567 L201.5,826.5 C201.5,826.223858 201.276142,826 201,826 L201,826 Z M200,829.5 C201.380712,829.5 202.5,830.619288 202.5,832 C202.5,833.380712 201.380712,834.5 200,834.5 C198.619288,834.5 197.5,833.380712 197.5,832 C197.5,830.619288 198.619288,829.5 200,829.5 Z M200,830.5 C199.171573,830.5 198.5,831.171573 198.5,832 C198.5,832.828427 199.171573,833.5 200,833.5 C200.828427,833.5 201.5,832.828427 201.5,832 C201.5,831.171573 200.828427,830.5 200,830.5 Z" id="形状结合" fill="#71757F" fill-rule="nonzero"></path>
        </g>
    </g>
</svg>