<?xml version="1.0" encoding="UTF-8"?>
<svg width="16px" height="16px" viewBox="0 0 16 16" version="1.1" xmlns="http://www.w3.org/2000/svg" xmlns:xlink="http://www.w3.org/1999/xlink">
    <title>setup</title>
    <g id="setup" stroke="none" stroke-width="1" fill="none" fill-rule="evenodd">
        <g id="ipd_set" transform="translate(0.833333, 0.833333)" fill="#71757F" fill-rule="nonzero">
            <path d="M7.16666667,-3.86357613e-14 C7.41212656,-3.86357613e-14 7.61627504,0.176875161 7.658611,0.410124368 L7.66666667,0.5 L7.66700079,1.68911829 C8.69224128,1.78157038 9.63634479,2.15536592 10.4215113,2.73270492 L11.2914128,1.86344378 C11.4866746,1.66818135 11.8032571,1.66818091 11.9985196,1.86344278 C12.1720862,2.03700888 12.1913717,2.30643326 12.0563759,2.50130159 L11.9985206,2.57054956 L11.1721187,3.39751188 C11.9189057,4.19081711 12.4326534,5.2059768 12.6039868,6.33361603 L13.8333333,6.33333333 C14.1094757,6.33333333 14.3333333,6.55719096 14.3333333,6.83333333 C14.3333333,7.07879322 14.1564582,7.2829417 13.923209,7.32527766 L13.8333333,7.33333333 L12.6641691,7.33402159 C12.6261071,8.60760317 12.1550768,9.77240692 11.393228,10.686283 L12.2342201,11.5271133 C12.4294822,11.7223754 12.4294822,12.0389579 12.2342201,12.2342201 C12.0606537,12.4077864 11.7912293,12.4270716 11.5963612,12.2920755 L11.5271133,12.2342201 L10.686283,11.393228 C9.85267675,12.0881602 8.81028717,12.541118 7.66700079,12.644215 L7.66666667,13.8333333 C7.66666667,14.1094757 7.44280904,14.3333333 7.16666667,14.3333333 C6.92120678,14.3333333 6.7170583,14.1564582 6.67472234,13.923209 L6.66666667,13.8333333 L6.66633254,12.644215 C5.40590691,12.5305549 4.26811271,11.9916688 3.39751188,11.1721187 L2.57051739,11.9985827 C2.37525745,12.1938471 2.05867496,12.1938507 1.86341061,11.9985907 C1.68984229,11.8250263 1.6705541,11.5556022 1.80554794,11.3607325 L1.86340261,11.2914839 L2.73270492,10.4215113 C2.06256872,9.51014294 1.66666667,8.38463874 1.66666667,7.16666667 L1.67,7.333 L0.5,7.33333333 C0.223857625,7.33333333 3.02424752e-13,7.10947571 3.02424752e-13,6.83333333 C3.02424752e-13,6.58787344 0.176875161,6.38372496 0.410124368,6.341389 L0.5,6.33333333 L1.7293465,6.33361603 C1.8832054,5.32098641 2.31319373,4.39906246 2.94010532,3.64705037 L2.09908328,2.80619006 C1.90382113,2.61092791 1.90382113,2.29434542 2.09908328,2.09908328 C2.27264963,1.92551692 2.54207403,1.90623177 2.73694217,2.04122783 L2.80619006,2.09908328 L3.64705037,2.94010532 C4.48065658,2.24517315 5.52304616,1.79221529 6.66633254,1.68911829 L6.66666667,0.5 C6.66666667,0.223857625 6.89052429,-3.86357613e-14 7.16666667,-3.86357613e-14 Z M7.16666667,2.66666667 C4.68138529,2.66666667 2.66666667,4.68138529 2.66666667,7.16666667 C2.66666667,9.65194804 4.68138529,11.6666667 7.16666667,11.6666667 C9.65194804,11.6666667 11.6666667,9.65194804 11.6666667,7.16666667 C11.6666667,4.68138529 9.65194804,2.66666667 7.16666667,2.66666667 Z M7.16666667,6.16666667 C7.71895142,6.16666667 8.16666667,6.61438192 8.16666667,7.16666667 C8.16666667,7.71895142 7.71895142,8.16666667 7.16666667,8.16666667 C6.61438192,8.16666667 6.16666667,7.71895142 6.16666667,7.16666667 C6.16666667,6.61438192 6.61438192,6.16666667 7.16666667,6.16666667 Z" id="å½¢çŠ¶ç»“åˆ"></path>
        </g>
    </g>
</svg>