<?xml version="1.0" encoding="UTF-8"?>
<svg width="16px" height="16px" viewBox="0 0 16 16" version="1.1" xmlns="http://www.w3.org/2000/svg" xmlns:xlink="http://www.w3.org/1999/xlink">
    <title>share-one</title>
    <g id="share-one" stroke="none" stroke-width="1" fill="none" fill-rule="evenodd">
        <g id="ipd_share-one" transform="translate(1.500000, 1.500000)" fill="#71757F" fill-rule="nonzero">
            <path d="M4.5,-1.86517468e-14 C4.77614237,-1.86517468e-14 5,0.223857625 5,0.5 C5,0.745459889 4.82312484,0.94960837 4.58987563,0.991944331 L4.5,1 L1.5,1 C1.25454137,1 1.05039191,1.17687628 1.00805572,1.41012474 L1,1.5 L1,11.5 C1,11.7454672 1.17687071,11.94961 1.41012289,11.9919446 L1.5,12 L11.5,12 C11.7454734,12 11.9496114,11.8231369 11.9919448,11.5898796 L12,11.5 L12,8.32456667 C12,8.04842429 12.2238576,7.82456667 12.5,7.82456667 C12.7454599,7.82456667 12.9496084,8.00144183 12.9919443,8.23469103 L13,8.32456667 L13,11.5 C13,12.2797105 12.4051254,12.9204504 11.6444624,12.9931336 L11.5,13 L1.5,13 C0.720301011,13 0.079550984,12.4051215 0.00686654825,11.6444617 L0,11.5 L0,1.5 C0,0.720305216 0.594889338,0.0795514787 1.35554021,0.0068665919 L1.5,-1.86517468e-14 L4.5,-1.86517468e-14 Z M12.5,-3.73034936e-14 C12.7454599,-3.73034936e-14 12.9496084,0.176875161 12.9919443,0.410124368 L13,0.5 L13,5.16666667 C13,5.44280904 12.7761424,5.66666667 12.5,5.66666667 C12.2545401,5.66666667 12.0503916,5.48979151 12.0080557,5.2565423 L12,5.16666667 L11.999,1.707 L7.45348672,6.25352006 C7.25822458,6.4487822 6.94164209,6.4487822 6.74637994,6.25352006 C6.57281359,6.07995371 6.55352844,5.8105293 6.68852449,5.61566116 L6.74637994,5.54641328 L11.293,0.999 L7.83333333,1 C7.58787344,1 7.38372496,0.823124839 7.341389,0.589875632 L7.33333333,0.5 C7.33333333,0.254540111 7.51020849,0.0503916296 7.7434577,0.00805566941 L7.83333333,-3.73034936e-14 L12.5,-3.73034936e-14 Z" id="形状结合"></path>
        </g>
    </g>
</svg>