<?xml version="1.0" encoding="UTF-8"?>
<svg width="16px" height="16px" viewBox="0 0 16 16" version="1.1" xmlns="http://www.w3.org/2000/svg" xmlns:xlink="http://www.w3.org/1999/xlink">
    <title>function icon/shopping cart</title>
    <g id="图标入库记录" stroke="none" stroke-width="1" fill="none" fill-rule="evenodd">
        <g id="语言-图标入库记录230112" transform="translate(-412.000000, -500.000000)" fill="#71757F" fill-rule="nonzero">
            <g id="icon" transform="translate(412.000000, 500.000000)">
                <path d="M1.80265716,1 C2.68152554,1 3.45030607,1.57239564 3.71024472,2.39889007 L3.75292287,2.55675779 L5.445,10.005 L5.5,10 L11.8475825,10 C12.2594468,10 12.6245336,9.74827774 12.7752134,9.37361944 L12.8138175,9.25766265 L13.9491942,5 L5.50069514,5 C5.22455276,5 5.00069514,4.77614237 5.00069514,4.5 C5.00069514,4.25454011 5.1775703,4.05039163 5.4108195,4.00805567 L5.50069514,4 L13.9491942,4 C14.5014789,4 14.9491942,4.44771525 14.9491942,5 C14.9491942,5.05799372 14.9441494,5.11582217 14.9341449,5.17283542 L14.9154291,5.25766265 L13.7800524,9.5153253 C13.5603174,10.3393317 12.8450305,10.9274116 12.0062168,10.9937462 L11.8475825,11 L5.672,11 L5.899,12 L12.5,12 L12.5,12 C13.3284271,12 14,12.6715729 14,13.5 C14,14.3284271 13.3284271,15 12.5,15 C11.6715729,15 11,14.3284271 11,13.5 C11,13.3247916 11.0300396,13.1565993 11.0852495,13.0002925 L6.91475048,13.0002925 C6.96996037,13.1565993 7,13.3247916 7,13.5 C7,14.3284271 6.32842712,15 5.5,15 C4.67157288,15 4,14.3284271 4,13.5 C4,12.8840401 4.37126965,12.3547948 4.90223396,12.1238392 L2.77779001,2.7783789 C2.68293827,2.36103121 2.33492363,2.05476646 1.9179489,2.00662058 L1.80265716,2 L1.5,2 C1.22385763,2 1,1.77614237 1,1.5 C1,1.25454011 1.17687516,1.05039163 1.41012437,1.00805567 L1.5,1 L1.80265716,1 Z M5.5,13 C5.22385763,13 5,13.2238576 5,13.5 C5,13.7761424 5.22385763,14 5.5,14 C5.77614237,14 6,13.7761424 6,13.5 C6,13.2238576 5.77614237,13 5.5,13 Z M12.5,13 C12.2238576,13 12,13.2238576 12,13.5 C12,13.7761424 12.2238576,14 12.5,14 C12.7761424,14 13,13.7761424 13,13.5 C13,13.2238576 12.7761424,13 12.5,13 Z" id="形状结合"></path>
            </g>
        </g>
    </g>
</svg>