<?xml version="1.0" encoding="UTF-8"?>
<svg width="16px" height="16px" viewBox="0 0 16 16" version="1.1" xmlns="http://www.w3.org/2000/svg" xmlns:xlink="http://www.w3.org/1999/xlink">
    <title>同屏显示源码</title>
    <g id="同屏显示源码" stroke="none" stroke-width="1" fill="none" fill-rule="evenodd">
        <g>
            <path d="M8,0 C8.27614237,-5.07265313e-17 8.5,0.223857625 8.5,0.5 L8.5,1 L13,1 C14.1045695,1 15,1.8954305 15,3 L15,13 C15,14.1045695 14.1045695,15 13,15 L8.5,15 L8.5,15.5 C8.5,15.7761424 8.27614237,16 8,16 C7.72385763,16 7.5,15.7761424 7.5,15.5 L7.5,15 L3,15 C1.8954305,15 1,14.1045695 1,13 L1,3 C1,1.8954305 1.8954305,1 3,1 L7.5,1 L7.5,0.5 C7.5,0.223857625 7.72385763,5.07265313e-17 8,0 Z M7.5,6 L2,6 L2,13 C2,13.5128358 2.38604019,13.9355072 2.88337887,13.9932723 L3,14 L7.5,14 L7.5,6 L7.5,6 Z M13,2 L8.5,2 L8.5,14 L13,14 C13.5128358,14 13.9355072,13.6139598 13.9932723,13.1166211 L14,13 L14,3 C14,2.48716416 13.6139598,2.06449284 13.1166211,2.00672773 L13,2 Z M5.79723862,7.59024596 C5.99527866,7.73526561 6.05548891,7.9985832 5.9518406,8.21178393 L5.90524077,8.28905605 L4.65614872,9.99365208 L5.90524077,11.6982481 C6.05026042,11.8962882 6.02816792,12.1654969 5.86499202,12.3374596 L5.79723862,12.3970582 C5.59919857,12.5420779 5.32998983,12.5199853 5.15802718,12.3568095 L5.09842853,12.289056 L3.63387978,10.289056 C3.52348678,10.1383024 3.50771635,9.941138 3.5865685,9.77712415 L3.63387978,9.69824812 L5.09842853,7.69824812 C5.26157564,7.47545307 5.57444357,7.42709886 5.79723862,7.59024596 Z M7.5,2 L3,2 C2.48716416,2 2.06449284,2.38604019 2.00672773,2.88337887 L2,3 L2,5 L7.5,5 L7.5,2 Z" id="形状结合" fill="#71757F"></path>
        </g>
    </g>
</svg>