<?xml version="1.0" encoding="UTF-8"?>
<svg width="16px" height="16px" viewBox="0 0 16 16" version="1.1" xmlns="http://www.w3.org/2000/svg" xmlns:xlink="http://www.w3.org/1999/xlink">
    <title>shutdown</title>
    <g id="资源库" stroke="none" stroke-width="1" fill="none" fill-rule="evenodd">
        <g id="画板" transform="translate(-543.000000, -1342.000000)" fill="#71757F" fill-rule="nonzero">
            <g id="shutdown" transform="translate(544.000244, 1343.030000)">
                <path d="M12.0340397,2.37036472 C12.2214783,2.34782263 12.4056321,2.43277654 12.5101411,2.59 C13.4844975,3.81817942 14.0101768,5.34229643 14.0001411,6.91 C14.0001411,10.7759932 10.8661343,13.91 7.00014107,13.91 C3.13414782,13.91 0.000141073186,10.7759932 0.000141073186,6.91 C-0.00989464004,5.34229643 0.515784607,3.81817942 1.49014107,2.59 C1.59465008,2.43277654 1.77880387,2.34782263 1.9662424,2.37036472 C2.15368094,2.3929068 2.31244124,2.51910089 2.37669279,2.69662016 C2.44094434,2.87413942 2.39973063,3.07271236 2.27014107,3.21 C1.44534965,4.2668226 0.998241456,5.56942128 1.00014107,6.91 C1.00014107,10.2237085 3.68643257,12.91 7.00014107,12.91 C10.3138496,12.91 13.0001411,10.2237085 13.0001411,6.91 C13.0020407,5.56942128 12.5549325,4.2668226 11.7301411,3.21 C11.6005515,3.07271236 11.5593378,2.87413942 11.6235894,2.69662016 C11.6878409,2.51910089 11.8466012,2.3929068 12.0340397,2.37036472 Z M6.88014107,0 C7.15404953,0.00532010578 7.37482097,0.226091547 7.38014107,0.5 L7.38014107,0.5 L7.38014107,7.5 C7.38014107,7.77614237 7.15628345,8 6.88014107,8 C6.6039987,8 6.38014107,7.77614237 6.38014107,7.5 L6.38014107,7.5 L6.38014107,0.5 C6.38014107,0.223857625 6.6039987,0 6.88014107,0 Z" id="形状结合"></path>
            </g>
        </g>
    </g>
</svg>