<?xml version="1.0" encoding="UTF-8"?>
<svg width="16px" height="16px" viewBox="0 0 16 16" version="1.1" xmlns="http://www.w3.org/2000/svg" xmlns:xlink="http://www.w3.org/1999/xlink">
    <title>icon icon-sort</title>
    <g id="icon-icon-sort" stroke="none" stroke-width="1" fill="none" fill-rule="evenodd" transform="translate(0.000000, -0.000000)">
        <path d="M4.52631579,2.5 L4.53785656,2.50013238 C4.55859353,2.50060817 4.57930655,2.50236652 4.59986643,2.50540743 L4.52631579,2.5 C4.56247729,2.5 4.59774219,2.50383883 4.63172518,2.51113119 C4.64740634,2.51453668 4.66311869,2.5187087 4.67863719,2.52365699 C4.69216694,2.52796595 4.70488665,2.53263429 4.71735235,2.53779224 C4.73071205,2.54328507 4.7445215,2.54971299 4.75807398,2.55680497 C4.77036246,2.56329334 4.78199826,2.57001934 4.79332611,2.57718801 C4.80515043,2.58460935 4.81692494,2.59277454 4.8284083,2.60150261 C4.84207002,2.61192025 4.85513447,2.6229392 4.86760222,2.63458875 C4.87164079,2.63835695 4.87578157,2.642359 4.87986918,2.64644661 L4.89172704,2.65871357 C4.90393133,2.67177502 4.91544353,2.68549135 4.9262052,2.69980412 L4.87986918,2.64644661 C4.90556157,2.672139 4.92787338,2.69993181 4.94680461,2.72927229 C4.95524775,2.74241006 4.96336922,2.75640572 4.97081112,2.77080947 C4.97752981,2.78380248 4.98339833,2.79651527 4.98870523,2.8094049 C4.99364747,2.8213469 4.99828822,2.83398102 5.0024223,2.84684229 C5.00719706,2.86183815 5.01124492,2.87686776 5.01458132,2.89202251 C5.01590542,2.89781538 5.01713946,2.90395012 5.01826012,2.91012437 L5.02185118,2.93313417 C5.02386941,2.94817454 5.02520338,2.96328913 5.0258531,2.97842762 L5.02631579,3 L5.02631579,13.7368421 C5.02631579,14.0129845 4.80245816,14.2368421 4.52631579,14.2368421 C4.2808559,14.2368421 4.07670742,14.0599669 4.03437146,13.8267177 L4.02631579,13.7368421 L4.026,4.206 L2.35355339,5.87986918 C2.15829124,6.07513133 1.84170876,6.07513133 1.64644661,5.87986918 C1.47288026,5.70630283 1.45359511,5.43687843 1.58859116,5.24201029 L1.64644661,5.1727624 L4.1727624,2.64644661 L4.18738689,2.63240001 C4.19923213,2.62147316 4.21160672,2.61111159 4.22446783,2.60135811 L4.1727624,2.64644661 C4.19845479,2.62075422 4.2262476,2.59844241 4.25558808,2.57951118 C4.27018303,2.57016394 4.28490522,2.56170341 4.30007332,2.5539939 C4.31029422,2.54876358 4.32107537,2.54376239 4.33198652,2.5391658 C4.34650839,2.53304536 4.36115144,2.5276606 4.37609719,2.52295883 C4.39096483,2.51832061 4.40608539,2.51434401 4.42132874,2.51108568 C4.43130393,2.50890403 4.44163547,2.50702791 4.4520723,2.50547432 C4.47341003,2.5023382 4.49458281,2.50055436 4.51577844,2.50011036 C4.51882527,2.50004128 4.52256571,2.5 4.52631579,2.5 Z M10.2105263,12.2894737 C10.4866687,12.2894737 10.7105263,12.5133313 10.7105263,12.7894737 C10.7105263,13.0349336 10.5336512,13.2390821 10.3004019,13.281418 L10.2105263,13.2894737 L7.68421053,13.2894737 C7.40806815,13.2894737 7.18421053,13.0656161 7.18421053,12.7894737 C7.18421053,12.5440138 7.36108569,12.3398653 7.59433489,12.2975294 L7.68421053,12.2894737 L10.2105263,12.2894737 Z M11.4736842,9.13157895 C11.7498266,9.13157895 11.9736842,9.35543657 11.9736842,9.63157895 C11.9736842,9.87703884 11.796809,10.0811873 11.5635598,10.1235233 L11.4736842,10.1315789 L7.68421053,10.1315789 C7.40806815,10.1315789 7.18421053,9.90772132 7.18421053,9.63157895 C7.18421053,9.38611906 7.36108569,9.18197058 7.59433489,9.13963462 L7.68421053,9.13157895 L11.4736842,9.13157895 Z M12.7368421,5.97368421 C13.0129845,5.97368421 13.2368421,6.19754184 13.2368421,6.47368421 C13.2368421,6.7191441 13.0599669,6.92329258 12.8267177,6.96562854 L12.7368421,6.97368421 L7.68421053,6.97368421 C7.40806815,6.97368421 7.18421053,6.74982659 7.18421053,6.47368421 C7.18421053,6.22822432 7.36108569,6.02407584 7.59433489,5.98173988 L7.68421053,5.97368421 L12.7368421,5.97368421 Z M14,2.81578947 C14.2761424,2.81578947 14.5,3.0396471 14.5,3.31578947 C14.5,3.56124936 14.3231248,3.76539784 14.0898756,3.8077338 L14,3.81578947 L7.68421053,3.81578947 C7.40806815,3.81578947 7.18421053,3.59193185 7.18421053,3.31578947 C7.18421053,3.07032958 7.36108569,2.8661811 7.59433489,2.82384514 L7.68421053,2.81578947 L14,2.81578947 Z" id="形状结合" fill="#71757F" fill-rule="nonzero"></path>
    </g>
</svg>