<?xml version="1.0" encoding="UTF-8"?>
<svg width="16px" height="16px" viewBox="0 0 16 16" version="1.1" xmlns="http://www.w3.org/2000/svg" xmlns:xlink="http://www.w3.org/1999/xlink">
    <title>icon icon-sort-down</title>
    <g id="icon-icon-sort-down" stroke="none" stroke-width="1" fill="none" fill-rule="evenodd" transform="translate(0.000000, -0.000000)">
        <path d="M4.52631579,2.13157895 C4.77177568,2.13157895 4.97592416,2.30845411 5.01826012,2.54170332 L5.02631579,2.63157895 L5.02631579,13.3684211 L5.02580905,13.3909963 C5.02515932,13.4054612 5.02388479,13.4199032 5.02198545,13.4342785 L5.02631579,13.3684211 C5.02631579,13.405601 5.02225768,13.4418331 5.01456024,13.4766987 C5.01144834,13.4906293 5.00768801,13.5047497 5.00330031,13.5187156 C4.99865519,13.5335854 4.99327043,13.5482285 4.98723929,13.5625322 C4.98273363,13.5732337 4.97794376,13.583597 4.97278041,13.59382 C4.9647904,13.6095658 4.95593652,13.6249664 4.94631569,13.6398242 C4.92778322,13.6686015 4.90550966,13.696334 4.87986918,13.7219744 L4.92270182,13.6732209 C4.91389567,13.6846561 4.90460576,13.6956995 4.89486273,13.7063205 L4.87986918,13.7219744 C4.87546713,13.7263765 4.87100343,13.7306793 4.86648084,13.7348829 C4.85420571,13.7462638 4.8415866,13.756868 4.82845971,13.7668383 C4.81692494,13.7756465 4.80515043,13.7838117 4.79312231,13.791414 C4.78199826,13.7984017 4.77036246,13.8051277 4.75844303,13.8113867 C4.7445215,13.8187081 4.73071205,13.825136 4.71669376,13.8308998 C4.70488665,13.8357868 4.69216694,13.8404551 4.67921722,13.8446099 C4.66311869,13.8497124 4.64740634,13.8538844 4.63156097,13.8572801 C4.62112981,13.8595635 4.61040983,13.8615014 4.59957691,13.863092 C4.57930655,13.8660545 4.55859353,13.8678129 4.53785656,13.8682887 C4.53380631,13.8683798 4.53006587,13.8684211 4.52631579,13.8684211 L4.51577844,13.8683107 C4.49458281,13.8678667 4.47341003,13.8660828 4.45239802,13.8629592 L4.52631579,13.8684211 C4.49021875,13.8684211 4.45501512,13.8645959 4.42108813,13.8573288 C4.40608539,13.854077 4.39096483,13.8501004 4.37602119,13.8454056 C4.36115144,13.8407604 4.34650839,13.8353757 4.33220464,13.8293445 C4.32107537,13.8246587 4.31029422,13.8196575 4.29966595,13.8142517 C4.28490522,13.8067176 4.27018303,13.7982571 4.25595572,13.7890945 C4.2262476,13.7699786 4.19845479,13.7476668 4.1727624,13.7219744 L4.22446783,13.7670629 C4.21235088,13.7578738 4.20066578,13.7481449 4.18944836,13.7379121 L4.1727624,13.7219744 L1.64644661,11.1956587 L1.58859116,11.1264108 C1.45359511,10.9315426 1.47288026,10.6621182 1.64644661,10.4885519 C1.84170876,10.2932897 2.15829124,10.2932897 2.35355339,10.4885519 L2.35355339,10.4885519 L4.026,12.1615789 L4.02631579,2.63157895 C4.02631579,2.35543657 4.25017341,2.13157895 4.52631579,2.13157895 Z M14,11.9210526 C14.2761424,11.9210526 14.5,12.1449103 14.5,12.4210526 C14.5,12.6665125 14.3231248,12.870661 14.0898756,12.912997 L14,12.9210526 L7.68421053,12.9210526 C7.40806815,12.9210526 7.18421053,12.697195 7.18421053,12.4210526 C7.18421053,12.1755927 7.36108569,11.9714443 7.59433489,11.9291083 L7.68421053,11.9210526 L14,11.9210526 Z M12.7368421,8.76315789 C13.0129845,8.76315789 13.2368421,8.98701552 13.2368421,9.26315789 C13.2368421,9.50861778 13.0599669,9.71276627 12.8267177,9.75510223 L12.7368421,9.76315789 L7.68421053,9.76315789 C7.40806815,9.76315789 7.18421053,9.53930027 7.18421053,9.26315789 C7.18421053,9.01769801 7.36108569,8.81354952 7.59433489,8.77121356 L7.68421053,8.76315789 L12.7368421,8.76315789 Z M11.4736842,5.60526316 C11.7498266,5.60526316 11.9736842,5.82912078 11.9736842,6.10526316 C11.9736842,6.35072305 11.796809,6.55487153 11.5635598,6.59720749 L11.4736842,6.60526316 L7.68421053,6.60526316 C7.40806815,6.60526316 7.18421053,6.38140553 7.18421053,6.10526316 C7.18421053,5.85980327 7.36108569,5.65565479 7.59433489,5.61331883 L7.68421053,5.60526316 L11.4736842,5.60526316 Z M10.2105263,2.44736842 C10.4866687,2.44736842 10.7105263,2.67122605 10.7105263,2.94736842 C10.7105263,3.19282831 10.5336512,3.39697679 10.3004019,3.43931275 L10.2105263,3.44736842 L7.68421053,3.44736842 C7.40806815,3.44736842 7.18421053,3.2235108 7.18421053,2.94736842 C7.18421053,2.70190853 7.36108569,2.49776005 7.59433489,2.45542409 L7.68421053,2.44736842 L10.2105263,2.44736842 Z" id="形状结合" fill="#71757F" fill-rule="nonzero"></path>
    </g>
</svg>