<?xml version="1.0" encoding="UTF-8"?>
<svg width="16px" height="16px" viewBox="0 0 16 16" version="1.1" xmlns="http://www.w3.org/2000/svg" xmlns:xlink="http://www.w3.org/1999/xlink">
    <title>源码跳转</title>
    <g id="源码跳转" stroke="none" stroke-width="1" fill="none" fill-rule="evenodd">
        <g>
            <path d="M9,1 C9.27614237,1 9.5,1.22385763 9.5,1.5 C9.5,1.74545989 9.32312484,1.94960837 9.08987563,1.99194433 L9,2 L3,2 C2.48716416,2 2.06449284,2.38604019 2.00672773,2.88337887 L2,3 L2,5 L8.5,5 C8.77614237,5 9,5.22385763 9,5.5 C9,5.77614237 8.77614237,6 8.5,6 L2,6 L2,13 C2,13.5128358 2.38604019,13.9355072 2.88337887,13.9932723 L3,14 L13,14 C13.5128358,14 13.9355072,13.6139598 13.9932723,13.1166211 L14,13 L14,7 L14.0080557,6.91012437 C14.0503916,6.67687516 14.2545401,6.5 14.5,6.5 C14.7454599,6.5 14.9496084,6.67687516 14.9919443,6.91012437 L15,7 L15,13 C15,14.1045695 14.1045695,15 13,15 L3,15 C1.8954305,15 1,14.1045695 1,13 L1,3 C1,1.8954305 1.8954305,1 3,1 L9,1 Z M6.39634577,7.5036901 C6.59438581,7.64870975 6.65459606,7.91202734 6.55094775,8.12522808 L6.50434793,8.20250019 L5.25539306,9.90609622 L6.50434793,11.6116923 C6.64936758,11.8097323 6.62727507,12.078941 6.46409918,12.2509037 L6.39634577,12.3105023 C6.19830573,12.455522 5.92909699,12.4334295 5.75713433,12.2702536 L5.69753569,12.2025002 L4.23298694,10.2025002 C4.12259393,10.0517466 4.1068235,9.85458214 4.18567565,9.69056829 L4.23298694,9.61169226 L5.69753569,7.61169226 C5.86068279,7.38889721 6.17355072,7.340543 6.39634577,7.5036901 Z M9.98023447,7.54393885 L10.0398331,7.61169226 L11.5043819,9.61169226 L11.5516932,9.69056829 C11.6174033,9.8272465 11.6174033,9.98694595 11.5516932,10.1236242 L11.5043819,10.2025002 L10.0398331,12.2025002 L9.98023447,12.2702536 C9.82976715,12.4130325 9.6048458,12.4477944 9.41829515,12.3571022 L9.34102304,12.3105023 L9.27326963,12.2509037 C9.13049072,12.1004364 9.09572879,11.875515 9.18642106,11.6889644 L9.23302088,11.6116923 L10.4819757,9.90609622 L9.23302088,8.20250019 L9.18642106,8.12522808 C9.08277275,7.91202734 9.142983,7.64870975 9.34102304,7.5036901 C9.53906308,7.35867046 9.80827182,7.38076296 9.98023447,7.54393885 Z M14.5,1 C14.7761424,1 15,1.22385763 15,1.5 L15,5 C15,5.27614237 14.7761424,5.5 14.5,5.5 C14.2238576,5.5 14,5.27614237 14,5 L14,2.706 L11.8180195,4.8890873 C11.6227573,5.08434944 11.3061748,5.08434944 11.1109127,4.8890873 C10.9156506,4.69382515 10.9156506,4.37724266 11.1109127,4.18198052 L13.292,2 L11,2 C10.7238576,2 10.5,1.77614237 10.5,1.5 C10.5,1.22385763 10.7238576,1 11,1 L14.5,1 Z" id="形状结合" fill="#71757F"></path>
        </g>
    </g>
</svg>