<?xml version="1.0" encoding="UTF-8"?>
<svg width="16px" height="16px" viewBox="0 0 16 16" version="1.1" xmlns="http://www.w3.org/2000/svg" xmlns:xlink="http://www.w3.org/1999/xlink">
    <title>start</title>
    <g id="start" stroke="none" stroke-width="1" fill="none" fill-rule="evenodd">
        <path d="M8,1 C11.865995,1 15,4.134005 15,8 C15,11.865995 11.865995,15 8,15 C4.134005,15 1,11.865995 1,8 C1,4.134005 4.134005,1 8,1 Z M8,2 C4.68628975,2 2,4.68628975 2,8 C2,11.3137103 4.68628975,14 8,14 C11.3137103,14 14,11.3137103 14,8 C14,4.68628975 11.3137103,2 8,2 Z M6,5.7 C6,5.31549183 6.41590301,5.07488063 6.74923556,5.26654685 L6.74923556,5.26654685 L10.7492356,7.56654685 C11.0835881,7.75879958 11.0835881,8.24120042 10.7492356,8.43345315 L10.7492356,8.43345315 L6.74923556,10.7334532 C6.41590301,10.9251194 6,10.6845082 6,10.3 L6,10.3 Z M7,6.564 L7,9.435 L9.496,7.999 L7,6.564 Z" id="å½¢çŠ¶ç»“åˆ" fill="#71757F" fill-rule="nonzero"></path>
    </g>
</svg>