<?xml version="1.0" encoding="UTF-8"?>
<svg width="16px" height="16px" viewBox="0 0 16 16" version="1.1" xmlns="http://www.w3.org/2000/svg" xmlns:xlink="http://www.w3.org/1999/xlink">
    <title>function icon/status</title>
    <g id="图标入库记录" stroke="none" stroke-width="1" fill="none" fill-rule="evenodd">
        <g id="API-starter-图标入库记录-221020" transform="translate(-92.000000, -124.000000)" fill="#71757F" fill-rule="nonzero">
            <g id="编组-5" transform="translate(92.000000, 124.000000)">
                <path d="M14.1940876,10.039114 C14.448946,10.1454239 14.5693683,10.4382087 14.4630584,10.6930671 C13.3840918,13.2796901 10.8509833,15 8,15 C5.14901667,15 2.61590819,13.2796901 1.5369416,10.6930671 C1.43063167,10.4382087 1.551054,10.1454239 1.80591241,10.039114 C2.06077082,9.93280407 2.35355562,10.0532264 2.45986555,10.3080848 C3.38478461,12.5254073 5.55608132,14 8,14 C10.4439187,14 12.6152154,12.5254073 13.5401345,10.3080848 C13.6464444,10.0532264 13.9392292,9.93280407 14.1940876,10.039114 Z M5.93015858,5.74445037 L5.96816459,5.82443828 L7.125,8.909 L8.58397485,6.7226499 C8.77061423,6.44269083 9.16623838,6.42840509 9.37634166,6.67040501 L9.42874646,6.74275212 L10.599,8.693 L11.6464466,7.64644661 C11.7214612,7.57143206 11.8178573,7.52271496 11.9213106,7.5062287 L12,7.5 L15.5,7.5 C15.7761424,7.5 16,7.72385763 16,8 C16,8.24545989 15.8231248,8.44960837 15.5898756,8.49194433 L15.5,8.5 L12.206,8.5 L10.8535534,9.85355339 C10.6465429,10.0605639 10.3140484,10.0428814 10.1276156,9.83393476 L10.0712535,9.75724788 L8.978,7.935 L7.41602515,10.2773501 C7.20734706,10.5903672 6.75245998,10.5639266 6.5711599,10.2578673 L6.53183541,10.1755617 L5.352,7.031 L4.4,8.3 C4.32445825,8.40072234 4.21450564,8.46828893 4.09296839,8.49128668 L4,8.5 L0.5,8.5 C0.223857625,8.5 0,8.27614237 0,8 C0,7.75454011 0.176875161,7.55039163 0.410124368,7.50805567 L0.5,7.5 L3.75,7.5 L5.1,5.7 C5.31874113,5.40834515 5.7552286,5.44606226 5.93015858,5.74445037 Z M8,1 C10.8514051,1 13.3848145,2.72081908 14.4635086,5.3080123 C14.5697757,5.56288858 14.4493041,5.85565312 14.1944278,5.96192022 C13.9395516,6.06818732 13.646787,5.94771578 13.5405199,5.69283951 C12.6158351,3.47502951 10.4442799,2 8,2 C5.55572013,2 3.38416494,3.47502951 2.45948007,5.69283951 C2.35321298,5.94771578 2.06044843,6.06818732 1.80557215,5.96192022 C1.55069588,5.85565312 1.43022434,5.56288858 1.53649144,5.3080123 C2.61518547,2.72081908 5.14859486,1 8,1 Z" id="形状结合"></path>
            </g>
        </g>
    </g>
</svg>