<?xml version="1.0" encoding="UTF-8"?>
<svg width="16px" height="16px" viewBox="0 0 16 16" version="1.1" xmlns="http://www.w3.org/2000/svg" xmlns:xlink="http://www.w3.org/1999/xlink">
    <title>Combined Shape Copy</title>
    <g id="Symbols" stroke="none" stroke-width="1" fill="none" fill-rule="evenodd">
        <path d="M8,0 C12.418278,0 16,3.581722 16,8 C16,12.418278 12.418278,16 8,16 C3.581722,16 0,12.418278 0,8 C0,3.581722 3.581722,0 8,0 Z M8,0.666666667 C3.94991183,0.666666667 0.666666667,3.94991183 0.666666667,8 C0.666666667,12.0500882 3.94991183,15.3333333 8,15.3333333 C12.0500882,15.3333333 15.3333333,12.0500882 15.3333333,8 C15.3333333,3.94991183 12.0500882,0.666666667 8,0.666666667 Z M8,2 C11.3137085,2 14,4.6862915 14,8 C14,11.3137085 11.3137085,14 8,14 C4.6862915,14 2,11.3137085 2,8 C2,4.6862915 4.6862915,2 8,2 Z M8.40266667,4.16266667 L7.63466667,4.16266667 L7.63466667,10.4506667 L6.15466667,10.4506667 L6.15466667,5.56266667 L5.38666667,5.56266667 L5.38666667,10.4506667 L4.09066667,10.4506667 L4.09066667,11.1946667 L11.2426667,11.1946667 L11.2426667,10.4506667 L8.40266667,10.4506667 L8.40266667,7.41866667 L10.8266667,7.41866667 L10.8266667,6.68266667 L8.40266667,6.68266667 L8.40266667,4.16266667 Z" id="Combined-Shape-Copy" fill="#71757F" fill-rule="nonzero"></path>
    </g>
</svg>