<?xml version="1.0" encoding="UTF-8"?>
<svg width="16px" height="16px" viewBox="0 0 16 16" version="1.1" xmlns="http://www.w3.org/2000/svg" xmlns:xlink="http://www.w3.org/1999/xlink">
    <title>function icon/store</title>
    <g id="DevUI风格图标汇总-220907" stroke="none" stroke-width="1" fill="none" fill-rule="evenodd">
        <g id="DevUI-通用图标" transform="translate(-752.000000, -520.000000)" fill="#71757F" fill-rule="nonzero">
            <g id="编组" transform="translate(752.000000, 520.000000)">
                <path d="M13.3685479,2 L2.63145212,2 C1.7384914,2 0.9537194,2.59195463 0.708404224,3.45055774 L0.34906431,4.70824744 C0.0939075647,5.60129605 0.399893574,6.56022728 1.12515248,7.1404344 C1.85585721,7.72499819 2.89414279,7.72499819 3.62484752,7.1404344 L4.06259148,6.79023924 C4.17215708,6.70258676 4.32784292,6.70258676 4.43740852,6.79023924 L4.87515248,7.1404344 C5.60585721,7.72499819 6.64414279,7.72499819 7.37484752,7.1404344 L7.81259148,6.79023924 C7.92215708,6.70258676 8.07784292,6.70258676 8.18740852,6.79023924 L8.62515248,7.1404344 C9.35585721,7.72499819 10.3941428,7.72499819 11.1248475,7.1404344 L11.5625915,6.79023924 C11.6721571,6.70258676 11.8278429,6.70258676 11.9374085,6.79023924 L12.3751525,7.1404344 C13.1058572,7.72499819 14.1441428,7.72499819 14.8748475,7.1404344 C15.6001064,6.56022728 15.9060924,5.60129605 15.6509357,4.70824744 L15.2915958,3.45055774 C15.0462806,2.59195463 14.2615086,2 13.3685479,2 Z M2.63145212,3 L13.3685479,3 C13.8150282,3 14.2074142,3.29597731 14.3300718,3.72527887 L14.6894117,4.98296857 C14.8338283,5.48842645 14.6606428,6.03117333 14.2501525,6.3595656 C13.8846664,6.65195446 13.3653336,6.65195446 12.9998475,6.3595656 L12.5621036,6.00937043 C12.0873193,5.62954303 11.4126807,5.62954303 10.9378964,6.00937043 L10.5001525,6.3595656 C10.1346664,6.65195446 9.6153336,6.65195446 9.24984752,6.3595656 L8.81210357,6.00937043 C8.33731932,5.62954303 7.66268068,5.62954303 7.18789643,6.00937043 L6.75015248,6.3595656 C6.3846664,6.65195446 5.8653336,6.65195446 5.49984752,6.3595656 L5.06210357,6.00937043 C4.58731932,5.62954303 3.91268068,5.62954303 3.43789643,6.00937043 L3.00015248,6.3595656 C2.6346664,6.65195446 2.1153336,6.65195446 1.74984752,6.3595656 C1.33935719,6.03117333 1.16617172,5.48842645 1.31058826,4.98296857 L1.66992817,3.72527887 C1.79258576,3.29597731 2.18497176,3 2.63145212,3 Z M13.5,8 C13.7454599,8 13.9496084,8.17687516 13.9919443,8.41012437 L14,8.5 L14,12 C14,13.0543618 13.1841222,13.9181651 12.1492623,13.9945143 L12,14 L4,14 C2.9456382,14 2.08183488,13.1841222 2.00548574,12.1492623 L2,12 L2,8.5 C2,8.22385763 2.22385763,8 2.5,8 C2.74545989,8 2.94960837,8.17687516 2.99194433,8.41012437 L3,8.5 L3,12 C3,12.5128358 3.38604019,12.9355072 3.88337887,12.9932723 L4,13 L12,13 C12.5128358,13 12.9355072,12.6139598 12.9932723,12.1166211 L13,12 L13,8.5 C13,8.22385763 13.2238576,8 13.5,8 Z" id="形状结合"></path>
            </g>
        </g>
    </g>
</svg>