<?xml version="1.0" encoding="UTF-8"?>
<svg width="16px" height="16px" viewBox="0 0 16 16" version="1.1" xmlns="http://www.w3.org/2000/svg" xmlns:xlink="http://www.w3.org/1999/xlink">
    <title>function icon/string</title>
    <g id="资源库" stroke="none" stroke-width="1" fill="none" fill-rule="evenodd">
        <g id="画板备份-2" transform="translate(-671.000000, -6069.000000)" fill="#71757F" fill-rule="nonzero">
            <g id="编组-13" transform="translate(671.000000, 6069.000000)">
                <path d="M4,2 C4.27614237,2 4.5,2.22385763 4.5,2.5 C4.5,2.77614237 4.27614237,3 4,3 C3.48716416,3 3.06449284,3.38604019 3.00672773,3.88337887 L3,4 L3,6.5 C3,7.09757013 2.73792623,7.63392965 2.32244531,8.00041196 C2.73792623,8.36607035 3,8.90242987 3,9.5 L3,9.5 L3,12 L3.00672773,12.1166211 C3.06449284,12.6139598 3.48716416,13 4,13 C4.27614237,13 4.5,13.2238576 4.5,13.5 C4.5,13.7761424 4.27614237,14 4,14 C2.8954305,14 2,13.1045695 2,12 L2,12 L2,9.5 L1.99327227,9.38337887 C1.93550716,8.88604019 1.51283584,8.5 1,8.5 C0.723857625,8.5 0.5,8.27614237 0.5,8 C0.5,7.72385763 0.723857625,7.5 1,7.5 L1,7.5 C1.51283584,7.5 1.93550716,7.11395981 1.99327227,6.61662113 L2,6.5 L2,4 C2,2.8954305 2.8954305,2 4,2 Z M12,2 C13.1045695,2 14,2.8954305 14,4 L14,4 L14,6.5 L14.0067277,6.61662113 C14.0644928,7.11395981 14.4871642,7.5 15,7.5 C15.2761424,7.5 15.5,7.72385763 15.5,8 C15.5,8.27614237 15.2761424,8.5 15,8.5 L15,8.5 C14.4871642,8.5 14.0644928,8.88604019 14.0067277,9.38337887 L14,9.5 L14,12 C14,13.1045695 13.1045695,14 12,14 C11.7238576,14 11.5,13.7761424 11.5,13.5 C11.5,13.2238576 11.7238576,13 12,13 C12.5128358,13 12.9355072,12.6139598 12.9932723,12.1166211 L13,12 L13,9.5 C13,8.90242987 13.2620738,8.36607035 13.6775547,7.99958804 C13.2620738,7.63392965 13,7.09757013 13,6.5 L13,6.5 L13,4 L12.9932723,3.88337887 C12.9355072,3.38604019 12.5128358,3 12,3 C11.7238576,3 11.5,2.77614237 11.5,2.5 C11.5,2.22385763 11.7238576,2 12,2 Z M5.42,6.82 C5.636,6.82 5.824,6.847 5.984,6.901 C6.144,6.955 6.277,7.022 6.383,7.102 C6.489,7.182 6.57,7.263 6.626,7.345 C6.682,7.427 6.712,7.498 6.716,7.558 C6.72,7.602 6.708,7.637 6.68,7.663 C6.652,7.689 6.62,7.702 6.584,7.702 L6.14,7.702 C6.12,7.702 6.102,7.698 6.086,7.69 C6.07,7.682 6.054,7.672 6.038,7.66 C5.994,7.62 5.946,7.577 5.894,7.531 C5.842,7.485 5.779,7.446 5.705,7.414 C5.631,7.382 5.534,7.366 5.414,7.366 C5.262,7.366 5.146,7.399 5.066,7.465 C4.986,7.531 4.946,7.614 4.946,7.714 C4.946,7.782 4.965,7.841 5.003,7.891 C5.041,7.941 5.118,7.988 5.234,8.032 C5.35,8.076 5.526,8.122 5.762,8.17 C6.03,8.218 6.243,8.289 6.401,8.383 C6.559,8.477 6.671,8.585 6.737,8.707 C6.803,8.829 6.836,8.964 6.836,9.112 C6.836,9.292 6.783,9.454 6.677,9.598 C6.571,9.742 6.415,9.855 6.209,9.937 C6.003,10.019 5.748,10.06 5.444,10.06 C5.204,10.06 4.999,10.032 4.829,9.976 C4.659,9.92 4.52,9.85 4.412,9.766 C4.304,9.682 4.224,9.598 4.172,9.514 C4.12,9.43 4.092,9.36 4.088,9.304 C4.084,9.26 4.097,9.225 4.127,9.199 C4.157,9.173 4.19,9.16 4.226,9.16 L4.7,9.16 C4.716,9.16 4.73,9.162 4.742,9.166 C4.754,9.17 4.77,9.182 4.79,9.202 C4.842,9.246 4.897,9.292 4.955,9.34 C5.013,9.388 5.082,9.429 5.162,9.463 C5.242,9.497 5.342,9.514 5.462,9.514 C5.618,9.514 5.749,9.483 5.855,9.421 C5.961,9.359 6.014,9.27 6.014,9.154 C6.014,9.07 5.991,9.002 5.945,8.95 C5.899,8.898 5.814,8.851 5.69,8.809 C5.566,8.767 5.39,8.722 5.162,8.674 C4.938,8.622 4.752,8.556 4.604,8.476 C4.456,8.396 4.346,8.296 4.274,8.176 C4.202,8.056 4.166,7.916 4.166,7.756 C4.166,7.6 4.213,7.451 4.307,7.309 C4.401,7.167 4.541,7.05 4.727,6.958 C4.913,6.866 5.144,6.82 5.42,6.82 Z M8.402,5.74 C8.442,5.74 8.476,5.754 8.504,5.782 C8.532,5.81 8.546,5.844 8.546,5.884 L8.546,6.88 L9.296,6.88 C9.336,6.88 9.37,6.894 9.398,6.922 C9.426,6.95 9.44,6.984 9.44,7.024 L9.44,7.366 C9.44,7.41 9.426,7.446 9.398,7.474 C9.37,7.502 9.336,7.516 9.296,7.516 L8.546,7.516 L8.546,8.818 C8.546,8.982 8.575,9.11 8.633,9.202 C8.691,9.294 8.792,9.34 8.936,9.34 L9.35,9.34 C9.39,9.34 9.424,9.354 9.452,9.382 C9.48,9.41 9.494,9.444 9.494,9.484 L9.494,9.856 C9.494,9.896 9.48,9.93 9.452,9.958 C9.424,9.986 9.39,10 9.35,10 L8.864,10 C8.624,10 8.422,9.958 8.258,9.874 C8.094,9.79 7.972,9.665 7.892,9.499 C7.812,9.333 7.772,9.126 7.772,8.878 L7.772,7.516 L7.298,7.516 C7.258,7.516 7.224,7.502 7.196,7.474 C7.168,7.446 7.154,7.41 7.154,7.366 L7.154,7.024 C7.154,6.984 7.168,6.95 7.196,6.922 C7.224,6.894 7.258,6.88 7.298,6.88 L7.772,6.88 L7.772,5.884 C7.772,5.844 7.785,5.81 7.811,5.782 C7.837,5.754 7.872,5.74 7.916,5.74 L8.402,5.74 Z M10.658,6.88 C10.698,6.88 10.733,6.894 10.763,6.922 C10.793,6.95 10.808,6.986 10.808,7.03 L10.808,7.276 C10.9,7.148 11.019,7.05 11.165,6.982 C11.311,6.914 11.48,6.88 11.672,6.88 L11.918,6.88 C11.962,6.88 11.997,6.894 12.023,6.922 C12.049,6.95 12.062,6.984 12.062,7.024 L12.062,7.456 C12.062,7.496 12.049,7.53 12.023,7.558 C11.997,7.586 11.962,7.6 11.918,7.6 L11.45,7.6 C11.258,7.6 11.109,7.653 11.003,7.759 C10.897,7.865 10.844,8.014 10.844,8.206 L10.844,9.856 C10.844,9.896 10.83,9.93 10.802,9.958 C10.774,9.986 10.738,10 10.694,10 L10.172,10 C10.132,10 10.098,9.986 10.07,9.958 C10.042,9.93 10.028,9.896 10.028,9.856 L10.028,7.03 C10.028,6.986 10.042,6.95 10.07,6.922 C10.098,6.894 10.132,6.88 10.172,6.88 L10.658,6.88 Z" id="形状结合"></path>
            </g>
        </g>
    </g>
</svg>