<?xml version="1.0" encoding="UTF-8"?>
<svg width="16px" height="16px" viewBox="0 0 16 16" version="1.1" xmlns="http://www.w3.org/2000/svg" xmlns:xlink="http://www.w3.org/1999/xlink">
    <!-- Generator: Sketch 63.1 (92452) - https://sketch.com -->
    <title>function icon/add module</title>
    <desc>Created with Sketch.</desc>
    <g id="DevUI风格图标汇总-220907" stroke="none" stroke-width="1" fill="none" fill-rule="evenodd">
        <g id="API-starter-图标入库记录-220919" transform="translate(-572.000000, -124.000000)" fill="#71757F" fill-rule="nonzero">
            <g id="编组-2" transform="translate(572.000000, 124.000000)">
                <path d="M11.5,10 C11.7761424,10 12,10.2238576 12,10.5 L12,12 L13.5,12 C13.7761424,12 14,12.2238576 14,12.5 C14,12.7761424 13.7761424,13 13.5,13 L12,13 L12,14.5 C12,14.7761424 11.7761424,15 11.5,15 C11.2238576,15 11,14.7761424 11,14.5 L11,13 L9.5,13 C9.22385763,13 9,12.7761424 9,12.5 C9,12.2238576 9.22385763,12 9.5,12 L11,12 L11,10.5 C11,10.2238576 11.2238576,10 11.5,10 Z M6.5,3 C6.77614237,3 7,3.22385763 7,3.5 C7,3.74545989 6.82312484,3.94960837 6.58987563,3.99194433 L6.5,4 L5,4 C4.48716416,4 4.06449284,4.38604019 4.00672773,4.88337887 L4,5 L4,6.5 C4,7.09794662 3.7375959,7.63460548 3.32165982,8.00110445 C3.7375959,8.36539452 4,8.90205338 4,9.5 L4,9.5 L4,11 L4.00672773,11.1166211 C4.06449284,11.6139598 4.48716416,12 5,12 L5,12 L6.5,12 L6.58987563,12.0080557 C6.82312484,12.0503916 7,12.2545401 7,12.5 C7,12.7761424 6.77614237,13 6.5,13 L6.5,13 L5,13 L4.85073766,12.9945143 C3.81587779,12.9181651 3,12.0543618 3,11 L3,11 L3,9.5 L2.99327227,9.38337887 C2.93550716,8.88604019 2.51283584,8.5 2,8.5 L2,8.5 L1.5,8.5 L1.41012437,8.49194433 C1.17687516,8.44960837 1,8.24545989 1,8 C1,7.72385763 1.22385763,7.5 1.5,7.5 L1.5,7.5 L2,7.5 C2.51283584,7.5 2.93550716,7.11395981 2.99327227,6.61662113 L3,6.5 L3,5 C3,3.9456382 3.81587779,3.08183488 4.85073766,3.00548574 L5,3 L6.5,3 Z M12,1 C13.1045695,1 14,1.8954305 14,3 L14,4 C14,5.1045695 13.1045695,6 12,6 L11,6 C9.8954305,6 9,5.1045695 9,4 L9,3 C9,1.8954305 9.8954305,1 11,1 L12,1 Z M12,2 L11,2 C10.4871642,2 10.0644928,2.38604019 10.0067277,2.88337887 L10,3 L10,4 C10,4.51283584 10.3860402,4.93550716 10.8833789,4.99327227 L11,5 L12,5 C12.5128358,5 12.9355072,4.61395981 12.9932723,4.11662113 L13,4 L13,3 C13,2.48716416 12.6139598,2.06449284 12.1166211,2.00672773 L12,2 Z" id="形状结合"></path>
            </g>
        </g>
    </g>
</svg>