<?xml version="1.0" encoding="UTF-8"?>
<svg width="16px" height="16px" viewBox="0 0 16 16" version="1.1" xmlns="http://www.w3.org/2000/svg" xmlns:xlink="http://www.w3.org/1999/xlink">
    <title>submit</title>
    <g id="页面-1" stroke="none" stroke-width="1" fill="none" fill-rule="evenodd">
        <g id="API测试图标备份" transform="translate(-846.000000, -275.000000)">
            <g id="编组" transform="translate(846.000000, 275.000000)">
                <path d="M13.3333333,10.8332606 C13.5864638,10.8332606 13.7956606,11.0213631 13.8287689,11.2654135 L13.8333333,11.3332606 L13.8333333,12.4999272 C13.8333333,13.5652788 13.0009428,14.4357176 11.9508724,14.496533 L11.8333333,14.4999272 L4.16666667,14.4999272 C3.10176903,14.4999272 2.23090867,13.6673545 2.17006265,12.6174468 L2.16666667,12.4999272 L2.16666667,11.3332606 C2.16666667,11.0571182 2.39052429,10.8332606 2.66666667,10.8332606 C2.91979718,10.8332606 3.12899397,11.0213631 3.16210226,11.2654135 L3.16666667,11.3332606 L3.16666667,12.4999272 C3.16666667,13.0197011 3.56340266,13.4468902 4.07038539,13.4953493 L4.16666667,13.4999272 L11.8333333,13.4999272 C12.3533562,13.4999272 12.7803256,13.1035474 12.828758,12.5962713 L12.8333333,12.4999272 L12.8333333,11.3332606 C12.8333333,11.0571182 13.057191,10.8332606 13.3333333,10.8332606 Z M8.97490852,1.85991544 L9.06088672,1.93964049 L12.3535534,5.23230716 C12.5488155,5.42756931 12.5488155,5.7441518 12.3535534,5.93941394 C12.1760423,6.11692498 11.8982666,6.13306235 11.7025256,5.98782604 L11.6464466,5.93941394 L8.49966667,2.79307278 L8.5,11.3833939 C8.5,11.6595363 8.27614237,11.8833939 8,11.8833939 C7.74686949,11.8833939 7.53767269,11.6952913 7.50456441,11.4512409 L7.5,11.3833939 L7.49966667,2.79207278 L4.35355339,5.93941394 C4.15829124,6.13467609 3.84170876,6.13467609 3.64644661,5.93941394 C3.46893557,5.7619029 3.4527982,5.48412711 3.59803451,5.28838612 L3.64644661,5.23230716 L6.93911328,1.93964049 C7.22936344,1.64939033 7.60912505,1.50290834 7.98960202,1.50019455 C7.99250948,1.50010183 7.99624992,1.50006055 8,1.50006055 L8.01866384,1.50026686 C8.36003862,1.50440075 8.70016912,1.62428361 8.97490852,1.85991544 Z" id="形状结合" fill="#71757F"></path>
            </g>
        </g>
    </g>
</svg>