<?xml version="1.0" encoding="UTF-8"?>
<svg width="16px" height="16px" viewBox="0 0 16 16" version="1.1" xmlns="http://www.w3.org/2000/svg" xmlns:xlink="http://www.w3.org/1999/xlink">
    <title>subscribe</title>
    <g id="subscribe" stroke="none" stroke-width="1" fill="none" fill-rule="evenodd">
        <path d="M1.79542129,13 C1.32545941,13 1.11509695,12.410429 1.47891046,12.112933 C1.96403882,11.7162358 2.31170029,11.2041225 2.52605148,10.5663396 C2.53828096,10.5299518 2.5499295,10.4833392 2.56094794,10.4266986 L2.56094794,10.4266986 L2.59206383,10.2268899 C2.59691838,10.1886401 2.60160312,10.1479326 2.60611191,10.104792 L2.60611191,10.104792 L2.63100403,9.8169478 L2.65977926,9.27827646 L2.67282407,8.84961574 L2.68061393,8.36669665 L2.68224879,7.59033922 C2.68170065,7.47136529 2.68081649,7.34912449 2.67959618,7.22361843 L2.67959618,7.22361843 L2.66823978,6.43141192 C2.61369854,3.48675182 4.95662106,1.05543141 7.90591464,1.00084946 L7.90591464,1.00084946 L8.22120681,1.0043672 C11.1562154,1.12046066 13.4999935,3.53651668 13.5,6.49999399 L13.5,6.49999399 L13.5,10.1038244 C13.5,11.0096978 13.8026342,11.6550355 14.4148364,12.0935048 C14.8100257,12.3765458 14.6097912,13 14.1236979,13 L14.1236979,13 L10,13 L10,13 C10,14.0111154 9.07578362,14.9134691 8,14.9134691 C6.92421638,14.9134691 6,14.0111154 6,13 Z M7,13 C7,13.4534017 7.47121412,13.9134691 8,13.9134691 C8.49101546,13.9134691 8.93238996,13.5167784 8.99293828,13.0970894 L9,13 L7,13 Z M8,2 L7.919798,2.00074237 C5.52732409,2.04503675 3.62375484,4.0204272 3.66806836,6.41289703 L3.66806836,6.41289703 L3.68224345,7.58783973 L3.68045468,8.39225037 L3.66509373,9.15872137 L3.64665122,9.59714475 L3.62130325,9.97886304 L3.58875501,10.3050255 C3.55854947,10.5539985 3.52053656,10.7462979 3.47394852,10.8849164 C3.35242229,11.2465069 3.19495394,11.5798945 3.00190839,11.884179 L3.00190839,11.884179 L2.922,12 L12.983,12 C12.6962926,11.5266482 12.5376858,10.973096 12.5059512,10.34348 L12.5059512,10.34348 L12.5,10.1038244 L12.5,6.5 C12.4999946,4.01471552 10.4852774,2 8,2 L8,2 Z M3.73946862,1.36110814 C3.92589141,1.56482646 3.91187063,1.88109832 3.70815231,2.06752111 C2.86129945,2.84247688 2.27132994,3.92079385 2.06608307,5.15785395 C2.02088478,5.43027224 1.76340567,5.61447045 1.49098738,5.56927216 C1.21856908,5.52407387 1.03437088,5.26659475 1.07956917,4.99417646 C1.3216597,3.53505293 2.02199562,2.25501371 3.03305564,1.32979184 C3.23677396,1.14336904 3.55304582,1.15738983 3.73946862,1.36110814 Z M12.4058781,1.45521353 C12.597927,1.25679022 12.9144673,1.25162277 13.1128906,1.44367173 C14.0601693,2.36051895 14.7132719,3.59521859 14.9453801,4.99417646 C14.9905784,5.26659475 14.8063801,5.52407387 14.5339619,5.56927216 C14.2615436,5.61447045 14.0040645,5.43027224 13.9588662,5.15785395 C13.7620275,3.97147145 13.2116135,2.93090623 12.4174199,2.16222611 C12.2189965,1.97017716 12.2138291,1.65363684 12.4058781,1.45521353 Z" id="形状结合" fill="#333333" fill-rule="nonzero"></path>
    </g>
</svg>