<svg width="16px" height="16px" viewBox="0 0 16 16" version="1.1" xmlns="http://www.w3.org/2000/svg" xmlns:xlink="http://www.w3.org/1999/xlink">
    <title>swb文件下载</title>
    <g id="swb文件下载" stroke="none" stroke-width="1" fill="none" fill-rule="evenodd">
        <path d="M12,9.5 C12.2454599,9.5 12.4496084,9.67687516 12.4919443,9.91012437 L12.5,10 L12.5,13.408 L13.7633009,12.1464466 C13.9368672,11.9728803 14.2062916,11.9535951 14.4011598,12.0885912 L14.4704076,12.1464466 C14.643974,12.320013 14.6632591,12.5894374 14.5282631,12.7843055 L14.4704076,12.8535534 L12.3490873,14.9748737 C12.1755209,15.1484401 11.9060965,15.1677252 11.7112284,15.0327292 L11.6419805,14.9748737 L9.52066017,12.8535534 C9.32539803,12.6582912 9.32539803,12.3417088 9.52066017,12.1464466 C9.69422652,11.9728803 9.96365092,11.9535951 10.1585191,12.0885912 L10.227767,12.1464466 L11.5,13.419 L11.5,10 C11.5,9.72385763 11.7238576,9.5 12,9.5 Z M12.5,1 C13.5543618,1 14.4181651,1.81587779 14.4945143,2.85073766 L14.5,3 L14.5,9 C14.5,9.27614237 14.2761424,9.5 14,9.5 C13.7545401,9.5 13.5503916,9.32312484 13.5080557,9.08987563 L13.5,9 L13.5,3 C13.5,2.48716416 13.1139598,2.06449284 12.6166211,2.00672773 L12.5,2 L3.5,2 C2.98716416,2 2.56449284,2.38604019 2.50672773,2.88337887 L2.5,3 L2.5,13 C2.5,13.5128358 2.88604019,13.9355072 3.38337887,13.9932723 L3.5,14 L8,14 C8.27614237,14 8.5,14.2238576 8.5,14.5 C8.5,14.7454599 8.32312484,14.9496084 8.08987563,14.9919443 L8,15 L3.5,15 C2.4456382,15 1.58183488,14.1841222 1.50548574,13.1492623 L1.5,13 L1.5,3 C1.5,1.9456382 2.31587779,1.08183488 3.35073766,1.00548574 L3.5,1 L12.5,1 Z M4.6622335,4.532 C5.03011753,4.532 5.38946823,4.63571711 5.63108182,4.79591784 L5.72710373,4.86789577 L5.81164569,4.94103811 L5.89830346,5.02765739 C5.95171457,5.08868294 5.99247488,5.15434994 6.02919379,5.24051018 L6.06488444,5.3340886 L6.10492643,5.46500939 L6.14865585,5.64284618 C6.15535257,5.88672144 6.02957013,6.03031849 5.79928934,6.03031849 C5.58592813,6.03031849 5.44046747,5.93820449 5.39557734,5.77288536 C5.28402826,5.51919314 5.14836822,5.38436132 4.98183637,5.32549259 C4.88609351,5.29164765 4.80490842,5.28424288 4.63308583,5.28424288 C4.43941797,5.28424288 4.31057888,5.31946149 4.19026959,5.39641379 C4.08270234,5.45998604 4.0171676,5.61605689 4.0171676,5.80521649 C4.0171676,5.9711579 4.06371527,6.06867957 4.19271885,6.14940611 C4.20537228,6.15738284 4.22311391,6.16710355 4.24562669,6.17838995 L4.2829346,6.19647154 L4.43542095,6.2634704 L4.65850941,6.35278331 L4.96532712,6.46832812 L5.26832765,6.58900125 L5.51333468,6.69799043 C5.62084097,6.74931393 5.7054773,6.79569321 5.76556009,6.83628415 C6.10760361,7.07755724 6.28,7.41443925 6.28,7.842 C6.28,8.25453947 6.14106305,8.58791312 5.86410015,8.83015483 C5.58819467,9.06496144 5.20304909,9.184 4.72314721,9.184 C4.25436297,9.184 3.88215313,9.07521186 3.61371367,8.85504648 C3.35268307,8.63906976 3.22587899,8.43667026 3.15652706,8.09721334 C3.14317935,8.03188031 3.13867548,7.94571095 3.15789169,7.85839328 C3.19093533,7.7082443 3.28900056,7.59943207 3.45733575,7.570033 C3.74119692,7.52045779 3.91983871,7.67507791 3.96279803,7.86155014 C4.0159947,8.09245936 4.0435596,8.15341475 4.1349573,8.23359103 C4.24572844,8.32711351 4.42067255,8.366 4.72314721,8.366 C4.96696472,8.366 5.1617702,8.31745119 5.29474003,8.22843091 C5.42497821,8.13606599 5.48609137,8.02654727 5.48609137,7.884 C5.48609137,7.72673833 5.42036418,7.59694201 5.28483643,7.4908963 L5.19511112,7.43008922 L5.11069738,7.38887456 L4.96406248,7.32777349 L4.34120055,7.09318376 L4.06324843,6.98263128 L3.85056706,6.89026368 L3.70139293,6.81505703 L3.65006998,6.78356909 C3.34446824,6.56683633 3.19167513,6.24871267 3.19167513,5.838 C3.19167513,5.42677587 3.33932474,5.0991358 3.63401824,4.86695352 C3.90567595,4.64218393 4.24747608,4.532 4.6622335,4.532 Z M11.7594418,4.57869066 C12.1512407,4.57869066 12.4744309,4.69970854 12.7151763,4.92996287 C12.9366226,5.14545826 13.0687602,5.4453196 13.0859729,5.78467526 C13.1056037,6.17170486 12.9563935,6.52573134 12.7641356,6.73094801 L12.6902667,6.80070262 L12.6774824,6.809 C12.7081616,6.82527892 12.7230767,6.8350951 12.7388553,6.84797966 L12.7933492,6.89521819 C13.0129341,7.08259181 13.1400515,7.37078108 13.1400515,7.794 C13.1400515,8.284058 13.0068745,8.59267934 12.7054412,8.82799545 C12.4974983,8.98397729 12.2179643,9.07240177 11.8740284,9.09448189 L11.5982114,9.10043095 L10.6304199,9.09986802 C10.5139442,9.09873584 10.474493,9.09408792 10.4164456,9.06445049 C10.3928587,9.05240767 10.3703363,9.03691026 10.3468005,9.01697589 C10.2931108,8.97150156 10.2605604,8.908503 10.2471525,8.83067346 L10.2400515,8.748 L10.2400515,5.00162995 C10.2400515,4.87716611 10.2714545,4.77698595 10.3384914,4.70550812 C10.4115919,4.62756508 10.4815944,4.59316773 10.593754,4.58252651 L10.6864853,4.57869066 L11.7594418,4.57869066 Z M8.10644549,5.804 C8.25872766,5.804 8.37338062,5.86757717 8.43809228,5.98886712 L8.47082782,6.06851971 L8.90148239,7.652 L9.32346411,6.16802459 C9.39334043,5.98605055 9.50767739,5.87739634 9.65676522,5.852963 L9.73416009,5.84781521 L9.81707705,5.85700703 C10.0200905,5.89605595 10.1034037,6.01304205 10.0996105,6.18082419 L10.0927468,6.25576166 L10.0826052,6.31055358 L10.0494979,6.44425918 L9.93071077,6.81387845 L9.27486264,8.74730828 C9.20233165,8.9139557 9.07255529,9.004 8.89982207,9.004 C8.7534246,9.004 8.64195639,8.93884994 8.57528055,8.81527122 L8.54072903,8.73416632 L8.10548239,7.169 L7.66629817,8.73660847 C7.63109092,8.85189294 7.56324592,8.93230546 7.46879469,8.97310443 L7.39306184,8.99620202 L7.30791712,9.004 C7.16096303,9.004 7.0457825,8.94107672 6.97044724,8.81986261 L6.9300921,8.74017631 L6.11268971,6.3808754 C6.06362869,6.12669619 6.16135516,5.95309639 6.39217472,5.90704876 C6.5784108,5.86989537 6.73344726,5.9291251 6.84915354,6.08901402 L6.90369152,6.17736654 L7.30648239,7.645 L7.73855839,6.06308346 C7.77611555,5.95072445 7.8462278,5.87302925 7.94271233,5.83371678 L8.01992393,5.8114873 L8.10644549,5.804 Z M11.7004172,7.19199781 L11.1014824,7.191 L11.1014824,8.32400576 L11.6361594,8.32400576 C11.7734453,8.32400576 11.8544383,8.31759955 11.9466095,8.29104666 C12.1540906,8.23127498 12.2779704,8.0880393 12.2991442,7.80512816 C12.3283662,7.41468713 12.1124542,7.22741958 11.7976717,7.19659772 L11.7004172,7.19199781 Z M11.0979309,5.29853648 L11.1024824,6.432 L11.6362562,6.432 C12.015777,6.432 12.2275355,6.34667786 12.2862744,6.01889365 L12.2993202,5.91312739 C12.328545,5.52269002 12.1126082,5.33542193 11.7977872,5.30459994 L11.7005206,5.3 L11.0979309,5.29853648 Z" id="形状结合" fill="#7A7E87" fill-rule="nonzero"></path>
    </g>
</svg>