<?xml version="1.0" encoding="UTF-8"?>
<svg width="16px" height="16px" viewBox="0 0 16 16" version="1.1" xmlns="http://www.w3.org/2000/svg" xmlns:xlink="http://www.w3.org/1999/xlink">
    <title>切回旧版-switchto</title>
    <g id="切回旧版-switchto" stroke="none" stroke-width="1" fill="none" fill-rule="evenodd">
        <path d="M12.310002,8.92062175 C13.7856354,8.92599611 14.9836157,10.1150695 15.000002,11.5906218 L15.000002,11.9306218 C14.9945181,13.4139903 13.7933705,14.6151379 12.310002,14.6206218 L2.00000198,14.6206218 C1.44771723,14.6206218 1.00000198,14.1729065 1.00000198,13.6206218 L1.00000198,11.6206218 C1.00000198,10.1333495 2.20273989,8.92613017 3.69000198,8.92062175 L12.310002,8.92062175 Z M12.310002,9.89062175 L3.69000198,9.89062175 C2.75502551,9.89612171 2.00000198,10.6556291 2.00000198,11.5906218 L2.00000198,13.5906218 L12.310002,13.5906218 C13.2317719,13.590767 13.9836392,12.8522464 14.000002,11.9306218 L14.000002,11.5906218 C14.000002,10.6556291 13.2449785,9.89612171 12.310002,9.89062175 Z M8.28000198,11.3006218 C8.55614436,11.3006218 8.78000198,11.5244794 8.78000198,11.8006218 C8.78000198,12.0767641 8.55614436,12.3006218 8.28000198,12.3006218 L3.90000198,12.3006218 C3.62385961,12.3006218 3.40000198,12.0767641 3.40000198,11.8006218 C3.40000198,11.5244794 3.62385961,11.3006218 3.90000198,11.3006218 L8.28000198,11.3006218 Z M12.100002,11.3006218 C12.3761444,11.3006218 12.600002,11.5244794 12.600002,11.8006218 C12.600002,12.0767641 12.3761444,12.3006218 12.100002,12.3006218 L10.460002,12.3006218 C10.1860935,12.2953016 9.96532209,12.0745302 9.96000198,11.8006218 C9.96000198,11.5244794 10.1838596,11.3006218 10.460002,11.3006218 L12.100002,11.3006218 Z M13.050002,2.10062175 L13.120002,2.16062175 L14.800002,3.84062175 L14.800002,3.83062175 L14.880002,3.93062175 L14.880002,4.05062175 C14.9308693,4.10077126 14.967452,4.1630293 14.986676,4.23099313 L15,4.30062175 L13.140002,6.30062175 C12.9329364,6.4990437 12.6094307,6.50896234 12.3905983,6.32359838 C12.1717658,6.13823442 12.12834,5.81750324 12.290002,5.58062175 L12.350002,5.51062175 L13.080002,4.78062175 L6.08000198,4.78062175 C5.03954832,4.77263517 4.03882147,5.17967891 3.29934383,5.91164916 C2.5598662,6.6436194 2.14263242,7.64014076 2.14000198,8.68062175 C2.14000198,8.98990121 1.88928144,9.24062175 1.58000198,9.24062175 C1.42804666,9.24605222 1.28041561,9.18945854 1.17102894,9.08384383 C1.06164228,8.97822912 1,8.83267405 1,8.68062175 C0.997635945,5.99917178 3.11091701,3.79324165 5.79000198,3.68062175 L13.060002,3.68062175 L12.330002,2.95062175 C12.1425992,2.75884151 12.1174406,2.46113136 12.270002,2.24062175 L12.330002,2.16062175 C12.5250603,1.97164782 12.8263557,1.94653986 13.050002,2.10062175 Z" fill="#71757F" fill-rule="nonzero"></path>
    </g>
</svg>