<?xml version="1.0" encoding="UTF-8"?>
<svg width="16px" height="16px" viewBox="0 0 16 16" version="1.1" xmlns="http://www.w3.org/2000/svg" xmlns:xlink="http://www.w3.org/1999/xlink">
    <title>switch_1开关</title>
    <g id="switch_1开关" stroke="none" stroke-width="1" fill="none" fill-rule="evenodd">
        <path d="M10,3 C12.7614237,3 15,5.23857625 15,8 C15,10.7614237 12.7614237,13 10,13 L6,13 C3.23857625,13 1,10.7614237 1,8 C1,5.23857625 3.23857625,3 6,3 L10,3 Z M10,4 L6,4 C3.790861,4 2,5.790861 2,8 C2,10.1421954 3.68396847,11.8910789 5.80035966,11.9951047 L6,12 L10,12 C12.209139,12 14,10.209139 14,8 C14,5.85780461 12.3160315,4.10892112 10.1996403,4.00489531 L10,4 Z M9.9752108,4.49997826 C10.9067707,4.49672449 11.8014857,4.86362574 12.4625257,5.52001049 C13.1235656,6.17639524 13.4967807,7.06849496 13.5000666,8.00005493 C13.5000666,9.92982771 11.9380169,11.4954604 10.0082494,11.5000098 C8.07848195,11.5045199 6.50914791,9.94623754 6.49996053,8.01648626 C6.49093173,6.08673497 8.04548655,4.51370837 9.9752108,4.49997826 Z M9.98,5.499 L9.81824844,5.50644111 C8.51688013,5.6000626 7.49377061,6.68850661 7.49996057,8.01174585 C7.50652309,9.39016167 8.62749341,10.5032313 10.005897,10.5000098 C11.3843265,10.4967601 12.5000728,9.3784346 12.5000728,8.00358223 C12.4977224,7.33723927 12.2307624,6.69912214 11.7579219,6.22961146 C11.3323661,5.80705254 10.7714147,5.55221153 10.1777033,5.50717699 L9.98,5.499 Z" id="形状结合" fill="#252B3A" fill-rule="nonzero"></path>
    </g>
</svg>