<?xml version="1.0" encoding="UTF-8"?>
<svg width="16px" height="16px" viewBox="0 0 16 16" version="1.1" xmlns="http://www.w3.org/2000/svg" xmlns:xlink="http://www.w3.org/1999/xlink">
    <title>function icon/synchrony</title>
    <g id="页面-1" stroke="none" stroke-width="1" fill="none" fill-rule="evenodd">
        <g id="API-starter-图标入库" transform="translate(-692.000000, -124.000000)">
            <g id="方格备份-7" transform="translate(660.000000, 100.000000)">
                <text id="图标" font-family="PingFangSC-Regular, PingFang SC" font-size="12" font-weight="normal" line-spacing="16" fill="#71757F">
                    <tspan x="27.136" y="61">同步</tspan>
                </text>
            </g>
            <path d="M700,126 C702.272257,126 704.151162,127.68414 704.456566,129.872272 L704.456566,129.872272 L704.474,130.029 L704.591091,130.04337 C706.455654,130.319545 707.900831,131.88238 707.995105,133.80036 L707.995105,133.80036 L708,134 C708,136.127483 706.334732,137.879688 704.205514,137.994639 L704.205514,137.994639 L704,138 L695.986521,137.999818 L695.780967,137.994092 C693.665268,137.879688 692,136.127483 692,134 C692,132.009774 693.457326,130.347965 695.388495,130.047715 L695.388495,130.047715 L695.525,130.029 L695.547009,129.847167 C695.853738,127.734768 697.624196,126.107917 699.782878,126.005157 L699.782878,126.005157 Z M700,127 C698.132128,127 696.59561,128.467059 696.504745,130.312616 L696.504745,130.312616 L696.49985,130.512257 C696.493326,130.77832 696.279526,130.992643 696.013479,130.999818 L696.013479,130.999818 L695.834962,131.004449 C694.249102,131.090203 693,132.404515 693,134 C693,135.595485 694.249102,136.909797 695.821444,136.995003 L695.821444,136.995003 L696,137 L703.986521,137.000182 L704.165038,136.995551 C705.750898,136.909797 707,135.595485 707,134 C707,132.343146 705.656854,131 704,131 C703.723858,131 703.5,130.776142 703.5,130.5 C703.5,128.567003 701.932997,127 700,127 Z M703.001002,134 C703.277145,134 703.501002,134.223858 703.501002,134.5 C703.501002,134.74546 703.324127,134.949608 703.090878,134.991944 L703.001002,135 L698.208002,135 L698.854556,135.646447 C699.028122,135.820013 699.047407,136.089437 698.912411,136.284306 L698.854556,136.353553 C698.680989,136.52712 698.411565,136.546405 698.216697,136.411409 L698.147449,136.353553 L696.647449,134.853553 C696.353465,134.55957 696.528197,134.070816 696.91497,134.006955 L697.001002,134 L703.001002,134 Z M701.784306,130.588591 L701.853553,130.646447 L703.353553,132.146447 C703.647537,132.44043 703.472805,132.929184 703.086032,132.993045 L703,133 L697,133 C696.723858,133 696.5,132.776142 696.5,132.5 C696.5,132.25454 696.676875,132.050392 696.910124,132.008056 L697,132 L701.793,132 L701.146447,131.353553 C700.97288,131.179987 700.953595,130.910563 701.088591,130.715694 L701.146447,130.646447 C701.320013,130.47288 701.589437,130.453595 701.784306,130.588591 Z" id="形状结合" fill="#71757F" fill-rule="nonzero"></path>
        </g>
    </g>
</svg>