<?xml version="1.0" encoding="UTF-8"?>
<svg width="16px" height="16px" viewBox="0 0 16 16" version="1.1" xmlns="http://www.w3.org/2000/svg" xmlns:xlink="http://www.w3.org/1999/xlink">
    <title>系统文件夹</title>
    <g id="系统文件夹" stroke="none" stroke-width="1" fill="none" fill-rule="evenodd">
        <path d="M15.5,1.5 L15.5,14.5 L0.5,14.5 L0.5,1.5 L15.5,1.5 Z M14.5,6.5 L1.5,6.5 L1.5,13.5 L14.5,13.5 L14.5,6.5 Z M7.5,7.5 L7.5,9.5 L8.5,9.5 L8.5,7.5 L9.5,7.5 L9.5,9.5 L9,9.5 L9,10.5 L8.5,10.5 L8.5,12.5 L7.5,12.5 L7.5,10.5 L7,10.5 L7,9.5 L6.5,9.5 L6.5,7.5 L7.5,7.5 Z M4.5,7.5 L4.5,8 L5.5,8 L5.5,9 L4.5,9 L4.5,8.5 L3.5,8.5 L3.5,9.5 L4.5,9.5 L4.5,10 L5.5,10 L5.5,12 L4.5,12 L4.5,12.5 L3.5,12.5 L3.5,12 L2.5,12 L2.5,11 L3.5,11 L3.5,11.5 L4.5,11.5 L4.5,10.5 L3.5,10.5 L3.5,10 L2.5,10 L2.5,8 L3.5,8 L3.5,7.5 L4.5,7.5 Z M12.5,7.5 L12.5,8 L13.5,8 L13.5,9 L12.5,9 L12.5,8.5 L11.5,8.5 L11.5,9.5 L12.5,9.5 L12.5,10 L13.5,10 L13.5,12 L12.5,12 L12.5,12.5 L11.5,12.5 L11.5,12 L10.5,12 L10.5,11 L11.5,11 L11.5,11.5 L12.5,11.5 L12.5,10.5 L11.5,10.5 L11.5,10 L10.5,10 L10.5,8 L11.5,8 L11.5,7.5 L12.5,7.5 Z M14.5,2.5 L1.5,2.5 L1.5,5.5 L14.5,5.5 L14.5,2.5 Z M3.5,3.5 L3.5,4.5 L2.5,4.5 L2.5,3.5 L3.5,3.5 Z M5.5,3.5 L5.5,4.5 L4.5,4.5 L4.5,3.5 L5.5,3.5 Z M7.5,3.5 L7.5,4.5 L6.5,4.5 L6.5,3.5 L7.5,3.5 Z" id="形状结合" fill="#575D6C" fill-rule="nonzero"></path>
    </g>
</svg>