<?xml version="1.0" encoding="UTF-8"?>
<svg width="16px" height="16px" viewBox="0 0 16 16" version="1.1" xmlns="http://www.w3.org/2000/svg" xmlns:xlink="http://www.w3.org/1999/xlink">
    <title>function icon/application</title>
    <g id="图标入库记录" stroke="none" stroke-width="1" fill="none" fill-rule="evenodd">
        <g id="语言-图标入库记录230112" transform="translate(-332.000000, -500.000000)" fill="#71757F" fill-rule="nonzero">
            <g id="ic_square_lined-(1)-2" transform="translate(332.000000, 500.000000)">
                <path d="M6.08333333,8.41666667 C6.91147573,8.41666667 7.58333333,9.08852427 7.58333333,9.91666667 L7.58333333,9.91666667 L7.58333333,12.5006667 C7.58333333,13.3287851 6.91149987,14 6.08333333,14 L6.08333333,14 L3.49933333,14 C2.67119096,14 2,13.3288091 2,12.5006667 L2,12.5006667 L2,9.91666667 C2,9.08850013 2.67121487,8.41666667 3.49933333,8.41666667 L3.49933333,8.41666667 L6.08333333,8.41666667 Z M12.5,8.41666667 C13.3281424,8.41666667 14,9.08852427 14,9.91666667 L14,9.91666667 L14,12.5006667 C14,13.3287851 13.3281665,14 12.5,14 L12.5,14 L9.916,14 C9.0878576,14 8.41666667,13.3288091 8.41666667,12.5006667 L8.41666667,12.5006667 L8.41666667,9.91666667 C8.41666667,9.08850013 9.08788153,8.41666667 9.916,8.41666667 L9.916,8.41666667 L12.5,8.41666667 Z M3.49933333,9.41666667 C3.22370595,9.41666667 3,9.6405788 3,9.91666667 L3,12.5006667 C3,12.7765243 3.22347571,13 3.49933333,13 L6.08333333,13 C6.35942121,13 6.58333333,12.7762941 6.58333333,12.5006667 L6.58333333,9.91666667 C6.58333333,9.64080907 6.35919096,9.41666667 6.08333333,9.41666667 L3.49933333,9.41666667 Z M9.916,9.41666667 C9.6403726,9.41666667 9.41666667,9.6405788 9.41666667,9.91666667 L9.41666667,12.5006667 C9.41666667,12.7765243 9.6401424,13 9.916,13 L12.5,13 C12.7760879,13 13,12.7762941 13,12.5006667 L13,9.91666667 C13,9.64080907 12.7758576,9.41666667 12.5,9.41666667 L9.916,9.41666667 Z M6.08333333,2 C6.91147573,2 7.58333333,2.67185763 7.58333333,3.5 L7.58333333,6.084 C7.58333333,6.91211847 6.91149987,7.58333333 6.08333333,7.58333333 L3.49933333,7.58333333 C2.67119096,7.58333333 2,6.9121424 2,6.084 L2,3.5 C2,2.67183349 2.67121487,2 3.49933333,2 L6.08333333,2 Z M12.4996667,2 C12.9942584,2 13.4490638,2.24136957 13.7275505,2.63803323 C13.8862219,2.86403761 13.8316378,3.17587899 13.6056335,3.33455045 C13.4001749,3.47879724 13.1237767,3.44679975 12.9560083,3.26998947 L12.9091162,3.21263343 C12.8293372,3.09899989 12.7071069,3.02394623 12.5695795,3.00482137 L12.4996667,3 L9.91633333,3 C9.66285273,3 9.45394767,3.18778167 9.42089047,3.43207273 L9.41633333,3.5 L9.41633333,6.08333333 C9.41633333,6.33646117 9.60435173,6.54566019 9.84846527,6.57876887 L9.91633333,6.58333333 L12.4996667,6.58333333 C12.752889,6.58333333 12.9620093,6.3952283 12.9951042,6.15117976 L12.9996667,6.08333333 L12.9996667,4.59590657 C12.9996667,4.3197642 13.2235243,4.09590657 13.4996667,4.09590657 C13.7527972,4.09590657 13.961994,4.28400916 13.9951023,4.52805954 L13.9996667,4.59590657 L13.9996667,6.08333333 C13.9996667,6.87714113 13.3830789,7.52708813 12.6023892,7.57987227 L12.4996667,7.58333333 L9.91633333,7.58333333 C9.1222292,7.58333333 8.4725538,6.9664616 8.41979287,6.18602037 L8.41633333,6.08333333 L8.41633333,3.5 C8.41633333,2.70572467 9.032757,2.05620622 9.81359027,2.00345863 L9.91633333,2 L12.4996667,2 Z M3.49933333,3 C3.22370595,3 3,3.22391213 3,3.5 L3,6.084 C3,6.35985763 3.22347571,6.58333333 3.49933333,6.58333333 L6.08333333,6.58333333 C6.35942121,6.58333333 6.58333333,6.35962739 6.58333333,6.084 L6.58333333,3.5 C6.58333333,3.22414237 6.35919096,3 6.08333333,3 L3.49933333,3 Z" id="形状结合备份-2"></path>
            </g>
        </g>
    </g>
</svg>