<?xml version="1.0" encoding="UTF-8"?>
<svg width="16px" height="16px" viewBox="0 0 16 16" version="1.1" xmlns="http://www.w3.org/2000/svg" xmlns:xlink="http://www.w3.org/1999/xlink">
    <title>webhook-createtag</title>
    <g id="webhook-createtag" stroke="none" stroke-width="1" fill="none" fill-rule="evenodd">
        <path d="M9.13033324,2.15010056 C9.3236329,1.9568009 9.63703357,1.9568009 9.83033323,2.15010055 L9.83033323,2.15010055 L14.4603332,6.77010055 C14.8074131,7.1134645 15.0019852,7.58187876 15.0003802,8.07010055 C15.0038603,8.55576336 14.8087846,9.02177754 14.4603332,9.36010055 L14.4603332,9.36010055 L10.5903332,13.2301006 C10.4986601,13.3252416 10.3724513,13.3793311 10.2403332,13.3801006 C10.1051996,13.3797695 9.97572152,13.3258203 9.88033323,13.2301006 C9.68976179,13.0356788 9.68976179,12.7245223 9.88033323,12.5301006 L9.88033323,12.5301006 L13.7603332,8.65010055 C13.9131723,8.49563777 13.9993411,8.28739657 14.0003332,8.07010055 C13.9977896,7.85016677 13.9120373,7.63935889 13.7603332,7.48010055 L13.7603332,7.48010055 L9.13033323,2.85010055 C8.93703358,2.65680089 8.93703358,2.34340022 9.13033324,2.15010056 Z M6.31033323,2.00004896 C6.44591905,1.99813441 6.57625764,2.05244215 6.67033323,2.15010055 L6.67033323,2.15010055 L11.7503332,7.23010055 C11.9770043,7.4522144 12.105565,7.75566744 12.1074637,8.07301706 C12.1093206,8.39036669 11.9843599,8.69531986 11.7603332,8.92010055 L11.7603332,8.92010055 L7.90033323,12.7701006 C7.6808334,12.9919314 7.38239687,13.1177782 7.07033323,13.1201006 C6.75524094,13.1182429 6.453522,12.9925267 6.23033323,12.7701006 L6.23033323,12.7701006 L1.15033323,7.69010055 C1.04956823,7.58986838 0.995199706,7.45213477 1.00033323,7.31010055 L1.00033323,7.31010055 L1.00033323,2.50010055 C1.00033323,2.22395818 1.22419085,2.00004896 1.50033323,2.00004896 L1.50033323,2.00004896 Z M6.11033323,3.00010055 L2.00033323,3.00010055 L2.00033323,7.11010055 L6.94033323,12.0501006 C7.01343243,12.1186818 7.12723403,12.1186818 7.20033323,12.0501006 L7.20033323,12.0501006 L11.0503332,8.23010055 L11.0503332,8.20010055 C11.1189145,8.12700135 11.1189145,8.01319975 11.0503332,7.94010055 L11.0503332,7.94010055 L6.11033323,3.00010055 Z M3.84033323,4.84010055 C4.18228811,4.51442924 4.72160376,4.52100528 5.05551613,4.85491765 C5.3894285,5.18883003 5.39600454,5.72814567 5.07033323,6.07010055 C4.72629042,6.39899232 4.18437604,6.39899232 3.84033323,6.07010055 C3.50082089,5.7303863 3.50082089,5.1798148 3.84033323,4.84010055 Z" id="形状结合" fill="#252B3A" fill-rule="nonzero"></path>
    </g>
</svg>