<?xml version="1.0" encoding="UTF-8"?>
<svg width="16px" height="14px" viewBox="0 0 16 14" version="1.1" xmlns="http://www.w3.org/2000/svg" xmlns:xlink="http://www.w3.org/1999/xlink">
    <!-- Generator: Sketch 53 (72520) - https://sketchapp.com -->
    <title>标签</title>
    <desc>Created with Sketch.</desc>
    <g id="组件" stroke="none" stroke-width="1" fill="none" fill-rule="evenodd">
        <g id="释义图标/标签" transform="translate(0.000000, -1.000000)">
            <g id="标签">
                <mask id="mask-2" fill="white">
                    <use xlink:href="#path-1"></use>
                </mask>
                <g id="矩形"></g>
                <g id="分组-38" mask="url(#mask-2)" fill="#293040">
                    <g transform="translate(-3.000000, -1.000000)">
                        <circle id="椭圆形" cx="6" cy="6" r="1"></circle>
                        <path d="M7.98959236,1 L11.9895924,4.99332876 L12,15.0037364 L4,15.0037364 L4,4.99332876 L7.98959236,1 Z M7.98959236,2.49332876 L5,5.43876524 L5,14.0037364 L11,14.0037364 L10.9895924,5.43876524 L7.98959236,2.49332876 Z" id="合并形状" transform="translate(8.000000, 8.001868) rotate(-45.000000) translate(-8.000000, -8.001868) "></path>
                        <path d="M11,3.8538911 L11,2.83146409 L11.4732048,2.83106916 L18.5589912,9.90213697 L14,14.4611282 L14,13.0469146 L17.1447777,9.90213697 L11.0810692,3.85314709 L11,3.8538911 Z M6.84644568,8 L5.82348492,8 L6.84644568,8 Z" id="合并形状"></path>
                    </g>
                </g>
            </g>
        </g>
    </g>
</svg>