<svg width="16.000000" height="16.000000" viewBox="0 0 16 16" fill="none" xmlns="http://www.w3.org/2000/svg" xmlns:xlink="http://www.w3.org/1999/xlink">
	<desc>
			Created with Pixso.
	</desc>
	<defs/>
	<path id="矢量 12" d="M13 1.5C14.1046 1.5 15 2.39545 15 3.5L15 12.5C15 13.6046 14.1046 14.5 13 14.5L3 14.5C1.89539 14.5 1 13.6046 1 12.5L1 3.5C1 2.39545 1.89539 1.5 3 1.5L13 1.5ZM13 2.5L3 2.5C2.48718 2.5 2.06445 2.88605 2.00671 3.38336L2 3.5L2 12.5C2 13.0128 2.38599 13.4355 2.88342 13.4933L3 13.5L13 13.5C13.5128 13.5 13.9355 13.114 13.9933 12.6166L14 12.5L14 3.5C14 2.98718 13.614 2.56451 13.1166 2.50671L13 2.5ZM3.37158 4.94989C3.55396 4.78564 3.8241 4.78052 4.0116 4.92554L4.54541 5.50745L5.66077 4.50342C5.84326 4.33917 6.11328 4.33405 6.30078 4.479C6.46509 4.66144 6.53638 4.99292 6.39136 5.18042L4.84363 6.58484C4.66125 6.74908 4.39124 6.75421 4.20361 6.60925L3.33459 5.65607C3.14978 5.45087 3.16638 5.1347 3.37158 4.94989ZM8 5.5L12.5 5.5C12.7761 5.5 13 5.72388 13 6C13 6.27612 12.7761 6.5 12.5 6.5L8 6.5C7.72388 6.5 7.5 6.27612 7.5 6C7.5 5.72388 7.72388 5.5 8 5.5ZM4.547 8.5C3.71863 8.5 3.047 9.17157 3.047 10C3.047 10.8284 3.71863 11.5 4.547 11.5C5.37549 11.5 6.047 10.8284 6.047 10C6.047 9.17157 5.37549 8.5 4.547 8.5ZM4.547 9.5C4.82312 9.5 5.047 9.72388 5.047 10C5.047 10.2761 4.82312 10.5 4.547 10.5C4.27087 10.5 4.047 10.2761 4.047 10C4.047 9.72388 4.27087 9.5 4.547 9.5ZM12.5 9.5L8 9.5C7.72388 9.5 7.5 9.72388 7.5 10C7.5 10.2761 7.72388 10.5 8 10.5L12.5 10.5C12.7761 10.5 13 10.2761 13 10C13 9.72388 12.7761 9.5 12.5 9.5Z" fill-rule="evenodd" fill="#252B3A"/>
</svg>
