<?xml version="1.0" encoding="UTF-8"?>
<svg width="16px" height="16px" viewBox="0 0 16 16" version="1.1" xmlns="http://www.w3.org/2000/svg" xmlns:xlink="http://www.w3.org/1999/xlink">
    <title>task-parameters</title>
    <g id="task-parameters" stroke="none" stroke-width="1" fill="none" fill-rule="evenodd">
        <path d="M12,1 C13.0543618,1 13.9181651,1.81587779 13.9945143,2.85073766 L14,3 L14,7.5 C14,7.77614237 13.7761424,8 13.5,8 C13.2545401,8 13.0503916,7.82312484 13.0080557,7.58987563 L13,7.5 L13,3 C13,2.48716416 12.6139598,2.06449284 12.1166211,2.00672773 L12,2 L4,2 C3.48716416,2 3.06449284,2.38604019 3.00672773,2.88337887 L3,3 L3,13 C3,13.5128358 3.38604019,13.9355072 3.88337887,13.9932723 L4,14 L8,14 C8.27614237,14 8.5,14.2238576 8.5,14.5 C8.5,14.7454599 8.32312484,14.9496084 8.08987563,14.9919443 L8,15 L4,15 C2.9456382,15 2.08183488,14.1841222 2.00548574,13.1492623 L2,13 L2,3 C2,1.9456382 2.81587779,1.08183488 3.85073766,1.00548574 L4,1 L12,1 Z M12,12.5 C12.3700877,12.5 12.6932197,12.7010412 12.8661429,12.9998705 L14.5,13 C14.7761424,13 15,13.2238576 15,13.5 C15,13.7761424 14.7761424,14 14.5,14 L12.8655723,14.0011143 C12.6925095,14.2994004 12.369681,14.5 12,14.5 C11.4477153,14.5 11,14.0522847 11,13.5 C11,12.9477153 11.4477153,12.5 12,12.5 Z M10,13 C10.2761424,13 10.5,13.2238576 10.5,13.5 C10.5,13.7761424 10.2761424,14 10,14 L9.5,14 C9.22385763,14 9,13.7761424 9,13.5 C9,13.2238576 9.22385763,13 9.5,13 L10,13 Z M12,9.5 C12.5522847,9.5 13,9.94771525 13,10.5 C13,11.0522847 12.5522847,11.5 12,11.5 C11.630319,11.5 11.3074905,11.2994004 11.1344277,11.0011143 L8.5,11 C8.22385763,11 8,10.7761424 8,10.5 C8,10.2238576 8.22385763,10 8.5,10 L11.1338571,9.9998705 C11.3067803,9.70104123 11.6299123,9.5 12,9.5 Z M14.5,10 C14.7761424,10 15,10.2238576 15,10.5 C15,10.7761424 14.7761424,11 14.5,11 L14,11 C13.7238576,11 13.5,10.7761424 13.5,10.5 C13.5,10.2238576 13.7238576,10 14,10 L14.5,10 Z M8.5,7 C8.77614237,7 9,7.22385763 9,7.5 C9,7.77614237 8.77614237,8 8.5,8 L5.5,8 C5.22385763,8 5,7.77614237 5,7.5 C5,7.22385763 5.22385763,7 5.5,7 L8.5,7 Z M10.5,4 C10.7761424,4 11,4.22385763 11,4.5 C11,4.77614237 10.7761424,5 10.5,5 L5.5,5 C5.22385763,5 5,4.77614237 5,4.5 C5,4.22385763 5.22385763,4 5.5,4 L10.5,4 Z" id="形状结合" fill="#71757F" fill-rule="nonzero"></path>
    </g>
</svg>