<?xml version="1.0" encoding="UTF-8"?>
<svg width="16px" height="16px" viewBox="0 0 16 16" version="1.1" xmlns="http://www.w3.org/2000/svg" xmlns:xlink="http://www.w3.org/1999/xlink">
    <!-- Generator: Sketch 63.1 (92452) - https://sketch.com -->
    <title>function icon/text</title>
    <desc>Created with Sketch.</desc>
    <g id="DevUI风格图标汇总-220907" stroke="none" stroke-width="1" fill="none" fill-rule="evenodd">
        <g id="API-starter-图标入库记录-220919" transform="translate(-812.000000, -124.000000)" fill="#71757F">
            <g id="编组-13" transform="translate(812.000000, 124.000000)">
                <path d="M14.5,13 C14.7761424,13 15,13.2238576 15,13.5 C15,13.7761424 14.7761424,14 14.5,14 L1.5,14 C1.22385763,14 1,13.7761424 1,13.5 C1,13.2238576 1.22385763,13 1.5,13 L14.5,13 Z M14.5,9 C14.7761424,9 15,9.22385763 15,9.5 C15,9.77614237 14.7761424,10 14.5,10 L9.5,10 C9.22385763,10 9,9.77614237 9,9.5 C9,9.22385763 9.22385763,9 9.5,9 L14.5,9 Z M8.5,2 C8.77614237,2 9,2.22385763 9,2.5 C9,2.77614237 8.77614237,3 8.5,3 L5.5,3 L5.5,9.5 C5.5,9.77614237 5.27614237,10 5,10 C4.72385763,10 4.5,9.77614237 4.5,9.5 L4.5,3 L1.5,3 C1.22385763,3 1,2.77614237 1,2.5 C1,2.22385763 1.22385763,2 1.5,2 L8.5,2 Z M14.5,5 C14.7761424,5 15,5.22385763 15,5.5 C15,5.77614237 14.7761424,6 14.5,6 L11.5,6 C11.2238576,6 11,5.77614237 11,5.5 C11,5.22385763 11.2238576,5 11.5,5 L14.5,5 Z" id="形状结合"></path>
            </g>
        </g>
    </g>
</svg>