<?xml version="1.0" encoding="UTF-8"?>
<svg width="16px" height="16px" viewBox="0 0 16 16" version="1.1" xmlns="http://www.w3.org/2000/svg" xmlns:xlink="http://www.w3.org/1999/xlink">
    <title>icon icon-theme</title>
    <g id="icon-icon-theme" stroke="none" stroke-width="1" fill="none" fill-rule="evenodd">
        <g transform="translate(1.000000, 1.140627)" fill="#71757F" fill-rule="nonzero" id="形状结合">
            <path d="M11.2002188,1.58109129 C13.2330625,3.22304441 13.8499063,5.49652879 13.8779532,5.59476316 L13.8779532,5.62284129 C14.172375,7.22268504 13.9340469,8.40152879 13.1629532,9.15935691 C11.9853282,10.2961069 10.0366094,9.93123191 9.77023442,9.87509129 C9.40573442,9.83298191 9.13935942,9.94524754 8.94307817,10.1838413 C8.73279692,10.4504663 8.69073442,10.80131 8.76082817,11.0118257 C8.95710942,11.6012475 8.98514067,12.0503257 8.84495317,12.3871382 C8.4384063,13.2712632 7.61125005,13.7343725 6.36350005,13.7343725 C6.0690938,13.7343725 5.76067192,13.70631 5.42420317,13.6642163 L5.34007817,13.6501694 C2.95675005,13.2852944 1.33048442,10.9697007 1.26039067,10.8714663 C-1.03881245,7.36301316 0.110796924,3.81245066 2.28382817,1.84771629 C4.44281255,-0.117018088 8.0458438,-0.959049338 11.2002188,1.58109129 Z M3.07598442,2.71071629 C1.42129692,4.22134129 0.203437549,7.09681004 2.24201567,10.2108257 C2.25526567,10.2108257 3.64520317,12.1984819 5.55142192,12.4767632 L5.6308438,12.4900132 C6.91489067,12.6887632 7.6959063,12.4369975 8.01360942,11.7214507 C8.01360942,11.708185 8.07979692,11.535935 7.90770317,11.0058882 C7.73562505,10.5288569 7.86800005,9.90604441 8.21217192,9.48201316 C8.5695938,9.03148191 9.0990938,8.83270066 9.72125005,8.89896629 L9.7609688,8.91221629 C9.77420317,8.91221629 11.4156563,9.26999754 12.262875,8.44841941 C12.779125,7.94488816 12.9379844,7.07031004 12.7129532,5.85121629 C12.7011823,5.81293504 12.6639185,5.69089376 12.5950598,5.50981329 L12.5154436,5.30996869 C12.2285444,4.62060704 11.6044248,3.42184534 10.4493282,2.49868504 C7.85475005,0.378528787 4.87629692,1.08082566 3.07598442,2.71071629 Z M3.01562505,6.28124754 C3.48160942,6.28124754 3.85937505,6.65901316 3.85937505,7.12499754 C3.85937505,7.59098191 3.48160942,7.96874754 3.01562505,7.96874754 C2.54964067,7.96874754 2.17187505,7.59098191 2.17187505,7.12499754 C2.17187505,6.65901316 2.54964067,6.28124754 3.01562505,6.28124754 Z M9.61169658,3.91853007 C10.716268,3.91853007 11.6116966,4.81396058 11.6116966,5.91853007 C11.6116966,6.63306567 11.2305119,7.29330973 10.6116966,7.65058431 C9.99288125,8.00784533 9.23051191,8.00784533 8.61169658,7.65058431 C7.99288125,7.29330973 7.61169658,6.63306567 7.61169658,5.91853007 C7.61169658,4.81396058 8.50712515,3.91853007 9.61169658,3.91853007 Z M9.61169658,4.91853007 C9.05941072,4.91853007 8.61169658,5.36624451 8.61169658,5.91853007 C8.61169658,6.27580566 8.80228728,6.60592067 9.1116838,6.78455153 C9.42110455,6.96318959 9.80228861,6.96318959 10.1116966,6.78455974 C10.4211059,6.60592067 10.6116966,6.27580566 10.6116966,5.91853007 C10.6116966,5.36624451 10.1639824,4.91853007 9.61169658,4.91853007 Z M4.00000005,3.74999754 C4.46598442,3.74999754 4.84375005,4.12776316 4.84375005,4.59374754 C4.84375005,4.89518934 4.68292931,5.17373211 4.42187253,5.32445211 C4.16081575,5.47517212 3.83918131,5.47517156 3.57812505,5.32445066 C3.31706969,5.17373028 3.15625005,4.8951883 3.15625005,4.59374754 C3.15625005,4.12776316 3.53401567,3.74999754 4.00000005,3.74999754 Z M6.51562505,2.35937254 C6.98160942,2.35937254 7.35937505,2.73713816 7.35937505,3.20312254 C7.35937505,3.66910691 6.98160942,4.04687254 6.51562505,4.04687254 C6.04964067,4.04687254 5.67187505,3.66910691 5.67187505,3.20312254 C5.67187505,2.73713816 6.04964067,2.35937254 6.51562505,2.35937254 Z"></path>
        </g>
    </g>
</svg>