<?xml version="1.0" encoding="UTF-8"?>
<svg width="16px" height="16px" viewBox="0 0 24 24" version="1.1" xmlns="http://www.w3.org/2000/svg" xmlns:xlink="http://www.w3.org/1999/xlink">
    <title>理论实践@1x</title>
    <g id="理论实践" stroke="none" stroke-width="1" fill="none" fill-rule="evenodd">
        <path d="M20.7673088,3.44694205 L21.1059243,3.53301419 L21.4469595,3.62578638 L21.6152601,3.68112426 C22.3880843,3.97353951 22.9289197,4.7223041 22.9935053,5.59079484 L23,5.7659896 L21.2150693,20.826749 L21.2093831,20.9455576 C21.2018161,21.024407 21.1867257,21.1023422 21.1642868,21.1781536 C20.9813552,21.7962017 20.3608016,22.1398995 19.7782494,21.9457979 L19.6207753,21.8952388 L19.2144968,21.7775813 L19.0941292,21.7237411 L18.388231,21.37988 L18.388231,21.37988 L18.1080591,21.255788 L17.7942624,21.1284578 C16.5828676,20.6611425 14.7072123,20.2192594 12.3195348,20.8009167 L12,20.8841132 C9.31243016,20.1394009 7.24161189,20.6978379 5.99283762,21.2134822 L5.70902015,21.3357261 L5.34386068,21.5069662 L4.90202833,21.7255746 L4.78550318,21.7775813 L4.37922469,21.8952388 C4.3300161,21.9103641 4.27752474,21.9272172 4.2217506,21.9457979 C3.63919838,22.1398995 3.01864481,21.7962017 2.83571316,21.1781536 C2.81327428,21.1023422 2.79818393,21.024407 2.7906169,20.9455576 L2.78493071,20.826749 L1,5.7659896 C1,4.8241676 1.5603941,3.99303386 2.3847399,3.68112426 L2.55304049,3.62578638 C6.08957207,2.63324111 9.23855857,2.68045451 12,4.80173017 L12.2684461,4.60288541 C14.7852345,2.80678344 17.6181888,2.67551699 20.7673088,3.44694205 Z M3.41744763,5.11916711 L3.07455934,5.21189568 L2.97560681,5.2427263 C2.83097774,5.29744993 2.70949819,5.45640675 2.67774136,5.66047179 L2.674,5.702 L4.381,20.116 L4.77401533,19.9302939 C4.9100865,19.8670027 5.0550614,19.8010342 5.19356619,19.7404439 L5.49776847,19.6126174 C7.25142609,18.9156443 9.15103044,18.6457776 11.2498885,19.0062054 L11.25,6.331 L10.9828745,6.1258073 C8.95740916,4.56989154 6.58886858,4.29301922 3.41744763,5.11916711 Z M13.4813913,5.79410216 L13.2622531,5.94455313 L12.75,6.323 L12.7507889,19.0071943 C14.7321905,18.6683186 16.5275936,18.887735 18.1889331,19.4932647 L18.5022315,19.6126174 L18.7910718,19.7337342 C18.8421846,19.7560234 18.8942629,19.7790913 18.9465259,19.8025286 L19.4007869,20.0123884 L19.618,20.116 L21.326,5.698 L21.3145693,5.61881627 C21.2813407,5.46515823 21.2015402,5.34392157 21.1330298,5.29071154 L21.0937413,5.26723356 L21.00869,5.23688678 L20.6808805,5.14765421 C17.659267,4.35223351 15.3939574,4.53188396 13.4813913,5.79410216 Z M8.66128629,10.5619256 C9.05826226,10.6801752 9.28421467,11.097848 9.16596512,11.494824 C9.04771557,11.8917999 8.63004277,12.1177523 8.2330668,11.9995028 C7.311601,11.7250204 6.37468352,11.7711913 5.67515079,11.9950345 C5.2806426,12.121273 4.85849399,11.9037975 4.73225548,11.5092893 C4.60601698,11.1147811 4.82349253,10.6926325 5.21800072,10.566394 C6.1883684,10.2558864 7.42868673,10.194764 8.66128629,10.5619256 Z M8.66128629,7.56192565 C9.05826226,7.68017519 9.28421467,8.097848 9.16596512,8.49482397 C9.04771557,8.89179994 8.63004277,9.11775235 8.2330668,8.9995028 C7.311601,8.72502041 6.37468352,8.77119133 5.67515079,8.9950345 C5.2806426,9.121273 4.85849399,8.90379745 4.73225548,8.50928926 C4.60601698,8.11478106 4.82349253,7.69263246 5.21800072,7.56639395 C6.1883684,7.25588642 7.42868673,7.19476403 8.66128629,7.56192565 Z M18.6612863,7.56192565 C19.0582623,7.68017519 19.2842147,8.097848 19.1659651,8.49482397 C19.0477156,8.89179994 18.6300428,9.11775235 18.2330668,8.9995028 C17.311601,8.72502041 16.3746835,8.77119133 15.6751508,8.9950345 C15.2806426,9.121273 14.858494,8.90379745 14.7322555,8.50928926 C14.606017,8.11478106 14.8234925,7.69263246 15.2180007,7.56639395 C16.1883684,7.25588642 17.4286867,7.19476403 18.6612863,7.56192565 Z" id="形状" fill="#252B3A" fill-rule="nonzero"></path>
    </g>
</svg>