<?xml version="1.0" encoding="UTF-8"?>
<svg width="16px" height="16px" viewBox="0 0 16 16" version="1.1" xmlns="http://www.w3.org/2000/svg" xmlns:xlink="http://www.w3.org/1999/xlink">
    <title>timegap时间间隔</title>
    <g id="timegap时间间隔" stroke="none" stroke-width="1" fill="none" fill-rule="evenodd">
        <path d="M8.00041919,2.86001887 C10.840785,2.86001887 13.1449039,5.15965843 13.1504192,8.00001887 C13.1504192,10.8374596 10.8511861,13.1381715 8.01374604,13.1400092 C5.17630595,13.1418446 2.87410193,10.8441109 2.87041909,8.00667257 C2.86674509,5.16923426 5.16298387,2.86553918 8.00041919,2.86001887 Z M8.01374447,3.86003092 C5.72858956,3.85819682 3.87410213,5.70821561 3.87041907,7.9933683 C3.86674697,10.278521 5.7152702,12.1344992 8.00041919,12.1400189 C10.2885013,12.1400189 12.1449057,10.2880944 12.1504192,8.00001887 C12.1504192,5.71486322 10.2988994,3.86186774 8.01374447,3.86003092 Z M13.2504192,4.17001887 C13.4859861,4.02889132 13.7910034,4.09961997 13.9404192,4.33001887 C15.3289264,6.57007215 15.3520707,9.39753591 14.0004192,11.6600189 C13.9106147,11.8114636 13.7464617,11.9030838 13.5704192,11.9000934 C13.4821665,11.9006203 13.3955276,11.8763614 13.3204192,11.8300189 C13.2043251,11.7654914 13.1201582,11.6557437 13.0879442,11.5268876 C13.0557302,11.3980315 13.0783491,11.2615874 13.1504192,11.1500189 C14.3030919,9.20571501 14.279972,6.78198035 13.0904192,4.86001887 C13.0171213,4.74812655 12.9927528,4.61113276 13.0229685,4.4808274 C13.0531842,4.35052204 13.1353573,4.23823354 13.2504192,4.17001887 Z M2.52164534,4.05588651 C2.71422054,4.05597359 2.88963002,4.16664862 2.97261449,4.34042661 C3.05559896,4.51420461 3.0314074,4.72019542 2.91041919,4.87001887 C1.75374813,6.7389692 1.7115461,9.09077329 2.80041919,11.0000189 C2.87926891,11.1174508 2.90469029,11.2627854 2.87038412,11.4000101 C2.83607795,11.5372348 2.74525454,11.6535082 2.62041919,11.7200189 C2.54274268,11.7587969 2.45723444,11.7793189 2.37041919,11.7800204 C2.18983529,11.7804618 2.0224813,11.6853743 1.93041919,11.5300189 C0.648330174,9.29073295 0.702130577,6.52769799 2.07041919,4.34001887 C2.1535607,4.16631596 2.32907015,4.05579952 2.52164534,4.05588651 Z M7.13845886,5.09882104 C7.21607838,5.07079177 7.30291928,5.09082267 7.36041919,5.15001887 L7.36041919,5.15001887 L8.57041919,7.83001887 C8.68326546,8.01914153 8.66995567,8.25784368 8.53678371,8.43324862 C8.40361175,8.60865355 8.17726401,8.68561178 7.96477509,8.62773155 C7.75228617,8.56985131 7.59623683,8.38873126 7.57041919,8.17001887 L7.57041919,8.17001887 L7.00041919,5.28001887 C7.00683199,5.19774308 7.06083934,5.12685031 7.13845886,5.09882104 Z" id="形状结合" fill="#252B3A" fill-rule="nonzero"></path>
    </g>
</svg>