<?xml version="1.0" encoding="UTF-8"?>
<svg width="16px" height="16px" viewBox="0 0 16 16" version="1.1" xmlns="http://www.w3.org/2000/svg" xmlns:xlink="http://www.w3.org/1999/xlink">
    <title>function icon/token</title>
    <g id="图标入库记录" stroke="none" stroke-width="1" fill="none" fill-rule="evenodd">
        <g id="DevUI图标入库-2023.09" transform="translate(-872.000000, -120.000000)" fill="#71757F" fill-rule="nonzero">
            <g id="line" transform="translate(872.000000, 120.000000)">
                <path d="M7.7226499,0.583974853 C7.86260799,0.490669461 8.03787933,0.475118562 8.1896085,0.537322157 L8.2773501,0.583974853 L8.36517407,0.642524166 C9.96674911,1.71024086 11.8168708,2.3399329 13.7243435,2.47308748 L14.106546,2.49308056 L14.5086958,2.50007562 C14.7607579,2.50446003 14.9647225,2.69422192 14.9958871,2.93522072 L14.9992302,3.02773501 L14.7567542,7.39230266 C14.593013,10.3396448 12.9130923,12.9833976 10.332224,14.3872238 L10.0711568,14.5234386 L8.2236068,15.4472136 C8.1109958,15.5035191 7.9824345,15.5147802 7.86344337,15.4809969 L7.7763932,15.4472136 L5.92884324,14.5234386 C3.28859527,13.2033146 1.52878734,10.6120527 1.26465107,7.68599023 L1.2432458,7.39230266 L1.00076982,3.02773501 C0.984847572,2.74113448 1.21295752,2.5 1.5,2.5 C3.55502496,2.5 5.56677441,1.92749195 7.31097785,0.850379505 L7.63482593,0.642524166 L7.7226499,0.583974853 Z M7.999,1.596 L7.85619728,1.68896941 C6.28615562,2.66272262 4.51630141,3.26088921 2.68464723,3.44168234 L2.29125429,3.47402013 L2.028,3.487 L2.24170616,7.33683264 C2.38070353,9.83878532 3.75794235,12.0928011 5.89003045,13.3631926 L6.13001095,13.500262 L6.37605684,13.6290114 L7.999,14.44 L9.62394316,13.6290114 C11.8652084,12.5083788 13.3874312,10.3496264 13.7072194,7.88844185 L13.7377786,7.61376969 L13.7582938,7.33683264 L13.971,3.486 L13.686594,3.4725436 C11.8521548,3.34855097 10.0714014,2.80673143 8.4803447,1.89019296 L8.14235706,1.68807207 L7.999,1.596 Z M8,4 C8.27614237,4 8.5,4.22385763 8.5,4.5 L8.5,5 L9.5,5 C9.77614237,5 10,5.22385763 10,5.5 C10,5.77614237 9.77614237,6 9.5,6 L8.5,6 L8.50102216,8.06327212 C9.36311708,8.28564881 10,9.06844842 10,10 C10,11.1045695 9.1045695,12 8,12 C6.8954305,12 6,11.1045695 6,10 C6,9.06808721 6.63737692,8.28504178 7.49998077,8.06301369 L7.5,4.5 C7.5,4.22385763 7.72385763,4 8,4 Z M8,9 C7.44771525,9 7,9.44771525 7,10 C7,10.5522847 7.44771525,11 8,11 C8.55228475,11 9,10.5522847 9,10 C9,9.44771525 8.55228475,9 8,9 Z" id="形状"></path>
            </g>
        </g>
    </g>
</svg>