<?xml version="1.0" encoding="UTF-8"?>
<svg width="16px" height="16px" viewBox="0 0 16 16" version="1.1" xmlns="http://www.w3.org/2000/svg" xmlns:xlink="http://www.w3.org/1999/xlink">
    <title>function icon/treatment</title>
    <g id="图标入库记录" stroke="none" stroke-width="1" fill="none" fill-rule="evenodd">
        <g id="语言-图标入库记录230112" transform="translate(-332.000000, -120.000000)" fill="#71757F" fill-rule="nonzero">
            <g id="编组-13备份" transform="translate(332.000000, 120.000000)">
                <path d="M6.58578644,1.63603897 C7.36683502,0.854990386 8.63316498,0.854990386 9.41421356,1.63603897 L9.41421356,1.63603897 L14.363961,6.58578644 C15.1450096,7.36683502 15.1450096,8.63316498 14.363961,9.41421356 L14.363961,9.41421356 L9.41421356,14.363961 C8.63316498,15.1450096 7.36683502,15.1450096 6.58578644,14.363961 L6.58578644,14.363961 L1.63603897,9.41421356 C0.854990386,8.63316498 0.854990386,7.36683502 1.63603897,6.58578644 L1.63603897,6.58578644 Z M8.70710678,2.34314575 C8.31658249,1.95262146 7.68341751,1.95262146 7.29289322,2.34314575 L7.29289322,2.34314575 L2.34314575,7.29289322 C1.95262146,7.68341751 1.95262146,8.31658249 2.34314575,8.70710678 L2.34314575,8.70710678 L7.29289322,13.6568542 C7.68341751,14.0473785 8.31658249,14.0473785 8.70710678,13.6568542 L8.70710678,13.6568542 L13.6568542,8.70710678 C14.0473785,8.31658249 14.0473785,7.68341751 13.6568542,7.29289322 L13.6568542,7.29289322 Z M9,5 C9.27614237,5 9.5,5.22385763 9.5,5.5 L9.5,5.5 L9.5,6.499 L10.5003333,6.5 C10.7456775,6.50016367 10.9496526,6.67701438 10.9919515,6.91016471 L10.9919515,6.91016471 L11,7 L11,9 C11,9.27627256 10.7759392,9.50018407 10.4996667,9.5 L10.4996667,9.5 L9.5,9.498 L9.5,10.5 C9.5,10.7454599 9.32312484,10.9496084 9.08987563,10.9919443 L9.08987563,10.9919443 L9,11 L7,11 C6.72385763,11 6.5,10.7761424 6.5,10.5 L6.5,10.5 L6.5,9.498 L5.50033333,9.5 C5.25475778,9.50016361 5.05043589,9.32326406 5.00806282,9.08991598 L5.00806282,9.08991598 L5,9 L5,7 C5,6.72398779 5.22365452,6.50018412 5.49966667,6.5 L5.49966667,6.5 L6.5,6.499 L6.5,5.5 C6.5,5.25454011 6.67687516,5.05039163 6.91012437,5.00805567 L6.91012437,5.00805567 L7,5 Z M8.5,6 L7.5,6 L7.5,6.999 C7.5,7.24434419 7.32328532,7.44843718 7.09016324,7.49089147 L7.09016324,7.49089147 L7.00033333,7.49899989 L6,7.499 L6,8.5 L6.99966667,8.49900011 C7.24524222,8.49883639 7.44956411,8.67573594 7.49193718,8.90908402 L7.49193718,8.90908402 L7.5,8.999 L7.5,10 L8.5,10 L8.5,8.999 C8.5,8.75342439 8.67703572,8.54922048 8.910412,8.50700298 L8.910412,8.50700298 L9.00033333,8.49900011 L10,8.5 L10,7.499 L8.99966667,7.49899989 C8.75432254,7.49883633 8.55034739,7.32198562 8.50804853,7.08883529 L8.50804853,7.08883529 L8.5,6.999 L8.5,6 Z" id="形状结合"></path>
            </g>
        </g>
    </g>
</svg>