<?xml version="1.0" encoding="UTF-8"?>
<svg width="16px" height="16px" viewBox="0 0 16 16" version="1.1" xmlns="http://www.w3.org/2000/svg" xmlns:xlink="http://www.w3.org/1999/xlink">
    <title>close</title>
    <g id="close" stroke="none" stroke-width="1" fill="none" fill-rule="evenodd">
        <g id="ipd_close" transform="translate(1.000000, 1.000000)" fill="#71757F">
            <path d="M12,0 C13.1045695,0 14,0.8954305 14,2 L14,12 C14,13.1045695 13.1045695,14 12,14 L2,14 C0.8954305,14 0,13.1045695 0,12 L0,2 C0,0.8954305 0.8954305,0 2,0 L12,0 Z M12,1 L2,1 C1.48716416,1 1.06449284,1.38604019 1.00672773,1.88337887 L1,2 L1,12 C1,12.5128358 1.38604019,12.9355072 1.88337887,12.9932723 L2,13 L12,13 C12.5128358,13 12.9355072,12.6139598 12.9932723,12.1166211 L13,12 L13,2 C13,1.48716416 12.6139598,1.06449284 12.1166211,1.00672773 L12,1 Z M10.5,6.5 C10.7761424,6.5 11,6.72385763 11,7 C11,7.27614237 10.7761424,7.5 10.5,7.5 L3.5,7.5 C3.22385763,7.5 3,7.27614237 3,7 C3,6.72385763 3.22385763,6.5 3.5,6.5 L10.5,6.5 Z" id="形状结合"></path>
        </g>
    </g>
</svg>