<?xml version="1.0" encoding="UTF-8"?>
<svg width="16px" height="16px" viewBox="0 0 16 16" version="1.1" xmlns="http://www.w3.org/2000/svg" xmlns:xlink="http://www.w3.org/1999/xlink">
    <title>function icon/start</title>
    <g id="页面-1" stroke="none" stroke-width="1" fill="none" fill-rule="evenodd">
        <g id="API-starter-图标入库" transform="translate(-492.000000, -824.000000)">
            <g id="方格备份-23" transform="translate(460.000000, 800.000000)">
                <text id="图标" font-family="PingFangSC-Regular, PingFang SC" font-size="12" font-weight="normal" line-spacing="16" fill="#71757F">
                    <tspan x="27.136" y="61">触发</tspan>
                </text>
            </g>
            <path d="M500,825 C503.865993,825 507,828.134007 507,832 C507,835.865993 503.865993,839 500,839 C496.134007,839 493,835.865993 493,832 C493,828.134007 496.134007,825 500,825 Z M500,826 C496.686292,826 494,828.686292 494,832 C494,835.313708 496.686292,838 500,838 C503.313708,838 506,835.313708 506,832 C506,828.686292 503.313708,826 500,826 Z M499,829.402124 C499.18742,829.402124 499.371067,829.454793 499.529999,829.554126 L499.529999,829.554126 L502.086601,831.152002 C502.554937,831.444712 502.697311,832.061662 502.4046,832.529999 C502.324119,832.658768 502.21537,832.767518 502.086601,832.847998 L502.086601,832.847998 L499.529999,834.445874 C499.061662,834.738585 498.444712,834.596212 498.152002,834.127875 C498.052669,833.968944 498,833.785296 498,833.597876 L498,833.597876 L498,830.402124 C498,829.849839 498.447715,829.402124 499,829.402124 Z M499,830.402124 L499,833.597876 L501.555,831.999 L499,830.402124 Z" id="形状结合" fill="#71757F" fill-rule="nonzero"></path>
        </g>
    </g>
</svg>