<?xml version="1.0" encoding="UTF-8"?>
<svg width="16px" height="16px" viewBox="0 0 16 16" version="1.1" xmlns="http://www.w3.org/2000/svg" xmlns:xlink="http://www.w3.org/1999/xlink">
    <title>trigger</title>
    <g id="trigger" stroke="none" stroke-width="1" fill="none" fill-rule="evenodd">
        <path d="M7.24156389,8.64009206 C7.59554156,8.21616017 8.22616187,8.15945107 8.65009376,8.51342874 C8.69651945,8.5521936 8.73933258,8.59509038 8.77800673,8.64159165 L8.77800673,8.64159165 L12.7026814,13.3605663 C13.0558309,13.7851884 12.9978909,14.4156968 12.5732688,14.7688462 C12.3936657,14.9182185 12.167436,15 11.9338351,15 L11.9338351,15 L4.06887738,15 C3.51659263,15 3.06887738,14.5522847 3.06887738,14 C3.06887738,13.7657284 3.15112832,13.5388928 3.30128079,13.3590667 L3.30128079,13.3590667 Z M8.00916048,9.28102534 L4.06887738,14 L11.9338351,14 L8.00916048,9.28102534 Z M8,1 C11.8659932,1 15,4.13400675 15,8 C15,9.37487321 14.6023822,10.6920182 13.8671184,11.819356 C13.7162645,12.0506517 13.406471,12.1158626 13.1751753,11.9650087 C12.9438796,11.8141547 12.8786687,11.5043612 13.0295226,11.2730656 C13.6595974,10.3070081 14,9.17939351 14,8 C14,4.6862915 11.3137085,2 8,2 C4.6862915,2 2,4.6862915 2,8 C2,9.18280912 2.34238396,10.3135167 2.97588783,11.2813462 C3.12712233,11.5123932 3.06242148,11.8222936 2.83137444,11.9735281 C2.60032739,12.1247626 2.29042697,12.0600618 2.13919247,11.8290147 C1.3999323,10.6996172 1,9.37885872 1,8 C1,4.13400675 4.13400675,1 8,1 Z M8,4 C10.209139,4 12,5.790861 12,8 C12,8.45548093 11.9236509,8.90123588 11.7758962,9.32296605 C11.6845903,9.58357659 11.3993057,9.72082516 11.1386952,9.62951931 C10.8780847,9.53821345 10.7408361,9.25292885 10.8321419,8.99231831 C10.9427934,8.67649041 11,8.34249667 11,8 C11,6.34314575 9.65685425,5 8,5 C6.34314575,5 5,6.34314575 5,8 C5,8.34810686 5.05909745,8.68741878 5.1733179,9.00776558 C5.26605842,9.26786903 5.13038397,9.55390559 4.87028052,9.64664612 C4.61017707,9.73938665 4.3241405,9.60371219 4.23139998,9.34360874 C4.07887752,8.91583874 4,8.46295824 4,8 C4,5.790861 5.790861,4 8,4 Z" id="形状结合" fill="#71757F" fill-rule="nonzero"></path>
    </g>
</svg>