<?xml version="1.0" encoding="UTF-8"?>
<svg width="16px" height="16px" viewBox="0 0 16 16" version="1.1" xmlns="http://www.w3.org/2000/svg" xmlns:xlink="http://www.w3.org/1999/xlink">
    <title>开启</title>
    <g id="资源库" stroke="none" stroke-width="1" fill="none" fill-rule="evenodd">
        <g id="画板" transform="translate(-619.000000, -1446.000000)" fill="#71757F" fill-rule="nonzero">
            <g id="编组备份" transform="translate(619.000000, 1446.000000)">
                <path d="M8,1 C11.8659932,1 15,4.13400675 15,8 C15,11.8659932 11.8659932,15 8,15 C4.13400675,15 1,11.8659932 1,8 C1,4.13400675 4.13400675,1 8,1 Z M8,2 C4.6862915,2 2,4.6862915 2,8 C2,11.3137085 4.6862915,14 8,14 C11.3137085,14 14,11.3137085 14,8 C14,4.6862915 11.3137085,2 8,2 Z M7,5.40212382 C7.18741972,5.40212382 7.37106734,5.45479327 7.52999894,5.55412552 L7.52999894,5.55412552 L10.0866008,7.1520017 C10.5549374,7.44471203 10.6973105,8.06166241 10.4046002,8.52999894 C10.3241195,8.65876807 10.21537,8.7675176 10.0866008,8.8479983 L10.0866008,8.8479983 L7.52999894,10.4458745 C7.06166241,10.7385848 6.44471203,10.5962117 6.1520017,10.1278751 C6.05266944,9.96894352 6,9.7852959 6,9.59787618 L6,9.59787618 L6,6.40212382 C6,5.84983907 6.44771525,5.40212382 7,5.40212382 Z M7,6.40212382 L7,9.59787618 L9.555,7.999 L7,6.40212382 Z" id="形状结合"></path>
            </g>
        </g>
    </g>
</svg>