<?xml version="1.0" encoding="UTF-8"?>
<svg width="16px" height="16px" viewBox="0 0 16 16" version="1.1" xmlns="http://www.w3.org/2000/svg" xmlns:xlink="http://www.w3.org/1999/xlink">
    <title>function icon/unbinding</title>
    <g id="图标入库记录" stroke="none" stroke-width="1" fill="none" fill-rule="evenodd">
        <g id="DevUI图标入库-2023.08" transform="translate(-632.000000, -120.000000)" fill="#71757F" fill-rule="nonzero">
            <g id="编组-13备份" transform="translate(632.000000, 120.000000)">
                <path d="M10.5,12 C10.7454599,12 10.9496084,12.1768752 10.9919443,12.4101244 L11,12.5 L11,14.5 C11,14.7761424 10.7761424,15 10.5,15 C10.2545401,15 10.0503916,14.8231248 10.0080557,14.5898756 L10,14.5 L10,12.5 C10,12.2238576 10.2238576,12 10.5,12 Z M11.7843055,11.0885912 L11.8535534,11.1464466 L13.8535534,13.1464466 C14.0488155,13.3417088 14.0488155,13.6582912 13.8535534,13.8535534 C13.679987,14.0271197 13.4105626,14.0464049 13.2156945,13.9114088 L13.1464466,13.8535534 L11.1464466,11.8535534 C10.9511845,11.6582912 10.9511845,11.3417088 11.1464466,11.1464466 C11.320013,10.9728803 11.5894374,10.9535951 11.7843055,11.0885912 Z M5.52512627,6.93933983 C5.69869262,7.11290618 5.71797777,7.38233058 5.58298172,7.57719872 L5.52512627,7.64644661 L3.75735931,9.41421356 C2.97631073,10.1952621 2.97631073,11.4615921 3.75735931,12.2426407 C4.50290569,12.9881871 5.6906196,13.0220755 6.47636302,12.3443061 L6.58578644,12.2426407 L8.35355339,10.4748737 C8.54881554,10.2796116 8.86539803,10.2796116 9.06066017,10.4748737 C9.23422652,10.6484401 9.25351167,10.9178645 9.11851562,11.1127326 L9.06066017,11.1819805 L7.29289322,12.9497475 C6.12132034,14.1213203 4.22182541,14.1213203 3.05025253,12.9497475 C1.92052154,11.8200165 1.88017401,10.0134294 2.92920993,8.83535154 L3.05025253,8.70710678 L4.81801948,6.93933983 C5.01328163,6.74407768 5.32986412,6.74407768 5.52512627,6.93933983 Z M14.5,10 C14.7761424,10 15,10.2238576 15,10.5 C15,10.7454599 14.8231248,10.9496084 14.5898756,10.9919443 L14.5,11 L12.5,11 C12.2238576,11 12,10.7761424 12,10.5 C12,10.2545401 12.1768752,10.0503916 12.4101244,10.0080557 L12.5,10 L14.5,10 Z M12.9497475,3.05025253 C14.0794785,4.17998352 14.119826,5.98657061 13.0707901,7.16464846 L12.9497475,7.29289322 L11.1819805,9.06066017 C10.9867184,9.25592232 10.6701359,9.25592232 10.4748737,9.06066017 C10.3013074,8.88709382 10.2820222,8.61766942 10.4170183,8.42280128 L10.4748737,8.35355339 L12.2426407,6.58578644 C13.0236893,5.80473785 13.0236893,4.5384079 12.2426407,3.75735931 C11.4970943,3.01181294 10.3093804,2.97792447 9.52363698,3.6556939 L9.41421356,3.75735931 L7.64644661,5.52512627 C7.45118446,5.72038841 7.13460197,5.72038841 6.93933983,5.52512627 C6.76577348,5.35155991 6.74648833,5.08213551 6.88148438,4.88726737 L6.93933983,4.81801948 L8.70710678,3.05025253 C9.87867966,1.87867966 11.7781746,1.87867966 12.9497475,3.05025253 Z M3.5,5 C3.77614237,5 4,5.22385763 4,5.5 C4,5.74545989 3.82312484,5.94960837 3.58987563,5.99194433 L3.5,6 L1.5,6 C1.22385763,6 1,5.77614237 1,5.5 C1,5.25454011 1.17687516,5.05039163 1.41012437,5.00805567 L1.5,5 L3.5,5 Z M2.7843055,2.08859116 L2.85355339,2.14644661 L4.85355339,4.14644661 C5.04881554,4.34170876 5.04881554,4.65829124 4.85355339,4.85355339 C4.67998704,5.02711974 4.41056264,5.04640489 4.2156945,4.91140884 L4.14644661,4.85355339 L2.14644661,2.85355339 C1.95118446,2.65829124 1.95118446,2.34170876 2.14644661,2.14644661 C2.32001296,1.97288026 2.58943736,1.95359511 2.7843055,2.08859116 Z M5.5,1 C5.74545989,1 5.94960837,1.17687516 5.99194433,1.41012437 L6,1.5 L6,3.5 C6,3.77614237 5.77614237,4 5.5,4 C5.25454011,4 5.05039163,3.82312484 5.00805567,3.58987563 L5,3.5 L5,1.5 C5,1.22385763 5.22385763,1 5.5,1 Z" id="形状结合"></path>
            </g>
        </g>
    </g>
</svg>