<?xml version="1.0" encoding="UTF-8"?>
<svg width="16px" height="16px" viewBox="0 0 16 16" version="1.1" xmlns="http://www.w3.org/2000/svg" xmlns:xlink="http://www.w3.org/1999/xlink">
    <title>撤销删除</title>
    <g id="撤销删除" stroke="none" stroke-width="1" fill="none" fill-rule="evenodd">
        <path d="M9.26533333,1.33333333 C9.88273788,1.33333333 10.4327138,1.71015205 10.6586397,2.27623275 L10.6971407,2.384545 L11.0333333,3.45933333 L14.1666667,3.46 C14.442809,3.46 14.6666667,3.68385763 14.6666667,3.96 C14.6666667,4.21313051 14.4773837,4.42232731 14.2333333,4.45543559 L14.1666667,4.46 L10.6666667,4.46 L10.6083333,4.45533333 L10.5634762,4.44933966 L10.5634762,4.44933966 L10.5193836,4.43786405 L10.5193836,4.43786405 C10.5037834,4.43315346 10.4884976,4.42760488 10.4735792,4.42135379 C10.4639108,4.41716946 10.4544543,4.41285331 10.4451416,4.40824931 C10.4295673,4.4006727 10.4142439,4.39205371 10.3994465,4.3826791 C10.3882046,4.37551007 10.3773555,4.36804254 10.3668046,4.36014968 C10.3535985,4.35022736 10.3409069,4.33968314 10.3287672,4.32854694 L10.3045575,4.30494735 L10.3045575,4.30494735 C10.2926087,4.29225976 10.2810809,4.27882444 10.2702806,4.26479983 C10.2631488,4.25572099 10.2562304,4.24604156 10.2496429,4.23608082 C10.2399209,4.221253 10.2311715,4.20643332 10.223189,4.19114961 C10.2203192,4.18561276 10.2171776,4.1792684 10.2141619,4.17283581 L10.2044589,4.15103656 L10.1931384,4.12095661 L10.1931384,4.12095661 L10.189526,4.109455 L9.74284146,2.68339788 C9.68485013,2.49818068 9.52579359,2.36564429 9.33727078,2.33847839 L9.26533333,2.33333333 L6.73533333,2.33333333 C6.54022368,2.33333333 6.36630039,2.44507515 6.28412214,2.61662488 L6.25774366,2.68365809 L5.81041032,4.10965809 L5.80633333,4.12033333 L5.80442755,4.12794791 L5.79762198,4.14592736 L5.79762198,4.14592736 L5.79033333,4.16033333 L5.76718286,4.20875793 L5.76718286,4.20875793 C5.76185515,4.21799159 5.75620174,4.22713623 5.75026831,4.23607896 C5.73953404,4.25244418 5.72783407,4.26802934 5.71533221,4.28281058 C5.70897421,4.29014295 5.70248105,4.29738255 5.69578465,4.30442714 L5.65549201,4.34246125 L5.65549201,4.34246125 C5.64615134,4.35028384 5.63619458,4.35807177 5.62594578,4.36548068 C5.61362512,4.37433843 5.60117133,4.38248434 5.58838744,4.39006033 C5.57370716,4.39887612 5.55837831,4.40695217 5.54260589,4.41423089 C5.53247323,4.4187779 5.52209247,4.42315204 5.51156858,4.42717507 C5.49775796,4.43256574 5.4837381,4.43721515 5.46945884,4.44124615 C5.4532878,4.44576485 5.43680765,4.44956051 5.42012291,4.45251498 C5.41416569,4.45354318 5.40769295,4.45455208 5.40118037,4.45543559 L5.37885331,4.45805449 L5.3446749,4.46000733 L5.3446749,4.46000733 L5.33333333,4.46 L3.55133333,4.45933333 L4.36285193,12.7666667 C4.41076542,13.2458016 4.79191908,13.6153541 5.26271728,13.66 L5.358,13.6666667 L10.6426667,13.6666667 C11.124604,13.6666667 11.5326367,13.3241512 11.6238635,12.86 L11.6378129,12.7666667 L12.3358129,5.57706695 C12.3632797,5.30229398 12.6082934,5.10181272 12.8830664,5.12927952 C13.1349416,5.15445743 13.3243912,5.36243519 13.3330605,5.60856846 L13.3308538,5.67653305 L12.6328562,12.8666667 C12.5345978,13.8501055 11.7354558,14.6098679 10.7604748,14.6666667 L5.358,14.6666667 C4.37001063,14.6666667 3.53648013,13.9442033 3.38294107,12.98 L3.36781398,12.8666667 L2.54633333,4.45933333 L1.83333333,4.46 C1.55719096,4.46 1.33333333,4.23614237 1.33333333,3.96 C1.33333333,3.70686949 1.52261629,3.49767269 1.76666667,3.46456441 L1.83333333,3.46 L2.93369509,3.45921048 L2.95025573,3.45728065 L2.95025573,3.45728065 C2.98775392,3.4535314 3.02469797,3.4540275 3.06061059,3.4583784 L4.96533333,3.45933333 L5.30350813,2.38460212 C5.48799519,1.79537302 6.0120327,1.38405334 6.62034876,1.33770164 L6.73533333,1.33333333 L9.26533333,1.33333333 Z M7.83258179,6.57049098 L7.8366561,6.63438539 L7.83572133,7.50119422 L7.95279913,7.51275684 C9.53520647,7.69460818 10.5535427,8.64436945 10.9444579,10.292975 L10.9826566,10.4660105 L11.0163636,10.6440148 L11.0409423,10.795754 C11.1167506,11.3011425 10.442047,11.5433495 10.1791178,11.1051341 C9.76915346,10.4218602 9.06531271,10.0243574 8.04147498,9.90859344 L7.83572133,9.8897361 L7.83665611,10.7191081 C7.83665611,11.062171 7.4886832,11.2707167 7.1970434,11.1532881 L7.13958634,11.1253993 L7.08435027,11.0884775 L7.03986063,11.0491516 L4.99748323,9.00677419 C4.83177597,8.84106692 4.81671167,8.58176212 4.95229034,8.39903712 L4.99748323,8.34668719 L7.03986063,6.3043098 C7.31842233,6.0257481 7.78431238,6.19799209 7.83258179,6.57049098 Z M6.90214484,7.76125745 L5.98750499,8.67652852 L6.90214484,9.59116837 L6.90315213,9.40615119 C6.90315213,9.19322981 7.04652156,9.01100055 7.24859762,8.9558595 L7.31089698,8.94322622 L7.36990412,8.9393992 C8.12505714,8.9393992 8.78413752,9.04822981 9.34374345,9.26645412 L9.53496941,9.3475169 L9.4620457,9.2518718 C9.05312584,8.75162905 8.46593067,8.47945636 7.67959312,8.42452169 L7.50803651,8.4160711 L7.36990412,8.41406218 C7.13360579,8.41406218 6.93831974,8.23846767 6.90741308,8.01071318 L6.9031522,7.94739783 L6.90214484,7.76125745 Z" id="形状结合" fill="#7A7E87" fill-rule="nonzero"></path>
    </g>
</svg>