<?xml version="1.0" encoding="UTF-8"?>
<svg width="16px" height="16px" viewBox="0 0 16 16" version="1.1" xmlns="http://www.w3.org/2000/svg" xmlns:xlink="http://www.w3.org/1999/xlink">
    <!-- Generator: Sketch 63.1 (92452) - https://sketch.com -->
    <title>function icon/unlock</title>
    <desc>Created with Sketch.</desc>
    <g id="DevUI风格图标汇总-220907" stroke="none" stroke-width="1" fill="none" fill-rule="evenodd">
        <g id="API-starter-图标入库记录-220919" transform="translate(-92.000000, -304.000000)" fill="#71757F" fill-rule="nonzero">
            <g id="project/收藏" transform="translate(92.000000, 304.000000)">
                <path d="M8,1 C11.8659932,1 15,4.13400675 15,8 C15,8.27614237 14.7761424,8.5 14.5,8.5 C14.2238576,8.5 14,8.27614237 14,8 C14,4.6862915 11.3137085,2 8,2 C6.52295209,2 5.17056123,2.53372027 4.12516271,3.41882553 L9.06066017,8.35355339 C9.25592232,8.54881554 9.25592232,8.86539803 9.06066017,9.06066017 C8.88709382,9.23422652 8.61766942,9.25351167 8.42280128,9.11851562 L8.35355339,9.06066017 L3.41882553,4.12516271 C2.53372027,5.17056123 2,6.52295209 2,8 C2,11.3137085 4.6862915,14 8,14 C8.27614237,14 8.5,14.2238576 8.5,14.5 C8.5,14.7761424 8.27614237,15 8,15 C4.13400675,15 1,11.8659932 1,8 C1,4.13400675 4.13400675,1 8,1 Z M10.7843055,10.0885912 L10.8535534,10.1464466 L12.5,11.793 L14.1464466,10.1464466 L14.2156945,10.0885912 C14.4105626,9.95359511 14.679987,9.97288026 14.8535534,10.1464466 C15.0488155,10.3417088 15.0488155,10.6582912 14.8535534,10.8535534 L14.8535534,10.8535534 L13.207,12.5 L14.8535534,14.1464466 C15.0488155,14.3417088 15.0488155,14.6582912 14.8535534,14.8535534 C14.679987,15.0271197 14.4105626,15.0464049 14.2156945,14.9114088 L14.1464466,14.8535534 L12.5,13.207 L10.8535534,14.8535534 L10.7843055,14.9114088 C10.5894374,15.0464049 10.320013,15.0271197 10.1464466,14.8535534 C9.95118446,14.6582912 9.95118446,14.3417088 10.1464466,14.1464466 L10.1464466,14.1464466 L11.793,12.5 L10.1464466,10.8535534 C9.95118446,10.6582912 9.95118446,10.3417088 10.1464466,10.1464466 C10.320013,9.97288026 10.5894374,9.95359511 10.7843055,10.0885912 Z" id="形状结合"></path>
            </g>
        </g>
    </g>
</svg>