<?xml version="1.0" encoding="UTF-8"?>
<svg width="16px" height="16px" viewBox="0 0 16 16" version="1.1" xmlns="http://www.w3.org/2000/svg" xmlns:xlink="http://www.w3.org/1999/xlink">
    <title>unpublish</title>
    <g id="unpublish" stroke="none" stroke-width="1" fill="none" fill-rule="evenodd">
        <path d="M15.0003529,1.49271809 L14.9942573,1.57702812 L14.1461405,7.0897877 C14.1041511,7.36271901 13.8488574,7.54993439 13.575926,7.50794495 C13.3333204,7.47062102 13.158441,7.26476037 13.1520645,7.02778597 L13.1577688,6.93773051 L13.8580715,2.38199953 L2.86007149,7.88099953 L7.52,9.25 L10.4362768,6.15799309 C10.625714,5.95707482 10.9421597,5.9477676 11.1430779,6.13720482 C11.3216719,6.30559346 11.3488696,6.57433444 11.2196608,6.77308711 L11.1638662,6.84400596 L8.596,9.567 L9.16291801,9.73360011 C9.39840375,9.80286063 9.54434855,10.0301524 9.51914914,10.2658694 L9.50151759,10.354366 C9.43225708,10.5898518 9.20496533,10.7357966 8.9692483,10.7105972 L8.88075168,10.6929656 L8,10.433 L8.00007149,12.6949995 L8.59050857,11.7117791 C8.71679664,11.501299 8.97349937,11.4172446 9.19529059,11.5009475 L9.27650291,11.5402805 C9.48698303,11.6665686 9.57103739,11.9232713 9.48733445,12.1450625 L9.4480015,12.2262748 L7.92881796,14.7582474 C7.6842179,15.1659142 7.08196188,15.0288125 7.00763534,14.5922353 L7.00007149,14.5009982 L7,10.139 L1.35898833,8.48068228 C0.954448786,8.36170006 0.879824407,7.83958166 1.19642924,7.60299963 L1.2764647,7.55378593 L14.2764647,1.05378593 C14.6134835,0.885276552 14.9967257,1.13506038 15.0003529,1.49271809 Z M11.284377,8.58959072 L11.3536249,8.64744612 L13.0002701,10.2941485 L14.6465181,8.64744612 L14.715766,8.58959072 C14.9106341,8.45459463 15.1800585,8.47387978 15.3536249,8.64744612 C15.5271912,8.82101252 15.5464764,9.09043685 15.4114803,9.28530502 L15.3536249,9.35455292 L13.7072701,11.0011485 L15.3536249,12.6474461 C15.548887,12.8427083 15.548887,13.1592907 15.3536249,13.3545529 C15.1800585,13.5281192 14.9106341,13.5474044 14.715766,13.4124083 L14.6465181,13.3545529 L13.0002701,11.7081485 L11.3536249,13.3545529 L11.284377,13.4124083 C11.0895089,13.5474044 10.8200845,13.5281192 10.6465181,13.3545529 C10.4729518,13.1809865 10.4536666,12.9115622 10.5886626,12.716694 L10.6465181,12.6474461 L12.2932701,11.0011485 L10.6465181,9.35455292 C10.451256,9.15929072 10.451256,8.84270832 10.6465181,8.64744612 C10.8200845,8.47387978 11.0895089,8.45459463 11.284377,8.58959072 Z" fill="#71757F" fill-rule="nonzero"></path>
    </g>
</svg>