<?xml version="1.0" encoding="UTF-8"?>
<svg width="16px" height="16px" viewBox="0 0 16 16" version="1.1" xmlns="http://www.w3.org/2000/svg" xmlns:xlink="http://www.w3.org/1999/xlink">
    <title>Unselected未选择</title>
    <g id="Unselected未选择" stroke="none" stroke-width="1" fill="none" fill-rule="evenodd">
        <path d="M3.02068278,3.02068278 C5.74740922,0.326439074 10.1339563,0.326439074 12.8606828,3.02068278 C15.5549265,5.74740922 15.5549265,10.1339563 12.8606828,12.8606828 C10.1339563,15.5549265 5.74740922,15.5549265 3.02068278,12.8606828 C0.326439074,10.1339563 0.326439074,5.74740922 3.02068278,3.02068278 Z M9.06180521,2.10095313 C6.2512452,1.56649729 3.45429339,3.09074049 2.38000593,5.74230551 C1.30571846,8.39387052 2.25296528,11.4350841 4.64293843,13.0076359 C7.03291158,14.5801876 10.2007134,14.2465889 12.2106828,12.2106828 C13.3326046,11.0742836 13.9552264,9.53752343 13.9406828,7.94068278 C13.9146273,5.07987665 11.8723652,2.63540897 9.06180521,2.10095313 Z M11.3406828,7.38068278 C11.6499622,7.38068278 11.9006828,7.63140332 11.9006828,7.94068278 C11.9006828,8.24996224 11.6499622,8.50068278 11.3406828,8.50068278 L4.54068278,8.50068278 C4.23140332,8.50068278 3.98068278,8.24996224 3.98068278,7.94068278 C3.98068278,7.63140332 4.23140332,7.38068278 4.54068278,7.38068278 L11.3406828,7.38068278 Z" id="形状结合" fill="#252B3A"></path>
    </g>
</svg>