<?xml version="1.0" encoding="UTF-8"?>
<svg width="16px" height="16px" viewBox="0 0 16 16" version="1.1" xmlns="http://www.w3.org/2000/svg" xmlns:xlink="http://www.w3.org/1999/xlink">
    <title>unsubscribe </title>
    <g id="unsubscribe-" stroke="none" stroke-width="1" fill="none" fill-rule="evenodd">
        <path d="M4.69276763,14.6889141 C4.54064356,14.9193765 4.23049602,14.9828822 4.0000337,14.8307581 C3.79517831,14.6955367 3.72223925,14.4354572 3.81540125,14.2174702 L3.85818975,14.1380242 L12.3821405,1.22455501 C12.5342646,0.994092695 12.8444121,0.930586995 13.0748744,1.08271106 C13.2797298,1.21793245 13.3526689,1.4780119 13.2595069,1.69599899 L13.2167184,1.77544499 L12.3342173,3.11363893 C13.0283568,4.00057953 13.4371727,5.0814441 13.4933274,6.22723898 L13.5,6.5 L13.5,10.1038244 C13.5,11.0096978 13.8026342,11.6550355 14.4148364,12.0935048 C14.7853263,12.3588557 14.6324947,12.923398 14.2114149,12.9929292 L14.1236979,13 L10,13 L10,13 C10,14.0111154 9.07578362,14.9134691 8,14.9134691 C6.92421638,14.9134691 6,14.0111154 6,13 L5.80642818,12.9999448 L4.69276763,14.6889141 Z M9,13 L7,13 C7,13.4534017 7.47121412,13.9134691 8,13.9134691 C8.49101546,13.9134691 8.93238996,13.5167784 8.99293828,13.0970894 L9,13 Z M8,1 C8.93232373,1 9.83211714,1.23265069 10.633144,1.67020313 C10.8754882,1.80258106 10.9646334,2.10635335 10.8322555,2.34869751 C10.6998775,2.59104167 10.3961053,2.68018692 10.1537611,2.54780898 C9.58071107,2.23478647 8.94626464,2.0501371 8.28495997,2.00886574 L8,2 L7.919798,2.00074237 C5.52732409,2.04503675 3.62375484,4.0204272 3.66806836,6.41289703 L3.68258262,7.61311803 L3.68080301,8.39300357 L3.67340507,8.85659992 L3.65275027,9.46876869 L3.63246815,9.82213544 L3.60686395,10.132296 C3.60214773,10.1804171 3.59720575,10.2267589 3.59203599,10.2713322 L3.55826824,10.5176324 C3.5521794,10.5551734 3.54585878,10.5909667 3.53930438,10.6250231 L3.49715655,10.8086018 C3.489659,10.8357524 3.48192366,10.8611871 3.47394852,10.8849164 C3.35242229,11.2465069 3.19495394,11.5798945 3.00190839,11.884179 L2.922,12 L3.4905087,12 C3.73596859,12 3.94011707,12.1768752 3.98245303,12.4101244 L3.9905087,12.5 C3.9905087,12.7454599 3.81363354,12.9496084 3.58038434,12.9919443 L3.4905087,13 L1.79542129,13 C1.32545941,13 1.11509695,12.410429 1.47891046,12.112933 C1.96403882,11.7162358 2.31170029,11.2041225 2.52605148,10.5663396 C2.53733476,10.5327672 2.54805676,10.4913688 2.55820142,10.4422287 L2.58688738,10.2716678 L2.61201314,10.0551631 L2.63348245,9.79322067 L2.65119908,9.48634666 L2.66506681,9.13504718 L2.6784412,8.52590733 L2.68261425,7.81965709 L2.67726117,7.01800462 L2.66823978,6.43141192 C2.61506207,3.56036832 4.84097335,1.17731827 7.68159349,1.00942993 L7.90128712,1.00091371 L8,1 Z M11.746079,4.00545451 L6.46642818,11.9999448 L12.983,11.999 C12.6962926,11.5266482 12.5376858,10.973096 12.5059512,10.34348 L12.5,10.1038244 L12.5,6.50000109 C12.499998,5.59612461 12.2329296,4.73464458 11.746079,4.00545451 Z" id="形状结合" fill="#333333" fill-rule="nonzero"></path>
    </g>
</svg>