<?xml version="1.0" encoding="UTF-8"?>
<svg width="16px" height="16px" viewBox="0 0 16 16" version="1.1" xmlns="http://www.w3.org/2000/svg" xmlns:xlink="http://www.w3.org/1999/xlink">
    <title>update</title>
    <g id="update" stroke="none" stroke-width="1" fill="none" fill-rule="evenodd">
        <path d="M13,1 C14.1045695,1 15,1.8954305 15,3 L15,13 C15,14.1045695 14.1045695,15 13,15 L3,15 C1.8954305,15 1,14.1045695 1,13 L1,3 C1,1.8954305 1.8954305,1 3,1 L13,1 Z M13,2 L3,2 C2.48716416,2 2.06449284,2.38604019 2.00672773,2.88337887 L2,3 L2,13 C2,13.5128358 2.38604019,13.9355072 2.88337887,13.9932723 L3,14 L13,14 C13.5128358,14 13.9355072,13.6139598 13.9932723,13.1166211 L14,13 L14,3 C14,2.48716416 13.6139598,2.06449284 13.1166211,2.00672773 L13,2 Z M10.5,12 C10.7761424,12 11,12.2238576 11,12.5 C11,12.7761424 10.7761424,13 10.5,13 L10.5,13 L5.5,13 C5.22385763,13 5,12.7761424 5,12.5 C5,12.2238576 5.22385763,12 5.5,12 L5.5,12 L10.5,12 Z M7.24964101,3.39536416 C7.61471809,2.98095233 8.24661871,2.94095862 8.66103054,3.30603571 C8.67654618,3.32029622 8.68688994,3.32980323 8.69537028,3.3378652 L8.69537028,3.3378652 L8.75035899,3.39536416 L11.7825217,6.83727861 C12.0380757,7.1273669 12.0100801,7.56969733 11.7199918,7.8252513 C11.5921558,7.93786877 11.427637,8 11.2572704,8 L11.2572704,8 L9.999,7.999 L10,10.3 C10,10.6543827 9.73665638,10.9472582 9.39498585,10.9936098 L9.39498585,10.9936098 L9.3,11 L6.7,11 C6.31340068,11 6,10.6865993 6,10.3 L6,10.3 L6,7.999 L4.74272957,8 C4.38834685,8 4.09547133,7.73665638 4.04911974,7.39498585 L4.04911974,7.39498585 L4.04272956,7.3 C4.04272956,7.12963347 4.10486079,6.96511467 4.21747827,6.83727861 L4.21747827,6.83727861 L7.24964101,3.39536416 Z M8,4.0563947 L5.407,6.999 L6.3,7 C6.65438271,7 6.94725823,7.26334362 6.99360983,7.60501415 L6.99360983,7.60501415 L7,7.7 L7,9.999 L8.999,9.999 L9,7.7 C9,7.34561729 9.26334362,7.05274177 9.60501415,7.00639017 L9.60501415,7.00639017 L9.7,7 L10.592,6.999 L8,4.0563947 Z" id="形状结合" fill="#71757F" fill-rule="nonzero"></path>
    </g>
</svg>