<?xml version="1.0" encoding="UTF-8"?>
<svg width="16px" height="16px" viewBox="0 0 16 16" version="1.1" xmlns="http://www.w3.org/2000/svg" xmlns:xlink="http://www.w3.org/1999/xlink">
    <title>上传文件夹</title>
    <g id="上传文件夹" stroke="none" stroke-width="1" fill="none" fill-rule="evenodd">
        <path d="M6,1.75 C6.09871249,1.75 6.19521634,1.77921901 6.2773501,1.83397485 L6.2773501,1.83397485 L7.652,2.75 L13,2.75 C14.0543618,2.75 14.9181651,3.56587779 14.9945143,4.60073766 L14.9945143,4.60073766 L15,4.75 L15,12.25 C15,13.3545695 14.1045695,14.25 13,14.25 L13,14.25 L3,14.25 C1.8954305,14.25 1,13.3545695 1,12.25 L1,12.25 L1,3.75 C1,2.6454305 1.8954305,1.75 3,1.75 L3,1.75 Z M14,5.75 L2,5.75 L2,12.25 C2,12.7628358 2.38604019,13.1855072 2.88337887,13.2432723 L3,13.25 L13,13.25 C13.5522847,13.25 14,12.8022847 14,12.25 L14,12.25 L14,5.75 Z M7.7112284,6.83859116 C7.90609654,6.70359511 8.17552094,6.72288026 8.3490873,6.89644661 L8.3490873,6.89644661 L10.4704076,9.01776695 L10.5282631,9.08701484 C10.6632591,9.28188298 10.643974,9.55130738 10.4704076,9.72487373 L10.4704076,9.72487373 L10.4011598,9.78272918 C10.2062916,9.91772524 9.93686721,9.89844009 9.76330086,9.72487373 L9.76330086,9.72487373 L8.5,8.462 L8.5,11.75 L8.49194433,11.8398756 C8.44960837,12.0731248 8.24545989,12.25 8,12.25 C7.72385763,12.25 7.5,12.0261424 7.5,11.75 L7.5,11.75 L7.5,8.451 L6.22776695,9.72487373 L6.15851907,9.78272918 C5.96365092,9.91772524 5.69422652,9.89844009 5.52066017,9.72487373 C5.32539803,9.52961159 5.32539803,9.2130291 5.52066017,9.01776695 L5.52066017,9.01776695 L7.64198052,6.89644661 Z M5.848,2.75 L3,2.75 C2.44771525,2.75 2,3.19771525 2,3.75 L2,3.75 L2,4.75 L14,4.75 C14,4.23716416 13.6139598,3.81449284 13.1166211,3.75672773 L13,3.75 L7.5,3.75 C7.40128751,3.75 7.30478366,3.72078099 7.2226499,3.66602515 L7.2226499,3.66602515 L5.848,2.75 Z" id="形状结合" fill="#7A7E87" fill-rule="nonzero"></path>
    </g>
</svg>