<?xml version="1.0" encoding="UTF-8"?>
<svg width="16px" height="16px" viewBox="0 0 16 16" version="1.1" xmlns="http://www.w3.org/2000/svg" xmlns:xlink="http://www.w3.org/1999/xlink">
    <title>use-report</title>
    <g id="use-report" stroke="none" stroke-width="1" fill="none" fill-rule="evenodd">
        <path d="M12,8.5 C13.9326885,8.5 15.5,10.0675887 15.5,12.0005307 C15.5,13.933325 13.9328363,15.5 12,15.5 C10.0673115,15.5 8.5,13.9324113 8.5,11.9994693 C8.5,10.066675 10.0671637,8.5 12,8.5 Z M12,1 C13.0543618,1 13.9181651,1.81587779 13.9945143,2.85073766 L14,3 L14,7.5 C14,7.77614237 13.7761424,8 13.5,8 C13.2545401,8 13.0503916,7.82312484 13.0080557,7.58987563 L13,7.5 L13,3 C13,2.48716416 12.6139598,2.06449284 12.1166211,2.00672773 L12,2 L4,2 C3.48716416,2 3.06449284,2.38604019 3.00672773,2.88337887 L3,3 L3,13 C3,13.5128358 3.38604019,13.9355072 3.88337887,13.9932723 L4,14 L8,14 C8.27614237,14 8.5,14.2238576 8.5,14.5 C8.5,14.7454599 8.32312484,14.9496084 8.08987563,14.9919443 L8,15 L4,15 C2.9456382,15 2.08183488,14.1841222 2.00548574,13.1492623 L2,13 L2,3 C2,1.9456382 2.81587779,1.08183488 3.85073766,1.00548574 L4,1 L12,1 Z M12,9.5 C10.6193787,9.5 9.5,10.6190296 9.5,11.9994693 C9.5,13.3801661 10.6196358,14.5 12,14.5 C13.3806213,14.5 14.5,13.3809704 14.5,12.0005307 C14.5,10.6198339 13.3803642,9.5 12,9.5 Z M12.8086582,10.8793004 C13.0035263,10.7443043 13.2729507,10.7635895 13.4465171,10.9371558 C13.6417792,11.132418 13.6417792,11.4490005 13.4465171,11.6442626 L13.4465171,11.6442626 L12.0323035,13.0584762 C11.8370414,13.2537383 11.5521171,13.2853966 11.3959074,13.1291869 L11.3959074,13.1291869 L11.333682,13.0655473 L11.3251968,13.0584762 L11.3251968,13.0584762 L10.5473793,12.2806587 L10.5022342,12.2241212 C10.4002245,12.0622394 10.4445236,11.817829 10.61809,11.6442626 C10.8133521,11.4490005 11.0982764,11.4173422 11.2544861,11.5735519 L11.2544861,11.5735519 L11.6801644,11.997816 L12.7394103,10.9371558 Z M8.5,7 C8.77614237,7 9,7.22385763 9,7.5 C9,7.77614237 8.77614237,8 8.5,8 L5.5,8 C5.22385763,8 5,7.77614237 5,7.5 C5,7.22385763 5.22385763,7 5.5,7 L8.5,7 Z M10.5,4 C10.7761424,4 11,4.22385763 11,4.5 C11,4.77614237 10.7761424,5 10.5,5 L5.5,5 C5.22385763,5 5,4.77614237 5,4.5 C5,4.22385763 5.22385763,4 5.5,4 L10.5,4 Z" id="形状结合" fill="#71757F" fill-rule="nonzero"></path>
    </g>
</svg>