<?xml version="1.0" encoding="UTF-8"?>
<svg width="16px" height="16px" viewBox="0 0 24 24" version="1.1" xmlns="http://www.w3.org/2000/svg" xmlns:xlink="http://www.w3.org/1999/xlink">
    <title>用户指南@1x</title>
    <g id="用户指南" stroke="none" stroke-width="1" fill="none" fill-rule="evenodd">
        <path d="M18,2 C19.6568542,2 21,3.34314575 21,5 L21,19 C21,20.6568542 19.6568542,22 18,22 L6,22 C4.34314575,22 3,20.6568542 3,19 L3,5 C3,3.34314575 4.34314575,2 6,2 L18,2 Z M18,3.5 L17,3.5 L17,10.8727636 C17,11.4250484 16.5522847,11.8727902 16,11.8727902 C15.7670312,11.8727902 15.5413731,11.7914234 15.3619821,11.6427852 L13.8190089,10.3643217 C13.6339688,10.2110027 13.3660312,10.2110027 13.1809911,10.3643217 L11.6380179,11.6427852 C11.2127467,11.9951527 10.582346,11.9360527 10.2299784,11.5107815 C10.0813402,11.3313905 10,11.1057324 10,10.8727636 L10,3.5 L6,3.5 C5.22030388,3.5 4.57955132,4.09488808 4.50686658,4.85553999 L4.5,5 L4.5,19 C4.5,19.7796961 5.09488808,20.4204487 5.85553999,20.4931334 L6,20.5 L18,20.5 C18.7796961,20.5 19.4204487,19.9051119 19.4931334,19.14446 L19.5,19 L19.5,5 C19.5,4.22030388 18.9051119,3.57955132 18.14446,3.50686658 L18,3.5 Z M15.5,3.5 L11.5,3.5 L11.5,9.808 L12.2239643,9.20928935 C12.9178647,8.63434325 13.9032017,8.59840912 14.6335317,9.10148695 L14.7760357,9.20928935 L15.5,9.809 L15.5,3.5 Z" id="形状" fill="#252B3A" fill-rule="nonzero"></path>
    </g>
</svg>