<?xml version="1.0" encoding="UTF-8"?>
<svg width="16px" height="16px" viewBox="0 0 16 16" version="1.1" xmlns="http://www.w3.org/2000/svg" xmlns:xlink="http://www.w3.org/1999/xlink">
    <title>备案审批</title>
    <g id="备案审批" stroke="none" stroke-width="1" fill="none" fill-rule="evenodd">
        <path d="M8.00256667,1.33371917 C8.1039,1.33371917 8.20656667,1.35171917 8.3039,1.38971917 L8.3039,1.38971917 L12.6352333,3.01371917 C13.1239,3.1970525 13.4472333,3.66371917 13.4472333,4.1850525 L13.4472333,4.1850525 L13.4472333,4.86345647 C13.4472333,5.13945647 13.2232333,5.36345647 12.9472333,5.36345647 C12.6712333,5.36345647 12.4472333,5.13945647 12.4472333,4.86345647 L12.4472333,4.86345647 L12.4472333,4.18638583 C12.4472333,4.0810525 12.3819,3.98638583 12.2832333,3.94971917 L12.2832333,3.94971917 L8.00323334,2.34438583 L3.72123334,3.94971917 C3.62323334,3.98638583 3.5579,4.08038583 3.5579,4.1850525 L3.5579,4.1850525 L3.5579,8.63771917 C3.5579,10.3217192 4.5099,11.8617192 6.0159,12.6150525 L6.0159,12.6150525 L8.00256667,13.6090525 L9.98923334,12.6157192 C11.4959,11.8617192 12.4472333,10.3210525 12.4472333,8.6370525 L12.4472333,8.6370525 L12.4472333,6.53342692 C12.4472333,6.25742692 12.6712333,6.03342692 12.9472333,6.03342692 C13.2232333,6.03342692 13.4472333,6.25742692 13.4472333,6.53342692 L13.4472333,6.53342692 L13.4472333,8.6370525 C13.4472333,10.7003858 12.2819,12.5863858 10.4365667,13.5097192 L10.4365667,13.5097192 L8.23123334,14.6130525 C8.15923334,14.6490525 8.08056667,14.6670525 8.00256667,14.6670525 C7.92456667,14.6670525 7.8459,14.6490525 7.7739,14.6130525 L7.7739,14.6130525 L5.56723334,13.5090525 C3.72256667,12.5863858 2.5579,10.7010525 2.5579,8.6390525 L2.5579,8.6390525 L2.5579,4.1850525 C2.5579,3.6670525 2.88456667,3.19638583 3.36923334,3.01371917 L3.36923334,3.01371917 L7.7039,1.3890525 C7.79923334,1.35171917 7.90123334,1.33371917 8.00256667,1.33371917 Z M11.4403685,5.79913571 L11.5095932,5.85696133 C11.6830701,6.03043819 11.7023453,6.30001174 11.5674189,6.49484342 L11.5095932,6.56406811 L8.21482816,9.85883319 C8.01966669,10.0539947 7.70288285,10.0539947 7.50772138,9.85883319 C7.5024207,9.8535325 7.49726399,9.8481421 7.49225124,9.84266685 L5.15172313,7.49920511 C4.95656166,7.30404364 4.95656166,6.98725981 5.15172313,6.79209833 C5.32519999,6.61862147 5.59477354,6.59934626 5.78960522,6.73427271 L5.85882991,6.79209833 L7.86236983,8.79643965 L10.8024865,5.85696133 C10.9759633,5.68348447 11.2455369,5.66420926 11.4403685,5.79913571 Z" id="形状结合" fill="#71757F"></path>
    </g>
</svg>