<?xml version="1.0" encoding="UTF-8"?>
<svg width="16px" height="16px" viewBox="0 0 16 16" version="1.1" xmlns="http://www.w3.org/2000/svg" xmlns:xlink="http://www.w3.org/1999/xlink">
    <title>function icon/view</title>
    <g id="页面-1" stroke="none" stroke-width="1" fill="none" fill-rule="evenodd">
        <g id="API-starter-图标入库" transform="translate(-92.000000, -204.000000)">
            <g id="方格备份-18" transform="translate(60.000000, 180.000000)">
                <text id="图标" font-family="PingFangSC-Regular, PingFang SC" font-size="12" font-weight="normal" line-spacing="16" fill="#71757F">
                    <tspan x="27.136" y="61">查看</tspan>
                </text>
            </g>
            <path d="M102,210 C104.209139,210 106,211.790861 106,214 C106,214.924545 105.68633,215.77583 105.159604,216.453239 L106.646447,217.93934 C106.841709,218.134602 106.841709,218.451185 106.646447,218.646447 C106.47288,218.820013 106.203456,218.839298 106.008588,218.704302 L105.93934,218.646447 L104.453239,217.159604 C103.77583,217.68633 102.924545,218 102,218 C99.790861,218 98,216.209139 98,214 C98,211.790861 99.790861,210 102,210 Z M104.5,205 C105.279696,205 105.920449,205.594888 105.993133,206.35554 L106,206.5 L106,208.5 C106,208.776142 105.776142,209 105.5,209 C105.25454,209 105.050392,208.823125 105.008056,208.589876 L105,208.5 L105,206.5 C105,206.25454 104.823125,206.050392 104.589876,206.008056 L104.5,206 L94.5,206 C94.2545401,206 94.0503916,206.176875 94.0080557,206.410124 L94,206.5 L94,216.5 C94,216.74546 94.1768752,216.949608 94.4101244,216.991944 L94.5,217 L96.5,217 C96.7761424,217 97,217.223858 97,217.5 C97,217.74546 96.8231248,217.949608 96.5898756,217.991944 L96.5,218 L94.5,218 C93.7203039,218 93.0795513,217.405112 93.0068666,216.64446 L93,216.5 L93,206.5 C93,205.720304 93.5948881,205.079551 94.35554,205.006867 L94.5,205 L104.5,205 Z M102,211 C100.343146,211 99,212.343146 99,214 C99,215.656854 100.343146,217 102,217 C103.656854,217 105,215.656854 105,214 C105,212.343146 103.656854,211 102,211 Z" id="形状结合" fill="#71757F" fill-rule="nonzero"></path>
        </g>
    </g>
</svg>