<?xml version="1.0" encoding="UTF-8"?>
<svg width="16px" height="16px" viewBox="0 0 16 16" version="1.1" xmlns="http://www.w3.org/2000/svg" xmlns:xlink="http://www.w3.org/1999/xlink">
    <title>view-more</title>
    <g id="view-more" stroke="none" stroke-width="1" fill="none" fill-rule="evenodd">
        <path d="M8.77467113,1.46407054 C9.04374901,1.72749578 9.07237642,2.14387905 8.85765081,2.43978645 L8.78592964,2.52467096 L4.159,7.24999973 L13.75,7.25 C14.1642136,7.25 14.5,7.58578644 14.5,8 C14.5,8.41421356 14.1642136,8.75 13.75,8.75 L3.947,8.74999973 L8.72637527,13.4661679 C8.99440012,13.7306645 9.02136621,14.1471586 8.80546183,14.4422071 L8.73340259,14.5268048 C8.468906,14.7948296 8.05241184,14.8217957 7.75736341,14.6058913 L7.6727657,14.5338321 L1.72319539,8.66258145 C1.4559263,8.39883067 1.42825772,7.98375735 1.64252884,7.68871786 L1.71407071,7.60407839 L7.71407071,1.47532904 C8.00383848,1.17934338 8.47868546,1.17430277 8.77467113,1.46407054 Z" id="形状结合" fill="#71757F" transform="translate(8.000000, 8.000000) scale(-1, 1) translate(-8.000000, -8.000000) "></path>
    </g>
</svg>