<?xml version="1.0" encoding="UTF-8"?>
<svg width="16px" height="16px" viewBox="0 0 16 16" version="1.1" xmlns="http://www.w3.org/2000/svg" xmlns:xlink="http://www.w3.org/1999/xlink">
    <title>repeat-查看重复的软件包</title>
    <g id="repeat-查看重复的软件包" stroke="none" stroke-width="1" fill="none" fill-rule="evenodd">
        <path d="M9.7843055,1.58859116 L9.85355339,1.64644661 L14.3535534,6.14644661 C14.5488155,6.34170876 14.5488155,6.65829124 14.3535534,6.85355339 C14.179987,7.02711974 13.9105626,7.04640489 13.7156945,6.91140884 L13.6464466,6.85355339 L13.078,6.285 L9.643,11.436 L10.3535534,12.1464466 C10.5488155,12.3417088 10.5488155,12.6582912 10.3535534,12.8535534 C10.179987,13.0271197 9.91056264,13.0464049 9.7156945,12.9114088 L9.64644661,12.8535534 L6.75,9.957 L2.35355339,14.3535534 C2.15829124,14.5488155 1.84170876,14.5488155 1.64644661,14.3535534 C1.47288026,14.179987 1.45359511,13.9105626 1.58859116,13.7156945 L1.64644661,13.6464466 L6.043,9.25 L3.14644661,6.35355339 C2.95118446,6.15829124 2.95118446,5.84170876 3.14644661,5.64644661 C3.32001296,5.47288026 3.58943736,5.45359511 3.7843055,5.58859116 L3.85355339,5.64644661 L4.563,6.356 L9.714,2.921 L9.14644661,2.35355339 C8.95118446,2.15829124 8.95118446,1.84170876 9.14644661,1.64644661 C9.32001296,1.47288026 9.58943736,1.45359511 9.7843055,1.58859116 Z M10.436,3.643 L5.285,7.078 L8.921,10.714 L12.356,5.563 L10.436,3.643 Z" id="形状结合" fill="#7A7E87" fill-rule="nonzero"></path>
    </g>
</svg>