<?xml version="1.0" encoding="UTF-8"?>
<svg width="16px" height="16px" viewBox="0 0 16 16" version="1.1" xmlns="http://www.w3.org/2000/svg" xmlns:xlink="http://www.w3.org/1999/xlink">
    <title>function icon/view-forbidden</title>
    <g id="图标入库记录" stroke="none" stroke-width="1" fill="none" fill-rule="evenodd">
        <g id="API-starter-图标入库记录-221117" transform="translate(-92.000000, -120.000000)" fill="#71757F" fill-rule="nonzero">
            <g id="编组-13" transform="translate(92.000000, 120.000000)">
                <path d="M1.81001604,2.1532831 L14.8327716,13.0806725 C15.0443089,13.2581734 15.0719009,13.5735512 14.8944,13.7850885 C14.7168991,13.9966258 14.4015213,14.0242178 14.189984,13.8467169 L1.16722843,2.91932754 C0.955691097,2.74182664 0.928099115,2.42644884 1.10560001,2.21491151 C1.28310091,2.00337418 1.59847871,1.9757822 1.81001604,2.1532831 Z M2.36838601,5.23181015 L3.14515554,5.88421985 C2.63339397,6.30829936 2.13235145,6.80451559 1.64182918,7.37342587 L1.34877667,7.72349978 L1.129,8 L1.34877667,8.27650022 C3.22512213,10.5837647 5.25748031,11.8072472 7.4572676,11.9789577 L7.73311387,11.9949458 L8,12 C8.70284803,12 9.38892979,11.8955203 10.058604,11.6855549 L10.9460126,12.430785 C10.0000475,12.8095639 9.01779437,13 8,13 C5.06488173,13 2.4253361,11.4162726 0.0992687357,8.2990225 C-0.0330895786,8.12164416 -0.0330895786,7.87835584 0.0992687357,7.7009775 C0.825283701,6.72801762 1.58183761,5.90445298 2.36838601,5.23181015 Z M8,3 C10.9351183,3 13.5746639,4.58372738 15.9007313,7.7009775 C16.0330896,7.87835584 16.0330896,8.12164416 15.9007313,8.2990225 C15.1747163,9.27198238 14.4181624,10.095547 13.631614,10.7681898 L12.8538426,10.1166102 C13.3658965,9.69239431 13.8672195,9.19596356 14.3580108,8.62675974 L14.6512233,8.27650022 L14.87,7.999 L14.6512233,7.72349978 C12.7748779,5.41623531 10.7425197,4.19275276 8.5427324,4.0210423 L8.26688613,4.00505416 L8,4 C7.29715197,4 6.61107021,4.10447974 5.94139596,4.31444514 L5.05298811,3.56961514 C5.99926082,3.19057024 6.98184725,3 8,3 Z" id="形状结合"></path>
            </g>
        </g>
    </g>
</svg>