<?xml version="1.0" encoding="UTF-8"?>
<svg width="16px" height="16px" viewBox="0 0 16 16" version="1.1" xmlns="http://www.w3.org/2000/svg" xmlns:xlink="http://www.w3.org/1999/xlink">
    <title>view-report</title>
    <g id="view-report" stroke="none" stroke-width="1" fill="none" fill-rule="evenodd">
        <path d="M12,1 C13.0543618,1 13.9181651,1.81587779 13.9945143,2.85073766 L14,3 L14,7.5 C14,7.77614237 13.7761424,8 13.5,8 C13.2545401,8 13.0503916,7.82312484 13.0080557,7.58987563 L13,7.5 L13,3 C13,2.48716416 12.6139598,2.06449284 12.1166211,2.00672773 L12,2 L4,2 C3.48716416,2 3.06449284,2.38604019 3.00672773,2.88337887 L3,3 L3,13 C3,13.5128358 3.38604019,13.9355072 3.88337887,13.9932723 L4,14 L8,14 C8.27614237,14 8.5,14.2238576 8.5,14.5 C8.5,14.7454599 8.32312484,14.9496084 8.08987563,14.9919443 L8,15 L4,15 C2.9456382,15 2.08183488,14.1841222 2.00548574,13.1492623 L2,13 L2,3 C2,1.9456382 2.81587779,1.08183488 3.85073766,1.00548574 L4,1 L12,1 Z M11.25,9 C12.8044064,9 14.193952,9.83372738 15.4007313,11.4509775 C15.5330896,11.6283558 15.5330896,11.8716442 15.4007313,12.0490225 C14.193952,13.6662726 12.8044064,14.5 11.25,14.5 C9.69559361,14.5 8.30604797,13.6662726 7.09926874,12.0490225 C6.96691042,11.8716442 6.96691042,11.6283558 7.09926874,11.4509775 C8.30604797,9.83372738 9.69559361,9 11.25,9 Z M11.25,10 C10.2559857,10 9.3274605,10.4518666 8.45442376,11.3836399 L8.26819012,11.5906613 L8.135,11.75 L8.26819012,11.9093387 C9.07567358,12.8431149 9.93087139,13.3570942 10.8419144,13.4740745 L11.0379957,13.4930735 L11.25,13.5 C12.2440143,13.5 13.1725395,13.0481334 14.0455762,12.1163601 L14.2318099,11.9093387 L14.364,11.75 L14.2318099,11.5906613 C13.4243264,10.6568851 12.5691286,10.1429058 11.6580856,10.0259255 L11.4620043,10.0069265 L11.25,10 Z M11.25,10.75 C11.8022847,10.75 12.25,11.1977153 12.25,11.75 C12.25,12.3022847 11.8022847,12.75 11.25,12.75 C10.6977153,12.75 10.25,12.3022847 10.25,11.75 C10.25,11.1977153 10.6977153,10.75 11.25,10.75 Z M8.5,7 C8.77614237,7 9,7.22385763 9,7.5 C9,7.77614237 8.77614237,8 8.5,8 L5.5,8 C5.22385763,8 5,7.77614237 5,7.5 C5,7.22385763 5.22385763,7 5.5,7 L8.5,7 Z M10.5,4 C10.7761424,4 11,4.22385763 11,4.5 C11,4.77614237 10.7761424,5 10.5,5 L5.5,5 C5.22385763,5 5,4.77614237 5,4.5 C5,4.22385763 5.22385763,4 5.5,4 L10.5,4 Z" id="形状结合" fill="#71757F" fill-rule="nonzero"></path>
    </g>
</svg>