<?xml version="1.0" encoding="UTF-8"?>
<svg width="16px" height="16px" viewBox="0 0 16 16" version="1.1" xmlns="http://www.w3.org/2000/svg" xmlns:xlink="http://www.w3.org/1999/xlink">
    <title>view</title>
    <g id="页面-1" stroke="none" stroke-width="1" fill="none" fill-rule="evenodd">
        <g id="API测试图标备份" transform="translate(-57.000000, -275.000000)">
            <g id="view" transform="translate(57.000000, 275.000000)">
                <path d="M7.88775097,3 C12.154333,3 15.5246068,7.48166323 15.6679661,7.66096814 C15.8114382,7.84018838 15.8114382,8.09123406 15.6679661,8.3063153 C15.5246068,8.4856202 12.154333,12.9672834 7.88775097,12.9672834 C3.62124424,12.9672834 0.250942207,8.4856202 0.107582941,8.3063153 C-0.0358609805,8.12708566 -0.0358609805,7.84018839 0.107582941,7.66096814 C0.250942191,7.48167264 3.62125364,3 7.88775097,3 Z M7.88775097,4.03972389 C4.76855107,4.03972389 2.04367146,6.97976 1.21902879,7.94777133 C2.04367146,8.95172831 4.76855107,11.8558282 7.88775097,11.8558282 C11.0069979,11.8558282 13.7318775,8.95172831 14.5565296,7.94777133 C13.7318869,6.94389902 11.0069979,4.03972389 7.88775097,4.03972389 Z M7.92360255,5.65315766 C9.17848293,5.65315766 10.2182068,6.69288155 10.2182068,7.94778073 C10.2182068,9.20268934 9.17848293,10.2424132 7.92360255,10.2424132 C6.66878802,10.2424132 5.62897005,9.20268933 5.62897005,7.94778073 C5.62897005,6.69288155 6.66877861,5.65315766 7.92360255,5.65315766 Z M7.92360255,6.7646035 C7.24240382,6.7646035 6.7046396,7.30243358 6.7046396,7.98364172 C6.7046396,8.66484047 7.24240382,9.20267994 7.92360255,9.20267994 C8.60488596,9.20267994 9.14261254,8.66484045 9.14261254,7.98364172 C9.14261254,7.30243356 8.60488596,6.7646035 7.92360255,6.7646035 Z" id="形状结合" fill="#71757F"></path>
            </g>
        </g>
    </g>
</svg>