<?xml version="1.0" encoding="UTF-8"?>
<svg width="16px" height="16px" viewBox="0 0 16 16" version="1.1" xmlns="http://www.w3.org/2000/svg" xmlns:xlink="http://www.w3.org/1999/xlink">
    <title>入库申请备份</title>
    <g id="入库申请备份" stroke="none" stroke-width="1" fill="none" fill-rule="evenodd">
        <path d="M10.5,7 C12.9852814,7 15,9.01471863 15,11.5 C15,13.9852814 12.9852814,16 10.5,16 C8.01471863,16 6,13.9852814 6,11.5 C6,9.01471863 8.01471863,7 10.5,7 Z M8,-2.73558953e-13 L15,4 L15.000399,8.33748757 C14.7163208,7.93397432 14.3793475,7.57038438 13.99956,7.25679874 L14,5.13256556 L12.0836442,6.23141291 C11.6824441,6.11098872 11.2619631,6.03513897 10.8279537,6.00961604 L10.478,6 L13.4754922,4.28060377 L8,1.15175111 L2.57130755,4.25386108 L7.30861405,7.02006715 C7.02105656,7.22528325 6.75409142,7.45749524 6.51141946,7.71300226 L2,5.07821167 L2,11.4196775 L5.30398356,13.307733 C5.52178046,13.9338247 5.84954304,14.5084352 6.2641455,15.0084388 L1,12 L1,4 L8,-2.73558953e-13 Z M10.5,8 C8.56700338,8 7,9.56700338 7,11.5 C7,13.4329966 8.56700338,15 10.5,15 C12.4329966,15 14,13.4329966 14,11.5 C14,9.56700338 12.4329966,8 10.5,8 Z M10.4467111,9.6743776 L10.515959,9.73223305 C10.6895253,9.9057994 10.7088105,10.1752238 10.5738144,10.3700919 L10.515959,10.4393398 L9.956,11 L12.25,11 C12.5261424,11 12.75,11.2238576 12.75,11.5 C12.75,11.7761424 12.5261424,12 12.25,12 L9.958,12 L10.515959,12.5564466 C10.7112211,12.7517088 10.7112211,13.0682912 10.515959,13.2635534 C10.3206968,13.4588155 10.0041143,13.4588155 9.80885219,13.2635534 L8.39463863,11.8535534 C8.30785545,11.7667702 8.25964258,11.6560225 8.25,11.5426121 L8.25,11.4531743 C8.25964258,11.3397639 8.30785545,11.2290162 8.39463863,11.142233 L8.419,11.122 L9.80885219,9.73223305 C9.98241854,9.5586667 10.2518429,9.53938154 10.4467111,9.6743776 Z" id="形状" fill="#575D6C" fill-rule="nonzero"></path>
    </g>
</svg>