<?xml version="1.0" encoding="UTF-8"?>
<svg width="16px" height="16px" viewBox="0 0 16 16" version="1.1" xmlns="http://www.w3.org/2000/svg" xmlns:xlink="http://www.w3.org/1999/xlink">
    <title>警告</title>
    <g id="警告" stroke="none" stroke-width="1" fill="none" fill-rule="evenodd">
        <path d="M8.2236068,0.670820393 C8.3203705,0.719202244 8.39883174,0.79766349 8.4472136,0.894427191 L15.6381966,15.2763932 C15.7616912,15.5233825 15.6615791,15.823719 15.4145898,15.9472136 C15.3451621,15.9819275 15.2686056,16 15.190983,16 L0.809016994,16 C0.532874619,16 0.309016994,15.7761424 0.309016994,15.5 C0.309016994,15.4223775 0.32708954,15.3458209 0.361803399,15.2763932 L7.5527864,0.894427191 C7.67628103,0.647437942 7.97661755,0.547325769 8.2236068,0.670820393 Z M8,3.354 L2.427,14.5 L13.572,14.5 L8,3.354 Z M7.9843702,12.502041 C8.39858377,12.502041 8.7343702,12.8378274 8.7343702,13.252041 C8.7343702,13.6662545 8.39858377,14.002041 7.9843702,14.002041 C7.57015664,14.002041 7.2343702,13.6662545 7.2343702,13.252041 C7.2343702,12.8378274 7.57015664,12.502041 7.9843702,12.502041 Z M7.9843702,5.50204095 C8.39858377,5.50204095 8.7343702,5.83782739 8.7343702,6.25204095 L8.7343702,10.752041 C8.7343702,11.1662545 8.39858377,11.502041 7.9843702,11.502041 C7.57015664,11.502041 7.2343702,11.1662545 7.2343702,10.752041 L7.2343702,6.25204095 C7.2343702,5.83782739 7.57015664,5.50204095 7.9843702,5.50204095 Z" id="形状结合" fill="#575D6C" fill-rule="nonzero"></path>
    </g>
</svg>