<?xml version="1.0" encoding="UTF-8"?>
<svg width="16px" height="16px" viewBox="0 0 16 16" version="1.1" xmlns="http://www.w3.org/2000/svg" xmlns:xlink="http://www.w3.org/1999/xlink">
    <title>webhook-issue</title>
    <g id="webhook-issue" stroke="none" stroke-width="1" fill="none" fill-rule="evenodd">
        <path d="M13.78,11.3529286 C13.9116897,11.3529286 14.0378364,11.4059359 14.13,11.5 C14.3169529,11.6904696 14.3213547,11.9941927 14.14,12.19 L14.14,12.19 L11.7,14.76 C11.6046117,14.8557197 11.4751336,14.909669 11.34,14.91 C11.2099294,14.9087517 11.08505,14.8587999 10.99,14.77 C10.8959359,14.6778364 10.8429286,14.5516897 10.8429286,14.42 C10.8429286,14.2883103 10.8959359,14.1621636 10.99,14.07 L10.99,14.07 L13.43,11.5 C13.5221636,11.4059359 13.6483103,11.3529286 13.78,11.3529286 Z M12.12,1 C13.2245695,1 14.12,1.8954305 14.12,3 L14.12,3 L14.12,9 C14.1093652,9.11120124 14.0638661,9.21619899 13.99,9.3 L13.99,9.3 L8.85,14.69 C8.7556291,14.7884847 8.6263403,14.8459464 8.49,14.85 L8.49,14.85 L3,14.85 C1.8954305,14.85 1,13.9545695 1,12.85 L1,12.85 L1,3 C1,1.8954305 1.8954305,1 3,1 L3,1 Z M12.15,2 L3,2 C2.44771525,2 2,2.44771525 2,3 L2,3 L2,12.87 C2,13.4222847 2.44771525,13.87 3,13.87 L3,13.87 L8.27,13.87 L13.12,8.8 L13.15,3 C13.15,2.44771525 12.7022847,2 12.15,2 L12.15,2 Z M6.56,11.26 C6.74408164,11.2553929 6.92171814,11.3278976 7.05,11.46 C7.17822225,11.5908663 7.25003386,11.7667872 7.25,11.95 C7.25182847,12.1306275 7.17954375,12.3041109 7.05,12.43 C6.92498153,12.5679324 6.7461017,12.6445952 6.56,12.64 C6.38030312,12.6414209 6.2088299,12.5648052 6.09,12.43 C5.96045625,12.3041109 5.88817153,12.1306275 5.89,11.95 C5.88996614,11.7667872 5.96177775,11.5908663 6.09,11.46 C6.21281143,11.3319915 6.38260563,11.2597386 6.56,11.26 Z M6.73,3.27 C7.16202271,3.26127009 7.5900964,3.35373401 7.98,3.54 C8.32473248,3.70167754 8.61614966,3.9584022 8.82,4.28 C9.01725809,4.5982825 9.12120162,4.96554965 9.12,5.34 C9.13601478,5.69470016 9.0378777,6.04518974 8.84,6.34 C8.59329605,6.67259284 8.30796441,6.9747087 7.99,7.24 L7.99,7.24 L7.36,7.87 C7.19267708,8.05638351 7.05750133,8.26928533 6.96,8.5 C6.84832645,8.75898123 6.79048771,9.03796805 6.79,9.32 C6.79107724,9.54956372 6.82131942,9.77806025 6.88,10 L6.88,10 L6.05,10 C5.94689712,9.67655821 5.8929621,9.33946431 5.89,9 C5.90650476,8.71131134 5.98134437,8.42896192 6.11,8.17 C6.19957282,7.93671729 6.32806137,7.72031551 6.49,7.53 C6.65,7.36 6.85,7.15 7.11,6.91 C7.36454731,6.69110054 7.59577698,6.44646625 7.8,6.18 C7.95206739,5.95964826 8.03239225,5.69771937 8.03,5.43 C8.04393366,5.09908581 7.90802128,4.77950806 7.66,4.56 C7.37834567,4.33215697 7.0216042,4.2179997 6.66,4.24 C5.83611629,4.24830195 5.11587324,4.79763988 4.89,5.59 L4.89,5.59 L4.06,5.11 C4.23348146,4.55841095 4.58522026,4.08004619 5.06,3.75 C5.5571272,3.42876156 6.13817097,3.26175497 6.73,3.27 Z" id="形状结合" fill="#252B3A" fill-rule="nonzero"></path>
    </g>
</svg>