<?xml version="1.0" encoding="UTF-8"?>
<svg width="16px" height="16px" viewBox="0 0 16 16" version="1.1" xmlns="http://www.w3.org/2000/svg" xmlns:xlink="http://www.w3.org/1999/xlink">
    <title>webhook-push</title>
    <g id="webhook-push" stroke="none" stroke-width="1" fill="none" fill-rule="evenodd">
        <path d="M12.91,1 C13.8618546,1 14.6668207,1.70433776 14.7931831,2.6477675 C14.9195456,3.59119723 14.3283043,4.48254223 13.41,4.73303028 L13.41,4.73303028 L13.41,10.3730303 C14.3227477,10.6278313 14.9081921,11.5162507 14.7822881,12.4554952 C14.656384,13.3947396 13.85763,14.0976097 12.91,14.1030303 C11.96237,14.0976097 11.163616,13.3947396 11.0377119,12.4554952 C10.9118079,11.5162507 11.4972523,10.6278313 12.41,10.3730303 L12.41,10.3730303 L12.41,4.73303028 C11.4916957,4.48254223 10.9004544,3.59119723 11.0268169,2.6477675 C11.1531793,1.70433776 11.9581454,1 12.91,1 Z M2.5,1.12303028 C2.77614237,1.12303028 3,1.3468879 3,1.62303028 L3,1.62303028 L3,7.05303028 L8.25,7.05303028 L6.96,5.76303028 C6.76942856,5.56860852 6.76942856,5.25745203 6.96,5.06303028 C7.0538833,4.96837395 7.18168123,4.91513112 7.315,4.91513112 C7.44831877,4.91513112 7.5761167,4.96837395 7.67,5.06303028 L7.67,5.06303028 L9.81,7.20303028 C9.90667723,7.29376361 9.96151865,7.42044437 9.96151865,7.55303028 C9.96151865,7.68561619 9.90667723,7.81229695 9.81,7.90303028 L9.81,7.90303028 L7.67,10.0430303 C7.57832691,10.1381714 7.45211809,10.1922609 7.32,10.1930303 C7.18486642,10.1926992 7.05538829,10.13875 6.96,10.0430303 C6.76942856,9.84860852 6.76942856,9.53745203 6.96,9.34303028 L6.96,9.34303028 L8.25,8.05303028 L3,8.05303028 L3,13.4830303 C3,13.7591727 2.77614237,13.9830303 2.5,13.9830303 C2.22385763,13.9830303 2,13.7591727 2,13.4830303 L2,13.4830303 L2,1.62303028 C2,1.3468879 2.22385763,1.12303028 2.5,1.12303028 Z M12.91,11.3030303 C12.4129437,11.3030303 12.01,11.705974 12.01,12.2030303 C12.01,12.7000866 12.4129437,13.1030303 12.91,13.1030303 L12.91,13.1030303 L12.92,13.1030303 C13.4131466,13.0975505 13.8100304,12.6962074 13.81,12.2030303 C13.81,11.705974 13.4070563,11.3030303 12.91,11.3030303 Z M12.91,2.00303028 C12.4129437,2.00303028 12.01,2.405974 12.01,2.90303028 L12.01,2.90303028 L12.02,2.90303028 C12.0199696,3.39620735 12.4168534,3.79755053 12.91,3.80303028 C13.4070563,3.80303028 13.81,3.40008655 13.81,2.90303028 C13.81,2.405974 13.4070563,2.00303028 12.91,2.00303028 Z" id="形状结合" fill="#252B3A" fill-rule="nonzero"></path>
    </g>
</svg>