<?xml version="1.0" encoding="UTF-8"?>
<svg width="16px" height="16px" viewBox="0 0 16 16" version="1.1" xmlns="http://www.w3.org/2000/svg" xmlns:xlink="http://www.w3.org/1999/xlink">
    <title>white-list</title>
    <g id="white-list" stroke="none" stroke-width="1" fill="none" fill-rule="evenodd">
        <path d="M12,8.5 C13.9326885,8.5 15.5,10.0675887 15.5,12.0005307 C15.5,13.933325 13.9328363,15.5 12,15.5 C10.0673115,15.5 8.5,13.9324113 8.5,11.9994693 C8.5,10.066675 10.0671637,8.5 12,8.5 Z M12,1 C13.0543618,1 13.9181651,1.81587779 13.9945143,2.85073766 L14,3 L14,7.5 C14,7.77614237 13.7761424,8 13.5,8 C13.2545401,8 13.0503916,7.82312484 13.0080557,7.58987563 L13,7.5 L13,3 C13,2.48716416 12.6139598,2.06449284 12.1166211,2.00672773 L12,2 L4,2 C3.48716416,2 3.06449284,2.38604019 3.00672773,2.88337887 L3,3 L3,13 C3,13.5128358 3.38604019,13.9355072 3.88337887,13.9932723 L4,14 L8,14 C8.27614237,14 8.5,14.2238576 8.5,14.5 C8.5,14.7454599 8.32312484,14.9496084 8.08987563,14.9919443 L8,15 L4,15 C2.9456382,15 2.08183488,14.1841222 2.00548574,13.1492623 L2,13 L2,3 C2,1.9456382 2.81587779,1.08183488 3.85073766,1.00548574 L4,1 L12,1 Z M12,9.5 C10.6193787,9.5 9.5,10.6190296 9.5,11.9994693 C9.5,13.3801661 10.6196358,14.5 12,14.5 C13.3806213,14.5 14.5,13.3809704 14.5,12.0005307 C14.5,10.6198339 13.3803642,9.5 12,9.5 Z M12.0170216,10.2 C12.2624815,10.2 12.46663,10.3768752 12.5089659,10.6101244 L12.5170216,10.7 L12.517,11.417 L13.2340432,11.4170216 C13.5101856,11.4170216 13.7340432,11.6408792 13.7340432,11.9170216 C13.7340432,12.1624815 13.557168,12.36663 13.3239188,12.4089659 L13.2340432,12.4170216 L12.517,12.417 L12.5170216,13.1340432 C12.5170216,13.4101856 12.293164,13.6340432 12.0170216,13.6340432 C11.7715617,13.6340432 11.5674132,13.457168 11.5250773,13.2239188 L11.5170216,13.1340432 L11.517,12.417 L10.8,12.4170216 C10.5238576,12.4170216 10.3,12.193164 10.3,11.9170216 C10.3,11.6715617 10.4768752,11.4674132 10.7101244,11.4250773 L10.8,11.4170216 L11.517,11.417 L11.5170216,10.7 C11.5170216,10.4238576 11.7408792,10.2 12.0170216,10.2 Z M8.5,7 C8.77614237,7 9,7.22385763 9,7.5 C9,7.77614237 8.77614237,8 8.5,8 L5.5,8 C5.22385763,8 5,7.77614237 5,7.5 C5,7.22385763 5.22385763,7 5.5,7 L8.5,7 Z M11.6851492,3.73681139 C11.8377224,3.92909237 11.826062,4.1989543 11.6696615,4.37710145 L11.6042647,4.43927684 L9.72452402,5.93083385 C9.54197168,6.07568746 9.28810348,6.07308594 9.10967123,5.93618219 L9.03824664,5.86932491 L8.12451312,4.83016602 C7.94216746,4.62279034 7.9624583,4.30685877 8.16983398,4.12451312 C8.35416792,3.96242809 8.62427441,3.96045091 8.81008953,4.10765916 L8.87548688,4.16983398 L9.475,4.851 L10.9826837,3.65592692 C11.1989998,3.48428208 11.5135043,3.52049529 11.6851492,3.73681139 Z M6.5,4 C6.7761424,4 7,4.22385763 7,4.5 C7,4.77614237 6.7761424,5 6.5,5 L5.5,5 C5.22385763,5 5,4.77614237 5,4.5 C5,4.22385763 5.22385763,4 5.5,4 L6.5,4 Z" id="形状结合" fill="#71757F" fill-rule="nonzero"></path>
    </g>
</svg>