<?xml version="1.0" encoding="UTF-8"?>
<svg width="13px" height="13px" viewBox="0 0 13 13" version="1.1" xmlns="http://www.w3.org/2000/svg" xmlns:xlink="http://www.w3.org/1999/xlink">
    <title>whole</title>
    <g id="切图" stroke="none" stroke-width="1" fill="none" fill-rule="evenodd">
        <g id="入库图标时间表备份-2" transform="translate(-497.000000, -11389.000000)" fill="#71757F" fill-rule="nonzero">
            <g id="whole" transform="translate(497.000000, 11389.000000)">
                <path d="M3.9,7.097057 C4.728427,7.097057 5.4,7.768627 5.4,8.597057 L5.4,8.597057 L5.4,10.997057 C5.4,11.825487 4.728427,12.497057 3.9,12.497057 L3.9,12.497057 L1.5,12.497057 C0.671573,12.497057 0,11.825487 0,10.997057 L0,10.997057 L0,8.597057 C0,7.768627 0.671573,7.097057 1.5,7.097057 L1.5,7.097057 L3.9,7.097057 Z M10.5,7.097057 C11.328427,7.097057 12,7.768627 12,8.597057 L12,8.597057 L12,10.997057 C12,11.825487 11.328427,12.497057 10.5,12.497057 L10.5,12.497057 L8.1,12.497057 C7.271573,12.497057 6.6,11.825487 6.6,10.997057 L6.6,10.997057 L6.6,8.597057 C6.6,7.768627 7.271573,7.097057 8.1,7.097057 L8.1,7.097057 L10.5,7.097057 Z M3.9,8.097057 L1.5,8.097057 C1.223858,8.097057 1,8.320917 1,8.597057 L1,8.597057 L1,10.997057 C1,11.273197 1.223858,11.497057 1.5,11.497057 L1.5,11.497057 L3.9,11.497057 C4.176142,11.497057 4.4,11.273197 4.4,10.997057 L4.4,10.997057 L4.4,8.597057 C4.4,8.320917 4.176142,8.097057 3.9,8.097057 L3.9,8.097057 Z M10.5,8.097057 L8.1,8.097057 C7.823858,8.097057 7.6,8.320917 7.6,8.597057 L7.6,8.597057 L7.6,10.997057 C7.6,11.273197 7.823858,11.497057 8.1,11.497057 L8.1,11.497057 L10.5,11.497057 C10.776142,11.497057 11,11.273197 11,10.997057 L11,10.997057 L11,8.597057 C11,8.320917 10.776142,8.097057 10.5,8.097057 L10.5,8.097057 Z M3.9,0.497057001 C4.728427,0.497057001 5.4,1.168627 5.4,1.997057 L5.4,1.997057 L5.4,4.397057 C5.4,5.225487 4.728427,5.897057 3.9,5.897057 L3.9,5.897057 L1.5,5.897057 C0.671573,5.897057 0,5.225487 0,4.397057 L0,4.397057 L0,1.997057 C0,1.168627 0.671573,0.497057001 1.5,0.497057001 L1.5,0.497057001 L3.9,0.497057001 Z M3.9,1.497057 L1.5,1.497057 C1.223858,1.497057 1,1.720917 1,1.997057 L1,1.997057 L1,4.397057 C1,4.673197 1.223858,4.897057 1.5,4.897057 L1.5,4.897057 L3.9,4.897057 C4.176142,4.897057 4.4,4.673197 4.4,4.397057 L4.4,4.397057 L4.4,1.997057 C4.4,1.720917 4.176142,1.497057 3.9,1.497057 L3.9,1.497057 Z M8.27109703,0.439340558 C8.85688338,-0.146445792 9.8066289,-0.146447913 10.3924174,0.439340558 L12.0894736,2.13639683 C12.6752621,2.7221853 12.67526,3.67193083 12.0894736,4.25771718 L10.3924174,5.95477344 C9.80663103,6.54055979 8.85688551,6.54056191 8.27109704,5.95477344 L6.57404076,4.25771717 C5.98825229,3.6719287 5.98825441,2.72218317 6.57404076,2.13639683 L8.27109703,0.439340558 Z M7.28114754,2.84350361 C7.08588566,3.03876549 7.08588708,3.35534992 7.28114754,3.55061039 L8.97820382,5.24766666 C9.17346428,5.44292713 9.49004872,5.44292854 9.6853106,5.24766666 L11.3823669,3.55061039 C11.5776287,3.35534851 11.5776273,3.03876408 11.3823669,2.84350361 L9.68531059,1.14644734 C9.49005013,0.951186872 9.17346569,0.951185458 8.97820381,1.14644734 L7.28114754,2.84350361 Z" id="形状结合"></path>
            </g>
        </g>
    </g>
</svg>