<?xml version="1.0" encoding="UTF-8"?>
<svg width="16px" height="16px" viewBox="0 0 16 16" version="1.1" xmlns="http://www.w3.org/2000/svg" xmlns:xlink="http://www.w3.org/1999/xlink">
    <title>widenall_icon</title>
    <g id="widenall_icon" stroke="none" stroke-width="1" fill="none" fill-rule="evenodd">
        <path d="M12,1.83333333 C12.2454599,1.83333333 12.4496084,2.01020849 12.4919443,2.2434577 L12.5,2.33333333 L12.5,3.49933333 L15,3.5 C15.2454599,3.5 15.4496084,3.67687516 15.4919443,3.91012437 L15.5,4 L15.5,14 C15.5,14.2454599 15.3231248,14.4496084 15.0898756,14.4919443 L15,14.5 L3,14.5 C2.75454011,14.5 2.55039163,14.3231248 2.50805567,14.0898756 L2.5,14 L2.5,12.8333333 L1,12.8333333 C0.754540111,12.8333333 0.55039163,12.6564582 0.508055669,12.423209 L0.5,12.3333333 L0.5,2.62745098 C0.5,2.18882264 0.86298961,1.88332508 1.28602316,1.83892088 L1.39285714,1.83333333 L12,1.83333333 Z M14.5,4.5 L3.5,4.5 L3.5,13.5 L14.5,13.5 L14.5,4.5 Z M11.5,2.833 L1.5,2.833 L1.5,11.833 L2.5,11.8333333 L2.5,4 C2.5,3.75454011 2.67687516,3.55039163 2.91012437,3.50805567 L3,3.5 L11.5,3.49933333 L11.5,2.833 Z M6.83738077,6.64644661 C7.01094712,6.82001296 7.03023227,7.08943736 6.89523622,7.2843055 L6.83738077,7.35355339 L5.68882738,8.5 L8.03985244,8.5 C8.31599481,8.5 8.53985244,8.72385763 8.53985244,9 C8.53985244,9.27614237 8.31599481,9.5 8.03985244,9.5 L5.69082738,9.5 L6.83738077,10.6464466 C7.01094712,10.820013 7.03023227,11.0894374 6.89523622,11.2843055 L6.83738077,11.3535534 C6.66381442,11.5271197 6.39439002,11.5464049 6.19952188,11.4114088 L6.13027399,11.3535534 L4.13027399,9.35355339 C3.95670764,9.17998704 3.93742249,8.91056264 4.07241854,8.7156945 L4.13027399,8.64644661 L6.13027399,6.64644661 C6.32553614,6.45118446 6.64211862,6.45118446 6.83738077,6.64644661 Z M11.9527889,6.58859116 L12.0220368,6.64644661 L14.0220368,8.64644661 C14.1956031,8.82001296 14.2148883,9.08943736 14.0798922,9.2843055 L14.0220368,9.35355339 L12.0220368,11.3535534 C11.8267746,11.5488155 11.5101922,11.5488155 11.31493,11.3535534 C11.1413637,11.179987 11.1220785,10.9105626 11.2570746,10.7156945 L11.31493,10.6464466 L12.4608274,9.5 L9.9734807,9.5 C9.69733833,9.5 9.4734807,9.27614237 9.4734807,9 C9.4734807,8.72385763 9.69733833,8.5 9.9734807,8.5 L12.4608274,8.5 L11.31493,7.35355339 C11.1413637,7.17998704 11.1220785,6.91056264 11.2570746,6.7156945 L11.31493,6.64644661 C11.4884964,6.47288026 11.7579208,6.45359511 11.9527889,6.58859116 Z" fill="#575D6C" fill-rule="nonzero"></path>
    </g>
</svg>