<?xml version="1.0" encoding="UTF-8"?>
<svg width="16px" height="16px" viewBox="0 0 16 16" version="1.1" xmlns="http://www.w3.org/2000/svg" xmlns:xlink="http://www.w3.org/1999/xlink">
    <title>widen_icon</title>
    <g id="widen_icon" stroke="none" stroke-width="1" fill="none" fill-rule="evenodd">
        <path d="M15,2.5 C15.2761424,2.5 15.5,2.72385763 15.5,3 L15.5,3 L15.5,13 C15.5,13.2761424 15.2761424,13.5 15,13.5 L15,13.5 L1,13.5 C0.723857625,13.5 0.5,13.2761424 0.5,13 L0.5,13 L0.5,3 C0.5,2.72385763 0.723857625,2.5 1,2.5 L1,2.5 Z M14.5,3.5 L1.5,3.5 L1.5,12.5 L14.5,12.5 L14.5,3.5 Z M5.79352984,5.64644661 C5.96709619,5.82001296 5.98638134,6.08943736 5.85138529,6.2843055 L5.79352984,6.35355339 L4.646,7.499 L6.96967735,7.5 C7.24581973,7.5 7.46967735,7.72385763 7.46967735,8 C7.46967735,8.27614237 7.24581973,8.5 6.96967735,8.5 L4.646,8.499 L5.79352984,9.64644661 C5.96709619,9.82001296 5.98638134,10.0894374 5.85138529,10.2843055 L5.79352984,10.3535534 C5.61996349,10.5271197 5.35053909,10.5464049 5.15567095,10.4114088 L5.08642306,10.3535534 L3.08642306,8.35355339 C2.91285671,8.17998704 2.89357156,7.91056264 3.02856761,7.7156945 L3.08642306,7.64644661 L5.08642306,5.64644661 C5.28168521,5.45118446 5.59826769,5.45118446 5.79352984,5.64644661 Z M11.0565061,5.58859116 L11.125754,5.64644661 L13.125754,7.64644661 C13.2993203,7.82001296 13.3186055,8.08943736 13.1836094,8.2843055 L13.125754,8.35355339 L11.125754,10.3535534 C10.9304918,10.5488155 10.6139094,10.5488155 10.4186472,10.3535534 C10.2450809,10.179987 10.2257957,9.91056264 10.3607918,9.7156945 L10.4186472,9.64644661 L11.566,8.499 L8.96967735,8.5 C8.69353498,8.5 8.46967735,8.27614237 8.46967735,8 C8.46967735,7.72385763 8.69353498,7.5 8.96967735,7.5 L11.564,7.499 L10.4186472,6.35355339 C10.2450809,6.17998704 10.2257957,5.91056264 10.3607918,5.7156945 L10.4186472,5.64644661 C10.5922136,5.47288026 10.861638,5.45359511 11.0565061,5.58859116 Z" fill="#575D6C" fill-rule="nonzero"></path>
    </g>
</svg>