<?xml version="1.0" encoding="UTF-8"?>
<svg width="16px" height="16px" viewBox="0 0 16 16" version="1.1" xmlns="http://www.w3.org/2000/svg" xmlns:xlink="http://www.w3.org/1999/xlink">
    <title>function icon/workload</title>
    <g id="图标入库记录" stroke="none" stroke-width="1" fill="none" fill-rule="evenodd">
        <g id="DevUI图标-入库记录230223" transform="translate(-572.000000, -120.000000)" fill="#71757F" fill-rule="nonzero">
            <g id="icon" transform="translate(572.000000, 120.000000)">
                <path d="M11,1 C12.0543618,1 12.9181651,1.81587779 12.9945143,2.85073766 L13,3 C14.1045695,3 15,3.8954305 15,5 L15,5 L15,13 C15,14.1045695 14.1045695,15 13,15 L13,15 L5,15 C3.8954305,15 3,14.1045695 3,13 L3,13 C1.9456382,13 1.08183488,12.1841222 1.00548574,11.1492623 L1,11 L1,3 C1,1.9456382 1.81587779,1.08183488 2.85073766,1.00548574 L3,1 L11,1 Z M13,4 L5,4 C4.44771525,4 4,4.44771525 4,5 L4,5 L4,13 C4,13.5522847 4.44771525,14 5,14 L5,14 L13,14 C13.5522847,14 14,13.5522847 14,13 L14,13 L14,5 C14,4.44771525 13.5522847,4 13,4 L13,4 Z M11,2 L3,2 C2.48716416,2 2.06449284,2.38604019 2.00672773,2.88337887 L2,3 L2,11 C2,11.5128358 2.38604019,11.9355072 2.88337887,11.9932723 L3,12 L3,5 C3,3.8954305 3.8954305,3 5,3 L5,3 L12,3 C12,2.48716416 11.6139598,2.06449284 11.1166211,2.00672773 L11,2 Z M9.4,10.6 L11.0833268,10.5997299 C11.2376998,10.2466932 11.5900407,10 12,10 C12.5522847,10 13,10.4477153 13,11 C13,11.5522847 12.5522847,12 12,12 C11.5904275,12 11.2383646,11.753772 11.0837642,11.401269 L9,11.4 C8.80670034,11.4 8.64542508,11.2628872 8.60812658,11.080614 L8.6,11 L8.6,9.4 L7,9.4 L6.91938605,9.39187342 L6.91938605,9.39187342 L6.91834498,9.39165894 C6.76761532,9.74956906 6.4130533,10 6,10 C5.44771525,10 5,9.55228475 5,9 C5,8.44771525 5.44771525,8 6,8 C6.4130533,8 6.76761532,8.25043094 6.92013455,8.6077413 L6.91938605,8.60812658 L7,8.6 L8.6,8.6 L8.6,7 C8.6,6.80670034 8.7371128,6.64542508 8.91938605,6.60812658 L9,6.6 L11.0833268,6.59972991 C11.2376998,6.24669321 11.5900407,6 12,6 C12.5522847,6 13,6.44771525 13,7 C13,7.55228475 12.5522847,8 12,8 C11.5904275,8 11.2383646,7.75377203 11.0837642,7.40126897 L9.4,7.4 L9.4,10.6 Z" id="形状结合"></path>
            </g>
        </g>
    </g>
</svg>