<?xml version="1.0" encoding="UTF-8"?>
<svg width="16px" height="16px" viewBox="0 0 16 16" version="1.1" xmlns="http://www.w3.org/2000/svg" xmlns:xlink="http://www.w3.org/1999/xlink">
    <title>function icon/zip</title>
    <g id="页面-1" stroke="none" stroke-width="1" fill="none" fill-rule="evenodd">
        <g id="API-starter-图标入库" transform="translate(-392.000000, -204.000000)">
            <g id="方格备份-22" transform="translate(360.000000, 180.000000)">
                <text id="图标" font-family="PingFangSC-Regular, PingFang SC" font-size="12" font-weight="normal" line-spacing="16" fill="#71757F">
                    <tspan x="30.118" y="61">ZIP</tspan>
                </text>
            </g>
            <path d="M402.481151,204.999505 C402.611083,204.993643 402.745479,205.038373 402.853553,205.146447 L402.793507,205.095209 L402.793507,205.095209 L402.846,205.139998 L402.853553,205.146447 L405.853553,208.146447 C405.95385,208.246744 405.999592,208.369711 406.00097,208.490741 L406,208.5 L406,217.5 C406,218.328427 405.328427,219 404.5,219 L404.5,219 L395.5,219 C394.671573,219 394,218.328427 394,217.5 L394,217.5 L394,206.5 C394,205.671573 394.671573,205 395.5,205 L395.5,205 Z M397,206 L395.5,206 C395.223858,206 395,206.223858 395,206.5 L395,206.5 L395,217.5 C395,217.776142 395.223858,218 395.5,218 L395.5,218 L404.5,218 C404.776142,218 405,217.776142 405,217.5 L405,217.5 L405,208.999998 L402.5,209 C402.25454,209 402.050392,208.823125 402.008056,208.589876 L402,208.5 L401.999,205.999998 L398,206 L398,207 L397,207 L397,206 Z M398,210 L398,211 L400,211 L400,215 L397,215 L397,210 L398,210 Z M399,212 L398,212 L398,214 L399,214 L399,212 Z M399,209 L399,210 L398,210 L398,209 L399,209 Z M398,208 L398,209 L397,209 L397,208 L398,208 Z M399,207 L399,208 L398,208 L398,207 L399,207 Z M403,206.707 L403,208 L404.293,208 L403,206.707 Z" id="形状结合" fill="#71757F" fill-rule="nonzero"></path>
        </g>
    </g>
</svg>