<?xml version="1.0" encoding="UTF-8"?>
<svg width="16px" height="16px" viewBox="0 0 16 16" version="1.1" xmlns="http://www.w3.org/2000/svg" xmlns:xlink="http://www.w3.org/1999/xlink">
    <title>zoom_icon</title>
    <g id="zoom_icon" stroke="none" stroke-width="1" fill="none" fill-rule="evenodd">
        <path d="M15,2.5 C15.2761424,2.5 15.5,2.72385763 15.5,3 L15.5,3 L15.5,13 C15.5,13.2761424 15.2761424,13.5 15,13.5 L15,13.5 L1,13.5 C0.723857625,13.5 0.5,13.2761424 0.5,13 L0.5,13 L0.5,3 C0.5,2.72385763 0.723857625,2.5 1,2.5 L1,2.5 Z M14.5,3.5 L1.5,3.5 L1.5,12.5 L14.5,12.5 L14.5,3.5 Z M4.64644661,5.64644661 C4.84170876,5.45118446 5.15829124,5.45118446 5.35355339,5.64644661 L5.35355339,5.64644661 L7.35355339,7.64644661 L7.41140884,7.7156945 C7.54640489,7.91056264 7.52711974,8.17998704 7.35355339,8.35355339 L7.35355339,8.35355339 L5.35355339,10.3535534 L5.2843055,10.4114088 C5.08943736,10.5464049 4.82001296,10.5271197 4.64644661,10.3535534 L4.64644661,10.3535534 L4.58859116,10.2843055 C4.45359511,10.0894374 4.47288026,9.82001296 4.64644661,9.64644661 L4.64644661,9.64644661 L5.793,8.499 L3.5,8.5 C3.22385763,8.5 3,8.27614237 3,8 C3,7.72385763 3.22385763,7.5 3.5,7.5 L5.793,7.499 L4.64644661,6.35355339 L4.58859116,6.2843055 C4.45359511,6.08943736 4.47288026,5.82001296 4.64644661,5.64644661 Z M10.7156945,5.58859116 C10.9105626,5.45359511 11.179987,5.47288026 11.3535534,5.64644661 L11.3535534,5.64644661 L11.4114088,5.7156945 C11.5464049,5.91056264 11.5271197,6.17998704 11.3535534,6.35355339 L11.3535534,6.35355339 L10.208,7.499 L12.5,7.5 C12.7761424,7.5 13,7.72385763 13,8 C13,8.27614237 12.7761424,8.5 12.5,8.5 L10.206,8.499 L11.3535534,9.64644661 L11.4114088,9.7156945 C11.5464049,9.91056264 11.5271197,10.179987 11.3535534,10.3535534 C11.1582912,10.5488155 10.8417088,10.5488155 10.6464466,10.3535534 L10.6464466,10.3535534 L8.6464466,8.35355339 L8.5885912,8.2843055 C8.4535951,8.08943736 8.4728803,7.82001296 8.6464466,7.64644661 L8.6464466,7.64644661 L10.6464466,5.64644661 Z" fill="#575D6C" fill-rule="nonzero"></path>
    </g>
</svg>