<?xml version="1.0" encoding="UTF-8"?>
<svg width="16px" height="16px" viewBox="0 0 16 16" version="1.1" xmlns="http://www.w3.org/2000/svg" xmlns:xlink="http://www.w3.org/1999/xlink">
    <title>zoomall_icon</title>
    <g id="zoomall_icon" stroke="none" stroke-width="1" fill="none" fill-rule="evenodd">
        <path d="M12,1.83333333 C12.2454599,1.83333333 12.4496084,2.01020849 12.4919443,2.2434577 L12.5,2.33333333 L12.5,3.49933333 L15,3.5 C15.2454599,3.5 15.4496084,3.67687516 15.4919443,3.91012437 L15.5,4 L15.5,14 C15.5,14.2454599 15.3231248,14.4496084 15.0898756,14.4919443 L15,14.5 L3,14.5 C2.75454011,14.5 2.55039163,14.3231248 2.50805567,14.0898756 L2.5,14 L2.5,12.8333333 L1,12.8333333 C0.754540111,12.8333333 0.55039163,12.6564582 0.508055669,12.423209 L0.5,12.3333333 L0.5,2.62745098 C0.5,2.18882264 0.86298961,1.88332508 1.28602316,1.83892088 L1.39285714,1.83333333 L12,1.83333333 Z M14.5,4.5 L3.5,4.5 L3.5,13.5 L14.5,13.5 L14.5,4.5 Z M11.5,2.833 L1.5,2.833 L1.5,11.833 L2.5,11.8333333 L2.5,4 C2.5,3.75454011 2.67687516,3.55039163 2.91012437,3.50805567 L3,3.5 L11.5,3.49933333 L11.5,2.833 Z M5.64644661,6.64644661 C5.84170876,6.45118446 6.15829124,6.45118446 6.35355339,6.64644661 L6.35355339,6.64644661 L8.35355339,8.64644661 L8.41140884,8.7156945 C8.54640489,8.91056264 8.52711974,9.17998704 8.35355339,9.35355339 L8.35355339,9.35355339 L6.35355339,11.3535534 L6.2843055,11.4114088 C6.08943736,11.5464049 5.82001296,11.5271197 5.64644661,11.3535534 L5.64644661,11.3535534 L5.58859116,11.2843055 C5.45359511,11.0894374 5.47288026,10.820013 5.64644661,10.6464466 L5.64644661,10.6464466 L6.793,9.49933333 L4.5,9.5 C4.22385763,9.5 4,9.27614237 4,9 C4,8.72385763 4.22385763,8.5 4.5,8.5 L6.793,8.49933333 L5.64644661,7.35355339 L5.58859116,7.2843055 C5.45359511,7.08943736 5.47288026,6.82001296 5.64644661,6.64644661 Z M11.7156945,6.58859116 C11.9105626,6.45359511 12.179987,6.47288026 12.3535534,6.64644661 L12.3535534,6.64644661 L12.4114088,6.7156945 C12.5464049,6.91056264 12.5271197,7.17998704 12.3535534,7.35355339 L12.3535534,7.35355339 L11.207,8.49933333 L13.5,8.5 C13.7761424,8.5 14,8.72385763 14,9 C14,9.27614237 13.7761424,9.5 13.5,9.5 L11.207,9.49933333 L12.3535534,10.6464466 L12.4114088,10.7156945 C12.5464049,10.9105626 12.5271197,11.179987 12.3535534,11.3535534 C12.1582912,11.5488155 11.8417088,11.5488155 11.6464466,11.3535534 L11.6464466,11.3535534 L9.6464466,9.35355339 L9.5885912,9.2843055 C9.4535951,9.08943736 9.4728803,8.82001296 9.6464466,8.64644661 L9.6464466,8.64644661 L11.6464466,6.64644661 Z" fill="#575D6C" fill-rule="nonzero"></path>
    </g>
</svg>