<?xml version="1.0" encoding="UTF-8"?>
<svg width="16px" height="16px" viewBox="0 0 16 16" version="1.1" xmlns="http://www.w3.org/2000/svg" xmlns:xlink="http://www.w3.org/1999/xlink">
    <title>zoom-screen</title>
    <g id="zoom-screen" stroke="none" stroke-width="1" fill="none" fill-rule="evenodd">
        <path d="M7.15384615,8.38461538 C7.38042451,8.38461538 7.56886926,8.54788476 7.60794861,8.76319172 L7.61538462,8.84615385 L7.61538462,12.5384615 C7.61538462,12.7933622 7.40874681,13 7.15384615,13 C6.92726779,13 6.73882304,12.8367306 6.69974369,12.6214237 L6.69230769,12.5384615 L6.692,9.959 L2.78789544,13.8648185 C2.60765346,14.0450605 2.31542347,14.0450605 2.13518149,13.8648185 C1.97496639,13.7046034 1.95716471,13.455904 2.08177645,13.2760257 L2.13518149,13.2121046 L6.039,9.308 L3.46153846,9.30769231 C3.2349601,9.30769231 3.04651535,9.14442293 3.007436,8.92911597 L3,8.84615385 C3,8.61957549 3.16326938,8.43113074 3.37857634,8.39205139 L3.46153846,8.38461538 L7.15384615,8.38461538 Z M13.8648185,2.13518149 C14.0250336,2.29539658 14.0428353,2.54409603 13.9182235,2.72397431 L13.8648185,2.78789544 L9.959,6.692 L12.5384615,6.69230769 C12.7650399,6.69230769 12.9534846,6.85557707 12.992564,7.07088403 L13,7.15384615 C13,7.38042451 12.8367306,7.56886926 12.6214237,7.60794861 L12.5384615,7.61538462 L8.84615385,7.61538462 C8.61957549,7.61538462 8.43113074,7.45211524 8.39205139,7.23680828 L8.38461538,7.15384615 L8.38461538,3.46153846 C8.38461538,3.20663781 8.59125319,3 8.84615385,3 C9.07273221,3 9.26117696,3.16326938 9.30025631,3.37857634 L9.30769231,3.46153846 L9.307,6.04 L13.2121046,2.13518149 C13.3923465,1.9549395 13.6845765,1.9549395 13.8648185,2.13518149 Z" id="形状结合" fill="#71757F" fill-rule="nonzero"></path>
    </g>
</svg>