<?xml version="1.0" encoding="UTF-8"?>
<svg width="16px" height="16px" viewBox="0 0 16 16" version="1.1" xmlns="http://www.w3.org/2000/svg" xmlns:xlink="http://www.w3.org/1999/xlink">
    <title>abstract</title>
    <g id="é¡µé¢-1" stroke="none" stroke-width="1" fill="none" fill-rule="evenodd">
        <path d="M14,9.87100491 C14.2454599,9.87100491 14.4496084,10.0478801 14.4919443,10.2811293 L14.5,10.3710049 L14.5,12.0852906 C14.5,13.2550366 13.5929625,14.2129326 12.4438495,14.2940167 L12.2857143,14.2995763 L3.71428571,14.2995763 C2.54453975,14.2995763 1.58664375,13.3925389 1.50555968,12.2434259 L1.5,12.0852906 L1.5,10.3710049 C1.5,10.0948625 1.72385763,9.87100491 2,9.87100491 C2.24545989,9.87100491 2.44960837,10.0478801 2.49194433,10.2811293 L2.5,10.3710049 L2.5,12.0852906 C2.5,12.7140076 2.9778211,13.2311236 3.59013205,13.2933071 L3.71428571,13.2995763 L12.2857143,13.2995763 C12.9144313,13.2995763 13.4315472,12.8217552 13.4937308,12.2094443 L13.5,12.0852906 L13.5,10.3710049 C13.5,10.0948625 13.7238576,9.87100491 14,9.87100491 Z M9.4572646,1.70040851 C9.54645299,1.6967985 9.63760545,1.71701258 9.72072707,1.76511294 C9.72620635,1.76931168 9.73201632,1.77277092 9.73774869,1.776343 L9.783,1.808 L9.78141861,1.80689611 L9.784,1.808 L9.78617363,1.81042734 L9.796,1.819 L9.81772013,1.83818212 L9.81772013,1.83818212 L9.8319198,1.85219657 L12.3582356,4.44679117 C12.6461855,4.74252351 12.4698108,5.22562852 12.0854525,5.28872816 L12,5.29559951 L10.3157895,5.29559951 C9.61531657,5.29559951 9.04452641,4.75170051 8.97979841,4.06172063 L8.97368421,3.93073464 L8.973,2.701 L5.26315789,2.70100491 C4.87957664,2.70100491 4.55796307,2.99848172 4.50702456,3.38949605 L4.5,3.49830221 L4.5,10.5037076 C4.5,10.9100433 4.78964847,11.2413814 5.16023802,11.2937827 L5.26315789,11.3010049 L10.7368421,11.3010049 C11.1204234,11.3010049 11.4420369,11.0035281 11.4929754,10.6125138 L11.5,10.5037076 L11.5,6.09388048 C11.5,5.81773811 11.7238576,5.59388048 12,5.59388048 C12.2454599,5.59388048 12.4496084,5.77075564 12.4919443,6.00400485 L12.5,6.09388048 L12.5,10.5037076 C12.5,11.4439034 11.7903061,12.219788 10.8818584,12.295026 L10.7368421,12.3010049 L5.26315789,12.3010049 C4.33520415,12.3010049 3.57911252,11.5721301 3.50582324,10.6507159 L3.5,10.5037076 L3.5,3.49830221 C3.5,2.55810648 4.20969395,1.78222183 5.11814159,1.70698385 L5.26315789,1.70100491 L9.4572646,1.70040851 Z M9.973,3.43000491 L9.97368421,3.93073464 C9.97368421,4.08407175 10.0615433,4.21263968 10.1839042,4.26734008 L10.2477128,4.28830734 L10.3157895,4.29559951 L10.815,4.29500491 L9.973,3.43000491 Z" id="abstract" fill="#191919" fill-rule="nonzero"></path>
    </g>
</svg>