<?xml version="1.0" encoding="UTF-8"?>
<svg width="16px" height="16px" viewBox="0 0 16 16" version="1.1" xmlns="http://www.w3.org/2000/svg" xmlns:xlink="http://www.w3.org/1999/xlink">
    <title>Access2准入</title>
    <g id="Access2准入" stroke="none" stroke-width="1" fill="none" fill-rule="evenodd">
        <g transform="translate(1.000000, 2.000000)" fill="#71757F" fill-rule="nonzero" id="路径">
            <path d="M5.9424211,2.526804 C6.23947673,2.75236203 6.48494873,3.03874603 6.6624211,3.366804 L4.1024211,3.456804 C4.03352789,3.45819437 3.97326326,3.50353672 3.95283921,3.56934755 C3.93241516,3.63515839 3.95641994,3.70665331 4.0124211,3.746804 L9.0124211,7.236804 C9.12451201,7.31364053 9.26794719,7.3283101 9.39327142,7.27575478 C9.51859565,7.22319945 9.60866378,7.11060914 9.6324211,6.976804 L11.1624211,0.676804003 C11.1624211,0.536804003 11.0424211,0.416804003 10.9424211,0.516804003 L9.2624211,2.196804 C8.66863416,1.4766961 7.92907618,0.890502681 7.0924211,0.476804003 C3.6224211,-1.213196 -0.247578902,1.856804 0.0124210982,5.486804 C0.0124210982,5.6027838 0.106441301,5.696804 0.222421098,5.696804 C0.338400896,5.696804 0.432421098,5.6027838 0.432421098,5.486804 C0.752421098,2.986804 3.7524211,0.816804003 5.9424211,2.526804 Z"></path>
            <path d="M13.2024211,3.80512399 C12.9902479,3.80512399 12.7867648,3.88947205 12.6367357,4.03950115 C12.4867066,4.18953025 12.4024211,4.39301338 12.4024211,4.60518657 L12.4024211,9.51518657 C12.4135812,10.3342824 11.7614284,11.0087692 10.9424211,11.0251866 L5.4224211,11.0251866 C4.62312322,10.9822979 4.000527,10.3155459 4.0124211,9.51518657 L4.0124211,8.51518657 C4.0124211,8.07335877 3.6542489,7.71518657 3.2124211,7.71518657 C2.7705933,7.71518657 2.4124211,8.07335877 2.4124211,8.51518657 L2.4124211,9.51518657 C2.40442586,10.334717 2.72233526,11.1238536 3.29620487,11.7089756 C3.87007448,12.2940975 4.65288993,12.6272686 5.4724211,12.6351866 L10.9924211,12.6351866 C12.6833139,12.5969557 14.0292739,11.2064275 14.0124211,9.51518657 L14.0124211,4.60518657 C14.0124378,4.39126935 13.926781,4.18625595 13.7745821,4.03593605 C13.6223832,3.88561615 13.4163216,3.80251261 13.2024211,3.80512399 Z"></path>
        </g>
    </g>
</svg>