<?xml version="1.0" encoding="UTF-8"?>
<svg width="16px" height="16px" viewBox="0 0 16 16" version="1.1" xmlns="http://www.w3.org/2000/svg" xmlns:xlink="http://www.w3.org/1999/xlink">
    <!-- Generator: Sketch 63.1 (92452) - https://sketch.com -->
    <title>操作/添加接口用例</title>
    <desc>Created with Sketch.</desc>
    <g id="操作/添加接口用例" stroke="none" stroke-width="1" fill="none" fill-rule="evenodd">
        <path d="M11,0 C11.5522847,0 12,0.44771525 12,1 L12,2 L14,2 C14.5522847,2 15,2.44771525 15,3 L15,8 C15,11.3137085 12.3137085,14 9,14 L9,15 C9,15.5522847 8.55228475,16 8,16 C7.44771525,16 7,15.5522847 7,15 L7,14 C3.6862915,14 1,11.3137085 1,8 L1,3 C1,2.44771525 1.44771525,2 2,2 L4,2 L4,1 C4,0.44771525 4.44771525,0 5,0 C5.55228475,0 6,0.44771525 6,1 L6,2 L10,2 L10,1 C10,0.44771525 10.4477153,0 11,0 Z M13,4 L3,4 L3,8 C3,10.1421954 4.68396847,11.8910789 6.80035966,11.9951047 L7,12 L9,12 C11.1421954,12 12.8910789,10.3160315 12.9951047,8.19964034 L13,8 L13,4 Z M8,5 C8.55228475,5 9,5.44771525 9,6 L9,7 L10,7 C10.5522847,7 11,7.44771525 11,8 C11,8.55228475 10.5522847,9 10,9 L9,9 L9,10 C9,10.5522847 8.55228475,11 8,11 C7.44771525,11 7,10.5522847 7,10 L7,9 L6,9 C5.44771525,9 5,8.55228475 5,8 C5,7.44771525 5.44771525,7 6,7 L7,7 L7,6 C7,5.44771525 7.44771525,5 8,5 Z" id="形状" fill="#575D6C" fill-rule="nonzero"></path>
    </g>
</svg>