<?xml version="1.0" encoding="UTF-8"?>
<svg width="16px" height="16px" viewBox="0 0 16 16" version="1.1" xmlns="http://www.w3.org/2000/svg" xmlns:xlink="http://www.w3.org/1999/xlink">
    <!-- Generator: Sketch 63.1 (92452) - https://sketch.com -->
    <title>操作/添加手工用例</title>
    <desc>Created with Sketch.</desc>
    <g id="操作/添加手工用例" stroke="none" stroke-width="1" fill="none" fill-rule="evenodd">
        <path d="M6.95705742,0 C8.61391167,0 9.95705742,1.34314575 9.95705742,3 L9.957,5.042 L13.3649659,5.75164761 C14.2924045,5.94486396 14.9570574,6.762257 14.9570574,7.70960845 L14.9570574,8.31921387 C14.9570574,8.87149862 14.5093422,9.31921387 13.9570574,9.31921387 L13.7900611,9.31921387 C13.3653947,9.31921387 13.0149495,9.00143531 12.9635477,8.59070041 L12.9570574,8.4862102 C12.9570574,8.06327891 12.6918192,7.69067171 12.3022713,7.54763885 L12.1930548,7.51445649 L8.72048249,6.67152803 C8.30936468,6.57173374 8.0097987,6.22591865 7.96281637,5.8134909 L7.95637137,5.69949385 L7.95705742,3 C7.95705742,2.44771525 7.50934217,2 6.95705742,2 C6.44422158,2 6.02155026,2.38604019 5.96378515,2.88337887 L5.95705742,3 L5.9562711,10.509619 C5.95626085,10.6074922 5.90850831,10.6992071 5.82833274,10.7553411 C5.71199623,10.8367928 5.55794326,10.8241891 5.45646026,10.733454 L5.41051758,10.6816492 L4.31940927,9.12323261 C4.00263175,8.67082742 3.37908597,8.56087948 2.92668079,8.877657 C2.509076,9.17006702 2.3832691,9.72386537 2.61553933,10.1631638 L2.68110518,10.2703855 L4.97541092,13.5469937 C5.17787687,13.836145 5.42483508,13.9691804 5.80716195,13.9951741 L5.95705742,14 L7.999,14 C8.51165453,14.0004644 8.93424313,14.3862751 8.99261879,14.883422 L8.9995,15 C9.00022059,15.5128357 8.61442494,15.9356999 8.11711756,15.9937137 L8,16 L5.95705742,16 C5.87523746,16 5.79571258,15.9901736 5.71959852,15.9716366 C4.80085569,15.9490164 3.90478702,15.5048778 3.33710683,14.6941465 L1.04280109,11.4175384 C0.0924685334,10.0603228 0.422312368,8.18968547 1.77952791,7.23935291 C2.43915365,6.777478 3.22005454,6.61799303 3.9576371,6.73187574 L3.95705742,3 C3.95705742,1.34314575 5.30020317,0 6.95705742,0 Z M12.5,10 C13.0522847,10 13.5,10.4477153 13.5,11 L13.5,12 L14.5,12 C15.0522847,12 15.5,12.4477153 15.5,13 C15.5,13.5522847 15.0522847,14 14.5,14 L13.5,14 L13.5,15 C13.5,15.5522847 13.0522847,16 12.5,16 C11.9477153,16 11.5,15.5522847 11.5,15 L11.5,14 L10.5,14 C9.94771525,14 9.5,13.5522847 9.5,13 C9.5,12.4477153 9.94771525,12 10.5,12 L11.5,12 L11.5,11 C11.5,10.4477153 11.9477153,10 12.5,10 Z" id="形状" fill="#575D6C"></path>
    </g>
</svg>