<?xml version="1.0" encoding="UTF-8"?>
<svg width="16px" height="16px" viewBox="0 0 16 16" version="1.1" xmlns="http://www.w3.org/2000/svg" xmlns:xlink="http://www.w3.org/1999/xlink">
    <!-- Generator: Sketch 63.1 (92452) - https://sketch.com -->
    <title>操作/新建bug</title>
    <desc>Created with Sketch.</desc>
    <g id="操作/新建bug" stroke="none" stroke-width="1" fill="none" fill-rule="evenodd">
        <path d="M13,10 C13.5522847,10 14,10.4477153 14,11 L14,12 L15,12 C15.5522847,12 16,12.4477153 16,13 C16,13.5522847 15.5522847,14 15,14 L14,14 L14,15 C14,15.5522847 13.5522847,16 13,16 C12.4477153,16 12,15.5522847 12,15 L12,14 L11,14 C10.4477153,14 10,13.5522847 10,13 C10,12.4477153 10.4477153,12 11,12 L12,12 L12,11 C12,10.4477153 12.4477153,10 13,10 Z M8,0.3 C9.65685425,0.3 11,1.64314575 11,3.3 C11,3.72394602 10.9120622,4.12735307 10.7534322,4.49297553 C10.9554404,4.65293441 11.1471821,4.83004422 11.3272236,5.02257702 L13.2980762,3.8839746 C13.7763688,3.60783222 14.3879592,3.77170738 14.6641016,4.25 C14.9205195,4.69412886 14.7975346,5.25319306 14.3957092,5.55188845 L14.2980762,5.6160254 L12.4230244,6.69968172 C12.6455137,7.20445754 12.8097076,7.75197878 12.9048703,8.32930669 L12.9480305,8.6317513 C12.972987,8.8383467 12.8430426,9.03211279 12.6424348,9.08743914 C12.3799157,9.15985341 12.1657696,9.2392845 12,9.32574463 C11.8447848,9.40669993 11.6446498,9.53376254 11.3995951,9.70693247 C11.2853067,9.78766909 11.1272036,9.7604942 11.0464495,9.6462182 C11.0263014,9.61770636 11.0123732,9.58549934 11.0053264,9.55167937 L11,9.5 C11,7.290861 9.65685425,5.5 8,5.5 C6.34314575,5.5 5,7.290861 5,9.5 C5,11.2412624 5.83445995,12.72266 6.99927206,13.2720492 L7,9 C7,8.44771525 7.44771525,8 8,8 C8.55228475,8 9,8.44771525 9,9 L8.99946341,14.5006464 C8.99939728,15.0525899 8.55194354,15.5 8,15.5 C6.72215943,15.5 5.55627871,14.9247715 4.67236978,13.978329 L2.70096189,15.1160254 C2.22266927,15.3921678 1.61107887,15.2282926 1.33493649,14.75 C1.07851857,14.3058711 1.20150352,13.7468069 1.6033289,13.4481115 L1.70096189,13.3839746 L3.57711389,12.3009445 C3.33274581,11.7464352 3.15867357,11.1404381 3.0691379,10.500042 L1,10.5 C0.44771525,10.5 5.77315973e-15,10.0522847 5.77315973e-15,9.5 C5.77315973e-15,8.94771525 0.44771525,8.5 1,8.5 L3.06928776,8.49888675 C3.15883132,7.85914617 3.33274066,7.25374778 3.57681618,6.69973111 L1.70096189,5.6160254 C1.22266927,5.33988303 1.05879412,4.72829262 1.33493649,4.25 C1.61107887,3.77170738 2.22266927,3.60783222 2.70096189,3.8839746 L4.67275819,5.0212552 C4.85266432,4.82866143 5.04424831,4.65144408 5.24607706,4.49132285 C5.08793781,4.12735307 5,3.72394602 5,3.3 C5,1.64314575 6.34314575,0.3 8,0.3 Z M8,2.3 C7.44771525,2.3 7,2.74771525 7,3.3 C7,3.40775397 7.01704285,3.51152737 7.04858004,3.60877166 C7.35744965,3.53718521 7.67510605,3.5 8,3.5 C8.32489395,3.5 8.64255035,3.53718521 8.95017487,3.60820247 C8.98295715,3.51152737 9,3.40775397 9,3.3 C9,2.74771525 8.55228475,2.3 8,2.3 Z" id="形状" fill="#575D6C"></path>
    </g>
</svg>