<?xml version="1.0" encoding="UTF-8"?>
<svg width="16px" height="16px" viewBox="0 0 16 16" version="1.1" xmlns="http://www.w3.org/2000/svg" xmlns:xlink="http://www.w3.org/1999/xlink">
    <!-- Generator: Sketch 63.1 (92452) - https://sketch.com -->
    <title>操作/新建目录</title>
    <desc>Created with Sketch.</desc>
    <g id="操作/新建目录" stroke="none" stroke-width="1" fill="none" fill-rule="evenodd">
        <path d="M12.5,9.5 C13.0522847,9.5 13.5,9.94771525 13.5,10.5 L13.5,11.5 L14.5,11.5 C15.0522847,11.5 15.5,11.9477153 15.5,12.5 C15.5,13.0522847 15.0522847,13.5 14.5,13.5 L13.5,13.5 L13.5,14.5 C13.5,15.0522847 13.0522847,15.5 12.5,15.5 C11.9477153,15.5 11.5,15.0522847 11.5,14.5 L11.5,13.5 L10.5,13.5 C9.94771525,13.5 9.5,13.0522847 9.5,12.5 C9.5,11.9477153 9.94771525,11.5 10.5,11.5 L11.5,11.5 L11.5,10.5 C11.5,9.94771525 11.9477153,9.5 12.5,9.5 Z M6,0.5 C6.3147573,0.5 6.61114562,0.648194157 6.8,0.9 L7.7,2.1 C7.88885438,2.35180584 8.1852427,2.5 8.5,2.5 L13.5,2.5 C14.0522847,2.5 14.5,2.94771525 14.5,3.5 L14.5,7.5 C14.5,8.01283584 14.1139598,8.43550716 13.6166211,8.49327227 L13.5,8.5 L2.5,8.5 L2.5,12.5 L7.5,12.5 C8.05228475,12.5 8.5,12.9477153 8.5,13.5 C8.5,14.0522847 8.05228475,14.5 7.5,14.5 L1.5,14.5 C0.94771525,14.5 0.5,14.0522847 0.5,13.5 L0.5,1.5 C0.5,0.94771525 0.94771525,0.5 1.5,0.5 L6,0.5 Z M5.02528939,2.5 L2.5,2.5 L2.5,6.5 L12.5,6.5 L12.5,4.5 L7.60654655,4.5 C7.30613796,4.5 7.02164455,4.36494796 6.8317303,4.1321865 L5.80010564,2.8678135 C5.61019139,2.63505204 5.32569798,2.5 5.02528939,2.5 Z" id="形状" fill="#575D6C"></path>
    </g>
</svg>