<?xml version="1.0" encoding="UTF-8"?>
<svg width="16px" height="16px" viewBox="0 0 16 16" version="1.1" xmlns="http://www.w3.org/2000/svg" xmlns:xlink="http://www.w3.org/1999/xlink">
    <!-- Generator: Sketch 63.1 (92452) - https://sketch.com -->
    <title>操作/添加子级别的树节点</title>
    <desc>Created with Sketch.</desc>
    <g id="操作/添加子级别的树节点" stroke="none" stroke-width="1" fill="none" fill-rule="evenodd">
        <path d="M12,8.5 C12.5522847,8.5 13,8.94771525 13,9.5 L13,11 L14.5,11 C15.0522847,11 15.5,11.4477153 15.5,12 C15.5,12.5522847 15.0522847,13 14.5,13 L13,13 L13,14.5 C13,15.0522847 12.5522847,15.5 12,15.5 C11.4477153,15.5 11,15.0522847 11,14.5 L11,13 L9.5,13 C8.94771525,13 8.5,12.5522847 8.5,12 C8.5,11.4477153 8.94771525,11 9.5,11 L11,11 L11,9.5 C11,8.94771525 11.4477153,8.5 12,8.5 Z M13.5,1 C14.0522847,1 14.5,1.44771525 14.5,2 L14.5,6 C14.5,6.55228475 14.0522847,7 13.5,7 L4.5,7 L4.5,11 L6.5,11 C7.05228475,11 7.5,11.4477153 7.5,12 C7.5,12.5522847 7.05228475,13 6.5,13 L3.5,13 C2.94771525,13 2.5,12.5522847 2.5,12 L2.5,7 L1.5,7 C0.94771525,7 0.5,6.55228475 0.5,6 L0.5,2 C0.5,1.44771525 0.94771525,1 1.5,1 L13.5,1 Z M12.5,3 L2.5,3 L2.5,5 L12.5,5 L12.5,3 Z" id="形状" fill="#575D6C"></path>
    </g>
</svg>