<?xml version="1.0" encoding="UTF-8"?>
<svg width="16px" height="16px" viewBox="0 0 16 16" version="1.1" xmlns="http://www.w3.org/2000/svg" xmlns:xlink="http://www.w3.org/1999/xlink">
    <!-- Generator: Sketch 63.1 (92452) - https://sketch.com -->
    <title>操作/添加成员</title>
    <desc>Created with Sketch.</desc>
    <g id="操作/添加成员" stroke="none" stroke-width="1" fill="none" fill-rule="evenodd">
        <path d="M7.99427443,8.89663125 L8,9 L8,9.08025174 C8.00003303,9.58553361 7.62311936,10.0114328 7.12158599,10.0728659 C6.9524285,10.0935861 6.809836,10.1168259 6.6938085,10.1425854 C4.66553632,10.5928845 3.02364609,12.0697806 2.34141142,14 L15,14 C15.5522847,14 16,14.4477153 16,15 C16,15.5522847 15.5522847,16 15,16 L0.773704151,16 C0.366757506,16 0.0368620682,15.6700726 0.0368620682,15.2631259 L0.040564911,15.1893485 C0.404330983,11.5745415 3.17451792,8.66971641 6.72494276,8.10105602 C6.79423095,8.08995835 6.87280518,8.07952798 6.96066543,8.06976491 C7.47442264,8.01267012 7.93718544,8.38287339 7.99427443,8.89663125 Z M12,7.5 C12.5522847,7.5 13,7.94771525 13,8.5 L13,9.5 L14,9.5 C14.5522847,9.5 15,9.94771525 15,10.5 C15,11.0522847 14.5522847,11.5 14,11.5 L13,11.5 L13,12.5 C13,13.0522847 12.5522847,13.5 12,13.5 C11.4477153,13.5 11,13.0522847 11,12.5 L11,11.5 L10,11.5 C9.44771525,11.5 9,11.0522847 9,10.5 C9,9.94771525 9.44771525,9.5 10,9.5 L11,9.5 L11,8.5 C11,7.94771525 11.4477153,7.5 12,7.5 Z M8,0 C10.209139,0 12,1.790861 12,4 C12,6.209139 10.209139,8 8,8 C5.790861,8 4,6.209139 4,4 C4,1.790861 5.790861,0 8,0 Z M8,2 C6.8954305,2 6,2.8954305 6,4 C6,5.1045695 6.8954305,6 8,6 C9.1045695,6 10,5.1045695 10,4 C10,2.8954305 9.1045695,2 8,2 Z" id="形状" fill="#575D6C"></path>
    </g>
</svg>