<?xml version="1.0" encoding="UTF-8"?>
<svg width="16px" height="16px" viewBox="0 0 16 16" version="1.1" xmlns="http://www.w3.org/2000/svg" xmlns:xlink="http://www.w3.org/1999/xlink">
    <title>add-file</title>
    <g id="页面-1" stroke="none" stroke-width="1" fill="none" fill-rule="evenodd">
        <path d="M10.9166667,1 C11.8348401,1 12.587859,1.70711027 12.6608655,2.60647279 L12.6666667,2.75 L12.666,6.833 L11.5,6.833 L11.5,2.75 C11.5,2.46005051 11.2884545,2.2195101 11.0112864,2.17430152 L10.9166667,2.16666667 L4.19608333,2.16666667 L2.16666667,4.70358333 L2.16666667,12.0833333 C2.16666667,12.3732828 2.37821212,12.6138232 2.6553803,12.6590318 L2.75,12.6666667 L8,12.666 L8,13.8333333 L2.75,13.8333333 C1.8318266,13.8333333 1.07880766,13.1262231 1.0058012,12.2268605 L1,12.0833333 L1,4.5 C1,4.40065622 1.02535775,4.30353089 1.07294513,4.21754158 L1.12782653,4.13559456 L3.46115986,1.21892789 C3.54972021,1.10822745 3.67469577,1.03453386 3.81187365,1.00948445 L3.91666667,1 L10.9166667,1 Z M12.6666667,8 L12.6656667,10.333 L15,10.3333333 L15,11.5 L12.6656667,11.5 L12.6666667,13.8333333 L11.5,13.8333333 L11.4996667,11.5 L9.16666667,11.5 L9.16666667,10.3333333 L11.4996667,10.333 L11.5,8 L12.6666667,8 Z" id="add-file" fill="#191919"></path>
    </g>
</svg>