<?xml version="1.0" encoding="UTF-8"?>
<svg width="16px" height="16px" viewBox="0 0 16 16" version="1.1" xmlns="http://www.w3.org/2000/svg" xmlns:xlink="http://www.w3.org/1999/xlink">
    <!-- Generator: Sketch 63.1 (92452) - https://sketch.com -->
    <title>操作/添加同级别的树节点</title>
    <desc>Created with Sketch.</desc>
    <g id="操作/添加同级别的树节点" stroke="none" stroke-width="1" fill="none" fill-rule="evenodd">
        <path d="M10,8.5 C10.5522847,8.5 11,8.94771525 11,9.5 L11,11 L12.5,11 C13.0522847,11 13.5,11.4477153 13.5,12 C13.5,12.5522847 13.0522847,13 12.5,13 L11,13 L11,14.5 C11,15.0522847 10.5522847,15.5 10,15.5 C9.44771525,15.5 9,15.0522847 9,14.5 L9,13 L7.5,13 C6.94771525,13 6.5,12.5522847 6.5,12 C6.5,11.4477153 6.94771525,11 7.5,11 L9,11 L9,9.5 C9,8.94771525 9.44771525,8.5 10,8.5 Z M14.5,1 C15.0522847,1 15.5,1.44771525 15.5,2 L15.5,6 C15.5,6.55228475 15.0522847,7 14.5,7 L5.5,7 C4.94771525,7 4.5,6.55228475 4.5,6 L4.5,5 L2.5,5 L2.5,11 L4.5,11 C5.05228475,11 5.5,11.4477153 5.5,12 C5.5,12.5522847 5.05228475,13 4.5,13 L1.5,13 C0.94771525,13 0.5,12.5522847 0.5,12 L0.5,4 C0.5,3.44771525 0.94771525,3 1.5,3 L4.5,3 L4.5,2 C4.5,1.44771525 4.94771525,1 5.5,1 L14.5,1 Z M13.5,3 L6.5,3 L6.5,5 L13.5,5 L13.5,3 Z" id="形状" fill="#575D6C"></path>
    </g>
</svg>