<?xml version="1.0" encoding="UTF-8"?>
<svg width="16px" height="16px" viewBox="0 0 16 16" version="1.1" xmlns="http://www.w3.org/2000/svg" xmlns:xlink="http://www.w3.org/1999/xlink">
    <title>icon icon-add</title>
    <g id="icon-icon-add" stroke="none" stroke-width="1" fill="none" fill-rule="evenodd">
        <path d="M8,2 C8.34189056,2 8.62367144,2.25736013 8.66218151,2.58891925 L8.66666667,2.66666667 L8.666,7.333 L13.3333333,7.33333333 C13.7015232,7.33333333 14,7.63181017 14,8 C14,8.34189056 13.7426399,8.62367144 13.4110808,8.66218151 L13.3333333,8.66666667 L8.666,8.666 L8.66666667,13.3333333 C8.66666667,13.7015232 8.36818983,14 8,14 C7.65810944,14 7.37632856,13.7426399 7.33781849,13.4110808 L7.33333333,13.3333333 L7.333,8.666 L2.66666667,8.66666667 C2.29847683,8.66666667 2,8.36818983 2,8 C2,7.65810944 2.25736013,7.37632856 2.58891925,7.33781849 L2.66666667,7.33333333 L7.333,7.333 L7.33333333,2.66666667 C7.33333333,2.29847683 7.63181017,2 8,2 Z" id="形状结合" fill="#71757F"></path>
    </g>
</svg>