<?xml version="1.0" encoding="UTF-8"?>
<svg width="16px" height="16px" viewBox="0 0 16 16" version="1.1" xmlns="http://www.w3.org/2000/svg" xmlns:xlink="http://www.w3.org/1999/xlink">
    <title>所有项目</title>
    <g id="所有项目" stroke="none" stroke-width="1" fill="none" fill-rule="evenodd">
        <path d="M12.5,0.5 C14.1568542,0.5 15.5,1.84314575 15.5,3.5 L15.5,3.5 L15.5,12.5 C15.5,14.1568542 14.1568542,15.5 12.5,15.5 L12.5,15.5 L3.5,15.5 C1.84314575,15.5 0.5,14.1568542 0.5,12.5 L0.5,12.5 L0.5,3.5 C0.5,1.84314575 1.84314575,0.5 3.5,0.5 L3.5,0.5 Z M13.5,6 L2.5,6 L2.5,12.5 C2.5,13.0128358 2.88604019,13.4355072 3.38337887,13.4932723 L3.5,13.5 L12.5,13.5 C13.0522847,13.5 13.5,13.0522847 13.5,12.5 L13.5,12.5 L13.5,6 Z M11,10.5 C11.5522847,10.5 12,10.9477153 12,11.5 C12,12.0522847 11.5522847,12.5 11,12.5 L8,12.5 C7.44771525,12.5 7,12.0522847 7,11.5 C7,10.9477153 7.44771525,10.5 8,10.5 L11,10.5 Z M5,10.5 C5.55228475,10.5 6,10.9477153 6,11.5 C6,12.0522847 5.55228475,12.5 5,12.5 C4.44771525,12.5 4,12.0522847 4,11.5 C4,10.9477153 4.44771525,10.5 5,10.5 Z M11,7 C11.5522847,7 12,7.44771525 12,8 C12,8.55228475 11.5522847,9 11,9 L8,9 C7.44771525,9 7,8.55228475 7,8 C7,7.44771525 7.44771525,7 8,7 L11,7 Z M5,7 C5.55228475,7 6,7.44771525 6,8 C6,8.55228475 5.55228475,9 5,9 C4.44771525,9 4,8.55228475 4,8 C4,7.44771525 4.44771525,7 5,7 Z M12.5,2.5 L3.5,2.5 C2.94771525,2.5 2.5,2.94771525 2.5,3.5 L2.5,3.5 L2.5,4 L13.5,4 L13.5,3.5 C13.5,2.98716416 13.1139598,2.56449284 12.6166211,2.50672773 L12.5,2.5 Z" id="形状结合" fill="#71757F" fill-rule="nonzero"></path>
    </g>
</svg>