<?xml version="1.0" encoding="UTF-8"?>
<svg width="16px" height="16px" viewBox="0 0 16 16" version="1.1" xmlns="http://www.w3.org/2000/svg" xmlns:xlink="http://www.w3.org/1999/xlink">
    <!-- Generator: Sketch 52.6 (67491) - http://www.bohemiancoding.com/sketch -->
    <title>操作/aveIcon-all-close</title>
    <desc>Created with Sketch.</desc>
    <g id="操作/aveIcon-all-close" stroke="none" stroke-width="1" fill="none" fill-rule="evenodd">
        <path d="M15,15 L9,15 L9,14 L14,14 L14,9 L15,9 L15,15 Z M1,1 L7,1 L7,2 L2,2 L2,7 L1,7 L1,1 Z M12.1213203,3.12132034 L15.2426407,1.13686838e-13 L15.9497475,0.707106781 L12.8284271,3.82842712 L16,7 L9,7 L9,1.13686838e-13 L12.1213203,3.12132034 Z M3.82842712,12.8284271 L0.707106781,15.9497475 L0,15.2426407 L3.12132034,12.1213203 L0,9 L7,9 L7,16 L3.82842712,12.8284271 Z" id="形状" fill="#293040"></path>
    </g>
</svg>