<?xml version="1.0" encoding="UTF-8"?>
<svg width="16px" height="16px" viewBox="0 0 16 16" version="1.1" xmlns="http://www.w3.org/2000/svg" xmlns:xlink="http://www.w3.org/1999/xlink">
    <title>已归档</title>
    <g id="已归档" stroke="none" stroke-width="1" fill="none" fill-rule="evenodd">
        <path d="M13.5,7 C14.6045695,7 15.5,7.8954305 15.5,9 L15.5,9 L15.5,13 C15.5,14.1045695 14.6045695,15 13.5,15 L13.5,15 L2.5,15 C1.3954305,15 0.5,14.1045695 0.5,13 L0.5,13 L0.5,9 C0.5,7.8954305 1.3954305,7 2.5,7 L2.5,7 Z M13.5,9 L2.5,9 L2.5,13 L13.5,13 L13.5,9 Z M11,10 C11.5522847,10 12,10.4477153 12,11 C12,11.5522847 11.5522847,12 11,12 L5,12 C4.44771525,12 4,11.5522847 4,11 C4,10.4477153 4.44771525,10 5,10 L11,10 Z M13,4 C13.5522847,4 14,4.44771525 14,5 C14,5.55228475 13.5522847,6 13,6 L3,6 C2.44771525,6 2,5.55228475 2,5 C2,4.44771525 2.44771525,4 3,4 L13,4 Z M11,1 C11.5522847,1 12,1.44771525 12,2 C12,2.55228475 11.5522847,3 11,3 L5,3 C4.44771525,3 4,2.55228475 4,2 C4,1.44771525 4.44771525,1 5,1 L11,1 Z" id="形状结合" fill="#71757F" fill-rule="nonzero"></path>
    </g>
</svg>