<?xml version="1.0" encoding="UTF-8"?>
<svg width="16px" height="16px" viewBox="0 0 16 16" version="1.1" xmlns="http://www.w3.org/2000/svg" xmlns:xlink="http://www.w3.org/1999/xlink">
    <!-- Generator: Sketch 63.1 (92452) - https://sketch.com -->
    <title>操作/archive</title>
    <desc>Created with Sketch.</desc>
    <g id="操作/archive" stroke="none" stroke-width="1" fill="none" fill-rule="evenodd">
        <path d="M14.5,14.5 C14.5,15.0522847 14.0522847,15.5 13.5,15.5 L2.5,15.5 C1.94771525,15.5 1.5,15.0522847 1.5,14.5 L1.5,1.5 C1.5,0.94771525 1.94771525,0.5 2.5,0.5 L13.5,0.5 C14.0522847,0.5 14.5,0.94771525 14.5,1.5 L14.5,14.5 Z M3.5,13.5 L12.5,13.5 L12.5,10.5 L11.0291124,10.5 C10.7889561,10.5 10.5568205,10.5864271 10.3751382,10.7434831 L9.78166111,11.2565169 C9.59997884,11.4135729 9.36784321,11.5 9.12768694,11.5 L6.86604675,11.5 C6.62968434,11.5 6.4009622,11.416277 6.22045609,11.2636836 L5.59662155,10.7363164 C5.41611544,10.583723 5.1873933,10.5 4.95103089,10.5 L3.5,10.5 L3.5,13.5 Z M12.5,2.5 L3.5,2.5 L3.5,8.5 L5.1542756,8.5 C5.3782546,8.5 5.59574927,8.57519321 5.77190234,8.71352864 L6.50147412,9.28647136 C6.6776272,9.42480679 6.89512186,9.5 7.11910087,9.5 L8.8961191,9.5 C9.12266062,9.5 9.34248911,9.42307901 9.51960679,9.28183317 L10.2264259,8.71816683 C10.4035436,8.57692099 10.6233721,8.5 10.8499136,8.5 L12.5,8.5 L12.5,2.5 Z M9.5,4.5 C10.0522847,4.5 10.5,4.94771525 10.5,5.5 C10.5,6.05228475 10.0522847,6.5 9.5,6.5 L6.5,6.5 C5.94771525,6.5 5.5,6.05228475 5.5,5.5 C5.5,4.94771525 5.94771525,4.5 6.5,4.5 L9.5,4.5 Z" id="形状" fill="#575D6C"></path>
    </g>
</svg>