<?xml version="1.0" encoding="UTF-8"?>
<svg width="16px" height="16px" viewBox="0 0 16 16" version="1.1" xmlns="http://www.w3.org/2000/svg" xmlns:xlink="http://www.w3.org/1999/xlink">
    <!-- Generator: Sketch 63.1 (92452) - https://sketch.com -->
    <title>操作/bug</title>
    <desc>Created with Sketch.</desc>
    <g id="操作/bug" stroke="none" stroke-width="1" fill="none" fill-rule="evenodd">
        <path d="M8,0.3 C9.65685425,0.3 11,1.64314575 11,3.3 C11,3.72394602 10.9120622,4.12735307 10.7534322,4.49297553 C10.9550841,4.65265232 11.1465057,4.82941958 11.3262709,5.02155854 L13.2980762,3.8839746 C13.7763688,3.60783222 14.3879592,3.77170738 14.6641016,4.25 C14.9205195,4.69412886 14.7975346,5.25319306 14.3957092,5.55188845 L14.2980762,5.6160254 L12.4226898,6.6989228 C12.6671593,7.25337368 12.8412896,7.85941368 12.9308497,8.49989154 L14.9990381,8.5 C15.5513229,8.5 15.9990381,8.94771525 15.9990381,9.5 C15.9990381,10.0128358 15.6129979,10.4355072 15.1156592,10.4932723 L14.9990381,10.5 L12.9307223,10.5010416 C12.8411453,11.1410687 12.667127,11.7467238 12.4228861,12.3009445 L14.2980762,13.3839746 L14.3957092,13.4481115 C14.7975346,13.7468069 14.9205195,14.3058711 14.6641016,14.75 C14.4076837,15.1941289 13.8620274,15.3671529 13.4024369,15.1685096 L13.2980762,15.1160254 L11.3276302,13.978329 C10.4437213,14.9247715 9.27784057,15.5 8,15.5 C6.72215943,15.5 5.55627871,14.9247715 4.67236978,13.978329 L2.70096189,15.1160254 C2.22266927,15.3921678 1.61107887,15.2282926 1.33493649,14.75 C1.07851857,14.3058711 1.20150352,13.7468069 1.6033289,13.4481115 L1.70096189,13.3839746 L3.57711389,12.3009445 C3.33274581,11.7464352 3.15867357,11.1404381 3.0691379,10.500042 L1,10.5 C0.44771525,10.5 -9.7255537e-14,10.0522847 -9.7255537e-14,9.5 C-9.7255537e-14,8.94771525 0.44771525,8.5 1,8.5 L3.06928776,8.49888675 C3.15883132,7.85914617 3.33274066,7.25374778 3.57681618,6.69973111 L1.70096189,5.6160254 C1.22266927,5.33988303 1.05879412,4.72829262 1.33493649,4.25 C1.61107887,3.77170738 2.22266927,3.60783222 2.70096189,3.8839746 L4.67275819,5.0212552 C4.85266432,4.82866143 5.04424831,4.65144408 5.24607706,4.49132285 C5.08793781,4.12735307 5,3.72394602 5,3.3 C5,1.64314575 6.34314575,0.3 8,0.3 Z M8,5.5 C6.34314575,5.5 5,7.290861 5,9.5 C5,11.2417633 5.83494015,12.7235124 7.00027745,13.2725231 L7,9.5 C7,8.94771525 7.44771525,8.5 8,8.5 C8.55228475,8.5 9,8.94771525 9,9.5 L9.00072794,13.2720492 C10.16554,12.72266 11,11.2412624 11,9.5 C11,7.290861 9.65685425,5.5 8,5.5 Z M8,2.3 C7.44771525,2.3 7,2.74771525 7,3.3 C7,3.40775397 7.01704285,3.51152737 7.04858004,3.60877166 C7.35744965,3.53718521 7.67510605,3.5 8,3.5 C8.32489395,3.5 8.64255035,3.53718521 8.95017487,3.60820247 C8.98295715,3.51152737 9,3.40775397 9,3.3 C9,2.74771525 8.55228475,2.3 8,2.3 Z" id="形状" fill="#575D6C"></path>
    </g>
</svg>