<?xml version="1.0" encoding="UTF-8"?>
<svg width="16px" height="16px" viewBox="0 0 16 16" version="1.1" xmlns="http://www.w3.org/2000/svg" xmlns:xlink="http://www.w3.org/1999/xlink">
    <!-- Generator: Sketch 63.1 (92452) - https://sketch.com -->
    <title>操作/购物车</title>
    <desc>Created with Sketch.</desc>
    <g id="操作/购物车" stroke="none" stroke-width="1" fill="none" fill-rule="evenodd">
        <path d="M6.35501099,14 C6.90729574,14 7.35501099,14.4477153 7.35501099,15 C7.35501099,15.5522847 6.90729574,16 6.35501099,16 C5.80272624,16 5.35501099,15.5522847 5.35501099,15 C5.35501099,14.4477153 5.80272624,14 6.35501099,14 Z M11.355011,14 C11.9072957,14 12.355011,14.4477153 12.355011,15 C12.355011,15.5522847 11.9072957,16 11.355011,16 C10.8027262,16 10.355011,15.5522847 10.355011,15 C10.355011,14.4477153 10.8027262,14 11.355011,14 Z M3.0698108,1.00193705 C3.52891783,1.00080008 3.92982096,1.31242407 4.0419893,1.75761934 L4.35501099,3 L14.1352071,3 C14.6874918,3 15.1352071,3.44771525 15.1352071,4 C15.1352071,4.06585199 15.1287024,4.13154295 15.1157878,4.19611614 L13.5157878,12.1961161 C13.4223029,12.6635403 13.0118881,13 12.5352071,13 L5.17481489,13 C4.69813387,13 4.28771905,12.6635403 4.19423421,12.1961161 L2.5166463,3.80817659 C2.42277605,3.33882534 2.0094803,3.00180544 1.53084059,3.00430638 L1,3.00708008 C0.44771525,3.00708008 -1.38467016e-12,2.55936483 -1.38467016e-12,2.00708008 C-1.38467016e-12,1.45479533 0.44771525,1.00708008 1,1.00708008 L3.0698108,1.00193705 Z M12.915011,5 L4.79501099,5 L5.99401099,11 L11.715011,11 L12.114011,9 L8.35501099,9 C7.80272624,9 7.35501099,8.55228475 7.35501099,8 C7.35501099,7.44771525 7.80272624,7 8.35501099,7 L12.355011,7 C12.4084241,7 12.4608592,7.00418766 12.5120057,7.01225258 L12.915011,5 Z" id="形状" fill="#575D6C" fill-rule="nonzero"></path>
    </g>
</svg>