<?xml version="1.0" encoding="UTF-8"?>
<svg width="16px" height="16px" viewBox="0 0 16 16" version="1.1" xmlns="http://www.w3.org/2000/svg" xmlns:xlink="http://www.w3.org/1999/xlink">
    <!-- Generator: Sketch 52.6 (67491) - http://www.bohemiancoding.com/sketch -->
    <title>操作/avelcon-calendar</title>
    <desc>Created with Sketch.</desc>
    <g id="操作/avelcon-calendar" stroke="none" stroke-width="1" fill="none" fill-rule="evenodd">
        <path d="M12,0 L12,2 L14,2 L14,0 L16,0 L16,16 L1,16 L1,0 L3,0 L3,2 L5,2 L5,0 L12,0 Z M2,5 L2,15 L15,15 L15,5 L2,5 Z M3,12 L5,12 L5,14 L3,14 L3,12 Z M6,12 L8,12 L8,14 L6,14 L6,12 Z M9,12 L11,12 L11,14 L9,14 L9,12 Z M3,9 L5,9 L5,11 L3,11 L3,9 Z M6,9 L8,9 L8,11 L6,11 L6,9 Z M9,9 L11,9 L11,11 L9,11 L9,9 Z M12,9 L14,9 L14,11 L12,11 L12,9 Z M6,6 L8,6 L8,8 L6,8 L6,6 Z M9,6 L11,6 L11,8 L9,8 L9,6 Z M12,6 L14,6 L14,8 L12,8 L12,6 Z" id="形状" fill="#293040"></path>
    </g>
</svg>