<?xml version="1.0" encoding="UTF-8"?>
<svg width="16px" height="16px" viewBox="0 0 16 16" version="1.1" xmlns="http://www.w3.org/2000/svg" xmlns:xlink="http://www.w3.org/1999/xlink">
    <!-- Generator: Sketch 63.1 (92452) - https://sketch.com -->
    <title>操作/循环</title>
    <desc>Created with Sketch.</desc>
    <g id="操作/循环" stroke="none" stroke-width="1" fill="none" fill-rule="evenodd">
        <path d="M6.8200922,1.18341017 L8.53906723,2.61588936 C8.75120568,2.7926714 8.77986771,3.10795375 8.60308567,3.3200922 L8.53906723,3.38411064 L8.53906723,3.38411064 L6.8200922,4.81658983 C6.60795375,4.99337187 6.2926714,4.96470984 6.11588936,4.75257139 C6.04100811,4.66271389 6,4.54944745 6,4.43247919 L6,4 C3.790861,4 2,5.790861 2,8 C2,9.87727753 3.29322103,11.4525071 5.0373861,11.8834117 L5.28705454,11.9336613 C5.32393576,11.9402325 5.36386375,11.947133 5.40683849,11.9543628 C5.8883549,12.0353391 6.2409668,12.4522272 6.2409668,12.940505 L6.2409668,13.0819092 C6.2409668,13.5679603 5.8469445,13.9619826 5.36089337,13.9619826 C5.31929552,13.9619826 5.27775001,13.9590333 5.23657047,13.953149 L4.99425782,13.9160753 L4.99425782,13.9160753 C2.15937022,13.4376334 0,10.9709907 0,8 C0,4.6862915 2.6862915,2 6,2 L6,1.56752081 C6,1.29137843 6.22385763,1.06752081 6.5,1.06752081 C6.61696825,1.06752081 6.7302347,1.10852892 6.8200922,1.18341017 Z M9.1799078,14.8165898 L7.46093277,13.3841106 C7.24879432,13.2073286 7.22013229,12.8920462 7.39691433,12.6799078 L7.46093277,12.6158894 L7.46093277,12.6158894 L9.1799078,11.1834102 C9.39204625,11.0066281 9.7073286,11.0352902 9.88411064,11.2474286 C9.95899189,11.3372861 10,11.4505526 10,11.5675208 L10,12 C12.209139,12 14,10.209139 14,8 C14,6.14203303 12.7332475,4.57993196 11.0162937,4.13024806 C10.953206,4.11372488 10.8620395,4.09951564 10.7427941,4.08762033 C10.2314781,4.03662945 9.84204102,3.60641125 9.84204102,3.09255902 L9.84204102,3.04614258 C9.84204102,2.50527662 10.2804995,2.06681813 10.8213655,2.06681813 L10.8933543,2.06946373 L10.8933543,2.06946373 L10.9913417,2.08151238 L10.9913417,2.08151238 C13.8333138,2.55401816 16,5.02398075 16,8 C16,11.3137085 13.3137085,14 10,14 L10,14.4324792 C10,14.7086216 9.77614237,14.9324792 9.5,14.9324792 C9.38303175,14.9324792 9.2697653,14.8914711 9.1799078,14.8165898 Z" id="形状" fill="#575D6C"></path>
    </g>
</svg>