<?xml version="1.0" encoding="UTF-8"?>
<svg width="16px" height="16px" viewBox="0 0 16 16" version="1.1" xmlns="http://www.w3.org/2000/svg" xmlns:xlink="http://www.w3.org/1999/xlink">
    <!-- Generator: Sketch 63.1 (92452) - https://sketch.com -->
    <title>操作/展开文件夹</title>
    <desc>Created with Sketch.</desc>
    <g id="操作/展开文件夹" stroke="none" stroke-width="1" fill="none" fill-rule="evenodd">
        <path d="M13,1 C14.1045695,1 15,1.8954305 15,3 L15,13 C15,14.1045695 14.1045695,15 13,15 L3,15 C1.8954305,15 1,14.1045695 1,13 L1,3 C1,1.8954305 1.8954305,1 3,1 L13,1 Z M13,3 L3,3 L3,13 L13,13 L13,3 Z M8,4 C8.55228475,4 9,4.44771525 9,5 L9,7 L11,7 C11.5522847,7 12,7.44771525 12,8 C12,8.55228475 11.5522847,9 11,9 L9,9 L9,11 C9,11.5522847 8.55228475,12 8,12 C7.44771525,12 7,11.5522847 7,11 L7,9 L5,9 C4.44771525,9 4,8.55228475 4,8 C4,7.44771525 4.44771525,7 5,7 L7,7 L7,5 C7,4.44771525 7.44771525,4 8,4 Z" id="形状" fill="#575D6C" fill-rule="nonzero"></path>
    </g>
</svg>