<?xml version="1.0" encoding="UTF-8"?>
<svg width="16px" height="16px" viewBox="0 0 16 16" version="1.1" xmlns="http://www.w3.org/2000/svg" xmlns:xlink="http://www.w3.org/1999/xlink">
    <!-- Generator: Sketch 63.1 (92452) - https://sketch.com -->
    <title>操作/封闭合并</title>
    <desc>Created with Sketch.</desc>
    <g id="操作/封闭合并" stroke="none" stroke-width="1" fill="none" fill-rule="evenodd">
        <path d="M11.2071068,9.69289322 L12.6213203,11.1071068 L14.0355339,9.69289322 C14.4260582,9.30236893 15.0592232,9.30236893 15.4497475,9.69289322 C15.8402718,10.0834175 15.8402718,10.7165825 15.4497475,11.1071068 L14.0355339,12.5213203 L15.4497475,13.9355339 C15.8402718,14.3260582 15.8402718,14.9592232 15.4497475,15.3497475 C15.0592232,15.7402718 14.4260582,15.7402718 14.0355339,15.3497475 L12.6213203,13.9355339 L11.2071068,15.3497475 C10.8165825,15.7402718 10.1834175,15.7402718 9.79289322,15.3497475 C9.40236893,14.9592232 9.40236893,14.3260582 9.79289322,13.9355339 L11.2071068,12.5213203 L9.79289322,11.1071068 C9.40236893,10.7165825 9.40236893,10.0834175 9.79289322,9.69289322 C10.1834175,9.30236893 10.8165825,9.30236893 11.2071068,9.69289322 Z M3.3,0.5 C4.95685425,0.5 6.3,1.84314575 6.3,3.5 C6.3,4.80621883 5.46519237,5.91745788 4.3,6.32929429 L4.3,9.67070571 C5.46519237,10.0825421 6.3,11.1937812 6.3,12.5 C6.3,14.1568542 4.95685425,15.5 3.3,15.5 C1.64314575,15.5 0.3,14.1568542 0.3,12.5 C0.3,11.1937812 1.13480763,10.0825421 2.3,9.67070571 L2.3,6.32929429 C1.13480763,5.91745788 0.3,4.80621883 0.3,3.5 C0.3,1.84314575 1.64314575,0.5 3.3,0.5 Z M3.3,11.5 C2.74771525,11.5 2.3,11.9477153 2.3,12.5 C2.3,13.0522847 2.74771525,13.5 3.3,13.5 C3.85228475,13.5 4.3,13.0522847 4.3,12.5 C4.3,11.9477153 3.85228475,11.5 3.3,11.5 Z M10.8,0.130371094 L10.8,2.13037109 L12.3,2.13037109 C13.4045695,2.13037109 14.3,3.02580159 14.3,4.13037109 L14.3,7.3010768 C14.3,7.85336155 13.8522847,8.3010768 13.3,8.3010768 C12.7477153,8.3010768 12.3,7.85336155 12.3,7.3010768 L12.3,5.13037109 C12.3,4.57808634 11.8522847,4.13037109 11.3,4.13037109 L10.8,4.13037109 L10.8,6.13037109 L6.8,3.13037109 L10.8,0.130371094 Z M3.3,2.5 C2.74771525,2.5 2.3,2.94771525 2.3,3.5 C2.3,4.05228475 2.74771525,4.5 3.3,4.5 C3.85228475,4.5 4.3,4.05228475 4.3,3.5 C4.3,2.94771525 3.85228475,2.5 3.3,2.5 Z" id="形状" fill="#575D6C"></path>
    </g>
</svg>