<?xml version="1.0" encoding="UTF-8"?>
<svg width="16px" height="16px" viewBox="0 0 16 16" version="1.1" xmlns="http://www.w3.org/2000/svg" xmlns:xlink="http://www.w3.org/1999/xlink">
    <title>云盘</title>
    <g id="云盘" stroke="none" stroke-width="1" fill="none" fill-rule="evenodd">
        <path d="M0.00483752049,9.67966844 C0.0118393248,9.52857577 0.0263855071,9.37945355 0.048108001,9.23266983 C0.050605588,9.21760581 0.0528724096,9.20287022 0.0552117625,9.18815665 C0.0750757226,9.06086998 0.100713148,8.93504291 0.131539319,8.81126794 C0.13555896,8.79719049 0.139129639,8.78317685 0.142766988,8.76918828 C0.211285453,8.50317629 0.304294562,8.24696463 0.418850418,8.0028739 C0.425139722,7.99084062 0.431148061,7.97818199 0.437214617,7.96555523 C0.460152201,7.91653577 0.484337279,7.86851298 0.509357709,7.82099854 C0.51637043,7.8087659 0.523069679,7.79617633 0.52982792,7.7836218 C0.555283578,7.73535207 0.58198544,7.68792458 0.609522298,7.64104669 C0.668653559,7.54103674 0.731418576,7.44305671 0.797862129,7.34773933 C0.85570755,7.26458966 0.916369293,7.18372357 0.979655047,7.10505784 C1.00267988,7.07630189 1.02648046,7.04741628 1.05064083,7.01883425 C1.07468784,6.99063779 1.09884467,6.96280964 1.12333844,6.93528797 C1.14049063,6.91567378 1.15775394,6.89658778 1.17518251,6.87765105 C1.19985633,6.8512602 1.22487978,6.82476014 1.25022241,6.79857084 C1.33104576,6.71448292 1.41529935,6.63388113 1.50269405,6.55662041 C1.5149144,6.54647717 1.52688034,6.5360185 1.53890259,6.5256232 C1.56731639,6.50037566 1.59634913,6.47590042 1.62570526,6.45178932 C1.6540922,6.42916604 1.68244788,6.40645733 1.71108473,6.38409194 C1.73938939,6.361295 1.76846036,6.33915701 1.79781845,6.31736814 C1.8240249,6.29859234 1.84995502,6.27977693 1.87609423,6.26123696 C1.90276364,6.24167228 1.93021818,6.22266411 1.95790309,6.20395603 C1.98870306,6.18375365 2.01917054,6.1636984 2.04989628,6.14401093 C2.25277666,6.01354492 2.46766869,5.89934772 2.69271073,5.80292291 C2.95894262,3.10641659 5.23348133,1 8,1 C10.7665187,1 13.0410574,3.10641659 13.3072893,5.80292291 C14.9115494,6.49030768 16,8.08085964 16,9.88888889 C16,12.3434878 14.0101544,14.3333333 11.5555556,14.3333333 L4.44444444,14.3333333 C1.98984556,14.3333333 0,12.3434878 0,9.88888889 Z M8,2.77777778 C6.34230697,2.77777778 4.94957356,3.91220473 4.55578422,5.44707419 C6.95950993,5.50548646 8.88888889,7.47187238 8.88888889,9.88888889 L8.88888889,9.88888889 L7.11111111,9.88888889 C7.11111111,8.41612956 5.91720378,7.22222222 4.44444444,7.22222222 C4.11016683,7.22222222 3.79025485,7.28372881 3.49540827,7.39604223 C3.48910246,7.39804686 3.48284243,7.40045368 3.47659454,7.40288307 L3.49540827,7.39604223 C3.45750903,7.41047886 3.42002394,7.42575494 3.3829757,7.44184773 L3.47659454,7.40288307 C3.42188389,7.42415646 3.3681045,7.4471611 3.31531663,7.47182498 L3.3829757,7.44184773 C3.33255014,7.46375129 3.28293387,7.48716785 3.23418419,7.51204012 L3.31531663,7.47182498 C3.26983946,7.49307311 3.2250982,7.51555272 3.18113136,7.53921779 L3.23418419,7.51204012 C3.17726307,7.54108148 3.12152341,7.57210747 3.06705642,7.60502685 L3.18113136,7.53921779 C3.13522669,7.56392588 3.09016622,7.58992623 3.0459938,7.61716643 L3.06705642,7.60502685 C3.03186501,7.62629624 2.99720488,7.64835604 2.96310063,7.67118164 L3.0459938,7.61716643 C2.99450505,7.64891846 2.94422288,7.68235507 2.89521674,7.7173933 L2.96310063,7.67118164 C2.82596211,7.76296695 2.69781198,7.86713511 2.58024977,7.9820866 C2.56175691,7.99963337 2.54356298,8.01797142 2.52564133,8.03656533 L2.58024977,7.9820866 C2.54705737,8.01454188 2.51470899,8.04785676 2.48324064,8.08199524 L2.52564133,8.03656533 C2.48741377,8.07622686 2.45042505,8.11705255 2.4147292,8.15897787 L2.48324064,8.08199524 C2.44496373,8.12351997 2.40798885,8.16626325 2.37238077,8.21016027 L2.4147292,8.15897787 C2.38062592,8.19903267 2.34770273,8.24009116 2.31600672,8.28209704 L2.37238077,8.21016027 C2.33839259,8.25206032 2.30564968,8.29501153 2.2742084,8.33895757 L2.31600672,8.28209704 C2.28083545,8.32870858 2.24717523,8.37648666 2.21509042,8.42535437 L2.2742084,8.33895757 C2.24520271,8.37949932 2.2173048,8.42088774 2.1905589,8.46307858 L2.21509042,8.42535437 C2.18635467,8.46912118 2.15888261,8.51376202 2.13272048,8.55922162 L2.1905589,8.46307858 C2.15852568,8.51360999 2.12814497,8.56529245 2.09949276,8.61804996 L2.13272048,8.55922162 C2.11080538,8.59730154 2.08980944,8.63595596 2.06975983,8.67515243 L2.09949276,8.61804996 C2.07485873,8.66340876 2.05150239,8.70956222 2.02947203,8.75646205 L2.06975983,8.67515243 C1.99195113,8.82726642 1.92839488,8.98754384 1.88067967,9.15408648 C1.87385714,9.1766041 1.86767907,9.19934039 1.86179637,9.22219526 L1.88067967,9.15408648 C1.8538393,9.24776871 1.83201134,9.34343337 1.81547856,9.4407426 C1.79058862,9.58676477 1.77777778,9.73633076 1.77777778,9.88888889 L1.77777778,9.88888889 C1.77777778,11.3616482 2.97168511,12.5555556 4.44444444,12.5555556 L11.5555556,12.5555556 C13.0283149,12.5555556 14.2222222,11.3616482 14.2222222,9.88888889 C14.2222222,8.66473328 13.3900097,7.60607896 12.2218524,7.30591715 L11.5370197,7.12994716 L11.5544504,6.42308262 L11.5551047,6.38991409 L11.5551047,6.38991409 L11.5555556,6.33333333 L11.5555556,6.33333333 C11.5555556,4.36965422 9.96367911,2.77777778 8,2.77777778 Z" id="形状结合" fill="#575D6C" fill-rule="nonzero"></path>
    </g>
</svg>