<?xml version="1.0" encoding="UTF-8"?>
<svg width="16px" height="16px" viewBox="0 0 16 16" version="1.1" xmlns="http://www.w3.org/2000/svg" xmlns:xlink="http://www.w3.org/1999/xlink">
    <title>紧凑</title>
    <g id="紧凑" stroke="none" stroke-width="1" fill="none" fill-rule="evenodd">
        <path d="M3.2,11.6 C3.6418278,11.6 4,11.9581722 4,12.4 L4,13.2 C4,13.6418278 3.6418278,14 3.2,14 L2.4,14 C1.9581722,14 1.6,13.6418278 1.6,13.2 L1.6,12.4 C1.6,11.9581722 1.9581722,11.6 2.4,11.6 L3.2,11.6 Z M13.6,11.6 C14.0418278,11.6 14.4,11.9581722 14.4,12.4 L14.4,13.2 C14.4,13.6418278 14.0418278,14 13.6,14 L5.6,14 C5.1581722,14 4.8,13.6418278 4.8,13.2 L4.8,12.4 C4.8,11.9581722 5.1581722,11.6 5.6,11.6 L13.6,11.6 Z M3.2,8.4 C3.6418278,8.4 4,8.7581722 4,9.2 L4,10 C4,10.4418278 3.6418278,10.8 3.2,10.8 L2.4,10.8 C1.9581722,10.8 1.6,10.4418278 1.6,10 L1.6,9.2 C1.6,8.7581722 1.9581722,8.4 2.4,8.4 L3.2,8.4 Z M13.6,8.4 C14.0418278,8.4 14.4,8.7581722 14.4,9.2 L14.4,10 C14.4,10.4418278 14.0418278,10.8 13.6,10.8 L5.6,10.8 C5.1581722,10.8 4.8,10.4418278 4.8,10 L4.8,9.2 C4.8,8.7581722 5.1581722,8.4 5.6,8.4 L13.6,8.4 Z M3.2,5.2 C3.6418278,5.2 4,5.5581722 4,6 L4,6.8 C4,7.2418278 3.6418278,7.6 3.2,7.6 L2.4,7.6 C1.9581722,7.6 1.6,7.2418278 1.6,6.8 L1.6,6 C1.6,5.5581722 1.9581722,5.2 2.4,5.2 L3.2,5.2 Z M13.6,5.2 C14.0418278,5.2 14.4,5.5581722 14.4,6 L14.4,6.8 C14.4,7.2418278 14.0418278,7.6 13.6,7.6 L5.6,7.6 C5.1581722,7.6 4.8,7.2418278 4.8,6.8 L4.8,6 C4.8,5.5581722 5.1581722,5.2 5.6,5.2 L13.6,5.2 Z M3.2,2 C3.6418278,2 4,2.3581722 4,2.8 L4,3.6 C4,4.0418278 3.6418278,4.4 3.2,4.4 L2.4,4.4 C1.9581722,4.4 1.6,4.0418278 1.6,3.6 L1.6,2.8 C1.6,2.3581722 1.9581722,2 2.4,2 L3.2,2 Z M13.6,2 C14.0418278,2 14.4,2.3581722 14.4,2.8 L14.4,3.6 C14.4,4.0418278 14.0418278,4.4 13.6,4.4 L5.6,4.4 C5.1581722,4.4 4.8,4.0418278 4.8,3.6 L4.8,2.8 C4.8,2.3581722 5.1581722,2 5.6,2 L13.6,2 Z" id="形状结合" fill="#BECCFA"></path>
    </g>
</svg>