<?xml version="1.0" encoding="UTF-8"?>
<svg width="16px" height="16px" viewBox="0 0 16 16" version="1.1" xmlns="http://www.w3.org/2000/svg" xmlns:xlink="http://www.w3.org/1999/xlink">
    <title>compile</title>
    <g id="页面-1" stroke="none" stroke-width="1" fill="none" fill-rule="evenodd">
        <path d="M2,5.35891589 L2,11.3333333 C2,12.0437231 2.54200914,12.6275199 3.23504755,12.6937438 L3.36666667,12.7 L12.7,12.7 C13.4103898,12.7 13.9941866,12.1579909 14.0604105,11.4649525 L14.0666667,11.3333333 L14.0666667,5.37104882 L15.0666667,5.37104882 L15.0666667,11.3333333 C15.0666667,12.5859458 14.0935337,13.6112709 12.8620365,13.69454 L12.7,13.7 L3.36666667,13.7 C2.11405417,13.7 1.08872905,12.7268671 1.00545997,11.4953699 L1,11.3333333 L1,5.35891589 L2,5.35891589 Z M5.87148947,9.36014265 C6.16972323,9.36014265 6.41713622,9.57773226 6.46363648,9.86281953 L6.47148947,9.96014265 L6.47148947,10.693476 C6.47148947,10.9917097 6.25389985,11.2391227 5.96881258,11.285623 L5.87148947,11.293476 L5.13815613,11.293476 C4.83992237,11.293476 4.59250938,11.0758864 4.54600912,10.7907991 L4.53815613,10.693476 L4.53815613,9.96014265 C4.53815613,9.66190888 4.75574574,9.41449589 5.04083302,9.36799563 L5.13815613,9.36014265 L5.87148947,9.36014265 Z M10.6233341,9.36014265 C10.9215678,9.36014265 11.1689808,9.57773226 11.2154811,9.86281953 L11.2233341,9.96014265 L11.2233341,10.693476 C11.2233341,10.9917097 11.0057445,11.2391227 10.7206572,11.285623 L10.6233341,11.293476 L9.89000074,11.293476 C9.59176698,11.293476 9.34435399,11.0758864 9.29785373,10.7907991 L9.29000074,10.693476 L9.29000074,9.96014265 C9.29000074,9.66190888 9.50759036,9.41449589 9.79267763,9.36799563 L9.89000074,9.36014265 L10.6233341,9.36014265 Z M5.54850253,2 C5.80623541,2 6.01516919,2.20893378 6.01516919,2.46666667 L6.01458157,6.19 L7.22148401,6.19054923 C7.2489243,6.19054923 7.27576116,6.19709322 7.29986313,6.20939273 L7.3336985,6.23206008 C7.39154125,6.28163957 7.40846875,6.36122181 7.38119516,6.42809088 L7.35240094,6.47519152 L5.65816361,8.45180173 C5.6524175,8.45850551 5.64616498,8.46475805 5.6394612,8.47050416 C5.58161845,8.52008364 5.50038356,8.52464059 5.43847244,8.48746083 L5.39632975,8.45180173 L3.70209242,6.47519152 C3.67530556,6.44394018 3.66058157,6.40413747 3.66058157,6.36297701 C3.66058157,6.28679363 3.70998865,6.22214988 3.77850884,6.19933971 L3.83300935,6.19054923 L5.08158157,6.19 L5.08183586,2.46666667 C5.08183586,2.20893378 5.29076964,2 5.54850253,2 Z M10.2151692,2 C10.4729021,2 10.6818359,2.20893378 10.6818359,2.46666667 L10.6812482,6.19 L11.8881507,6.19054923 C11.915591,6.19054923 11.9424278,6.19709322 11.9665298,6.20939273 L12.0003652,6.23206008 C12.0582079,6.28163957 12.0751354,6.36122181 12.0478618,6.42809088 L12.0190676,6.47519152 L10.3248303,8.45180173 C10.3190842,8.45850551 10.3128316,8.46475805 10.3061279,8.47050416 C10.2482851,8.52008364 10.1670502,8.52464059 10.1051391,8.48746083 L10.0629964,8.45180173 L8.36875909,6.47519152 C8.34197223,6.44394018 8.32724824,6.40413747 8.32724824,6.36297701 C8.32724824,6.28679363 8.37665531,6.22214988 8.44517551,6.19933971 L8.49967602,6.19054923 L9.74824824,6.19 L9.74850253,2.46666667 C9.74850253,2.20893378 9.95743631,2 10.2151692,2 Z M1.86697077,3.49224922 C1.92219925,3.49224922 1.96697077,3.53702074 1.96697077,3.59224922 L1.96697077,4.42558255 L1.03363744,4.42558255 L1.03363744,3.59224922 C1.03363744,3.53702074 1.07840896,3.49224922 1.13363744,3.49224922 L1.86697077,3.49224922 Z M14.9336374,3.49224922 C14.9888659,3.49224922 15.0336374,3.53702074 15.0336374,3.59224922 L15.0336374,4.42558255 L14.1003041,4.42558255 L14.1003041,3.59224922 C14.1003041,3.53702074 14.1450756,3.49224922 14.2003041,3.49224922 L14.9336374,3.49224922 Z" id="compile" fill="#191919" fill-rule="nonzero"></path>
    </g>
</svg>