<?xml version="1.0" encoding="UTF-8"?>
<svg width="16px" height="16px" viewBox="0 0 16 16" version="1.1" xmlns="http://www.w3.org/2000/svg" xmlns:xlink="http://www.w3.org/1999/xlink">
    <title>connect-code</title>
    <g id="页面-1" stroke="none" stroke-width="1" fill="none" fill-rule="evenodd">
        <g id="编组-21备份">
            <g id="编组-17" fill="#191919" fill-rule="nonzero">
                <path d="M11.5900901,0.5 L11.7538537,0.505518161 C12.9443628,0.586015791 13.8959662,1.53761917 13.9764638,2.72812829 L13.981982,2.89189189 L13.981982,6.06162854 L13.9739263,6.15150417 C13.9315904,6.38475338 13.7274419,6.56162854 13.481982,6.56162854 C13.2365221,6.56162854 13.0323736,6.38475338 12.9900377,6.15150417 L12.981982,6.06162854 L12.981982,2.89189189 L12.9756103,2.75784341 C12.9123795,2.09612765 12.3858543,1.56960251 11.7241386,1.50637169 L11.5900901,1.5 L3.39189189,1.5 L3.25784341,1.50637169 C2.59612765,1.56960251 2.06960251,2.09612765 2.00637169,2.75784341 L2,2.89189189 L2,13.1081081 L2.00637169,13.2421566 C2.06960251,13.9038723 2.59612765,14.4303975 3.25784341,14.4936283 L3.39189189,14.5 L6.43693694,14.5 L6.52681257,14.5080557 C6.76006178,14.5503916 6.93693694,14.7545401 6.93693694,15 C6.93693694,15.2454599 6.76006178,15.4496084 6.52681257,15.4919443 L6.43693694,15.5 L3.39189189,15.5 L3.22812829,15.4944818 C2.03761917,15.4139842 1.08601579,14.4623808 1.00551816,13.2718717 L1,13.1081081 L1,2.89189189 L1.00551816,2.72812829 C1.08601579,1.53761917 2.03761917,0.586015791 3.22812829,0.505518161 L3.39189189,0.5 L11.5900901,0.5 Z M9.80326421,10.0430012 C9.97683056,10.2165675 9.99611571,10.4859919 9.86111966,10.6808601 L9.80326421,10.7501079 L8.73723204,11.8161401 C8.22703725,12.3263349 8.21811369,13.1383788 8.70953136,13.6297964 C9.20094903,14.1212141 10.0129929,14.1122905 10.5231877,13.6020958 L11.5827061,12.5425773 C11.7779682,12.3473152 12.0945507,12.3473152 12.2898129,12.5425773 C12.4633792,12.7161437 12.4826644,12.9855681 12.3476683,13.1804362 L12.2898129,13.2496841 L11.2302945,14.3092025 C10.3330116,15.2064854 8.88788728,15.2223659 8.00242458,14.3369032 C7.11696189,13.4514405 7.13284236,12.0063162 8.03012526,11.1090333 L9.09615742,10.0430012 C9.29141957,9.84773901 9.60800206,9.84773901 9.80326421,10.0430012 Z M12.9933726,9.31745801 C13.1669355,9.49102784 13.1862152,9.76045263 13.0512152,9.95531806 L12.9933584,10.0245648 L10.3806931,12.6371253 C10.1854271,12.8323835 9.86884459,12.8323772 9.67358636,12.6371111 C9.50002348,12.4635413 9.48074373,12.1941165 9.61574369,11.9992511 L9.67360053,11.9300044 L12.2862658,9.31744384 C12.4815319,9.1221856 12.7981144,9.12219195 12.9933726,9.31745801 Z M14.6928812,7.64644661 C15.5783439,8.53190931 15.5624634,9.97703358 14.6651805,10.8743165 L13.6057093,11.9337877 C13.4104471,12.1290498 13.0938647,12.1290498 12.8986025,11.9337877 C12.7250362,11.7602213 12.705751,11.4907969 12.8407471,11.2959288 L12.8986025,11.2266809 L13.9580737,10.1672097 C14.4682685,9.65701493 14.4771921,8.84497106 13.9857744,8.35355339 C13.4943567,7.86213572 12.6823129,7.87105927 12.1721181,8.38125405 L11.1086749,9.44469729 C10.9134127,9.63995944 10.5968302,9.63995944 10.4015681,9.44469729 C10.2280017,9.27113094 10.2087166,9.00170654 10.3437126,8.8068384 L10.4015681,8.73759051 L11.4650113,7.67414727 C12.3622942,6.77686439 13.8074185,6.76098391 14.6928812,7.64644661 Z M4.21265492,3.33827543 C4.55786,3.33827543 4.83770397,3.61811941 4.83770397,3.96332448 C4.83770397,4.26567507 4.62271484,4.51901239 4.33553034,4.57626756 L4.23732415,4.58788942 L4.188012,4.58788942 C3.88653681,4.57603617 3.641388,4.35174457 3.59537299,4.06209372 L3.58760587,3.96332448 C3.58760587,3.61811941 3.86744985,3.33827543 4.21265492,3.33827543 Z M11.3183322,3.46196662 C11.5944746,3.46196662 11.8183322,3.68582425 11.8183322,3.96196662 C11.8183322,4.20742651 11.6414571,4.411575 11.4082079,4.45391096 L11.3183322,4.46196662 L6.31833225,4.46196662 C6.04218987,4.46196662 5.81833225,4.238109 5.81833225,3.96196662 C5.81833225,3.71650674 5.99520741,3.51235825 6.22845661,3.47002229 L6.31833225,3.46196662 L11.3183322,3.46196662 Z" id="connect-code"></path>
            </g>
        </g>
    </g>
</svg>