<?xml version="1.0" encoding="UTF-8"?>
<svg width="16px" height="16px" viewBox="0 0 16 16" version="1.1" xmlns="http://www.w3.org/2000/svg" xmlns:xlink="http://www.w3.org/1999/xlink">
    <title>contain</title>
    <g id="é¡µé¢-1" stroke="none" stroke-width="1" fill="none" fill-rule="evenodd">
        <g id="contain" fill="#191919" fill-rule="nonzero">
            <path d="M8,2 C11.334967,2 14.0519269,4.64600312 14.1660325,7.95316224 L14.1697635,8.1697635 L14.169,12.503 L15.03125,12.5031501 C15.2901335,12.5031501 15.5,12.7270077 15.5,13.0031501 C15.5,13.24861 15.3341795,13.4527585 15.1155084,13.4950944 L15.03125,13.5031501 L0.96875,13.5031501 C0.709866524,13.5031501 0.5,13.2792925 0.5,13.0031501 C0.5,12.7576902 0.665820463,12.5535417 0.884491595,12.5112058 L0.96875,12.5031501 L1.83,12.503 L1.83023649,8.1697635 C1.83023649,4.76229721 4.5925337,2 8,2 Z M8,2.9375 C5.17910302,2.9375 2.87959733,5.16984147 2.77169621,7.96431114 L2.76773649,8.1697635 L2.767,12.503 L13.232,12.503 L13.2322635,8.1697635 C13.2322635,5.28006417 10.8896993,2.9375 8,2.9375 Z M10.123112,6.25758191 C10.2858305,6.42030037 10.3039103,6.67288574 10.1773515,6.85557463 L10.123112,6.92049452 L8.66286388,8.38064518 L10.123112,9.8408933 C10.3061703,10.0239516 10.3061703,10.3207476 10.123112,10.5038059 C9.96039354,10.6665244 9.70780817,10.6846042 9.52511929,10.5580454 L9.46019939,10.5038059 L7.99995127,9.04355779 L6.53980061,10.5038059 C6.35674235,10.6868642 6.05994626,10.6868642 5.876888,10.5038059 C5.71416955,10.3410875 5.69608972,10.0885021 5.82264852,9.9058132 L5.876888,9.8408933 L7.33703866,8.38064518 L5.876888,6.92049452 C5.69382974,6.73743626 5.69382974,6.44064018 5.876888,6.25758191 C6.03960646,6.09486346 6.29219183,6.07678363 6.47488071,6.20334243 L6.53980061,6.25758191 L7.99995127,7.71773258 L9.46019939,6.25758191 C9.64325765,6.07452365 9.94005374,6.07452365 10.123112,6.25758191 Z"></path>
        </g>
    </g>
</svg>