<?xml version="1.0" encoding="UTF-8"?>
<svg width="16px" height="16px" viewBox="0 0 16 16" version="1.1" xmlns="http://www.w3.org/2000/svg" xmlns:xlink="http://www.w3.org/1999/xlink">
    <title>copy-last-result</title>
    <g id="页面-1" stroke="none" stroke-width="1" fill="none" fill-rule="evenodd">
        <g id="copy-last-result">
            <path d="M0.72,8.89592541 C0.72,8.45047299 1.25857096,8.22738959 1.57355339,8.54237202 L1.57355339,8.54237202 L3.57355339,10.542372 C3.88853582,10.8573545 3.66545243,11.3959254 3.22,11.3959254 L3.22,11.3959254 L1.72,11.395 L1.72,12.8520413 C1.72,13.5113364 2.26723739,14.0645908 2.97937247,14.1273982 L3.11473684,14.1333333 L11.3252632,14.1333333 C12.0565169,14.1333333 12.6467692,13.618861 12.7136804,12.9743226 L12.72,12.8520413 L12.72,11.4526146 C12.72,11.1764722 12.9438576,10.9526146 13.22,10.9526146 C13.4654599,10.9526146 13.6696084,11.1294897 13.7119443,11.3627389 L13.72,11.4526146 L13.72,12.8520413 C13.72,14.0663069 12.7292037,15.048375 11.4884564,15.128106 L11.3252632,15.1333333 L3.11473684,15.1333333 C1.85365509,15.1333333 0.810313728,14.2018596 0.725557993,13.0090519 L0.72,12.8520413 Z M11.22,0.8 C13.429139,0.8 15.22,2.590861 15.22,4.8 L15.22,10.4666667 C15.22,11.386355 14.9096176,12.2335496 14.3878883,12.9092149 L14.3866667,4.63333333 C14.3866667,3.03565245 13.1377467,1.72967245 11.5629395,1.63842603 L11.3866667,1.63333333 L2.69215092,1.63268007 C3.36793691,1.11060788 4.21541281,0.8 5.13543507,0.8 L11.22,0.8 Z M11.3252632,2.13333333 C12.5993449,2.13333333 13.6341792,3.15751668 13.7149274,4.44363024 L13.72,4.60570352 L13.72,6.346 L13.7210024,6.35706819 L13.7210024,8.35706819 C13.7210024,8.80252061 13.1824314,9.02560401 12.867449,8.71062158 L12.867449,8.71062158 L10.867449,6.71062158 C10.5524666,6.39563915 10.77555,5.85706819 11.2210024,5.85706819 L11.2210024,5.85706819 L12.72,5.857 L12.72,4.60570352 C12.72,3.83623545 12.162791,3.21093299 11.4588678,3.14003052 L11.3252632,3.13333333 L3.11473684,3.13333333 C2.39407793,3.13333333 1.79447721,3.71337297 1.72642957,4.46321785 L1.72,4.60570352 L1.72,5.85499329 C1.72,6.13113567 1.49614237,6.35499329 1.22,6.35499329 C0.974540111,6.35499329 0.77039163,6.17811813 0.728055669,5.94486893 L0.72,5.85499329 L0.72,4.60570352 C0.72,3.29908579 1.70387105,2.22263774 2.95677442,2.13861248 L3.11473684,2.13333333 L11.3252632,2.13333333 Z" fill="#191919"></path>
        </g>
    </g>
</svg>