<?xml version="1.0" encoding="UTF-8"?>
<svg width="16px" height="16px" viewBox="0 0 16 16" version="1.1" xmlns="http://www.w3.org/2000/svg" xmlns:xlink="http://www.w3.org/1999/xlink">
    <!-- Generator: Sketch 63.1 (92452) - https://sketch.com -->
    <title>操作/copy_to_new</title>
    <desc>Created with Sketch.</desc>
    <g id="操作/copy_to_new" stroke="none" stroke-width="1" fill="none" fill-rule="evenodd">
        <path d="M11,4 C11.5522847,4 12,4.44771525 12,5 L12,14 C12,14.5522847 11.5522847,15 11,15 L2,15 C1.44771525,15 1,14.5522847 1,14 L1,5 C1,4.44771525 1.44771525,4 2,4 L11,4 Z M10,6 L3,6 L3,13 L10,13 L10,6 Z M14,1 C14.5522847,1 15,1.44771525 15,2 L15,11 C15,11.5522847 14.5522847,12 14,12 C13.4477153,12 13,11.5522847 13,11 L13,3 L5,3 C4.44771525,3 4,2.55228475 4,2 C4,1.44771525 4.44771525,1 5,1 L14,1 Z M7,7 C7.27614237,7 7.5,7.22385763 7.5,7.5 L7.5,8.5 L8.5,8.5 C8.77614237,8.5 9,8.72385763 9,9 L9,10 C9,10.2761424 8.77614237,10.5 8.5,10.5 L7.5,10.5 L7.5,11.5 C7.5,11.7761424 7.27614237,12 7,12 L6,12 C5.72385763,12 5.5,11.7761424 5.5,11.5 L5.5,10.5 L4.5,10.5 C4.22385763,10.5 4,10.2761424 4,10 L4,9 C4,8.72385763 4.22385763,8.5 4.5,8.5 L5.5,8.5 L5.5,7.5 C5.5,7.22385763 5.72385763,7 6,7 L7,7 Z" id="形状" fill="#575D6C"></path>
    </g>
</svg>