<?xml version="1.0" encoding="UTF-8"?>
<svg width="16px" height="16px" viewBox="0 0 16 16" version="1.1" xmlns="http://www.w3.org/2000/svg" xmlns:xlink="http://www.w3.org/1999/xlink">
    <!-- Generator: Sketch 63.1 (92452) - https://sketch.com -->
    <title>12复制检查点</title>
    <desc>Created with Sketch.</desc>
    <g id="12复制检查点" stroke="none" stroke-width="1" fill="none" fill-rule="evenodd">
        <path d="M11,4 C11.5522847,4 12,4.44771525 12,5 L12,14 C12,14.5522847 11.5522847,15 11,15 L2,15 C1.44771525,15 1,14.5522847 1,14 L1,5 C1,4.44771525 1.44771525,4 2,4 L11,4 Z M10,6 L3,6 L3,13 L10,13 L10,6 Z M14,1 C14.5522847,1 15,1.44771525 15,2 L15,11 C15,11.5522847 14.5522847,12 14,12 C13.4477153,12 13,11.5522847 13,11 L13,3 L5,3 C4.44771525,3 4,2.55228475 4,2 C4,1.44771525 4.44771525,1 5,1 L14,1 Z M7,8.5 C7.55228475,8.5 8,8.94771525 8,9.5 C8,10.0522847 7.55228475,10.5 7,10.5 L6,10.5 C5.44771525,10.5 5,10.0522847 5,9.5 C5,8.94771525 5.44771525,8.5 6,8.5 L7,8.5 Z" id="形状" fill="#575D6C"></path>
    </g>
</svg>