<?xml version="1.0" encoding="UTF-8"?>
<svg width="16px" height="16px" viewBox="0 0 16 16" version="1.1" xmlns="http://www.w3.org/2000/svg" xmlns:xlink="http://www.w3.org/1999/xlink">
    <title>cr-lock</title>
    <g id="页面-1" stroke="none" stroke-width="1" fill="none" fill-rule="evenodd">
        <g id="cr-lock" fill="#595959">
            <path d="M8,0.5 C8.2387775,0.5 8.4733475,0.51895175 8.70370578,0.556854828 L8.93266,0.601075 L9.18184407,0.664480519 C9.34677667,0.711851556 9.50943667,0.769455333 9.66983,0.837296 C9.83149,0.905670667 9.98731444,0.982902133 10.1373093,1.06899265 L10.35793,1.204773 L10.35832,1.205033 L10.5941733,1.37228252 C10.7477578,1.48927956 10.89408,1.61730267 11.03314,1.756356 C11.17218,1.895394 11.3001933,2.04169689 11.417183,2.19526496 L11.5844,2.431066 L11.7203604,2.65192896 C11.8065078,2.80199933 11.88379,2.95791267 11.95221,3.119666 C12.02007,3.280086 12.0776678,3.44278156 12.12503,3.6077497 L12.1884,3.856906 C12.23895,4.0845535 12.2705437,4.31627912 12.2831813,4.55217569 L12.2895,4.789466 L12.2895,5.875266 C12.4018,5.883696 12.5124,5.899876 12.6212,5.923836 C12.7629,5.955006 12.9017,5.999336 13.0376,6.056816 C13.1284,6.095236 13.2159111,6.13866044 13.3001333,6.18708933 L13.424,6.263486 L13.5549407,6.35646748 C13.6402,6.42149711 13.7214,6.49261267 13.7986,6.569826 C13.8758,6.647006 13.9469111,6.72821267 14.0119333,6.81343711 L14.1049,6.944286 L14.1812889,7.06819859 C14.2297333,7.15244822 14.2732,7.240006 14.3116,7.330866 C14.3499333,7.42143933 14.3824,7.513306 14.4090296,7.60645711 L14.4446,7.747146 L14.475363,7.91645267 L14.493837,8.08845267 L14.493837,8.08845267 L14.5,8.263166 L14.5,13.315776 C14.5,13.491776 14.4815,13.663776 14.4446,13.831676 C14.4134,13.973376 14.3691,14.112176 14.3116,14.248076 C14.2732,14.3389427 14.2297778,14.426476 14.1813333,14.5107056 L14.1049,14.634576 L14.0119333,14.7654982 C13.9469111,14.8507204 13.8758,14.9319427 13.7986,15.009076 C13.7214,15.086276 13.6402,15.1573871 13.555,15.2224093 L13.4242,15.315376 L13.3002296,15.3918093 C13.216,15.4402538 13.1284667,15.483676 13.0376,15.522076 C12.9017,15.579576 12.7629,15.623876 12.6212,15.655076 C12.5092667,15.679676 12.3955111,15.6960982 12.279963,15.704313 L12.1053,15.710476 L3.8947,15.710476 C3.71866,15.710476 3.54669,15.691976 3.37878,15.655076 C3.23711,15.623876 3.09831,15.579576 2.962418,15.522076 C2.87158733,15.483676 2.78405267,15.4402538 2.69982289,15.391839 L2.575958,15.315476 L2.44505885,15.2224093 C2.359821,15.1573871 2.27860033,15.086276 2.201401,15.009076 C2.12420153,14.931876 2.05309891,14.850676 1.98807947,14.7654464 L1.895111,14.634576 L1.81869104,14.5107056 C1.77025511,14.426476 1.726822,14.3389427 1.6884,14.248076 C1.65008,14.157476 1.61760622,14.0655871 1.59097807,13.9724093 L1.55542,13.831676 L1.52463319,13.6624353 L1.50615881,13.4904834 L1.50615881,13.4904834 L1.5,13.315776 L1.5,8.263166 C1.5,8.087086 1.518478,7.915086 1.555435,7.747146 C1.586609,7.605496 1.63092,7.466726 1.6884,7.330866 C1.746033,7.194576 1.814957,7.065716 1.895126,6.944306 C1.9835205,6.810436 2.0856171,6.685606 2.201401,6.569826 C2.27860033,6.492626 2.35981433,6.42151489 2.44505219,6.3564897 L2.575928,6.263516 L2.699804,6.1870997 C2.78403933,6.13866489 2.87157733,6.095236 2.962418,6.056816 C3.09831,5.999336 3.23709,5.955016 3.37875,5.923846 L3.543345,5.89373225 L3.543345,5.89373225 L3.71049,5.875266 L3.71049,4.789466 C3.71049,4.471126 3.74419,4.160266 3.81157,3.856876 C3.86728,3.606026 3.94601,3.360286 4.04779,3.119666 C4.11621,2.95791267 4.19349222,2.80200378 4.27963963,2.65193341 L4.41551,2.431206 L4.58275037,2.19535667 C4.69975778,2.04175733 4.82779333,1.89542467 4.96686,1.756356 C5.10592,1.61730267 5.25224222,1.48927289 5.40582963,1.37227348 L5.64166,1.205048 L5.86241074,1.0691583 C6.01248556,0.983004 6.16840333,0.905716667 6.33017,0.837296 C6.49057,0.76945 6.65325,0.711841333 6.81819815,0.664467333 L7.06732,0.601082 L7.29630828,0.556854828 C7.5266675,0.51895175 7.76123,0.5 8,0.5 Z M12.1053,6.868416 L3.8947,6.868416 L3.78714963,6.87240341 C3.71606889,6.87772044 3.64622667,6.888356 3.57762,6.904316 C3.50085,6.922156 3.42564,6.946656 3.35199,6.977816 C3.27559,7.010136 3.20317,7.048566 3.13472,7.093106 L3.01743088,7.178596 L3.01743088,7.178596 L2.908508,7.276926 L2.8101995,7.3858285 L2.724716,7.503096 L2.66247212,7.60876725 L2.609406,7.720416 L2.56766525,7.8320335 L2.535904,7.945996 L2.51595511,8.04986304 L2.50398822,8.15558563 L2.50398822,8.15558563 L2.5,8.263166 L2.5,13.315776 L2.50398767,13.4233427 C2.50930456,13.4944316 2.51993833,13.564276 2.535889,13.632876 C2.553726,13.709576 2.578232,13.784876 2.609406,13.858476 C2.641708,13.934876 2.68013,14.007276 2.72467,14.075776 C2.77739,14.156776 2.838669,14.232176 2.908508,14.301976 C2.978333,14.371776 3.05373,14.433076 3.13469,14.485776 C3.20314,14.530376 3.27557,14.568776 3.35197,14.601076 C3.42567,14.632276 3.5009,14.656776 3.5777,14.674576 C3.64629333,14.690576 3.71611778,14.7011982 3.78717926,14.7065019 L3.8947,14.710476 L12.1053,14.710476 L12.2127963,14.7065019 C12.2838556,14.7011982 12.3537,14.690576 12.4223,14.674576 C12.4991,14.656776 12.5743,14.632276 12.648,14.601076 C12.7244,14.568776 12.7969,14.530376 12.8653,14.485776 L12.9826,14.4002885 L12.9826,14.4002885 L13.0915,14.301976 L13.1898125,14.193076 L13.2753,14.075776 L13.3375625,13.9700885 L13.3906,13.858476 C13.4218,13.784876 13.4463,13.709676 13.4641,13.632876 C13.4800333,13.564276 13.4906778,13.4944316 13.4960037,13.4233427 L13.5,13.315776 L13.5,8.263166 L13.4960037,8.15558304 L13.4840296,8.04985563 L13.4641,7.945966 L13.4323375,7.83203225 L13.3906,7.720416 L13.3375625,7.608786 L13.2753,7.503106 L13.1898125,7.38583475 L13.0915,7.276926 L12.98255,7.17858725 L12.8652,7.093076 L12.7596,7.03085975 L12.648,6.977816 L12.5364,6.9360785 L12.4224,6.904316 L12.3185667,6.88436859 C12.2487222,6.87373156 12.1776333,6.868416 12.1053,6.868416 Z M7.9855,7.779996 C8.3584,7.779996 8.69405,7.854526 8.99248,8.003606 C9.0459,8.030286 9.09811,8.059346 9.14914,8.090806 C9.4852,8.296756 9.73346,8.583566 9.89389,8.951236 L9.89389,8.951236 L9.33487,9.277216 C9.0455,8.702336 8.59064,8.414886 7.97026,8.414886 C7.60768,8.414886 7.28613,8.510906 7.00565,8.702966 C6.96561,8.730496 6.92688,8.759606 6.88943,8.790306 C6.66573,8.973756 6.4884,9.213756 6.35745,9.510326 C6.20581,9.856516 6.13,10.255156 6.13,10.706246 C6.13,11.156076 6.20581,11.555876 6.35745,11.905876 C6.51031,12.254576 6.72638,12.524976 7.00565,12.716976 C7.09258,12.776076 7.18344,12.826076 7.27826,12.866876 C7.48938,12.957776 7.72005,13.003176 7.97026,13.003176 C8.59064,13.003176 9.0455,12.716376 9.33487,12.142776 L9.33487,12.142776 L9.89389,12.468776 C9.73346,12.835176 9.4852,13.121976 9.14914,13.329176 C9.09813,13.360676 9.04593,13.389676 8.99252,13.416376 C8.69409,13.565476 8.35841,13.639976 7.9855,13.639976 C7.50407,13.639976 7.06625,13.516176 6.67204,13.268576 C6.27911,13.019576 5.96896,12.672776 5.74158,12.228076 C5.51411,11.782076 5.40039,11.274776 5.40039,10.706246 C5.40039,10.136386 5.51411,9.629086 5.74158,9.184346 C5.96896,8.739606 6.27911,8.394676 6.67204,8.149566 C7.06625,7.903186 7.50407,7.779996 7.9855,7.779996 Z M8,1.5 C7.74919,1.5 7.50459,1.527176 7.26619,1.581536 C7.08026,1.623925 6.8981,1.682846 6.71973,1.758301 L6.54021926,1.84052248 L6.54021926,1.84052248 L6.36716407,1.93261285 L6.20045,2.034645 L6.01637296,2.1644657 C5.89651667,2.255386 5.78238333,2.35505267 5.67397,2.463466 C5.51134,2.626096 5.36838,2.801616 5.24512,2.989996 C5.1382,3.153386 5.0461,3.326466 4.9688,3.509216 L4.89885037,3.6888797 L4.89885037,3.6888797 L4.83992296,3.8710523 L4.79201,4.055796 L4.74672407,4.2962223 C4.73062136,4.40399662 4.7198849,4.51299497 4.71451645,4.62321648 L4.71049,4.789466 L4.71049,5.868416 L11.28951,5.868416 L11.28951,4.789466 L11.2854834,4.62320441 L11.2734042,4.4587792 L11.2734042,4.4587792 L11.253273,4.2961897 L11.20798,4.055716 L11.160077,3.8710397 C11.1244667,3.74875822 11.0815067,3.62814933 11.0312,3.509216 C10.97972,3.38750267 10.9216711,3.27008267 10.8569556,3.15679896 L10.75487,2.989956 L10.6250381,2.80587859 C10.5341144,2.68602156 10.43445,2.571886 10.32603,2.463466 L10.1591241,2.30740596 L10.1591241,2.30740596 L9.98362926,2.1644657 L9.79901,2.034295 L9.6325463,1.932447 C9.51942111,1.86783211 9.40199667,1.80978433 9.28027,1.758301 L9.10063815,1.68836237 L9.10063815,1.68836237 L8.91848852,1.62944063 L8.73381,1.581536 L8.49333852,1.53623704 C8.33164444,1.51207822 8.16719333,1.5 8,1.5 Z" id="形状结合"></path>
        </g>
    </g>
</svg>