<?xml version="1.0" encoding="UTF-8"?>
<svg width="16px" height="16px" viewBox="0 0 16 16" version="1.1" xmlns="http://www.w3.org/2000/svg" xmlns:xlink="http://www.w3.org/1999/xlink">
    <!-- Generator: Sketch 63.1 (92452) - https://sketch.com -->
    <title>操作/定制化下载</title>
    <desc>Created with Sketch.</desc>
    <g id="操作/定制化下载" stroke="none" stroke-width="1" fill="none" fill-rule="evenodd">
        <path d="M11.5,8 C12.8807119,8 14,9.11928813 14,10.5 C14,11.2242134 13.692058,11.8765031 13.1999708,12.3330724 C14.266981,12.7682247 15.1291467,13.6013585 15.6024368,14.6480198 C15.6418293,14.7351345 15.6808999,14.8387343 15.7196488,14.9588193 C15.8547664,15.3776751 15.6247884,15.8267784 15.2059438,15.9619308 C15.1269129,15.9874325 15.0443814,16.0004795 14.9613379,16.0004795 L14.6422341,16.0004795 C14.2469842,16.0004795 13.8887878,15.7677696 13.7282757,15.4065794 C13.6557232,15.2433192 13.5842999,15.1139861 13.5140056,15.0185802 C13.0588309,14.4008009 12.3262215,14 11.5,14 C10.682709,14 9.95701743,14.3921834 9.50085118,14.998624 C9.42598135,15.0981582 9.34997758,15.2344724 9.27283988,15.4075667 C9.11207729,15.7682207 8.75415891,16.0004795 8.35929701,16.0004795 L8.03866208,16.0004795 C7.59705844,16.0003751 7.23917747,15.6423355 7.23917747,15.2007319 C7.23917747,15.1159494 7.25268456,15.0317083 7.27918621,14.9511743 C7.30662971,14.8676804 7.33419717,14.7936238 7.36188859,14.7290044 C7.82670542,13.6443295 8.70551672,12.7791997 9.79958114,12.3323562 C9.30794197,11.8765031 9,11.2242134 9,10.5 C9,9.11928813 10.1192881,8 11.5,8 Z M12,0 C12.5522847,0 13,0.44771525 13,1 L13,6 C13,6.55228475 12.5522847,7 12,7 C11.4477153,7 11,6.55228475 11,6 L11,2 L2,2 L2,13 L5,13 C5.55228475,13 6,13.4477153 6,14 C6,14.5522847 5.55228475,15 5,15 L1,15 C0.44771525,15 0,14.5522847 0,14 L0,1 C0,0.44771525 0.44771525,0 1,0 L12,0 Z M11.5,10 C11.2238576,10 11,10.2238576 11,10.5 C11,10.7761424 11.2238576,11 11.5,11 C11.7761424,11 12,10.7761424 12,10.5 C12,10.2238576 11.7761424,10 11.5,10 Z M6.58147081,3.6 C7.13375556,3.6 7.58147081,4.04771525 7.58147081,4.6 L7.581,6.599 L8.80292578,6.6 C8.90831249,6.6 9.01029287,6.63327203 9.09480241,6.69403194 L9.15468901,6.74466547 C9.32912976,6.917353 9.34977541,7.18667657 9.21576528,7.38222403 L9.15826031,7.45176324 L6.85322612,9.78016312 L6.85322612,9.78016312 C6.67878538,9.95285065 6.40926701,9.97077481 6.21508316,9.83479628 L6.14612836,9.77659183 L3.84466547,7.45176324 C3.75198754,7.35814439 3.7,7.23173339 3.7,7.1 C3.7,6.85454011 3.87687516,6.65039163 4.11012437,6.60805567 L4.2,6.6 L5.581,6.599 L5.58147081,4.6 C5.58147081,4.04771525 6.02918606,3.6 6.58147081,3.6 Z" id="形状" fill="#575D6C"></path>
    </g>
</svg>