<?xml version="1.0" encoding="UTF-8"?>
<svg width="16px" height="16px" viewBox="0 0 16 16" version="1.1" xmlns="http://www.w3.org/2000/svg" xmlns:xlink="http://www.w3.org/1999/xlink">
    <title>dashboard</title>
    <g id="页面-1" stroke="none" stroke-width="1" fill="none" fill-rule="evenodd">
        <g id="dashboard" fill="#191919" fill-rule="nonzero">
            <path d="M7.9,1 C10.0764432,1 12.0473226,1.88012298 13.4761443,3.30387497 C13.4792879,3.30709729 13.4827342,3.3104471 13.4861436,3.31385644 L13.496125,3.32385566 C14.919877,4.75267739 15.8,6.72355683 15.8,8.9 C15.8,10.9370882 15.0249686,12.8720415 13.6673179,14.3217732 C13.4785618,14.5233315 13.1621494,14.5337097 12.9605912,14.3449535 C12.7590329,14.1561974 12.7486547,13.8397851 12.9374108,13.6382268 C14.0112369,12.4915698 14.6681653,10.9957019 14.7821841,9.39973635 L13.4666667,9.4 C13.1905243,9.4 12.9666667,9.17614237 12.9666667,8.9 C12.9666667,8.65454011 13.1435418,8.45039163 13.376791,8.40805567 L13.4666667,8.4 L14.7821227,8.39945996 C14.672506,6.87037787 14.0646318,5.47920673 13.1199982,4.38744477 L12.1897811,5.31732566 C11.994519,5.5125878 11.6779365,5.5125878 11.4826743,5.31732566 C11.309108,5.14375931 11.2898228,4.8743349 11.4248189,4.67946676 L11.4826743,4.61021888 L12.4125552,3.68000176 C11.3207933,2.73536823 9.92962213,2.12749402 8.40054004,2.01787735 L8.4,3.33333333 C8.4,3.60947571 8.17614237,3.83333333 7.9,3.83333333 C7.65454011,3.83333333 7.45039163,3.65645817 7.40805567,3.42320897 L7.4,3.33333333 L7.40046384,2.01780546 C5.87098676,2.12722798 4.47944565,2.73516151 3.38744477,3.68000176 L4.31732566,4.61021887 C4.5125878,4.80548102 4.5125878,5.12206351 4.31732566,5.31732566 C4.14375931,5.49089201 3.87433491,5.51017716 3.67946677,5.37518111 L3.61021888,5.31732566 L2.68000176,4.38744477 C1.73536823,5.47920673 1.12749402,6.87037787 1.01787735,8.39945996 L2.33333333,8.4 C2.60947571,8.4 2.83333333,8.62385763 2.83333333,8.9 C2.83333333,9.14545989 2.65645817,9.34960837 2.42320897,9.39194433 L2.33333333,9.4 L1.01785231,9.39970876 C1.13228452,10.9964383 1.79273649,12.4816291 2.88050385,13.6344408 C3.07001767,13.8352868 3.06083111,14.151736 2.8599851,14.3412498 C2.65913908,14.5307636 2.34268991,14.521577 2.15317608,14.320731 C0.779264952,12.8646653 0,10.94281 0,8.9 C0,6.72355683 0.880122982,4.75267739 2.30387497,3.32385566 C2.30709728,3.32071211 2.31044709,3.31726578 2.31385643,3.31385644 L2.32385566,3.30387497 C3.75267739,1.88012298 5.72355683,1 7.9,1 L7.9,1 Z M10.3247527,6.97524731 C10.498319,7.14881366 10.5176042,7.41823806 10.3826081,7.6131062 L10.3247527,7.68235409 L8.78286092,9.22455821 C8.80491145,9.30709774 8.81666667,9.39384275 8.81666667,9.48333333 C8.81666667,10.0356181 8.36895142,10.4833333 7.81666667,10.4833333 C7.26438192,10.4833333 6.81666667,10.0356181 6.81666667,9.48333333 C6.81666667,8.93104858 7.26438192,8.48333333 7.81666667,8.48333333 C7.90615725,8.48333333 7.99290226,8.49508855 8.07544179,8.51713908 L9.61764591,6.97524731 C9.81290806,6.77998516 10.1294905,6.77998516 10.3247527,6.97524731 Z"></path>
        </g>
    </g>
</svg>