<?xml version="1.0" encoding="UTF-8"?>
<svg width="16px" height="16px" viewBox="0 0 16 16" version="1.1" xmlns="http://www.w3.org/2000/svg" xmlns:xlink="http://www.w3.org/1999/xlink">
    <title>Delayed execution延时执行</title>
    <g id="Delayed-execution延时执行" stroke="none" stroke-width="1" fill="none" fill-rule="evenodd">
        <path d="M7.84,1.0017305 C11.1097192,0.929656781 13.9996866,3.11576394 14.82,6.2817305 C15.3903185,8.55076244 14.7893409,10.9547101 13.2183516,12.6884234 C11.6473623,14.4221366 9.31408487,15.2563758 7,14.9117305 C4.67248859,14.5577532 2.67880664,13.0574861 1.69414437,10.9190171 C0.709482107,8.78054816 0.865740383,6.29033684 2.11,4.2917305 C2.35918384,3.95603067 2.82483354,3.86880912 3.1786226,4.09156519 C3.53241166,4.31432127 3.65502117,4.77192825 3.46,5.1417305 C2.22335605,7.21842144 2.51425753,9.86346001 4.17267311,11.6217522 C5.83108869,13.3800443 8.45461812,13.8249556 10.6,12.7117305 C12.6209729,11.5705559 13.6888921,9.26746419 13.254206,6.98762666 C12.81952,4.70778914 10.9790894,2.95921893 8.68,2.6417305 L8.68,2.6417305 L8.52,3.8017305 C8.4453918,4.0139461 8.24494854,4.15594654 8.02,4.15594654 C7.79505146,4.15594654 7.5946082,4.0139461 7.52,3.8017305 L7.52,3.8017305 L7.24,1.8017305 C7.19199208,1.41701518 7.45723107,1.06336319 7.84,1.0017305 Z M4.73752525,4.79925575 C4.87073743,4.66604357 5.08277297,4.65419255 5.23,4.7717305 L5.23,4.7717305 L8.61,7.5317305 C8.84839534,7.72738706 8.95499776,8.04144589 8.88496359,8.34179409 C8.81492942,8.64214229 8.5804118,8.87665992 8.2800636,8.94669409 C7.9797154,9.01672826 7.66565656,8.91012584 7.47,8.6717305 L7.47,8.6717305 L4.71,5.2917305 C4.59246205,5.14450347 4.60431307,4.93246792 4.73752525,4.79925575 Z" id="形状结合" fill="#50D4AB" fill-rule="nonzero"></path>
    </g>
</svg>