<?xml version="1.0" encoding="UTF-8"?>
<svg width="16px" height="16px" viewBox="0 0 16 16" version="1.1" xmlns="http://www.w3.org/2000/svg" xmlns:xlink="http://www.w3.org/1999/xlink">
    <!-- Generator: Sketch 63.1 (92452) - https://sketch.com -->
    <title>操作/删除</title>
    <desc>Created with Sketch.</desc>
    <g id="操作/删除" stroke="none" stroke-width="1" fill="none" fill-rule="evenodd">
        <path d="M14.5,3.5 C15.0522847,3.5 15.5,3.94771525 15.5,4.5 C15.5,5.05228475 15.0522847,5.5 14.5,5.5 L14,5.5 L14,14.5 C14,15.0522847 13.5522847,15.5 13,15.5 L3,15.5 C2.44771525,15.5 2,15.0522847 2,14.5 L2,5.5 L1.5,5.5 C0.94771525,5.5 0.5,5.05228475 0.5,4.5 C0.5,3.94771525 0.94771525,3.5 1.5,3.5 L14.5,3.5 Z M12,5.5 L4,5.5 L4,13.5 L12,13.5 L12,5.5 Z M6.5,7 C7.05228475,7 7.5,7.44771525 7.5,8 L7.5,11 C7.5,11.5522847 7.05228475,12 6.5,12 C5.94771525,12 5.5,11.5522847 5.5,11 L5.5,8 C5.5,7.44771525 5.94771525,7 6.5,7 Z M9.5,7 C10.0522847,7 10.5,7.44771525 10.5,8 L10.5,11 C10.5,11.5522847 10.0522847,12 9.5,12 C8.94771525,12 8.5,11.5522847 8.5,11 L8.5,8 C8.5,7.44771525 8.94771525,7 9.5,7 Z M10.5,0.5 C11.0522847,0.5 11.5,0.94771525 11.5,1.5 C11.5,2.05228475 11.0522847,2.5 10.5,2.5 L5.5,2.5 C4.94771525,2.5 4.5,2.05228475 4.5,1.5 C4.5,0.94771525 4.94771525,0.5 5.5,0.5 L10.5,0.5 Z" id="形状" fill="#575D6C" fill-rule="nonzero"></path>
    </g>
</svg>