<?xml version="1.0" encoding="UTF-8"?>
<svg width="16px" height="16px" viewBox="0 0 16 16" version="1.1" xmlns="http://www.w3.org/2000/svg" xmlns:xlink="http://www.w3.org/1999/xlink">
    <title>发现</title>
    <g id="发现" stroke="none" stroke-width="1" fill="none" fill-rule="evenodd">
        <path d="M9.09999998,9.1 L4.99999999,11.1 L6.99999999,6.99999998 L11,5.1 L9.09999998,9.1 Z M8,16 C3.6,16 -2.66453526e-15,12.4 -2.66453526e-15,8 C-2.66453526e-15,3.6 3.6,-2.66453526e-15 8,-2.66453526e-15 C12.4,-2.66453526e-15 16,3.6 16,8 C16,12.4 12.4,16 8,16 Z M7.99999999,14 C11.3,14 14,11.3 14,7.99999999 C14,4.69999999 11.3,1.99999999 7.99999999,1.99999999 C4.69999999,1.99999999 1.99999999,4.69999999 1.99999999,7.99999999 C1.99999999,11.3 4.69999999,14 7.99999999,14 Z" id="形状" fill="#575D6C"></path>
    </g>
</svg>