<?xml version="1.0" encoding="UTF-8"?>
<svg width="16px" height="16px" viewBox="0 0 16 16" version="1.1" xmlns="http://www.w3.org/2000/svg" xmlns:xlink="http://www.w3.org/1999/xlink">
    <!-- Generator: Sketch 63.1 (92452) - https://sketch.com -->
    <title>操作/基线版本下载</title>
    <desc>Created with Sketch.</desc>
    <g id="操作/基线版本下载" stroke="none" stroke-width="1" fill="none" fill-rule="evenodd">
        <path d="M13.5,0.5 C14.0522847,0.5 14.5,0.94771525 14.5,1.5 L14.5,14.5 C14.5,15.0522847 14.0522847,15.5 13.5,15.5 L2.5,15.5 C1.94771525,15.5 1.5,15.0522847 1.5,14.5 L1.5,1.5 C1.5,0.94771525 1.94771525,0.5 2.5,0.5 L13.5,0.5 Z M12.5,12.5 L3.5,12.5 L3.5,13.5 L12.5,13.5 L12.5,12.5 Z M12.5,2.5 L3.5,2.5 L3.5,10.5 L12.5,10.5 L12.5,2.5 Z M8,3.5 C8.55228475,3.5 9,3.94771525 9,4.5 L8.99953711,6.299 L10.3014629,6.3 C10.4068496,6.3 10.50883,6.33327203 10.5933395,6.39403194 L10.6532261,6.44466547 C10.8276669,6.617353 10.8483125,6.88667657 10.7143024,7.08222403 L10.6567974,7.15176324 L8.35176324,9.48016312 C8.17732249,9.65285065 7.90780412,9.67077481 7.71362027,9.53479628 L7.64466547,9.47659183 L5.34320258,7.15176324 C5.25052465,7.05814439 5.19853711,6.93173339 5.19853711,6.8 C5.19853711,6.55454011 5.37541227,6.35039163 5.60866148,6.30805567 L5.69853711,6.3 L6.99953711,6.299 L7,4.5 C7,3.94771525 7.44771525,3.5 8,3.5 Z" id="形状" fill="#575D6C"></path>
    </g>
</svg>