<?xml version="1.0" encoding="UTF-8"?>
<svg width="16px" height="16px" viewBox="0 0 16 16" version="1.1" xmlns="http://www.w3.org/2000/svg" xmlns:xlink="http://www.w3.org/1999/xlink">
    <title>down-config</title>
    <g id="页面-1" stroke="none" stroke-width="1" fill="none" fill-rule="evenodd">
        <g id="abstract备份-4" fill="#191919" fill-rule="nonzero">
            <g id="编组-26">
                <path d="M12.6971116,9.76672861 C12.9732539,9.76672861 13.1971116,9.99058624 13.1971116,10.2667286 L13.197,12.072 L14.9218533,12.0729631 C14.9586037,12.0729631 14.9945459,12.0817274 15.0268253,12.0982 L15.0721406,12.128558 C15.1689755,12.2115594 15.1801898,12.3573455 15.0971885,12.4541805 L15.0971885,12.4541805 L12.8281206,15.1014263 C12.8204249,15.1104046 12.812051,15.1187785 12.8030727,15.1264742 C12.7062378,15.2094755 12.5604516,15.1982612 12.4774503,15.1014263 L12.4774503,15.1014263 L10.2083824,12.4541805 C10.1725071,12.412326 10.1527875,12.3590188 10.1527875,12.3038932 C10.1527875,12.176354 10.2561784,12.0729631 10.3837176,12.0729631 L10.3837176,12.0729631 L12.197,12.072 L12.1971116,10.2667286 C12.1971116,9.99058624 12.4209692,9.76672861 12.6971116,9.76672861 Z M13.5561364,0.8 C14.330876,0.8 14.9345691,1.45059878 14.999255,2.24877998 L15.005,2.3910651 L15.005,6.3339349 C15.005,7.14773819 14.444348,7.84354827 13.6910047,7.91834876 L13.5561364,7.925 L2.32886364,7.925 C2.18996819,7.925 2.04618168,8.07170718 2.01240529,8.2922424 L2.005,8.3910651 L2.005,12.3339349 C2.005,12.5740765 2.13142459,12.7508014 2.26937255,12.7912304 L2.32886364,12.8 L8.09923164,12.8 L8.09923164,13.925 L2.32886364,13.925 C1.55412397,13.925 0.950430862,13.2744012 0.885745022,12.47622 L0.88,12.3339349 L0.88,8.3910651 C0.88,8.00331176 1.00728159,7.64234574 1.22204232,7.36257851 C1.03796169,7.12264343 0.918151457,6.82316747 0.887676708,6.49831669 L0.88,6.3339349 L0.88,2.3910651 C0.88,1.5772618 1.44065202,0.881451727 2.19399534,0.806651236 L2.32886364,0.8 L13.5561364,0.8 Z M10.3304265,9.8 C10.6410866,9.8 10.8929265,10.0518398 10.8929265,10.3625 C10.8929265,10.6420942 10.6889362,10.8740438 10.4216669,10.9176378 L10.3304265,10.925 L3.32554345,10.925 C3.01488328,10.925 2.76304345,10.6731602 2.76304345,10.3625 C2.76304345,10.0829058 2.96703371,9.85095617 3.23430303,9.80736218 L3.32554345,9.8 L10.3304265,9.8 Z M13.5561364,1.925 L2.32886364,1.925 C2.18996819,1.925 2.04618168,2.07170718 2.01240529,2.2922424 L2.005,2.3910651 L2.005,6.3339349 C2.005,6.5740765 2.13142459,6.75080139 2.26937255,6.7912304 L2.32886364,6.8 L13.5561364,6.8 C13.6950318,6.8 13.8388183,6.6532928 13.8725947,6.4327576 L13.88,6.3339349 L13.88,2.3910651 C13.88,2.11661755 13.714874,1.925 13.5561364,1.925 Z M12.3882841,3.77583645 C12.7104486,3.77583645 12.9716145,4.03700233 12.9716145,4.35916679 C12.9716145,4.6491148 12.7600701,4.88965396 12.4829034,4.93486232 L12.3882841,4.94249713 C12.0969931,4.94249713 11.8575284,4.73216153 11.8125483,4.45657854 L11.8045435,4.35916679 C11.8049538,4.06754237 12.0152894,3.82837766 12.2908724,3.78342763 L12.3882841,3.77583645 Z M10.3304265,3.8 C10.6410866,3.8 10.8929265,4.05183983 10.8929265,4.3625 C10.8929265,4.64209415 10.6889362,4.87404383 10.4216669,4.91763782 L10.3304265,4.925 L3.32554345,4.925 C3.01488328,4.925 2.76304345,4.67316017 2.76304345,4.3625 C2.76304345,4.08290585 2.96703371,3.85095617 3.23430303,3.80736218 L3.32554345,3.8 L10.3304265,3.8 Z" id="down-config"></path>
            </g>
        </g>
    </g>
</svg>