<?xml version="1.0" encoding="UTF-8"?>
<svg width="16px" height="16px" viewBox="0 0 16 16" version="1.1" xmlns="http://www.w3.org/2000/svg" xmlns:xlink="http://www.w3.org/1999/xlink">
    <title>icon-drag</title>
    <g id="icon-drag" stroke="none" stroke-width="1" fill="none" fill-rule="evenodd">
        <path d="M5.66666667,12 C6.21895142,12 6.66666667,12.4477153 6.66666667,13 C6.66666667,13.5522847 6.21895142,14 5.66666667,14 C5.11438192,14 4.66666667,13.5522847 4.66666667,13 C4.66666667,12.4477153 5.11438192,12 5.66666667,12 Z M10.3333333,12 C10.8856181,12 11.3333333,12.4477153 11.3333333,13 C11.3333333,13.5522847 10.8856181,14 10.3333333,14 C9.78104858,14 9.33333333,13.5522847 9.33333333,13 C9.33333333,12.4477153 9.78104858,12 10.3333333,12 Z M5.66666667,7 C6.21895142,7 6.66666667,7.44771525 6.66666667,8 C6.66666667,8.55228475 6.21895142,9 5.66666667,9 C5.11438192,9 4.66666667,8.55228475 4.66666667,8 C4.66666667,7.44771525 5.11438192,7 5.66666667,7 Z M10.3333333,7 C10.8856181,7 11.3333333,7.44771525 11.3333333,8 C11.3333333,8.55228475 10.8856181,9 10.3333333,9 C9.78104858,9 9.33333333,8.55228475 9.33333333,8 C9.33333333,7.44771525 9.78104858,7 10.3333333,7 Z M5.66666667,2 C6.21895142,2 6.66666667,2.44771525 6.66666667,3 C6.66666667,3.55228475 6.21895142,4 5.66666667,4 C5.11438192,4 4.66666667,3.55228475 4.66666667,3 C4.66666667,2.44771525 5.11438192,2 5.66666667,2 Z M10.3333333,2 C10.8856181,2 11.3333333,2.44771525 11.3333333,3 C11.3333333,3.55228475 10.8856181,4 10.3333333,4 C9.78104858,4 9.33333333,3.55228475 9.33333333,3 C9.33333333,2.44771525 9.78104858,2 10.3333333,2 Z" fill="#71757F" fill-rule="nonzero"></path>
    </g>
</svg>