<?xml version="1.0" encoding="UTF-8"?>
<svg width="16px" height="16px" viewBox="0 0 16 16" version="1.1" xmlns="http://www.w3.org/2000/svg" xmlns:xlink="http://www.w3.org/1999/xlink">
    <!-- Generator: Sketch 63.1 (92452) - https://sketch.com -->
    <title>09DTS</title>
    <desc>Created with Sketch.</desc>
    <g id="09DTS" stroke="none" stroke-width="1" fill="none" fill-rule="evenodd">
        <path d="M3.5,3 L3.5,14 L12.5,14 L12.5,3 L13.5,3 C14.0522847,3 14.5,3.44771525 14.5,4 L14.5,15 C14.5,15.5522847 14.0522847,16 13.5,16 L2.5,16 C1.94771525,16 1.5,15.5522847 1.5,15 L1.5,4 C1.5,3.44771525 1.94771525,3 2.5,3 L3.5,3 Z M10,10 C10.5522847,10 11,10.4477153 11,11 C11,11.5522847 10.5522847,12 10,12 L6,12 C5.44771525,12 5,11.5522847 5,11 C5,10.4477153 5.44771525,10 6,10 L10,10 Z M10,7 C10.5522847,7 11,7.44771525 11,8 C11,8.55228475 10.5522847,9 10,9 L6,9 C5.44771525,9 5,8.55228475 5,8 C5,7.44771525 5.44771525,7 6,7 L10,7 Z M11,3 L11,5 L5,5 L5,3 L11,3 Z M8,0 C9.0543618,0 9.91816512,0.815877791 9.99451426,1.85073766 L10,2 L6,2 C6,0.8954305 6.8954305,0 8,0 Z" id="形状" fill="#575D6C"></path>
    </g>
</svg>