<?xml version="1.0" encoding="UTF-8"?>
<svg width="16px" height="16px" viewBox="0 0 16 16" version="1.1" xmlns="http://www.w3.org/2000/svg" xmlns:xlink="http://www.w3.org/1999/xlink">
    <title>edit-directory</title>
    <g id="页面-1" stroke="none" stroke-width="1" fill="none" fill-rule="evenodd">
        <g id="select-vertical-layout备份-5" transform="translate(8.254762, 9.255404) rotate(-90.000000) translate(-8.254762, -9.255404) translate(-1.000000, 1.000000)">
            <g id="编组-39" transform="translate(10.509524, 8.000000) rotate(-270.000000) translate(-10.509524, -8.000000) translate(2.509524, 0.000000)" fill="#191919" fill-rule="nonzero">
                <g id="编组" transform="translate(8.000000, 8.000000) scale(-1, 1) rotate(-90.000000) translate(-8.000000, -8.000000) translate(0.000000, 0.000000)">
                    <path d="M13.1318321,2.66275687 C13.377292,2.66275687 13.5814405,2.83963203 13.6237764,3.07288123 L13.6318321,3.16275687 L13.6318321,14.9891922 C13.6318321,15.2653346 13.4079745,15.4891922 13.1318321,15.4891922 C12.8863722,15.4891922 12.6822237,15.312317 12.6398878,15.0790678 L12.6318321,14.9891922 L12.6318321,3.16275687 C12.6318321,2.88661449 12.8556897,2.66275687 13.1318321,2.66275687 Z M8.9577961,6.83679286 C9.20325599,6.83679286 9.40740447,7.01366802 9.44974043,7.24691723 L9.4577961,7.33679286 L9.4577961,14.9891922 C9.4577961,15.2653346 9.23393847,15.4891922 8.9577961,15.4891922 C8.71233621,15.4891922 8.50818773,15.312317 8.46585177,15.0790678 L8.4577961,14.9891922 L8.4577961,7.33679286 C8.4577961,7.06065048 8.68165372,6.83679286 8.9577961,6.83679286 Z M4.7837601,9.96731985 C5.02921999,9.96731985 5.23336847,10.144195 5.27570443,10.3774442 L5.2837601,10.4673199 L5.2837601,14.9891922 C5.2837601,15.2653346 5.05990248,15.4891922 4.7837601,15.4891922 C4.53830021,15.4891922 4.33415173,15.312317 4.29181577,15.0790678 L4.2837601,14.9891922 L4.2837601,10.4673199 C4.2837601,10.1911775 4.50761773,9.96731985 4.7837601,9.96731985 Z M10.5143813,0.932821563 C11.1058872,1.52432741 11.1058872,2.48334789 10.5143813,3.07485374 L6.23763104,7.35160403 L6.06869056,7.4627205 L3.68589698,8.40940224 C3.2782633,8.57135473 2.87452779,8.16737647 3.03672526,7.75984021 L3.98459345,5.37823308 L4.09559887,5.20957186 L8.37234916,0.932821564 C8.96385501,0.341315717 9.92287549,0.341315717 10.5143813,0.932821563 Z M9.07945594,1.63992835 L4.87666842,5.84419218 L4.39566842,7.05219218 L5.60366842,6.57219218 L9.80727455,2.36774696 C10.0082561,2.1667654 10.0082561,1.8409099 9.80727455,1.63992835 L9.73599833,1.58037825 C9.53542232,1.44142804 9.25810621,1.46127807 9.07945594,1.63992835 Z" id="edit-directory"></path>
                </g>
            </g>
        </g>
    </g>
</svg>