<?xml version="1.0" encoding="UTF-8"?>
<svg width="16px" height="16px" viewBox="0 0 16 16" version="1.1" xmlns="http://www.w3.org/2000/svg" xmlns:xlink="http://www.w3.org/1999/xlink">
    <!-- Generator: Sketch 63.1 (92452) - https://sketch.com -->
    <title>操作/退出循环</title>
    <desc>Created with Sketch.</desc>
    <g id="操作/退出循环" stroke="none" stroke-width="1" fill="none" fill-rule="evenodd">
        <path d="M9.002,11.3305208 L11.4857935,13.8146116 C11.0106443,13.93566 10.5128358,14 10,14 L9.37929886,14.9310517 C9.22612263,15.1608161 8.91568796,15.222903 8.68592361,15.0697268 C8.64311972,15.0411908 8.60497604,15.0062201 8.57283931,14.9660491 L7.30616304,13.3827038 C7.1360925,13.1701156 7.16736031,12.8605331 7.37650524,12.6862456 L9.002,11.3305208 Z M3.05025253,1.13603897 L14.363961,12.4497475 C14.7544853,12.8402718 14.7544853,13.4734367 14.363961,13.863961 C13.9734367,14.2544853 13.3402718,14.2544853 12.9497475,13.863961 L1.63603897,2.55025253 C1.24551468,2.15972824 1.24551468,1.52656326 1.63603897,1.13603897 C2.02656326,0.745514678 2.65972824,0.745514678 3.05025253,1.13603897 Z M1.59635305,3.92468057 L3.01233757,5.34026217 C2.38263089,6.04710315 2,6.97886746 2,8 C2,9.87965231 3.29649498,11.456492 5.04400744,11.8850415 L5.20094326,11.9144056 C5.23348499,11.9193452 5.2692196,11.9243078 5.30814709,11.9292931 C5.80722794,11.9932351 6.18109131,12.4180317 6.18109131,12.921192 L6.18109131,13.0093994 C6.18109131,13.5250616 5.76306448,13.9430885 5.24740224,13.9430885 C5.2093366,13.9430885 5.17130657,13.9407606 5.13352619,13.9361091 L5.00265495,13.9174864 L5.00265495,13.9174864 C2.16363545,13.4425026 0,10.9739234 0,8 C0,6.42666434 0.605574124,4.99476809 1.59635305,3.92468057 Z M10.6155427,2.04174491 L10.704501,2.04594749 L10.704501,2.04594749 L10.9682313,2.07771653 L10.9682313,2.07771653 C13.8215595,2.54064031 16,5.01591913 16,8 C16,9.31795224 15.5750637,10.5366553 14.8547256,11.5265745 L13.4139545,10.0855441 C13.7857144,9.47828607 14,8.76416758 14,8 C14,6.13755733 12.7271371,4.57240772 11.0038779,4.12701767 C10.9205346,4.10547693 10.7743268,4.08287862 10.5652546,4.05922273 C10.0596924,4.00203079 9.67767334,3.57434983 9.67767334,3.06556304 L9.67767334,2.97961426 C9.67767334,2.46164332 10.0975718,2.04174491 10.6155427,2.04174491 Z M6.5,1.06752081 C6.61696825,1.06752081 6.7302347,1.10852892 6.8200922,1.18341017 L8.53906723,2.61588936 C8.75120568,2.7926714 8.77986771,3.10795375 8.60308567,3.3200922 L8.53906723,3.38411064 L7.542,4.21452081 L5.36140998,2.03358215 C5.57123596,2.01138336 5.78428862,2 6,2 L6,1.56752081 C6,1.29137843 6.22385763,1.06752081 6.5,1.06752081 Z" id="形状" fill="#575D6C"></path>
    </g>
</svg>