<?xml version="1.0" encoding="UTF-8"?>
<svg width="16px" height="16px" viewBox="0 0 16 16" version="1.1" xmlns="http://www.w3.org/2000/svg" xmlns:xlink="http://www.w3.org/1999/xlink">
    <title>external-component</title>
    <g id="页面-1" stroke="none" stroke-width="1" fill="none" fill-rule="evenodd">
        <g id="one-to-one备份-7" fill="#191919" fill-rule="nonzero">
            <g id="编组-14">
                <path d="M8.39717414,5.45353685 L8.39731058,7.5095573 C8.6014584,7.59394698 8.77157056,7.74398418 8.88133425,7.93335612 L10.2278965,7.93410121 C12.6421698,7.93410121 14.6123856,9.83533772 14.7229985,12.2222655 L14.7278965,12.4341012 L14.7278965,13.4859857 C14.7278965,13.762128 14.5040389,13.9859857 14.2278965,13.9859857 C13.9824366,13.9859857 13.7782881,13.8091105 13.7359521,13.5758613 L13.7278965,13.4859857 L13.7278965,12.4341012 C13.7278965,10.5655378 12.2636189,9.03897476 10.4199317,8.93928007 L10.2278965,8.93410121 L8.88112014,8.93521551 C8.7713494,9.12441325 8.60132571,9.27431029 8.39731058,9.35864512 L8.39598066,13.4859857 C8.39598066,13.762128 8.17212304,13.9859857 7.89598066,13.9859857 C7.65052078,13.9859857 7.44637229,13.8091105 7.40403633,13.5758613 L7.39598066,13.4859857 L7.39492194,9.218259 C7.29659696,9.14033396 7.21327003,9.04430796 7.14997562,8.93521551 L5.5,8.93410121 C3.6314366,8.93410121 2.10487355,10.3983788 2.00517886,12.242066 L2,12.4341012 L2,13.4859857 C2,13.762128 1.77614237,13.9859857 1.5,13.9859857 C1.25454011,13.9859857 1.05039163,13.8091105 1.00805567,13.5758613 L1,13.4859857 L1,12.4341012 C1,10.0198279 2.90123652,8.04961212 5.2881643,7.9389992 L5.5,7.93410121 L7.14976151,7.93335612 C7.21308206,7.82411111 7.29648605,7.72795636 7.39492194,7.64994342 L7.3952569,5.47640286 C7.54271787,5.52486406 7.70027157,5.55107956 7.86394824,5.55107956 C8.05175005,5.55107956 8.23149088,5.51656645 8.39717414,5.45353685 Z M7.89621552,3 C8.44850027,3 8.89621552,3.44771525 8.89621552,4 C8.89621552,4.55228475 8.44850027,5 7.89621552,5 C7.34393077,5 6.89621552,4.55228475 6.89621552,4 C6.89621552,3.44771525 7.34393077,3 7.89621552,3 Z" id="external-component" transform="translate(7.863948, 8.492993) rotate(-90.000000) translate(-7.863948, -8.492993) "></path>
            </g>
        </g>
    </g>
</svg>