<?xml version="1.0" encoding="UTF-8"?>
<svg width="16px" height="16px" viewBox="0 0 16 16" version="1.1" xmlns="http://www.w3.org/2000/svg" xmlns:xlink="http://www.w3.org/1999/xlink">
    <!-- Generator: Sketch 63.1 (92452) - https://sketch.com -->
    <title>操作/文件夹</title>
    <desc>Created with Sketch.</desc>
    <g id="操作/文件夹" stroke="none" stroke-width="1" fill="none" fill-rule="evenodd">
        <path d="M6.5,1 C6.8147573,1 7.11114562,1.14819416 7.3,1.4 L8.5,3 L14,3 C14.5522847,3 15,3.44771525 15,4 L15,14 C15,14.5522847 14.5522847,15 14,15 L2,15 C1.44771525,15 1,14.5522847 1,14 L1,2 C1,1.44771525 1.44771525,1 2,1 L6.5,1 Z M12.999,9 L2.999,9 L3,13 L13,13 L12.999,9 Z M6,3 L3,3 L2.999,7 L12.999,7 L13,5 L8.03451712,5 C7.7245485,5 7.43210311,4.85625808 7.24276222,4.61083891 L6,3 Z" id="形状" fill="#575D6C"></path>
    </g>
</svg>