<?xml version="1.0" encoding="UTF-8"?>
<svg width="16px" height="16px" viewBox="0 0 16 16" version="1.1" xmlns="http://www.w3.org/2000/svg" xmlns:xlink="http://www.w3.org/1999/xlink">
    <title>icon icon-form-settings</title>
    <g id="icon-icon-form-settings" stroke="none" stroke-width="1" fill="none" fill-rule="evenodd">
        <path d="M12.25,7.28867513 L14.4975953,8.58632487 C14.8069963,8.76495766 14.9975953,9.09508468 14.9975953,9.45235027 L14.9975953,12.0476497 C14.9975953,12.4049153 14.8069963,12.7350423 14.4975953,12.9136751 L12.25,14.2113249 C11.9405989,14.3899577 11.5594011,14.3899577 11.25,14.2113249 L9.00240474,12.9136751 C8.69300366,12.7350423 8.50240474,12.4049153 8.50240474,12.0476497 L8.50240474,9.45235027 C8.50240474,9.09508468 8.69300366,8.76495766 9.00240474,8.58632487 L11.25,7.28867513 C11.5594011,7.11004234 11.9405989,7.11004234 12.25,7.28867513 Z M13,2 C13.5522847,2 14,2.44771525 14,3 L14,7 C14,7.27614237 13.7761424,7.5 13.5,7.5 C13.2545401,7.5 13.0503916,7.32312484 13.0080557,7.08987563 L13,7 L13,6.5 L7,6.5 L7,13 L8,13 C8.27614237,13 8.5,13.2238576 8.5,13.5 C8.5,13.7454599 8.32312484,13.9496084 8.08987563,13.9919443 L8,14 L3,14 C2.44771525,14 2,13.5522847 2,13 L2,3 C2,2.44771525 2.44771525,2 3,2 L13,2 Z M11.75,8.15470054 L9.50240474,9.45235027 L9.50240474,12.0476497 L11.75,13.3452995 L13.9975953,12.0476497 L13.9975953,9.45235027 L11.75,8.15470054 Z M5.999,11.5 L3,11.5 L3,13 L6,13 L5.999,11.5 Z M11.75,9.75 C12.3022847,9.75 12.75,10.1977153 12.75,10.75 C12.75,11.3022847 12.3022847,11.75 11.75,11.75 C11.1977153,11.75 10.75,11.3022847 10.75,10.75 C10.75,10.1977153 11.1977153,9.75 11.75,9.75 Z M6,9 L3,9 L3,10.5 L5.999,10.5 L6,9 Z M6,6.5 L3,6.5 L3,8 L6,8 L6,6.5 Z M13,3 L3,3 L3,5.5 L13,5.5 L13,3 Z" id="形状结合" fill="#71757F" fill-rule="nonzero"></path>
    </g>
</svg>