<?xml version="1.0" encoding="UTF-8"?>
<svg width="16px" height="16px" viewBox="0 0 16 16" version="1.1" xmlns="http://www.w3.org/2000/svg" xmlns:xlink="http://www.w3.org/1999/xlink">
    <!-- Generator: Sketch 63.1 (92452) - https://sketch.com -->
    <title>操作/功能指南</title>
    <desc>Created with Sketch.</desc>
    <g id="操作/功能指南" stroke="none" stroke-width="1" fill="none" fill-rule="evenodd">
        <path d="M15.7210122,7.24598477 C15.8658023,7.55313085 15.883901,7.90282382 15.7753085,8.22060663 L15.7210122,8.35462849 L13.6672579,12.7112993 C13.4939662,13.0789066 13.2134508,13.3837114 12.8645803,13.5868453 L12.7109927,13.6675645 L8.35432186,15.7213189 C7.7048934,16.0274624 6.93024927,15.7491749 6.62410576,15.0997465 C6.47931571,14.7926004 6.46121695,14.4429074 6.56980949,14.1251246 L6.62410576,13.9911028 L8.67786009,9.63443192 C8.85115183,9.26682462 9.13166718,8.96201982 9.48053767,8.758886 L9.63412529,8.67816672 L13.9907961,6.62441239 C14.6402246,6.31826888 15.4148687,6.59655631 15.7210122,7.24598477 Z M13,1 C13.5522847,1 14,1.44771525 14,2 L14,4 C14,4.55228475 13.5522847,5 13,5 C12.4477153,5 12,4.55228475 12,4 L12,3 L3,3 L3,13 L4,13 C4.55228475,13 5,13.4477153 5,14 C5,14.5522847 4.55228475,15 4,15 L2,15 C1.44771525,15 1,14.5522847 1,14 L1,2 C1,1.44771525 1.44771525,1 2,1 L13,1 Z M9.9596733,11.6032645 L9.2642288,13.0808938 L10.7322043,12.3887349 L10.0512387,11.7083995 C10.0178648,11.6750256 9.98734298,11.6398797 9.9596733,11.6032645 Z M13.0811912,9.26393139 L11.2458463,10.1278767 C11.3245418,10.1718542 11.3985568,10.2272906 11.4654522,10.294186 L12.172559,11.0012928 L12.2312706,11.0664452 L13.0811912,9.26393139 Z M6,9 C6.55228475,9 7,9.44771525 7,10 C7,10.5522847 6.55228475,11 6,11 L5,11 C4.44771525,11 4,10.5522847 4,10 C4,9.44771525 4.44771525,9 5,9 L6,9 Z M10,5 C10.5522847,5 11,5.44771525 11,6 C11,6.55228475 10.5522847,7 10,7 L5,7 C4.44771525,7 4,6.55228475 4,6 C4,5.44771525 4.44771525,5 5,5 L10,5 Z" id="形状" fill="#575D6C"></path>
    </g>
</svg>