<?xml version="1.0" encoding="UTF-8"?>
<svg width="16px" height="16px" viewBox="0 0 16 16" version="1.1" xmlns="http://www.w3.org/2000/svg" xmlns:xlink="http://www.w3.org/1999/xlink">
    <!-- Generator: Sketch 63.1 (92452) - https://sketch.com -->
    <title>操作/CloudIDE2</title>
    <desc>Created with Sketch.</desc>
    <g id="操作/CloudIDE2" stroke="none" stroke-width="1" fill="none" fill-rule="evenodd">
        <path d="M5,8 C5.55228475,8 6,8.44771525 6,9 L6,14 C6,14.5522847 5.55228475,15 5,15 C4.44771525,15 4,14.5522847 4,14 L4,9 C4,8.44771525 4.44771525,8 5,8 Z M15,8 C15.5522847,8 16,8.44771525 16,9 C16,9.55228475 15.5522847,10 15,10 L14,10 L14,10.5 L15,10.5 C15.5522847,10.5 16,10.9477153 16,11.5 C16,12.0522847 15.5522847,12.5 15,12.5 L14,12.5 L14,13 L15,13 C15.5522847,13 16,13.4477153 16,14 C16,14.5522847 15.5522847,15 15,15 L13,15 C12.4477153,15 12,14.5522847 12,14 L12,9 C12,8.44771525 12.4477153,8 13,8 L15,8 Z M9.5,8 C10.6045695,8 11.5,8.8954305 11.5,10 L11.5,13 C11.5,14.1045695 10.6045695,15 9.5,15 L6.5,15 L6.5,8 L9.5,8 Z M8,1 C10.5584989,1 12.6681703,2.92165862 12.964415,5.40037655 C13.3692455,5.57349642 13.7466197,5.7985418 14.0881613,6.0671444 C14.157691,6.12182541 14.2341862,6.18861815 14.317647,6.2675226 C14.48792,6.42852334 14.4954561,6.69707328 14.3344677,6.86735797 C14.2743747,6.93092102 14.1966458,6.97383041 14.112334,6.99132368 L14.0262371,7.00016852 L12.0002247,7.0006325 C11.487391,7.00074598 11.0646331,6.61480396 11.0067544,6.11748062 L11,6 C11,4.34314575 9.65685425,3 8,3 C6.34314575,3 5,4.34314575 5,6 C5,6.28077762 5.03857265,6.55254612 5.110708,6.81029553 L5.17102423,7.00090072 L5,7 C3.34314575,7 2,8.34314575 2,10 C2,10.3800497 2.07067005,10.7435936 2.19958596,11.0782074 C2.24149666,11.1869907 2.3035867,11.3074204 2.38585607,11.4394965 L2.47485189,11.5754548 C2.81638488,12.074408 2.99918153,12.6649176 2.99927168,13.2695655 L2.99929254,13.40952 C2.99934766,13.7792588 2.6996598,14.0790912 2.32992096,14.0790912 C2.21837878,14.0790912 2.10921407,14.051268 2.0120544,13.9988562 L1.905193,13.9273706 L1.905193,13.9273706 C0.744826352,13.0117346 2.60058641e-12,11.5928491 2.60058641e-12,10 C2.60058641e-12,7.9356608 1.2510305,6.16351544 3.03630035,5.40035506 C3.33182969,2.92165862 5.44150113,1 8,1 Z M9.5,10 L8.5,10 L8.5,13 L9.5,13 L9.5,10 Z" id="形状" fill="#575D6C"></path>
    </g>
</svg>