<?xml version="1.0" encoding="UTF-8"?>
<svg width="16px" height="16px" viewBox="0 0 16 16" version="1.1" xmlns="http://www.w3.org/2000/svg" xmlns:xlink="http://www.w3.org/1999/xlink">
    <!-- Generator: Sketch 63.1 (92452) - https://sketch.com -->
    <title>CloudIDE</title>
    <desc>Created with Sketch.</desc>
    <g id="CloudIDE" stroke="none" stroke-width="1" fill="none" fill-rule="evenodd">
        <path d="M11.2913287,9.04396046 C11.8194812,9.20543289 12.1167342,9.76448439 11.9552617,10.2926369 L10.7857749,14.1178559 C10.6243025,14.6460085 10.065251,14.9432614 9.53709845,14.781789 C9.00894592,14.6203166 8.71169296,14.0612651 8.8731654,13.5331125 L10.0426522,9.70789351 C10.2041246,9.17974098 10.7631761,8.88248802 11.2913287,9.04396046 Z M8,1 C10.5584989,1 12.6681703,2.92165862 12.964415,5.40037655 C14.1148212,5.89233108 15.0435115,6.80359705 15.5582697,7.94214415 L15.6556453,8.17282708 C15.7847636,8.50159432 15.6229161,8.87278384 15.2941489,9.00190209 C15.2713891,9.01084063 15.2481355,9.01846654 15.2245025,9.02474227 C15.0745203,9.06454026 14.9254699,9.08445127 14.7773438,9.0844476 C14.6026147,9.08444327 14.4279662,9.05672867 14.2533984,9.0013038 L14.0788508,8.93665801 C13.8751218,8.85038849 13.7057528,8.69899406 13.5972622,8.50617885 L13.500494,8.34335279 C13.4858816,8.32043454 13.4720269,8.299626 13.45893,8.28092718 C12.9480068,7.55146728 12.1207488,7.05981689 11.1762728,7.00509269 L11,7 L10.8289758,7.00090072 C10.9397302,6.6878673 11,6.35097203 11,6 C11,4.34314575 9.65685425,3 8,3 C6.34314575,3 5,4.34314575 5,6 C5,6.28077762 5.03857265,6.55254612 5.110708,6.81029553 L5.17102423,7.00090072 L5,7 C3.34314575,7 2,8.34314575 2,10 C2,10.9775501 2.46755484,11.8458969 3.19123579,12.3936116 C3.22307338,12.4177078 3.2759907,12.4523179 3.34998775,12.4974419 C3.59719466,12.648234 3.76692883,12.8987611 3.81527506,13.1842645 L3.90796525,13.7316363 C3.97498608,14.1274204 3.70847073,14.502598 3.31268656,14.5696189 C3.21586865,14.5860137 3.11673256,14.5826202 3.02125719,14.5596648 C2.91381351,14.5338061 2.83736517,14.5096722 2.79191215,14.4872632 C1.13790309,13.6718117 -1.0658141e-13,11.9687916 -1.0658141e-13,10 C-1.0658141e-13,7.9356608 1.2510305,6.16351544 3.03630035,5.40035506 C3.33182969,2.92165862 5.44150113,1 8,1 Z M8.12132034,9.79155438 C8.51184464,10.1820787 8.51184464,10.8152437 8.12132034,11.2057679 L7.41421356,11.9128747 L8.12132034,12.6199815 C8.51184464,13.0105058 8.51184464,13.6436708 8.12132034,14.0341951 C7.73079605,14.4247194 7.09763107,14.4247194 6.70710678,14.0341951 L5.29289322,12.6199815 C4.90236893,12.2294572 4.90236893,11.5962922 5.29289322,11.2057679 L6.70710678,9.79155438 C7.09763107,9.40103009 7.73079605,9.40103009 8.12132034,9.79155438 Z M14.027113,9.70836578 L14.1213203,9.79155438 L15.5355339,11.2057679 C15.8960179,11.5662519 15.9237474,12.133483 15.6187225,12.5257742 L15.5355339,12.6199815 L14.1213203,14.0341951 C13.7307961,14.4247194 13.0976311,14.4247194 12.7071068,14.0341951 C12.3466228,13.6737111 12.3188933,13.1064801 12.6239182,12.7141888 L12.7071068,12.6199815 L13.4142136,11.9128747 L12.7071068,11.2057679 C12.3165825,10.8152437 12.3165825,10.1820787 12.7071068,9.79155438 C13.0375504,9.46111075 13.541719,9.41027327 13.9256165,9.63904194 L14.027113,9.70836578 Z" id="形状" fill="#575D6C"></path>
    </g>
</svg>