<?xml version="1.0" encoding="UTF-8"?>
<svg width="16px" height="16px" viewBox="0 0 16 16" version="1.1" xmlns="http://www.w3.org/2000/svg" xmlns:xlink="http://www.w3.org/1999/xlink">
    <!-- Generator: Sketch 63.1 (92452) - https://sketch.com -->
    <title>操作/cloudserver</title>
    <desc>Created with Sketch.</desc>
    <g id="操作/cloudserver" stroke="none" stroke-width="1" fill="none" fill-rule="evenodd">
        <path d="M10.5,6.5 C11.9872086,6.5 13.2577693,7.42758036 13.7647049,8.73576404 C15.0724196,9.24223071 16,10.5127914 16,12 C16,13.9329966 14.4329966,15.5 12.5,15.5 L8.5,15.5 C6.56700338,15.5 5,13.9329966 5,12 C5,10.5127914 5.92758036,9.24223071 7.23576404,8.7352951 C7.74223071,7.42758036 9.01279136,6.5 10.5,6.5 Z M14,0.5 C14.5522847,0.5 15,0.94771525 15,1.5 L15,5.5 C15,6.05228475 14.5522847,6.5 14,6.5 C13.4477153,6.5 13,6.05228475 13,5.5 L13,2.5 L2,2.5 L2,12.5 L3,12.5 C3.55228475,12.5 4,12.9477153 4,13.5 C4,14.0522847 3.55228475,14.5 3,14.5 L1,14.5 C0.44771525,14.5 0,14.0522847 0,13.5 L0,1.5 C0,0.94771525 0.44771525,0.5 1,0.5 L14,0.5 Z M10.5,8.5 C9.67157288,8.5 9,9.17157288 9,10 C9,10.1170536 9.0134077,10.2309757 9.03877111,10.3403143 L9.08560151,10.500703 L8.5,10.5 C7.67157288,10.5 7,11.1715729 7,12 C7,12.7796961 7.59488808,13.4204487 8.35553999,13.4931334 L8.5,13.5 L12.5,13.5 C13.3284271,13.5 14,12.8284271 14,12 C14,11.2203039 13.4051119,10.5795513 12.64446,10.5068666 L12.5,10.5 L11.9143985,10.500703 C11.9698327,10.3441149 12,10.1755804 12,10 C12,9.17157288 11.3284271,8.5 10.5,8.5 Z M6,4.5 C6.55228475,4.5 7,4.94771525 7,5.5 C7,6.05228475 6.55228475,6.5 6,6.5 L4,6.5 C3.44771525,6.5 3,6.05228475 3,5.5 C3,4.94771525 3.44771525,4.5 4,4.5 L6,4.5 Z" id="形状" fill="#575D6C"></path>
    </g>
</svg>