<?xml version="1.0" encoding="UTF-8"?>
<svg width="16px" height="16px" viewBox="0 0 16 16" version="1.1" xmlns="http://www.w3.org/2000/svg" xmlns:xlink="http://www.w3.org/1999/xlink">
    <!-- Generator: Sketch 63.1 (92452) - https://sketch.com -->
    <title>操作/邮件</title>
    <desc>Created with Sketch.</desc>
    <g id="操作/邮件" stroke="none" stroke-width="1" fill="none" fill-rule="evenodd">
        <path d="M15,1.5 C15.5522847,1.5 16,1.94771525 16,2.5 L16,13.5 C16,14.0522847 15.5522847,14.5 15,14.5 L1,14.5 C0.44771525,14.5 0,14.0522847 0,13.5 L0,2.5 C0,1.94771525 0.44771525,1.5 1,1.5 L15,1.5 Z M14,5.018 L8.60112529,9.11890058 C8.24511208,9.38669419 7.75488792,9.38669419 7.39887471,9.11890058 L2,5.018 L2,12.5 L14,12.5 L14,5.018 Z M12.741,3.5 L3.255,3.5 L7.99929289,7.06735371 L12.741,3.5 Z" id="形状" fill="#575D6C"></path>
    </g>
</svg>