<?xml version="1.0" encoding="UTF-8"?>
<svg width="16px" height="16px" viewBox="0 0 16 16" version="1.1" xmlns="http://www.w3.org/2000/svg" xmlns:xlink="http://www.w3.org/1999/xlink">
    <!-- Generator: Sketch 63.1 (92452) - https://sketch.com -->
    <title>操作/module</title>
    <desc>Created with Sketch.</desc>
    <g id="操作/module" stroke="none" stroke-width="1" fill="none" fill-rule="evenodd">
        <path d="M6.25,8.75 C6.80228475,8.75 7.25,9.19771525 7.25,9.75 L7.25,13.75 C7.25,14.3022847 6.80228475,14.75 6.25,14.75 L2.25,14.75 C1.69771525,14.75 1.25,14.3022847 1.25,13.75 L1.25,9.75 C1.25,9.19771525 1.69771525,8.75 2.25,8.75 L6.25,8.75 Z M13.75,8.75 C14.3022847,8.75 14.75,9.19771525 14.75,9.75 L14.75,13.75 C14.75,14.3022847 14.3022847,14.75 13.75,14.75 L9.75,14.75 C9.19771525,14.75 8.75,14.3022847 8.75,13.75 L8.75,9.75 C8.75,9.19771525 9.19771525,8.75 9.75,8.75 L13.75,8.75 Z M5.25,10.75 L3.25,10.75 L3.25,12.75 L5.25,12.75 L5.25,10.75 Z M12.75,10.75 L10.75,10.75 L10.75,12.75 L12.75,12.75 L12.75,10.75 Z M11.75,1.25 C13.4068542,1.25 14.75,2.59314575 14.75,4.25 C14.75,5.90685425 13.4068542,7.25 11.75,7.25 C10.0931458,7.25 8.75,5.90685425 8.75,4.25 C8.75,2.59314575 10.0931458,1.25 11.75,1.25 Z M6.25,1.25 C6.80228475,1.25 7.25,1.69771525 7.25,2.25 L7.25,6.25 C7.25,6.80228475 6.80228475,7.25 6.25,7.25 L2.25,7.25 C1.69771525,7.25 1.25,6.80228475 1.25,6.25 L1.25,2.25 C1.25,1.69771525 1.69771525,1.25 2.25,1.25 L6.25,1.25 Z M11.75,3.25 C11.1977153,3.25 10.75,3.69771525 10.75,4.25 C10.75,4.80228475 11.1977153,5.25 11.75,5.25 C12.3022847,5.25 12.75,4.80228475 12.75,4.25 C12.75,3.69771525 12.3022847,3.25 11.75,3.25 Z M5.25,3.25 L3.25,3.25 L3.25,5.25 L5.25,5.25 L5.25,3.25 Z" id="形状" fill="#575D6C"></path>
    </g>
</svg>