<?xml version="1.0" encoding="UTF-8"?>
<svg width="16px" height="16px" viewBox="0 0 16 16" version="1.1" xmlns="http://www.w3.org/2000/svg" xmlns:xlink="http://www.w3.org/1999/xlink">
    <!-- Generator: Sketch 63.1 (92452) - https://sketch.com -->
    <title>操作/aveicon-gps</title>
    <desc>Created with Sketch.</desc>
    <g id="操作/aveicon-gps" stroke="none" stroke-width="1" fill="none" fill-rule="evenodd">
        <path d="M8,0 C11.8659932,0 15,2.94965341 15,6.58823529 C15,9.01395655 12.6666667,12.1512115 8,16 C3.33333333,12.1512115 1,9.01395655 1,6.58823529 C1,2.94965341 4.13400675,0 8,0 Z M8,2 C5.18672997,2 3,4.03276926 3,6.40007437 C3,7.67993961 4.42667515,9.77867553 7.377956,12.4489536 L8,13 L8.622569,12.4484786 C11.4810972,9.86202905 12.9091744,7.81184085 12.9958014,6.52268997 L13,6.40007437 C13,4.03276926 10.81327,2 8,2 Z M8,3.5 C9.65685425,3.5 11,4.84314575 11,6.5 C11,8.15685425 9.65685425,9.5 8,9.5 C6.34314575,9.5 5,8.15685425 5,6.5 C5,4.84314575 6.34314575,3.5 8,3.5 Z M8,5.5 C7.44771525,5.5 7,5.94771525 7,6.5 C7,7.05228475 7.44771525,7.5 8,7.5 C8.55228475,7.5 9,7.05228475 9,6.5 C9,5.94771525 8.55228475,5.5 8,5.5 Z" id="形状" fill="#575D6C" fill-rule="nonzero"></path>
    </g>
</svg>