<?xml version="1.0" encoding="UTF-8"?>
<svg width="16px" height="16px" viewBox="0 0 16 16" version="1.1" xmlns="http://www.w3.org/2000/svg" xmlns:xlink="http://www.w3.org/1999/xlink">
    <!-- Generator: Sketch 63.1 (92452) - https://sketch.com -->
    <title>操作/分组</title>
    <desc>Created with Sketch.</desc>
    <g id="操作/分组" stroke="none" stroke-width="1" fill="none" fill-rule="evenodd">
        <path d="M3,13 L3,15 L1,15 L1,13 L3,13 Z M15,13 L15,15 L13,15 L13,13 L15,13 Z M12,13 L12,15 L4,15 L4,13 L12,13 Z M3,4 L3,12 L1,12 L1,4 L3,4 Z M15,4 L15,12 L13,12 L13,4 L15,4 Z M12,8.5 L12,10.5 L7,10.5 L7,8.5 L12,8.5 Z M12,5 L12,7 L5,7 L5,5 L12,5 Z M3,1 L3,3 L1,3 L1,1 L3,1 Z M15,1 L15,3 L13,3 L13,1 L15,1 Z M12,1 L12,3 L4,3 L4,1 L12,1 Z" id="形状" fill="#575D6C"></path>
    </g>
</svg>