<?xml version="1.0" encoding="UTF-8"?>
<svg width="16px" height="16px" viewBox="0 0 16 16" version="1.1" xmlns="http://www.w3.org/2000/svg" xmlns:xlink="http://www.w3.org/1999/xlink">
    <!-- Generator: Sketch 63.1 (92452) - https://sketch.com -->
    <title>11批量提交</title>
    <desc>Created with Sketch.</desc>
    <g id="11批量提交" stroke="none" stroke-width="1" fill="none" fill-rule="evenodd">
        <path d="M14.5,3.5 C15.0522847,3.5 15.5,3.94771525 15.5,4.5 L15.5,14.1428571 C15.5,14.6951419 15.0522847,15.1428571 14.5,15.1428571 L4.5,15.1428571 C3.94771525,15.1428571 3.5,14.6951419 3.5,14.1428571 L3.5,4.5 C3.5,3.94771525 3.94771525,3.5 4.5,3.5 L14.5,3.5 Z M13.5,5.499 L5.5,5.499 L5.5,13.142 L13.5,13.142 L13.5,5.499 Z M11.5,0.5 C12.0522847,0.5 12.5,0.94771525 12.5,1.5 C12.5,2.05228475 12.0522847,2.5 11.5,2.5 L2.5,2.5 L2.5,11.5 C2.5,12.0522847 2.05228475,12.5 1.5,12.5 C0.94771525,12.5 0.5,12.0522847 0.5,11.5 L0.5,1.5 C0.5,0.94771525 0.94771525,0.5 1.5,0.5 L11.5,0.5 Z M12.5860332,7.37500877 C12.9765575,7.76553307 12.9765575,8.39869804 12.5860332,8.78922234 L9.75760612,11.6176495 C9.36708183,12.0081738 8.73391685,12.0081738 8.34339256,11.6176495 L6.929179,10.2034359 C6.53865471,9.81291161 6.53865471,9.17974663 6.929179,8.78922234 C7.31970329,8.39869804 7.95286827,8.39869804 8.34339256,8.78922234 L9.05049934,9.49632912 L11.1718197,7.37500877 C11.562344,6.98448448 12.195509,6.98448448 12.5860332,7.37500877 Z" id="形状" fill="#575D6C" fill-rule="nonzero"></path>
    </g>
</svg>