<?xml version="1.0" encoding="UTF-8"?>
<svg width="16px" height="16px" viewBox="0 0 16 16" version="1.1" xmlns="http://www.w3.org/2000/svg" xmlns:xlink="http://www.w3.org/1999/xlink">
    <title>health</title>
    <g id="页面-1" stroke="none" stroke-width="1" fill="none" fill-rule="evenodd">
        <g id="health" fill="#191919" fill-rule="nonzero">
            <path d="M10.3333333,0.748611111 C11.1594593,0.748611111 11.8291667,1.41831851 11.8291667,2.24444444 L11.8291667,2.24444444 L11.8285,3.23661111 L13.1333333,3.2375 C14.4212614,3.2375 15.4750876,4.23980908 15.557333,5.50694829 L15.5625,5.66666667 L15.5625,13.1333333 C15.5625,14.474925 14.474925,15.5625 13.1333333,15.5625 L13.1333333,15.5625 L2.86666667,15.5625 C1.52507496,15.5625 0.4375,14.474925 0.4375,13.1333333 L0.4375,13.1333333 L0.4375,5.66666667 C0.4375,4.32507496 1.52507496,3.2375 2.86666667,3.2375 L2.86666667,3.2375 L4.1705,3.23661111 L4.17083333,2.24444444 C4.17083333,1.46691415 4.76406896,0.827941457 5.52260794,0.755458615 L5.66666667,0.748611111 Z M13.1333333,4.3625 L2.86666667,4.3625 C2.14639531,4.3625 1.5625,4.94639531 1.5625,5.66666667 L1.5625,5.66666667 L1.5625,13.1333333 C1.5625,13.8536047 2.14639531,14.4375 2.86666667,14.4375 L2.86666667,14.4375 L13.1333333,14.4375 C13.8536047,14.4375 14.4375,13.8536047 14.4375,13.1333333 L14.4375,13.1333333 L14.4375,5.66666667 C14.4375,4.94639531 13.8536047,4.3625 13.1333333,4.3625 L13.1333333,4.3625 Z M8,6.81527778 C8.27959415,6.81527778 8.51154383,7.01926804 8.55513782,7.28653736 L8.5625,7.37777778 L8.562,8.681 L9.86666667,8.68194444 C10.1773268,8.68194444 10.4291667,8.93378427 10.4291667,9.24444444 C10.4291667,9.5240386 10.2251764,9.75598828 9.95790709,9.79958227 L9.86666667,9.80694444 L8.562,9.806 L8.5625,11.1111111 C8.5625,11.4217713 8.31066017,11.6736111 8,11.6736111 C7.72040585,11.6736111 7.48845617,11.4696209 7.44486218,11.2023515 L7.4375,11.1111111 L7.437,9.806 L6.13333333,9.80694444 C5.82267316,9.80694444 5.57083333,9.55510462 5.57083333,9.24444444 C5.57083333,8.96485029 5.77482359,8.73290061 6.04209291,8.68930662 L6.13333333,8.68194444 L7.437,8.681 L7.4375,7.37777778 C7.4375,7.06711761 7.68933983,6.81527778 8,6.81527778 Z M10.3333333,1.87361111 L5.66666667,1.87361111 C5.46186108,1.87361111 5.29583333,2.03963886 5.29583333,2.24444444 L5.29583333,2.24444444 L5.295,3.237 L10.704,3.237 L10.7041667,2.24444444 C10.7041667,2.06523955 10.5770517,1.91572395 10.4080692,1.88114513 L10.4080692,1.88114513 L10.3333333,1.87361111 Z"></path>
        </g>
    </g>
</svg>