<?xml version="1.0" encoding="UTF-8"?>
<svg width="16px" height="16px" viewBox="0 0 16 16" version="1.1" xmlns="http://www.w3.org/2000/svg" xmlns:xlink="http://www.w3.org/1999/xlink">
    <!-- Generator: Sketch 63.1 (92452) - https://sketch.com -->
    <title>07健康检查</title>
    <desc>Created with Sketch.</desc>
    <g id="07健康检查" stroke="none" stroke-width="1" fill="none" fill-rule="evenodd">
        <path d="M7.5,0 L13.8939193,2.74025113 C14.2616031,2.89782992 14.5,3.25936805 14.5,3.65939616 L14.5009644,6.54346139 C13.9373314,6.02889898 13.2555039,5.64162161 12.5009562,5.42710416 L12.5,4.319 L7.5,2.176 L2.5,4.318 L2.5,9.09838732 C2.5,10.1076722 3.00700427,11.044412 3.84056947,11.5976703 L4.01158318,11.7031167 L6.75752308,13.2733215 C6.80973873,13.3098077 6.86581692,13.3451484 6.92602539,13.3793335 C7.70218312,13.8200196 8.82768038,14.4057053 9.63103465,14.7833574 L7.5,16 L3.01930531,13.439603 C1.46143032,12.5493888 0.5,10.8926716 0.5,9.09838732 L0.5,3.65939616 C0.5,3.25936805 0.738396854,2.89782992 1.1060807,2.74025113 L7.5,0 Z M13.9180733,7.45238113 C15.2360688,8.77037663 15.4420258,10.7793042 14.5359444,12.3132372 L15.3322868,13.1092354 C15.7228111,13.4997597 15.7228111,14.1329247 15.3322868,14.5234489 C14.9417625,14.9139732 14.3085976,14.9139732 13.9180733,14.5234489 L13.1211817,13.7276341 C11.5873621,14.6331079 9.57895865,14.426975 8.26121902,13.1092354 C6.69912186,11.5471382 6.69912186,9.0144783 8.26121902,7.45238113 C9.82331619,5.89028397 12.3559761,5.89028397 13.9180733,7.45238113 Z M9.67543259,8.8665947 C8.894384,9.64764328 8.894384,10.9139732 9.67543259,11.6950218 C10.4564812,12.4760704 11.7228111,12.4760704 12.5038597,11.6950218 C13.2849083,10.9139732 13.2849083,9.64764328 12.5038597,8.8665947 C11.7228111,8.08554611 10.4564812,8.08554611 9.67543259,8.8665947 Z" id="形状" fill="#575D6C" fill-rule="nonzero"></path>
    </g>
</svg>