<?xml version="1.0" encoding="UTF-8"?>
<svg width="16px" height="16px" viewBox="0 0 16 16" version="1.1" xmlns="http://www.w3.org/2000/svg" xmlns:xlink="http://www.w3.org/1999/xlink">
    <title>icon/CD_Nav/help</title>
    <g id="icon/CD_Nav/help" stroke="none" stroke-width="1" fill="none" fill-rule="evenodd">
        <path d="M8,0 C12.418278,0 16,3.581722 16,8 C16,12.418278 12.418278,16 8,16 C3.581722,16 0,12.418278 0,8 C0,3.581722 3.581722,0 8,0 Z M8,2 C4.6862915,2 2,4.6862915 2,8 C2,11.3137085 4.6862915,14 8,14 C11.3137085,14 14,11.3137085 14,8 C14,4.6862915 11.3137085,2 8,2 Z M8,11 C8.55228475,11 9,11.4477153 9,12 C9,12.5522847 8.55228475,13 8,13 C7.44771525,13 7,12.5522847 7,12 C7,11.4477153 7.44771525,11 8,11 Z M8,3 C9.65685425,3 11,4.34314575 11,6 C11,7.30588222 10.1656226,8.41688515 9.00090072,8.82897577 L9.00076917,9 C9.00034428,9.55240926 8.55240913,10 8,10 C7.44771525,10 7,9.55228475 7,9 L7,8.2302811 C7,7.7494975 7.24379328,7.0888814 7.86968585,7.00818245 L8,7 C8.52891961,7 9,6.55228475 9,6 C9,5.44771525 8.55228475,5 8,5 C7.52379529,5 7.06972586,5.2907295 7.00728841,5.86295516 L7,6 C7,6.55228475 6.55228475,7 6,7 C5.48716416,7 5.06449284,6.61395981 5.00672773,6.11662113 L5,6 C5,4.34314575 6.34314575,3 8,3 Z" id="形状结合备份-2" fill="#71757F"></path>
    </g>
</svg>