<?xml version="1.0" encoding="UTF-8"?>
<svg width="16px" height="16px" viewBox="0 0 16 16" version="1.1" xmlns="http://www.w3.org/2000/svg" xmlns:xlink="http://www.w3.org/1999/xlink">
    <title>hot</title>
    <g id="页面-1" stroke="none" stroke-width="1" fill="none" fill-rule="evenodd">
        <g id="hot" fill="#191919" fill-rule="nonzero">
            <path d="M6.62490143,0.00148578552 L6.66622259,0.00649303246 C6.68491793,0.0096831231 6.69592867,0.0120251442 6.70687185,0.0147448604 L6.66622259,0.00649303246 C6.69726334,0.0115473165 6.7271681,0.0193584547 6.75572745,0.0296355591 C6.77092544,0.035049574 6.78649877,0.0415510387 6.8017955,0.0488846287 C6.81412627,0.0547963631 6.82549661,0.0608135277 6.8365778,0.0672360221 C6.84404465,0.071622089 6.85162292,0.0762933992 6.85910528,0.0811885138 C6.87664744,0.0925832225 6.89307384,0.104854312 6.90864638,0.118039587 C6.90982335,0.119134143 6.9107819,0.11995169 6.91173823,0.120773487 C8.88359922,1.81523035 9.48221183,4.17624607 8.71493049,7.115493 C8.58033111,7.63110673 9.1108982,8.01286296 9.60451619,7.95752055 C10.5746786,7.84874997 11.8855618,5.98462153 11.5884162,5.03468369 L11.5486837,4.93303277 C11.5035628,4.83840814 11.490806,4.73669906 11.5059805,4.64041889 C11.5129669,4.59611163 11.5258555,4.55297897 11.5442227,4.51221055 C11.5870147,4.41772632 11.6582937,4.33668082 11.7532369,4.28293721 C11.7633119,4.27724004 11.7734806,4.27193174 11.7839014,4.26693738 C11.839239,4.24041561 11.8970261,4.22497864 11.954751,4.21974235 L12.0419641,4.21950998 C12.0466603,4.2199099 12.0513474,4.22037599 12.056024,4.22090774 C12.0978781,4.22566925 12.1388778,4.23568253 12.1780373,4.25059705 C12.2014191,4.2594988 12.2242123,4.27018553 12.2461294,4.28255364 C12.2871308,4.30570626 12.3249535,4.33463498 12.3583299,4.36892066 C12.3954432,4.40702911 12.4271052,4.45184688 12.4513163,4.50262107 L12.455,4.511 L12.6085692,4.83421769 L12.8984955,5.46725897 C13.626403,7.09888527 13.9923958,8.28020931 13.9945544,9.04886517 C13.9949468,9.18857585 13.9936331,9.32379311 13.9904112,9.45498722 C13.9967624,9.48424568 14,9.51669877 14,9.54990805 C14,10.176766 13.9038691,10.7811714 13.7255452,11.3491864 C13.6725564,11.5236234 13.6104846,11.6940811 13.5383018,11.862749 C13.2641276,12.5178218 12.8773065,13.114088 12.4019107,13.6271019 C12.2750482,13.7795169 12.1383205,13.937304 11.9915819,14.100964 C11.9179419,14.1830958 11.8232746,14.2351684 11.7230244,14.2563396 C10.6998205,15.0660087 9.40642064,15.5499081 8,15.5499081 C6.35720391,15.5499081 4.86861159,14.8896832 3.78508682,13.8200973 C3.73744783,13.7979642 3.69252797,13.7672354 3.65242513,13.7284555 C2.82632918,12.9296123 2.35126031,12.037054 2.13768097,10.8376643 C2.04771044,10.421996 2,9.9915237 2,9.54990805 L2.00629177,9.47702402 C2.00207036,9.33826477 2,9.19595679 2,9.04990805 C2,7.87612034 2.52222119,6.78962685 3.4645928,5.59167023 L3.75033425,5.23944173 L4.30315877,4.59181707 C4.63808626,4.19895581 4.9364592,3.72310213 5.19826744,3.18194641 C5.49025782,2.57840442 5.72162453,1.92741492 5.89741362,1.27590134 L5.97738527,0.964468138 L6.03747447,0.703241541 L6.0923664,0.419638365 C6.10014775,0.37210775 6.11417555,0.326997246 6.13475799,0.284065459 C6.15360076,0.244794955 6.17682809,0.209203301 6.20391295,0.17721458 C6.20500751,0.176037611 6.20582505,0.175079059 6.20664685,0.174122723 L6.22362712,0.155276533 C6.237527,0.140696317 6.25227595,0.126985817 6.26777887,0.114213497 L6.20664685,0.174122723 C6.23184864,0.144795085 6.25971143,0.119105853 6.28957088,0.0971052953 C6.30544173,0.0855474312 6.32236624,0.074577635 6.33990985,0.0646513831 C6.34939735,0.0591581392 6.35902237,0.0541343822 6.36877489,0.049441501 C6.38325348,0.0425265677 6.39847049,0.0360649452 6.41401398,0.0303609183 C6.42805372,0.0252560083 6.44169616,0.020953089 6.45547562,0.0172445591 C6.46907482,0.0134733965 6.48331901,0.01026432 6.49774294,0.00768250966 C6.51356339,0.00498000192 6.52957196,0.00291098022 6.54564214,0.00161443618 C6.55540401,0.000705934602 6.56578356,0.000189345533 6.57622057,0 L6.59077062,6.76281165e-06 C6.60215209,0.000112622036 6.61353611,0.000605093884 6.62490143,0.00148578552 Z M6.87480069,1.49315571 L6.86288728,1.53640203 L6.86288728,1.53640203 C6.6719319,2.24412528 6.42021531,2.95237261 6.09845363,3.61745167 C5.85120105,4.12852093 5.5718603,4.59347884 5.25720356,5.00218895 L5.03100049,5.27928763 L4.67201786,5.69753952 C4.51142332,5.88626054 4.37782554,6.0481566 4.25055403,6.20994601 C3.43422427,7.24767638 3,8.15109021 3,9.04990805 C3,9.64169126 3.03503116,10.1542326 3.11173416,10.6076759 C3.59697208,12.8606808 5.60121596,14.5499081 8,14.5499081 C9.44392399,14.5499081 10.7448936,13.9378474 11.6576172,12.9590176 C12.0978276,12.4268195 12.4012847,11.9698818 12.6065206,11.4986529 C12.6692264,11.349417 12.7253961,11.1964962 12.7741102,11.0402861 C12.9424031,10.4783959 12.9968283,9.85994548 12.9945584,9.05167348 C12.9931791,8.56052862 12.7662216,7.74986996 12.3126464,6.64008128 C11.797424,7.79496796 10.7200286,8.83871927 9.71593397,8.95129421 C8.61772858,9.07442044 7.39896697,8.19749113 7.74735514,6.86291044 C8.33101763,4.6270576 8.03858547,2.85612341 6.87480069,1.49315571 Z"></path>
        </g>
    </g>
</svg>