<?xml version="1.0" encoding="UTF-8"?>
<svg width="16px" height="16px" viewBox="0 0 16 16" version="1.1" xmlns="http://www.w3.org/2000/svg" xmlns:xlink="http://www.w3.org/1999/xlink">
    <title>hotkry</title>
    <g id="页面-1" stroke="none" stroke-width="1" fill="none" fill-rule="evenodd">
        <g id="ic_huawei_cloud_healthcare_industry备份-4" fill="#191919" fill-rule="nonzero">
            <g id="hotkey">
                <path d="M13.5,2 C14.8807119,2 16,3.11928813 16,4.5 L16,4.5 L16,10.8333333 C16,12.2140452 14.8807119,13.3333333 13.5,13.3333333 L13.5,13.3333333 L2.5,13.3333333 C1.11928813,13.3333333 0,12.2140452 0,10.8333333 L0,10.8333333 L0,4.5 C0,3.11928813 1.11928813,2 2.5,2 L2.5,2 Z M13.5,3 L2.5,3 C1.67157287,3 1,3.67157287 1,4.5 L1,4.5 L1,10.8333333 C1,11.6617605 1.67157287,12.3333333 2.5,12.3333333 L2.5,12.3333333 L13.5,12.3333333 C14.3284271,12.3333333 15,11.6617605 15,10.8333333 L15,10.8333333 L15,4.5 C15,3.67157287 14.3284271,3 13.5,3 L13.5,3 Z M11.7345244,8.5 C12.0106668,8.5 12.2345244,8.72385763 12.2345244,9 C12.2345244,9.24545989 12.0576492,9.44960837 11.8244,9.49194433 L11.7345244,9.5 L4.73452441,9.5 C4.45838203,9.5 4.23452441,9.27614237 4.23452441,9 C4.23452441,8.75454011 4.41139957,8.55039163 4.64464877,8.50805567 L4.73452441,8.5 L11.7345244,8.5 Z M13.6700842,8.5 C13.9462266,8.5 14.1700842,8.72385763 14.1700842,9 C14.1700842,9.27614237 13.9462266,9.5 13.6700842,9.5 C13.3939418,9.5 13.1700842,9.27614237 13.1700842,9 C13.1700842,8.72385763 13.3939418,8.5 13.6700842,8.5 Z M2.67008419,8.5 C2.94622656,8.5 3.17008419,8.72385763 3.17008419,9 C3.17008419,9.27614237 2.94622656,9.5 2.67008419,9.5 C2.39394181,9.5 2.17008419,9.27614237 2.17008419,9 C2.17008419,8.72385763 2.39394181,8.5 2.67008419,8.5 Z M13.7345244,5.5 C14.0106668,5.5 14.2345244,5.72385763 14.2345244,6 C14.2345244,6.24545989 14.0576492,6.44960837 13.8244,6.49194433 L13.7345244,6.5 L6.73452441,6.5 C6.45838203,6.5 6.23452441,6.27614237 6.23452441,6 C6.23452441,5.75454011 6.41139957,5.55039163 6.64464877,5.50805567 L6.73452441,5.5 L13.7345244,5.5 Z M4.67008419,5.5 C4.94622656,5.5 5.17008419,5.72385763 5.17008419,6 C5.17008419,6.27614237 4.94622656,6.5 4.67008419,6.5 C4.39394181,6.5 4.17008419,6.27614237 4.17008419,6 C4.17008419,5.72385763 4.39394181,5.5 4.67008419,5.5 Z M2.67008419,5.5 C2.94622656,5.5 3.17008419,5.72385763 3.17008419,6 C3.17008419,6.27614237 2.94622656,6.5 2.67008419,6.5 C2.39394181,6.5 2.17008419,6.27614237 2.17008419,6 C2.17008419,5.72385763 2.39394181,5.5 2.67008419,5.5 Z" id="hotkry"></path>
            </g>
        </g>
    </g>
</svg>