<?xml version="1.0" encoding="UTF-8"?>
<svg width="16px" height="16px" viewBox="0 0 16 16" version="1.1" xmlns="http://www.w3.org/2000/svg" xmlns:xlink="http://www.w3.org/1999/xlink">
    <!-- Generator: Sketch 53 (72520) - https://sketchapp.com -->
    <title>操作/insert_image</title>
    <desc>Created with Sketch.</desc>
    <g id="操作/insert_image" stroke="none" stroke-width="1" fill="none" fill-rule="evenodd">
        <path d="M14,10 L14,4 C14,3.44771525 13.5522847,3 13,3 L3,3 C2.44771525,3 2,3.44771525 2,4 L2,11 L5,8 L7,10 L5,12 L6,12 L11,7 L14,10 Z M3,2 L13,2 C14.1045695,2 15,2.8954305 15,4 L15,12 C15,13.1045695 14.1045695,14 13,14 L3,14 C1.8954305,14 1,13.1045695 1,12 L1,4 C1,2.8954305 1.8954305,2 3,2 Z M5.5,7 C4.67157288,7 4,6.32842712 4,5.5 C4,4.67157288 4.67157288,4 5.5,4 C6.32842712,4 7,4.67157288 7,5.5 C7,6.32842712 6.32842712,7 5.5,7 Z" id="Combined-Shape" fill="#293040" fill-rule="nonzero"></path>
    </g>
</svg>