<?xml version="1.0" encoding="UTF-8"?>
<svg width="16px" height="16px" viewBox="0 0 16 16" version="1.1" xmlns="http://www.w3.org/2000/svg" xmlns:xlink="http://www.w3.org/1999/xlink">
    <!-- Generator: Sketch 63.1 (92452) - https://sketch.com -->
    <title>操作/insert_image</title>
    <desc>Created with Sketch.</desc>
    <g id="操作/insert_image" stroke="none" stroke-width="1" fill="none" fill-rule="evenodd">
        <path d="M15,1.5 C15.5522847,1.5 16,1.94771525 16,2.5 L16,13.5 C16,14.0522847 15.5522847,14.5 15,14.5 L1,14.5 C0.44771525,14.5 0,14.0522847 0,13.5 L0,2.5 C0,1.94771525 0.44771525,1.5 1,1.5 L15,1.5 Z M10.2071068,10.1715729 L7.878,12.5 L12.535,12.5 L10.2071068,10.1715729 Z M14,3.5 L2,3.5 L2,11.051 L3.56958008,9.48178253 C3.96010437,9.09125824 4.59326935,9.09125824 4.98379364,9.48178253 C5.37431793,9.87230682 5.37431793,10.5054718 4.98379364,10.8959961 L3.379,12.5 L5.05,12.5 L9.5,8.05025253 C9.89052429,7.65972824 10.5236893,7.65972824 10.9142136,8.05025253 L14,11.136 L14,3.5 Z M4.98779297,5.42114258 C5.54007772,5.42114258 5.98779297,5.86885783 5.98779297,6.42114258 C5.98779297,6.97342733 5.54007772,7.42114258 4.98779297,7.42114258 C4.43550822,7.42114258 3.98779297,6.97342733 3.98779297,6.42114258 C3.98779297,5.86885783 4.43550822,5.42114258 4.98779297,5.42114258 Z" id="形状" fill="#575D6C"></path>
    </g>
</svg>