<?xml version="1.0" encoding="UTF-8"?>
<svg width="16px" height="16px" viewBox="0 0 16 16" version="1.1" xmlns="http://www.w3.org/2000/svg" xmlns:xlink="http://www.w3.org/1999/xlink">
    <!-- Generator: Sketch 63.1 (92452) - https://sketch.com -->
    <title>操作/无效用例</title>
    <desc>Created with Sketch.</desc>
    <g id="操作/无效用例" stroke="none" stroke-width="1" fill="none" fill-rule="evenodd">
        <path d="M9.17157288,8.67157288 C10.73367,7.10947571 13.26633,7.10947571 14.8284271,8.67157288 C16.3905243,10.23367 16.3905243,12.76633 14.8284271,14.3284271 C13.26633,15.8905243 10.73367,15.8905243 9.17157288,14.3284271 C7.60947571,12.76633 7.60947571,10.23367 9.17157288,8.67157288 Z M14,0.5 C14.5522847,0.5 15,0.94771525 15,1.5 L15,6.5 L13,6.5 L13,2.5 L3,2.5 L3,12.5 L7,12.5 L7,14.5 L2,14.5 C1.44771525,14.5 1,14.0522847 1,13.5 L1,1.5 C1,0.94771525 1.44771525,0.5 2,0.5 L14,0.5 Z M10.0675554,10.9832928 C9.88989865,11.6502144 10.0626423,12.3910695 10.5857864,12.9142136 C11.0653352,13.3937623 11.7278216,13.5788774 12.3486053,13.4695588 L12.5167072,13.4324446 L10.0675554,10.9832928 Z M13.4142136,10.0857864 C12.9343958,9.60596871 12.2714352,9.42091504 11.6503502,9.53062543 L11.4821707,9.56785465 L13.9321454,12.0178293 C14.110295,11.3506167 13.9376511,10.609224 13.4142136,10.0857864 Z M7,8.5 L7,10.5 L5,10.5 L5,8.5 L7,8.5 Z M11,4.5 L11,6.5 L5,6.5 L5,4.5 L11,4.5 Z" id="形状" fill="#575D6C"></path>
    </g>
</svg>