<?xml version="1.0" encoding="UTF-8"?>
<svg width="16px" height="16px" viewBox="0 0 16 16" version="1.1" xmlns="http://www.w3.org/2000/svg" xmlns:xlink="http://www.w3.org/1999/xlink">
    <!-- Generator: Sketch 63.1 (92452) - https://sketch.com -->
    <title>操作/判断</title>
    <desc>Created with Sketch.</desc>
    <g id="操作/判断" stroke="none" stroke-width="1" fill="none" fill-rule="evenodd">
        <path d="M0.5,3 L4,3 C4.52698395,3 4.73902014,3.03070779 5.08359287,3.27950742 C5.3346954,3.46081666 5.41581419,3.5669581 5.84701337,4.19486751 L6.34080259,4.93106788 L9.22870791,9.14015206 L10.2365287,10.5881056 L10.2365287,10.5881056 L10.527,10.999 L11.5,10.999 L11.5,9 L15.5,12 L11.5,15 L11.5,13 L10.4963889,13 C9.94445108,13 9.72847677,12.9675873 9.37750145,12.6979154 L9.2595538,12.6012094 C9.18831537,12.5376158 9.12768645,12.4710674 9.05260405,12.3733111 L8.42690418,11.4912152 L4.74477338,6.1409728 C4.47233427,5.73969085 4.27069593,5.43981185 4.18318765,5.3043173 L3.971,4.999 L0.5,5 L0.5,3 Z M5.6,8.6 L6.8,10.4 L5.5,12.33 C5.2037037,12.727037 4.90740741,12.9476132 4.61111111,12.9917284 L4.5,13 L0.5,13 L0.5,11 L3.96,11 L5.6,8.6 Z M11.5,1 L15.5,4 L11.5,7 L11.5,4.999 L10.44,5 L8.8,7.4 L7.6,5.6 L8.9,3.67 C9.1962963,3.27296296 9.49259259,3.05238683 9.78888889,3.0082716 L9.9,3 L11.5,2.999 L11.5,1 Z" id="形状" fill="#575D6C" fill-rule="nonzero"></path>
    </g>
</svg>