<?xml version="1.0" encoding="UTF-8"?>
<svg width="16px" height="16px" viewBox="0 0 16 16" version="1.1" xmlns="http://www.w3.org/2000/svg" xmlns:xlink="http://www.w3.org/1999/xlink">
    <title>layout</title>
    <g id="页面-1" stroke="none" stroke-width="1" fill="none" fill-rule="evenodd">
        <g id="ic_huawei_cloud_healthcare_industry备份-6" fill="#191919" fill-rule="nonzero">
            <g id="编组-29">
                <path d="M13.4863729,6.5 C14.3170325,6.5 15,7.15054056 15,7.9655006 L15,7.9655006 L15,14.0344994 C15,14.8494594 14.3170325,15.5 13.4863729,15.5 L13.4863729,15.5 L7.51362713,15.5 C6.68296754,15.5 6,14.8494594 6,14.0344994 L6,14.0344994 L6,7.9655006 C6,7.15054056 6.68296754,6.5 7.51362713,6.5 L7.51362713,6.5 Z M3.58559652,6.5 C4.37301257,6.5 5,7.16202366 5,7.9655006 L5,7.9655006 L5,14.0344994 C5,14.8379763 4.37301257,15.5 3.58559652,15.5 L3.58559652,15.5 L2.41440348,15.5 C1.62698743,15.5 1,14.8379763 1,14.0344994 L1,14.0344994 L1,7.9655006 C1,7.16202366 1.62698743,6.5 2.41440348,6.5 L2.41440348,6.5 Z M13.4863729,7.5 L7.51362713,7.5 C7.22466515,7.5 7,7.71399815 7,7.9655006 L7,7.9655006 L7,14.0344994 C7,14.2860018 7.22466515,14.5 7.51362713,14.5 L7.51362713,14.5 L13.4863729,14.5 C13.7753349,14.5 14,14.2860018 14,14.0344994 L14,14.0344994 L14,7.9655006 C14,7.71399815 13.7753349,7.5 13.4863729,7.5 L13.4863729,7.5 Z M3.58559652,7.5 L2.41440348,7.5 C2.19179736,7.5 2,7.70251505 2,7.9655006 L2,7.9655006 L2,14.0344994 C2,14.2974849 2.19179737,14.5 2.41440348,14.5 L2.41440348,14.5 L3.58559652,14.5 C3.80820263,14.5 4,14.2974849 4,14.0344994 L4,14.0344994 L4,7.9655006 C4,7.70251505 3.80820264,7.5 3.58559652,7.5 L3.58559652,7.5 Z M13.4459459,0.5 C14.2905576,0.5 15,1.12128681 15,1.92307692 L15,1.92307692 L15,4.07692308 C15,4.87871318 14.2905576,5.5 13.4459459,5.5 L13.4459459,5.5 L2.55405405,5.5 C1.70944237,5.5 1,4.87871318 1,4.07692308 L1,4.07692308 L1,1.92307692 C1,1.12128681 1.70944237,0.5 2.55405405,0.5 L2.55405405,0.5 Z M13.4459459,1.5 L2.55405405,1.5 C2.23438978,1.5 2,1.70526442 2,1.92307692 L2,1.92307692 L2,4.07692308 C2,4.29473557 2.23438979,4.5 2.55405405,4.5 L2.55405405,4.5 L13.4459459,4.5 C13.7656102,4.5 14,4.29473556 14,4.07692308 L14,4.07692308 L14,1.92307692 C14,1.70526443 13.7656102,1.5 13.4459459,1.5 L13.4459459,1.5 Z" id="layout"></path>
            </g>
        </g>
    </g>
</svg>