<?xml version="1.0" encoding="UTF-8"?>
<svg width="16px" height="16px" viewBox="0 0 16 16" version="1.1" xmlns="http://www.w3.org/2000/svg" xmlns:xlink="http://www.w3.org/1999/xlink">
    <!-- Generator: Sketch 52.6 (67491) - http://www.bohemiancoding.com/sketch -->
    <title>操作/点赞点亮状态</title>
    <desc>Created with Sketch.</desc>
    <g id="操作/点赞点亮状态" stroke="none" stroke-width="1" fill="none" fill-rule="evenodd">
        <path d="M2,7 C2.55228475,7 3,7.44771525 3,8 L3,15 C3,15.5522847 2.55228475,16 2,16 C1.44771525,16 1,15.5522847 1,15 L1,8 C1,7.44771525 1.44771525,7 2,7 Z M10.5,3.75976563 C10.5433204,4.11084092 10.5552803,4.69034647 10.5358797,5.49828227 C10.5225964,6.05042105 10.9594458,6.50876645 11.5115852,6.52202476 L13.4052949,6.52231294 C14.5098644,6.52231294 15.4052949,7.41774345 15.4052949,8.52231294 C15.4052949,8.69417309 15.3831433,8.86531649 15.3393877,9.03151323 L13.7053781,15.2379635 C13.5897313,15.6772241 13.1925607,15.9833634 12.7383317,15.9833634 L5,15.9833634 C4.44771525,15.9833634 4,15.5356481 4,14.9833634 L4,7.5602004 C4,7.31109187 4.09298185,7.07095229 4.26073394,6.88679394 C5.18230704,5.87509038 5.70591005,5.08563661 5.83154297,4.51843262 L5.98590436,3.85464395 L6.10261123,3.40371827 C6.44503395,2.15006106 6.89422454,1.12313012 7.62524414,0.909912109 C8.83874512,0.489257813 10.3030052,2.16329 10.5,3.75976563 Z" id="形状" fill="#575D6C" fill-rule="nonzero"></path>
    </g>
</svg>