<?xml version="1.0" encoding="UTF-8"?>
<svg width="16px" height="16px" viewBox="0 0 16 16" version="1.1" xmlns="http://www.w3.org/2000/svg" xmlns:xlink="http://www.w3.org/1999/xlink">
    <!-- Generator: Sketch 63.1 (92452) - https://sketch.com -->
    <title>06调试</title>
    <desc>Created with Sketch.</desc>
    <g id="06调试" stroke="none" stroke-width="1" fill="none" fill-rule="evenodd">
        <path d="M6,9 C7.30625206,9 8.41751442,9.8348501 8.82932572,11.0000889 L15.5,11 L15.5,13 L8.82897577,13.0009007 C8.41688515,14.1656226 7.30588222,15 6,15 C4.69411778,15 3.58311485,14.1656226 3.17102423,13.0009007 L0.5,13 L0.5,11 L3.17067428,11.0000889 C3.58248558,9.8348501 4.69374794,9 6,9 Z M6,11 C5.44771525,11 5,11.4477153 5,12 C5,12.5522847 5.44771525,13 6,13 C6.55228475,13 7,12.5522847 7,12 C7,11.4477153 6.55228475,11 6,11 Z M10,1 C11.3062521,1 12.4175144,1.8348501 12.8293257,3.00008893 L15.5,3 L15.5,5 L12.8289758,5.00090072 C12.4168852,6.16562257 11.3058822,7 10,7 C8.69411778,7 7.58311485,6.16562257 7.17102423,5.00090072 L0.5,5 L0.5,3 L7.17067428,3.00008893 C7.58248558,1.8348501 8.69374794,1 10,1 Z M10,3 C9.44771525,3 9,3.44771525 9,4 C9,4.55228475 9.44771525,5 10,5 C10.5522847,5 11,4.55228475 11,4 C11,3.44771525 10.5522847,3 10,3 Z" id="形状" fill="#575D6C"></path>
    </g>
</svg>