<?xml version="1.0" encoding="UTF-8"?>
<svg width="16px" height="16px" viewBox="0 0 16 16" version="1.1" xmlns="http://www.w3.org/2000/svg" xmlns:xlink="http://www.w3.org/1999/xlink">
    <title>loose</title>
    <g id="页面-1" stroke="none" stroke-width="1" fill="none" fill-rule="evenodd">
        <g id="编组-44" fill="#191919">
            <path d="M4.9,10 C4.95522847,10 5,10.0447715 5,10.1 L5,10.9 C5,10.9552285 4.95522847,11 4.9,11 L4.1,11 C4.04477153,11 4,10.9552285 4,10.9 L4,10.1 C4,10.0447715 4.04477153,10 4.1,10 L4.9,10 Z M12.9,10 C12.9552285,10 13,10.0447715 13,10.1 L13,10.9 C13,10.9552285 12.9552285,11 12.9,11 L6.1,11 C6.04477153,11 6,10.9552285 6,10.9 L6,10.1 C6,10.0447715 6.04477153,10 6.1,10 L12.9,10 Z M4.9,6 C4.95522847,6 5,6.04477153 5,6.1 L5,6.9 C5,6.95522847 4.95522847,7 4.9,7 L4.1,7 C4.04477153,7 4,6.95522847 4,6.9 L4,6.1 C4,6.04477153 4.04477153,6 4.1,6 L4.9,6 Z M12.9,6 C12.9552285,6 13,6.04477153 13,6.1 L13,6.9 C13,6.95522847 12.9552285,7 12.9,7 L6.1,7 C6.04477153,7 6,6.95522847 6,6.9 L6,6.1 C6,6.04477153 6.04477153,6 6.1,6 L12.9,6 Z" id="loose"></path>
        </g>
    </g>
</svg>