<?xml version="1.0" encoding="UTF-8"?>
<svg width="16px" height="16px" viewBox="0 0 16 16" version="1.1" xmlns="http://www.w3.org/2000/svg" xmlns:xlink="http://www.w3.org/1999/xlink">
    <title>Manual review人工审核</title>
    <g id="Manual-review人工审核" stroke="none" stroke-width="1" fill="none" fill-rule="evenodd">
        <path d="M14,9.05133769 C14.1785804,9.05133769 14.3509394,9.11104327 14.4904491,9.21930524 L14.57,9.29 C14.8815066,9.60226199 14.8815066,10.107738 14.57,10.42 L10.37,14.62 L8.93,14.94 L9.24,13.48 L13.43,9.29 C13.5803659,9.13731372 13.7857035,9.05133769 14,9.05133769 Z M8.06659663,1.080296 C10.2178209,1.09493922 11.9509187,2.8487536 11.9400513,5 C11.9347324,6.03784106 11.5160101,7.03077753 10.7765272,7.75899925 L10.6937519,7.83493124 C10.8169649,7.88618498 10.939102,7.94120509 11.06,8 C11.457645,8.19606109 11.6210611,8.67735498 11.425,9.075 C11.2289389,9.47264502 10.747645,9.63606109 10.35,9.44 C8.72918565,8.65002927 6.81637892,8.74708237 5.28384655,9.69704946 C3.75131418,10.6470165 2.81349845,12.3169718 2.8,14.12 C2.8,14.5618278 2.4418278,14.92 2,14.92 C1.5581722,14.92 1.2,14.5618278 1.2,14.12 C1.21687913,11.7647048 2.44090981,9.58275623 4.44211462,8.3406291 C4.74975081,8.1496825 5.06913936,7.98505022 5.39709187,7.84689635 C4.61611445,7.12816361 4.13040586,6.09309124 4.14019239,4.94690728 C4.15856006,2.79571159 5.91537236,1.06565277 8.06659663,1.080296 Z M8,2.68 C6.73779773,2.70200409 5.72922959,3.73724855 5.7401765,4.99959514 C5.75112341,6.26194173 6.77749354,7.27953946 8.03988758,7.27965057 C9.30228163,7.27976168 10.3288309,6.26234464 10.3400225,5 C10.3427347,4.38038462 10.0964287,3.78564703 9.65641381,3.34939297 C9.21639894,2.9131389 8.61956908,2.67194693 8,2.68 Z" id="形状结合" fill="#50D4AB" fill-rule="nonzero"></path>
    </g>
</svg>