<svg xmlns="http://www.w3.org/2000/svg" viewBox="0 0 16 16"><defs><style>.cls-1{fill:#71757f;}</style></defs><g id="图层_2" data-name="图层 2"><path class="cls-1" d="M9.48,14.55a5.76,5.76,0,0,1-1.42-.18L3.15,13.11a2.38,2.38,0,0,1-1.72-2.78,2.21,2.21,0,0,1,1-1.45,2.19,2.19,0,0,1,1.15-.33L1.36,5a2.3,2.3,0,0,1,.7-3.18,2.3,2.3,0,0,1,3.16.79L6.53,4.68l2.9-1.81a2.4,2.4,0,0,1,1.82-.29,2.54,2.54,0,0,1,1.57,1.13l1.27,2.05a5.94,5.94,0,0,1,.78,4.38,5.5,5.5,0,0,1-2.49,3.58h0A5.45,5.45,0,0,1,9.48,14.55ZM3.61,10.29a.59.59,0,0,0-.26.07.52.52,0,0,0-.22.33.64.64,0,0,0,.45.73l4.91,1.26a3.78,3.78,0,0,0,4.68-2.9,4.24,4.24,0,0,0-.56-3.1l-1.28-2a.74.74,0,0,0-.48-.35.59.59,0,0,0-.49.07L6.85,6.53a1.05,1.05,0,0,1-1.44-.34L3.74,3.48A.57.57,0,0,0,3,3.26.56.56,0,0,0,2.84,4L6.15,9.38a.87.87,0,0,1-1,1.3l-1.45-.37Z"/></g></svg>