<?xml version="1.0" encoding="UTF-8"?>
<svg width="16px" height="16px" viewBox="0 0 16 16" version="1.1" xmlns="http://www.w3.org/2000/svg" xmlns:xlink="http://www.w3.org/1999/xlink">
    <!-- Generator: Sketch 63.1 (92452) - https://sketch.com -->
    <title>操作/里程碑</title>
    <desc>Created with Sketch.</desc>
    <g id="操作/里程碑" stroke="none" stroke-width="1" fill="none" fill-rule="evenodd">
        <path d="M2,0 C2.55228475,0 3,0.44771525 3,1 L14.1577289,1 C14.4338713,1 14.6578235,1.22385763 14.6578235,1.5 C14.6578235,1.58365949 14.6367372,1.66598177 14.5966767,1.73942607 L12.2611921,6.02114787 C12.0983862,6.31962536 12.0983862,6.68037464 12.2611921,6.97885213 L14.5966767,11.2605739 C14.7289081,11.5029981 14.6395791,11.8067164 14.397155,11.9389478 C14.3237107,11.9790083 14.2413884,12 14.1577289,12 L3,12 L3,15 C3,15.5522847 2.55228475,16 2,16 C1.44771525,16 1,15.5522847 1,15 L1,1 C1,0.44771525 1.44771525,0 2,0 Z M11.63,3 L3,3 L3,10 L11.631,10 L10.5054009,7.93655639 C10.0495444,7.10081942 10.019154,6.1023455 10.4142296,5.24491027 L10.5054009,5.06344361 L11.63,3 Z" id="形状" fill="#575D6C"></path>
    </g>
</svg>