<?xml version="1.0" encoding="UTF-8"?>
<svg width="16px" height="16px" viewBox="0 0 16 16" version="1.1" xmlns="http://www.w3.org/2000/svg" xmlns:xlink="http://www.w3.org/1999/xlink">
    <title>icon icon-mobile</title>
    <g id="icon-icon-mobile" stroke="none" stroke-width="1" fill="none" fill-rule="evenodd">
        <path d="M11.7001294,0 C12.9700598,0 14,1.19377128 14,2.66577778 L14,13.3342222 C14,14.8062287 12.9700598,16 11.7001294,16 L4.29987064,16 C3.02994024,16 2,14.8062287 2,13.3342222 L2,2.66577778 C2,1.19377128 3.02994024,0 4.29987064,0 L11.7001294,0 Z M12,9.93 L4,9.93 L4,13.0295702 C4,13.5424061 4.38604019,13.9650774 4.88337887,14.0228425 L5,14.0295702 L11,14.0295702 C11.5128358,14.0295702 11.9355072,13.64353 11.9932723,13.1461913 L12,13.0295702 L12,9.93 Z M8,10.9742715 C8.55228475,10.9742715 9,11.4219868 9,11.9742715 C9,12.5265563 8.55228475,12.9742715 8,12.9742715 C7.44771525,12.9742715 7,12.5265563 7,11.9742715 C7,11.4219868 7.44771525,10.9742715 8,10.9742715 Z M11,2 L5,2 C4.48716416,2 4.06449284,2.38604019 4.00672773,2.88337887 L4,3 L4,8 L12,8 L12,3 C12,2.48716416 11.6139598,2.06449284 11.1166211,2.00672773 L11,2 Z" id="形状结合" fill="#71757F"></path>
    </g>
</svg>