<?xml version="1.0" encoding="UTF-8"?>
<svg width="16px" height="16px" viewBox="0 0 16 16" version="1.1" xmlns="http://www.w3.org/2000/svg" xmlns:xlink="http://www.w3.org/1999/xlink">
    <!-- Generator: Sketch 63.1 (92452) - https://sketch.com -->
    <title>操作/修改追溯</title>
    <desc>Created with Sketch.</desc>
    <g id="操作/修改追溯" stroke="none" stroke-width="1" fill="none" fill-rule="evenodd">
        <path d="M6.5,1 C7.05228475,1 7.5,1.44771525 7.5,2 C7.5,2.55228475 7.05228475,3 6.5,3 L3.5,3 L3.5,13 L12.5,13 L12.5,7 C12.5,6.44771525 12.9477153,6 13.5,6 C14.0522847,6 14.5,6.44771525 14.5,7 L14.5,14 C14.5,14.5522847 14.0522847,15 13.5,15 L2.5,15 C1.94771525,15 1.5,14.5522847 1.5,14 L1.5,2 C1.5,1.44771525 1.94771525,1 2.5,1 L6.5,1 Z M10.5,10 C11.0522847,10 11.5,10.4477153 11.5,11 C11.5,11.5522847 11.0522847,12 10.5,12 L5.5,12 C4.94771525,12 4.5,11.5522847 4.5,11 C4.5,10.4477153 4.94771525,10 5.5,10 L10.5,10 Z M9.5,7 C10.0522847,7 10.5,7.44771525 10.5,8 C10.5,8.55228475 10.0522847,9 9.5,9 L5.5,9 C4.94771525,9 4.5,8.55228475 4.5,8 C4.5,7.44771525 4.94771525,7 5.5,7 L9.5,7 Z M13.7268242,0.792893219 C14.1173485,1.18341751 14.1173485,1.81658249 13.7268242,2.20710678 L10.3051311,5.62879986 C10.2311086,5.70282243 10.1357196,5.7517446 10.032413,5.76866887 L8.91206071,5.95221132 C8.74855491,5.97899777 8.59429256,5.86816483 8.56750612,5.70465904 C8.56224404,5.67253902 8.56224404,5.63977675 8.56750612,5.60765673 L8.75104857,4.48730444 C8.76797284,4.38399786 8.81689501,4.28860886 8.89091758,4.2145863 L12.3126107,0.792893219 C12.703135,0.402368927 13.3362999,0.402368927 13.7268242,0.792893219 Z" id="形状" fill="#575D6C"></path>
    </g>
</svg>