<?xml version="1.0" encoding="UTF-8"?>
<svg width="16px" height="16px" viewBox="0 0 16 16" version="1.1" xmlns="http://www.w3.org/2000/svg" xmlns:xlink="http://www.w3.org/1999/xlink">
    <title>more-to-more</title>
    <g id="页面-1" stroke="none" stroke-width="1" fill="none" fill-rule="evenodd">
        <g id="one-to-one备份-5" fill="#191919" fill-rule="nonzero">
            <path d="M4.41911717,4.06077791 L4.4170935,6.67812615 L11.2737811,6.67891088 C11.5319403,6.67891088 11.7466508,6.86493703 11.7911771,7.11025385 L11.7996496,7.20477938 L11.799,10.866 L11.9053148,10.8665394 C13.6144622,10.8665394 15,12.2520772 15,13.9612246 C15,14.2516538 14.7645607,14.4870931 14.4741315,14.4870931 C14.1837024,14.4870931 13.948263,14.2516538 13.948263,13.9612246 C13.948263,12.8866636 13.1186403,12.0058712 12.06497,11.9244229 L11.9053148,11.9182764 L11.799,11.918 L11.7996496,14.0100418 C11.7996496,14.3004709 11.5642102,14.5359103 11.2737811,14.5359103 C11.0156218,14.5359103 10.8009113,14.3498841 10.756385,14.1045673 L10.7479126,14.0100418 L10.747,11.918 L10.5709805,11.9182764 C9.44269133,11.9182764 8.52803226,12.8329355 8.52803226,13.9612246 C8.52803226,14.2516538 8.29259292,14.4870931 8.00216376,14.4870931 C7.71173461,14.4870931 7.47629527,14.2516538 7.47629527,13.9612246 C7.47629527,12.3131182 8.76463331,10.9659192 10.3891442,10.8717929 L10.5709805,10.8665394 L10.747,10.866 L10.7474985,7.72986315 L3.89227674,7.73064787 C3.63411749,7.73064787 3.41940698,7.54462172 3.37488068,7.2993049 L3.36640824,7.20477938 L3.3656188,4.06084254 C3.53032242,4.11915604 3.70759358,4.15089056 3.89227674,4.15089056 C4.0770281,4.15089056 4.254362,4.11913259 4.41911717,4.06077791 Z M3.89227674,2 C4.32792046,2 4.68107948,2.35315902 4.68107948,2.78880275 C4.68107948,3.22444647 4.32792046,3.57760549 3.89227674,3.57760549 C3.45663301,3.57760549 3.10347399,3.22444647 3.10347399,2.78880275 C3.10347399,2.35315902 3.45663301,2 3.89227674,2 Z M1.78880275,2 C2.22444647,2 2.57760549,2.35315902 2.57760549,2.78880275 C2.57760549,3.22444647 2.22444647,3.57760549 1.78880275,3.57760549 C1.35315902,3.57760549 1,3.22444647 1,2.78880275 C1,2.35315902 1.35315902,2 1.78880275,2 Z M5.99575073,2 C6.43139445,2 6.78455347,2.35315902 6.78455347,2.78880275 C6.78455347,3.22444647 6.43139445,3.57760549 5.99575073,3.57760549 C5.560107,3.57760549 5.20694798,3.22444647 5.20694798,2.78880275 C5.20694798,2.35315902 5.560107,2 5.99575073,2 Z" id="more-to-more"></path>
        </g>
    </g>
</svg>