<?xml version="1.0" encoding="UTF-8"?>
<svg width="16px" height="16.0018288px" viewBox="0 0 16 16.0018288" version="1.1" xmlns="http://www.w3.org/2000/svg" xmlns:xlink="http://www.w3.org/1999/xlink">
    <title>icon/CD_Nav/notification</title>
    <g id="icon/CD_Nav/notification" stroke="none" stroke-width="1" fill="none" fill-rule="evenodd">
        <path d="M7.75031151,1.20969901e-12 C10.5190169,-0.000582679625 12.7775574,2.18556898 12.8926667,4.92631763 L12.8972714,5.14381499 L12.8965042,7.45500012 L14.7862337,10.7764175 C15.2556212,11.7129249 14.7290606,12.7003473 13.7545824,12.8523412 L13.6249814,12.8673559 L13.4905703,12.8724579 L10.8345042,12.8720001 C10.8353831,14.4641956 9.64118654,15.769849 8.10382161,15.9452137 L7.93163435,15.9600044 L7.75036414,15.9652414 C6.10738818,15.9652414 4.76438298,14.6809139 4.67054967,13.0614601 L4.66450415,12.8720001 L2.01118888,12.8724579 C0.954950759,12.8724579 0.316921629,11.9532409 0.636044404,10.9816884 L0.683141492,10.8547386 L0.741360517,10.7276227 L2.60250415,7.45700012 L2.60345695,5.14370971 C2.60459139,2.44983448 4.67555054,0.24022783 7.31194801,0.0183259737 L7.53292444,0.00446754476 L7.75031151,1.20969901e-12 Z M8.78850415,12.8720001 L6.71150415,12.8720001 C6.71170435,13.4155835 7.11679177,13.8563638 7.63719071,13.912755 L7.75036414,13.9188497 C8.28575771,13.9188497 8.72653804,13.5137623 8.78292922,12.9933633 L8.78850415,12.8720001 Z M7.75044105,2.04639135 C6.09787607,2.04588333 4.74700801,3.33855997 4.65486139,4.96798836 L4.64984868,5.14381499 L4.64984828,7.72716981 C4.6500846,7.86060615 4.6242227,7.99235916 4.57411331,8.11526533 L4.51598997,8.23495724 L3.03750415,10.8260001 L12.4615042,10.8260001 L10.9864338,8.2361155 C10.9194497,8.12009281 10.8765146,7.99242419 10.859367,7.8605766 L10.8508796,7.72761257 L10.8508797,5.14396888 C10.8498262,3.43254349 9.4618669,2.04586517 7.75044105,2.04639135 Z" id="形状" fill="#71757F" fill-rule="nonzero"></path>
    </g>
</svg>