<?xml version="1.0" encoding="UTF-8"?>
<svg width="16px" height="16px" viewBox="0 0 16 16" version="1.1" xmlns="http://www.w3.org/2000/svg" xmlns:xlink="http://www.w3.org/1999/xlink">
    <title>one-to-one</title>
    <g id="页面-1" stroke="none" stroke-width="1" fill="none" fill-rule="evenodd">
        <g id="one-to-one" fill="#191919" fill-rule="nonzero">
            <path d="M2.72661112,3.84714255 L2.72477456,6.34025021 L14.3955566,6.34116496 C14.6964906,6.34116496 14.9467767,6.55801401 14.9986806,6.84397767 L15.0085569,6.95416524 L15.0085569,14.8869997 C15.0085569,15.2255504 14.7341073,15.5 14.3955566,15.5 C14.0946227,15.5 13.8443365,15.283151 13.7924326,14.9971873 L13.7825563,14.8869997 L13.7820736,7.56625077 L2.11300028,7.56716552 C1.81206632,7.56716552 1.56178017,7.35031648 1.50987626,7.06435282 L1.5,6.95416524 L1.49914909,3.84705749 C1.69112307,3.91501738 1.89774267,3.95200112 2.11300028,3.95200112 C2.32816806,3.95200112 2.53470504,3.91504824 2.72661112,3.84714255 Z M2.11300028,1 C2.72769336,1 3.22600056,1.4983072 3.22600056,2.11300028 C3.22600056,2.72769336 2.72769336,3.22600056 2.11300028,3.22600056 C1.4983072,3.22600056 1,2.72769336 1,2.11300028 C1,1.4983072 1.4983072,1 2.11300028,1 Z"></path>
        </g>
    </g>
</svg>