<?xml version="1.0" encoding="UTF-8"?>
<svg width="16px" height="16px" viewBox="0 0 16 16" version="1.1" xmlns="http://www.w3.org/2000/svg" xmlns:xlink="http://www.w3.org/1999/xlink">
    <title>one-to-more</title>
    <g id="页面-1" stroke="none" stroke-width="1" fill="none" fill-rule="evenodd">
        <g id="one-to-more" fill="#191919" fill-rule="nonzero">
            <path d="M2.67112756,3.69144185 L2.67068526,5.95744367 L11.0512992,5.95827525 C11.3248724,5.95827525 11.5524027,6.15540848 11.5995875,6.41537247 L11.6085658,6.51554185 L11.608,10.395 L11.72054,10.3959351 C13.5317357,10.3959351 15,11.8641994 15,13.6753951 C15,13.9831649 14.7505032,14.2326617 14.4427334,14.2326617 C14.1349636,14.2326617 13.8854668,13.9831649 13.8854668,13.6753951 C13.8854668,12.5366751 13.0063097,11.6032931 11.8897278,11.5169818 L11.72054,11.5104683 L11.608,11.51 L11.6085658,13.7271269 C11.6085658,14.0348968 11.3590691,14.2843935 11.0512992,14.2843935 C10.777726,14.2843935 10.5501958,14.0872603 10.5030109,13.8272963 L10.4940326,13.7271269 L10.494,11.51 L10.3065364,11.5104683 C9.11088035,11.5104683 8.14160961,12.479739 8.14160961,13.6753951 C8.14160961,13.9831649 7.89211285,14.2326617 7.58434301,14.2326617 C7.27657316,14.2326617 7.02707641,13.9831649 7.02707641,13.6753951 C7.02707641,11.9288849 8.39233743,10.5012485 10.1138432,10.4015022 L10.3065364,10.3959351 L10.493,10.395 L10.4935938,7.07197686 L2.1145332,7.07280844 C1.84096,7.07280844 1.61342974,6.87567521 1.56624491,6.61571122 L1.5572666,6.51554185 L1.55691481,3.69108002 C1.73131546,3.75276593 1.91900432,3.786333 2.1145332,3.786333 C2.30967943,3.786333 2.49701631,3.75289718 2.67112756,3.69144185 Z M2.1145332,1 C2.73007289,1 3.2290664,1.49899351 3.2290664,2.1145332 C3.2290664,2.73007289 2.73007289,3.2290664 2.1145332,3.2290664 C1.49899351,3.2290664 1,2.73007289 1,2.1145332 C1,1.49899351 1.49899351,1 2.1145332,1 Z"></path>
        </g>
    </g>
</svg>