<?xml version="1.0" encoding="UTF-8"?>
<svg width="16px" height="16px" viewBox="0 0 16 16" version="1.1" xmlns="http://www.w3.org/2000/svg" xmlns:xlink="http://www.w3.org/1999/xlink">
    <!-- Generator: Sketch 63.1 (92452) - https://sketch.com -->
    <title>操作/exit</title>
    <desc>Created with Sketch.</desc>
    <g id="操作/exit" stroke="none" stroke-width="1" fill="none" fill-rule="evenodd">
        <path d="M14.7928932,0.5 C15.345178,0.5 15.7928932,0.94771525 15.7928932,1.5 L15.7928932,13.5 C15.7928932,13.944896 15.5023619,14.3219349 15.1006757,14.4517402 C14.9689928,14.5663546 14.8206497,14.6644431 14.6587311,14.7421555 L14.4924015,14.8129333 L11.4924015,15.9329333 C10.457595,16.3192611 9.30553797,15.7935652 8.91921019,14.7587586 C8.88776425,14.6745284 8.86209343,14.5884343 8.84230582,14.5010748 L4.79289322,14.5 C4.24060847,14.5 3.79289322,14.0522847 3.79289322,13.5 L3.79289322,11.5 C3.79289322,10.9477153 4.24060847,10.5 4.79289322,10.5 C5.34517797,10.5 5.79289322,10.9477153 5.79289322,11.5 L5.79289322,12.5 L8.792,12.5 L8.79289322,4.06074974 C8.79289322,3.44298481 9.07683863,2.87330359 9.54142747,2.50053835 L5.79289322,2.5 L5.79289322,3.5 C5.79289322,4.05228475 5.34517797,4.5 4.79289322,4.5 C4.24060847,4.5 3.79289322,4.05228475 3.79289322,3.5 L3.79289322,1.5 C3.79289322,0.94771525 4.24060847,0.5 4.79289322,0.5 L14.7928932,0.5 Z M13.7928932,2.94074974 L10.7928932,4.06074974 L10.7928932,14.0592503 L13.7928932,12.9392503 L13.7928932,2.94074974 Z M2.64644661,5.35355339 C2.7402148,5.44732158 2.79289322,5.57449854 2.79289322,5.70710678 L2.792,6.5 L5.79289322,6.5 C6.34517797,6.5 6.79289322,6.94771525 6.79289322,7.5 C6.79289322,8.05228475 6.34517797,8.5 5.79289322,8.5 L2.792,8.5 L2.79289322,9.29289322 C2.79289322,9.56903559 2.56903559,9.79289322 2.29289322,9.79289322 C2.16028497,9.79289322 2.03310802,9.7402148 1.93933983,9.64644661 L0.146446609,7.85355339 C-0.0488155365,7.65829124 -0.0488155365,7.34170876 0.146446609,7.14644661 L1.93933983,5.35355339 C2.13460197,5.15829124 2.45118446,5.15829124 2.64644661,5.35355339 Z" id="形状" fill="#575D6C"></path>
    </g>
</svg>