<?xml version="1.0" encoding="UTF-8"?>
<svg width="16px" height="16px" viewBox="0 0 16 16" version="1.1" xmlns="http://www.w3.org/2000/svg" xmlns:xlink="http://www.w3.org/1999/xlink">
    <!-- Generator: Sketch 63.1 (92452) - https://sketch.com -->
    <title>操作/点赞</title>
    <desc>Created with Sketch.</desc>
    <g id="操作/点赞" stroke="none" stroke-width="1" fill="none" fill-rule="evenodd">
        <path d="M2,7 C2.55228475,7 3,7.44771525 3,8 L3,15 C3,15.5522847 2.55228475,16 2,16 C1.44771525,16 1,15.5522847 1,15 L1,8 C1,7.44771525 1.44771525,7 2,7 Z M10.5,3.75976563 C10.5433204,4.11084092 10.5552803,4.69034647 10.5358797,5.49828227 C10.5225964,6.05042105 10.9594458,6.50876645 11.5115852,6.52202476 L13.4052949,6.52231294 C14.5098644,6.52231294 15.4052949,7.41774345 15.4052949,8.52231294 C15.4052949,8.69417309 15.3831433,8.86531649 15.3393877,9.03151323 L13.7053781,15.2379635 C13.5897313,15.6772241 13.1925607,15.9833634 12.7383317,15.9833634 L5,15.9833634 C4.44771525,15.9833634 4,15.5356481 4,14.9833634 L4,7.5602004 C4,7.31109187 4.09298185,7.07095229 4.26073394,6.88679394 C5.18230704,5.87509038 5.70591005,5.08563661 5.83154297,4.51843262 L5.98590436,3.85464395 L6.10261123,3.40371827 C6.44503395,2.15006106 6.89422454,1.12313012 7.62524414,0.909912109 C8.83874512,0.489257813 10.3030052,2.16329 10.5,3.75976563 Z M8.235,3.27 L8.18662401,3.41275917 C8.05747249,3.80270881 7.92769381,4.30317665 7.78421728,4.95094046 C7.5919919,5.8187942 7.05359418,6.70762501 6.17103709,7.74422713 L6,7.941 L6,13.983 L11.967,13.983 L13.4049905,8.52231292 L11.4635738,8.5214484 C9.80715657,8.48167349 8.49660795,7.10661319 8.53645602,5.45027088 L8.54355939,5.04665408 L8.54451475,4.69779733 C8.54254816,4.37715086 8.53204378,4.14238062 8.51505428,4.00469514 C8.49096251,3.80945188 8.41254528,3.58700169 8.30050577,3.38084299 L8.235,3.27 Z" id="形状" fill="#575D6C" fill-rule="nonzero"></path>
    </g>
</svg>