<?xml version="1.0" encoding="UTF-8"?>
<svg width="16px" height="16px" viewBox="0 0 16 16" version="1.1" xmlns="http://www.w3.org/2000/svg" xmlns:xlink="http://www.w3.org/1999/xlink">
    <!-- Generator: Sketch 63.1 (92452) - https://sketch.com -->
    <title>操作/mine</title>
    <desc>Created with Sketch.</desc>
    <g id="操作/mine" stroke="none" stroke-width="1" fill="none" fill-rule="evenodd">
        <path d="M9.5,1.00097523 C11.709139,1.00097523 13.5,2.79183623 13.5,5.00097523 C13.5,6.42896603 12.7517157,7.68218567 11.625867,8.38991442 C13.8148471,9.21815087 15.3919611,11.2914005 15.4946698,13.7457527 L15.5,14.0025754 L15.5,14.0025754 C15.4996573,14.5545389 15.0521767,15.0019943 14.5002132,15.0019943 L14.4229205,15.0019943 C13.9493714,15.0019943 13.5590034,14.6457118 13.5055655,14.186484 L13.4994548,14.0629891 C13.4998183,14.0414961 13.5,14.0208248 13.5,14.0009752 C13.5,11.5654509 12.2561652,9.42043974 10.3689816,8.16838276 C11.0758209,7.30599859 11.5,6.20302308 11.5,5.00097523 C11.5,3.45090814 10.7946466,2.06558516 9.68739939,1.14846595 L9.5,1.00097523 Z M6.5,1.00097523 C8.709139,1.00097523 10.5,2.79183623 10.5,5.00097523 C10.5,6.42896603 9.75171574,7.68218567 8.62586696,8.38991442 C10.8148471,9.21815087 12.3919611,11.2914005 12.4946698,13.7457527 L12.5,14.002175 L12.5,14.002175 C12.4997983,14.5543119 12.0521368,15.0017821 11.5,15.0017821 L11.3953463,15.0017821 C10.9379577,15.0017821 10.5605092,14.6595174 10.5051467,14.2171337 L10.4987045,14.0741756 L10.4987045,14.0741756 L10.5,14.0009752 L10.5,14.0009752 C10.5,11.7918362 8.709139,10.0009752 6.5,10.0009752 C4.290861,10.0009752 2.5,11.7918362 2.5,14.0009752 L2.50129549,14.0741756 L2.50129549,14.0741756 C2.51683238,14.5313003 2.18756343,14.9201355 1.74731117,14.9904644 L1.60465369,15.0017821 L1.60465369,15.0017821 L1.50002583,15.0017821 C0.987338855,15.0017821 0.564730612,14.6159923 0.506776242,14.1188143 L0.5,14.0009752 L0.5,14.0009752 C0.5,11.4358636 2.10967082,9.24671075 4.37400718,8.38852195 C3.24828426,7.68218567 2.5,6.42896603 2.5,5.00097523 C2.5,2.79183623 4.290861,1.00097523 6.5,1.00097523 Z M6.5,3.00097523 C5.3954305,3.00097523 4.5,3.89640573 4.5,5.00097523 C4.5,6.10554473 5.3954305,7.00097523 6.5,7.00097523 C7.6045695,7.00097523 8.5,6.10554473 8.5,5.00097523 C8.5,3.89640573 7.6045695,3.00097523 6.5,3.00097523 Z" id="形状" fill="#575D6C"></path>
    </g>
</svg>