<?xml version="1.0" encoding="UTF-8"?>
<svg width="16px" height="16px" viewBox="0 0 16 16" version="1.1" xmlns="http://www.w3.org/2000/svg" xmlns:xlink="http://www.w3.org/1999/xlink">
    <!-- Generator: Sketch 63.1 (92452) - https://sketch.com -->
    <title>操作/任务</title>
    <desc>Created with Sketch.</desc>
    <g id="操作/任务" stroke="none" stroke-width="1" fill="none" fill-rule="evenodd">
        <path d="M13.5,0.5 C14.0522847,0.5 14.5,0.94771525 14.5,1.5 L14.5,14.5 C14.5,15.0522847 14.0522847,15.5 13.5,15.5 L2.5,15.5 C1.94771525,15.5 1.5,15.0522847 1.5,14.5 L1.5,1.5 C1.5,0.94771525 1.94771525,0.5 2.5,0.5 L13.5,0.5 Z M12.5,2.5 L3.5,2.5 L3.5,13.5 L12.5,13.5 L12.5,2.5 Z M10.5,9 C11.0522847,9 11.5,9.44771525 11.5,10 C11.5,10.5522847 11.0522847,11 10.5,11 L8.5,11 C7.94771525,11 7.5,10.5522847 7.5,10 C7.5,9.44771525 7.94771525,9 8.5,9 L10.5,9 Z M5.5,9 C6.05228475,9 6.5,9.44771525 6.5,10 C6.5,10.5522847 6.05228475,11 5.5,11 C4.94771525,11 4.5,10.5522847 4.5,10 C4.5,9.44771525 4.94771525,9 5.5,9 Z M10.5,5 C11.0522847,5 11.5,5.44771525 11.5,6 C11.5,6.55228475 11.0522847,7 10.5,7 L8.5,7 C7.94771525,7 7.5,6.55228475 7.5,6 C7.5,5.44771525 7.94771525,5 8.5,5 L10.5,5 Z M5.5,5 C6.05228475,5 6.5,5.44771525 6.5,6 C6.5,6.55228475 6.05228475,7 5.5,7 C4.94771525,7 4.5,6.55228475 4.5,6 C4.5,5.44771525 4.94771525,5 5.5,5 Z" id="形状" fill="#575D6C"></path>
    </g>
</svg>