<?xml version="1.0" encoding="UTF-8"?>
<svg width="16px" height="16px" viewBox="0 0 16 16" version="1.1" xmlns="http://www.w3.org/2000/svg" xmlns:xlink="http://www.w3.org/1999/xlink">
    <!-- Generator: Sketch 63.1 (92452) - https://sketch.com -->
    <title>未选中收藏</title>
    <desc>Created with Sketch.</desc>
    <g id="未选中收藏" stroke="none" stroke-width="1" fill="none" fill-rule="evenodd">
        <path d="M11.375,1 C13.7,1 15.5,2.82608696 15.5,5.18478261 C15.5,8.07608696 12.95,10.4347826 9.05,13.9347826 L8,15 L6.95,13.9347826 L5.70164609,12.8080903 C2.51481481,9.9040526 0.5,7.75483092 0.5,5.18478261 C0.5,2.82608696 2.3,1 4.625,1 C5.9,1 7.175,1.60869565 8,2.59782609 C8.825,1.60869565 10.1,1 11.375,1 Z M11.375,3 C10.7571868,3 10.1047778,3.28515119 9.65373183,3.74823287 L9.53588904,3.87885882 L8,5.72030681 L6.46411096,3.87885882 C6.01412794,3.33935349 5.29897808,3 4.625,3 C3.41106233,3 2.5,3.92426613 2.5,5.18478261 C2.5,6.70688803 3.50736933,8.0798244 7.18794483,11.4516908 L7.999,12.189 L8.82703407,11.437002 C12.410425,8.1537383 13.4517756,6.7694223 13.4983446,5.290761 L13.5,5.18478261 C13.5,3.92426613 12.5889377,3 11.375,3 Z" id="&lt;颜色&gt;Shape" fill="#575D6C" fill-rule="nonzero"></path>
    </g>
</svg>