<?xml version="1.0" encoding="UTF-8"?>
<svg width="16px" height="16px" viewBox="0 0 16 16" version="1.1" xmlns="http://www.w3.org/2000/svg" xmlns:xlink="http://www.w3.org/1999/xlink">
    <title>画板</title>
    <g id="画板" stroke="none" stroke-width="1" fill="none" fill-rule="evenodd">
        <g id="编组" transform="translate(2.000000, 2.000000)" fill="#191919">
            <path d="M10,0 C11.0651206,0 11.9357739,0.83261331 11.9966049,1.88248481 L12,2 L12,3.05 C12,3.70748185 11.4923863,4.24640417 10.8476868,4.29623921 L10.75,4.3 L2.16666667,4.3 C1.89052429,4.3 1.66666667,4.07614237 1.66666667,3.8 C1.66666667,3.54686949 1.85476925,3.33767269 2.09881963,3.30456441 L2.16666667,3.3 L10.75,3.3 C10.8708123,3.3 10.9716093,3.2143045 10.9949209,3.10038372 L11,3.05 L11,2 C11,1.48020259 10.6034079,1.05303421 10.0963067,1.00457772 L10,1 L2,1 C1.48020259,1 1.05303421,1.39659206 1.00457772,1.90369333 L1,2 L1,10 C1,10.5197974 1.39659206,10.9469658 1.90369333,10.9954223 L2,11 L10,11 C10.5197974,11 10.9469658,10.6034079 10.9954223,10.0963067 L11,10 L11,5.33333333 C11,5.05719096 11.2238576,4.83333333 11.5,4.83333333 C11.7531305,4.83333333 11.9623273,5.02143592 11.9954356,5.2654863 L12,5.33333333 L12,10 C12,11.0651206 11.1673867,11.9357739 10.1175152,11.9966049 L10,12 L2,12 C0.934879411,12 0.0642260804,11.1673867 0.00339512894,10.1175152 L0,10 L0,2 C0,0.934879411 0.83261331,0.0642260804 1.88248481,0.00339512894 L2,0 L10,0 Z M6.50983924,5.58171369 C6.75541191,5.64310686 6.91274103,5.87633085 6.88566987,6.12112443 L6.87364268,6.18805276 L6.08792839,9.3309099 C6.02095403,9.59880735 5.74948678,9.7616877 5.48158933,9.69471334 C5.23601666,9.63332017 5.07868754,9.40009618 5.1057587,9.1553026 L5.11778589,9.08837427 L5.90350018,5.94551713 C5.97047454,5.67761968 6.24194179,5.51473933 6.50983924,5.58171369 Z M4.38498196,5.71323155 C4.562493,5.89074259 4.57863037,6.16851838 4.43339406,6.36425938 L4.38498196,6.42033833 L3.16632227,7.6376925 L4.38498196,8.8560887 C4.562493,9.03359974 4.57863037,9.31137553 4.43339406,9.50711652 L4.38498196,9.56319548 C4.20747092,9.74070652 3.92969513,9.75684389 3.73395414,9.61160758 L3.67787518,9.56319548 L2.10644661,7.99176691 C1.92893557,7.81425586 1.9127982,7.53648008 2.05803451,7.34073908 L2.10644661,7.28466012 L3.67787518,5.71323155 C3.87313733,5.51796941 4.18971982,5.51796941 4.38498196,5.71323155 Z M8.25747444,5.66481945 L8.31355339,5.71323155 L9.88498196,7.28466012 C10.062493,7.46217117 10.0786304,7.73994695 9.93339406,7.93568795 L9.88498196,7.99176691 L8.31355339,9.56319548 C8.11829124,9.75845762 7.80170876,9.75845762 7.60644661,9.56319548 C7.42893557,9.38568444 7.4127982,9.10790865 7.55803451,8.91216765 L7.60644661,8.8560887 L8.82432227,7.6376925 L7.60644661,6.42033833 C7.42893557,6.24282729 7.4127982,5.9650515 7.55803451,5.76931051 L7.60644661,5.71323155 C7.78395765,5.53572051 8.06173344,5.51958314 8.25747444,5.66481945 Z M6.25,1.56933594 C6.5721661,1.56933594 6.83333333,1.83050317 6.83333333,2.15266927 C6.83333333,2.47483537 6.5721661,2.7360026 6.25,2.7360026 C5.9278339,2.7360026 5.66666667,2.47483537 5.66666667,2.15266927 C5.66666667,1.83050317 5.9278339,1.56933594 6.25,1.56933594 Z M7.91666667,1.56933594 C8.23883277,1.56933594 8.5,1.83050317 8.5,2.15266927 C8.5,2.47483537 8.23883277,2.7360026 7.91666667,2.7360026 C7.59450056,2.7360026 7.33333333,2.47483537 7.33333333,2.15266927 C7.33333333,1.83050317 7.59450056,1.56933594 7.91666667,1.56933594 Z M9.58590495,1.56933594 C9.90807105,1.56933594 10.1692383,1.83050317 10.1692383,2.15266927 C10.1692383,2.47483537 9.90807105,2.7360026 9.58590495,2.7360026 C9.26373884,2.7360026 9.00257161,2.47483537 9.00257161,2.15266927 C9.00257161,1.83050317 9.26373884,1.56933594 9.58590495,1.56933594 Z" id="形状结合"></path>
        </g>
    </g>
</svg>