<?xml version="1.0" encoding="UTF-8"?>
<svg width="16px" height="16px" viewBox="0 0 16 16" version="1.1" xmlns="http://www.w3.org/2000/svg" xmlns:xlink="http://www.w3.org/1999/xlink">
    <title>output准出条件</title>
    <g id="output准出条件" stroke="none" stroke-width="1" fill="none" fill-rule="evenodd">
        <g transform="translate(1.000000, 1.000000)" fill="#71757F" fill-rule="nonzero" id="路径">
            <path d="M11.570064,8.51518657 C11.1282362,8.51518657 10.770064,8.87335877 10.770064,9.31518657 L10.770064,10.3151866 C10.7780928,10.7554667 10.6108549,11.1808962 10.3051553,11.4978486 C9.99945568,11.8148009 9.5803467,11.9973016 9.14006399,12.0051866 L3.23006399,12.0051866 C2.78978128,11.9973016 2.37067229,11.8148009 2.06497269,11.4978486 C1.75927309,11.1808962 1.59203519,10.7554667 1.60006399,10.3151866 L1.60006399,5.08518657 C1.60006399,4.64335877 1.24189179,4.28518657 0.800063987,4.28518657 C0.358236187,4.28518657 1.77635684e-15,4.64335877 1.77635684e-15,5.08518657 L1.77635684e-15,10.3451866 C-0.0110688212,12.1434369 1.4319133,13.6132237 3.23006399,13.6351866 L9.14006399,13.6351866 C10.9382147,13.6132237 12.3811968,12.1434369 12.370064,10.3451866 L12.370064,9.34518657 C12.3782193,9.12786469 12.2975481,8.91658805 12.146626,8.76000636 C11.9957038,8.60342467 11.7875388,8.51503361 11.570064,8.51518657 L11.570064,8.51518657 Z"></path>
            <path d="M13.840064,4.81518657 L11.160064,0.0751865729 C11.100064,-0.0348134271 10.930064,-0.0148134271 10.930064,0.0751865729 L10.830064,2.07518657 C9.8914764,1.89817309 8.92550754,1.92889295 8.00006399,2.16518657 C4.32006399,3.19518657 3.68006399,7.81518657 4.54006399,10.8951866 C4.57150269,10.9980307 4.67555572,11.0605039 4.78110729,11.0399085 C4.88665886,11.0193131 4.95959371,10.9223056 4.95006399,10.8151866 C4.95006399,8.25518657 5.77006399,4.91518657 8.47006399,4.56518657 C8.83116993,4.53294377 9.19507105,4.57375511 9.54006399,4.68518657 L8.38006399,5.87518657 C8.30006399,5.95518657 8.38006399,6.10518657 8.51006399,6.08518657 L13.620064,5.34518657 C13.7378777,5.33059468 13.8387745,5.25384674 13.8842868,5.14420359 C13.929799,5.03456044 13.912912,4.90892105 13.840064,4.81518657 L13.840064,4.81518657 Z"></path>
        </g>
    </g>
</svg>