<?xml version="1.0" encoding="UTF-8"?>
<svg width="16px" height="16px" viewBox="0 0 16 16" version="1.1" xmlns="http://www.w3.org/2000/svg" xmlns:xlink="http://www.w3.org/1999/xlink">
    <!-- Generator: Sketch 63.1 (92452) - https://sketch.com -->
    <title>操作/部分通过</title>
    <desc>Created with Sketch.</desc>
    <g id="操作/部分通过" stroke="none" stroke-width="1" fill="none" fill-rule="evenodd">
        <path d="M15.0805866,11.3050625 C15.4711109,11.6955868 15.4711109,12.3287518 15.0805866,12.719276 L12.9592663,14.8405964 C12.5990024,15.2008603 12.0322438,15.2287759 11.6399787,14.9243433 L11.5450527,14.8405964 L10.1308392,13.4263828 C9.74031486,13.0358585 9.74031486,12.4026936 10.1308392,12.0121693 C10.5213634,11.621645 11.1545284,11.621645 11.5450527,12.0121693 L12.2514524,12.7185689 L13.6663731,11.3050625 C14.0568974,10.9145382 14.6900623,10.9145382 15.0805866,11.3050625 Z M7.5,12 C8.05228475,12 8.5,12.4477153 8.5,13 C8.5,13.5522847 8.05228475,14 7.5,14 L1.5,14 C0.94771525,14 0.5,13.5522847 0.5,13 C0.5,12.4477153 0.94771525,12 1.5,12 L7.5,12 Z M8.5,7 C9.05228475,7 9.5,7.44771525 9.5,8 C9.5,8.55228475 9.05228475,9 8.5,9 L1.5,9 C0.94771525,9 0.5,8.55228475 0.5,8 C0.5,7.44771525 0.94771525,7 1.5,7 L8.5,7 Z M12.5,7 C13.0522847,7 13.5,7.44771525 13.5,8 C13.5,8.55228475 13.0522847,9 12.5,9 C11.9477153,9 11.5,8.55228475 11.5,8 C11.5,7.44771525 11.9477153,7 12.5,7 Z M8.5,2 C9.05228475,2 9.5,2.44771525 9.5,3 C9.5,3.55228475 9.05228475,4 8.5,4 L1.5,4 C0.94771525,4 0.5,3.55228475 0.5,3 C0.5,2.44771525 0.94771525,2 1.5,2 L8.5,2 Z M12.5,2 C13.0522847,2 13.5,2.44771525 13.5,3 C13.5,3.55228475 13.0522847,4 12.5,4 C11.9477153,4 11.5,3.55228475 11.5,3 C11.5,2.44771525 11.9477153,2 12.5,2 Z" id="形状" fill="#575D6C"></path>
    </g>
</svg>