<?xml version="1.0" encoding="UTF-8"?>
<svg width="16px" height="16px" viewBox="0 0 16 16" version="1.1" xmlns="http://www.w3.org/2000/svg" xmlns:xlink="http://www.w3.org/1999/xlink">
    <!-- Generator: Sketch 63.1 (92452) - https://sketch.com -->
    <title>13粘贴</title>
    <desc>Created with Sketch.</desc>
    <g id="13粘贴" stroke="none" stroke-width="1" fill="none" fill-rule="evenodd">
        <path d="M11,4 C11.5522847,4 12,4.44771525 12,5 L12,14 C12,14.5522847 11.5522847,15 11,15 L2,15 C1.44771525,15 1,14.5522847 1,14 L1,5 C1,4.44771525 1.44771525,4 2,4 L11,4 Z M10,6 L3,6 L3,13 L10,13 L10,6 Z M14,10 C14.5522847,10 15,10.4477153 15,11 C15,11.5522847 14.5522847,12 14,12 C13.4477153,12 13,11.5522847 13,11 C13,10.4477153 13.4477153,10 14,10 Z M7.5,7 L7.5,8.5 L9,8.5 L9,10.5 L7.5,10.5 L7.5,12 L5.5,12 L5.5,10.5 L4,10.5 L4,8.5 L5.5,8.5 L5.5,7 L7.5,7 Z M14,7 C14.5522847,7 15,7.44771525 15,8 C15,8.55228475 14.5522847,9 14,9 C13.4477153,9 13,8.55228475 13,8 C13,7.44771525 13.4477153,7 14,7 Z M14,1 C14.5522847,1 15,1.44771525 15,2 L15,5 C15,5.55228475 14.5522847,6 14,6 C13.4477153,6 13,5.55228475 13,5 L13,3.5 C13,3.25454011 12.8231248,3.05039163 12.5898756,3.00805567 L12.5,3 L11,3 C10.4871642,3 10.0644928,2.61395981 10.0067277,2.11662113 L10,2 C10,1.44771525 10.4477153,1 11,1 L14,1 Z M8,1 C8.55228475,1 9,1.44771525 9,2 C9,2.55228475 8.55228475,3 8,3 C7.44771525,3 7,2.55228475 7,2 C7,1.44771525 7.44771525,1 8,1 Z M5,1 C5.55228475,1 6,1.44771525 6,2 C6,2.55228475 5.55228475,3 5,3 C4.44771525,3 4,2.55228475 4,2 C4,1.44771525 4.44771525,1 5,1 Z" id="形状" fill="#575D6C"></path>
    </g>
</svg>