<?xml version="1.0" encoding="UTF-8"?>
<svg width="16px" height="16px" viewBox="0 0 16 16" version="1.1" xmlns="http://www.w3.org/2000/svg" xmlns:xlink="http://www.w3.org/1999/xlink">
    <title>patchset-lock</title>
    <g id="页面-1" stroke="none" stroke-width="1" fill="none" fill-rule="evenodd">
        <g id="patchset-lock" fill="#595959">
            <path d="M8,0.5 C8.2387475,0.5 8.4732875,0.51894725 8.70361156,0.556841328 L8.93253,0.601051 L9.18173296,0.664446963 C9.34671,0.711824444 9.50941,0.76944 9.66983,0.837296 C10.18307,1.0543747 10.63751,1.360733 11.03314,1.756355 C11.17222,1.895439 11.3002733,2.041791 11.4172881,2.19540744 L11.58453,2.43128 L11.7204056,2.65199259 C11.8065389,2.80204222 11.88381,2.95793333 11.95221,3.11966 C12.02007,3.28009333 12.0777122,3.44279778 12.1251041,3.6077763 L12.1885,3.85695 C12.23905,4.084575 12.2705875,4.31628938 12.2831969,4.55218172 L12.2895,4.78947 L12.2895,5.87525 C12.5479,5.89464 12.7973,5.95515 13.0376,6.05679 C13.1739,6.11443 13.3027,6.18333 13.4241,6.26349 C13.558,6.3519 13.6828,6.454 13.7986,6.5698 C14.0194,6.7906 14.1904,7.04428 14.3116,7.33084 C14.41208,7.568392 14.472368,7.8147952 14.492464,8.07004448 L14.5,8.26314 L14.5,13.3158 C14.5,13.6404 14.4372,13.9511 14.3116,14.248 C14.1904,14.5346 14.0194,14.7883 13.7986,15.0091 C13.5778,15.2299 13.3241,15.4009 13.0376,15.5221 C12.8,15.62258 12.553632,15.682868 12.2983936,15.702964 L12.1053,15.7105 L3.89474,15.7105 C3.57016,15.7105 3.2594,15.6477 2.962433,15.5221 C2.87157167,15.4836333 2.78402011,15.4401889 2.69976915,15.391737 L2.575867,15.3153 L2.44500733,15.2223593 C2.35978178,15.1573667 2.27858467,15.0863 2.201416,15.0091 C2.12420653,14.9319 2.05310058,14.8507 1.98808003,14.7654704 L1.895111,14.6346 L1.81868604,14.5106333 C1.77025344,14.4264111 1.726817,14.3389 1.688385,14.2481 C1.63092,14.1122 1.586609,13.9734 1.55542,13.8317 C1.530782,13.7197667 1.51436356,13.6060111 1.50615548,13.490463 L1.5,13.3158 L1.5,8.26314 C1.5,8.08706 1.518494,7.91505 1.55545,7.74712 C1.586609,7.60546 1.63092,7.46671 1.688385,7.33084 C1.809601,7.04427 1.9805908,6.7906 2.201416,6.56979 C2.422211,6.349 2.675873,6.17799 2.962433,6.05679 C3.053011,6.01848333 3.14487478,5.98601667 3.23801752,5.95939296 L3.37869,5.92384 L3.5434425,5.8937 L3.71054,5.87524 L3.71054,4.78947 C3.71054,4.47113 3.74423,4.16027 3.81161,3.8569 C3.86731,3.60603 3.94608,3.36029 4.04785,3.11967 C4.11625,2.95791 4.19353444,2.80199444 4.27968556,2.65192037 L4.41556,2.43119 L4.58282185,2.19532078 C4.69982333,2.041735 4.82785,1.89541633 4.96689,1.756363 C5.10597,1.61729967 5.25229,1.48926656 5.40587963,1.37226367 L5.64172,1.205032 L5.86247481,1.06914029 C6.01254667,0.982993289 6.16846,0.905711 6.3302,0.837296 C6.49056,0.769470667 6.65318667,0.711875111 6.81808593,0.664507852 L7.06714,0.601128 L7.29636313,0.556851031 C7.5267125,0.518951188 7.7612525,0.5 8,0.5 Z M12.1053,6.86839 L3.89474,6.86839 L3.78715556,6.87238 C3.71605556,6.8777 3.6462,6.88834 3.57758,6.9043 L3.463615,6.9360625 L3.463615,6.9360625 L3.35199,6.9778 L3.24036,7.03086 L3.1347,7.09311 L3.01742837,7.178585 L2.908508,7.2769 C2.838684,7.34673 2.777435,7.42212 2.724731,7.50308 L2.66247963,7.60874625 L2.66247963,7.60874625 L2.609406,7.72039 L2.56767275,7.83200125 L2.535919,7.94597 L2.51595956,8.04983037 L2.50398878,8.15555296 L2.50398878,8.15555296 L2.5,8.26314 L2.5,13.3158 L2.50683792,13.4562562 C2.52051375,13.5951187 2.55470325,13.7292 2.609406,13.8585 C2.679962,14.0253 2.779663,14.1731 2.908508,14.302 C3.0051395,14.3986 3.11245175,14.4788313 3.23044137,14.5426938 L3.35199,14.6011 L3.463615,14.6428 L3.57761,14.6746 L3.68146667,14.6945296 L3.78717667,14.7065037 L3.78717667,14.7065037 L3.89474,14.7105 L12.1053,14.7105 L12.2457562,14.7036578 C12.3846188,14.689975 12.5187,14.655775 12.648,14.6011 C12.8148,14.5305 12.9626,14.4308 13.0915,14.302 C13.2203,14.1731 13.32,14.0253 13.3906,13.8585 C13.445275,13.7292 13.479475,13.5951187 13.4931578,13.4562562 L13.5,13.3158 L13.5,8.26314 L13.4960037,8.15556 C13.4906778,8.08446 13.4800333,8.0146 13.4641,7.94598 C13.4463,7.86923 13.4218,7.79404 13.3906,7.72039 C13.3583,7.64395 13.3198,7.5715 13.2752,7.50304 C13.2226,7.42209 13.1613,7.34671 13.0915,7.2769 C12.9626,7.14805 12.8148,7.04835 12.648,6.97779 C12.4756,6.90486 12.2947,6.86839 12.1053,6.86839 Z M8.0961,8.14454 C8.49063,8.14454 8.84351,8.22202 9.15469,8.37695 C9.46719,8.53061 9.71133,8.7448 9.88712,9.01954 C10.06421,9.29427 10.15274,9.60808 10.15274,9.96095 C10.15274,10.31251 10.06549,10.6257 9.89102,10.90041 C9.71783,11.1751 9.47501,11.3887 9.16251,11.541 C8.913558,11.66188 8.6362668,11.734376 8.3306364,11.7585392 L8.0961,11.7676 L7.00821,11.7676 L7.00821,14 L6.29532,14 L6.29532,8.14454 L8.0961,8.14454 Z M8.00821,8.76759 L7.00821,8.76759 L7.00821,11.1445 L8.00821,11.1445 C8.45612,11.1445 8.79987,11.0339 9.03946,10.81251 C9.28033,10.59111 9.40079,10.3073 9.40079,9.96095 C9.40079,9.61329 9.28033,9.32748 9.03946,9.10353 L9.03757,9.10178 C8.7981,8.87898 8.45496,8.76759 8.00821,8.76759 Z M8,1.5 C7.88855111,1.5 7.77832494,1.5053681 7.66932236,1.51610359 L7.5067363,1.5362323 L7.26627,1.58152 L7.08158222,1.62942567 C6.95929778,1.66503567 6.83869333,1.70799233 6.71976,1.758301 L6.5402237,1.84053578 L6.5402237,1.84053578 L6.3671563,1.93263856 L6.20053,2.03462 L6.01644037,2.16444741 C5.89657444,2.25537111 5.78243,2.35504 5.67401,2.46346 L5.51794185,2.63039037 L5.51794185,2.63039037 L5.37499148,2.80590296 L5.24515,2.99 L5.1431763,3.15661481 C5.07848444,3.26984222 5.02037333,3.38737333 4.96884,3.50922 L4.89889,3.68887926 L4.89889,3.68887926 L4.83996667,3.87105407 L4.79205,4.05575 L4.74677556,4.2961937 C4.73067481,4.40397494 4.71993704,4.51297955 4.71456749,4.62320841 L4.71054,4.78947 L4.71054,5.86839 L11.28952,5.86839 L11.28952,4.78947 L11.2804656,4.54079333 C11.2683922,4.37638444 11.2442433,4.21472667 11.20801,4.05582 C11.16562,3.86986 11.10669,3.68765 11.03122,3.50922 C10.86478,3.11573 10.62973,2.76715 10.32605,2.46347 C10.16339,2.30083 9.98788,2.15788 9.7995,2.03461 C9.63611,1.927704 9.46304,1.835602 9.28027,1.758301 C9.10184,1.682831 8.91965,1.623901 8.73367,1.581505 C8.49533,1.527168 8.25076,1.5 8,1.5 Z" id="形状结合"></path>
        </g>
    </g>
</svg>