<?xml version="1.0" encoding="UTF-8"?>
<svg width="16px" height="16px" viewBox="0 0 16 16" version="1.1" xmlns="http://www.w3.org/2000/svg" xmlns:xlink="http://www.w3.org/1999/xlink">
    <title>percent</title>
    <g id="页面-1" stroke="none" stroke-width="1" fill="none" fill-rule="evenodd">
        <g id="percent" transform="translate(8.000000, 8.000000) rotate(-90.000000) translate(-8.000000, -8.000000) " fill="#191919" fill-rule="nonzero">
            <g id="编组-42" transform="translate(8.000000, 8.000000) rotate(-270.000000) translate(-8.000000, -8.000000) ">
                <path d="M12.2246356,7.47585025 C14.0335694,7.47585025 15.5,8.94228083 15.5,10.7512146 C15.5,12.5601484 14.0335694,14.026579 12.2246356,14.026579 C10.4157018,14.026579 8.94927122,12.5601484 8.94927122,10.7512146 C8.94927122,8.94228083 10.4157018,7.47585025 12.2246356,7.47585025 Z M12.3768968,1.39947777 C12.6030133,1.55798936 12.6768526,1.85275972 12.565226,2.09496729 L12.5146075,2.18296245 L4.59100965,13.4859622 C4.4126841,13.7403433 4.06190607,13.8019985 3.80752497,13.623673 C3.58140843,13.4651614 3.50756914,13.1703911 3.6191957,12.9281835 L3.66981419,12.8401883 L11.5934121,1.53718854 C11.7717376,1.28280744 12.1225157,1.22115223 12.3768968,1.39947777 Z M12.2246356,8.47585025 C10.9679866,8.47585025 9.94927122,9.49456558 9.94927122,10.7512146 C9.94927122,12.0078637 10.9679866,13.026579 12.2246356,13.026579 C13.4812847,13.026579 14.5,12.0078637 14.5,10.7512146 C14.5,9.49456558 13.4812847,8.47585025 12.2246356,8.47585025 Z M3.77536439,1 C5.58429819,1 7.05072878,2.46643059 7.05072878,4.27536439 C7.05072878,6.08429819 5.58429819,7.55072878 3.77536439,7.55072878 C1.96643059,7.55072878 0.5,6.08429819 0.5,4.27536439 C0.5,2.46643059 1.96643059,1 3.77536439,1 Z M3.77536439,2 C2.51871534,2 1.5,3.01871534 1.5,4.27536439 C1.5,5.53201344 2.51871534,6.55072878 3.77536439,6.55072878 C5.03201344,6.55072878 6.05072878,5.53201344 6.05072878,4.27536439 C6.05072878,3.01871534 5.03201344,2 3.77536439,2 Z" id="percent"></path>
            </g>
        </g>
    </g>
</svg>