<?xml version="1.0" encoding="UTF-8"?>
<svg width="16px" height="16px" viewBox="0 0 16 16" version="1.1" xmlns="http://www.w3.org/2000/svg" xmlns:xlink="http://www.w3.org/1999/xlink">
    <!-- Generator: Sketch 63.1 (92452) - https://sketch.com -->
    <title>操作/plan</title>
    <desc>Created with Sketch.</desc>
    <g id="操作/plan" stroke="none" stroke-width="1" fill="none" fill-rule="evenodd">
        <path d="M11,0.5 C11.5522847,0.5 12,0.94771525 12,1.5 L12,2.5 L14.5,2.5 C15.0522847,2.5 15.5,2.94771525 15.5,3.5 L15.5,14.5 C15.5,15.0522847 15.0522847,15.5 14.5,15.5 L1.5,15.5 C0.94771525,15.5 0.5,15.0522847 0.5,14.5 L0.5,3.5 C0.5,2.94771525 0.94771525,2.5 1.5,2.5 L4,2.5 L4,1.5 C4,0.94771525 4.44771525,0.5 5,0.5 C5.55228475,0.5 6,0.94771525 6,1.5 L6,2.5 L10,2.5 L10,1.5 C10,0.94771525 10.4477153,0.5 11,0.5 Z M13.5,4.5 L2.5,4.5 L2.5,13.5 L13.5,13.5 L13.5,4.5 Z M9,9.5 C9.55228475,9.5 10,9.94771525 10,10.5 C10,11.0522847 9.55228475,11.5 9,11.5 L5,11.5 C4.44771525,11.5 4,11.0522847 4,10.5 C4,9.94771525 4.44771525,9.5 5,9.5 L9,9.5 Z M11,6.5 C11.5522847,6.5 12,6.94771525 12,7.5 C12,8.05228475 11.5522847,8.5 11,8.5 L5,8.5 C4.44771525,8.5 4,8.05228475 4,7.5 C4,6.94771525 4.44771525,6.5 5,6.5 L11,6.5 Z" id="形状" fill="#575D6C"></path>
    </g>
</svg>