<?xml version="1.0" encoding="UTF-8"?>
<svg width="16px" height="16px" viewBox="0 0 16 16" version="1.1" xmlns="http://www.w3.org/2000/svg" xmlns:xlink="http://www.w3.org/1999/xlink">
    <!-- Generator: Sketch 63.1 (92452) - https://sketch.com -->
    <title>操作/查看更多</title>
    <desc>Created with Sketch.</desc>
    <g id="操作/查看更多" stroke="none" stroke-width="1" fill="none" fill-rule="evenodd">
        <path d="M8,2 C10.9455187,2 13.6121853,4 16,8 C13.6121853,12 10.9455187,14 8,14 C5.05448133,14 2.38781467,12 0,8 C2.38781467,4 5.05448133,2 8,2 Z M8,4 C6.13956656,4 4.30346168,5.20266302 2.49208076,7.81745137 L2.368,8 L2.49208076,8.18254863 C4.2387695,10.7039517 6.00844775,11.9122943 7.80076096,11.9953884 L8,12 C9.86043344,12 11.6965383,10.797337 13.5079192,8.18254863 L13.631,8 L13.5079192,7.81745137 C11.7612305,5.29604832 9.99155225,4.08770568 8.19923904,4.00461157 L8,4 Z M8,5 C9.65685425,5 11,6.34314575 11,8 C11,9.65685425 9.65685425,11 8,11 C6.34314575,11 5,9.65685425 5,8 C5,6.34314575 6.34314575,5 8,5 Z M8,7 C7.44771525,7 7,7.44771525 7,8 C7,8.55228475 7.44771525,9 8,9 C8.55228475,9 9,8.55228475 9,8 C9,7.44771525 8.55228475,7 8,7 Z" id="形状" fill="#575D6C" fill-rule="nonzero"></path>
    </g>
</svg>