<?xml version="1.0" encoding="UTF-8"?>
<svg width="16px" height="16px" viewBox="0 0 16 16" version="1.1" xmlns="http://www.w3.org/2000/svg" xmlns:xlink="http://www.w3.org/1999/xlink">
    <!-- Generator: Sketch 63.1 (92452) - https://sketch.com -->
    <title>操作/禁止查看</title>
    <desc>Created with Sketch.</desc>
    <g id="操作/禁止查看" stroke="none" stroke-width="1" fill="none" fill-rule="evenodd">
        <path d="M3.05025253,1.63289322 L14.363961,12.9466017 C14.7544853,13.337126 14.7544853,13.970291 14.363961,14.3608153 C13.9734367,14.7513396 13.3402718,14.7513396 12.9497475,14.3608153 L1.63603897,3.04710678 C1.24551468,2.65658249 1.24551468,2.02341751 1.63603897,1.63289322 C2.02656326,1.24236893 2.65972824,1.24236893 3.05025253,1.63289322 Z M2.17039817,4.99943588 L3.58521319,6.41258433 C3.21984283,6.82516991 2.85546429,7.29289521 2.49208076,7.81745137 L2.368,8 L2.49208076,8.18254863 C4.2387695,10.7039517 6.00844775,11.9122943 7.80076096,11.9953884 L8,12 C8.34832791,12 8.69580298,11.9578408 9.04242262,11.8721477 L10.6136804,13.4434526 C9.76831935,13.8144842 8.89709254,14 8,14 C5.05448133,14 2.38781467,12 0,8 C0.699533477,6.82816119 1.42299954,5.82797315 2.17039817,4.99943588 Z M8,2 C10.9455187,2 13.6121853,4 16,8 C15.3004665,9.17183881 14.5770005,10.1720269 13.8296018,11.0005641 L12.4147868,9.58741567 C12.7801572,9.17483009 13.1445357,8.70710479 13.5079192,8.18254863 L13.631,8 L13.5079192,7.81745137 C11.7612305,5.29604832 9.99155225,4.08770568 8.19923904,4.00461157 L8,4 C7.65167209,4 7.30419702,4.04215919 6.95757738,4.12785232 L5.38631956,2.55654743 C6.23168065,2.18551581 7.10290746,2 8,2 Z" id="形状" fill="#575D6C" fill-rule="nonzero"></path>
    </g>
</svg>