<?xml version="1.0" encoding="UTF-8"?>
<svg width="16px" height="16px" viewBox="0 0 16 16" version="1.1" xmlns="http://www.w3.org/2000/svg" xmlns:xlink="http://www.w3.org/1999/xlink">
    <!-- Generator: Sketch 63.1 (92452) - https://sketch.com -->
    <title>操作/release</title>
    <desc>Created with Sketch.</desc>
    <g id="操作/release" stroke="none" stroke-width="1" fill="none" fill-rule="evenodd">
        <path d="M5.20691829,11.6455359 C5.24340234,11.6438548 5.27965023,11.6521961 5.3117298,11.669655 L7.74253751,12.992591 C7.83955678,13.0453925 7.87540237,13.1668463 7.82260087,13.2638655 C7.81067005,13.2857876 7.79474139,13.3052829 7.77563767,13.3213444 L5.494174,15.2394852 C5.40962782,15.3105675 5.28346608,15.2996528 5.21238386,15.2151066 C5.184115,15.1814832 5.16770224,15.1394881 5.16568025,15.0956068 L5.01633621,11.8545298 C5.01125191,11.74419 5.09657842,11.6506202 5.20691829,11.6455359 Z M14.9474519,1.22848227 C15.0198292,1.39773432 15.0520573,1.58077862 15.0424437,1.76339273 L15.0273618,1.90005042 L13.1892589,12.7888456 C13.0789443,13.4423418 12.4597534,13.8826775 11.8062572,13.7723629 C11.7232212,13.7583458 11.6420079,13.7356471 11.5639353,13.7047105 L11.4493468,13.6521828 L6.44036238,11.0293641 C5.46182482,10.5169794 5.0839332,9.30834819 5.59631784,8.32981062 C5.68111435,8.16786867 5.78757589,8.01857439 5.91254991,7.88595097 L6.04357799,7.7590335 L10.104716,4.16838051 L3.53771599,6.97738051 L4.27039274,7.37315265 C4.72154872,7.61699456 4.90983102,8.15757559 4.72417523,8.6225643 L4.67464308,8.72835804 C4.43080117,9.17951402 3.89022014,9.36779633 3.42523143,9.18214053 L3.31943769,9.13260838 L1.12965802,7.94907078 C0.546625678,7.63395199 0.329438825,6.90585665 0.644557608,6.3228243 C0.751946458,6.1241336 0.912750297,5.9606132 1.10757962,5.84995654 L1.22840516,5.79004774 L13.3722764,0.596958559 C13.9816395,0.336376316 14.6868696,0.61911911 14.9474519,1.22848227 Z M12.526716,4.69738051 L7.36811683,9.25756507 L11.399716,11.3693805 L12.526716,4.69738051 Z" id="形状" fill="#575D6C" fill-rule="nonzero"></path>
    </g>
</svg>