<?xml version="1.0" encoding="UTF-8"?>
<svg width="16px" height="16px" viewBox="0 0 16 16" version="1.1" xmlns="http://www.w3.org/2000/svg" xmlns:xlink="http://www.w3.org/1999/xlink">
    <title>Stop</title>
    <g id="Stop" stroke="none" stroke-width="1" fill="none" fill-rule="evenodd">
        <path d="M12.2019244,1.3090444 C10.9532244,0.5232784 9.5072244,0.1 8.0000244,0.1 C3.6369844,0.1 0.1,3.6369244 0.1,8.0000244 C0.1,12.3630244 3.6369844,15.9000244 8.0000244,15.9000244 C12.3630244,15.9000244 15.9000244,12.3630244 15.9000244,8.0000244 C15.9000244,6.2534444 15.3311244,4.5919444 14.2974244,3.2293344 C14.1305244,3.0093644 13.8169244,2.9663344 13.5968244,3.1332044 C13.3768244,3.3001344 13.3337244,3.6137344 13.5007244,3.8337644 C14.4037244,5.0238844 14.9000244,6.4736544 14.9000244,8.0000244 C14.9000244,11.8107244 11.8108244,14.9000244 8.0000244,14.9000244 C4.1892344,14.9000244 1.1,11.8107244 1.1,8.0000244 C1.1,4.1892344 4.1892344,1.1 8.0000244,1.1 C9.3174044,1.1 10.5790244,1.4693244 11.6693244,2.1554244 C11.8408244,2.2632644 12.0074244,2.3786844 12.1687244,2.5011844 C12.3887244,2.6681744 12.7023244,2.6252644 12.8693244,2.4053544 C13.0363244,2.1854444 12.9934244,1.8717944 12.7734244,1.7047344 C12.5889244,1.5645344 12.3982244,1.4325244 12.2019244,1.3090444 Z" id="形状-path" fill="#252B3A"></path>
        <path d="M10.0000244,4.5000244 C10.7797244,4.5000244 11.4204244,5.0948744 11.4932244,5.8555544 L11.5000244,6.0000244 L11.5000244,10.0000244 C11.5000244,10.7797244 10.9050244,11.4204244 10.1444244,11.4931244 L10.0000244,11.5000244 L6.0000244,11.5000244 C5.2203644,11.5000244 4.5794944,10.9051244 4.5068644,10.1444244 L4.5000244,10.0000244 L4.5000244,6.0000244 C4.5000244,5.2203044 5.0948744,4.5795544 5.8554944,4.5068644 L6.0000244,4.5000244 L10.0000244,4.5000244 Z M10.0000244,5.5000244 L6.0000244,5.5000244 C5.7545444,5.5000244 5.5504444,5.6769044 5.5080844,5.9101244 L5.5080844,5.9101244 L5.5000244,6.0000244 L5.5000244,10.0000244 C5.5000244,10.2454244 5.6769044,10.4496244 5.9101844,10.4919244 L5.9101844,10.4919244 L6.0000244,10.5000244 L10.0000244,10.5000244 C10.2455244,10.5000244 10.4496244,10.3231244 10.4919244,10.0898244 L10.4919244,10.0898244 L10.5000244,10.0000244 L10.5000244,6.0000244 C10.5000244,5.7545444 10.3231244,5.5503744 10.0898244,5.5080844 L10.0898244,5.5080844 L10.0000244,5.5000244 Z" id="形状结合" fill="#252B3A"></path>
    </g>
</svg>