<?xml version="1.0" encoding="UTF-8"?>
<svg width="16px" height="16px" viewBox="0 0 16 16" version="1.1" xmlns="http://www.w3.org/2000/svg" xmlns:xlink="http://www.w3.org/1999/xlink">
    <title>release-set</title>
    <g id="页面-1" stroke="none" stroke-width="1" fill="none" fill-rule="evenodd">
        <g id="编组-33备份">
            <path d="M12,0.5 C13.9329966,0.5 15.5,2.06700338 15.5,4 L15.5,4 L15.5,12 C15.5,13.9329966 13.9329966,15.5 12,15.5 L12,15.5 L4,15.5 C2.06700338,15.5 0.5,13.9329966 0.5,12 L0.5,12 L0.5,4 C0.5,2.06700338 2.06700338,0.5 4,0.5 L4,0.5 Z M12,1.5 L8.328,1.5 L8.32838801,5.91229968 C8.32838801,5.96752815 8.28361648,6.01229968 8.22838801,6.01229968 C8.21221045,6.01229968 8.19627439,6.0083748 8.1819472,6.00086181 L6.22098267,4.97255793 C6.19190014,4.95730744 6.15718357,4.95730744 6.12810104,4.97255793 L4.16713651,6.00086181 C4.118225,6.02651036 4.05778212,6.007652 4.03213357,5.95874049 C4.02462058,5.94441329 4.0206957,5.92847724 4.0206957,5.91229968 L4.02,1.5 L4,1.5 C2.6745166,1.5 1.58996133,2.53153594 1.50531768,3.83562431 L1.5,4 L1.5,12 C1.5,13.3807119 2.61928813,14.5 4,14.5 L4,14.5 L12,14.5 C13.3807119,14.5 14.5,13.3807119 14.5,12 L14.5,12 L14.5,4 C14.5,2.61928813 13.3807119,1.5 12,1.5 L12,1.5 Z" id="release-set" fill="#191919" fill-rule="nonzero"></path>
        </g>
    </g>
</svg>