<?xml version="1.0" encoding="UTF-8"?>
<svg width="16px" height="16px" viewBox="0 0 16 16" version="1.1" xmlns="http://www.w3.org/2000/svg" xmlns:xlink="http://www.w3.org/1999/xlink">
    <!-- Generator: Sketch 63.1 (92452) - https://sketch.com -->
    <title>操作/提醒</title>
    <desc>Created with Sketch.</desc>
    <g id="操作/提醒" stroke="none" stroke-width="1" fill="none" fill-rule="evenodd">
        <path d="M9.5,14 C10.0522847,14 10.5,14.4477153 10.5,15 C10.5,15.5522847 10.0522847,16 9.5,16 L6.5,16 C5.94771525,16 5.5,15.5522847 5.5,15 C5.5,14.4477153 5.94771525,14 6.5,14 L9.5,14 Z M8,0 C8.55228475,0 9,0.44771525 9,1 L9.00080686,1.08309386 C11.8381232,1.55950437 14,4.02728549 14,7 L14,11 L14.5,11 C15.0522847,11 15.5,11.4477153 15.5,12 C15.5,12.5522847 15.0522847,13 14.5,13 L1.5,13 C0.94771525,13 0.5,12.5522847 0.5,12 C0.5,11.4477153 0.94771525,11 1.5,11 L2,11 L2,7 C2,4.02693683 4.16238395,1.55892549 7.00019152,1.08292631 L7,1 C7,0.44771525 7.44771525,0 8,0 Z M8,3 C5.85780461,3 4.10892112,4.68396847 4.00489531,6.80035966 L4,7 L4,11 L12,11 L12,7 C12,4.790861 10.209139,3 8,3 Z" id="形状" fill="#575D6C"></path>
    </g>
</svg>