<?xml version="1.0" encoding="UTF-8"?>
<svg width="16px" height="16px" viewBox="0 0 16 16" version="1.1" xmlns="http://www.w3.org/2000/svg" xmlns:xlink="http://www.w3.org/1999/xlink">
    <title>remind-close</title>
    <g id="页面-1" stroke="none" stroke-width="1" fill="none" fill-rule="evenodd">
        <g id="编组-33备份-3" transform="translate(-1.000000, -1.000000)">
            <path d="M3.93725393,5.09299031 L4.66789096,5.96426159 C4.5493633,6.32503679 4.47714835,6.70684508 4.45827393,7.10265863 L4.45330318,7.31159979 L4.45330318,10.3756752 C4.45330318,10.5713172 4.41947582,10.7637096 4.3531442,10.9466911 L4.29732162,11.0820664 L3.2854049,13.2518088 L10.782,13.251 L11.621,14.252 L11.4404736,14.2524993 C11.4389773,15.6416751 10.4029971,16.8002414 9.03367836,16.9775252 L8.8608281,16.9945206 L8.68996084,17 C7.22777253,17 6.03110501,15.8574876 5.94446871,14.4169732 L5.9394049,14.2518088 L2.50059613,14.252572 C2.1629983,14.252572 1.93084573,13.9289532 2.01867892,13.6184513 L2.04742774,13.541294 L3.39055911,10.6604258 C3.41827684,10.6006595 3.43692385,10.5381129 3.44627544,10.4736645 L3.45330318,10.3756752 L3.45330318,7.31159979 C3.45330318,6.51957589 3.62656193,5.76809756 3.93725393,5.09299031 Z M10.4384049,14.2998088 L6.9414049,14.2998088 L6.9452518,14.3929683 C7.010381,15.1946746 7.61608105,15.8443519 8.38586098,15.9759268 L8.53202561,15.9944362 L8.67310405,16.0002842 L8.81020513,15.9959463 C9.6735682,15.9375079 10.3602951,15.2535653 10.4339333,14.4015018 L10.4384049,14.2998088 Z M3.3386415,2.1273787 L3.4026457,2.19098676 L14.2832484,15.132253 C14.4609562,15.3436166 14.4336727,15.6590212 14.2223091,15.8367289 C14.0344304,15.9946914 13.7643464,15.9906855 13.5818373,15.8393977 L13.5178331,15.7757896 L2.63723043,2.83452344 C2.45952268,2.62315985 2.48680613,2.30775521 2.69816972,2.13004746 C2.88604847,1.97208502 3.15613249,1.97609093 3.3386415,2.1273787 Z M8.76490297,2 C11.6227548,2 13.9547729,4.26166749 14.0718897,7.09276088 L14.0765016,7.3116319 L14.0809281,8.26969875 L14.0967814,8.31182386 L14.0784049,8.28180877 L14.083238,8.32029481 L14.1001188,10.4112714 C14.1005494,10.4681065 14.1081322,10.523962 14.122929,10.578311 L14.1505424,10.6586388 L15.3410645,13.5629276 C15.4646842,13.8644988 15.2716868,14.1926823 14.9647947,14.2452854 L14.8784254,14.252572 L14.233,14.252 L13.393,13.251 L14.1324049,13.2518088 L13.2265888,11.0411277 C13.1854959,10.942827 13.1542912,10.8407952 13.1331571,10.7366005 L13.1090319,10.5788822 L13.1001495,10.4190956 L13.0824049,8.36780877 C13.0708791,8.34378782 13.067905,8.33458554 13.0696729,8.33243794 L13.0754051,8.33353706 L13.0827036,8.33792207 L13.0774007,7.72395687 L13.0765029,7.3131486 C13.0744856,4.93164048 11.1437808,3 8.76490297,3 C7.61130628,3 6.56370911,3.45275132 5.79006257,4.19030284 L5.14659931,3.422652 C6.09496955,2.53990877 7.36676221,2 8.76490297,2 Z" id="remind-close" fill="#191919" fill-rule="nonzero"></path>
        </g>
    </g>
</svg>