<?xml version="1.0" encoding="UTF-8"?>
<svg width="16px" height="16px" viewBox="0 0 16 16" version="1.1" xmlns="http://www.w3.org/2000/svg" xmlns:xlink="http://www.w3.org/1999/xlink">
    <!-- Generator: Sketch 63.1 (92452) - https://sketch.com -->
    <title>操作/去掉</title>
    <desc>Created with Sketch.</desc>
    <g id="操作/去掉" stroke="none" stroke-width="1" fill="none" fill-rule="evenodd">
        <path d="M8,0.5 C12.1421356,0.5 15.5,3.85786438 15.5,8 C15.5,12.1421356 12.1421356,15.5 8,15.5 C3.85786438,15.5 0.5,12.1421356 0.5,8 C0.5,3.85786438 3.85786438,0.5 8,0.5 Z M8,2.5 C4.96243388,2.5 2.5,4.96243388 2.5,8 C2.5,11.0375661 4.96243388,13.5 8,13.5 C11.0375661,13.5 13.5,11.0375661 13.5,8 C13.5,4.96243388 11.0375661,2.5 8,2.5 Z M6.93933983,5.52512627 L8,6.58578644 L9.06066017,5.52512627 C9.45118446,5.13460197 10.0843494,5.13460197 10.4748737,5.52512627 C10.865398,5.91565056 10.865398,6.54881554 10.4748737,6.93933983 L9.41421356,8 L10.4748737,9.06066017 C10.865398,9.45118446 10.865398,10.0843494 10.4748737,10.4748737 C10.0843494,10.865398 9.45118446,10.865398 9.06066017,10.4748737 L8,9.41421356 L6.93933983,10.4748737 C6.54881554,10.865398 5.91565056,10.865398 5.52512627,10.4748737 C5.13460197,10.0843494 5.13460197,9.45118446 5.52512627,9.06066017 L6.58578644,8 L5.52512627,6.93933983 C5.13460197,6.54881554 5.13460197,5.91565056 5.52512627,5.52512627 C5.91565056,5.13460197 6.54881554,5.13460197 6.93933983,5.52512627 Z" id="形状" fill="#575D6C"></path>
    </g>
</svg>