<?xml version="1.0" encoding="UTF-8"?>
<svg width="16px" height="16px" viewBox="0 0 16 16" version="1.1" xmlns="http://www.w3.org/2000/svg" xmlns:xlink="http://www.w3.org/1999/xlink">
    <!-- Generator: Sketch 63.1 (92452) - https://sketch.com -->
    <title>操作/改名</title>
    <desc>Created with Sketch.</desc>
    <g id="操作/改名" stroke="none" stroke-width="1" fill="none" fill-rule="evenodd">
        <path d="M14,14 C14.5522847,14 15,14.4477153 15,15 C15,15.5522847 14.5522847,16 14,16 L2,16 C1.44771525,16 1,15.5522847 1,15 C1,14.4477153 1.44771525,14 2,14 L14,14 Z M11.4852814,1.20710678 L14.3137085,4.03553391 C14.7042328,4.4260582 14.7042328,5.05922318 14.3137085,5.44974747 L7.68349311,12.0799629 C7.50501129,12.2584447 7.26563646,12.3628287 7.01339799,12.3721709 L3.5380926,12.5008859 C3.26213943,12.5111064 3.03014984,12.2956875 3.01992936,12.0197343 L3.14864437,8.50741729 C3.15798654,8.25517882 3.2623706,8.01580399 3.44085242,7.83732217 L10.0710678,1.20710678 C10.4615921,0.816582489 11.0947571,0.816582489 11.4852814,1.20710678 Z M10.7779233,3.32778459 L5.13192327,8.97378459 L5.07792327,10.4417846 L6.54592327,10.3877846 L12.1919233,4.74178459 L10.7779233,3.32778459 Z" id="形状" fill="#575D6C" fill-rule="nonzero"></path>
    </g>
</svg>