<?xml version="1.0" encoding="UTF-8"?>
<svg width="16px" height="16px" viewBox="0 0 16 16" version="1.1" xmlns="http://www.w3.org/2000/svg" xmlns:xlink="http://www.w3.org/1999/xlink">
    <title>request</title>
    <g id="页面-1" stroke="none" stroke-width="1" fill="none" fill-rule="evenodd">
        <g id="select-vertical-layout备份-2" transform="translate(7.499373, 8.500000) rotate(-90.000000) translate(-7.499373, -8.500000) translate(-1.000000, 0.000000)">
            <g id="编组-36" transform="translate(0.998745, 1.000000)" fill="#191919" fill-rule="nonzero">
                <path d="M4.5,9.87612104 L4.499,12.376121 L7,12.376121 L7,13.376121 L4.499,13.376121 L4.5,15.876121 L3.5,15.876121 L3.499,13.376121 L1,13.376121 L1,12.376121 L3.499,12.376121 L3.5,9.87612104 L4.5,9.87612104 Z M12.8257812,1 C13.9750237,1 14.9161295,1.89113878 14.9957923,3.02010993 L15.0012546,3.17547335 L15.0012546,12.3699268 C15.0012546,13.5191692 14.1101158,14.4602751 12.9811446,14.5399379 L12.8257812,14.5454001 L7.32625456,14.545 L7.32625456,13.642 L12.8257812,13.6423734 C13.484612,13.6423734 14.0264964,13.141666 14.0916584,12.500027 L14.0982279,12.3699268 L14.0982279,3.17547335 C14.0982279,2.51664251 13.5975205,1.97475816 12.9558815,1.90959617 L12.8257812,1.90302667 L3.63132779,1.90302667 C2.97249695,1.90302667 2.4306126,2.4037341 2.36545061,3.04537307 L2.35888112,3.17547335 L2.35925456,9.675 L1.45625456,9.675 L1.45585444,3.17547335 C1.45585444,2.02623089 2.34699322,1.08512504 3.47596437,1.00546223 L3.63132779,1 L12.8257812,1 Z M10.4861212,3.66059336 C10.7315811,3.66059336 10.9357296,3.83746852 10.9780655,4.07071773 L10.9861212,4.16059336 L10.9861212,11.3848068 C10.9861212,11.6609491 10.7622636,11.8848068 10.4861212,11.8848068 C10.2406613,11.8848068 10.0365128,11.7079316 9.99417686,11.4746824 L9.98612119,11.3848068 L9.98612119,4.16059336 C9.98612119,3.88445099 10.2099788,3.66059336 10.4861212,3.66059336 Z M7.77704116,3.66059336 C8.02250105,3.66059336 8.22664953,3.83746852 8.26898549,4.07071773 L8.27704116,4.16059336 L8.27704116,7.77270006 C8.27704116,8.04884243 8.05318354,8.27270006 7.77704116,8.27270006 C7.53158127,8.27270006 7.32743279,8.0958249 7.28509683,7.86257569 L7.27704116,7.77270006 L7.27704116,4.16059336 C7.27704116,3.88445099 7.50089879,3.66059336 7.77704116,3.66059336 Z" id="request"></path>
            </g>
        </g>
        <path d="" id="路径-11" stroke="#979797"></path>
    </g>
</svg>