<?xml version="1.0" encoding="UTF-8"?>
<svg width="16px" height="16px" viewBox="0 0 16 16" version="1.1" xmlns="http://www.w3.org/2000/svg" xmlns:xlink="http://www.w3.org/1999/xlink">
    <!-- Generator: Sketch 63.1 (92452) - https://sketch.com -->
    <title>操作/带参数执行</title>
    <desc>Created with Sketch.</desc>
    <g id="操作/带参数执行" stroke="none" stroke-width="1" fill="none" fill-rule="evenodd">
        <path d="M11.5,9.88309519 C11.590622,9.88309519 11.6795402,9.90772411 11.7572479,9.95434873 L15.2854226,12.0712535 C15.5222127,12.2133276 15.5989952,12.5204577 15.4569211,12.7572479 C15.4146963,12.8276227 15.3557974,12.8865216 15.2854226,12.9287465 L11.7572479,15.0456513 C11.5204577,15.1877254 11.2133276,15.1109428 11.0712535,14.8741527 C11.0246289,14.796445 11,14.7075268 11,14.6169048 L11,10.3830952 C11,10.1069528 11.2238576,9.88309519 11.5,9.88309519 Z M14,1.5 C14.5522847,1.5 15,1.94771525 15,2.5 L15,7.5 C15,8.05228475 14.5522847,8.5 14,8.5 C13.4477153,8.5 13,8.05228475 13,7.5 L13,3.5 L3,3.5 L3,12.5 L8,12.5 C8.55228475,12.5 9,12.9477153 9,13.5 C9,14.0522847 8.55228475,14.5 8,14.5 L2,14.5 C1.44771525,14.5 1,14.0522847 1,13.5 L1,2.5 C1,1.94771525 1.44771525,1.5 2,1.5 L14,1.5 Z M8,8.5 C8.55228475,8.5 9,8.94771525 9,9.5 C9,10.0522847 8.55228475,10.5 8,10.5 L5,10.5 C4.44771525,10.5 4,10.0522847 4,9.5 C4,8.94771525 4.44771525,8.5 5,8.5 L8,8.5 Z M11,5.5 C11.5522847,5.5 12,5.94771525 12,6.5 C12,7.05228475 11.5522847,7.5 11,7.5 L5,7.5 C4.44771525,7.5 4,7.05228475 4,6.5 C4,5.94771525 4.44771525,5.5 5,5.5 L11,5.5 Z" id="形状" fill="#575D6C"></path>
    </g>
</svg>