<?xml version="1.0" encoding="UTF-8"?>
<svg width="16px" height="16px" viewBox="0 0 16 16" version="1.1" xmlns="http://www.w3.org/2000/svg" xmlns:xlink="http://www.w3.org/1999/xlink">
    <!-- Generator: Sketch 63.1 (92452) - https://sketch.com -->
    <title>操作/save</title>
    <desc>Created with Sketch.</desc>
    <g id="操作/save" stroke="none" stroke-width="1" fill="none" fill-rule="evenodd">
        <path d="M13,1 C14.1045695,1 15,1.8954305 15,3 L15,13 C15,14.1045695 14.1045695,15 13,15 L3,15 C1.8954305,15 1,14.1045695 1,13 L1,3 C1,1.8954305 1.8954305,1 3,1 L13,1 Z M5,3 L3,3 L3,13 L13,13 L13,3 L11,3 L11,5 C11,5.55228475 10.5522847,6 10,6 L6,6 C5.44771525,6 5,5.55228475 5,5 L5,3 Z M10,9 C10.5522847,9 11,9.44771525 11,10 C11,10.5522847 10.5522847,11 10,11 L6,11 C5.44771525,11 5,10.5522847 5,10 C5,9.44771525 5.44771525,9 6,9 L10,9 Z M9,3 L7,3 L7,4 L9,4 L9,3 Z" id="形状" fill="#575D6C"></path>
    </g>
</svg>