<?xml version="1.0" encoding="UTF-8"?>
<svg width="16px" height="16px" viewBox="0 0 16 16" version="1.1" xmlns="http://www.w3.org/2000/svg" xmlns:xlink="http://www.w3.org/1999/xlink">
    <title>scan-qrcode</title>
    <g id="页面-1" stroke="none" stroke-width="1" fill="none" fill-rule="evenodd">
        <g id="编组-43备份" fill="#191919" fill-rule="nonzero">
            <g id="编组">
                <path d="M6.13924051,8.75316456 C6.71016778,8.75316456 7.1802024,9.18513736 7.24033623,9.74007482 L7.24683544,9.86075949 L7.24683544,13.8924051 C7.24683544,14.4633323 6.81486264,14.933367 6.25992518,14.9935008 L6.13924051,15 L2.10759494,15 C1.53666766,15 1.06663304,14.5680272 1.00649922,14.0130897 L1,13.8924051 L1,9.86075949 C1,9.28983222 1.4319728,8.8197976 1.98691027,8.75966377 L2.10759494,8.75316456 L6.13924051,8.75316456 Z M9.86075949,11.8544304 C10.1000052,11.8544304 10.2989854,12.0268277 10.3402495,12.2541719 L10.3481013,12.3417722 L10.3481013,14.5126582 C10.3481013,14.7519039 10.175704,14.9508841 9.94835979,14.9921483 L9.86075949,15 L9.24050633,15 C9.00126061,15 8.80228045,14.8276027 8.76101629,14.6002585 L8.75316456,14.5126582 L8.75316456,12.3417722 C8.75316456,12.1025264 8.92556187,11.9035463 9.15290603,11.8622821 L9.24050633,11.8544304 L9.86075949,11.8544304 Z M14.5126582,13.4050633 C14.7519039,13.4050633 14.9508841,13.5774606 14.9921483,13.8048048 L15,13.8924051 L15,14.5126582 C15,14.7519039 14.8276027,14.9508841 14.6002585,14.9921483 L14.5126582,15 L13.8924051,15 C13.6531593,15 13.4541792,14.8276027 13.412915,14.6002585 L13.4050633,14.5126582 L13.4050633,13.8924051 C13.4050633,13.6531593 13.5774606,13.4541792 13.8048048,13.412915 L13.8924051,13.4050633 L14.5126582,13.4050633 Z M6.13924051,9.7278481 L2.10759494,9.7278481 C2.04887099,9.7278481 1.99904207,9.76593223 1.98145946,9.81874921 L1.97468354,9.86075949 L1.97468354,13.8924051 C1.97468354,13.951129 2.01276768,14.0009579 2.06558466,14.0185405 L2.10759494,14.0253165 L6.13924051,14.0253165 C6.19796445,14.0253165 6.24779338,13.9872323 6.26537599,13.9344153 L6.2721519,13.8924051 L6.2721519,9.86075949 C6.2721519,9.80203555 6.23406777,9.75220662 6.18125079,9.73462401 L6.13924051,9.7278481 Z M12.9620253,11.8544304 C13.201271,11.8544304 13.4002512,12.0268277 13.4415154,12.2541719 L13.4493671,12.3417722 L13.4493671,12.9620253 C13.4493671,13.201271 13.2769698,13.4002512 13.0496256,13.4415154 L12.9620253,13.4493671 L12.3417722,13.4493671 C12.1025264,13.4493671 11.9035463,13.2769698 11.8622821,13.0496256 L11.8544304,12.9620253 L11.8544304,12.3417722 C11.8544304,12.1025264 12.0268277,11.9035463 12.2541719,11.8622821 L12.3417722,11.8544304 L12.9620253,11.8544304 Z M4.4335443,11.0791139 C4.67279002,11.0791139 4.87177018,11.2515112 4.91303435,11.4788554 L4.92088608,11.5664557 L4.92088608,12.1867089 C4.92088608,12.4259546 4.74848877,12.6249347 4.5211446,12.6661989 L4.4335443,12.6740506 L3.81329114,12.6740506 C3.57404542,12.6740506 3.37506526,12.5016533 3.3338011,12.2743092 L3.32594937,12.1867089 L3.32594937,11.5664557 C3.32594937,11.32721 3.49834668,11.1282298 3.72569084,11.0869657 L3.81329114,11.0791139 L4.4335443,11.0791139 Z M14.5126582,8.75316456 C14.7519039,8.75316456 14.9508841,8.92556187 14.9921483,9.15290603 L15,9.24050633 L15,11.4113924 C15,11.6506381 14.8276027,11.8496183 14.6002585,11.8908824 L14.5126582,11.8987342 L13.8924051,11.8987342 C13.6531593,11.8987342 13.4541792,11.7263369 13.412915,11.4989927 L13.4050633,11.4113924 L13.4050633,9.24050633 C13.4050633,9.00126061 13.5774606,8.80228045 13.8048048,8.76101629 L13.8924051,8.75316456 L14.5126582,8.75316456 Z M11.4113924,8.75316456 C11.6506381,8.75316456 11.8496183,8.92556187 11.8908824,9.15290603 L11.8987342,9.24050633 L11.8987342,11.4113924 C11.8987342,11.6506381 11.7263369,11.8496183 11.4989927,11.8908824 L11.4113924,11.8987342 L10.6877637,11.8987342 C10.4485422,11.8987342 10.2495736,11.7263704 10.2082847,11.4990528 L10.200422,11.411462 L10.200038,10.4505316 L9.24054114,10.4514768 C9.03119057,10.4514917 8.85266369,10.3195 8.78365672,10.134192 L8.76101703,10.0517395 L8.75316456,9.96413501 L8.75316456,9.24050633 C8.75316456,9.00126061 8.92556187,8.80228045 9.15290603,8.76101629 L9.24050633,8.75316456 L11.4113924,8.75316456 Z M6.13924051,1 C6.71016778,1 7.1802024,1.4319728 7.24033623,1.98691027 L7.24683544,2.10759494 L7.24683544,6.13924051 C7.24683544,6.71016778 6.81486264,7.1802024 6.25992518,7.24033623 L6.13924051,7.24683544 L2.10759494,7.24683544 C1.53666766,7.24683544 1.06663304,6.81486264 1.00649922,6.25992518 L1,6.13924051 L1,2.10759494 C1,1.53666766 1.4319728,1.06663304 1.98691027,1.00649922 L2.10759494,1 L6.13924051,1 Z M13.8924051,1 C14.4633323,1 14.933367,1.4319728 14.9935008,1.98691027 L15,2.10759494 L15,6.13924051 C15,6.71016778 14.5680272,7.1802024 14.0130897,7.24033623 L13.8924051,7.24683544 L9.86075949,7.24683544 C9.28983222,7.24683544 8.8197976,6.81486264 8.75966377,6.25992518 L8.75316456,6.13924051 L8.75316456,2.10759494 C8.75316456,1.53666766 9.18513736,1.06663304 9.74007482,1.00649922 L9.86075949,1 L13.8924051,1 Z M6.13924051,1.97468354 L2.10759494,1.97468354 C2.04887099,1.97468354 1.99904207,2.01276768 1.98145946,2.06558466 L1.97468354,2.10759494 L1.97468354,6.13924051 C1.97468354,6.19796445 2.01276768,6.24779338 2.06558466,6.26537599 L2.10759494,6.2721519 L6.13924051,6.2721519 C6.19796445,6.2721519 6.24779338,6.23406777 6.26537599,6.18125079 L6.2721519,6.13924051 L6.2721519,2.10759494 C6.2721519,2.04887099 6.23406777,1.99904207 6.18125079,1.98145946 L6.13924051,1.97468354 Z M13.8924051,1.97468354 L9.86075949,1.97468354 C9.80203555,1.97468354 9.75220662,2.01276768 9.73462401,2.06558466 L9.7278481,2.10759494 L9.7278481,6.13924051 C9.7278481,6.19796445 9.76593223,6.24779338 9.81874921,6.26537599 L9.86075949,6.2721519 L13.8924051,6.2721519 C13.951129,6.2721519 14.0009579,6.23406777 14.0185405,6.18125079 L14.0253165,6.13924051 L14.0253165,2.10759494 C14.0253165,2.04887099 13.9872323,1.99904207 13.9344153,1.98145946 L13.8924051,1.97468354 Z M4.4335443,3.32594937 C4.67279002,3.32594937 4.87177018,3.49834668 4.91303435,3.72569084 L4.92088608,3.81329114 L4.92088608,4.4335443 C4.92088608,4.67279002 4.74848877,4.87177018 4.5211446,4.91303435 L4.4335443,4.92088608 L3.81329114,4.92088608 C3.57404542,4.92088608 3.37506526,4.74848877 3.3338011,4.5211446 L3.32594937,4.4335443 L3.32594937,3.81329114 C3.32594937,3.57404542 3.49834668,3.37506526 3.72569084,3.3338011 L3.81329114,3.32594937 L4.4335443,3.32594937 Z M12.1867089,3.32594937 C12.4259546,3.32594937 12.6249347,3.49834668 12.6661989,3.72569084 L12.6740506,3.81329114 L12.6740506,4.4335443 C12.6740506,4.67279002 12.5016533,4.87177018 12.2743092,4.91303435 L12.1867089,4.92088608 L11.5664557,4.92088608 C11.32721,4.92088608 11.1282298,4.74848877 11.0869657,4.5211446 L11.0791139,4.4335443 L11.0791139,3.81329114 C11.0791139,3.57404542 11.2515112,3.37506526 11.4788554,3.3338011 L11.5664557,3.32594937 L12.1867089,3.32594937 Z" id="scan-qrcode"></path>
            </g>
        </g>
    </g>
</svg>