<?xml version="1.0" encoding="UTF-8"?>
<svg width="16px" height="16px" viewBox="0 0 16 16" version="1.1" xmlns="http://www.w3.org/2000/svg" xmlns:xlink="http://www.w3.org/1999/xlink">
    <title>icon icon-search</title>
    <g id="icon-icon-search" stroke="none" stroke-width="1" fill="none" fill-rule="evenodd">
        <path d="M7,0 C10.8659932,0 14,3.13400675 14,7 C14,8.57190212 13.4818819,10.0227913 12.6071076,11.1912056 L15.7071068,14.2928932 C16.0976311,14.6834175 16.0976311,15.3165825 15.7071068,15.7071068 C15.3466228,16.0675907 14.7793918,16.0953203 14.3871006,15.7902954 L14.2928932,15.7071068 L11.1912056,12.6071076 C10.0227913,13.4818819 8.57190212,14 7,14 C3.13400675,14 5.5067062e-14,10.8659932 5.5067062e-14,7 C5.5067062e-14,3.13400675 3.13400675,0 7,0 Z M7,2 C4.23857625,2 2,4.23857625 2,7 C2,9.76142375 4.23857625,12 7,12 C9.76142375,12 12,9.76142375 12,7 C12,4.23857625 9.76142375,2 7,2 Z" id="椭圆形" fill="#71757F"></path>
    </g>
</svg>