<?xml version="1.0" encoding="UTF-8"?>
<svg width="16px" height="16px" viewBox="0 0 16 16" version="1.1" xmlns="http://www.w3.org/2000/svg" xmlns:xlink="http://www.w3.org/1999/xlink">
    <title>select-vertical-layout</title>
    <g id="页面-1" stroke="none" stroke-width="1" fill="none" fill-rule="evenodd">
        <g id="select-vertical-layout" transform="translate(8.000000, 8.000000) rotate(-90.000000) translate(-8.000000, -8.000000) " fill="#191919" fill-rule="nonzero">
            <path d="M2,8.81 L2,12.8333333 C2,13.2581677 2.31790432,13.6087516 2.72880177,13.6601738 L2.83333333,13.6666667 L5.5,13.6666667 C5.92483442,13.6666667 6.27541831,13.3487623 6.32684048,12.9378649 L6.33333333,12.8333333 L6.333,8.81 L7.333,8.81 L7.33333333,12.8333333 C7.33333333,13.7952293 6.59255114,14.5841063 5.65036184,14.6605892 L5.5,14.6666667 L2.83333333,14.6666667 C1.87143739,14.6666667 1.08256041,13.9258845 1.00607745,12.9836952 L1,12.8333333 L1,8.81 L2,8.81 Z M9.333,8.81 L9.33333333,10.8333333 C9.33333333,11.2581677 9.65123765,11.6087516 10.0621351,11.6601738 L10.1666667,11.6666667 L12.8333333,11.6666667 C13.2581678,11.6666667 13.6087516,11.3487623 13.6601738,10.9378649 L13.6666667,10.8333333 L13.666,8.81 L14.666,8.81 L14.6666667,10.8333333 C14.6666667,11.7952293 13.9258845,12.5841063 12.9836952,12.6605892 L12.8333333,12.6666667 L10.1666667,12.6666667 C9.20477073,12.6666667 8.41589374,11.9258845 8.33941078,10.9836952 L8.33333333,10.8333333 L8.333,8.81 L9.333,8.81 Z M15.1666667,7.31068166 C15.442809,7.31068166 15.6666667,7.53453929 15.6666667,7.81068166 C15.6666667,8.05614155 15.4897915,8.26029003 15.2565423,8.30262599 L15.1666667,8.31068166 L0.5,8.31068166 C0.223857625,8.31068166 0,8.08682403 0,7.81068166 C0,7.56522177 0.176875161,7.36107329 0.410124368,7.31873733 L0.5,7.31068166 L15.1666667,7.31068166 Z M5.5,1 C6.46189594,1 7.25077293,1.74078219 7.32725589,2.6829715 L7.33333333,2.83333333 L7.333,6.81 L6.333,6.81 L6.33333333,2.83333333 C6.33333333,2.37309604 5.96023729,2 5.5,2 L2.83333333,2 C2.40849891,2 2.05791502,2.31790432 2.00649285,2.72880177 L2,2.83333333 L2,6.81 L1,6.81 L1,2.83333333 C1,1.87143739 1.74078219,1.08256041 2.6829715,1.00607745 L2.83333333,1 L5.5,1 Z M12.8333333,2.99999999 C13.7952293,2.99999999 14.5841063,3.74078218 14.6605892,4.68297149 L14.6666667,4.83333333 L14.666,6.81 L13.666,6.81 L13.6666667,4.83333333 C13.6666667,4.37309603 13.2935706,3.99999999 12.8333333,3.99999999 L10.1666667,3.99999999 C9.74183224,3.99999999 9.39124835,4.31790431 9.33982618,4.72880176 L9.33333333,4.83333333 L9.333,6.81 L8.333,6.81 L8.33333333,4.83333333 C8.33333333,3.87143739 9.07411552,3.0825604 10.0163048,3.00607744 L10.1666667,2.99999999 L12.8333333,2.99999999 Z"></path>
        </g>
    </g>
</svg>