<?xml version="1.0" encoding="utf-8"?>
<!-- Generator: Adobe Illustrator 16.0.0, SVG Export Plug-In . SVG Version: 6.00 Build 0)  -->
<!DOCTYPE svg PUBLIC "-//W3C//DTD SVG 1.1//EN" "http://www.w3.org/Graphics/SVG/1.1/DTD/svg11.dtd">
<svg version="1.1" id="图层_1" xmlns="http://www.w3.org/2000/svg" xmlns:xlink="http://www.w3.org/1999/xlink" x="0px" y="0px"
	 width="16px" height="16px" viewBox="0 0 16 16" enable-background="new 0 0 16 16" xml:space="preserve">
<g>
	<g>
		<polygon fill="#252B3A" points="15,3 13,3 13,5 15,5 15,3 		"/>
	</g>
	<g>
		<polygon fill="#252B3A" points="8,9 5,12 8,15 8,9 		"/>
	</g>
	<g>
		<polygon fill="#252B3A" points="3,11 1,11 1,13 3,13 3,11 		"/>
	</g>
	<g>
		<polygon fill="#252B3A" points="15,11 8,11 8,13 15,13 15,11 		"/>
	</g>
	<g>
		<polygon fill="#252B3A" points="8,1 8,7 11,4 8,1 		"/>
	</g>
	<g>
		<polygon fill="#252B3A" points="8,3 1,3 1,5 8,5 8,3 		"/>
	</g>
</g>
</svg>
