<?xml version="1.0" encoding="UTF-8"?>
<svg width="16px" height="16px" viewBox="0 0 16 16" version="1.1" xmlns="http://www.w3.org/2000/svg" xmlns:xlink="http://www.w3.org/1999/xlink">
    <!-- Generator: Sketch 63.1 (92452) - https://sketch.com -->
    <title>操作/set-manage-icon</title>
    <desc>Created with Sketch.</desc>
    <g id="操作/set-manage-icon" stroke="none" stroke-width="1" fill="none" fill-rule="evenodd">
        <path d="M7.22079018,8.90565962 C7.22977384,8.95612882 7.2342924,9.00729154 7.23429344,9.05855407 L7.23429705,9.23610297 C7.23430145,9.70761385 6.90494473,10.115068 6.44390871,10.2139027 L6.17965558,10.2758868 C6.10330921,10.29581 6.03870086,10.3149952 5.98583052,10.3334423 C4.27030503,10.9320089 2.9097903,12.2876158 2.30454935,14 L14.9631379,14 C15.5154227,14 15.9631379,14.4477153 15.9631379,15 C15.9631379,15.5522847 15.5154227,16 14.9631379,16 L0.736842083,16 C0.329895438,16 3.41416673e-10,15.6700726 3.41416673e-10,15.2631259 L0.0037028432,15.1893485 C0.344100941,11.8067532 2.79167814,9.04585247 6.0139437,8.2391371 L6.13079504,8.21396218 C6.15462862,8.20935515 6.18064137,8.20454252 6.20883329,8.19952428 C6.68327085,8.11507665 7.13633911,8.43122267 7.22079018,8.90565962 Z M10.5,8.5 C11.5252272,8.5 12.4063162,9.11712907 12.7920545,10.0001748 L14,10 C14,9.44771525 14.4477153,9 15,9 C15.5522848,9 16,9.44771525 16,10 L16,11 C16,11.5128358 15.6139598,11.9355072 15.1166211,11.9932723 L15,12 L12.7916153,12.00083 C12.4056476,12.8833391 11.5248383,13.5 10.5,13.5 C9.11928813,13.5 8,12.3807119 8,11 C8,9.61928813 9.11928813,8.5 10.5,8.5 Z M10.5,10.5 C10.2238576,10.5 10,10.7238576 10,11 C10,11.2761424 10.2238576,11.5 10.5,11.5 C10.7761424,11.5 11,11.2761424 11,11 C11,10.7238576 10.7761424,10.5 10.5,10.5 Z M7.96313793,-1.24344979e-12 C10.1722769,-1.24344979e-12 11.9631379,1.790861 11.9631379,4 C11.9631379,6.209139 10.1722769,8 7.96313793,8 C5.75399893,8 3.96313793,6.209139 3.96313793,4 C3.96313793,1.790861 5.75399893,-1.24344979e-12 7.96313793,-1.24344979e-12 Z M7.96313793,2 C6.85856843,2 5.96313793,2.8954305 5.96313793,4 C5.96313793,5.1045695 6.85856843,6 7.96313793,6 C9.06770743,6 9.96313793,5.1045695 9.96313793,4 C9.96313793,2.8954305 9.06770743,2 7.96313793,2 Z" id="形状" fill="#575D6C"></path>
    </g>
</svg>