<?xml version="1.0" encoding="UTF-8"?>
<svg width="16px" height="16px" viewBox="0 0 16 16" version="1.1" xmlns="http://www.w3.org/2000/svg" xmlns:xlink="http://www.w3.org/1999/xlink">
    <title>set-keyword</title>
    <g id="页面-1" stroke="none" stroke-width="1" fill="none" fill-rule="evenodd">
        <g id="set-keyword" fill="#191919" fill-rule="nonzero">
            <path d="M4.92523364,0.5 C5.20137602,0.5 5.42523364,0.723857625 5.42523364,1 C5.42523364,1.24545989 5.24835848,1.44960837 5.01510928,1.49194433 L4.92523364,1.5 L2.96261682,1.5 C2.20235238,1.5 1.57756873,2.08006221 1.50669545,2.82175706 L1.5,2.96261682 L1.5,12.7757009 C1.5,13.5359654 2.08006221,14.160749 2.82175706,14.2316223 L2.96261682,14.2383178 L4.92523364,14.2383178 C5.20137602,14.2383178 5.42523364,14.4621754 5.42523364,14.7383178 C5.42523364,14.9837776 5.24835848,15.1879261 5.01510928,15.2302621 L4.92523364,15.2383178 L2.96261682,15.2383178 C1.65695374,15.2383178 0.588616112,14.2222067 0.505238163,12.9376187 L0.5,12.7757009 L0.5,2.96261682 C0.5,1.65695374 1.5161111,0.588616112 2.80069909,0.505238163 L2.96261682,0.5 L4.92523364,0.5 Z M13.0373832,0.5 L13.1993009,0.505238163 C14.4303644,0.585142031 15.414858,1.5696356 15.4947618,2.80069909 L15.5,2.96261682 L15.5,12.7757009 L15.4947618,12.9376187 C15.414858,14.1686822 14.4303644,15.1531757 13.1993009,15.2330796 L13.0373832,15.2383178 L11.0747664,15.2383178 L10.9848907,15.2302621 C10.7516415,15.1879261 10.5747664,14.9837776 10.5747664,14.7383178 C10.5747664,14.4928579 10.7516415,14.2887094 10.9848907,14.2463734 L11.0747664,14.2383178 L13.0373832,14.2383178 L13.1782429,14.2316223 C13.8735819,14.1651786 14.4268608,13.6118996 14.4933046,12.9165607 L14.5,12.7757009 L14.5,2.96261682 L14.4933046,2.82175706 C14.4268608,2.12641814 13.8735819,1.57313915 13.1782429,1.50669545 L13.0373832,1.5 L11.0747664,1.5 L10.9848907,1.49194433 C10.7516415,1.44960837 10.5747664,1.24545989 10.5747664,1 C10.5747664,0.754540111 10.7516415,0.55039163 10.9848907,0.508055669 L11.0747664,0.5 L13.0373832,0.5 Z M8.38329415,2.54457929 L8.43007436,2.62824601 L12.5117477,11.7871245 C12.624154,12.0393534 12.5108054,12.3349487 12.2585765,12.4473551 C12.034373,12.5472718 11.7759048,12.4688143 11.6422887,12.2729973 L11.598346,12.1941839 L10.727,10.24 L5.105,10.24 L4.20167087,12.2001234 C4.09883828,12.4230046 3.85270739,12.5342746 3.62317754,12.4749992 L3.53819432,12.4446615 C3.31531315,12.3418289 3.20404315,12.095698 3.26331854,11.8661682 L3.29365624,11.781185 L7.5193662,2.62230647 C7.68553168,2.26215647 8.17188384,2.2375412 8.38329415,2.54457929 Z M7.965,4.042 L5.567,9.24 L10.282,9.24 L7.965,4.042 Z"></path>
        </g>
    </g>
</svg>