<?xml version="1.0" encoding="UTF-8"?>
<svg width="16px" height="16px" viewBox="0 0 16 16" version="1.1" xmlns="http://www.w3.org/2000/svg" xmlns:xlink="http://www.w3.org/1999/xlink">
    <!-- Generator: Sketch 63.1 (92452) - https://sketch.com -->
    <title>操作/权限</title>
    <desc>Created with Sketch.</desc>
    <g id="操作/权限" stroke="none" stroke-width="1" fill="none" fill-rule="evenodd">
        <path d="M8,8 L8.25806065,8.00408341 C8.5452815,8.01318552 8.82868225,8.03742752 9.10749119,8.07603773 C9.03710404,8.37270186 9,8.68201787 9,9 C9,9.38600172 9.05467569,9.75923324 9.15670494,10.1123724 C8.86290446,10.0539618 8.56024429,10.0179095 8.25156533,10.0051783 L8,10 C5.38756235,10 3.12822216,11.6696153 2.30454935,14 L9.999,14 C10.5116545,14.0004644 10.9342431,14.3862751 10.9926188,14.883422 L10.999501,15 C11.0002206,15.5128357 10.6144249,15.9356999 10.1171176,15.9937137 L10.00025,16.0004374 L0.736842083,16 C0.329895437,16 -2.62190269e-12,15.6700726 -2.62190269e-12,15.2631259 L0.00370284286,15.1893485 L0.00915166595,15.1358624 C0.00311699992,15.0914358 -2.62190269e-12,15.0460819 -2.62190269e-12,15 C-2.62190269e-12,14.8549672 0.0308750741,14.7171457 0.0864109853,14.5927497 C0.740230082,10.9278751 3.91801591,8.12521875 7.74189202,8.00408341 L8,8 Z M13,6 C14.6568542,6 16,7.34314575 16,9 C16,10.3058822 15.1656226,11.4168852 14.0009007,11.8289758 L14,13.999 L15,14 C15.5522847,14 16,14.4477153 16,15 C16,15.5522847 15.5522847,16 15,16 L13,16 C12.4477153,16 12,15.5522847 12,15 L12.0000889,11.8293257 C10.8348501,11.4175144 10,10.3062521 10,9 C10,7.34314575 11.3431458,6 13,6 Z M13,8 C12.4477153,8 12,8.44771525 12,9 C12,9.55228475 12.4477153,10 13,10 C13.5522847,10 14,9.55228475 14,9 C14,8.44771525 13.5522847,8 13,8 Z M7.96313793,0 C10.1722769,0 11.9631379,1.790861 11.9631379,4 C11.9631379,4.41423668 11.9001709,4.81376663 11.7832863,5.18954055 C10.5431955,5.58427697 9.5665103,6.5673859 9.17985165,7.81045945 C8.79687187,7.93384531 8.38773053,8 7.96313793,8 C5.75399893,8 3.96313793,6.209139 3.96313793,4 C3.96313793,1.790861 5.75399893,0 7.96313793,0 Z M7.96313793,2 C6.85856843,2 5.96313793,2.8954305 5.96313793,4 C5.96313793,5.1045695 6.85856843,6 7.96313793,6 C9.06770743,6 9.96313793,5.1045695 9.96313793,4 C9.96313793,2.8954305 9.06770743,2 7.96313793,2 Z" id="形状" fill="#575D6C"></path>
    </g>
</svg>