<?xml version="1.0" encoding="UTF-8"?>
<svg width="16px" height="16px" viewBox="0 0 16 16" version="1.1" xmlns="http://www.w3.org/2000/svg" xmlns:xlink="http://www.w3.org/1999/xlink">
    <!-- Generator: Sketch 63.1 (92452) - https://sketch.com -->
    <title>10设置结果</title>
    <desc>Created with Sketch.</desc>
    <g id="10设置结果" stroke="none" stroke-width="1" fill="none" fill-rule="evenodd">
        <path d="M9.5,3 C9.94873136,3 10.3125,3.36376864 10.3125,3.8125 L10.3125,4.625 C10.3125,4.64754233 10.311582,4.66987025 10.3097813,4.69194841 C11.0525021,4.81612029 11.7383467,5.10821931 12.3269551,5.5278855 L12.3726213,5.47833018 L12.3726213,5.47833018 L12.9471456,4.90380592 C13.2644465,4.58650494 13.7788931,4.58650494 14.0961941,4.90380592 C14.4134951,5.22110691 14.4134951,5.73555345 14.0961941,6.05285444 L13.4721145,6.67304485 L13.4721145,6.67304485 C13.8917807,7.26165327 14.1838797,7.94749788 14.3080516,8.6902187 L14.375,8.6875 L14.375,8.6875 L15.1875,8.6875 C15.6362314,8.6875 16,9.05126864 16,9.5 C16,9.94873136 15.6362314,10.3125 15.1875,10.3125 L14.375,10.3125 C14.3524577,10.3125 14.3301297,10.311582 14.3080516,10.3097813 C14.1838797,11.0525021 13.8917807,11.7383467 13.4721145,12.3269551 L13.5216698,12.3726213 L13.5216698,12.3726213 L14.0961941,12.9471456 C14.4134951,13.2644465 14.4134951,13.7788931 14.0961941,14.0961941 C13.7788931,14.4134951 13.2644465,14.4134951 12.9471456,14.0961941 L12.3269551,13.4721145 L12.3269551,13.4721145 C11.7383467,13.8917807 11.0525021,14.1838797 10.3097813,14.3080516 L10.3125,14.375 L10.3125,14.375 L10.3125,15.1875 C10.3125,15.6362314 9.94873136,16 9.5,16 C9.05126864,16 8.6875,15.6362314 8.6875,15.1875 L8.6875,14.375 C8.6875,14.3524577 8.68841802,14.3301297 8.6902187,14.3080516 C7.94749788,14.1838797 7.26165327,13.8917807 6.67304485,13.4721145 L6.6273787,13.5216698 L6.6273787,13.5216698 L6.05285444,14.0961941 C5.73555345,14.4134951 5.22110691,14.4134951 4.90380592,14.0961941 C4.58650494,13.7788931 4.58650494,13.2644465 4.90380592,12.9471456 L5.5278855,12.3269551 L5.5278855,12.3269551 C5.10821931,11.7383467 4.81612029,11.0525021 4.69194841,10.3097813 L4.625,10.3125 L4.625,10.3125 L3.8125,10.3125 C3.36376864,10.3125 3,9.94873136 3,9.5 C3,9.05126864 3.36376864,8.6875 3.8125,8.6875 L4.625,8.6875 C4.64754233,8.6875 4.66987025,8.68841802 4.69194841,8.6902187 C4.81612029,7.94749788 5.10821931,7.26165327 5.5278855,6.67304485 L5.47833018,6.6273787 L5.47833018,6.6273787 L4.90380592,6.05285444 C4.58650494,5.73555345 4.58650494,5.22110691 4.90380592,4.90380592 C5.22110691,4.58650494 5.73555345,4.58650494 6.05285444,4.90380592 L6.67304485,5.5278855 L6.67304485,5.5278855 C7.26165327,5.10821931 7.94749788,4.81612029 8.6902187,4.69194841 L8.6875,4.625 L8.6875,4.625 L8.6875,3.8125 C8.6875,3.36376864 9.05126864,3 9.5,3 Z M2.41828333,12 C2.58974155,12.734019 2.83449589,13.4086871 3.13788615,14 L0,14 L0,12 L2.41828333,12 Z M9.5,6.5 C7.84314575,6.5 6.5,7.84314575 6.5,9.5 C6.5,11.1568542 7.84314575,12.5 9.5,12.5 C11.1568542,12.5 12.5,11.1568542 12.5,9.5 C12.5,7.84314575 11.1568542,6.5 9.5,6.5 Z M9.5,8.5 C10.0522847,8.5 10.5,8.94771525 10.5,9.5 C10.5,10.0522847 10.0522847,10.5 9.5,10.5 C8.94771525,10.5 8.5,10.0522847 8.5,9.5 C8.5,8.94771525 8.94771525,8.5 9.5,8.5 Z M2.43647537,6 C2.2414678,6.61382927 2.09618028,7.286582 2.01064005,8 L0,8 L0,6 L2.43647537,6 Z M15,-8.10018719e-13 L15,2 L0,2 L0,-8.10018719e-13 L15,-8.10018719e-13 Z" id="形状" fill="#575D6C"></path>
    </g>
</svg>