<?xml version="1.0" encoding="UTF-8"?>
<svg width="16px" height="16px" viewBox="0 0 16 16" version="1.1" xmlns="http://www.w3.org/2000/svg" xmlns:xlink="http://www.w3.org/1999/xlink">
    <!-- Generator: Sketch 63.1 (92452) - https://sketch.com -->
    <title>操作/avelcon-shrink</title>
    <desc>Created with Sketch.</desc>
    <g id="操作/avelcon-shrink" stroke="none" stroke-width="1" fill="none" fill-rule="evenodd">
        <path d="M6.78421356,7.69842712 C7.56390968,7.69842712 8.20466224,8.29331521 8.27734698,9.05396711 L8.28421356,9.19842712 L8.28421356,13.4913203 C8.28421356,14.3197475 7.61264069,14.9913203 6.78421356,14.9913203 C6.43611692,14.9913203 6.10049527,14.8703246 5.83357678,14.6516236 L5.72355339,14.5519805 L4.284,13.112 L2.57710678,14.8197475 C2.18658249,15.2102718 1.55341751,15.2102718 1.16289322,14.8197475 C0.772368927,14.4292232 0.772368927,13.7960582 1.16289322,13.4055339 L2.869,11.698 L1.43066017,10.2590873 C0.881485387,9.70991251 0.847161962,8.8408501 1.3276899,8.25168936 L1.43066017,8.13776695 C1.67680167,7.89162546 1.99967893,7.73986202 2.34306377,7.70576713 L2.49132034,7.69842712 L6.78421356,7.69842712 Z M6.28474747,9.69942712 L3.69974747,9.69942712 L6.28474747,12.2844271 L6.28474747,9.69942712 Z M14.8242136,1.16289322 C15.2147379,1.55341751 15.2147379,2.18658249 14.8242136,2.57710678 L13.118,4.282 L14.5593398,5.72355339 C15.1085146,6.27272818 15.142838,7.14179059 14.6623101,7.73095132 L14.5593398,7.84487373 C14.3131983,8.09101523 13.9903211,8.24277866 13.6469362,8.27687356 L13.4986797,8.28421356 L9.20578644,8.28421356 C8.42609032,8.28421356 7.78533776,7.68932548 7.71265302,6.92867357 L7.70578644,6.78421356 L7.70578644,2.49132034 C7.70578644,1.66289322 8.37735931,0.991320344 9.20578644,0.991320344 C9.55388308,0.991320344 9.88950473,1.11231609 10.1564232,1.33101711 L10.2664466,1.43066017 L11.704,2.868 L13.41,1.16289322 C13.8005243,0.772368927 14.4336893,0.772368927 14.8242136,1.16289322 Z M9.70578644,3.69821356 L9.70578644,6.28321356 L12.2907864,6.28321356 L9.70578644,3.69821356 Z" id="形状" fill="#575D6C" fill-rule="nonzero"></path>
    </g>
</svg>