<?xml version="1.0" encoding="UTF-8"?>
<svg width="16px" height="16px" viewBox="0 0 16 16" version="1.1" xmlns="http://www.w3.org/2000/svg" xmlns:xlink="http://www.w3.org/1999/xlink">
    <title>sign</title>
    <g id="sign" stroke="none" stroke-width="1" fill="none" fill-rule="evenodd">
        <path d="M6.147413,13.5644866 L9.80101096,13.5719628 C10.0572891,13.5719628 10.2650436,13.7797173 10.2650436,14.0359954 C10.2650436,14.2637982 10.1008919,14.4532613 9.88442141,14.4925518 L9.80101096,14.500028 L6.147413,14.4925518 C5.89113487,14.4925518 5.68338039,14.2847974 5.68338039,14.0285192 C5.68338039,13.8007164 5.84753208,13.6112533 6.06400255,13.5719628 L6.147413,13.5644866 Z M11.147413,13.5644866 L12.801011,13.5719628 C13.0572891,13.5719628 13.2650436,13.7797173 13.2650436,14.0359954 C13.2650436,14.2637982 13.1008919,14.4532613 12.8844214,14.4925518 L12.801011,14.500028 L11.147413,14.4925518 C10.8911349,14.4925518 10.6833804,14.2847974 10.6833804,14.0285192 C10.6833804,13.8007164 10.8475321,13.6112533 11.0640026,13.5719628 L11.147413,13.5644866 Z M9.67719185,1.05343063 C12.0756626,0.88934605 14.174577,1.90618039 14.9236251,3.58165364 L14.9236251,3.58165364 L15.1112541,4.00134286 L14.6933345,4.19288112 C13.5137378,4.73350644 12.6457839,5.43628601 11.8761094,6.37532378 C11.6496047,6.6516698 11.4391526,6.93705472 11.1806003,7.31065767 L11.1806003,7.31065767 L10.5567244,8.21353272 C9.65340943,9.47025866 8.77845128,10.0632845 7.45452335,10.0102808 L7.45452335,10.0102808 L7.346,10.003 L7.40860679,10.0401251 C7.81937035,10.2749327 7.98263569,10.7760768 7.80525013,11.2017862 L7.80525013,11.2017862 L7.75375294,11.3064442 C7.63980759,11.5057759 7.45601921,11.6557952 7.23790548,11.7275105 C5.31154193,12.3608939 3.74766398,12.3231889 2.58192447,11.579703 C2.41450769,12.0372674 2.45073321,12.4849101 2.63440355,13.3073266 C2.64790236,13.3677699 2.6764972,13.4575938 2.69917356,13.5633146 L4.75531517,13.5644866 C5.01159331,13.5644866 5.21934778,13.7722411 5.21934778,14.0285192 C5.21934778,14.256322 5.0551961,14.4457851 4.83872562,14.4850756 L4.75531517,14.4925518 L2.43515212,14.4925518 C2.39901033,14.4925518 2.36383359,14.48842 2.33006851,14.4806028 C2.07772934,14.5512323 1.75480693,14.3374066 1.55918903,13.3073266 C1.41019373,12.5227507 1.54249548,11.7751209 1.95609429,11.0644371 C1.04491302,10.0553968 0.769921694,8.03617305 1.34223648,6.35331823 C1.64718739,5.45662971 2.37941659,4.30256317 2.91599562,4.17667288 C3.12575496,4.12745988 3.30168487,4.1750512 3.43296878,4.28389279 L3.43296878,4.28389279 L3.494,4.343 L3.50378858,4.25861728 C3.54109782,3.94657421 3.60915795,3.71309965 3.71064696,3.55069634 L3.71064696,3.55069634 L3.75619672,3.48542437 C4.39074598,2.67292187 5.6726188,1.95855278 6.65570994,1.95855278 L6.65570994,1.95855278 L7.43037537,1.95855278 L7.42661449,1.9641521 L7.51702307,1.88904995 C7.99729664,1.50430218 8.59523644,1.23106351 9.22460431,1.11179024 L9.46192202,1.07436281 Z M13.8212479,3.51783711 C13.0834634,2.48805448 11.5343955,1.85660977 9.74053474,1.97933167 C8.9772722,2.03154811 8.22933913,2.39472724 7.77824358,2.91983286 C7.27095448,3.51035155 6.93529192,4.31900398 6.7776836,5.35493825 L6.7776836,5.35493825 L6.44137295,7.56545447 L5.87028804,5.4036615 C5.66721432,4.63494336 5.6653344,3.88329104 5.86364013,3.15675182 L5.86364013,3.15675182 L5.893,3.059 L5.83925701,3.08010464 C5.37695358,3.2733803 4.90664663,3.58981225 4.59621844,3.92871496 L4.59621844,3.92871496 L4.48763008,4.05666014 C4.45094425,4.10363416 4.42426364,4.22504858 4.40951528,4.41550858 L4.40951528,4.41550858 L4.3988157,4.62878396 L4.39649917,4.88689088 L4.40299391,5.18863049 L4.41872815,5.53280393 L4.44413012,5.91821236 L4.47962804,6.34365693 L4.55274156,7.05426905 L4.71806589,8.43578377 L3.83220158,7.72776175 C3.34082717,7.33503354 3.02223866,6.83645531 2.88815488,6.24534918 C2.86475847,6.1422065 2.84678532,6.03469984 2.83311653,5.92092126 C2.81820651,5.79681061 2.81015288,5.6973759 2.80340337,5.5510325 L2.80340337,5.5510325 L2.801,5.506 L2.61791897,5.81420249 C2.48491745,6.04861929 2.35486559,6.30504011 2.26654152,6.52844576 L2.26654152,6.52844576 L2.2208804,6.65213242 C1.72173709,8.11983121 2.01117547,9.90254582 2.75854849,10.555324 C3.67433678,11.3552012 5.05368877,11.4687318 6.94802702,10.8458782 L6.94802702,10.8458782 L6.77031412,10.7407872 C6.02656151,10.2854025 5.62739321,9.82653413 5.62739321,9.2966065 L5.62739321,9.2966065 L5.62739321,8.68043936 L6.21959158,8.85062466 C8.04962287,9.37653699 8.81378905,9.04827666 9.80313342,7.67186333 L9.80313342,7.67186333 L10.57531,6.55695186 L10.8699701,6.15348391 C10.965691,6.02693231 11.0603636,5.90654645 11.1583404,5.78701037 C11.870808,4.91776758 12.6686852,4.22300222 13.6760879,3.66667527 L13.6760879,3.66667527 L13.857,3.57 Z" fill="#71757F"></path>
    </g>
</svg>