<?xml version="1.0" encoding="UTF-8"?>
<svg width="16px" height="16px" viewBox="0 0 16 16" version="1.1" xmlns="http://www.w3.org/2000/svg" xmlns:xlink="http://www.w3.org/1999/xlink">
    <title>标准</title>
    <g id="标准" stroke="none" stroke-width="1" fill="none" fill-rule="evenodd">
        <path d="M3.2,10.8 C3.6418278,10.8 4,11.1581722 4,11.6 L4,12.4 C4,12.8418278 3.6418278,13.2 3.2,13.2 L2.4,13.2 C1.9581722,13.2 1.6,12.8418278 1.6,12.4 L1.6,11.6 C1.6,11.1581722 1.9581722,10.8 2.4,10.8 L3.2,10.8 Z M13.6,10.8 C14.0418278,10.8 14.4,11.1581722 14.4,11.6 L14.4,12.4 C14.4,12.8418278 14.0418278,13.2 13.6,13.2 L5.6,13.2 C5.1581722,13.2 4.8,12.8418278 4.8,12.4 L4.8,11.6 C4.8,11.1581722 5.1581722,10.8 5.6,10.8 L13.6,10.8 Z M3.2,6.8 C3.6418278,6.8 4,7.1581722 4,7.6 L4,8.4 C4,8.8418278 3.6418278,9.2 3.2,9.2 L2.4,9.2 C1.9581722,9.2 1.6,8.8418278 1.6,8.4 L1.6,7.6 C1.6,7.1581722 1.9581722,6.8 2.4,6.8 L3.2,6.8 Z M13.6,6.8 C14.0418278,6.8 14.4,7.1581722 14.4,7.6 L14.4,8.4 C14.4,8.8418278 14.0418278,9.2 13.6,9.2 L5.6,9.2 C5.1581722,9.2 4.8,8.8418278 4.8,8.4 L4.8,7.6 C4.8,7.1581722 5.1581722,6.8 5.6,6.8 L13.6,6.8 Z M3.2,2.8 C3.6418278,2.8 4,3.1581722 4,3.6 L4,4.4 C4,4.8418278 3.6418278,5.2 3.2,5.2 L2.4,5.2 C1.9581722,5.2 1.6,4.8418278 1.6,4.4 L1.6,3.6 C1.6,3.1581722 1.9581722,2.8 2.4,2.8 L3.2,2.8 Z M13.6,2.8 C14.0418278,2.8 14.4,3.1581722 14.4,3.6 L14.4,4.4 C14.4,4.8418278 14.0418278,5.2 13.6,5.2 L5.6,5.2 C5.1581722,5.2 4.8,4.8418278 4.8,4.4 L4.8,3.6 C4.8,3.1581722 5.1581722,2.8 5.6,2.8 L13.6,2.8 Z" id="形状结合" fill="#BECCFA"></path>
    </g>
</svg>