<?xml version="1.0" encoding="UTF-8"?>
<svg width="16px" height="16px" viewBox="0 0 16 16" version="1.1" xmlns="http://www.w3.org/2000/svg" xmlns:xlink="http://www.w3.org/1999/xlink">
    <title>icon-star</title>
    <g id="icon-star" stroke="none" stroke-width="1" fill="none" fill-rule="evenodd">
        <path d="M6.52991224,1.4610647 C6.87870181,0.649157647 7.81963232,0.273726746 8.63153937,0.622516311 C9.00814663,0.784304141 9.30829993,1.08445744 9.47008776,1.4610647 L9.47008776,1.4610647 L10.843,4.658 L14.3091032,4.97681519 C15.1401684,5.0531504 15.7641777,5.75211831 15.76286,6.57083546 L15.76286,6.57083546 L15.7560486,6.71645567 C15.7185573,7.12462564 15.525847,7.50284086 15.2176674,7.77308828 L15.2176674,7.77308828 L12.6,10.067 L13.369328,13.4616921 C13.5535421,14.2756709 13.0816136,15.085132 12.3025595,15.3368743 L12.3025595,15.3368743 L12.1619623,15.3753974 C11.7621841,15.4658725 11.3429293,15.399469 10.990676,15.1898839 L10.990676,15.1898839 L8,13.41 L5.009324,15.1898839 C4.29459113,15.6151387 3.38276674,15.4192894 2.9012701,14.761657 L2.9012701,14.761657 L2.81618556,14.6329783 C2.60660039,14.280725 2.54019696,13.8614702 2.63067204,13.4616921 L2.63067204,13.4616921 L3.399,10.067 L0.782332624,7.77308828 C0.157026659,7.22474789 0.0615212013,6.29703059 0.538176081,5.6358805 L0.538176081,5.6358805 L0.634264217,5.51519639 C0.904511628,5.2070168 1.28272685,5.01430652 1.69089683,4.97681519 L1.69089683,4.97681519 L5.156,4.658 Z" id="形状结合" fill="#71757F"></path>
    </g>
</svg>