<?xml version="1.0" encoding="UTF-8"?>
<svg width="16px" height="16px" viewBox="0 0 16 16" version="1.1" xmlns="http://www.w3.org/2000/svg" xmlns:xlink="http://www.w3.org/1999/xlink">
    <!-- Generator: Sketch 63.1 (92452) - https://sketch.com -->
    <title>操作/开始合并</title>
    <desc>Created with Sketch.</desc>
    <g id="操作/开始合并" stroke="none" stroke-width="1" fill="none" fill-rule="evenodd">
        <path d="M3.5,0.5 C5.15685425,0.5 6.5,1.84314575 6.5,3.5 C6.5,4.80621883 5.66519237,5.91745788 4.5,6.32929429 L4.5,9.67070571 C5.66519237,10.0825421 6.5,11.1937812 6.5,12.5 C6.5,14.1568542 5.15685425,15.5 3.5,15.5 C1.84314575,15.5 0.5,14.1568542 0.5,12.5 C0.5,11.1937812 1.33480763,10.0825421 2.5,9.67070571 L2.5,6.32929429 C1.33480763,5.91745788 0.5,4.80621883 0.5,3.5 C0.5,1.84314575 1.84314575,0.5 3.5,0.5 Z M8.5,13 C9.05228475,13 9.5,13.4477153 9.5,14 C9.5,14.5522847 9.05228475,15 8.5,15 C7.94771525,15 7.5,14.5522847 7.5,14 C7.5,13.4477153 7.94771525,13 8.5,13 Z M11.5,13 C12.0522847,13 12.5,13.4477153 12.5,14 C12.5,14.5522847 12.0522847,15 11.5,15 C10.9477153,15 10.5,14.5522847 10.5,14 C10.5,13.4477153 10.9477153,13 11.5,13 Z M14.5,13 C15.0522847,13 15.5,13.4477153 15.5,14 C15.5,14.5522847 15.0522847,15 14.5,15 C13.9477153,15 13.5,14.5522847 13.5,14 C13.5,13.4477153 13.9477153,13 14.5,13 Z M3.5,11.5 C2.94771525,11.5 2.5,11.9477153 2.5,12.5 C2.5,13.0522847 2.94771525,13.5 3.5,13.5 C4.05228475,13.5 4.5,13.0522847 4.5,12.5 C4.5,11.9477153 4.05228475,11.5 3.5,11.5 Z M11,0.5 L11,2.5 L12.5,2.5 C13.6045695,2.5 14.5,3.3954305 14.5,4.5 L14.5,9.67070571 C14.5,10.2229905 14.0522847,10.6707057 13.5,10.6707057 C12.9477153,10.6707057 12.5,10.2229905 12.5,9.67070571 L12.5,5.5 C12.5,4.94771525 12.0522847,4.5 11.5,4.5 L11,4.5 L11,6.5 L7,3.5 L11,0.5 Z M3.5,2.5 C2.94771525,2.5 2.5,2.94771525 2.5,3.5 C2.5,4.05228475 2.94771525,4.5 3.5,4.5 C4.05228475,4.5 4.5,4.05228475 4.5,3.5 C4.5,2.94771525 4.05228475,2.5 3.5,2.5 Z" id="形状" fill="#575D6C"></path>
    </g>
</svg>