<?xml version="1.0" encoding="UTF-8"?>
<svg width="16px" height="16px" viewBox="0 0 16 16" version="1.1" xmlns="http://www.w3.org/2000/svg" xmlns:xlink="http://www.w3.org/1999/xlink">
    <title>icon-star-o</title>
    <g id="icon-star-o" stroke="none" stroke-width="1" fill="none" fill-rule="evenodd">
        <path d="M6.52991224,1.4610647 L5.156,4.658 L1.69089683,4.97681519 C1.28272685,5.01430652 0.904511628,5.2070168 0.634264217,5.51519639 L0.538176081,5.6358805 C0.0615212013,6.29703059 0.157026659,7.22474789 0.782332624,7.77308828 L3.399,10.067 L2.63067204,13.4616921 C2.54019696,13.8614702 2.60660039,14.280725 2.81618556,14.6329783 L2.9012701,14.761657 C3.38276674,15.4192894 4.29459113,15.6151387 5.009324,15.1898839 L8,13.41 L10.990676,15.1898839 C11.3429293,15.399469 11.7621841,15.4658725 12.1619623,15.3753974 L12.3025595,15.3368743 C13.0816136,15.085132 13.5535421,14.2756709 13.369328,13.4616921 L12.6,10.067 L15.2176674,7.77308828 C15.525847,7.50284086 15.7185573,7.12462564 15.7560486,6.71645567 L15.76286,6.57083546 C15.7641777,5.75211831 15.1401684,5.0531504 14.3091032,4.97681519 L10.843,4.658 L9.47008776,1.4610647 C9.30829993,1.08445744 9.00814663,0.784304141 8.63153937,0.622516311 C7.81963232,0.273726746 6.87870181,0.649157647 6.52991224,1.4610647 Z M8,3.106 L9.24092515,5.99460761 L9.2953939,6.10284521 C9.45679159,6.38032287 9.7437089,6.56589259 10.0682628,6.59570359 L13.199,6.883 L10.8351967,8.95608348 L10.7490884,9.04133361 C10.5350661,9.28057725 10.4472411,9.61079602 10.5191818,9.92867721 L11.213,12.995 L8.51132278,11.3874722 L8.38983596,11.3259548 C8.09931796,11.2029199 7.76439285,11.2234257 7.48867722,11.3874722 L4.786,12.995 L5.48081815,9.92867721 L5.50037247,9.80909522 C5.53289627,9.4897439 5.40985043,9.17096908 5.1648033,8.95608348 L2.8,6.883 L5.93173721,6.59570359 C6.29686033,6.56216621 6.61434966,6.33149671 6.75907485,5.99460761 L8,3.106 Z" id="星形" fill="#71757F" fill-rule="nonzero"></path>
    </g>
</svg>