<?xml version="1.0" encoding="UTF-8"?>
<svg width="16px" height="16px" viewBox="0 0 16 16" version="1.1" xmlns="http://www.w3.org/2000/svg" xmlns:xlink="http://www.w3.org/1999/xlink">
    <title>icon/CD_Nav/store</title>
    <g id="icon/CD_Nav/store" stroke="none" stroke-width="1" fill="none" fill-rule="evenodd">
        <path d="M13.0016667,0.5 C14.3811832,0.5 15.5,1.61916057 15.5,2.99916667 L15.5,13.0008333 C15.5,14.3808394 14.3811832,15.5 13.0016667,15.5 L2.99833333,15.5 C1.61881685,15.5 0.5,14.3808394 0.5,13.0008333 L0.5,2.99916667 C0.5,1.61916057 1.61881685,0.5 2.99833333,0.5 L13.0016667,0.5 Z M13.0016667,2.5 L2.99833333,2.5 C2.75405648,2.5 2.55030473,2.67666734 2.50804233,2.90946982 L2.5,2.99916667 L2.5,13.0008333 C2.5,13.2457863 2.67660988,13.4496706 2.90886539,13.4919541 L2.99833333,13.5 L13.0016667,13.5 C13.2459435,13.5 13.4496953,13.3233327 13.4919577,13.0905302 L13.5,13.0008333 L13.5,2.99916667 C13.5,2.75421372 13.3233901,2.55032939 13.0911346,2.50804587 L13.0016667,2.5 Z M10.9090909,4.27222222 C11.4588653,4.27222222 11.9045455,4.7179024 11.9045455,5.26767677 C11.9045455,7.42399661 10.1563198,9.17222222 8,9.17222222 C5.84368017,9.17222222 4.09545455,7.4239966 4.09545455,5.26767677 C4.09545455,4.7179024 4.54113473,4.27222222 5.09090909,4.27222222 C5.60141386,4.27222222 6.02216395,4.65650769 6.07966649,5.15158574 L6.09212171,5.41721322 C6.16842316,6.40411106 6.99355136,7.18131313 8,7.18131313 C9.00644864,7.18131313 9.83157684,6.40411106 9.90787829,5.41721322 L9.92033351,5.15158574 C9.97783605,4.65650768 10.3985861,4.27222222 10.9090909,4.27222222 Z" id="形状结合" fill="#71757F" fill-rule="nonzero"></path>
    </g>
</svg>