<?xml version="1.0" encoding="UTF-8"?>
<svg width="16px" height="16px" viewBox="0 0 16 16" version="1.1" xmlns="http://www.w3.org/2000/svg" xmlns:xlink="http://www.w3.org/1999/xlink">
    <title>switch</title>
    <g id="页面-1" stroke="none" stroke-width="1" fill="none" fill-rule="evenodd">
        <path d="M15.5,9.50000004 C15.7761424,9.50000004 16,9.72385766 16,10 C16,10.2454599 15.8231248,10.4496084 15.5898756,10.4919444 L15.5,10.5 L2.716,10.5 L5.74673784,13.5005691 C5.94298178,13.6948444 5.94457761,14.0114229 5.75030222,14.2076668 C5.57761298,14.3821059 5.30828922,14.4027489 5.11274307,14.2687369 L5.04320442,14.2112312 L1.14823329,10.3553311 L1.13653617,10.3433589 C1.12360756,10.3296781 1.11144295,10.3152677 1.10011059,10.3001959 L1.14823329,10.3553311 C1.12212481,10.3294845 1.09946159,10.3014732 1.08024649,10.2718685 C1.07187835,10.2589115 1.06387502,10.2452274 1.05652235,10.2311496 C1.0495129,10.2177616 1.04327722,10.2043455 1.03766773,10.1907311 C1.03331797,10.1802232 1.02921212,10.1692187 1.02549033,10.1580387 C1.01939694,10.1395685 1.01444034,10.1211065 1.01055566,10.1024646 C1.00857604,10.0932568 1.00678658,10.0832146 1.00530156,10.0730734 C1.00267935,10.0548002 1.00105775,10.0371049 1.00037393,10.0193793 C1.00012595,10.013071 1,10.0065502 1,10 L1.00020395,9.9856587 C1.00077652,9.96555815 1.0025545,9.94548441 1.00553847,9.92555516 L1,10 C1,9.96534688 1.00352526,9.93151709 1.01023673,9.89884973 C1.01375792,9.8818136 1.01832719,9.86430716 1.02385871,9.84704076 C1.02802757,9.83398106 1.03266832,9.82134694 1.03779224,9.80896348 C1.04268831,9.79710188 1.04807198,9.78536881 1.05393377,9.77381517 C1.06147174,9.75904526 1.06965614,9.74475248 1.07850242,9.73092389 C1.08483235,9.72093589 1.0918125,9.71084172 1.09920631,9.70095807 C1.11006489,9.68649542 1.12149796,9.6728005 1.13361941,9.65975397 C1.13723382,9.65586257 1.1409148,9.65202548 1.14466891,9.64823333 L1.15664115,9.63653621 C1.17032193,9.6236076 1.18473234,9.61144299 1.19980412,9.60011063 L1.14466891,9.64823333 C1.17051549,9.62212485 1.19852682,9.59946163 1.22813154,9.58024653 C1.24108852,9.57187839 1.25477261,9.56387506 1.26885039,9.55652239 C1.28223845,9.54951294 1.29565455,9.54327726 1.30926891,9.53766777 C1.31977683,9.53331801 1.33078134,9.52921216 1.34196133,9.52549037 C1.3604315,9.51939698 1.3788935,9.51444038 1.39753548,9.5105557 C1.40122662,9.50973358 1.40566519,9.50886507 1.41012437,9.50805571 L1.4276156,9.50523834 C1.4455276,9.50263168 1.46355488,9.50099766 1.48161206,9.5003367 L1.5,9.50000004 L15.5,9.50000004 Z M11.8864867,1.0871633 L11.9560253,1.14466895 L15.8509964,5.00056905 L15.8636687,5.01357611 C15.8748432,5.02546789 15.8854422,5.03790671 15.8954214,5.0508481 L15.8509964,5.00056905 C15.8788263,5.0281198 15.9027417,5.05813018 15.922739,5.08990817 C15.9292292,5.10030641 15.9353921,5.11094466 15.9411651,5.12182144 C15.9487479,5.13606328 15.9555184,5.15050109 15.961562,5.16516905 C15.9661716,5.176305 15.9704933,5.18796039 15.974384,5.19981121 C15.9796674,5.21607429 15.9840472,5.23219003 15.9876086,5.24844991 C15.9903182,5.26050455 15.9926654,5.27357314 15.9944947,5.28680716 C15.9966574,5.3028176 15.9980479,5.31816929 15.9987322,5.33354722 C15.9990608,5.34077071 15.9992297,5.34831571 15.9992297,5.35590014 L15.9987372,5.37817301 C15.9981592,5.3912238 15.9970726,5.40425675 15.9954772,5.4172396 L15.9992297,5.35590014 C15.9992297,5.39344106 15.9950924,5.43001567 15.9872489,5.46519288 C15.983919,5.4800512 15.9796979,5.49556358 15.9747176,5.51088398 C15.9714241,5.52107139 15.9678346,5.53098974 15.9639461,5.54075661 C15.9566582,5.55906608 15.9483593,5.57683044 15.9389603,5.5941584 C15.9346952,5.60195337 15.9300943,5.60990582 15.9252846,5.617716 C15.9163267,5.63233286 15.9066158,5.64643337 15.8961,5.66011625 C15.8868365,5.67214402 15.8769613,5.68386239 15.8665767,5.6951031 C15.8626089,5.69939778 15.8586277,5.70355868 15.8545608,5.70766685 L15.8425886,5.71936397 C15.8289078,5.73229258 15.8144974,5.74445719 15.7994256,5.75578955 L15.8545608,5.70766685 C15.8287142,5.73377533 15.8007029,5.75643856 15.7710982,5.77565365 C15.7581412,5.78402179 15.7444571,5.79202512 15.7303793,5.79937779 C15.717629,5.80605508 15.7048735,5.81201775 15.6919365,5.81741339 C15.6782454,5.82315024 15.6638469,5.82842153 15.6491563,5.83303308 C15.6362609,5.83703016 15.6235083,5.84046613 15.610662,5.8433898 C15.6036284,5.84504045 15.5963944,5.84652147 15.5891053,5.84784447 L15.566577,5.85136882 C15.550552,5.85353532 15.5344412,5.85492508 15.5183058,5.85553782 L15.4992297,5.85590014 L1.5,5.85590014 C1.22385763,5.85590014 1,5.63204251 1,5.35590014 C1,5.11044025 1.17687516,4.90629177 1.41012437,4.86395581 L1.5,4.85590014 L14.282,4.855 L11.2524919,1.85533113 C11.0562479,1.66105574 11.0546521,1.34447727 11.2489275,1.14823333 C11.4216167,0.973794271 11.6909405,0.953151254 11.8864867,1.0871633 Z" id="switch" fill="#191919" fill-rule="nonzero"></path>
    </g>
</svg>