<?xml version="1.0" encoding="UTF-8"?>
<svg width="14px" height="14px" viewBox="0 0 14 14" version="1.1" xmlns="http://www.w3.org/2000/svg" xmlns:xlink="http://www.w3.org/1999/xlink">
    <title>to-do</title>
    <g id="页面-1" stroke="none" stroke-width="1" fill="none" fill-rule="evenodd">
        <path d="M7,0 C9.64879308,0 12.0337493,1.48454867 13.2256892,3.79688248 C13.3306565,4.00051645 13.2712216,4.24551646 13.095822,4.38038404 L13.0247059,4.42550103 L7.14494656,9.6684351 C6.9829513,9.83043036 6.73148852,9.84842983 6.54961159,9.72243352 L6.48498023,9.6684351 L3.3699605,6.55341538 C3.18771583,6.37117071 3.18771583,6.07569372 3.3699605,5.89344905 C3.53195576,5.73145379 3.78341854,5.71345431 3.96529547,5.83945063 L4.02992683,5.89344905 L6.81426667,8.67813333 L12.2147268,3.89764708 C11.1327301,2.08103767 9.16862995,0.933333333 7,0.933333333 C3.64947252,0.933333333 0.933333333,3.64947252 0.933333333,7 C0.933333333,10.3505275 3.64947252,13.0666667 7,13.0666667 C10.3505275,13.0666667 13.0666667,10.3505275 13.0666667,7 C13.0666667,6.74226712 13.2756005,6.53333333 13.5333333,6.53333333 C13.7910662,6.53333333 14,6.74226712 14,7 C14,10.8659932 10.8659932,14 7,14 C3.13400675,14 0,10.8659932 0,7 C0,3.13400675 3.13400675,0 7,0 Z" id="to-do" fill="#191919" fill-rule="nonzero"></path>
    </g>
</svg>