<?xml version="1.0" encoding="UTF-8"?>
<svg width="16px" height="16px" viewBox="0 0 16 16" version="1.1" xmlns="http://www.w3.org/2000/svg" xmlns:xlink="http://www.w3.org/1999/xlink">
    <title>transactions</title>
    <g id="页面-1" stroke="none" stroke-width="1" fill="none" fill-rule="evenodd">
        <g id="transactions" transform="translate(8.000000, 8.000000) rotate(-90.000000) translate(-8.000000, -8.000000) " fill="#191919" fill-rule="nonzero">
            <path d="M12.3699268,1 L12.5252902,1.00546223 C13.6542613,1.08512504 14.5454001,2.02623089 14.5454001,3.17547335 L14.5454001,3.17547335 L14.545,7.109 L13.642,7.109 L13.6423734,3.17547335 L13.6358039,3.04537307 C13.570642,2.4037341 13.0287576,1.90302667 12.3699268,1.90302667 L12.3699268,1.90302667 L3.17547335,1.90302667 L3.04537307,1.90959617 C2.4037341,1.97475816 1.90302667,2.51664251 1.90302667,3.17547335 L1.90302667,3.17547335 L1.90302667,12.3699268 L1.90959617,12.500027 C1.97475816,13.141666 2.51664251,13.6423734 3.17547335,13.6423734 L3.17547335,13.6423734 L6.609,13.642 L6.609,14.545 L3.17547335,14.5454001 L3.02010993,14.5399379 C1.89113878,14.4602751 1,13.5191692 1,12.3699268 L1,12.3699268 L1,3.17547335 L1.00546223,3.02010993 C1.08512504,1.89113878 2.02623089,1 3.17547335,1 L3.17547335,1 L12.3699268,1 Z M4.30203025,3.84422344 L4.38318402,3.88367708 L9.43094495,6.92254818 C9.64077961,7.04887359 9.7246142,7.30493456 9.6413516,7.5263791 L9.60221519,7.60747716 L8.342139,9.71704064 L11.7279252,11.7069658 L12.6323706,10.1400509 C12.6599849,10.0922216 12.7211439,10.0758341 12.7689732,10.1034483 C12.7883374,10.1146283 12.803396,10.1319755 12.8117434,10.1527188 L14.2006689,13.6042008 C14.2212869,13.6554364 14.1964663,13.7136852 14.1452308,13.7343031 C14.1377514,13.7373129 14.1299355,13.7394072 14.1219533,13.7405403 L10.4384194,14.2634365 C10.3837391,14.2711987 10.3331196,14.233164 10.3253574,14.1784837 C10.3222148,14.1563458 10.3265824,14.1337933 10.3377623,14.1144291 L11.2279252,12.5729658 L7.40011672,10.3237679 C7.18738586,10.1987331 7.10139268,9.94093625 7.184953,9.71784944 L7.22431957,9.63614602 L8.488139,7.52204064 L3.86741409,4.74040421 C3.65712194,4.61380338 3.57344929,4.35697598 3.65748185,4.13530944 L3.69693549,4.05415568 C3.82353632,3.84386353 4.08036372,3.76019088 4.30203025,3.84422344 Z"></path>
        </g>
    </g>
</svg>