<?xml version="1.0" encoding="UTF-8"?>
<svg width="16px" height="16px" viewBox="0 0 16 16" version="1.1" xmlns="http://www.w3.org/2000/svg" xmlns:xlink="http://www.w3.org/1999/xlink">
    <!-- Generator: Sketch 63.1 (92452) - https://sketch.com -->
    <title>操作/取消归档</title>
    <desc>Created with Sketch.</desc>
    <g id="操作/取消归档" stroke="none" stroke-width="1" fill="none" fill-rule="evenodd">
        <path d="M13,0.5 C13.5522847,0.5 14,0.94771525 14,1.5 L14,7.5 C14,8.05228475 13.5522847,8.5 13,8.5 C12.4477153,8.5 12,8.05228475 12,7.5 L12,2.5 L3,2.5 L3,8.5 L4.6542756,8.5 C4.8782546,8.5 5.09574927,8.57519321 5.27190234,8.71352864 L6.00147412,9.28647136 C6.1776272,9.42480679 6.39512186,9.5 6.61910087,9.5 L8.3961191,9.5 C8.62266062,9.5 8.84248911,9.42307901 9.01960679,9.28183317 L9.72642593,8.71816683 C9.9035436,8.57692099 10.1233721,8.5 10.3499136,8.5 C10.7089464,8.5 11,8.79105359 11,9.15008638 L11,10.0291124 C11,10.2602804 10.8334234,10.4525424 10.613755,10.4924134 L10.5291124,10.5 C10.2889561,10.5 10.0568205,10.5864271 9.8751382,10.7434831 L9.28166111,11.2565169 C9.09997884,11.4135729 8.86784321,11.5 8.62768694,11.5 L6.36604675,11.5 C6.12968434,11.5 5.9009622,11.416277 5.72045609,11.2636836 L5.09662155,10.7363164 C4.91611544,10.583723 4.6873933,10.5 4.45103089,10.5 L3,10.5 L3,13.5 L6,13.5 C6.55228475,13.5 7,13.9477153 7,14.5 C7,15.0522847 6.55228475,15.5 6,15.5 L2,15.5 C1.44771525,15.5 1,15.0522847 1,14.5 L1,1.5 C1,0.94771525 1.44771525,0.5 2,0.5 L13,0.5 Z M12.5,9.60188411 C12.6211116,9.60188411 12.7381066,9.64584324 12.8292523,9.72559577 L15.5699562,12.1237117 C15.7777745,12.3055527 15.7988332,12.621434 15.6169922,12.8292523 L15.5699562,12.8762883 L15.5699562,12.8762883 L12.8292523,15.2744042 C12.621434,15.4562453 12.3055527,15.4351865 12.1237117,15.2273682 C12.0439591,15.1362224 12,15.0192275 12,14.8981159 L12,13.5 L11.7750617,13.5041385 C10.3419885,13.5569562 9.03729377,14.1123695 8.03204808,14.9993076 C8.26933849,13.091207 9.85151611,11.6006857 11.8003597,11.5048953 L12,11.5 L12,10.1018841 C12,9.82574174 12.2238576,9.60188411 12.5,9.60188411 Z M9,4.5 C9.55228475,4.5 10,4.94771525 10,5.5 C10,6.05228475 9.55228475,6.5 9,6.5 L6,6.5 C5.44771525,6.5 5,6.05228475 5,5.5 C5,4.94771525 5.44771525,4.5 6,4.5 L9,4.5 Z" id="形状" fill="#575D6C"></path>
    </g>
</svg>