<?xml version="1.0" encoding="utf-8"?>
<!-- Generator: Adobe Illustrator 16.0.0, SVG Export Plug-In . SVG Version: 6.00 Build 0)  -->
<!DOCTYPE svg PUBLIC "-//W3C//DTD SVG 1.1//EN" "http://www.w3.org/Graphics/SVG/1.1/DTD/svg11.dtd">
<svg version="1.1" id="图层_1" xmlns="http://www.w3.org/2000/svg" xmlns:xlink="http://www.w3.org/1999/xlink" x="0px" y="0px"
	 width="16px" height="16px" viewBox="0 0 16 16" enable-background="new 0 0 16 16" xml:space="preserve">
<title>操作/流程图编译</title>
<desc>Created with Sketch.</desc>
<g id="操作_x2F_流程图编译">
	<path id="形状" fill="#252B3A" d="M10.105,8.723l1.414,1.414l2.768-2.768c1.789-1.787,1.975-4.511,0.414-6.071
		c-1.559-1.56-4.283-1.373-6.07,0.415L5.863,4.48l1.414,1.414l2.768-2.768c0.916-0.916,2.297-1.027,3.076-0.248
		c0.779,0.779,0.668,2.161-0.248,3.075L10.105,8.723z M5.924,12.904c-0.916,0.916-2.297,1.027-3.076,0.248s-0.669-2.16,0.248-3.076
		l2.768-2.769L4.449,5.894L1.681,8.662c-1.788,1.787-1.974,4.512-0.414,6.07c1.561,1.561,4.284,1.373,6.071-0.414l2.768-2.768
		l-1.414-1.415L5.924,12.904z M11.15,11.919l2.829,2.829l0.707-0.707l-2.829-2.829L11.15,11.919z M12.828,10.244l-0.424,0.906
		l3.173,1.479L16,11.723L12.828,10.244z M10.182,12.827L11.661,16l0.906-0.423l-1.479-3.172L10.182,12.827z M4.787,4.082
		L1.959,1.253L1.252,1.96L4.08,4.789L4.787,4.082z M3.596,4.851L0.423,3.372L0,4.278l3.172,1.479L3.596,4.851z M5.756,3.172L4.277,0
		L3.371,0.422L4.85,3.595L5.756,3.172z"/>
</g>
</svg>
