<?xml version="1.0" encoding="UTF-8"?>
<svg width="16px" height="16px" viewBox="0 0 16 16" version="1.1" xmlns="http://www.w3.org/2000/svg" xmlns:xlink="http://www.w3.org/1999/xlink">
    <!-- Generator: Sketch 63.1 (92452) - https://sketch.com -->
    <title>操作/veIcon-briefcase</title>
    <desc>Created with Sketch.</desc>
    <g id="操作/veIcon-briefcase" stroke="none" stroke-width="1" fill="none" fill-rule="evenodd">
        <path d="M11,1 C11.5128358,1 11.9355072,1.38604019 11.9932723,1.88337887 L12,2 L12,4 L14,4 C14.5522847,4 15,4.44771525 15,5 L15,14 C15,14.5522847 14.5522847,15 14,15 L2,15 C1.44771525,15 1,14.5522847 1,14 L1,5 C1,4.44771525 1.44771525,4 2,4 L4,4 L4,2 C4,1.44771525 4.44771525,1 5,1 L11,1 Z M13,6 L3,6 L3,13 L13,13 L13,6 Z M11,7 C11.5522847,7 12,7.44771525 12,8 C12,8.55228475 11.5522847,9 11,9 L11,10 C11,10.5522847 10.5522847,11 10,11 C9.44771525,11 9,10.5522847 9,10 L9,9 L7,9 L7,10 C7,10.5522847 6.55228475,11 6,11 C5.44771525,11 5,10.5522847 5,10 L5,9 C4.44771525,9 4,8.55228475 4,8 C4,7.44771525 4.44771525,7 5,7 L11,7 Z M10,3 L6,3 L6,4 L10,4 L10,3 Z" id="形状" fill="#575D6C"></path>
    </g>
</svg>