<?xml version="1.0" encoding="UTF-8"?>
<svg width="16px" height="16px" viewBox="0 0 16 16" version="1.1" xmlns="http://www.w3.org/2000/svg" xmlns:xlink="http://www.w3.org/1999/xlink">
    <title>校验</title>
    <g id="校验" stroke="none" stroke-width="1" fill="none" fill-rule="evenodd">
        <path d="M10.4439381,4.61583228 C10.7763354,4.39444901 11.2085823,4.39206953 11.5433967,4.60977986 L11.5433967,4.60977986 L11.6885864,4.70418827 C12.2275106,5.05461936 12.7424983,5.32566554 13.2322104,5.51897291 C13.7109243,5.70793894 14.2031871,5.83748178 14.7110336,5.90819019 L14.7110336,5.90819019 L14.9379016,5.93977744 C15.4321349,6.00859044 15.8,6.43122262 15.8,6.93022337 L15.8,6.93022337 L15.8,11.1670258 L15.6778242,11.424238 C14.839871,13.1883501 13.482767,14.6168806 11.6375546,15.6957181 L11.6375546,15.6957181 L11.4812836,15.7870848 C11.1236213,15.9961987 10.6740493,15.963107 10.3508603,15.7038778 L10.3508603,15.7038778 L10.2096515,15.5906144 C8.16681004,13.952055 6.87896768,12.5964315 6.32217578,11.424238 L6.32217578,11.424238 L6.2,11.1670258 L6.2,6.92661186 C6.2,6.4217082 6.57637715,5.9960087 7.07747669,5.93414623 L7.07747669,5.93414623 L7.3083916,5.90563898 C7.77075515,5.8485586 8.25700738,5.72059749 8.76778964,5.51897291 C9.2908743,5.31249213 9.8012661,5.04386486 10.2997966,4.71183344 L10.2997966,4.71183344 Z M14.2,0.5 C14.7522847,0.5 15.2,0.94771525 15.2,1.5 L15.2,5.258 L15.1182168,5.24550123 C14.6332456,5.1543777 14.160011,5.01766447 13.6972542,4.83499731 C13.5341852,4.77062797 13.3687968,4.69912498 13.2011229,4.6204467 L13.2,2.5 L2.2,2.5 L2.2,6.5 L5.199,6.5 L5.199,8.5 L2.2,8.5 L2.2,12.5 L5.63409366,12.5002483 C6.00952248,13.1218801 6.54303416,13.785639 7.23680637,14.5005734 L1.2,14.5 C0.64771525,14.5 0.2,14.0522847 0.2,13.5 L0.2,1.5 C0.2,0.94771525 0.64771525,0.5 1.2,0.5 L14.2,0.5 Z M11.0031111,6.25 L10.8951693,6.32015685 C10.4047448,6.61258679 9.90407138,6.86761292 9.39337017,7.08487468 C9.04684262,7.23229393 8.70243949,7.35945476 8.36021134,7.46612081 L8.36021134,7.46612081 L8.2,7.51070107 L8.2,10.6624537 L8.23836856,10.7312544 C8.68948518,11.5058646 9.58081588,12.5305832 10.9019876,13.7589604 L10.9019876,13.7589604 L11.1104444,13.95 L11.4297018,13.6962634 C12.4247239,12.8623197 13.194937,11.8943722 13.751668,10.7868717 L13.751668,10.7868717 L13.8,10.6808948 L13.8,7.50734814 L13.6019401,7.45075625 C13.4339645,7.39847389 13.2670208,7.34183841 13.101129,7.28085606 L13.101129,7.28085606 L12.6066298,7.08487468 C12.123453,6.87932231 11.6358269,6.63013568 11.1433951,6.33778669 L11.1433951,6.33778669 L11.0031111,6.25 Z M4.2,9.5 C4.74655286,9.5 5.1906955,9.93847024 5.19985571,10.4828385 L5.199,10.517 L5.19327227,10.6166211 C5.13550716,11.1139598 4.71283584,11.5 4.2,11.5 C3.64771525,11.5 3.2,11.0522847 3.2,10.5 C3.2,9.94771525 3.64771525,9.5 4.2,9.5 Z M4.2,3.5 C4.75228475,3.5 5.2,3.94771525 5.2,4.5 C5.2,5.05228475 4.75228475,5.5 4.2,5.5 C3.64771525,5.5 3.2,5.05228475 3.2,4.5 C3.2,3.94771525 3.64771525,3.5 4.2,3.5 Z M11.2,3.5 C11.5680543,3.5 11.8896674,3.69883805 12.0632789,3.99495361 C11.9862021,3.94962115 11.9093257,3.90071903 11.8320419,3.85046586 L11.5416625,3.66164904 C11.2068481,3.44393871 10.7746012,3.44631819 10.4422039,3.66770147 L10.1539209,3.85970378 C9.55152987,4.26090842 8.93480645,4.58549969 8.30274582,4.83499731 C7.7052483,5.07085159 7.13552949,5.22328668 6.59288628,5.29535328 C6.35409926,5.11203412 6.2,4.82401296 6.2,4.5 C6.2,3.94771525 6.64771525,3.5 7.2,3.5 L11.2,3.5 Z" id="形状结合" fill="#575D6C"></path>
    </g>
</svg>